<svg width="32" height="32" viewBox="0 0 32 32" fill="none" xmlns="http://www.w3.org/2000/svg">
<g clip-path="url(#clip0_1992_269690)">
<path d="M23.8105 21.1005C23.6959 21.1003 23.5851 21.0595 23.4979 20.9851C23.4107 20.9108 23.3527 20.8079 23.3344 20.6948C23.316 20.5817 23.3385 20.4658 23.3977 20.3677C23.457 20.2696 23.5491 20.1958 23.6578 20.1594L24.7196 19.8054C24.8825 19.7513 25.0242 19.6472 25.1247 19.5079C25.2251 19.3686 25.279 19.2012 25.2789 19.0295V15.7014C25.279 15.5297 25.2251 15.3624 25.1247 15.2231C25.0243 15.0838 24.8826 14.9797 24.7196 14.9255L23.6579 14.5716C23.5374 14.5302 23.4381 14.443 23.3817 14.3288C23.3252 14.2147 23.3162 14.0828 23.3564 13.962C23.3967 13.8412 23.4831 13.7412 23.5968 13.6837C23.7104 13.6263 23.8422 13.6161 23.9634 13.6553L25.0251 14.0093C25.3805 14.1274 25.6896 14.3544 25.9085 14.6582C26.1274 14.962 26.2451 15.327 26.2447 15.7014V19.0295C26.2451 19.404 26.1274 19.769 25.9085 20.0728C25.6895 20.3766 25.3804 20.6036 25.0251 20.7217L23.9634 21.0756C23.9141 21.0921 23.8624 21.1005 23.8105 21.1005Z" fill="#557981"/>
<path d="M12.5114 5.65813H10.8203V2.211H12.5114V5.65813ZM17.1943 2.21094H18.8854V5.65806H17.1943V2.21094Z" fill="#ABABAB"/>
<path d="M17.1943 2.21094H18.8854V3.38169H17.1943V2.21094ZM10.8203 2.21094H12.5114V3.38169H10.8203V2.21094Z" fill="#9B9B9B"/>
<path d="M21.4614 29.2029H8.25C6.86931 29.2029 5.75 28.0836 5.75 26.7029V8.1582C5.75 6.77752 6.86931 5.6582 8.25 5.6582H21.4614C22.8421 5.6582 23.9614 6.77752 23.9614 8.1582V26.7029C23.9614 28.0836 22.8421 29.2029 21.4614 29.2029Z" fill="#FB9538"/>
<path d="M21.461 5.6582H20.0586C21.4954 5.6582 22.6602 6.82302 22.6602 8.25983V26.6013C22.6602 28.0381 21.4954 29.2029 20.0586 29.2029H21.461C22.8417 29.2029 23.961 28.0836 23.961 26.7029V8.1582C23.961 6.77745 22.8418 5.6582 21.461 5.6582Z" fill="#FC840D"/>
<path d="M22.0101 26.1462C20.1487 26.1462 18.5885 27.4566 18.201 29.2032H21.3859C22.8083 29.2032 23.9613 28.0501 23.9613 26.6277V26.1463H22.0101V26.1462ZM7.70119 26.1462C9.56262 26.1462 11.1229 27.4566 11.5103 29.2032H8.35162C6.91481 29.2032 5.75 28.0384 5.75 26.6016V26.1462H7.70119Z" fill="#F16600"/>
<path d="M22.0098 32.0002C23.0875 32.0002 23.9611 31.1266 23.9611 30.0489C23.9611 28.9713 23.0875 28.0977 22.0098 28.0977C20.9322 28.0977 20.0586 28.9713 20.0586 30.0489C20.0586 31.1266 20.9322 32.0002 22.0098 32.0002Z" fill="#595959"/>
<path d="M7.70125 31.9999C8.7789 31.9999 9.6525 31.1263 9.6525 30.0487C9.6525 28.971 8.7789 28.0974 7.70125 28.0974C6.6236 28.0974 5.75 28.971 5.75 30.0487C5.75 31.1263 6.6236 31.9999 7.70125 31.9999Z" fill="#595959"/>
<path d="M9.42781 24.7154H9.35156C8.83381 24.7154 8.41406 24.2957 8.41406 23.7779V9.2627C8.41406 8.74495 8.83381 8.3252 9.35156 8.3252H9.42781C9.94556 8.3252 10.3653 8.74495 10.3653 9.2627V23.7779C10.3653 24.2957 9.94556 24.7154 9.42781 24.7154ZM13.0701 24.7154H12.9938C12.4761 24.7154 12.0563 24.2957 12.0563 23.7779V9.2627C12.0563 8.74495 12.4761 8.3252 12.9938 8.3252H13.0701C13.5878 8.3252 14.0076 8.74495 14.0076 9.2627V23.7779C14.0076 24.2957 13.5878 24.7154 13.0701 24.7154ZM16.7123 24.7154H16.6361C16.1183 24.7154 15.6986 24.2957 15.6986 23.7779V9.2627C15.6986 8.74495 16.1183 8.3252 16.6361 8.3252H16.7123C17.2301 8.3252 17.6498 8.74495 17.6498 9.2627V23.7779C17.6498 24.2957 17.2301 24.7154 16.7123 24.7154ZM20.3546 24.7154H20.2784C19.7606 24.7154 19.3409 24.2957 19.3409 23.7779V9.2627C19.3409 8.74495 19.7606 8.3252 20.2784 8.3252H20.3546C20.8724 8.3252 21.2921 8.74495 21.2921 9.2627V23.7779C21.2921 24.2957 20.8724 24.7154 20.3546 24.7154Z" fill="#F16600"/>
<path d="M19.4338 2.21137H10.2773C9.93216 2.21137 9.65234 1.93156 9.65234 1.58637V0.625C9.65234 0.279813 9.93216 0 10.2773 0H19.4338C19.779 0 20.0588 0.279813 20.0588 0.625V1.58637C20.0588 1.93156 19.779 2.21137 19.4338 2.21137Z" fill="#557981"/>
<path d="M22.0098 30.6991C22.369 30.6991 22.6602 30.4079 22.6602 30.0486C22.6602 29.6894 22.369 29.3982 22.0098 29.3982C21.6506 29.3982 21.3594 29.6894 21.3594 30.0486C21.3594 30.4079 21.6506 30.6991 22.0098 30.6991Z" fill="#434343"/>
<path d="M7.70122 30.6991C8.06045 30.6991 8.35166 30.4079 8.35166 30.0486C8.35166 29.6894 8.06045 29.3982 7.70122 29.3982C7.34199 29.3982 7.05078 29.6894 7.05078 30.0486C7.05078 30.4079 7.34199 30.6991 7.70122 30.6991Z" fill="#434343"/>
</g>
<defs>
<clipPath id="clip0_1992_269690">
<rect width="32" height="32" fill="white"/>
</clipPath>
</defs>
</svg>
