<svg width="24" height="24" viewBox="0 0 24 24" fill="none" xmlns="http://www.w3.org/2000/svg">
<path d="M12 22.25C6.34614 22.25 1.75 17.6539 1.75 12C1.75 6.34614 6.34614 1.75 12 1.75C17.6539 1.75 22.25 6.34614 22.25 12C22.25 17.6539 17.6539 22.25 12 22.25ZM12 2.25C6.62386 2.25 2.25 6.62386 2.25 12C2.25 17.3761 6.62386 21.75 12 21.75C17.3761 21.75 21.75 17.3761 21.75 12C21.75 6.62386 17.3761 2.25 12 2.25Z" fill="#525F72" stroke="#525F72"/>
<path d="M9.89062 8.08008C9.75677 8.08008 9.64062 7.96394 9.64062 7.83008V5.83008C9.64062 5.69622 9.75677 5.58008 9.89062 5.58008C10.0245 5.58008 10.1406 5.69622 10.1406 5.83008V7.83008C10.1406 7.96829 10.0301 8.08008 9.89062 8.08008Z" fill="#525F72" stroke="#525F72"/>
<path d="M14.1094 8.08008C13.9755 8.08008 13.8594 7.96394 13.8594 7.83008V5.83008C13.8594 5.69622 13.9755 5.58008 14.1094 5.58008C14.2432 5.58008 14.3594 5.69622 14.3594 5.83008V7.83008C14.3594 7.96394 14.2432 8.08008 14.1094 8.08008Z" fill="#525F72" stroke="#525F72"/>
<path d="M16.4695 10.8901H7.51953C7.10953 10.8901 6.76953 10.5501 6.76953 10.1401C6.76953 9.73014 7.10953 9.39014 7.51953 9.39014H16.4695C16.8795 9.39014 17.2195 9.73014 17.2195 10.1401C17.2195 10.5501 16.8895 10.8901 16.4695 10.8901Z" fill="#525F72"/>
<path d="M13.5 18.4199H10.5C7.75 18.4199 5.75 16.4199 5.75 13.6699V10.6699C5.75 7.91992 7.75 5.91992 10.5 5.91992H13.5C16.25 5.91992 18.25 7.91992 18.25 10.6699V13.6699C18.25 16.4199 16.25 18.4199 13.5 18.4199ZM10.5 7.41992C8.25 7.41992 7.25 9.04992 7.25 10.6699V13.6699C7.25 15.2899 8.25 16.9199 10.5 16.9199H13.5C15.75 16.9199 16.75 15.2899 16.75 13.6699V10.6699C16.75 9.04992 15.75 7.41992 13.5 7.41992H10.5Z" fill="#525F72"/>
</svg>
