<svg width="32" height="32" viewBox="0 0 32 32" fill="none" xmlns="http://www.w3.org/2000/svg">
<g clip-path="url(#clip0_1969_120647)">
<path d="M21.7856 20.2667H10.2123C9.97665 20.2665 9.74667 20.3389 9.55371 20.4742C9.36075 20.6094 9.21419 20.8009 9.13401 21.0225C9.05382 21.2441 9.04392 21.485 9.10565 21.7124C9.16738 21.9399 9.29773 22.1427 9.47894 22.2933L11.2075 23.7333C11.4135 23.9055 11.6734 23.9999 11.9419 24H20.056C20.3243 23.9999 20.5841 23.9055 20.7899 23.7333L22.519 22.2933C22.7002 22.1427 22.8307 21.9399 22.8924 21.7124C22.9542 21.485 22.9443 21.2441 22.8641 21.0224C22.7839 20.8008 22.6373 20.6093 22.4443 20.4741C22.2513 20.3388 22.0213 20.2664 21.7856 20.2667ZM21.8389 21.4741L20.1099 22.9141C20.0948 22.9263 20.0759 22.9328 20.0565 22.9322H11.9429C11.9235 22.9328 11.9045 22.9261 11.8896 22.9135L10.1605 21.4735C10.1467 21.464 10.1367 21.4499 10.1323 21.4337C10.1279 21.4174 10.1294 21.4002 10.1366 21.385C10.1406 21.3686 10.1503 21.3543 10.164 21.3445C10.1777 21.3347 10.1944 21.3301 10.2112 21.3317H21.7845C21.8013 21.3301 21.818 21.3347 21.8317 21.3445C21.8454 21.3543 21.8552 21.3686 21.8592 21.385C21.8744 21.4163 21.8647 21.454 21.8362 21.4741H21.8389V21.4741ZM25.615 20.5333L23.8805 21.9733C23.6987 22.1237 23.5678 22.3265 23.5057 22.5541C23.4436 22.7817 23.4534 23.023 23.5336 23.2448C23.6139 23.4667 23.7608 23.6583 23.9542 23.7935C24.1475 23.9286 24.3779 24.0008 24.6139 24H28.7995C29.3886 24 29.8661 23.5224 29.8661 22.9333V21.3333C29.8661 20.7442 29.3886 20.2666 28.7995 20.2666H26.3488C26.0806 20.2674 25.8211 20.3617 25.615 20.5333ZM28.7995 21.3333V22.9333H24.6139C24.597 22.9349 24.5802 22.9304 24.5663 22.9206C24.5525 22.9108 24.5427 22.8964 24.5387 22.8799C24.5316 22.8651 24.5301 22.8483 24.5346 22.8325C24.539 22.8167 24.549 22.803 24.5627 22.7941L26.2976 21.3509C26.3124 21.3382 26.3315 21.3315 26.351 21.3322L28.7995 21.3333ZM6.38404 20.5333C6.17874 20.3621 5.92017 20.2678 5.65284 20.2667H3.19949C2.61038 20.2667 2.13281 20.7442 2.13281 21.3333V22.9333C2.13281 23.5224 2.61038 24 3.19949 24H7.38401C7.61985 24.0007 7.85015 23.9285 8.04343 23.7933C8.2367 23.6581 8.38352 23.4666 8.46382 23.2448C8.54413 23.0231 8.55399 22.7819 8.49207 22.5543C8.43016 22.3268 8.29947 22.1239 8.11789 21.9734L6.38404 20.5333ZM7.46033 22.8799C7.4563 22.8964 7.44648 22.9108 7.43267 22.9206C7.41885 22.9304 7.40196 22.9349 7.38511 22.9333H3.19949V21.3333H5.65284C5.67231 21.3326 5.69137 21.3393 5.70617 21.352L7.44164 22.7952C7.45411 22.8049 7.46279 22.8187 7.4662 22.8342C7.46961 22.8497 7.46754 22.8658 7.46033 22.8799Z" fill="#5A687D"/>
<path fill-rule="evenodd" clip-rule="evenodd" d="M6.93463 25.5996H3.20128C2.90675 25.5996 2.66797 25.8384 2.66797 26.1329C2.66797 26.4275 2.90675 26.6662 3.20128 26.6662H6.93463C7.22916 26.6662 7.46794 26.4275 7.46794 26.1329C7.46794 25.8384 7.22916 25.5996 6.93463 25.5996ZM28.8013 25.5996H25.068C24.7734 25.5996 24.5346 25.8384 24.5346 26.1329C24.5346 26.4275 24.7734 26.6662 25.068 26.6662H28.8013C29.0958 26.6662 29.3346 26.4275 29.3346 26.1329C29.3346 25.8384 29.0958 25.5996 28.8013 25.5996ZM20.8013 25.5996H11.2013C10.9068 25.5996 10.668 25.8384 10.668 26.1329C10.668 26.4275 10.9068 26.6662 11.2013 26.6662H20.8013C21.0958 26.6662 21.3346 26.4275 21.3346 26.1329C21.3346 25.8384 21.0958 25.5996 20.8013 25.5996Z" fill="#5A687D"/>
<path d="M32 15.4667C32 14.583 31.2837 13.8667 30.4 13.8667H29.3333C29.1037 13.8675 28.877 13.918 28.6687 14.0147C28.4605 14.1115 28.2756 14.2522 28.1269 14.4272L27.1253 11.423C26.7632 10.3336 25.7437 9.5989 24.5957 9.60006H7.40424C6.25625 9.5989 5.23677 10.3336 4.87463 11.423L3.87304 14.4272C3.72433 14.2522 3.5395 14.1115 3.33125 14.0148C3.123 13.918 2.89626 13.8675 2.66663 13.8667H1.6C0.716359 13.8667 8.09956e-06 14.583 8.09956e-06 15.4667C8.09956e-06 16.3503 0.716359 17.0667 1.6 17.0667H2.44585L0.468809 19.0437C0.319637 19.192 0.201382 19.3683 0.120906 19.5626C0.0404308 19.7569 -0.000663449 19.9652 8.09956e-06 20.1755V27.2C0.00137849 27.5297 0.104592 27.851 0.295529 28.1198C0.486466 28.3887 0.755801 28.5919 1.06669 28.7019V30.4C1.06669 31.2836 1.78304 32 2.66668 32H6.40003C7.28367 32 8.00002 31.2836 8.00002 30.4V28.8H24V30.4C24 31.2836 24.7163 32 25.6 32H29.3333C30.217 32 30.9333 31.2836 30.9333 30.4V28.7019C31.2442 28.5919 31.5135 28.3886 31.7045 28.1198C31.8954 27.851 31.9986 27.5297 32 27.2V20.1755C32.0007 19.9652 31.9596 19.7569 31.8791 19.5626C31.7986 19.3683 31.6804 19.192 31.5312 19.0437L29.5542 17.0667H30.4C31.2837 17.0667 32 16.3503 32 15.4667ZM5.8864 11.7606C5.99262 11.442 6.19636 11.165 6.46877 10.9686C6.74119 10.7723 7.06846 10.6667 7.40424 10.6667H24.5957C24.9315 10.6667 25.2588 10.7723 25.5312 10.9686C25.8036 11.165 26.0073 11.442 26.1136 11.7606L27.5264 16H4.47359L5.8864 11.7606ZM1.6 16C1.30547 16 1.06669 15.7612 1.06669 15.4667C1.06669 15.1721 1.30547 14.9333 1.6 14.9333H2.66668C2.96121 14.9333 3.19999 15.1721 3.19999 15.4667V16H1.6ZM6.93334 30.4C6.93334 30.6945 6.69456 30.9333 6.40003 30.9333H2.66668C2.37215 30.9333 2.13337 30.6945 2.13337 30.4V28.8H6.93334V30.4ZM29.8667 30.4C29.8667 30.6945 29.6279 30.9333 29.3333 30.9333H25.6C25.3055 30.9333 25.0667 30.6945 25.0667 30.4V28.8H29.8667V30.4ZM30.7771 19.7979C30.8267 19.8475 30.866 19.9063 30.8928 19.9711C30.9196 20.0359 30.9334 20.1054 30.9333 20.1755V27.2C30.9333 27.4946 30.6945 27.7333 30.4 27.7333H1.6C1.30547 27.7333 1.06669 27.4946 1.06669 27.2V20.1755C1.06664 20.1053 1.08041 20.0359 1.10723 19.9711C1.13404 19.9063 1.17337 19.8474 1.22295 19.7978L3.95414 17.0667H28.0459L30.7771 19.7979ZM28.8 16V15.4667C28.8 15.1721 29.0388 14.9333 29.3333 14.9333H30.4C30.6945 14.9333 30.9333 15.1721 30.9333 15.4667C30.9333 15.7612 30.6945 16 30.4 16H28.8ZM30.9333 0H1.06669C0.477575 0 8.09956e-06 0.477567 8.09956e-06 1.06668V2.13336C8.09956e-06 3.31158 0.955142 4.26672 2.13337 4.26672H4.80004V4.80003C4.80004 5.09456 5.03882 5.33334 5.33335 5.33334C5.62788 5.33334 5.86666 5.09456 5.86666 4.80003V4.26672H9.06665V4.80003C9.06665 5.09456 9.30543 5.33334 9.59996 5.33334C9.89449 5.33334 10.1333 5.09456 10.1333 4.80003V4.26672H13.3333V4.80003C13.3333 5.09456 13.572 5.33334 13.8666 5.33334C14.1611 5.33334 14.3999 5.09456 14.3999 4.80003V4.26672H17.5999V4.80003C17.5999 5.09456 17.8387 5.33334 18.1332 5.33334C18.4277 5.33334 18.6665 5.09456 18.6665 4.80003V4.26672H21.8665V4.80003C21.8665 5.09456 22.1053 5.33334 22.3998 5.33334C22.6943 5.33334 22.9331 5.09456 22.9331 4.80003V4.26672H26.1331V4.80003C26.1331 5.09456 26.3719 5.33334 26.6664 5.33334C26.9609 5.33334 27.1997 5.09456 27.1997 4.80003V4.26672H29.8664C31.0446 4.26672 31.9997 3.31158 31.9997 2.13336V1.06668C32 0.477567 31.5224 0 30.9333 0ZM30.9333 2.13336C30.9333 2.72247 30.4558 3.20004 29.8667 3.20004H2.13337C1.54425 3.20004 1.06669 2.72247 1.06669 2.13336V1.06668H30.9333V2.13336Z" fill="#5A687D"/>
<path fill-rule="evenodd" clip-rule="evenodd" d="M8.00126 6.933V5.86632C8.00126 5.57179 7.76247 5.33301 7.46795 5.33301C7.17342 5.33301 6.93463 5.57179 6.93463 5.86632V6.933C6.93463 7.22753 7.17342 7.46631 7.46795 7.46631C7.76247 7.46631 8.00126 7.22753 8.00126 6.933ZM3.7346 6.933V5.86632C3.7346 5.57179 3.49581 5.33301 3.20128 5.33301C2.90675 5.33301 2.66797 5.57179 2.66797 5.86632V6.933C2.66797 7.22753 2.90675 7.46631 3.20128 7.46631C3.49581 7.46631 3.7346 7.22753 3.7346 6.933ZM29.3346 6.933V5.86632C29.3346 5.57179 29.0958 5.33301 28.8013 5.33301C28.5067 5.33301 28.2679 5.57179 28.2679 5.86632V6.933C28.2679 7.22753 28.5067 7.46631 28.8013 7.46631C29.0958 7.46631 29.3346 7.22753 29.3346 6.933ZM12.2679 6.933V5.86632C12.2679 5.57179 12.0291 5.33301 11.7346 5.33301C11.4401 5.33301 11.2013 5.57179 11.2013 5.86632V6.933C11.2013 7.22753 11.4401 7.46631 11.7346 7.46631C12.0291 7.46631 12.2679 7.22753 12.2679 6.933ZM16.5346 6.933V5.86632C16.5346 5.57179 16.2958 5.33301 16.0013 5.33301C15.7067 5.33301 15.468 5.57179 15.468 5.86632V6.933C15.468 7.22753 15.7067 7.46631 16.0013 7.46631C16.2958 7.46631 16.5346 7.22753 16.5346 6.933ZM20.8012 6.933V5.86632C20.8012 5.57179 20.5625 5.33301 20.2679 5.33301C19.9734 5.33301 19.7346 5.57179 19.7346 5.86632V6.933C19.7346 7.22753 19.9734 7.46631 20.2679 7.46631C20.5625 7.46631 20.8012 7.22753 20.8012 6.933ZM25.0679 6.933V5.86632C25.0679 5.57179 24.8291 5.33301 24.5346 5.33301C24.2401 5.33301 24.0013 5.57179 24.0013 5.86632V6.933C24.0013 7.22753 24.2401 7.46631 24.5346 7.46631C24.8291 7.46631 25.0679 7.22753 25.0679 6.933ZM10.1346 7.99968V6.933C10.1346 6.63847 9.89578 6.39969 9.60125 6.39969C9.30672 6.39969 9.06794 6.63847 9.06794 6.933V7.99968C9.06794 8.29421 9.30672 8.53299 9.60125 8.53299C9.89578 8.53299 10.1346 8.29421 10.1346 7.99968ZM5.33459 8.53299C5.62912 8.53299 5.8679 8.29421 5.8679 7.99968V6.933C5.8679 6.63847 5.62912 6.39969 5.33459 6.39969C5.04006 6.39969 4.80127 6.63847 4.80127 6.933V7.99968C4.80127 8.29421 5.04006 8.53299 5.33459 8.53299ZM14.4012 7.99968V6.933C14.4012 6.63847 14.1624 6.39969 13.8679 6.39969C13.5734 6.39969 13.3346 6.63847 13.3346 6.933V7.99968C13.3346 8.29421 13.5734 8.53299 13.8679 8.53299C14.1624 8.53299 14.4012 8.29421 14.4012 7.99968ZM18.6679 7.99968V6.933C18.6679 6.63847 18.4291 6.39969 18.1346 6.39969C17.84 6.39969 17.6013 6.63847 17.6013 6.933V7.99968C17.6013 8.29421 17.84 8.53299 18.1346 8.53299C18.4291 8.53299 18.6679 8.29421 18.6679 7.99968ZM22.9346 7.99968V6.933C22.9346 6.63847 22.6958 6.39969 22.4012 6.39969C22.1067 6.39969 21.8679 6.63847 21.8679 6.933V7.99968C21.8679 8.29421 22.1067 8.53299 22.4012 8.53299C22.6958 8.53299 22.9346 8.29421 22.9346 7.99968ZM27.2012 7.99968V6.933C27.2012 6.63847 26.9624 6.39969 26.6679 6.39969C26.3734 6.39969 26.1346 6.63847 26.1346 6.933V7.99968C26.1346 8.29421 26.3734 8.53299 26.6679 8.53299C26.9624 8.53299 27.2012 8.29421 27.2012 7.99968Z" fill="#5A687D"/>
</g>
<defs>
<clipPath id="clip0_1969_120647">
<rect width="32" height="32" fill="white"/>
</clipPath>
</defs>
</svg>
