<svg width="24" height="24" viewBox="0 0 24 24" fill="none" xmlns="http://www.w3.org/2000/svg">
<path d="M12 22.25C6.34614 22.25 1.75 17.6539 1.75 12C1.75 6.34614 6.34614 1.75 12 1.75C17.6539 1.75 22.25 6.34614 22.25 12C22.25 17.6539 17.6539 22.25 12 22.25ZM12 2.25C6.62386 2.25 2.25 6.62386 2.25 12C2.25 17.3761 6.62386 21.75 12 21.75C17.3761 21.75 21.75 17.3761 21.75 12C21.75 6.62386 17.3761 2.25 12 2.25Z" fill="#7B8697" stroke="#7B8697"/>
<path d="M15.608 15.4037L15.5976 15.3968L15.5869 15.3904L12.4871 13.5405C12.487 13.5405 12.4869 13.5404 12.4869 13.5404C11.8684 13.1708 11.3906 12.3241 11.3906 11.6098V7.50977C11.3906 7.37591 11.5068 7.25977 11.6406 7.25977C11.7745 7.25977 11.8906 7.37591 11.8906 7.50977V11.6098C11.8906 11.9081 12.0072 12.2175 12.1448 12.4595C12.2815 12.6998 12.4875 12.9589 12.7466 13.1104L15.8444 14.9591L15.8444 14.9591L15.8487 14.9617C15.9571 15.0249 16.0047 15.1701 15.9324 15.3013C15.8734 15.3911 15.7857 15.4298 15.7106 15.4298C15.6841 15.4298 15.6642 15.4267 15.6492 15.4226C15.6349 15.4187 15.6217 15.4129 15.608 15.4037Z" fill="#7B8697" stroke="#7B8697"/>
</svg>
