<svg width="25" height="24" viewBox="0 0 25 24" fill="none" xmlns="http://www.w3.org/2000/svg">
<path d="M4.3315 7.24557L4.3315 7.24557L9.72136 3.04569C9.72141 3.04565 9.72145 3.04561 9.7215 3.04557C10.3689 2.54078 11.2224 2.29439 12.0542 2.27634C12.8863 2.25828 13.7514 2.46742 14.4257 2.94048L4.3315 7.24557ZM4.3315 7.24557L4.32919 7.24739C3.89753 7.58785 3.52119 8.11409 3.25403 8.65656C2.98717 9.19841 2.79883 9.81818 2.79883 10.37V17.78C2.79883 19.9642 4.57081 21.75 6.75883 21.75H18.3388C20.525 21.75 22.2988 19.9761 22.2988 17.79V10.51C22.2988 9.92461 22.0934 9.27175 21.7984 8.70623C21.5042 8.14216 21.0871 7.60039 20.6035 7.26895L14.426 2.9407L4.3315 7.24557ZM4.0258 6.85465L4.02615 6.85437L9.4158 2.65465C9.4159 2.65457 9.416 2.65449 9.41611 2.65441C9.41612 2.6544 9.41614 2.65439 9.41615 2.65437C10.8623 1.52992 13.2108 1.47512 14.7114 2.52913L14.7119 2.52947L20.8919 6.85947L20.8928 6.86007C21.4069 7.21864 21.8884 7.80219 22.2419 8.47894C22.5953 9.15572 22.7988 9.8839 22.7988 10.51V17.79C22.7988 20.2445 20.802 22.25 18.3388 22.25H6.75883C4.29628 22.25 2.29883 20.2451 2.29883 17.78V10.37C2.29883 9.78451 2.48229 9.09265 2.80263 8.44038C3.12288 7.78827 3.55952 7.21731 4.0258 6.85465Z" fill="#7B8697" stroke="#7B8697"/>
<path d="M12.5488 18.25C12.415 18.25 12.2988 18.1339 12.2988 18V15C12.2988 14.8661 12.415 14.75 12.5488 14.75C12.6827 14.75 12.7988 14.8661 12.7988 15V18C12.7988 18.1339 12.6827 18.25 12.5488 18.25Z" fill="#7B8697" stroke="#7B8697"/>
</svg>
