<svg width="20" height="20" viewBox="0 0 20 20" fill="none" xmlns="http://www.w3.org/2000/svg">
<path d="M12.4993 18.9582H7.49935C2.97435 18.9582 1.04102 17.0248 1.04102 12.4998V7.49984C1.04102 2.97484 2.97435 1.0415 7.49935 1.0415H11.666C12.0077 1.0415 12.291 1.32484 12.291 1.6665C12.291 2.00817 12.0077 2.2915 11.666 2.2915H7.49935C3.65768 2.2915 2.29102 3.65817 2.29102 7.49984V12.4998C2.29102 16.3415 3.65768 17.7082 7.49935 17.7082H12.4993C16.341 17.7082 17.7077 16.3415 17.7077 12.4998V8.33317C17.7077 7.9915 17.991 7.70817 18.3327 7.70817C18.6744 7.70817 18.9577 7.9915 18.9577 8.33317V12.4998C18.9577 17.0248 17.0243 18.9582 12.4993 18.9582Z" fill="#404A59"/>
<path d="M18.3327 8.95841H14.9993C12.1493 8.95841 11.041 7.85007 11.041 5.00007V1.66674C11.041 1.41674 11.191 1.18341 11.4243 1.09174C11.6577 0.991739 11.9243 1.05007 12.1077 1.22507L18.7743 7.89174C18.9493 8.06674 19.0077 8.34174 18.9077 8.57507C18.8077 8.8084 18.5827 8.95841 18.3327 8.95841ZM12.291 3.17507V5.00007C12.291 7.15007 12.8493 7.70841 14.9993 7.70841H16.8243L12.291 3.17507Z" fill="#404A59"/>
<path d="M10.834 11.4585H5.83398C5.49232 11.4585 5.20898 11.1752 5.20898 10.8335C5.20898 10.4918 5.49232 10.2085 5.83398 10.2085H10.834C11.1757 10.2085 11.459 10.4918 11.459 10.8335C11.459 11.1752 11.1757 11.4585 10.834 11.4585Z" fill="#404A59"/>
<path d="M9.16732 14.7915H5.83398C5.49232 14.7915 5.20898 14.5082 5.20898 14.1665C5.20898 13.8248 5.49232 13.5415 5.83398 13.5415H9.16732C9.50898 13.5415 9.79232 13.8248 9.79232 14.1665C9.79232 14.5082 9.50898 14.7915 9.16732 14.7915Z" fill="#404A59"/>
</svg>
