<svg width="49" height="49" viewBox="0 0 49 49" fill="none" xmlns="http://www.w3.org/2000/svg">
<mask id="path-1-inside-1_2028_261738" fill="white">
<path d="M28.6277 22.9282L27.1637 22.0828L28.6277 21.2375C28.9314 21.0594 29.1524 20.7685 29.2424 20.4281C29.3324 20.0877 29.2841 19.7255 29.1081 19.4206C28.932 19.1157 28.6425 18.8928 28.3027 18.8005C27.9629 18.7083 27.6004 18.7542 27.2944 18.9282L25.8304 19.7735V18.0828C25.8304 17.7292 25.6899 17.3901 25.4398 17.14C25.1898 16.89 24.8507 16.7495 24.497 16.7495C24.1434 16.7495 23.8043 16.89 23.5542 17.14C23.3042 17.3901 23.1637 17.7292 23.1637 18.0828V19.7735L21.6997 18.9282C21.548 18.8392 21.3802 18.7812 21.206 18.7574C21.0318 18.7336 20.8546 18.7444 20.6846 18.7894C20.5146 18.8343 20.3551 18.9125 20.2155 19.0193C20.0758 19.1261 19.9586 19.2595 19.8707 19.4117C19.7828 19.564 19.7258 19.7322 19.7032 19.9066C19.6805 20.0809 19.6926 20.2581 19.7386 20.4278C19.7847 20.5975 19.8639 20.7564 19.9716 20.8953C20.0794 21.0343 20.2135 21.1506 20.3664 21.2375L21.8304 22.0828L20.3664 22.9282C20.0626 23.1062 19.8416 23.3972 19.7517 23.7376C19.6617 24.078 19.71 24.4402 19.886 24.7451C20.0621 25.05 20.3516 25.2729 20.6914 25.3652C21.0311 25.4574 21.3936 25.4115 21.6997 25.2375L23.1637 24.3922V26.0828C23.1637 26.4365 23.3042 26.7756 23.5542 27.0257C23.8043 27.2757 24.1434 27.4162 24.497 27.4162C24.8507 27.4162 25.1898 27.2757 25.4398 27.0257C25.6899 26.7756 25.8304 26.4365 25.8304 26.0828V24.3922L27.2944 25.2375C27.4459 25.3254 27.6133 25.3825 27.787 25.4056C27.9607 25.4286 28.1372 25.4171 28.3064 25.3718C28.4756 25.3264 28.6342 25.2481 28.7731 25.1413C28.912 25.0346 29.0284 24.9014 29.1157 24.7495C29.2925 24.4433 29.3404 24.0793 29.2489 23.7378C29.1574 23.3962 28.9339 23.105 28.6277 22.9282ZM17.4237 22.9282L15.9624 22.0828L17.425 21.2375C17.7288 21.0594 17.9498 20.7685 18.0398 20.4281C18.1297 20.0877 18.0815 19.7255 17.9054 19.4206C17.7294 19.1157 17.4398 18.8928 17.1001 18.8005C16.7603 18.7083 16.3978 18.7542 16.0917 18.9282L14.6277 19.7735V18.0828C14.6277 17.7292 14.4872 17.3901 14.2372 17.14C13.9871 16.89 13.648 16.7495 13.2944 16.7495C12.9407 16.7495 12.6016 16.89 12.3516 17.14C12.1015 17.3901 11.961 17.7292 11.961 18.0828V19.7735L10.497 18.9282C10.191 18.7542 9.82847 18.7083 9.48868 18.8005C9.14889 18.8928 8.85939 19.1157 8.68334 19.4206C8.50729 19.7255 8.45899 20.0877 8.54899 20.4281C8.63898 20.7685 8.85996 21.0594 9.1637 21.2375L10.6277 22.0828L9.1637 22.9282C8.90839 23.0743 8.70864 23.3009 8.59562 23.5725C8.48261 23.8441 8.46269 24.1455 8.53897 24.4296C8.61525 24.7137 8.78345 24.9646 9.0173 25.1431C9.25116 25.3215 9.53753 25.4176 9.8317 25.4162C10.0584 25.4162 10.2877 25.3588 10.497 25.2375L11.961 24.3922V26.0828C11.961 26.4365 12.1015 26.7756 12.3516 27.0257C12.6016 27.2757 12.9407 27.4162 13.2944 27.4162C13.648 27.4162 13.9871 27.2757 14.2372 27.0257C14.4872 26.7756 14.6277 26.4365 14.6277 26.0828V24.3922L16.0917 25.2375C16.2432 25.3252 16.4105 25.3821 16.584 25.4051C16.7575 25.428 16.9339 25.4165 17.103 25.3711C17.272 25.3258 17.4305 25.2476 17.5693 25.1409C17.708 25.0342 17.8244 24.9012 17.9117 24.7495C17.9994 24.5979 18.0564 24.4305 18.0793 24.2569C18.1023 24.0833 18.0908 23.9068 18.0454 23.7376C18.0001 23.5685 17.9219 23.4099 17.8152 23.271C17.7085 23.1321 17.5755 23.0156 17.4237 22.9282ZM39.8304 22.9282L38.3664 22.0828L39.8304 21.2375C39.9832 21.1506 40.1174 21.0343 40.2251 20.8953C40.3329 20.7564 40.412 20.5975 40.4581 20.4278C40.5042 20.2581 40.5162 20.0809 40.4936 19.9066C40.4709 19.7322 40.414 19.564 40.3261 19.4117C40.2381 19.2595 40.121 19.1261 39.9813 19.0193C39.8416 18.9125 39.6822 18.8343 39.5122 18.7894C39.3422 18.7444 39.165 18.7336 38.9907 18.7574C38.8165 18.7812 38.6487 18.8392 38.497 18.9282L37.033 19.7735V18.0828C37.033 17.7292 36.8926 17.3901 36.6425 17.14C36.3925 16.89 36.0533 16.7495 35.6997 16.7495C35.3461 16.7495 35.0069 16.89 34.7569 17.14C34.5068 17.3901 34.3664 17.7292 34.3664 18.0828V19.7735L32.9024 18.9282C32.7507 18.8392 32.5829 18.7812 32.4087 18.7574C32.2345 18.7336 32.0572 18.7444 31.8872 18.7894C31.7172 18.8343 31.5578 18.9125 31.4181 19.0193C31.2785 19.1261 31.1613 19.2595 31.0734 19.4117C30.9854 19.564 30.9285 19.7322 30.9058 19.9066C30.8832 20.0809 30.8952 20.2581 30.9413 20.4278C30.9874 20.5975 31.0665 20.7564 31.1743 20.8953C31.282 21.0343 31.4162 21.1506 31.569 21.2375L33.0317 22.0828L31.569 22.9282C31.3137 23.0743 31.114 23.3009 31.001 23.5725C30.8879 23.8441 30.868 24.1455 30.9443 24.4296C31.0206 24.7137 31.1888 24.9646 31.4226 25.1431C31.6565 25.3215 31.9429 25.4176 32.237 25.4162C32.4637 25.4162 32.693 25.3588 32.9024 25.2375L34.3664 24.3922V26.0828C34.3664 26.4365 34.5068 26.7756 34.7569 27.0257C35.0069 27.2757 35.3461 27.4162 35.6997 27.4162C36.0533 27.4162 36.3925 27.2757 36.6425 27.0257C36.8926 26.7756 37.033 26.4365 37.033 26.0828V24.3922L38.497 25.2375C38.6486 25.3254 38.816 25.3825 38.9897 25.4056C39.1633 25.4286 39.3398 25.4171 39.5091 25.3718C39.6783 25.3264 39.8369 25.2481 39.9758 25.1413C40.1146 25.0346 40.2311 24.9014 40.3184 24.7495C40.4061 24.5979 40.4631 24.4305 40.486 24.2569C40.509 24.0833 40.4974 23.9068 40.4521 23.7376C40.4068 23.5685 40.3285 23.4099 40.2218 23.271C40.1152 23.1321 39.9821 23.0156 39.8304 22.9282Z"/>
</mask>
<path d="M28.6277 22.9282L27.1637 22.0828L28.6277 21.2375C28.9314 21.0594 29.1524 20.7685 29.2424 20.4281C29.3324 20.0877 29.2841 19.7255 29.1081 19.4206C28.932 19.1157 28.6425 18.8928 28.3027 18.8005C27.9629 18.7083 27.6004 18.7542 27.2944 18.9282L25.8304 19.7735V18.0828C25.8304 17.7292 25.6899 17.3901 25.4398 17.14C25.1898 16.89 24.8507 16.7495 24.497 16.7495C24.1434 16.7495 23.8043 16.89 23.5542 17.14C23.3042 17.3901 23.1637 17.7292 23.1637 18.0828V19.7735L21.6997 18.9282C21.548 18.8392 21.3802 18.7812 21.206 18.7574C21.0318 18.7336 20.8546 18.7444 20.6846 18.7894C20.5146 18.8343 20.3551 18.9125 20.2155 19.0193C20.0758 19.1261 19.9586 19.2595 19.8707 19.4117C19.7828 19.564 19.7258 19.7322 19.7032 19.9066C19.6805 20.0809 19.6926 20.2581 19.7386 20.4278C19.7847 20.5975 19.8639 20.7564 19.9716 20.8953C20.0794 21.0343 20.2135 21.1506 20.3664 21.2375L21.8304 22.0828L20.3664 22.9282C20.0626 23.1062 19.8416 23.3972 19.7517 23.7376C19.6617 24.078 19.71 24.4402 19.886 24.7451C20.0621 25.05 20.3516 25.2729 20.6914 25.3652C21.0311 25.4574 21.3936 25.4115 21.6997 25.2375L23.1637 24.3922V26.0828C23.1637 26.4365 23.3042 26.7756 23.5542 27.0257C23.8043 27.2757 24.1434 27.4162 24.497 27.4162C24.8507 27.4162 25.1898 27.2757 25.4398 27.0257C25.6899 26.7756 25.8304 26.4365 25.8304 26.0828V24.3922L27.2944 25.2375C27.4459 25.3254 27.6133 25.3825 27.787 25.4056C27.9607 25.4286 28.1372 25.4171 28.3064 25.3718C28.4756 25.3264 28.6342 25.2481 28.7731 25.1413C28.912 25.0346 29.0284 24.9014 29.1157 24.7495C29.2925 24.4433 29.3404 24.0793 29.2489 23.7378C29.1574 23.3962 28.9339 23.105 28.6277 22.9282ZM17.4237 22.9282L15.9624 22.0828L17.425 21.2375C17.7288 21.0594 17.9498 20.7685 18.0398 20.4281C18.1297 20.0877 18.0815 19.7255 17.9054 19.4206C17.7294 19.1157 17.4398 18.8928 17.1001 18.8005C16.7603 18.7083 16.3978 18.7542 16.0917 18.9282L14.6277 19.7735V18.0828C14.6277 17.7292 14.4872 17.3901 14.2372 17.14C13.9871 16.89 13.648 16.7495 13.2944 16.7495C12.9407 16.7495 12.6016 16.89 12.3516 17.14C12.1015 17.3901 11.961 17.7292 11.961 18.0828V19.7735L10.497 18.9282C10.191 18.7542 9.82847 18.7083 9.48868 18.8005C9.14889 18.8928 8.85939 19.1157 8.68334 19.4206C8.50729 19.7255 8.45899 20.0877 8.54899 20.4281C8.63898 20.7685 8.85996 21.0594 9.1637 21.2375L10.6277 22.0828L9.1637 22.9282C8.90839 23.0743 8.70864 23.3009 8.59562 23.5725C8.48261 23.8441 8.46269 24.1455 8.53897 24.4296C8.61525 24.7137 8.78345 24.9646 9.0173 25.1431C9.25116 25.3215 9.53753 25.4176 9.8317 25.4162C10.0584 25.4162 10.2877 25.3588 10.497 25.2375L11.961 24.3922V26.0828C11.961 26.4365 12.1015 26.7756 12.3516 27.0257C12.6016 27.2757 12.9407 27.4162 13.2944 27.4162C13.648 27.4162 13.9871 27.2757 14.2372 27.0257C14.4872 26.7756 14.6277 26.4365 14.6277 26.0828V24.3922L16.0917 25.2375C16.2432 25.3252 16.4105 25.3821 16.584 25.4051C16.7575 25.428 16.9339 25.4165 17.103 25.3711C17.272 25.3258 17.4305 25.2476 17.5693 25.1409C17.708 25.0342 17.8244 24.9012 17.9117 24.7495C17.9994 24.5979 18.0564 24.4305 18.0793 24.2569C18.1023 24.0833 18.0908 23.9068 18.0454 23.7376C18.0001 23.5685 17.9219 23.4099 17.8152 23.271C17.7085 23.1321 17.5755 23.0156 17.4237 22.9282ZM39.8304 22.9282L38.3664 22.0828L39.8304 21.2375C39.9832 21.1506 40.1174 21.0343 40.2251 20.8953C40.3329 20.7564 40.412 20.5975 40.4581 20.4278C40.5042 20.2581 40.5162 20.0809 40.4936 19.9066C40.4709 19.7322 40.414 19.564 40.3261 19.4117C40.2381 19.2595 40.121 19.1261 39.9813 19.0193C39.8416 18.9125 39.6822 18.8343 39.5122 18.7894C39.3422 18.7444 39.165 18.7336 38.9907 18.7574C38.8165 18.7812 38.6487 18.8392 38.497 18.9282L37.033 19.7735V18.0828C37.033 17.7292 36.8926 17.3901 36.6425 17.14C36.3925 16.89 36.0533 16.7495 35.6997 16.7495C35.3461 16.7495 35.0069 16.89 34.7569 17.14C34.5068 17.3901 34.3664 17.7292 34.3664 18.0828V19.7735L32.9024 18.9282C32.7507 18.8392 32.5829 18.7812 32.4087 18.7574C32.2345 18.7336 32.0572 18.7444 31.8872 18.7894C31.7172 18.8343 31.5578 18.9125 31.4181 19.0193C31.2785 19.1261 31.1613 19.2595 31.0734 19.4117C30.9854 19.564 30.9285 19.7322 30.9058 19.9066C30.8832 20.0809 30.8952 20.2581 30.9413 20.4278C30.9874 20.5975 31.0665 20.7564 31.1743 20.8953C31.282 21.0343 31.4162 21.1506 31.569 21.2375L33.0317 22.0828L31.569 22.9282C31.3137 23.0743 31.114 23.3009 31.001 23.5725C30.8879 23.8441 30.868 24.1455 30.9443 24.4296C31.0206 24.7137 31.1888 24.9646 31.4226 25.1431C31.6565 25.3215 31.9429 25.4176 32.237 25.4162C32.4637 25.4162 32.693 25.3588 32.9024 25.2375L34.3664 24.3922V26.0828C34.3664 26.4365 34.5068 26.7756 34.7569 27.0257C35.0069 27.2757 35.3461 27.4162 35.6997 27.4162C36.0533 27.4162 36.3925 27.2757 36.6425 27.0257C36.8926 26.7756 37.033 26.4365 37.033 26.0828V24.3922L38.497 25.2375C38.6486 25.3254 38.816 25.3825 38.9897 25.4056C39.1633 25.4286 39.3398 25.4171 39.5091 25.3718C39.6783 25.3264 39.8369 25.2481 39.9758 25.1413C40.1146 25.0346 40.2311 24.9014 40.3184 24.7495C40.4061 24.5979 40.4631 24.4305 40.486 24.2569C40.509 24.0833 40.4974 23.9068 40.4521 23.7376C40.4068 23.5685 40.3285 23.4099 40.2218 23.271C40.1152 23.1321 39.9821 23.0156 39.8304 22.9282Z" fill="#42A5F5" stroke="#323945" mask="url(#path-1-inside-1_2028_261738)"/>
<path d="M16.497 32.4997H9.83034C9.54302 32.4997 9.26747 32.3855 9.06431 32.1824C8.86115 31.9792 8.74701 31.7037 8.74701 31.4163C8.74701 31.129 8.86115 30.8535 9.06431 30.6503C9.26747 30.4471 9.54302 30.333 9.83034 30.333H16.497C16.7843 30.333 17.0599 30.4471 17.263 30.6503C17.4662 30.8535 17.5803 31.129 17.5803 31.4163C17.5803 31.7037 17.4662 31.9792 17.263 32.1824C17.0599 32.3855 16.7843 32.4997 16.497 32.4997ZM27.8303 32.4997H21.1637C20.8764 32.4997 20.6008 32.3855 20.3976 32.1824C20.1945 31.9792 20.0803 31.7037 20.0803 31.4163C20.0803 31.129 20.1945 30.8535 20.3976 30.6503C20.6008 30.4471 20.8764 30.333 21.1637 30.333H27.8303C28.1177 30.333 28.3932 30.4471 28.5964 30.6503C28.7995 30.8535 28.9137 31.129 28.9137 31.4163C28.9137 31.7037 28.7995 31.9792 28.5964 32.1824C28.3932 32.3855 28.1177 32.4997 27.8303 32.4997ZM39.1637 32.4997H32.497C32.2097 32.4997 31.9341 32.3855 31.731 32.1824C31.5278 31.9792 31.4137 31.7037 31.4137 31.4163C31.4137 31.129 31.5278 30.8535 31.731 30.6503C31.9341 30.4471 32.2097 30.333 32.497 30.333H39.1637C39.451 30.333 39.7265 30.4471 39.9297 30.6503C40.1329 30.8535 40.247 31.129 40.247 31.4163C40.247 31.7037 40.1329 31.9792 39.9297 32.1824C39.7265 32.3855 39.451 32.4997 39.1637 32.4997Z" fill="#607D8B" stroke="#323945" stroke-width="0.5"/>
</svg>
