<svg width="24" height="24" viewBox="0 0 24 24" fill="none" xmlns="http://www.w3.org/2000/svg">
<path fill-rule="evenodd" clip-rule="evenodd" d="M3.85274 18.5869H2.32023C2.08121 18.5869 1.89844 18.4042 1.89844 18.1651V6.08781C1.89844 5.84879 2.08121 5.66602 2.32023 5.66602H3.85274C4.0777 5.66602 4.27454 5.84879 4.27454 6.08781V18.1651C4.27454 18.4042 4.0777 18.5869 3.85274 18.5869Z" fill="#E6E6E6"/>
<path fill-rule="evenodd" clip-rule="evenodd" d="M4.38613 20.4135H1.78507C1.56012 20.4135 1.36328 20.2308 1.36328 19.9917V18.164C1.36328 17.939 1.56012 17.7422 1.78507 17.7422H4.38613C4.61108 17.7422 4.80792 17.939 4.80792 18.164V19.9917C4.80792 20.2308 4.61108 20.4135 4.38613 20.4135Z" fill="#333333"/>
<path fill-rule="evenodd" clip-rule="evenodd" d="M21.6809 18.5869H20.1484C19.9093 18.5869 19.7266 18.4042 19.7266 18.1651V6.08781C19.7266 5.84879 19.9093 5.66602 20.1484 5.66602H21.6809C21.9058 5.66602 22.1027 5.84879 22.1027 6.08781V18.1651C22.1027 18.4042 21.9058 18.5869 21.6809 18.5869Z" fill="#E6E6E6"/>
<path fill-rule="evenodd" clip-rule="evenodd" d="M22.2002 20.4135H19.6132C19.3742 20.4135 19.1914 20.2308 19.1914 19.9917V18.164C19.1914 17.939 19.3742 17.7422 19.6132 17.7422H22.2002C22.4392 17.7422 22.622 17.939 22.622 18.164V19.9917C22.622 20.2308 22.4392 20.4135 22.2002 20.4135Z" fill="#333333"/>
<path fill-rule="evenodd" clip-rule="evenodd" d="M23.0597 6.51154H0.929605C0.704649 6.51154 0.507812 6.31471 0.507812 6.08975V4.03703C0.507812 3.79801 0.704649 3.61523 0.929605 3.61523H23.0597C23.2987 3.61523 23.4815 3.79801 23.4815 4.03703V6.08975C23.4815 6.31471 23.2987 6.51154 23.0597 6.51154Z" fill="#333940"/>
<path fill-rule="evenodd" clip-rule="evenodd" d="M23.1276 20.4146H0.871011C0.631996 20.4146 0.449219 20.2318 0.449219 19.9928C0.449219 19.7678 0.631996 19.571 0.871011 19.571H23.1276C23.3526 19.571 23.5494 19.7678 23.5494 19.9928C23.5494 20.2318 23.3526 20.4146 23.1276 20.4146ZM20.0063 21.9752H3.99228C3.75326 21.9752 3.57048 21.7784 3.57048 21.5534C3.57048 21.3144 3.75326 21.1316 3.99228 21.1316H20.0063C20.2313 21.1316 20.4281 21.3144 20.4281 21.5534C20.4281 21.7784 20.2313 21.9752 20.0063 21.9752ZM20.0063 2.868H3.99228C3.75326 2.868 3.57048 2.67116 3.57048 2.44621C3.57048 2.20719 3.75326 2.02441 3.99228 2.02441H20.0063C20.2313 2.02441 20.4281 2.20719 20.4281 2.44621C20.4281 2.67116 20.2313 2.868 20.0063 2.868Z" fill="#333333"/>
<path fill-rule="evenodd" clip-rule="evenodd" d="M13.778 14.1013V11.8096H15.4511L15.8448 14.1013H13.778ZM12.9203 14.1013H9.08203L10.0522 11.8096H12.9203V14.1013Z" fill="#EFEFEF"/>
<path fill-rule="evenodd" clip-rule="evenodd" d="M16.3493 14.9588H8.4196C8.27901 14.9588 8.15247 14.8885 8.06811 14.776C7.98375 14.6495 7.96969 14.4948 8.02593 14.3683L9.37567 11.2189C9.44597 11.0642 9.60062 10.9658 9.76934 10.9658H15.815C16.0259 10.9658 16.2087 11.1064 16.2368 11.3173L16.7711 14.4667C16.7992 14.5932 16.757 14.7198 16.6727 14.8041C16.5883 14.9026 16.4758 14.9588 16.3493 14.9588ZM12.9187 14.1011V11.8094H10.0505L9.08041 14.1011H12.9187ZM13.7764 11.8094V14.1011H15.8432L15.4495 11.8094H13.7764Z" fill="#333333"/>
<path fill-rule="evenodd" clip-rule="evenodd" d="M18.0116 18.8698H5.97648C5.75152 18.8698 5.55469 18.687 5.55469 18.448V16.4937C5.55469 15.1721 6.62323 14.1035 7.94485 14.1035H18.0116C18.2506 14.1035 18.4475 14.3004 18.4475 14.5394V18.448C18.4475 18.687 18.2506 18.8698 18.0116 18.8698Z" fill="#FF6C52"/>
<path fill-rule="evenodd" clip-rule="evenodd" d="M8.9293 20.4133C7.8467 20.4133 6.96094 19.5275 6.96094 18.4449C6.96094 17.3623 7.8467 16.4766 8.9293 16.4766C10.026 16.4766 10.9117 17.3623 10.9117 18.4449C10.9117 19.5275 10.026 20.4133 8.9293 20.4133ZM15.0594 20.4133C13.9768 20.4133 13.091 19.5275 13.091 18.4449C13.091 17.3623 13.9768 16.4766 15.0594 16.4766C16.156 16.4766 17.0418 17.3623 17.0418 18.4449C17.0418 19.5275 16.156 20.4133 15.0594 20.4133Z" fill="#333333"/>
<path fill-rule="evenodd" clip-rule="evenodd" d="M8.92636 19.4726C9.48875 19.4726 9.95273 19.0087 9.95273 18.4463C9.95273 17.8839 9.48875 17.4199 8.92636 17.4199C8.36397 17.4199 7.91406 17.8839 7.91406 18.4463C7.91406 19.0087 8.36397 19.4726 8.92636 19.4726ZM15.0564 19.4726C15.6188 19.4726 16.0828 19.0087 16.0828 18.4463C16.0828 17.8839 15.6188 17.4199 15.0564 17.4199C14.494 17.4199 14.0441 17.8839 14.0441 18.4463C14.0441 19.0087 14.494 19.4726 15.0564 19.4726Z" fill="white"/>
<path fill-rule="evenodd" clip-rule="evenodd" d="M11.9373 16.0862H11.2484C11.0093 16.0862 10.8125 15.8893 10.8125 15.6503C10.8125 15.4113 11.0093 15.2285 11.2484 15.2285H11.9373C12.1622 15.2285 12.3591 15.4113 12.3591 15.6503C12.3591 15.8893 12.1622 16.0862 11.9373 16.0862Z" fill="#333333"/>
</svg>
