<svg width="24" height="25" viewBox="0 0 24 25" fill="none" xmlns="http://www.w3.org/2000/svg">
<path d="M9.69928 19.0758L9.69931 19.0758L9.69564 19.071C9.55281 18.8862 9.35354 18.7432 9.16111 18.647C8.96956 18.5513 8.73469 18.4767 8.5 18.4767H7C4.51418 18.4767 2.5 16.4686 2.5 13.9967V12.9967V7.01674C2.5 4.54484 4.51418 2.53674 7 2.53674H17C19.4858 2.53674 21.5 4.54484 21.5 7.01674V13.9967C21.5 16.4686 19.4858 18.4767 17 18.4767H15.5C15.0314 18.4767 14.585 18.7017 14.3019 19.0742L14.3007 19.0758L12.8007 21.0658L12.8 21.0667C12.5506 21.3993 12.2559 21.5267 12 21.5267C11.7441 21.5267 11.4494 21.3993 11.2 21.0667L11.1993 21.0658L9.69928 19.0758ZM6.5 11.0367C6.5 11.8596 7.1606 12.5367 8 12.5367C8.8394 12.5367 9.5 11.8596 9.5 11.0367C9.5 10.2106 8.82614 9.53674 8 9.53674C7.17386 9.53674 6.5 10.2106 6.5 11.0367ZM10.5 11.0367C10.5 11.8596 11.1606 12.5367 12 12.5367C12.8394 12.5367 13.5 11.8596 13.5 11.0367C13.5 10.2106 12.8261 9.53674 12 9.53674C11.1739 9.53674 10.5 10.2106 10.5 11.0367ZM14.5 11.0367C14.5 11.8596 15.1606 12.5367 16 12.5367C16.8394 12.5367 17.5 11.8596 17.5 11.0367C17.5 10.2106 16.8261 9.53674 16 9.53674C15.1739 9.53674 14.5 10.2106 14.5 11.0367Z" fill="#972F8A" stroke="#972F8A"/>
</svg>
