<svg width="21" height="20" viewBox="0 0 21 20" fill="none" xmlns="http://www.w3.org/2000/svg">
<g clip-path="url(#clip0_1973_103664)">
<path d="M19.735 8.01251L19.2991 7.55097L17.7692 3.42704C17.5085 2.73046 16.8419 2.26892 16.0983 2.26465H5.17094C4.42735 2.26465 3.76068 2.73046 3.5 3.42704L1.99145 7.49969L1.36325 8.08089C0.816239 8.5467 0.5 9.23046 0.5 9.94841V15.957C0.504274 16.9399 1.30342 17.7347 2.28632 17.7347H3.41453C4.39744 17.7347 5.19658 16.9399 5.20085 15.957V15.0852H15.7991V15.957C15.8034 16.9399 16.6026 17.7347 17.5855 17.7347H18.7137C19.6966 17.7347 20.4957 16.9399 20.5 15.957V9.79029C20.4957 9.11935 20.2222 8.47832 19.735 8.01251ZM4.30342 3.71764C4.44017 3.35439 4.78632 3.11935 5.17094 3.11935H16.1026C16.4872 3.11935 16.8333 3.35867 16.9701 3.71764L18.3034 7.30738H17.3077C17.0726 5.70482 15.5812 4.59798 13.9786 4.8373C12.7009 5.02533 11.6966 6.02961 11.5085 7.30738H2.97009L4.30342 3.71764ZM16.4359 7.30738H12.3718C12.6068 6.18345 13.7094 5.4655 14.8333 5.70055C15.6368 5.87149 16.265 6.49969 16.4359 7.30738ZM4.34615 15.957C4.34188 16.4698 3.92735 16.88 3.41453 16.88H2.28632C1.7735 16.88 1.35897 16.4698 1.3547 15.957V14.8373C1.61111 15.004 1.94872 15.0852 2.28632 15.0852H4.34615V15.957ZM19.6453 15.957C19.641 16.4698 19.2265 16.88 18.7137 16.88H17.5855C17.0726 16.88 16.6581 16.4655 16.6538 15.957V15.0852H18.7137C19.0513 15.0852 19.3889 15.004 19.6453 14.8373V15.957ZM18.7137 14.2305H2.28632C1.77778 14.2347 1.35897 13.8288 1.3547 13.3159V9.94841C1.3547 9.47832 1.5641 9.02961 1.92308 8.72619L1.94017 8.70909L2.52137 8.16208H18.7051L19.1154 8.60226C19.1197 8.6108 19.1325 8.61508 19.1368 8.62362C19.4573 8.92704 19.641 9.35012 19.641 9.79029V13.3159H19.6453C19.641 13.8245 19.2222 14.2347 18.7137 14.2305Z" fill="#525F72"/>
<path d="M6.14029 9.87109H2.93516C2.70012 9.87109 2.50781 10.0634 2.50781 10.2984V12.5207C2.50781 12.7557 2.70012 12.948 2.93516 12.948H6.14029C6.37533 12.948 6.56764 12.7557 6.56764 12.5207V10.2984C6.56764 10.0634 6.37533 9.87109 6.14029 9.87109ZM5.71294 12.0933H3.36251V10.7258H5.71294V12.0933ZM18.0634 9.87109H14.8582C14.6232 9.87109 14.4309 10.0634 14.4309 10.2984V12.5207C14.4309 12.7557 14.6232 12.948 14.8582 12.948H18.0634C18.2984 12.948 18.4907 12.7557 18.4907 12.5207V10.2984C18.4907 10.0634 18.2984 9.87109 18.0634 9.87109ZM17.636 12.0933H15.2856V10.7258H17.636V12.0933ZM12.5634 11.666H8.43516C8.20012 11.666 8.00781 11.8583 8.00781 12.0933C8.00781 12.3284 8.20012 12.5207 8.43516 12.5207H12.5634C12.7984 12.5207 12.9907 12.3284 12.9907 12.0933C12.9907 11.8583 12.7984 11.666 12.5634 11.666ZM12.5634 10.3412H8.43516C8.20012 10.3412 8.00781 10.5335 8.00781 10.7685C8.00781 11.0036 8.20012 11.1959 8.43516 11.1959H12.5634C12.7984 11.1959 12.9907 11.0036 12.9907 10.7685C12.9907 10.5335 12.7984 10.3412 12.5634 10.3412Z" fill="#525F72"/>
</g>
<defs>
<clipPath id="clip0_1973_103664">
<rect width="20" height="20" fill="white" transform="translate(0.5)"/>
</clipPath>
</defs>
</svg>
