<svg width="48" height="49" viewBox="0 0 48 49" fill="none" xmlns="http://www.w3.org/2000/svg">
<rect y="0.538574" width="48" height="48" rx="6" fill="white"/>
<path fill-rule="evenodd" clip-rule="evenodd" d="M12.1237 30.021H9.27614C9.08127 30.021 8.91554 30.1757 8.88516 30.3858L7.73346 38.364C7.71056 38.5214 7.82215 38.6633 7.9683 38.6633H9.32776C9.52262 38.6633 9.68835 38.5086 9.71873 38.2981L10.0294 36.1463C10.0593 35.9355 10.2255 35.781 10.4199 35.781H11.3214C13.1972 35.781 14.2797 34.7892 14.5625 32.8239C14.6899 31.9642 14.5679 31.2886 14.1993 30.8153C13.7947 30.2959 13.0767 30.021 12.1237 30.021ZM12.4522 32.9349C12.2965 34.0513 11.5158 34.0513 10.7609 34.0513H10.3312L10.6327 31.9663C10.6506 31.8404 10.7505 31.7475 10.8671 31.7475H11.064C11.5783 31.7475 12.0634 31.7475 12.3141 32.0677C12.4634 32.2589 12.5093 32.5427 12.4522 32.9349ZM20.6358 32.8991H19.2721C19.156 32.8991 19.0556 32.992 19.0376 33.1181L18.9773 33.5347L18.882 33.3837C18.5868 32.9155 17.9285 32.7591 17.2715 32.7591C15.7645 32.7591 14.4775 34.0061 14.2269 35.7553C14.0966 36.6277 14.2818 37.4621 14.7348 38.044C15.1504 38.5789 15.745 38.8019 16.4524 38.8019C17.6665 38.8019 18.3399 37.9488 18.3399 37.9488L18.279 38.3629C18.2561 38.5212 18.3677 38.6631 18.513 38.6631H19.7413C19.9367 38.6631 20.1015 38.5084 20.1323 38.2979L20.8693 33.1985C20.8926 33.0416 20.7815 32.8991 20.6358 32.8991ZM18.7349 35.7989C18.6033 36.6501 17.985 37.2214 17.1965 37.2214C16.8006 37.2214 16.484 37.0827 16.2809 36.8197C16.0793 36.5587 16.0027 36.1869 16.0668 35.773C16.1898 34.929 16.8185 34.3391 17.595 34.3391C17.9821 34.3391 18.297 34.4795 18.5043 34.7448C18.712 35.0128 18.7945 35.3867 18.7349 35.7989ZM26.5279 32.8989H27.8983C28.0902 32.8989 28.2022 33.1341 28.0931 33.3061L23.5355 40.4939C23.4617 40.6103 23.3401 40.6795 23.2103 40.6795H21.8416C21.6489 40.6795 21.5364 40.4425 21.648 40.2701L23.0671 38.0814L21.5578 33.2418C21.5056 33.0736 21.6192 32.8989 21.783 32.8989H23.1295C23.3045 32.8989 23.4588 33.0244 23.5093 33.2073L24.3103 36.1303L26.2003 33.0886C26.2743 32.9698 26.3973 32.8989 26.5279 32.8989Z" fill="#253B80"/>
<path fill-rule="evenodd" clip-rule="evenodd" d="M41.3864 38.3634L42.555 30.2394C42.5729 30.1133 42.6729 30.0204 42.7891 30.02H44.1048C44.2501 30.02 44.3616 30.1623 44.3387 30.3198L43.1862 38.2975C43.1562 38.508 42.9905 38.6628 42.7953 38.6628H41.6203C41.475 38.6628 41.3634 38.5209 41.3864 38.3634ZM32.4363 30.0204H29.5882C29.3938 30.0204 29.2281 30.1752 29.1976 30.3853L28.046 38.3634C28.023 38.5209 28.1346 38.6628 28.2801 38.6628H29.7414C29.8773 38.6628 29.9934 38.5546 30.0146 38.4072L30.3414 36.1457C30.3715 35.935 30.5376 35.7805 30.732 35.7805H31.633C33.5092 35.7805 34.5915 34.7887 34.8746 32.8234C35.0023 31.9636 34.8796 31.288 34.5111 30.8148C34.1067 30.2954 33.3893 30.0204 32.4363 30.0204ZM32.7648 32.9343C32.6095 34.0508 31.8288 34.0508 31.0734 34.0508H30.6441L30.9461 31.9657C30.964 31.8398 31.063 31.747 31.18 31.747H31.3769C31.8908 31.747 32.3764 31.747 32.6269 32.0672C32.7764 32.2583 32.8219 32.5421 32.7648 32.9343ZM40.9476 32.8986H39.5849C39.4678 32.8986 39.3684 32.9914 39.3508 33.1175L39.2905 33.5341L39.1948 33.3832C38.8996 32.915 38.2417 32.7586 37.5847 32.7586C36.0777 32.7586 34.7911 34.0055 34.5404 35.7548C34.4106 36.6272 34.595 37.4615 35.048 38.0434C35.4644 38.5784 36.0582 38.8013 36.7656 38.8013C37.9797 38.8013 38.6529 37.9482 38.6529 37.9482L38.5922 38.3624C38.5693 38.5207 38.6809 38.6626 38.8271 38.6626H40.0549C40.2493 38.6626 40.415 38.5078 40.4455 38.2973L41.1829 33.1979C41.2054 33.0411 41.0939 32.8986 40.9476 32.8986ZM39.047 35.7983C38.9161 36.6495 38.297 37.2209 37.5084 37.2209C37.1132 37.2209 36.796 37.0821 36.5927 36.8192C36.3912 36.5581 36.3155 36.1864 36.3788 35.7725C36.5024 34.9285 37.1303 34.3386 37.9068 34.3386C38.2941 34.3386 38.6088 34.479 38.8163 34.7442C39.0248 35.0122 39.1073 35.3861 39.047 35.7983Z" fill="#179BD7"/>
<path d="M22.6612 27.1672L23.0113 24.7377L22.2315 24.7179H18.5078L21.0956 6.79024C21.1035 6.73611 21.1297 6.68565 21.1678 6.64982C21.206 6.61399 21.2549 6.59424 21.3058 6.59424H27.5845C29.6689 6.59424 31.1073 7.06816 31.8584 8.00355C32.2105 8.44237 32.4347 8.90092 32.5432 9.40555C32.6569 9.93507 32.659 10.5677 32.5478 11.3393L32.5398 11.3956V11.89L32.892 12.1079C33.1885 12.2798 33.424 12.4765 33.6047 12.7018C33.9061 13.0769 34.1009 13.5538 34.1832 14.1191C34.2681 14.7006 34.24 15.3924 34.1009 16.1757C33.9402 17.0767 33.6805 17.8615 33.3298 18.5036C33.007 19.0953 32.596 19.5859 32.1081 19.9663C31.6422 20.3276 31.0886 20.6019 30.4628 20.7775C29.8562 20.9499 29.1649 21.0371 28.4065 21.0371H27.9178C27.5685 21.0371 27.229 21.1745 26.9627 21.4211C26.6956 21.6726 26.5187 22.0162 26.4646 22.3922L26.4278 22.6109L25.8092 26.8929L25.7811 27.0501C25.7738 27.1 25.7611 27.1249 25.7424 27.1417C25.7256 27.1569 25.7015 27.1672 25.678 27.1672H22.6612Z" fill="#253B80"/>
<path d="M33.2268 11.4517C33.2081 11.5826 33.1868 11.7164 33.1627 11.8539C32.3345 16.4987 29.5018 18.1033 25.8838 18.1033H24.0417C23.5993 18.1033 23.2265 18.4543 23.1575 18.9312L22.2143 25.4666L21.9472 27.3191C21.9023 27.6321 22.1233 27.9144 22.4124 27.9144H25.6797C26.0666 27.9144 26.3952 27.6073 26.4561 27.1904L26.4882 27.009L27.1035 22.7437L27.143 22.5098C27.2031 22.0915 27.5324 21.7843 27.9193 21.7843H28.408C31.5734 21.7843 34.0515 20.3801 34.7758 16.3166C35.0784 14.6191 34.9217 13.2018 34.1211 12.2049C33.8789 11.9044 33.5783 11.655 33.2268 11.4517Z" fill="#179BD7"/>
<path d="M32.3595 11.0752C32.2331 11.035 32.1024 10.9984 31.9685 10.9655C31.834 10.9333 31.6961 10.9048 31.5543 10.8799C31.0575 10.7922 30.5134 10.7505 29.9303 10.7505H25.0091C24.8879 10.7505 24.7729 10.7805 24.6698 10.8346C24.4428 10.9538 24.2742 11.1886 24.2334 11.476L23.1863 18.7208L23.1562 18.9321C23.2252 18.4553 23.5981 18.1042 24.0405 18.1042H25.8826C29.5006 18.1042 32.3335 16.4989 33.1614 11.8548C33.1861 11.7173 33.2069 11.5835 33.2256 11.4526C33.0162 11.3312 32.7892 11.2273 32.5449 11.1388C32.4847 11.1169 32.4225 11.0957 32.3595 11.0752Z" fill="#222D65"/>
<path d="M24.2322 11.4759C24.273 11.1885 24.4418 10.9537 24.6686 10.8352C24.7724 10.7811 24.8869 10.7511 25.0079 10.7511H29.9293C30.5124 10.7511 31.0565 10.7928 31.553 10.8806C31.6951 10.9054 31.833 10.934 31.9675 10.9661C32.1014 10.9991 32.2319 11.0356 32.3585 11.0758C32.4213 11.0963 32.4835 11.1175 32.5444 11.1387C32.7887 11.2272 33.0157 11.3318 33.2252 11.4525C33.4716 9.736 33.2232 8.56731 32.3739 7.50903C31.4374 6.34399 29.7472 5.84521 27.5845 5.84521H21.3056C20.8638 5.84521 20.4871 6.19625 20.4187 6.67383L17.8036 24.7858C17.7519 25.1441 18.0049 25.4675 18.3356 25.4675H22.212L23.1853 18.7207L24.2322 11.4759Z" fill="#253B80"/>
</svg>
