<svg width="48" height="47" viewBox="0 0 48 47" fill="none" xmlns="http://www.w3.org/2000/svg">
<path d="M14.6995 34.9948C15.8215 35.9025 17.0811 36.6257 18.4307 37.137M20.5333 37.7435C21.4249 37.9236 22.3323 38.0142 23.2418 38.0138C30.7515 38.0138 36.8392 31.9261 36.8392 24.4165C36.8392 17.2566 31.3051 11.3893 24.2811 10.8584M22.0936 10.8679C15.1215 11.451 9.64453 17.2937 9.64453 24.4165C9.64453 27.9022 10.9567 31.081 13.1133 33.4875" stroke="black" stroke-width="0.9375" stroke-miterlimit="10" stroke-linecap="round" stroke-linejoin="round"/>
<path d="M14.125 17.1318C15.7301 17.1318 17.0312 15.8307 17.0312 14.2256C17.0312 12.6205 15.7301 11.3193 14.125 11.3193C12.5199 11.3193 11.2188 12.6205 11.2188 14.2256C11.2188 15.8307 12.5199 17.1318 14.125 17.1318Z" fill="#FFC344"/>
<path d="M11.473 13.0371C11.3051 13.4108 11.2185 13.8159 11.2188 14.2256C11.2188 15.8306 12.5199 17.1318 14.125 17.1318C15.7301 17.1318 17.0313 15.8306 17.0313 14.2256C17.0313 12.6205 15.7301 11.3193 14.125 11.3193C13.7581 11.3191 13.3946 11.3886 13.0536 11.5241" stroke="black" stroke-width="0.9375" stroke-miterlimit="10" stroke-linecap="round" stroke-linejoin="round"/>
<path d="M14.125 15.5693C14.8671 15.5693 15.4688 14.9677 15.4688 14.2256C15.4688 13.4835 14.8671 12.8818 14.125 12.8818C13.3829 12.8818 12.7812 13.4835 12.7812 14.2256C12.7812 14.9677 13.3829 15.5693 14.125 15.5693Z" fill="#FFF6CE"/>
<path d="M14.125 15.5693C14.8671 15.5693 15.4688 14.9677 15.4688 14.2256C15.4688 13.4835 14.8671 12.8818 14.125 12.8818C13.3829 12.8818 12.7812 13.4835 12.7812 14.2256C12.7812 14.9677 13.3829 15.5693 14.125 15.5693Z" stroke="black" stroke-width="0.9375" stroke-miterlimit="10" stroke-linecap="round" stroke-linejoin="round"/>
<path d="M33.4422 18.2359C36.2687 18.2359 38.5601 15.9445 38.5601 13.1179C38.5601 10.2914 36.2687 8 33.4422 8C30.6156 8 28.3242 10.2914 28.3242 13.1179C28.3242 15.9445 30.6156 18.2359 33.4422 18.2359Z" fill="#FFF0AD"/>
<path d="M31.3242 13.1179C31.3242 10.8134 32.8476 8.86506 34.9422 8.22388C34.4561 8.07514 33.9505 7.99968 33.4422 8C30.6156 8 28.3242 10.2914 28.3242 13.1179C28.3242 15.9445 30.6156 18.2359 33.4422 18.2359C33.9505 18.2362 34.4561 18.1607 34.9422 18.012C32.8477 17.3708 31.3242 15.4225 31.3242 13.1179Z" fill="#FFE177"/>
<path d="M38.445 12.0381C37.9492 9.73031 35.8982 8 33.4422 8C30.6156 8 28.3242 10.2914 28.3242 13.1179C28.3242 15.9445 30.6156 18.2359 33.4422 18.2359C35.8882 18.2359 37.9322 16.5194 38.4385 14.2257" stroke="black" stroke-width="0.9375" stroke-miterlimit="10" stroke-linecap="round" stroke-linejoin="round"/>
<path d="M31.416 10.126L33.4424 13.4282M33.4424 13.4282L35.4688 10.126M33.4424 13.4282V16.4395M31.644 13.2075H35.2408M31.644 14.7285H35.2408" stroke="black" stroke-width="0.9375" stroke-miterlimit="10" stroke-linecap="round" stroke-linejoin="round"/>
<path d="M23.2406 35.6102C29.4228 35.6102 34.4344 30.5985 34.4344 24.4164C34.4344 18.2343 29.4228 13.2227 23.2406 13.2227C17.0585 13.2227 12.0469 18.2343 12.0469 24.4164C12.0469 30.5985 17.0585 35.6102 23.2406 35.6102Z" fill="#60B7FF"/>
<path d="M23.2422 35.6102C24.5576 35.6102 25.8198 35.3825 26.9922 34.9657C29.5948 33.4237 31.4584 29.2831 31.4584 24.4164C31.4584 19.5497 29.5948 15.4091 26.9922 13.8671C25.8198 13.4503 24.5576 13.2227 23.2422 13.2227C26.9515 13.2227 29.9584 18.2343 29.9584 24.4164C29.9584 30.5985 26.9515 35.6102 23.2422 35.6102Z" fill="#26A6FE"/>
<path d="M14.0469 24.4164C14.0469 18.5713 18.5271 13.7735 24.2406 13.2676C23.9081 13.2379 23.5745 13.2229 23.2406 13.2227C17.0585 13.2227 12.0469 18.2343 12.0469 24.4164C12.0469 30.5985 17.0585 35.6102 23.2406 35.6102C23.5777 35.6102 23.9111 35.5943 24.2406 35.5652C18.5271 35.0592 14.0469 30.2615 14.0469 24.4164Z" fill="#26A6FE"/>
<path d="M23.2406 35.6102C29.4228 35.6102 34.4344 30.5985 34.4344 24.4164C34.4344 18.2343 29.4228 13.2227 23.2406 13.2227C17.0585 13.2227 12.0469 18.2343 12.0469 24.4164C12.0469 30.5985 17.0585 35.6102 23.2406 35.6102Z" stroke="black" stroke-width="0.9375" stroke-miterlimit="10" stroke-linecap="round" stroke-linejoin="round"/>
<path d="M23.2416 35.6102C26.9509 35.6102 29.9579 30.5985 29.9579 24.4164C29.9579 18.2343 26.9509 13.2227 23.2416 13.2227C19.5324 13.2227 16.5254 18.2343 16.5254 24.4164C16.5254 30.5985 19.5324 35.6102 23.2416 35.6102Z" fill="#00F2A6"/>
<path d="M23.2422 35.6102C24.0314 35.6102 24.7888 35.3825 25.4922 34.9657C26.3598 33.4237 26.9809 29.2831 26.9809 24.4164C26.9809 19.5497 26.3598 15.4091 25.4922 13.8671C24.7888 13.4503 24.0314 13.2227 23.2422 13.2227C24.4786 13.2227 25.4809 18.2343 25.4809 24.4164C25.4809 30.5985 24.4786 35.6102 23.2422 35.6102Z" fill="#05E39C"/>
<path d="M18.5254 24.4165C18.5254 18.8007 21.0067 14.1513 24.2416 13.3463C23.9146 13.2645 23.5788 13.2229 23.2416 13.2227C19.5323 13.2227 16.5254 18.2343 16.5254 24.4164C16.5254 30.5985 19.5324 35.6102 23.2416 35.6102C23.5815 35.6102 23.9154 35.5677 24.2416 35.4865C21.0067 34.6817 18.5254 30.0322 18.5254 24.4165Z" fill="#05E39C"/>
<path d="M23.2416 35.6102C26.9509 35.6102 29.9579 30.5985 29.9579 24.4164C29.9579 18.2343 26.9509 13.2227 23.2416 13.2227C19.5324 13.2227 16.5254 18.2343 16.5254 24.4164C16.5254 30.5985 19.5324 35.6102 23.2416 35.6102Z" stroke="black" stroke-width="0.9375" stroke-miterlimit="10" stroke-linecap="round" stroke-linejoin="round"/>
<path d="M23.2407 35.6102C24.4771 35.6102 25.4795 30.5985 25.4795 24.4164C25.4795 18.2343 24.4771 13.2227 23.2407 13.2227C22.0043 13.2227 21.002 18.2343 21.002 24.4164C21.002 30.5985 22.0043 35.6102 23.2407 35.6102Z" fill="#60B7FF"/>
<path d="M23.002 24.4164C23.002 20.0314 23.5063 16.236 24.2407 14.3995C23.9397 13.6468 23.6001 13.2227 23.2407 13.2227C22.0043 13.2227 21.002 18.2343 21.002 24.4164C21.002 30.5985 22.0043 35.6102 23.2407 35.6102C23.6001 35.6102 23.9397 35.186 24.2407 34.4333C23.5063 32.5968 23.002 28.8013 23.002 24.4164Z" fill="#26A6FE"/>
<path d="M23.2407 35.6102C24.4771 35.6102 25.4795 30.5985 25.4795 24.4164C25.4795 18.2343 24.4771 13.2227 23.2407 13.2227C22.0043 13.2227 21.002 18.2343 21.002 24.4164C21.002 30.5985 22.0043 35.6102 23.2407 35.6102Z" stroke="black" stroke-width="0.9375" stroke-miterlimit="10" stroke-linecap="round" stroke-linejoin="round"/>
<path d="M12.0469 24.4165H34.4344M13.4188 29.7895H33.0625M33.0625 19.0435H13.4188" stroke="black" stroke-width="0.9375" stroke-miterlimit="10" stroke-linecap="round" stroke-linejoin="round"/>
<path d="M33.3302 34.0719C36.4961 34.0719 39.0627 31.5054 39.0627 28.3394C39.0627 25.1735 36.4961 22.6069 33.3302 22.6069C30.1642 22.6069 27.5977 25.1735 27.5977 28.3394C27.5977 31.5054 30.1642 34.0719 33.3302 34.0719Z" fill="#FFE177"/>
<path d="M30.0977 28.3394C30.0977 25.6028 32.0153 23.3144 34.5802 22.744C34.1698 22.6528 33.7506 22.6068 33.3302 22.6069C30.1642 22.6069 27.5977 25.1734 27.5977 28.3394C27.5977 31.5054 30.1642 34.0719 33.3302 34.0719C33.7595 34.0719 34.1777 34.0244 34.5802 33.9349C32.0153 33.3643 30.0977 31.0759 30.0977 28.3394Z" fill="#FFD15B"/>
<path d="M35.1519 26.9462C35.1519 26.3505 34.669 25.8676 34.0733 25.8676H32.5903C31.9946 25.8676 31.5117 26.3505 31.5117 26.9462V27.2607C31.5117 27.8564 31.9946 28.3393 32.5903 28.3393H34.0733C34.669 28.3393 35.1519 28.8222 35.1519 29.4178V29.7324C35.1519 30.3281 34.669 30.811 34.0733 30.811H32.5903C31.9946 30.811 31.5117 30.3281 31.5117 29.7324M33.3318 24.8789V25.8676M33.3318 30.8111V31.7998" stroke="black" stroke-width="0.9375" stroke-miterlimit="10" stroke-linecap="round" stroke-linejoin="round"/>
<path d="M13.7325 26.1891C16.8985 26.1891 19.465 23.6226 19.465 20.4566C19.465 17.2906 16.8985 14.7241 13.7325 14.7241C10.5665 14.7241 8 17.2906 8 20.4566C8 23.6226 10.5665 26.1891 13.7325 26.1891Z" fill="#FFE177"/>
<path d="M10.5 20.4566C10.5 17.72 12.4177 15.4316 14.9825 14.8612C14.5721 14.77 14.1529 14.724 13.7325 14.7241C10.5666 14.7241 8 17.2906 8 20.4566C8 23.6226 10.5665 26.1891 13.7325 26.1891C14.1619 26.1891 14.5801 26.1416 14.9825 26.0521C12.4177 25.4815 10.5 23.1931 10.5 20.4566Z" fill="#FFD15B"/>
<path d="M13.7325 26.1891C16.8985 26.1891 19.465 23.6226 19.465 20.4566C19.465 17.2906 16.8985 14.7241 13.7325 14.7241C10.5665 14.7241 8 17.2906 8 20.4566C8 23.6226 10.5665 26.1891 13.7325 26.1891Z" stroke="black" stroke-width="0.9375" stroke-miterlimit="10" stroke-linecap="round" stroke-linejoin="round"/>
<path d="M15.7587 22.4822C14.6398 23.6011 12.8258 23.6011 11.707 22.4822C10.5881 21.3633 10.5881 19.5493 11.707 18.4305C12.8258 17.3116 14.6398 17.3116 15.7587 18.4305M10.4004 19.8057H14.1775M10.4004 21.2478H14.1775" stroke="black" stroke-width="0.9375" stroke-miterlimit="10" stroke-linecap="round" stroke-linejoin="round"/>
<path d="M21.2188 31.1318C22.3233 31.1318 23.2188 30.2364 23.2188 29.1318C23.2188 28.0273 22.3233 27.1318 21.2188 27.1318C20.1142 27.1318 19.2188 28.0273 19.2188 29.1318C19.2188 30.2364 20.1142 31.1318 21.2188 31.1318Z" fill="white"/>
<path d="M20.8438 29.1318C20.8438 28.3166 21.3317 27.6159 22.0312 27.3044C21.7755 27.1904 21.4987 27.1316 21.2188 27.1318C20.1142 27.1318 19.2188 28.0273 19.2188 29.1318C19.2188 30.2364 20.1142 31.1318 21.2188 31.1318C21.5081 31.1318 21.7829 31.0699 22.0312 30.9593C21.3317 30.6478 20.8438 29.947 20.8438 29.1318Z" fill="#EBEBEB"/>
<path d="M21.2188 31.1318C22.3233 31.1318 23.2188 30.2364 23.2188 29.1318C23.2188 28.0273 22.3233 27.1318 21.2188 27.1318C20.1142 27.1318 19.2188 28.0273 19.2188 29.1318C19.2188 30.2364 20.1142 31.1318 21.2188 31.1318Z" stroke="black" stroke-width="0.9375" stroke-miterlimit="10" stroke-linecap="round" stroke-linejoin="round"/>
<path d="M38.0627 31.5747C38.6934 30.6539 39.0627 29.5398 39.0627 28.3394C39.0627 25.1735 36.4962 22.6069 33.3302 22.6069C30.1642 22.6069 27.5977 25.1734 27.5977 28.3394C27.5977 31.5054 30.1642 34.0719 33.3302 34.0719C34.505 34.0719 35.5971 33.7182 36.5063 33.1119" stroke="black" stroke-width="0.9375" stroke-miterlimit="10" stroke-linecap="round" stroke-linejoin="round"/>
</svg>
