<svg width="16" height="16" viewBox="0 0 16 16" fill="none" xmlns="http://www.w3.org/2000/svg">
<path d="M7.29591 2.18318C7.51639 1.49955 8.48361 1.49954 8.70409 2.18318L9.62113 5.02668C9.71987 5.33285 10.0051 5.54011 10.3268 5.53941L13.3146 5.53288C14.0329 5.53131 14.3317 6.45119 13.7497 6.87213L11.3287 8.62298C11.0681 8.8115 10.9591 9.14686 11.0592 9.45259L11.9887 12.2921C12.2121 12.9747 11.4296 13.5432 10.8494 13.1198L8.43615 11.3583C8.17631 11.1687 7.82369 11.1687 7.56385 11.3583L5.15058 13.1198C4.57038 13.5432 3.78788 12.9747 4.01134 12.2921L4.94081 9.45259C5.04088 9.14686 4.93192 8.8115 4.67125 8.62298L2.2503 6.87213C1.66826 6.45119 1.96714 5.53131 2.68545 5.53288L5.67317 5.53941C5.99486 5.54011 6.28013 5.33285 6.37887 5.02669L7.29591 2.18318Z" fill="#CCD0D7"/>
</svg>
