<svg width="32" height="32" viewBox="0 0 32 32" fill="none" xmlns="http://www.w3.org/2000/svg">
<g clip-path="url(#clip0_1969_119816)">
<path d="M29.55 8.05H0.5V4.55C0.5 3.55 1.3 2.75 2.3 2.75H27.75C28.75 2.75 29.55 3.55 29.55 4.55V8.05Z" fill="#FB695A"/>
<path d="M29.55 8.5H0.5C0.25 8.5 0 8.3 0 8V4.55C0 3.3 1.05 2.25 2.3 2.25H27.75C29 2.25 30.05 3.3 30.05 4.55V8C30.05 8.3 29.8 8.5 29.55 8.5ZM0.95 7.55H29.05V4.55C29.05 3.8 28.45 3.2 27.7 3.2H2.3C1.55 3.2 0.95 3.8 0.95 4.55V7.55Z" fill="#353535"/>
<path d="M28 2.80005C28 2.90005 28.05 3.00005 28.05 3.05005C28.05 4.95005 26.5 6.50005 24.6 6.50005H0.5V8.00005H29.55V4.55005C29.55 3.65005 28.9 2.90005 28 2.80005Z" fill="#353535" fill-opacity="0.145"/>
<path d="M29.55 8.05005H0.5V24.1C0.5 25.1 1.3 25.9 2.3 25.9H27.75C28.75 25.9 29.55 25.1 29.55 24.1V8.05005Z" fill="#FFFAF8"/>
<path d="M27.75 26.4H2.3C1.05 26.4 0 25.35 0 24.1V8.05005C0 7.80005 0.2 7.55005 0.5 7.55005H29.55C29.8 7.55005 30.05 7.75005 30.05 8.05005V24.1C30.05 25.35 29 26.4 27.75 26.4ZM0.95 8.50005V24.1C0.95 24.85 1.55 25.45 2.3 25.45H27.75C28.5 25.45 29.1 24.85 29.1 24.1V8.50005H0.95Z" fill="#353535"/>
<path d="M29.55 8.5H0.5C0.25 8.5 0 8.3 0 8V4.55C0 3.3 1.05 2.25 2.3 2.25H27.75C29 2.25 30.05 3.3 30.05 4.55V8C30.05 8.3 29.8 8.5 29.55 8.5ZM0.95 7.55H29.05V4.55C29.05 3.8 28.45 3.2 27.7 3.2H2.3C1.55 3.2 0.95 3.8 0.95 4.55V7.55Z" fill="#353535"/>
<path d="M27.8 8.05005V23.7C27.8 24.7001 27 24.15 26 24.15H0.5C0.55 25.15 1.35 25.9 2.3 25.9H27.75C28.75 25.9 29.55 25.1 29.55 24.1V8.05005H27.8Z" fill="#353535" fill-opacity="0.145"/>
<path d="M10.3008 10.3496H13.5008V13.3496H10.3008V10.3496Z" fill="#FB695A"/>
<path d="M13.5008 13.7998H10.3008C10.0508 13.7998 9.80078 13.5998 9.80078 13.2998V10.2998C9.80078 10.0498 10.0008 9.7998 10.3008 9.7998H13.5008C13.7508 9.7998 14.0008 9.9998 14.0008 10.2998V13.2998C14.0008 13.5998 13.8008 13.7998 13.5008 13.7998ZM10.8008 12.8498H13.0508V10.8498H10.8008V12.8498Z" fill="#353535"/>
<path d="M16.5 10.3496H19.7V13.3496H16.5V10.3496Z" fill="#FB695A"/>
<path d="M19.7 13.8H16.5C16.25 13.8 16 13.6 16 13.3V10.3C16 10.05 16.2 9.80005 16.5 9.80005H19.7C19.95 9.80005 20.2 10 20.2 10.3V13.3C20.2 13.6 20 13.8 19.7 13.8ZM17 12.85H19.25V10.85H17V12.85Z" fill="#353535"/>
<path d="M22.6992 10.3496H25.8992V13.3496H22.6992V10.3496Z" fill="#FB695A"/>
<path d="M25.8992 13.7998H22.6992C22.4492 13.7998 22.1992 13.5998 22.1992 13.2998V10.2998C22.1992 10.0498 22.3992 9.7998 22.6992 9.7998H25.8992C26.1492 9.7998 26.3992 9.9998 26.3992 10.2998V13.2998C26.3992 13.5998 26.1992 13.7998 25.8992 13.7998ZM23.1992 12.8498H25.4492V10.8498H23.1992V12.8498Z" fill="#353535"/>
<path d="M4.10156 15.5H7.30156V18.5H4.10156V15.5Z" fill="#FB695A"/>
<path d="M7.35156 18.9502H4.10156C3.85156 18.9502 3.60156 18.7502 3.60156 18.4502V15.4502C3.60156 15.2002 3.80156 14.9502 4.10156 14.9502H7.30156C7.55156 14.9502 7.80156 15.1502 7.80156 15.4502V18.4502C7.80156 18.7502 7.60156 18.9502 7.35156 18.9502ZM4.60156 18.0002H6.85156V16.0002H4.60156V18.0002Z" fill="#353535"/>
<path d="M10.3008 15.5H13.5008V18.5H10.3008V15.5Z" fill="#FB695A"/>
<path d="M13.5008 18.9502H10.3008C10.0508 18.9502 9.80078 18.7502 9.80078 18.4502V15.4502C9.80078 15.2002 10.0008 14.9502 10.3008 14.9502H13.5008C13.7508 14.9502 14.0008 15.1502 14.0008 15.4502V18.4502C14.0008 18.7502 13.8008 18.9502 13.5008 18.9502ZM10.8008 18.0002H13.0508V16.0002H10.8008V18.0002Z" fill="#353535"/>
<path d="M16.5 15.5H19.7V18.5H16.5V15.5Z" fill="#FB695A"/>
<path d="M19.7 18.95H16.5C16.25 18.95 16 18.75 16 18.45V15.45C16 15.2 16.2 14.95 16.5 14.95H19.7C19.95 14.95 20.2 15.15 20.2 15.45V18.45C20.2 18.75 20 18.95 19.7 18.95ZM17 18H19.25V16H17V18Z" fill="#353535"/>
<path d="M22.6992 15.5H25.8992V18.5H22.6992V15.5Z" fill="#FB695A"/>
<path d="M25.8992 18.9502H22.6992C22.4492 18.9502 22.1992 18.7502 22.1992 18.4502V15.4502C22.1992 15.2002 22.3992 14.9502 22.6992 14.9502H25.8992C26.1492 14.9502 26.3992 15.1502 26.3992 15.4502V18.4502C26.3992 18.7502 26.1992 18.9502 25.8992 18.9502ZM23.1992 18.0002H25.4492V16.0002H23.1992V18.0002Z" fill="#353535"/>
<path d="M4.10156 20.5996H7.30156V23.5996H4.10156V20.5996Z" fill="#FB695A"/>
<path d="M7.35156 24.0996H4.10156C3.85156 24.0996 3.60156 23.8996 3.60156 23.5996V20.5996C3.60156 20.3496 3.80156 20.0996 4.10156 20.0996H7.30156C7.55156 20.0996 7.80156 20.2996 7.80156 20.5996V23.5996C7.80156 23.8996 7.60156 24.0996 7.35156 24.0996ZM4.60156 23.0996H6.85156V21.0996H4.60156V23.0996Z" fill="#353535"/>
<path d="M10.3008 20.5996H13.5008V23.5996H10.3008V20.5996Z" fill="#FB695A"/>
<path d="M13.5008 24.0996H10.3008C10.0508 24.0996 9.80078 23.8996 9.80078 23.5996V20.5996C9.80078 20.3496 10.0008 20.0996 10.3008 20.0996H13.5008C13.7508 20.0996 14.0008 20.2996 14.0008 20.5996V23.5996C14.0008 23.8996 13.8008 24.0996 13.5008 24.0996ZM10.8008 23.0996H13.0508V21.0996H10.8008V23.0996Z" fill="#353535"/>
<path d="M16.5 20.5996H19.7V23.5996H16.5V20.5996Z" fill="#FB695A"/>
<path d="M19.7 24.0996H16.5C16.25 24.0996 16 23.8996 16 23.5996V20.5996C16 20.3496 16.2 20.0996 16.5 20.0996H19.7C19.95 20.0996 20.2 20.2996 20.2 20.5996V23.5996C20.2 23.8996 20 24.0996 19.7 24.0996ZM17 23.0996H19.25V21.0996H17V23.0996Z" fill="#353535"/>
<path d="M13.5016 10.3496V13.3496H10.3016M19.7016 10.3496V13.3496H16.5016M25.9016 10.3496V13.3496H22.7016M7.35156 15.4996V18.4496H4.10156M13.5016 15.4996V18.4496H10.3016M19.7016 15.4996V18.4496H16.5016M25.9016 15.4996V18.4496H22.7016M7.35156 20.5996V23.5996H4.10156M13.5016 20.5996V23.5996H10.3016M19.7016 20.5996V23.5996H16.5016" fill="#353535" fill-opacity="0.145"/>
<path d="M6.20078 4.9H4.80078C4.50078 4.9 4.30078 4.65 4.30078 4.4V1C4.30078 0.7 4.55078 0.5 4.80078 0.5H6.20078C6.50078 0.5 6.70078 0.75 6.70078 1V4.4C6.70078 4.7 6.45078 4.9 6.20078 4.9Z" fill="#A0A3F2"/>
<path d="M6.20078 5.4H4.80078C4.25078 5.4 3.80078 4.95 3.80078 4.4V1C3.80078 0.45 4.25078 0 4.80078 0H6.20078C6.75078 0 7.20078 0.45 7.20078 1V4.4C7.20078 4.95 6.75078 5.4 6.20078 5.4ZM4.80078 0.95L4.75078 4.4L6.20078 4.45C6.20078 4.45 6.25078 4.45 6.25078 4.4V1L4.80078 0.95Z" fill="#353535"/>
<path d="M12.5484 4.9H11.1484C10.8484 4.9 10.6484 4.65 10.6484 4.4V1C10.6484 0.7 10.8984 0.5 11.1484 0.5H12.5484C12.8484 0.5 13.0484 0.75 13.0484 1V4.4C13.0484 4.7 12.8484 4.9 12.5484 4.9Z" fill="#A0A3F2"/>
<path d="M12.5484 5.4H11.1484C10.5984 5.4 10.1484 4.95 10.1484 4.4V1C10.1484 0.45 10.5984 0 11.1484 0H12.5484C13.0984 0 13.5484 0.45 13.5484 1V4.4C13.5484 4.95 13.0984 5.4 12.5484 5.4ZM11.1484 0.95L11.0984 4.4L12.5484 4.45C12.5484 4.45 12.5984 4.45 12.5984 4.4V1L11.1484 0.95Z" fill="#353535"/>
<path d="M18.9 4.9H17.5C17.2 4.9 17 4.65 17 4.4V1C17 0.7 17.25 0.5 17.5 0.5H18.9C19.2 0.5 19.4 0.75 19.4 1V4.4C19.4 4.7 19.2 4.9 18.9 4.9Z" fill="#A0A3F2"/>
<path d="M18.9 5.4H17.5C16.95 5.4 16.5 4.95 16.5 4.4V1C16.5 0.45 16.95 0 17.5 0H18.9C19.45 0 19.9 0.45 19.9 1V4.4C19.9 4.95 19.45 5.4 18.9 5.4ZM17.5 0.95L17.45 4.4L18.9 4.45C18.9 4.45 18.95 4.45 18.95 4.4V1L17.5 0.95Z" fill="#353535"/>
<path d="M25.2516 4.9H23.8516C23.5516 4.9 23.3516 4.65 23.3516 4.4V1C23.3516 0.7 23.6016 0.5 23.8516 0.5H25.2516C25.5516 0.5 25.7516 0.75 25.7516 1V4.4C25.7516 4.7 25.5516 4.9 25.2516 4.9Z" fill="#A0A3F2"/>
<path d="M25.2516 5.4H23.8516C23.3016 5.4 22.8516 4.95 22.8516 4.4V1C22.8516 0.45 23.3016 0 23.8516 0H25.2516C25.8016 0 26.2516 0.45 26.2516 1V4.4C26.2516 4.95 25.8016 5.4 25.2516 5.4ZM23.8516 0.95L23.8016 4.4L25.2516 4.45C25.2516 4.45 25.3016 4.45 25.3016 4.4V1L23.8516 0.95Z" fill="#353535"/>
<path d="M25.2492 0.5H24.4492C24.7492 0.5 24.9492 0.75 24.9492 1V4.4C24.9492 4.7 24.6992 4.9 24.4492 4.9H25.2492C25.5492 4.9 25.7492 4.65 25.7492 4.4V1C25.7492 0.7 25.5492 0.5 25.2492 0.5Z" fill="#353535" fill-opacity="0.145"/>
<path d="M24.1992 4.15039C24.0492 4.15039 23.9492 4.05039 23.9492 3.90039V3.15039C23.9492 3.00039 24.0492 2.90039 24.1992 2.90039C24.3492 2.90039 24.4492 3.00039 24.4492 3.15039V3.90039C24.4492 4.05039 24.3492 4.15039 24.1992 4.15039Z" fill="#FFFDFD"/>
<path d="M18.9016 0.5H18.1016C18.4016 0.5 18.6016 0.75 18.6016 1V4.4C18.6016 4.7 18.3516 4.9 18.1016 4.9H18.9016C19.2016 4.9 19.4016 4.65 19.4016 4.4V1C19.4016 0.7 19.2016 0.5 18.9016 0.5Z" fill="#353535" fill-opacity="0.145"/>
<path d="M17.8516 4.15039C17.7016 4.15039 17.6016 4.05039 17.6016 3.90039V3.15039C17.6016 3.00039 17.7016 2.90039 17.8516 2.90039C18.0016 2.90039 18.1016 3.00039 18.1016 3.15039V3.90039C18.1016 4.05039 18.0016 4.15039 17.8516 4.15039Z" fill="#FFFDFD"/>
<path d="M12.55 0.5H11.75C12.05 0.5 12.25 0.75 12.25 1V4.4C12.25 4.7 12 4.9 11.75 4.9H12.55C12.85 4.9 13.05 4.65 13.05 4.4V1C13.05 0.7 12.85 0.5 12.55 0.5Z" fill="#353535" fill-opacity="0.145"/>
<path d="M11.5 4.15039C11.35 4.15039 11.25 4.05039 11.25 3.90039V3.15039C11.25 3.00039 11.35 2.90039 11.5 2.90039C11.65 2.90039 11.75 3.00039 11.75 3.15039V3.90039C11.75 4.05039 11.6 4.15039 11.5 4.15039Z" fill="#FFFDFD"/>
<path d="M6.19844 0.5H5.39844C5.69844 0.5 5.89844 0.75 5.89844 1V4.4C5.89844 4.7 5.64844 4.9 5.39844 4.9H6.19844C6.49844 4.9 6.69844 4.65 6.69844 4.4V1C6.69844 0.7 6.44844 0.5 6.19844 0.5Z" fill="#353535" fill-opacity="0.145"/>
<path d="M5.14844 4.15039C4.99844 4.15039 4.89844 4.05039 4.89844 3.90039V3.15039C4.89844 3.00039 4.99844 2.90039 5.14844 2.90039C5.29844 2.90039 5.39844 3.00039 5.39844 3.15039V3.90039C5.39844 4.05039 5.24844 4.15039 5.14844 4.15039Z" fill="#FFFDFD"/>
<path d="M23.4484 31.5004C27.8943 31.5004 31.4984 27.8963 31.4984 23.4504C31.4984 19.0045 27.8943 15.4004 23.4484 15.4004C19.0025 15.4004 15.3984 19.0045 15.3984 23.4504C15.3984 27.8963 19.0025 31.5004 23.4484 31.5004Z" fill="#A0A3F2"/>
<path d="M23.4484 32.0004C18.7484 32.0004 14.8984 28.1504 14.8984 23.4504C14.8984 18.7504 18.7484 14.9004 23.4484 14.9004C28.1484 14.9004 31.9984 18.7504 31.9984 23.4504C31.9984 28.1504 28.1484 32.0004 23.4484 32.0004ZM23.4484 15.9004C19.2984 15.9004 15.8984 19.3004 15.8984 23.4504C15.8984 27.6004 19.2984 31.0004 23.4484 31.0004C27.5984 31.0004 30.9984 27.6004 30.9984 23.4504C30.9984 19.3004 27.6484 15.9004 23.4484 15.9004Z" fill="#353535"/>
<path d="M17.1992 23.7004C17.0492 23.7004 16.9492 23.6004 16.9492 23.4504C16.9492 21.7004 17.6492 20.0504 18.8492 18.8504C18.9492 18.7504 19.0992 18.7504 19.1992 18.8504C19.2992 18.9504 19.2992 19.1004 19.1992 19.2004C18.0492 20.3504 17.4492 21.8504 17.4492 23.4504C17.4492 23.6004 17.2992 23.7004 17.1992 23.7004Z" fill="#FFFDFD"/>
<path d="M28.0008 16.7998C28.9008 18.0998 29.4008 19.6498 29.4008 21.3498C29.4008 25.7998 25.8008 29.3998 21.3508 29.3998C19.6508 29.3998 18.1008 28.8998 16.8008 27.9998C18.2508 30.0998 20.7008 31.4998 23.4508 31.4998C27.9008 31.4998 31.5008 27.8998 31.5008 23.4498C31.5008 20.6998 30.1008 18.2498 28.0008 16.7998Z" fill="#353535" fill-opacity="0.145"/>
<path d="M23.4492 18.0996V23.4496L27.9992 25.8996" fill="#A0A3F2"/>
<path d="M28 26.3996C27.9 26.3996 27.85 26.3996 27.75 26.3496L23.25 23.8996C23.1 23.7996 23 23.6496 23 23.4496V18.0996C23 17.8496 23.2 17.5996 23.5 17.5996C23.8 17.5996 24 17.7996 24 18.0996V23.1496L28.25 25.4496C28.5 25.5996 28.55 25.8496 28.45 26.0996C28.3 26.2996 28.15 26.3996 28 26.3996Z" fill="#353535"/>
</g>
<defs>
<clipPath id="clip0_1969_119816">
<rect width="32" height="32" fill="white"/>
</clipPath>
</defs>
</svg>
