<svg width="25" height="24" viewBox="0 0 25 24" fill="none" xmlns="http://www.w3.org/2000/svg">
<path d="M8.3914 21.9602L8.39259 21.9607C8.53206 22.0205 8.6937 22.0503 8.85563 22.0503C9.05239 22.0503 9.23236 22.0067 9.38369 21.9184L9.41561 21.8998L9.43822 21.8908L9.45376 21.8777L11.7802 19.9207C11.781 19.92 11.7818 19.9193 11.7826 19.9186C11.9335 19.7906 12.1166 19.7544 12.2462 19.7517C12.3779 19.7489 12.5749 19.7782 12.74 19.9198L15.0617 21.8728C15.0781 21.8856 15.097 21.8978 15.1333 21.9198C15.4519 22.0694 15.8164 22.0809 16.1482 21.9468L16.1516 21.9454C16.4885 21.8121 16.7472 21.5374 16.8723 21.179L17.3113 19.8622L17.3121 19.8598C17.451 19.4501 17.3175 18.8793 17.0121 18.5739L17.0113 18.5731L14.7321 16.2839C14.7319 16.2837 14.7318 16.2836 14.7316 16.2834L14.7313 16.2831L15.0856 15.9303C15.0556 15.9003 15.0156 15.8003 15.0156 15.7603L8.3914 21.9602ZM8.3914 21.9602C8.05366 21.8165 7.79594 21.5373 7.68094 21.1851L7.67997 21.1822L7.23997 19.8622C7.10064 19.4442 7.23103 18.8904 7.54167 18.5714C7.54215 18.5709 7.54264 18.5704 7.54313 18.5699L9.80918 16.2939L9.45563 15.9403L9.80996 16.2931L9.80966 16.2934C9.8719 16.231 9.90808 16.164 9.92275 16.1358C9.94257 16.0977 9.9587 16.0593 9.97131 16.0249C9.98992 15.9742 10.0256 15.8663 10.0256 15.7503V13.2803V12.5196L9.32733 12.8213L4.76958 14.7904C4.76925 14.7905 4.76892 14.7906 4.76859 14.7908C4.28239 14.9977 3.84479 14.9534 3.54092 14.7529C3.23205 14.5492 3.01562 14.1589 3.01562 13.6503V12.3603C3.01562 11.9849 3.15188 11.5724 3.39271 11.2117C3.63389 10.8505 3.95627 10.5763 4.28861 10.4456L4.29642 10.4426L4.30412 10.4392L9.71412 8.09922L10.0156 7.96881V7.64031V4.80031C10.0156 4.30601 10.192 3.74517 10.5023 3.23725C10.8118 2.73076 11.2306 2.31604 11.6724 2.08593L8.3914 21.9602ZM10.1933 12.243L10.1932 12.243L16.3656 19.5403C16.3856 19.4703 16.3456 19.3203 16.3056 19.2803L16.66 18.9275L16.6597 18.9272C16.6595 18.9271 16.6593 18.9269 16.6592 18.9268L14.39 16.6475L14.3835 16.641L14.3768 16.6348C14.1843 16.4552 14.0156 16.0705 14.0156 15.7603V12.9103C14.0156 12.6031 14.1414 12.3792 14.3258 12.2545C14.5076 12.1315 14.7648 12.0984 15.0482 12.2197C15.0484 12.2198 15.0485 12.2198 15.0487 12.2199L19.9678 14.3395L19.9677 14.3397L19.9799 14.3446C20.0884 14.3879 20.196 14.4168 20.2983 14.4276C20.349 14.4329 20.4073 14.4347 20.4687 14.4275C20.5197 14.4215 20.6213 14.4041 20.723 14.3363C20.8205 14.2713 20.8753 14.1887 20.9018 14.1429C20.9331 14.089 20.9547 14.0341 20.9701 13.9839C21.0009 13.8829 21.0156 13.7699 21.0156 13.6503V12.3603C21.0156 12.0441 20.8888 11.7323 20.7317 11.4918C20.5764 11.2541 20.3427 11.0117 20.0506 10.8899L14.4739 8.48129L14.4738 8.48128C14.2207 8.37195 14.0256 8.07479 14.0256 7.79031V4.79031C14.0256 4.34145 13.854 3.87355 13.6162 3.48791C13.3783 3.10206 13.036 2.73647 12.6292 2.5331C12.401 2.41898 12.1434 2.42969 11.9326 2.52341L11.919 2.52941L11.9059 2.5362C11.5091 2.74145 11.1713 3.11315 10.9362 3.49879C10.7012 3.88428 10.5256 4.35447 10.5256 4.80031V7.80031C10.5256 8.07704 10.3286 8.38282 10.0774 8.49128L10.0774 8.49129L4.50272 10.899C4.20651 11.0198 3.97014 11.2607 3.81292 11.4974C3.65426 11.7361 3.52562 12.0466 3.52562 12.3603V13.6503C3.52562 13.7699 3.54034 13.8829 3.5712 13.9839C3.58652 14.0341 3.60819 14.089 3.63943 14.1429C3.66599 14.1887 3.72077 14.2713 3.81827 14.3363C3.91995 14.4041 4.02154 14.4215 4.07252 14.4275C4.13395 14.4347 4.19228 14.4329 4.24297 14.4276C4.3452 14.4168 4.45288 14.3879 4.56132 14.3446L4.56139 14.3447L4.57382 14.3394L9.48383 12.2194L9.48384 12.2194L9.48869 12.2172C9.60717 12.1646 9.72817 12.1403 9.83563 12.1403C9.97714 12.1403 10.096 12.1764 10.1933 12.243ZM16.0045 21.4649C16.0607 21.4373 16.3067 21.3161 16.4017 21.0131L8.18563 19.5403L7.71093 19.6974L7.71109 19.6979C7.71116 19.698 7.71122 19.6982 7.71128 19.6984L8.14924 21.0222C8.24051 21.3152 8.46026 21.4366 8.54201 21.4775L8.5738 21.4934L8.60751 21.5047C8.60348 21.5033 8.67147 21.5286 8.74639 21.5404C8.83134 21.5539 8.94221 21.5552 9.06374 21.5147L9.15475 21.4843L9.22806 21.4225L11.4681 19.5325L11.4681 19.5325L11.471 19.5299C11.9138 19.1504 12.6275 19.1504 13.0702 19.5299L13.0733 19.5326L15.3033 21.4126L15.413 21.505L15.5549 21.5253C15.7082 21.5472 15.8366 21.527 15.9337 21.4947L15.9675 21.4834L15.9992 21.4675C16.0007 21.4668 16.0025 21.4659 16.0045 21.4649Z" fill="#7B8697" stroke="#7B8697"/>
</svg>
