<svg width="48" height="48" viewBox="0 0 48 48" fill="none" xmlns="http://www.w3.org/2000/svg">
<path fill-rule="evenodd" clip-rule="evenodd" d="M29.5419 8.7998H18.459C17.1099 8.7998 16.0059 9.9038 16.0059 11.2526V36.747C16.0059 38.0961 17.1099 39.1998 18.459 39.1998H29.5419C30.891 39.1998 31.995 38.0958 31.995 36.747V11.2526C31.995 9.90348 30.891 8.7998 29.5419 8.7998ZM28.058 9.80012H28.77C28.8458 9.80012 28.9185 9.83023 28.9721 9.88382C29.0257 9.93741 29.0558 10.0101 29.0558 10.0859C29.0558 10.1617 29.0257 10.2344 28.9721 10.2879C28.9185 10.3415 28.8458 10.3716 28.77 10.3716H28.058C27.9822 10.3716 27.9095 10.3415 27.856 10.2879C27.8024 10.2344 27.7723 10.1617 27.7723 10.0859C27.7723 10.0101 27.8024 9.93741 27.856 9.88382C27.9095 9.83023 27.9822 9.80012 28.058 9.80012ZM22.3636 9.80012H25.6379C25.7136 9.80012 25.7863 9.83023 25.8399 9.88382C25.8935 9.93741 25.9236 10.0101 25.9236 10.0859C25.9236 10.1617 25.8935 10.2344 25.8399 10.2879C25.7863 10.3415 25.7136 10.3716 25.6379 10.3716H22.3633C22.2875 10.3716 22.2148 10.3415 22.1612 10.2879C22.1076 10.2344 22.0775 10.1617 22.0775 10.0859C22.0775 10.0101 22.1076 9.93741 22.1612 9.88382C22.2148 9.83023 22.2878 9.80012 22.3636 9.80012ZM26.115 37.0244C26.115 37.4436 25.7726 37.786 25.3534 37.786H22.6481C22.4463 37.7855 22.2529 37.705 22.1102 37.5623C21.9675 37.4196 21.8871 37.2263 21.8865 37.0244C21.8865 36.6052 22.2289 36.2628 22.6481 36.2628H25.3534C25.7726 36.2628 26.115 36.6052 26.115 37.0244ZM30.9435 34.882H17.058V11.979H30.9428V34.882H30.9435Z" fill="#323945"/>
</svg>
