<svg width="24" height="24" viewBox="0 0 24 24" fill="none" xmlns="http://www.w3.org/2000/svg">
<path d="M22 22.25H2C1.86614 22.25 1.75 22.1339 1.75 22C1.75 21.8661 1.86614 21.75 2 21.75H22C22.1339 21.75 22.25 21.8661 22.25 22C22.25 22.1339 22.1339 22.25 22 22.25Z" fill="#7B8697" stroke="#7B8697"/>
<path d="M2.76001 22.0097L2.76001 22.01C2.76001 22.076 2.78625 22.1392 2.83353 22.1865C2.88074 22.2337 2.94383 22.2599 3.0095 22.26C3.00967 22.26 3.00984 22.26 3.01001 22.26L14.9992 22.24H15C15.1395 22.24 15.2499 22.1283 15.25 21.9902C15.25 21.9902 15.25 21.9901 15.25 21.99L15.24 7.07038V7.07004C15.24 6.31563 14.8723 5.62309 14.2439 5.20687L14.2424 5.20588L10.2424 2.5359L10.2406 2.53467C9.49047 2.02915 8.51049 2.02741 7.74756 2.5359L2.76001 22.0097ZM2.76001 22.0097L2.75 7.07004C2.75 7.06999 2.75 7.06994 2.75 7.06989C2.75005 6.32781 3.12595 5.62323 3.74813 5.2055C3.74828 5.2054 3.74843 5.2053 3.74858 5.20519L7.74732 2.53605L2.76001 22.0097ZM8.0324 2.94416L8.03265 2.94399C8.32573 2.74861 8.66243 2.65006 9 2.65006C9.33167 2.65006 9.68259 2.74556 9.98359 2.95816L13.9749 5.62234C14.4596 5.93757 14.7499 6.48676 14.75 7.06969L8.0324 2.94416ZM8.0324 2.94416L4.03376 5.61329C3.54358 5.9362 3.25 6.48292 3.25 7.07004L3.25 7.07039L3.26001 21.2604L3.26036 21.761L3.76096 21.76L14.261 21.74L14.7604 21.7391L14.76 21.2397L14.75 7.07004L8.0324 2.94416Z" fill="#7B8697" stroke="#7B8697"/>
<path d="M19.9805 22.76C19.5705 22.76 19.2305 22.42 19.2305 22.01V18C19.2305 17.59 19.5705 17.25 19.9805 17.25C20.3905 17.25 20.7305 17.59 20.7305 18V22.01C20.7305 22.42 20.4005 22.76 19.9805 22.76Z" fill="#7B8697"/>
<path d="M20 18.75C18.48 18.75 17.25 17.52 17.25 16V14C17.25 12.48 18.48 11.25 20 11.25C21.52 11.25 22.75 12.48 22.75 14V16C22.75 17.52 21.52 18.75 20 18.75ZM20 12.75C19.31 12.75 18.75 13.31 18.75 14V16C18.75 16.69 19.31 17.25 20 17.25C20.69 17.25 21.25 16.69 21.25 16V14C21.25 13.31 20.69 12.75 20 12.75Z" fill="#7B8697"/>
<path d="M15 14.75H3C2.59 14.75 2.25 14.41 2.25 14C2.25 13.59 2.59 13.25 3 13.25H15C15.41 13.25 15.75 13.59 15.75 14C15.75 14.41 15.41 14.75 15 14.75Z" fill="#7B8697"/>
<path d="M9 22.75C8.59 22.75 8.25 22.41 8.25 22V18.25C8.25 17.84 8.59 17.5 9 17.5C9.41 17.5 9.75 17.84 9.75 18.25V22C9.75 22.41 9.41 22.75 9 22.75Z" fill="#7B8697"/>
<path d="M9 11.25C7.76 11.25 6.75 10.24 6.75 9C6.75 7.76 7.76 6.75 9 6.75C10.24 6.75 11.25 7.76 11.25 9C11.25 10.24 10.24 11.25 9 11.25ZM9 8.25C8.59 8.25 8.25 8.59 8.25 9C8.25 9.41 8.59 9.75 9 9.75C9.41 9.75 9.75 9.41 9.75 9C9.75 8.59 9.41 8.25 9 8.25Z" fill="#7B8697"/>
</svg>
