<svg width="24" height="25" viewBox="0 0 24 25" fill="none" xmlns="http://www.w3.org/2000/svg">
<path d="M16.7502 3.62055V2.06055C16.7502 1.65055 16.4102 1.31055 16.0002 1.31055C15.5902 1.31055 15.2502 1.65055 15.2502 2.06055V3.56055H8.75023V2.06055C8.75023 1.65055 8.41023 1.31055 8.00023 1.31055C7.59023 1.31055 7.25023 1.65055 7.25023 2.06055V3.62055C4.55023 3.87055 3.24023 5.48055 3.04023 7.87055C3.02023 8.16055 3.26023 8.40055 3.54023 8.40055H20.4602C20.7502 8.40055 20.9902 8.15055 20.9602 7.87055C20.7602 5.48055 19.4502 3.87055 16.7502 3.62055Z" fill="#972F8A"/>
<path d="M20 9.90039H4C3.45 9.90039 3 10.3504 3 10.9004V17.0604C3 20.0604 4.5 22.0604 8 22.0604H16C19.5 22.0604 21 20.0604 21 17.0604V10.9004C21 10.3504 20.55 9.90039 20 9.90039ZM9.21 18.2704C9.16 18.3104 9.11 18.3604 9.06 18.3904C9 18.4304 8.94 18.4604 8.88 18.4804C8.82 18.5104 8.76 18.5304 8.7 18.5404C8.63 18.5504 8.57 18.5604 8.5 18.5604C8.37 18.5604 8.24 18.5304 8.12 18.4804C7.99 18.4304 7.89 18.3604 7.79 18.2704C7.61 18.0804 7.5 17.8204 7.5 17.5604C7.5 17.3004 7.61 17.0404 7.79 16.8504C7.89 16.7604 7.99 16.6904 8.12 16.6404C8.3 16.5604 8.5 16.5404 8.7 16.5804C8.76 16.5904 8.82 16.6104 8.88 16.6404C8.94 16.6604 9 16.6904 9.06 16.7304C9.11 16.7704 9.16 16.8104 9.21 16.8504C9.39 17.0404 9.5 17.3004 9.5 17.5604C9.5 17.8204 9.39 18.0804 9.21 18.2704ZM9.21 14.7704C9.02 14.9504 8.76 15.0604 8.5 15.0604C8.24 15.0604 7.98 14.9504 7.79 14.7704C7.61 14.5804 7.5 14.3204 7.5 14.0604C7.5 13.8004 7.61 13.5404 7.79 13.3504C8.07 13.0704 8.51 12.9804 8.88 13.1404C9.01 13.1904 9.12 13.2604 9.21 13.3504C9.39 13.5404 9.5 13.8004 9.5 14.0604C9.5 14.3204 9.39 14.5804 9.21 14.7704ZM12.71 18.2704C12.52 18.4504 12.26 18.5604 12 18.5604C11.74 18.5604 11.48 18.4504 11.29 18.2704C11.11 18.0804 11 17.8204 11 17.5604C11 17.3004 11.11 17.0404 11.29 16.8504C11.66 16.4804 12.34 16.4804 12.71 16.8504C12.89 17.0404 13 17.3004 13 17.5604C13 17.8204 12.89 18.0804 12.71 18.2704ZM12.71 14.7704C12.66 14.8104 12.61 14.8504 12.56 14.8904C12.5 14.9304 12.44 14.9604 12.38 14.9804C12.32 15.0104 12.26 15.0304 12.2 15.0404C12.13 15.0504 12.07 15.0604 12 15.0604C11.74 15.0604 11.48 14.9504 11.29 14.7704C11.11 14.5804 11 14.3204 11 14.0604C11 13.8004 11.11 13.5404 11.29 13.3504C11.38 13.2604 11.49 13.1904 11.62 13.1404C11.99 12.9804 12.43 13.0704 12.71 13.3504C12.89 13.5404 13 13.8004 13 14.0604C13 14.3204 12.89 14.5804 12.71 14.7704ZM16.21 18.2704C16.02 18.4504 15.76 18.5604 15.5 18.5604C15.24 18.5604 14.98 18.4504 14.79 18.2704C14.61 18.0804 14.5 17.8204 14.5 17.5604C14.5 17.3004 14.61 17.0404 14.79 16.8504C15.16 16.4804 15.84 16.4804 16.21 16.8504C16.39 17.0404 16.5 17.3004 16.5 17.5604C16.5 17.8204 16.39 18.0804 16.21 18.2704ZM16.21 14.7704C16.16 14.8104 16.11 14.8504 16.06 14.8904C16 14.9304 15.94 14.9604 15.88 14.9804C15.82 15.0104 15.76 15.0304 15.7 15.0404C15.63 15.0504 15.56 15.0604 15.5 15.0604C15.24 15.0604 14.98 14.9504 14.79 14.7704C14.61 14.5804 14.5 14.3204 14.5 14.0604C14.5 13.8004 14.61 13.5404 14.79 13.3504C14.89 13.2604 14.99 13.1904 15.12 13.1404C15.3 13.0604 15.5 13.0404 15.7 13.0804C15.76 13.0904 15.82 13.1104 15.88 13.1404C15.94 13.1604 16 13.1904 16.06 13.2304C16.11 13.2704 16.16 13.3104 16.21 13.3504C16.39 13.5404 16.5 13.8004 16.5 14.0604C16.5 14.3204 16.39 14.5804 16.21 14.7704Z" fill="#972F8A"/>
</svg>
