<svg width="24" height="24" viewBox="0 0 24 24" fill="none" xmlns="http://www.w3.org/2000/svg">
<path d="M16.2502 3.56V4.01584L16.7041 4.05787C17.9609 4.17424 18.8398 4.60009 19.4288 5.22534C20.0189 5.8518 20.3661 6.72969 20.461 7.83991C20.4606 7.84 20.4604 7.84 20.4602 7.84H20.4602H3.54185C3.54122 7.83968 3.54042 7.83919 3.5396 7.83853C3.6346 6.72896 3.98181 5.85155 4.57168 5.22534C5.16066 4.60009 6.03955 4.17424 7.29633 4.05787L7.75023 4.01584V3.56V2C7.75023 1.86614 7.86637 1.75 8.00023 1.75C8.13409 1.75 8.25023 1.86614 8.25023 2V3.5V4H8.75023H15.2502H15.7502V3.5V2C15.7502 1.86614 15.8664 1.75 16.0002 1.75C16.1341 1.75 16.2502 1.86614 16.2502 2V3.56Z" fill="#972F8A" stroke="#972F8A"/>
<path d="M16.0097 20.8044L16.0098 20.8044L16.0056 20.7976C15.6837 20.2755 15.5 19.6563 15.5 19C15.5 17.0661 17.0661 15.5 19 15.5C20.9339 15.5 22.5 17.0661 22.5 19C22.5 19.6563 22.3163 20.2755 21.9944 20.7976L21.9944 20.7975L21.9903 20.8044C21.3871 21.8185 20.2773 22.5 19 22.5C17.7227 22.5 16.6129 21.8185 16.0097 20.8044ZM21.4095 18.9371L21.4096 18.9372L21.4175 18.9295C21.9045 18.4588 21.9502 17.6774 21.4755 17.1688C21.0103 16.6704 20.2148 16.6332 19.7098 17.1036C19.7095 17.1039 19.7092 17.1042 19.7088 17.1045L18.4635 18.2564L18.3236 18.1164C17.8383 17.6312 17.0417 17.6312 16.5564 18.1164C16.0712 18.6017 16.0712 19.3983 16.5564 19.8836L17.5464 20.8736C17.7952 21.1223 18.1145 21.24 18.43 21.24C18.7317 21.24 19.0442 21.1253 19.2798 20.9068C19.28 20.9066 19.2801 20.9065 19.2802 20.9064L21.4095 18.9371Z" fill="#972F8A" stroke="#972F8A"/>
<path d="M9.55387 18.5728L9.56368 18.5635L9.57298 18.5537C9.83498 18.2772 10 17.8962 10 17.4998C10 17.1035 9.83498 16.7225 9.57298 16.446L9.57311 16.4458L9.56355 16.4363C9.14377 16.0165 8.49075 15.8795 7.93094 16.1169C7.73276 16.1947 7.58416 16.3024 7.45552 16.4182L7.44072 16.4315L7.42702 16.446C7.16502 16.7225 7 17.1035 7 17.4998C7 17.8962 7.16502 18.2772 7.42702 18.5537L7.43632 18.5635L7.44613 18.5728C7.72269 18.8348 8.10363 18.9998 8.5 18.9998C8.89637 18.9998 9.27731 18.8348 9.55387 18.5728ZM9.52235 15.1003L9.54927 15.0787L9.57298 15.0537C9.83498 14.7772 10 14.3962 10 13.9998C10 13.6035 9.83498 13.2225 9.57298 12.946L9.54927 12.9209L9.52235 12.8994L9.44735 12.8394L9.37235 12.7794L9.3554 12.7659L9.33735 12.7538C9.25521 12.6991 9.1668 12.6524 9.07214 12.6174C8.98453 12.5767 8.89148 12.546 8.79358 12.5286C8.29764 12.4271 7.78121 12.5915 7.43645 12.9363L7.43632 12.9362L7.42702 12.946C7.16502 13.2225 7 13.6035 7 13.9998C7 14.3962 7.16502 14.7772 7.42702 15.0537L7.43632 15.0635L7.44613 15.0728C7.72269 15.3348 8.10363 15.4998 8.5 15.4998C8.5967 15.4998 8.69812 15.4853 8.7596 15.4764C8.76347 15.4759 8.76717 15.4753 8.77071 15.4748L8.77073 15.475L8.7822 15.473C8.88427 15.456 8.98113 15.4246 9.07213 15.3822C9.16679 15.3473 9.25521 15.3006 9.33735 15.2459L9.3554 15.2338L9.37235 15.2203L9.44735 15.1603L9.52235 15.1003ZM13.0539 15.0728L13.0637 15.0635L13.073 15.0537C13.335 14.7772 13.5 14.3962 13.5 13.9998C13.5 13.6035 13.335 13.2225 13.073 12.946L13.0731 12.9458L13.0636 12.9363C12.4957 12.3685 11.5127 12.3752 10.9412 12.9316L10.934 12.9386L10.927 12.946C10.665 13.2225 10.5 13.6035 10.5 13.9998C10.5 14.3962 10.665 14.7772 10.927 15.0537L10.9363 15.0635L10.9461 15.0728C11.2227 15.3348 11.6036 15.4998 12 15.4998C12.3964 15.4998 12.7773 15.3348 13.0539 15.0728ZM4 10.3398H20C20.2679 10.3398 20.5028 10.5611 20.51 10.855V12.5898C20.51 12.8835 20.2441 13.117 19.9497 13.0762C19.6369 13.0209 19.3195 12.9998 19.01 12.9998C15.7039 12.9998 13.01 15.6937 13.01 18.9998C13.01 19.5492 13.2053 20.2566 13.4068 20.8413C13.5158 21.1658 13.2783 21.4998 12.93 21.4998H8C6.3453 21.4998 5.24565 21.0296 4.5539 20.2846C3.85591 19.5329 3.5 18.4232 3.5 16.9998V10.8398C3.5 10.566 3.72614 10.3398 4 10.3398Z" fill="#972F8A" stroke="#972F8A"/>
</svg>
