<svg width="20" height="20" viewBox="0 0 20 20" fill="none" xmlns="http://www.w3.org/2000/svg">
<path d="M6.66699 4.2915C6.63684 4.2915 6.60556 4.27922 6.57992 4.25358C6.55428 4.22793 6.54199 4.19665 6.54199 4.1665V1.6665C6.54199 1.63636 6.55428 1.60508 6.57992 1.57943C6.60556 1.55379 6.63684 1.5415 6.66699 1.5415C6.69714 1.5415 6.72842 1.55379 6.75406 1.57943C6.77971 1.60508 6.79199 1.63636 6.79199 1.6665V4.1665C6.79199 4.19665 6.77971 4.22793 6.75406 4.25358C6.72842 4.27922 6.69714 4.2915 6.66699 4.2915Z" fill="#5A687D" stroke="#5A687D"/>
<path d="M13.333 4.2915C13.3029 4.2915 13.2716 4.27922 13.2459 4.25358C13.2203 4.22793 13.208 4.19665 13.208 4.1665V1.6665C13.208 1.63636 13.2203 1.60508 13.2459 1.57943C13.2716 1.55379 13.3029 1.5415 13.333 1.5415C13.3632 1.5415 13.3944 1.55379 13.4201 1.57943C13.4457 1.60508 13.458 1.63636 13.458 1.6665V4.1665C13.458 4.19665 13.4457 4.22793 13.4201 4.25358C13.3944 4.27922 13.3632 4.2915 13.333 4.2915Z" fill="#5A687D" stroke="#5A687D"/>
<path d="M17.0837 7.70019H2.91699C2.88684 7.70019 2.85556 7.68791 2.82992 7.66227C2.80428 7.63662 2.79199 7.60534 2.79199 7.5752C2.79199 7.54505 2.80428 7.51377 2.82992 7.48812C2.85556 7.46248 2.88684 7.4502 2.91699 7.4502H17.0837C17.1138 7.4502 17.1451 7.46248 17.1707 7.48812C17.1964 7.51377 17.2087 7.54505 17.2087 7.5752C17.2087 7.60534 17.1964 7.63662 17.1707 7.66227C17.1451 7.68791 17.1138 7.70019 17.0837 7.70019Z" fill="#5A687D" stroke="#5A687D"/>
<path d="M13.3333 18.4582H6.66667C5.24074 18.4582 4.18404 18.0497 3.48376 17.3494C2.78348 16.6491 2.375 15.5924 2.375 14.1665V7.08317C2.375 5.65725 2.78348 4.60055 3.48376 3.90027C4.18404 3.19999 5.24074 2.7915 6.66667 2.7915H13.3333C14.7593 2.7915 15.816 3.19999 16.5162 3.90027C17.2165 4.60055 17.625 5.65725 17.625 7.08317V14.1665C17.625 15.5924 17.2165 16.6491 16.5162 17.3494C15.816 18.0497 14.7593 18.4582 13.3333 18.4582ZM6.66667 3.0415C5.40151 3.0415 4.36464 3.34892 3.64853 4.06503C2.93242 4.78115 2.625 5.81802 2.625 7.08317V14.1665C2.625 15.4317 2.93242 16.4685 3.64853 17.1846C4.36464 17.9008 5.40151 18.2082 6.66667 18.2082H13.3333C14.5985 18.2082 15.6354 17.9008 16.3515 17.1846C17.0676 16.4685 17.375 15.4317 17.375 14.1665V7.08317C17.375 5.81801 17.0676 4.78115 16.3515 4.06503C15.6354 3.34892 14.5985 3.0415 13.3333 3.0415H6.66667Z" fill="#5A687D" stroke="#5A687D"/>
<path d="M7.08333 12.0832C6.975 12.0832 6.86666 12.0582 6.76666 12.0165C6.66666 11.9749 6.57501 11.9165 6.49167 11.8415C6.41667 11.7582 6.35832 11.6665 6.31666 11.5665C6.27499 11.4665 6.25 11.3582 6.25 11.2498C6.25 11.0332 6.34167 10.8165 6.49167 10.6582C6.57501 10.5832 6.66666 10.5248 6.76666 10.4832C6.91666 10.4165 7.08334 10.3998 7.25001 10.4332C7.30001 10.4415 7.35 10.4582 7.4 10.4832C7.45 10.4998 7.5 10.5249 7.55 10.5582C7.59166 10.5915 7.63333 10.6249 7.67499 10.6582C7.70833 10.6999 7.74999 10.7415 7.77499 10.7832C7.80832 10.8332 7.83334 10.8832 7.85001 10.9332C7.87501 10.9832 7.89168 11.0332 7.90001 11.0832C7.90834 11.1415 7.91667 11.1915 7.91667 11.2498C7.91667 11.4665 7.82499 11.6832 7.67499 11.8415C7.51666 11.9915 7.3 12.0832 7.08333 12.0832Z" fill="#5A687D"/>
<path d="M9.70799 11.4085L9.69675 11.3747L9.68086 11.343C9.67862 11.3385 9.67745 11.3355 9.6769 11.3339L9.67536 11.3232L9.6726 11.3041C9.67093 11.2923 9.66977 11.2834 9.66891 11.276C9.66728 11.2618 9.66699 11.2547 9.66699 11.2499C9.66699 11.2174 9.67484 11.1744 9.69519 11.1255C9.71275 11.0834 9.73718 11.043 9.77084 11.0035C9.86378 10.9181 10.0127 10.8951 10.1139 10.9401L10.1256 10.9453L10.1375 10.9499C10.169 10.962 10.1978 10.9784 10.241 11.0154C10.3013 11.0854 10.3337 11.1745 10.3337 11.2499C10.3337 11.2547 10.3334 11.2618 10.3317 11.276C10.3309 11.2834 10.3297 11.2923 10.328 11.3041L10.3253 11.3232L10.3238 11.3339C10.3232 11.3355 10.322 11.3385 10.3198 11.343L10.3039 11.3747L10.2927 11.4084C10.2921 11.4101 10.29 11.4158 10.2844 11.4257L10.23 11.4936C10.1928 11.5242 10.1662 11.5389 10.1375 11.5499L10.1374 11.5497L10.1247 11.555C10.0759 11.5754 10.0328 11.5832 10.0003 11.5832C9.92748 11.5832 9.84191 11.5531 9.77306 11.4967L9.71629 11.4257C9.71065 11.4158 9.70854 11.4101 9.70799 11.4085Z" fill="#5A687D" stroke="#5A687D"/>
<path d="M6.78333 14.3041L6.78351 14.304L6.77819 14.2912C6.75785 14.2424 6.75 14.1994 6.75 14.1669C6.75 14.0918 6.78209 14.0031 6.84194 13.9332C6.87982 13.9017 6.9186 13.8786 6.95897 13.8617L6.95899 13.8618L6.96512 13.8591C7.07615 13.8111 7.21653 13.8351 7.30841 13.9165C7.31359 13.9226 7.31837 13.9282 7.32254 13.933L7.34715 13.9615L7.35275 13.9682L7.35896 13.9776C7.37111 13.9958 7.3749 14.006 7.37567 14.0083L7.38691 14.042L7.4028 14.0738C7.40391 14.076 7.40455 14.0775 7.40488 14.0783C7.40493 14.0785 7.40498 14.0789 7.40503 14.0793L7.4049 14.0793L7.40681 14.0908C7.41033 14.1119 7.41299 14.1297 7.41475 14.145C7.41636 14.1589 7.41662 14.1657 7.41666 14.1668C7.41667 14.167 7.41667 14.167 7.41667 14.1669C7.41667 14.2435 7.38329 14.3342 7.32114 14.4047C7.25062 14.4668 7.15995 14.5002 7.08333 14.5002C7.05082 14.5002 7.00779 14.4924 6.95897 14.472C6.9197 14.4557 6.88194 14.4333 6.84505 14.4031C6.8107 14.3624 6.79501 14.3344 6.78333 14.3041Z" fill="#5A687D" stroke="#5A687D"/>
</svg>
