<svg width="24" height="24" viewBox="0 0 24 24" fill="none" xmlns="http://www.w3.org/2000/svg">
<path d="M8 5.25C7.86614 5.25 7.75 5.13386 7.75 5V2C7.75 1.86614 7.86614 1.75 8 1.75C8.13386 1.75 8.25 1.86614 8.25 2V5C8.25 5.13386 8.13386 5.25 8 5.25Z" fill="#7B8697" stroke="#7B8697"/>
<path d="M16 5.25C15.8661 5.25 15.75 5.13386 15.75 5V2C15.75 1.86614 15.8661 1.75 16 1.75C16.1339 1.75 16.25 1.86614 16.25 2V5C16.25 5.13386 16.1339 5.25 16 5.25Z" fill="#7B8697" stroke="#7B8697"/>
<path d="M8.97278 13.6566L8.95689 13.6884L8.94566 13.7221C8.94228 13.7322 8.93579 13.7475 8.92335 13.7681L8.87958 13.8228L8.84458 13.8666C8.74387 13.9524 8.61522 14.0002 8.5 14.0002C8.38024 14.0002 8.24598 13.9486 8.14365 13.8562C8.04981 13.7527 8 13.6271 8 13.5002C8 13.446 8.01285 13.3813 8.04154 13.3125C8.06741 13.2504 8.10344 13.1917 8.15216 13.1354C8.32518 12.9735 8.66707 12.968 8.85415 13.1417C8.94768 13.2443 9 13.3796 9 13.5002C9 13.5168 8.99673 13.547 8.98624 13.621C8.9848 13.6277 8.98136 13.6394 8.97278 13.6566Z" fill="#7B8697" stroke="#7B8697"/>
<path d="M11.8123 13.9583L11.8124 13.9581L11.7995 13.9532C11.747 13.933 11.7015 13.9053 11.6403 13.8522C11.5486 13.7494 11.5 13.6253 11.5 13.4998C11.5 13.4457 11.5128 13.381 11.5415 13.3121C11.5661 13.2531 11.5999 13.1971 11.6451 13.1433C11.7038 13.0929 11.7483 13.0662 11.7995 13.0465L11.7995 13.0466L11.8079 13.0432C11.999 12.9657 12.2204 13.0115 12.3518 13.1388C12.4468 13.2417 12.5 13.3782 12.5 13.4998C12.5 13.5164 12.4967 13.5467 12.4862 13.6206C12.4848 13.6274 12.4814 13.6391 12.4728 13.6562L12.4569 13.688L12.4457 13.7217C12.4415 13.7341 12.4327 13.7544 12.414 13.7825L12.4074 13.7924L12.4053 13.7959C12.403 13.7988 12.3992 13.8035 12.3928 13.811C12.3871 13.8176 12.3825 13.823 12.3765 13.8299C12.3726 13.8343 12.3683 13.8394 12.3628 13.8457C12.3581 13.8512 12.3528 13.8573 12.3472 13.8639C12.2461 13.9512 12.1162 13.9998 12 13.9998C11.9458 13.9998 11.8811 13.987 11.8123 13.9583Z" fill="#7B8697" stroke="#7B8697"/>
<path d="M8.31231 17.4583L8.31238 17.4581L8.29949 17.4531C8.22862 17.4259 8.17962 17.3923 8.14355 17.3562C8.10751 17.3202 8.07395 17.2712 8.04667 17.2003L8.04685 17.2002L8.04154 17.1875C8.01285 17.1186 8 17.0539 8 16.9998C8 16.9456 8.01285 16.8809 8.04154 16.8121L8.04172 16.8122L8.04667 16.7993C8.07395 16.7284 8.10751 16.6794 8.14355 16.6433C8.17962 16.6073 8.22862 16.5737 8.29949 16.5464L8.29956 16.5466L8.31231 16.5413C8.44239 16.4871 8.57577 16.4903 8.67167 16.5343L8.6859 16.5408L8.70051 16.5464C8.77138 16.5737 8.82038 16.6073 8.85645 16.6433C8.89249 16.6794 8.92605 16.7284 8.95333 16.7993L8.95315 16.7993L8.95846 16.8121C8.98715 16.8809 9 16.9456 9 16.9998C9 17.0539 8.98715 17.1186 8.95846 17.1875L8.95828 17.1874L8.95333 17.2003C8.92605 17.2712 8.89249 17.3202 8.85645 17.3562C8.82038 17.3923 8.77138 17.4259 8.70051 17.4531L8.70044 17.4529L8.68769 17.4583C8.61887 17.4869 8.55418 17.4998 8.5 17.4998C8.44582 17.4998 8.38113 17.4869 8.31231 17.4583Z" fill="#7B8697" stroke="#7B8697"/>
<path d="M20.5 9.33984H3.5C3.36614 9.33984 3.25 9.2237 3.25 9.08984C3.25 8.95599 3.36614 8.83984 3.5 8.83984H20.5C20.6339 8.83984 20.75 8.95599 20.75 9.08984C20.75 9.2237 20.6339 9.33984 20.5 9.33984Z" fill="#7B8697" stroke="#7B8697"/>
<path d="M18 23.75C16.83 23.75 15.72 23.33 14.87 22.56C14.51 22.26 14.19 21.88 13.93 21.44C13.49 20.72 13.25 19.87 13.25 19C13.25 16.38 15.38 14.25 18 14.25C19.36 14.25 20.66 14.84 21.56 15.86C22.33 16.74 22.75 17.85 22.75 19C22.75 19.87 22.51 20.72 22.06 21.45C21.22 22.87 19.66 23.75 18 23.75ZM18 15.75C16.21 15.75 14.75 17.21 14.75 19C14.75 19.59 14.91 20.17 15.22 20.67C15.39 20.97 15.61 21.22 15.85 21.43C16.45 21.97 17.2 22.25 18 22.25C19.15 22.25 20.19 21.66 20.78 20.68C21.09 20.17 21.25 19.6 21.25 19C21.25 18.22 20.96 17.46 20.44 16.85C19.82 16.15 18.93 15.75 18 15.75Z" fill="#7B8697"/>
<path d="M17.4299 20.74C17.2399 20.74 17.0499 20.67 16.8999 20.52L15.9099 19.53C15.6199 19.24 15.6199 18.7601 15.9099 18.4701C16.1999 18.1801 16.6799 18.1801 16.9699 18.4701L17.4499 18.9501L19.0499 17.4701C19.3499 17.1901 19.8299 17.2101 20.1099 17.5101C20.3899 17.8101 20.3699 18.2901 20.0699 18.5701L17.9399 20.5401C17.7899 20.6701 17.6099 20.74 17.4299 20.74Z" fill="#7B8697"/>
<path d="M15.37 22.75H8C4.35 22.75 2.25 20.65 2.25 17V8.5C2.25 4.85 4.35 2.75 8 2.75H16C19.65 2.75 21.75 4.85 21.75 8.5V16.36C21.75 16.67 21.56 16.95 21.26 17.06C20.97 17.17 20.64 17.09 20.43 16.85C19.81 16.15 18.92 15.75 17.99 15.75C16.2 15.75 14.74 17.21 14.74 19C14.74 19.59 14.9 20.17 15.21 20.67C15.38 20.97 15.6 21.22 15.84 21.43C16.08 21.63 16.17 21.96 16.06 22.26C15.97 22.55 15.69 22.75 15.37 22.75ZM8 4.25C5.14 4.25 3.75 5.64 3.75 8.5V17C3.75 19.86 5.14 21.25 8 21.25H13.82C13.45 20.57 13.25 19.8 13.25 19C13.25 16.38 15.38 14.25 18 14.25C18.79 14.25 19.57 14.45 20.25 14.82V8.5C20.25 5.64 18.86 4.25 16 4.25H8Z" fill="#7B8697"/>
</svg>
