<svg width="20" height="20" viewBox="0 0 20 20" fill="none" xmlns="http://www.w3.org/2000/svg">
<path d="M7.44531 15.8845H19.4141V2.94141H17.0605M5.29297 2.94141H2.93945V11.3786M7.64648 2.94141H14.707M2.93945 6.47168H19.4141" stroke="#525F72" stroke-miterlimit="10"/>
<path d="M17.0605 4.11523H14.707V1.76172L17.0605 1.76172V4.11523Z" stroke="#525F72" stroke-miterlimit="10"/>
<path d="M7.64648 4.11523H5.29297V1.76172L7.64648 1.76172V4.11523Z" stroke="#525F72" stroke-miterlimit="10"/>
<path d="M4.11621 18.2373C6.06593 18.2373 7.64648 16.6567 7.64648 14.707C7.64648 12.7573 6.06593 11.1768 4.11621 11.1768C2.16649 11.1768 0.585938 12.7573 0.585938 14.707C0.585938 16.6567 2.16649 18.2373 4.11621 18.2373Z" stroke="#525F72" stroke-miterlimit="10"/>
<path d="M9.41535 12.3535H10.5872M15.2991 10H17.6478M11.7689 10H14.1175M8.23859 10H10.5872M15.2991 12.3535H17.6478M11.7689 12.3535H14.1175M2.87109 15.9534L5.36391 13.4606M2.87109 13.4606L5.36391 15.9534" stroke="#525F72" stroke-miterlimit="10"/>
</svg>
