<svg width="32" height="32" viewBox="0 0 32 32" fill="none" xmlns="http://www.w3.org/2000/svg">
<g clip-path="url(#clip0_1971_210779)">
<path d="M30.538 24.8052H1.46194C0.913375 24.8052 0.46875 24.3605 0.46875 23.812V8.18655C0.46875 7.63805 0.913438 7.19336 1.46194 7.19336H30.538C31.0866 7.19336 31.5312 7.63805 31.5312 8.18655V23.812C31.5312 24.3606 31.0866 24.8052 30.538 24.8052Z" fill="#5EA570"/>
<path d="M30.5405 7.19336H29.2266C29.7751 7.19336 30.2197 7.63805 30.2197 8.18655V23.812C30.2197 24.3605 29.7751 24.8052 29.2266 24.8052H30.5405C31.089 24.8052 31.5337 24.3605 31.5337 23.812V8.18661C31.5337 7.63805 31.0891 7.19336 30.5405 7.19336Z" fill="#528E61"/>
<path d="M28.2152 19.7389V12.2609C27.2228 12.2609 26.4183 11.4563 26.4183 10.4639H5.57825C5.57825 11.4563 4.77369 12.2609 3.78125 12.2609V19.7389C4.77369 19.7389 5.57825 20.5435 5.57825 21.5359H26.4183C26.4183 20.5434 27.2228 19.7389 28.2152 19.7389Z" fill="#8BC852"/>
<path d="M26.4229 10.4639H24.8203C24.8203 11.0221 25.0749 11.5209 25.4742 11.8505C26.215 12.4618 26.6173 13.3924 26.6173 14.3529V17.6468C26.6173 18.6072 26.215 19.5379 25.4742 20.1492C25.0749 20.4787 24.8203 20.9776 24.8203 21.5358H26.4229C26.4229 20.5434 27.2275 19.7388 28.2199 19.7388V12.2609C27.2275 12.2609 26.4229 11.4563 26.4229 10.4639Z" fill="#7DBE3B"/>
<path d="M15.9964 23.0349C19.882 23.0349 23.0319 19.885 23.0319 15.9994C23.0319 12.1138 19.882 8.96387 15.9964 8.96387C12.1108 8.96387 8.96094 12.1138 8.96094 15.9994C8.96094 19.885 12.1108 23.0349 15.9964 23.0349Z" fill="#CBE7AF"/>
<path d="M16.0008 8.96387C15.7418 8.96387 15.4861 8.9783 15.2344 9.00555C18.7594 9.38755 21.5034 12.3728 21.5034 15.9994C21.5034 19.6259 18.7594 22.6112 15.2344 22.9932C15.4862 23.0205 15.7418 23.0349 16.0008 23.0349C19.8864 23.0349 23.0363 19.8849 23.0363 15.9994C23.0363 12.1138 19.8864 8.96387 16.0008 8.96387Z" fill="#AAD880"/>
<path d="M3.3125 19.7385C3.3125 19.9974 3.52231 20.2072 3.78125 20.2072C4.51369 20.2072 5.1095 20.8031 5.1095 21.5354C5.1095 21.7944 5.31931 22.0042 5.57825 22.0042H11.5044C12.7841 22.96 14.3569 23.5037 15.9982 23.5037C17.6832 23.5037 19.2402 22.9454 20.4941 22.0042H26.4183C26.6772 22.0042 26.887 21.7944 26.887 21.5354C26.887 20.8031 27.4828 20.2072 28.2152 20.2072C28.4741 20.2072 28.6839 19.9974 28.6839 19.7385V16.4853C28.6839 16.2264 28.4741 16.0166 28.2152 16.0166C27.9562 16.0166 27.7464 16.2264 27.7464 16.4853V19.3185C26.8726 19.5031 26.1828 20.1928 25.9982 21.0667H21.5283C22.7536 19.7306 23.5025 17.9509 23.5025 15.9994C23.5025 14.0479 22.7535 12.2683 21.5283 10.9322H25.9983C26.1829 11.8061 26.8726 12.4959 27.7465 12.6804V14.6111C27.7465 14.8699 27.9563 15.0798 28.2152 15.0798C28.4742 15.0798 28.684 14.8699 28.684 14.6111V12.2604C28.684 12.136 28.6346 12.0168 28.5467 11.9289C28.4588 11.841 28.3396 11.7916 28.2152 11.7916C27.4829 11.7916 26.8871 11.1958 26.8871 10.4634C26.8871 10.3391 26.8377 10.2199 26.7498 10.132C26.6619 10.0441 26.5426 9.99468 26.4183 9.99468H20.4942C19.2402 9.05343 17.6833 8.49512 15.9983 8.49512C14.3133 8.49512 12.7563 9.05343 11.5024 9.99468H5.57825C5.45393 9.99468 5.3347 10.0441 5.24679 10.132C5.15889 10.2199 5.1095 10.3391 5.1095 10.4634C5.1095 11.1958 4.51369 11.7916 3.78125 11.7916C3.65693 11.7916 3.5377 11.841 3.44979 11.9289C3.36189 12.0168 3.3125 12.136 3.3125 12.2604V19.7385ZM4.25 12.6804C5.12388 12.4959 5.81369 11.8061 5.99825 10.9322H10.4683C9.24294 12.2684 8.494 14.048 8.494 15.9995C8.494 16.6374 8.57438 17.2716 8.73294 17.8843C8.74836 17.9439 8.77537 17.9999 8.81242 18.049C8.84947 18.0982 8.89585 18.1396 8.94889 18.1708C9.00194 18.202 9.06062 18.2225 9.12158 18.2311C9.18254 18.2396 9.24459 18.2361 9.30419 18.2207C9.36378 18.2053 9.41976 18.1783 9.46892 18.1412C9.51807 18.1041 9.55945 18.0578 9.59069 18.0047C9.62192 17.9517 9.64241 17.893 9.65096 17.832C9.65952 17.7711 9.65599 17.709 9.64056 17.6494C9.50146 17.1105 9.43121 16.5561 9.4315 15.9995C9.4315 12.3786 12.3774 9.43274 15.9983 9.43274C19.6191 9.43274 22.565 12.3786 22.565 15.9995C22.565 19.6204 19.6192 22.5663 15.9983 22.5663C13.6611 22.5663 11.4814 21.3079 10.3097 19.2822C10.2469 19.1757 10.1446 19.0983 10.025 19.0669C9.90538 19.0355 9.77823 19.0526 9.6712 19.1145C9.56417 19.1764 9.48593 19.2781 9.45353 19.3974C9.42112 19.5167 9.43718 19.644 9.49819 19.7516C9.77183 20.224 10.0964 20.665 10.4662 21.0667H5.99825C5.81369 20.1929 5.12394 19.5031 4.25 19.3186V12.6804Z" fill="black"/>
<path d="M13.7903 19.4622C14.4496 19.8936 14.8964 20.0155 15.4846 20.0442V20.637C15.4846 20.8959 15.6944 21.1057 15.9533 21.1057C16.2123 21.1057 16.4221 20.8959 16.4221 20.637V20.0085C17.5694 19.7993 18.2394 18.8607 18.3868 17.9841C18.574 16.8703 17.9911 15.9017 16.9016 15.5167C16.741 15.4601 16.5812 15.4017 16.4221 15.3413V12.8437C16.8454 12.9315 17.0985 13.1477 17.1191 13.1659C17.211 13.2492 17.332 13.2927 17.4559 13.2869C17.5797 13.2812 17.6962 13.2266 17.7799 13.1351C17.8636 13.0436 17.9076 12.9227 17.9024 12.7988C17.8971 12.675 17.843 12.5582 17.7519 12.4742C17.7229 12.4474 17.2292 12.0032 16.4221 11.8934V11.3633C16.4221 11.1044 16.2123 10.8945 15.9533 10.8945C15.6944 10.8945 15.4846 11.1044 15.4846 11.3633V11.9295C15.3965 11.9478 15.3093 11.9699 15.2232 11.9958C14.5075 12.2114 13.9726 12.8243 13.8274 13.5955C13.6951 14.2973 13.919 14.9732 14.4116 15.3595C14.6814 15.5712 15.0189 15.7649 15.4846 15.9705V19.1063C15.0578 19.0812 14.7769 18.9873 14.3036 18.6777C14.1995 18.6096 14.0727 18.5856 13.951 18.6111C13.8293 18.6365 13.7227 18.7092 13.6546 18.8133C13.5866 18.9173 13.5626 19.0441 13.588 19.1658C13.6135 19.2875 13.6862 19.3941 13.7903 19.4622ZM14.9903 14.6217C14.7741 14.4522 14.6815 14.1255 14.7487 13.769C14.8111 13.4375 15.0374 13.0358 15.4846 12.8965V14.9315C15.2971 14.8333 15.1284 14.73 14.9903 14.6217ZM16.5891 16.4005C17.5641 16.7451 17.5039 17.5807 17.4622 17.8287C17.3787 18.3255 17.0249 18.8547 16.4221 19.0428V16.3407C16.4768 16.3605 16.5319 16.3803 16.5891 16.4005Z" fill="black"/>
<path d="M30.5381 6.72461H4.72013C4.46119 6.72461 4.25138 6.93448 4.25138 7.19336C4.25138 7.45223 4.46119 7.66211 4.72013 7.66211H30.5381C30.8273 7.66211 31.0625 7.89742 31.0625 8.18661V23.8121C31.0625 24.1013 30.8273 24.3366 30.5381 24.3366H1.462C1.17281 24.3366 0.9375 24.1013 0.9375 23.8121V8.18661C0.9375 7.89742 1.17281 7.66211 1.462 7.66211H2.846C3.10494 7.66211 3.31475 7.45223 3.31475 7.19336C3.31475 6.93448 3.10494 6.72461 2.846 6.72461H1.462C0.655813 6.72461 0 7.38048 0 8.18661V23.8121C0 24.6182 0.655813 25.2741 1.462 25.2741H30.5381C31.3442 25.2741 32.0001 24.6183 32.0001 23.8121V8.18661C32 7.38048 31.3442 6.72461 30.5381 6.72461Z" fill="black"/>
</g>
<defs>
<clipPath id="clip0_1971_210779">
<rect width="32" height="32" fill="white"/>
</clipPath>
</defs>
</svg>
