<svg width="33" height="32" viewBox="0 0 33 32" fill="none" xmlns="http://www.w3.org/2000/svg">
<g clip-path="url(#clip0_1971_211442)">
<path d="M21.0298 17.4365C19.7151 17.8525 18.0202 18.1607 15.8755 18.1607C13.7366 18.1607 12.0452 17.8543 10.7318 17.44C5.93196 22.8007 10.8348 28.0693 12.3742 29.4977C12.5508 29.6615 12.4973 29.9388 12.273 30.038C11.7133 30.2857 11.5185 30.6794 11.4663 31.0203C11.4123 31.3743 11.7137 31.6883 12.0938 31.6883H14.3508C15.3016 31.6883 15.7302 31.1005 15.8452 30.2316H15.8948C16.0098 31.1005 16.4385 31.6883 17.3892 31.6883H19.6707C20.0508 31.6883 20.3522 31.3742 20.2982 31.0203C20.2462 30.6794 20.0513 30.2857 19.4917 30.038C19.2672 29.9388 19.2138 29.6615 19.3905 29.4977C20.9302 28.0689 25.835 22.7984 21.0298 17.4365Z" fill="#F9BD55"/>
<path d="M15.9985 21.1875H15.7411C14.7536 21.1875 13.9531 21.988 13.9531 22.9755V23.0037C13.9531 23.0037 15.7335 26.8184 15.8698 29.391C16.006 26.8183 17.7864 23.0037 17.7864 23.0037C17.8021 22.0054 16.9971 21.1875 15.9985 21.1875ZM15.8698 29.391C15.8587 29.585 15.8587 29.7794 15.8698 29.9734C15.8808 29.7794 15.8808 29.585 15.8698 29.391Z" fill="#F4DBCE"/>
<path d="M24.5387 11.718C25.3943 11.718 26.3568 10.9269 26.3568 10.9269C25.0784 10.7136 24.8155 9.47127 24.1309 7.87565C26.9458 6.4694 26.2322 2.14665 25.8449 0.508524C25.7948 0.296274 25.5212 0.242274 25.3903 0.416649C25.0529 0.865899 24.3348 1.4829 22.8367 1.82865C21.3897 2.16252 20.5759 2.90752 20.1427 3.48852C18.107 2.66902 15.8758 2.78977 15.8758 2.78977C15.8758 2.78977 13.6444 2.66902 11.6089 3.48852C11.1754 2.90752 10.3617 2.16252 8.91466 1.82865C7.41653 1.4829 6.69841 0.865899 6.36103 0.416649C6.23003 0.242274 5.95653 0.296399 5.90641 0.508524C5.51916 2.14652 4.80553 6.4694 7.62041 7.87565C6.93578 9.47115 6.67291 10.7135 5.39453 10.9269C5.39453 10.9269 6.35703 11.718 7.21266 11.718C7.21266 11.718 6.78491 12.7352 5.60841 12.9612C5.60841 12.9612 6.25016 14.0913 8.28216 14.0913C8.28216 14.0913 7.64041 14.9954 6.89178 15.2214C6.89178 15.2214 9.24466 18.1598 15.8757 18.1598C22.5067 18.1598 24.8595 15.2214 24.8595 15.2214C24.1109 14.9954 23.4692 14.0913 23.4692 14.0913C25.5012 14.0913 26.1429 12.9612 26.1429 12.9612C24.9664 12.7352 24.5387 11.718 24.5387 11.718Z" fill="#F9BD55"/>
<path d="M15.9387 12.6895C15.9387 12.6895 15.9348 13.9676 14.457 14.0751C14.5884 15.3278 15.2013 16.2762 15.9387 16.2762C16.676 16.2762 17.2889 15.3278 17.4203 14.0751C15.9425 13.9676 15.9387 12.6895 15.9387 12.6895Z" fill="#52565B"/>
<path d="M14.9531 15.6155C15.2175 16.0269 15.5621 16.277 15.9399 16.277C16.3178 16.277 16.6623 16.0269 16.9266 15.6155C16.6624 15.2035 16.3179 14.9531 15.9399 14.9531C15.5619 14.953 15.2174 15.2035 14.9531 15.6155Z" fill="#FD605B"/>
<path d="M22.3162 29.8813C23.4956 29.2618 27.3267 26.8396 23.0091 23.3643C22.5614 26.2811 20.3385 28.6173 19.3905 29.4969C19.2139 29.6608 19.2672 29.938 19.4917 30.0373C20.0514 30.2849 20.2462 30.6786 20.2982 31.0195C20.3522 31.3735 20.0509 31.6875 19.6707 31.6875H22.1766C22.5617 31.6875 22.8602 31.3659 22.8022 31.0076C22.7585 30.7375 22.6241 30.4358 22.2897 30.2006C22.1726 30.1184 22.1885 29.9484 22.3162 29.8813Z" fill="#F9BD55"/>
<path d="M27.1518 17.859C26.2758 17.7344 25.4756 18.3876 25.4349 19.2715C25.3316 21.5095 24.6809 23.0805 23.8906 24.1746C24.4162 24.737 24.7311 25.2671 24.8875 25.7613C26.9333 23.9635 27.9319 21.4123 28.3919 19.7529C28.6349 18.8766 28.052 17.9871 27.1518 17.859Z" fill="#F9BD55"/>
<path d="M25.8442 0.50893C25.8409 0.49518 25.8344 0.484055 25.8294 0.471805C25.5573 1.02318 24.5407 2.87243 22.9091 3.4163C20.9839 4.05805 22.0534 5.4483 22.0534 5.4483L21.5187 5.76918C21.5187 5.76918 21.8396 7.26643 23.1229 7.26643L24.2141 7.82955C26.9282 6.3788 26.2274 2.13005 25.8442 0.50893ZM8.84081 3.41618C7.20918 2.8723 6.19256 1.02305 5.92043 0.47168C5.91543 0.484055 5.90893 0.49518 5.90568 0.508805C5.52243 2.12993 4.82168 6.37868 7.53581 7.82955L8.62693 7.26643C9.91031 7.26643 10.2312 5.76918 10.2312 5.76918L9.69643 5.4483C9.69643 5.4483 10.7659 4.05793 8.84081 3.41618Z" fill="#F98080"/>
<path d="M17.0083 11.3737C17.0083 11.8945 16.4605 12.6309 15.9397 12.6309C15.419 12.6309 14.8711 11.8945 14.8711 11.3737C14.8711 10.853 15.419 11.248 15.9397 11.248C16.4605 11.248 17.0083 10.853 17.0083 11.3737Z" fill="#52565B"/>
<path d="M15.8751 21.9337C16.6388 21.9337 17.2579 21.3146 17.2579 20.5508C17.2579 19.7871 16.6388 19.168 15.8751 19.168C15.1113 19.168 14.4922 19.7871 14.4922 20.5508C14.4922 21.3146 15.1113 21.9337 15.8751 21.9337Z" fill="#F9E63A"/>
<path d="M15.8743 18.1603C14.0053 18.1603 12.478 17.9263 11.2461 17.591C11.5951 18.5547 13.0837 19.3157 14.9772 19.5015C15.219 19.2942 15.5326 19.1682 15.876 19.1682C16.2193 19.1682 16.533 19.2942 16.7747 19.5015C18.669 19.3156 20.158 18.5541 20.5062 17.5898C19.2737 17.9258 17.7453 18.1603 15.8743 18.1603Z" fill="#039BE6"/>
<path d="M9.44547 29.8813C8.2661 29.2618 4.43497 26.8396 8.7526 23.3643C9.20035 26.2811 11.4232 28.6173 12.3712 29.4969C12.5478 29.6608 12.4945 29.938 12.27 30.0373C11.7103 30.2849 11.5155 30.6786 11.4635 31.0195C11.4095 31.3735 11.7108 31.6875 12.091 31.6875H9.5851C9.19997 31.6875 8.90147 31.3659 8.95947 31.0076C9.00322 30.7375 9.1376 30.4358 9.47197 30.2006C9.5891 30.1184 9.57322 29.9484 9.44547 29.8813Z" fill="#F9BD55"/>
<path d="M22.1737 32.0002H19.6678C19.5849 32.0002 19.5054 31.9673 19.4468 31.9087C19.3882 31.8501 19.3553 31.7706 19.3553 31.6877C19.3553 31.6048 19.3882 31.5254 19.4468 31.4667C19.5054 31.4081 19.5849 31.3752 19.6678 31.3752C19.7702 31.3752 19.8645 31.3336 19.9268 31.2611C19.9613 31.2208 19.9997 31.1545 19.9864 31.0667C19.9349 30.7293 19.7308 30.4861 19.3623 30.3231C19.1577 30.2326 19.0142 30.0506 18.9783 29.8362C18.9613 29.7326 18.9703 29.6264 19.0047 29.5271C19.039 29.4279 19.0975 29.3388 19.1749 29.2678C20.0895 28.4191 22.2637 26.1403 22.6972 23.3168C22.7055 23.2626 22.728 23.2115 22.7624 23.1688C22.7968 23.126 22.8418 23.093 22.893 23.0731C22.9441 23.0533 22.9996 23.0472 23.0538 23.0556C23.1081 23.064 23.1591 23.0865 23.2019 23.1208C24.7184 24.3415 25.427 25.5788 25.3084 26.7985C25.1469 28.4577 23.4889 29.5875 22.6227 30.0691C22.8826 30.3 23.0541 30.6142 23.1078 30.9577C23.1487 31.21 23.0754 31.4681 22.9069 31.6662C22.7262 31.8785 22.4589 32.0002 22.1737 32.0002ZM20.5683 31.3752H22.1735C22.2753 31.3752 22.369 31.3337 22.4308 31.2612C22.4599 31.2271 22.5064 31.155 22.4907 31.0577C22.4499 30.8061 22.3244 30.6095 22.1068 30.4563C22.0369 30.4079 21.9807 30.3421 21.9438 30.2655C21.9068 30.1889 21.8903 30.104 21.8958 30.0191C21.9072 29.843 22.0088 29.6881 22.1677 29.6046C22.8773 29.2318 24.5433 28.2062 24.6862 26.738C24.7729 25.8466 24.2774 24.9101 23.212 23.9496C22.5809 26.7131 20.5045 28.8865 19.5999 29.726C19.5943 29.7343 19.5972 29.7437 19.615 29.7516C20.3265 30.0663 20.5457 30.5892 20.604 30.9725C20.6246 31.1076 20.6124 31.2458 20.5683 31.3752ZM22.4584 30.1581C22.4585 30.158 22.4585 30.158 22.4584 30.1581V30.1581ZM12.0909 32.0002H9.58504C9.29966 32.0002 9.03254 31.8785 8.85191 31.6665C8.68341 31.4685 8.61016 31.2102 8.65104 30.958C8.70463 30.6144 8.87615 30.3002 9.13616 30.0693C8.26979 29.5877 6.61179 28.458 6.45029 26.7987C6.33154 25.579 7.04029 24.3416 8.55679 23.121C8.59956 23.0866 8.65063 23.064 8.70488 23.0556C8.75912 23.0472 8.81462 23.0533 8.86579 23.0731C8.91695 23.093 8.96199 23.126 8.99635 23.1688C9.03071 23.2116 9.0532 23.2627 9.06154 23.317C9.49504 26.1405 11.6692 28.4192 12.5839 29.268C12.742 29.4147 12.8155 29.6272 12.7805 29.8363C12.7447 30.0507 12.601 30.2327 12.3965 30.3232C12.0282 30.4862 11.824 30.7295 11.7725 31.0668C11.7592 31.1546 11.7975 31.2208 11.832 31.2611C11.8943 31.3337 11.9888 31.3752 12.0912 31.3752C12.174 31.3753 12.2535 31.4082 12.3121 31.4668C12.3707 31.5255 12.4036 31.605 12.4035 31.6878C12.4035 31.7707 12.3705 31.8502 12.3119 31.9088C12.2533 31.9674 12.1738 32.0003 12.0909 32.0002ZM8.54641 23.9497C7.48104 24.9103 6.98541 25.8467 7.07229 26.7382C7.21529 28.2065 8.88116 29.232 9.59079 29.6047C9.66802 29.6444 9.73364 29.7035 9.78129 29.7761C9.82893 29.8487 9.85696 29.9324 9.86266 30.0191C9.86823 30.104 9.85172 30.1889 9.81475 30.2656C9.77777 30.3422 9.72159 30.408 9.65166 30.4565C9.43404 30.6095 9.30854 30.8061 9.26779 31.0578C9.25204 31.1551 9.29866 31.2271 9.32766 31.2613C9.38929 31.3338 9.48304 31.3753 9.58491 31.3753H11.1902C11.1462 31.2459 11.1339 31.1078 11.1544 30.9726C11.2128 30.5895 11.4319 30.0665 12.1434 29.7517C12.1613 29.7438 12.1642 29.7346 12.1639 29.7325C11.2543 28.8871 9.17766 26.7133 8.54641 23.9497ZM17.3862 32.0002C16.7204 32.0002 16.224 31.7506 15.9105 31.2583C15.3404 30.3631 15.4419 28.6672 16.2122 26.2176C16.7704 24.4421 17.4932 22.8872 17.5004 22.8717C17.5178 22.8345 17.5423 22.8011 17.5725 22.7734C17.6028 22.7457 17.6382 22.7242 17.6768 22.7102C17.7153 22.6962 17.7563 22.6899 17.7973 22.6917C17.8382 22.6935 17.8785 22.7034 17.9157 22.7207C17.9528 22.7381 17.9862 22.7626 18.014 22.7928C18.0417 22.8231 18.0631 22.8585 18.0772 22.8971C18.0912 22.9356 18.0975 22.9766 18.0957 23.0176C18.0939 23.0586 18.084 23.0988 18.0667 23.136C17.2918 24.7966 15.4885 29.4325 16.4377 30.9226C16.6317 31.2271 16.9418 31.3751 17.386 31.3751C17.4271 31.3751 17.4677 31.3832 17.5057 31.3989C17.5436 31.4146 17.578 31.4376 17.6071 31.4666C17.6361 31.4956 17.6591 31.5301 17.6748 31.568C17.6906 31.6059 17.6987 31.6465 17.6987 31.6876C17.6987 31.7286 17.6906 31.7693 17.6749 31.8072C17.6592 31.8451 17.6362 31.8796 17.6072 31.9086C17.5781 31.9377 17.5437 31.9607 17.5058 31.9764C17.4679 31.9921 17.4272 32.0002 17.3862 32.0002Z" fill="black"/>
<path d="M14.3509 32.0004C14.268 32.0004 14.1885 31.9674 14.1299 31.9088C14.0713 31.8502 14.0384 31.7707 14.0384 31.6879C14.0384 31.605 14.0713 31.5255 14.1299 31.4669C14.1885 31.4083 14.268 31.3754 14.3509 31.3754C14.7951 31.3754 15.1054 31.2274 15.2993 30.9229C16.2483 29.4327 14.4451 24.7967 13.6703 23.1362C13.6372 23.0614 13.6347 22.9766 13.6634 22.9001C13.6922 22.8235 13.7498 22.7612 13.8239 22.7266C13.898 22.692 13.9827 22.6879 14.0599 22.7151C14.137 22.7422 14.2004 22.7986 14.2365 22.872C14.2438 22.8875 14.9665 24.4424 15.5248 26.2179C16.295 28.6674 16.3965 30.3634 15.8264 31.2586C15.513 31.7507 15.0165 32.0004 14.3509 32.0004ZM24.888 26.0742C24.8216 26.0742 24.7569 26.0531 24.7034 26.0138C24.6498 25.9746 24.6102 25.9193 24.5901 25.856C24.4391 25.3789 24.1271 24.8851 23.663 24.3885C23.6135 24.3356 23.584 24.2671 23.5794 24.1948C23.5748 24.1225 23.5955 24.0509 23.6379 23.9921C24.536 22.7487 25.0358 21.1557 25.1233 19.2575C25.1353 19.0063 25.1996 18.7604 25.312 18.5355C25.4245 18.3105 25.5826 18.1115 25.7763 17.9511C25.9721 17.7893 26.1996 17.6701 26.4441 17.601C26.6886 17.532 26.9448 17.5146 27.1964 17.5501C27.4525 17.5865 27.698 17.677 27.9163 17.8157C28.1347 17.9545 28.3209 18.1382 28.4627 18.3546C28.6044 18.5711 28.6983 18.8153 28.7382 19.0709C28.778 19.3265 28.7629 19.5877 28.6938 19.837C28.1926 21.6444 27.1614 24.1802 25.0945 25.9966C25.0373 26.0466 24.964 26.0742 24.888 26.0742ZM24.2893 24.1504C24.5976 24.5067 24.8386 24.8659 25.0096 25.2237C26.7444 23.536 27.6405 21.2961 28.0914 19.6699C28.1368 19.5062 28.1467 19.3348 28.1206 19.167C28.0944 18.9992 28.0327 18.8389 27.9397 18.6968C27.8467 18.5547 27.7244 18.4342 27.581 18.3431C27.4377 18.2521 27.2765 18.1927 27.1084 18.1689C26.943 18.1456 26.7746 18.1571 26.6139 18.2025C26.4532 18.2479 26.3037 18.3262 26.1749 18.4325C25.9149 18.6479 25.7631 18.9511 25.7478 19.2864C25.659 21.2054 25.1686 22.8401 24.2893 24.1504ZM15.8754 18.4727C9.17139 18.4727 6.74751 15.5419 6.64764 15.4171C6.61572 15.3772 6.59407 15.3301 6.58458 15.2799C6.57509 15.2297 6.57806 15.1779 6.59322 15.1291C6.60838 15.0804 6.63528 15.036 6.67155 15C6.70781 14.9641 6.75235 14.9375 6.80126 14.9227C7.11076 14.8292 7.40839 14.5885 7.63276 14.3652C5.94651 14.1549 5.36301 13.1629 5.33639 13.1159C5.31183 13.0727 5.29792 13.0243 5.29581 12.9747C5.2937 12.9251 5.30345 12.8757 5.32425 12.8306C5.34505 12.7855 5.3763 12.746 5.41541 12.7154C5.45452 12.6848 5.50036 12.664 5.54914 12.6546C6.12026 12.5449 6.48539 12.2207 6.69501 11.9595C5.92064 11.7581 5.23101 11.1974 5.19589 11.1686C5.14961 11.1305 5.11527 11.0798 5.09696 11.0227C5.07865 10.9656 5.07715 10.9045 5.09263 10.8465C5.10811 10.7886 5.13992 10.7363 5.18426 10.696C5.22861 10.6556 5.28363 10.6288 5.34276 10.6189C6.19801 10.4761 6.50626 9.79898 7.02051 8.51411C7.08551 8.35173 7.15201 8.18561 7.22276 8.01436C6.06526 7.32098 5.40226 6.07511 5.25089 4.30598C5.12064 2.78286 5.41489 1.22823 5.60201 0.436984C5.62618 0.331922 5.68007 0.236033 5.75724 0.160762C5.83442 0.0854906 5.93163 0.0340167 6.03726 0.0124838C6.14357 -0.0102157 6.25416 -0.00183659 6.35583 0.0366205C6.45751 0.0750777 6.54596 0.141987 6.61064 0.229359C6.92039 0.641609 7.58364 1.20111 8.98464 1.52436C10.3776 1.84586 11.222 2.53248 11.7105 3.11436C13.6508 2.39673 15.6554 2.46686 15.8754 2.47711C16.0958 2.46673 18.1003 2.39686 20.0403 3.11436C20.5288 2.53248 21.3731 1.84586 22.7661 1.52436C24.1671 1.20111 24.8305 0.641609 25.1401 0.229234C25.2049 0.141956 25.2934 0.0751253 25.395 0.0366978C25.4967 -0.0017296 25.6072 -0.0101345 25.7135 0.0124838C25.8191 0.0340167 25.9163 0.0854906 25.9935 0.160762C26.0707 0.236033 26.1246 0.331922 26.1488 0.436984C26.3358 1.22823 26.6301 2.78286 26.4999 4.30598C26.3485 6.07511 25.6855 7.32098 24.528 8.01436C24.5988 8.18561 24.6653 8.35173 24.7303 8.51411C25.2445 9.79898 25.5528 10.4762 26.408 10.6189C26.4673 10.6286 26.5224 10.6553 26.5669 10.6957C26.6114 10.736 26.6433 10.7883 26.6588 10.8463C26.6743 10.9044 26.6728 10.9656 26.6543 11.0228C26.6359 11.0799 26.6014 11.1306 26.5549 11.1686C26.5198 11.1974 25.8301 11.7581 25.0558 11.9595C25.2654 12.2207 25.6304 12.5449 26.2015 12.6546C26.2502 12.664 26.296 12.6849 26.3351 12.7155C26.3742 12.7461 26.4054 12.7856 26.4262 12.8307C26.4469 12.8758 26.4567 12.9251 26.4546 12.9747C26.4526 13.0243 26.4387 13.0727 26.4143 13.1159C26.3876 13.1629 25.8041 14.1549 24.1179 14.3652C24.3423 14.5885 24.6399 14.8292 24.9494 14.9227C24.9983 14.9375 25.0428 14.9641 25.0791 15C25.1154 15.036 25.1423 15.0804 25.1574 15.1291C25.1726 15.1779 25.1756 15.2297 25.1661 15.2799C25.1566 15.3301 25.1349 15.3772 25.103 15.4171C25.0031 15.542 22.5793 18.4727 15.8754 18.4727ZM7.42826 15.3191C8.22964 16.0411 10.7481 17.8477 15.8754 17.8477C21.0256 17.8477 23.5289 16.0429 24.3243 15.3202C23.698 14.9474 23.2375 14.3056 23.214 14.2725C23.1807 14.2258 23.161 14.1708 23.1569 14.1135C23.1528 14.0563 23.1646 13.9991 23.1909 13.9481C23.2172 13.8971 23.2571 13.8544 23.3061 13.8246C23.3551 13.7948 23.4114 13.779 23.4688 13.7791C24.6086 13.7791 25.2583 13.4057 25.588 13.1209C24.634 12.7271 24.2676 11.8807 24.2501 11.8395C24.2301 11.792 24.2221 11.7402 24.227 11.6889C24.2318 11.6376 24.2492 11.5882 24.2778 11.5453C24.3063 11.5023 24.345 11.4671 24.3905 11.4427C24.4359 11.4184 24.4867 11.4057 24.5383 11.4057C24.922 11.4057 25.3465 11.2095 25.6646 11.022C24.8953 10.609 24.5443 9.73173 24.1498 8.74636C24.0507 8.49604 23.9486 8.24698 23.8433 7.99923C23.8118 7.92596 23.8096 7.84343 23.837 7.76856C23.8644 7.69369 23.9194 7.63213 23.9908 7.59648C26.5226 6.33161 25.9643 2.43848 25.5673 0.696859C25.17 1.18036 24.3948 1.79011 22.9064 2.13348C21.545 2.44761 20.788 3.14548 20.3926 3.67561C20.3514 3.73093 20.293 3.77105 20.2266 3.78971C20.1601 3.80836 20.0894 3.8045 20.0254 3.77873C18.0814 2.99611 15.9136 3.10098 15.8919 3.10211C15.8809 3.10261 15.8694 3.10261 15.8584 3.10211C15.837 3.10098 13.6686 2.99611 11.7249 3.77873C11.6609 3.8045 11.5901 3.80836 11.5237 3.78971C11.4573 3.77105 11.3989 3.73093 11.3576 3.67561C10.9623 3.14548 10.2053 2.44761 8.84388 2.13348C7.35538 1.78998 6.58014 1.18036 6.18301 0.696859C5.78601 2.43861 5.22764 6.33173 7.75951 7.59648C7.83086 7.6321 7.88588 7.69366 7.91331 7.76854C7.94073 7.84342 7.93848 7.92596 7.90701 7.99923C7.80172 8.24698 7.69954 8.49604 7.60051 8.74636C7.20614 9.73173 6.85514 10.609 6.08564 11.022C6.40376 11.2095 6.82826 11.4057 7.21214 11.4057C7.26368 11.4057 7.31441 11.4185 7.35983 11.4429C7.40525 11.4672 7.44394 11.5024 7.47246 11.5454C7.50098 11.5883 7.51844 11.6376 7.52329 11.6889C7.52814 11.7403 7.52023 11.792 7.50026 11.8395C7.48289 11.8809 7.11639 12.7274 6.16214 13.121C6.49126 13.4052 7.14114 13.7791 8.28176 13.7791C8.33909 13.7791 8.39531 13.7949 8.44427 13.8247C8.49323 13.8546 8.53304 13.8973 8.55935 13.9482C8.58565 13.9992 8.59743 14.0564 8.5934 14.1136C8.58938 14.1708 8.56969 14.2257 8.53651 14.2725C8.51326 14.3055 8.05364 14.9461 7.42826 15.3191Z" fill="black"/>
<path d="M24.2135 8.14195C24.1438 8.14204 24.0761 8.11881 24.0211 8.07597C23.9661 8.03313 23.927 7.97314 23.91 7.90554C23.8931 7.83793 23.8992 7.76659 23.9274 7.70286C23.9557 7.63914 24.0044 7.58668 24.0659 7.55383C25.1361 6.9817 25.7459 5.85595 25.8784 4.20783C25.9614 3.17508 25.8381 2.12383 25.6971 1.34045C25.1828 2.1547 24.2721 3.29095 23.0071 3.71245C22.4921 3.8842 22.186 4.11858 22.0971 4.4092C21.9728 4.81583 22.297 5.2532 22.3003 5.25758C22.3271 5.29253 22.3462 5.33275 22.3564 5.37561C22.3666 5.41846 22.3676 5.46299 22.3594 5.50627C22.3512 5.54955 22.334 5.59062 22.3088 5.62677C22.2836 5.66293 22.2511 5.69336 22.2134 5.71608L21.8861 5.91245C22.0138 6.2692 22.3584 6.95383 23.1221 6.95383C23.205 6.95383 23.2845 6.98675 23.3431 7.04536C23.4017 7.10396 23.4346 7.18345 23.4346 7.26633C23.4346 7.34921 23.4017 7.4287 23.3431 7.4873C23.2845 7.54591 23.205 7.57883 23.1221 7.57883C21.9071 7.57883 21.3416 6.43783 21.2124 5.83445C21.1987 5.77071 21.2053 5.70429 21.2313 5.64449C21.2572 5.58469 21.3012 5.5345 21.3571 5.50095L21.6264 5.33945C21.4974 5.0727 21.3673 4.65908 21.4995 4.22658C21.6509 3.73133 22.0916 3.35895 22.8095 3.1197C24.3243 2.61483 25.2889 0.859329 25.5485 0.333329C25.5754 0.279518 25.6172 0.234539 25.6689 0.203707C25.7206 0.172874 25.78 0.157475 25.8401 0.159329C25.9003 0.161539 25.9586 0.181094 26.008 0.215643C26.0574 0.250192 26.0957 0.298265 26.1184 0.354079C26.1245 0.367204 26.1384 0.397329 26.1476 0.436829C26.3319 1.21595 26.6228 2.74833 26.5015 4.25795C26.351 6.13183 25.6308 7.4262 24.3608 8.10495C24.3136 8.13008 24.2633 8.14195 24.2135 8.14195ZM19.6694 32.0001H17.3879C16.8606 32.0001 16.2378 31.8387 15.8688 31.189C15.4996 31.8388 14.8769 32.0001 14.3496 32.0001H12.0926C11.8079 32.0001 11.5406 31.8791 11.3595 31.6682C11.1925 31.4738 11.1184 31.2202 11.1563 30.9725C11.2148 30.5892 11.4338 30.0663 12.1454 29.7516C12.1631 29.7437 12.166 29.7345 12.1658 29.7323C11.2904 28.9187 9.70763 27.2382 8.88213 25.0532C7.82125 22.2448 8.36475 19.6131 10.4978 17.231C10.5378 17.1861 10.5899 17.1538 10.6479 17.1379C10.7059 17.122 10.7672 17.1232 10.8245 17.1413C12.31 17.61 14.009 17.8475 15.8741 17.8475C17.7438 17.8475 19.4461 17.6087 20.9341 17.138C20.9914 17.1198 21.0528 17.1185 21.1108 17.1344C21.1688 17.1502 21.221 17.1825 21.2611 17.2273C23.3964 19.61 23.9411 22.2425 22.8804 25.0517C22.055 27.2375 20.4718 28.9185 19.6015 29.726C19.596 29.7343 19.5989 29.7437 19.6168 29.7516C20.3283 30.0663 20.5473 30.5892 20.6058 30.9725C20.6436 31.2202 20.5695 31.4738 20.4025 31.6682C20.2214 31.8791 19.9543 32.0001 19.6694 32.0001ZM15.8439 29.9185H15.8935C16.0503 29.9185 16.1828 30.0346 16.2034 30.19C16.3119 31.0096 16.6773 31.3751 17.388 31.3751H19.6695C19.7719 31.3751 19.8663 31.3335 19.9285 31.261C19.963 31.2207 20.0014 31.1543 19.9881 31.0666C19.9366 30.7292 19.7325 30.486 19.364 30.323C19.1594 30.2325 19.0159 30.0505 18.98 29.8361C18.945 29.627 19.0185 29.4145 19.1765 29.2677C20.7031 27.8512 25.3009 22.8701 20.9273 17.7938C19.4256 18.2442 17.7269 18.4723 15.8741 18.4723C14.0259 18.4723 12.3309 18.2453 10.832 17.7972C6.46325 22.8723 11.0594 27.8517 12.5855 29.2677C12.7436 29.4145 12.8171 29.627 12.7821 29.8361C12.7463 30.0505 12.6028 30.2323 12.3983 30.323C12.0298 30.486 11.8256 30.7292 11.7741 31.0666C11.7608 31.1543 11.7991 31.2207 11.8338 31.261C11.896 31.3335 11.9904 31.3751 12.0928 31.3751H14.3498C15.0605 31.3751 15.4259 31.0096 15.5343 30.19C15.5441 30.1148 15.581 30.0459 15.638 29.9959C15.6949 29.946 15.7681 29.9184 15.8439 29.9185Z" fill="black"/>
<path d="M15.8751 22.2462C14.9402 22.2462 14.1797 21.4857 14.1797 20.5508C14.1797 19.616 14.9402 18.8555 15.8751 18.8555C16.8099 18.8555 17.5704 19.616 17.5704 20.5508C17.5704 21.4857 16.8099 22.2462 15.8751 22.2462ZM15.8751 19.4805C15.2848 19.4805 14.8047 19.9606 14.8047 20.5508C14.8047 21.1411 15.2848 21.6212 15.8751 21.6212C16.4653 21.6212 16.9454 21.1411 16.9454 20.5508C16.9454 19.9606 16.4653 19.4805 15.8751 19.4805Z" fill="black"/>
<path d="M16.7749 19.8139C16.7003 19.8139 16.6282 19.7872 16.5715 19.7387C16.3774 19.5723 16.1305 19.4808 15.8762 19.4808C15.6218 19.4808 15.3748 19.5724 15.1807 19.7388C15.1486 19.7662 15.1114 19.7868 15.0712 19.7994C15.031 19.8121 14.9887 19.8166 14.9468 19.8126C12.9134 19.6131 11.3454 18.7828 10.9523 17.6974C10.9328 17.6436 10.9284 17.5855 10.9397 17.5294C10.951 17.4733 10.9775 17.4213 11.0163 17.3792C11.055 17.3371 11.1046 17.3065 11.1596 17.2907C11.2146 17.2748 11.2729 17.2744 11.3282 17.2894C12.6892 17.6599 14.2187 17.8479 15.8744 17.8479C17.5314 17.8479 19.0622 17.6597 20.4242 17.2883C20.4794 17.2733 20.5376 17.2737 20.5926 17.2895C20.6476 17.3053 20.6972 17.3359 20.736 17.378C20.7748 17.4201 20.8013 17.472 20.8126 17.528C20.824 17.5841 20.8197 17.6422 20.8003 17.6961C20.4079 18.7821 18.8398 19.6128 16.8054 19.8126C16.7953 19.8134 16.7851 19.8139 16.7749 19.8139ZM11.9754 18.0886C12.5684 18.6231 13.6395 19.0361 14.8842 19.1773C15.1728 18.9685 15.5199 18.8559 15.8762 18.8557C16.2329 18.8557 16.58 18.9691 16.8682 19.1773C18.1137 19.0359 19.1854 18.6226 19.778 18.0876C18.5763 18.3434 17.2672 18.4729 15.8744 18.4729C14.4834 18.4728 13.1758 18.3438 11.9754 18.0886ZM15.876 22.2464C14.9412 22.2464 14.1807 21.4859 14.1807 20.5511C14.1807 20.4682 14.2136 20.3887 14.2722 20.3301C14.3308 20.2715 14.4103 20.2386 14.4932 20.2386H17.2589C17.3418 20.2386 17.4213 20.2715 17.4799 20.3301C17.5385 20.3887 17.5714 20.4682 17.5714 20.5511C17.5714 21.4859 16.8109 22.2464 15.876 22.2464ZM14.8522 20.8636C14.9862 21.3018 15.3945 21.6214 15.876 21.6214C16.3575 21.6214 16.7659 21.3018 16.8999 20.8636H14.8522Z" fill="black"/>
<path d="M15.861 21.2405C15.7781 21.2405 15.6986 21.2076 15.64 21.149C15.5814 21.0904 15.5485 21.0109 15.5485 20.928V20.5509C15.5485 20.468 15.5814 20.3885 15.64 20.3299C15.6986 20.2713 15.7781 20.2384 15.861 20.2384C15.9438 20.2384 16.0233 20.2713 16.0819 20.3299C16.1405 20.3885 16.1735 20.468 16.1735 20.5509V20.928C16.1735 21.0109 16.1405 21.0904 16.0819 21.149C16.0233 21.2076 15.9438 21.2405 15.861 21.2405ZM15.9397 12.9433C15.2283 12.9433 14.5586 12.059 14.5586 11.3736C14.5586 11.1615 14.6253 11.0018 14.7568 10.8989C14.9733 10.7293 15.245 10.7968 15.5077 10.8619C15.6537 10.8981 15.8047 10.9355 15.9397 10.9355C16.0747 10.9355 16.2257 10.8981 16.3717 10.8619C16.6343 10.7968 16.906 10.7294 17.1226 10.8989C17.2542 11.0018 17.3208 11.1616 17.3208 11.3736C17.3208 12.059 16.6511 12.9433 15.9397 12.9433ZM15.1865 11.4289C15.2248 11.8126 15.6433 12.3184 15.9397 12.3184C16.2361 12.3184 16.6547 11.8128 16.693 11.4289C16.6378 11.4398 16.5726 11.456 16.522 11.4685C16.3567 11.5095 16.151 11.5605 15.9397 11.5605C15.7285 11.5605 15.5227 11.5095 15.3575 11.4685C15.3068 11.456 15.2416 11.4398 15.1865 11.4289Z" fill="black"/>
<path d="M17.5541 14.3928C17.5039 14.3928 17.4526 14.391 17.4003 14.3872C15.65 14.2622 15.6251 12.7061 15.625 12.6903C15.6249 12.6493 15.6329 12.6086 15.6485 12.5707C15.6641 12.5327 15.687 12.4982 15.7159 12.4691C15.7448 12.44 15.7792 12.4169 15.8171 12.4011C15.855 12.3853 15.8956 12.3771 15.9366 12.377H15.9375C16.0199 12.3769 16.0989 12.4095 16.1575 12.4675C16.216 12.5254 16.2492 12.6042 16.25 12.6866C16.2519 12.7898 16.3021 13.6821 17.4448 13.7638C17.7496 13.7853 17.983 13.7191 18.155 13.5602C18.4876 13.2531 18.496 12.6938 18.496 12.6882C18.4974 12.5162 18.6411 12.381 18.8098 12.3777C18.8923 12.3779 18.9715 12.4108 19.0298 12.4693C19.0882 12.5278 19.121 12.607 19.121 12.6896C19.121 12.7233 19.1149 13.5205 18.5833 14.0156C18.314 14.2661 17.9683 14.3928 17.5541 14.3928Z" fill="black"/>
<path d="M14.3247 14.3928C13.9104 14.3928 13.5648 14.2662 13.2956 14.0155C12.7639 13.5205 12.7578 12.7231 12.7578 12.6895C12.7578 12.6066 12.7907 12.5271 12.8493 12.4685C12.9079 12.4099 12.9874 12.377 13.0703 12.377C13.1532 12.377 13.2327 12.4099 13.2913 12.4685C13.3499 12.5271 13.3828 12.6066 13.3828 12.6895C13.3828 12.6938 13.3912 13.2531 13.7238 13.5602C13.8958 13.7191 14.1282 13.7861 14.4341 13.7638C15.6123 13.6797 15.6287 12.729 15.6288 12.6886C15.629 12.6059 15.6621 12.5266 15.7207 12.4682C15.7792 12.4098 15.8586 12.377 15.9413 12.377H15.9422C15.9832 12.3771 16.0238 12.3853 16.0617 12.4011C16.0996 12.4169 16.134 12.44 16.1629 12.4691C16.1918 12.4982 16.2148 12.5327 16.2304 12.5707C16.246 12.6086 16.2539 12.6493 16.2538 12.6903C16.2538 12.706 16.2289 14.2621 14.4786 14.3872C14.4262 14.3908 14.3749 14.3928 14.3247 14.3928Z" fill="black"/>
<path d="M15.9392 16.5896C15.0371 16.5896 14.3001 15.5693 14.1469 14.1085C14.1425 14.0668 14.1465 14.0247 14.1588 13.9847C14.171 13.9447 14.1911 13.9075 14.218 13.8754C14.2448 13.8433 14.2779 13.8169 14.3151 13.7978C14.3524 13.7787 14.3931 13.7673 14.4349 13.7642C15.5759 13.6811 15.6249 12.7886 15.6267 12.687C15.6282 12.6049 15.6617 12.5268 15.7201 12.4692C15.7785 12.4116 15.8572 12.3792 15.9392 12.379H15.9416C16.0235 12.3793 16.1019 12.4118 16.16 12.4696C16.218 12.5273 16.251 12.6056 16.2517 12.6875C16.2537 12.791 16.3041 13.6813 17.4436 13.7642C17.4854 13.7672 17.5261 13.7786 17.5634 13.7977C17.6006 13.8168 17.6337 13.8432 17.6606 13.8753C17.6874 13.9074 17.7076 13.9446 17.7198 13.9847C17.732 14.0247 17.736 14.0668 17.7316 14.1085C17.5784 15.5693 16.8414 16.5896 15.9392 16.5896ZM14.8111 14.3433C14.9792 15.2733 15.4472 15.9647 15.9392 15.9647C16.4312 15.9647 16.8992 15.2733 17.0674 14.3433C16.4925 14.2276 16.1469 13.9368 15.9392 13.6308C15.7316 13.9368 15.3861 14.2276 14.8111 14.3433ZM28.7625 12.8182C28.7381 12.8182 28.7134 12.8153 28.6886 12.8093C24.6339 11.8263 21.0252 12.0606 20.9894 12.0631C20.9482 12.0662 20.9069 12.0612 20.8677 12.0483C20.8285 12.0354 20.7923 12.0149 20.7611 11.988C20.7299 11.961 20.7043 11.9281 20.6859 11.8912C20.6675 11.8543 20.6565 11.8142 20.6537 11.773C20.6508 11.7319 20.6562 11.6906 20.6694 11.6515C20.6826 11.6124 20.7034 11.5763 20.7306 11.5453C20.7578 11.5144 20.7909 11.4891 20.8279 11.4709C20.8649 11.4527 20.9052 11.4421 20.9464 11.4396C20.9832 11.4372 24.6885 11.1966 28.8359 12.202C28.9102 12.2199 28.9753 12.2645 29.019 12.3273C29.0627 12.3901 29.0818 12.4667 29.0727 12.5427C29.0637 12.6186 29.0271 12.6886 28.9699 12.7394C28.9128 12.7901 28.8389 12.8182 28.7625 12.8182ZM28.4292 15.8776C28.3806 15.8776 28.3314 15.8662 28.2852 15.8422C24.584 13.9165 21.0244 13.2796 20.9889 13.2733C20.9484 13.2663 20.9098 13.2513 20.8751 13.2293C20.8405 13.2073 20.8105 13.1787 20.7869 13.1451C20.7633 13.1115 20.7466 13.0736 20.7377 13.0335C20.7287 12.9935 20.7278 12.952 20.7349 12.9116C20.7419 12.8712 20.7569 12.8325 20.7789 12.7979C20.8009 12.7632 20.8295 12.7333 20.8631 12.7097C20.8967 12.6861 20.9346 12.6693 20.9747 12.6604C21.0147 12.6515 21.0562 12.6505 21.0966 12.6576C21.1331 12.664 24.7879 13.318 28.5737 15.2877C28.6359 15.32 28.6854 15.3722 28.7144 15.436C28.7433 15.4998 28.75 15.5714 28.7333 15.6394C28.7166 15.7075 28.6776 15.7679 28.6225 15.8111C28.5673 15.8543 28.4993 15.8777 28.4292 15.8776ZM3.24173 12.8182C3.16532 12.8181 3.0916 12.7899 3.03451 12.7392C2.97742 12.6884 2.94091 12.6184 2.93188 12.5425C2.92285 12.4667 2.94192 12.3901 2.98549 12.3273C3.02906 12.2646 3.09411 12.2199 3.16835 12.2018C7.31585 11.1965 11.0209 11.437 11.0579 11.4395C11.1406 11.4452 11.2176 11.4835 11.2721 11.546C11.3265 11.6084 11.3539 11.69 11.3482 11.7727C11.3425 11.8554 11.3042 11.9325 11.2417 11.9869C11.1792 12.0414 11.0977 12.0688 11.015 12.0631C10.9787 12.0606 7.36535 11.8275 3.3156 12.8093C3.29142 12.8152 3.26662 12.8182 3.24173 12.8182ZM3.57498 15.8776C3.50494 15.8777 3.43688 15.8543 3.38174 15.8111C3.3266 15.7679 3.28756 15.7075 3.27089 15.6394C3.25423 15.5714 3.2609 15.4998 3.28984 15.436C3.31878 15.3722 3.36831 15.32 3.43048 15.2877C7.21648 13.318 10.8712 12.664 10.9076 12.6576C10.9893 12.6433 11.0732 12.662 11.1411 12.7097C11.2089 12.7573 11.2551 12.8299 11.2694 12.9116C11.2836 12.9932 11.2649 13.0772 11.2173 13.1451C11.1696 13.2129 11.097 13.2591 11.0154 13.2733C10.9797 13.2796 7.41548 13.919 3.71885 15.8422C3.67446 15.8655 3.62509 15.8776 3.57498 15.8776ZM17.77 10.4205C17.6873 10.4205 17.6079 10.3877 17.5494 10.3293C17.4908 10.2709 17.4577 10.1917 17.4575 10.109C17.4554 9.44772 17.9916 8.90809 18.6527 8.90597C18.9766 8.90422 19.2746 9.02859 19.5019 9.25447C19.6139 9.36522 19.7028 9.49707 19.7636 9.64241C19.8244 9.78775 19.8557 9.94369 19.8559 10.1012C19.856 10.1423 19.848 10.1829 19.8324 10.2209C19.8169 10.2588 19.794 10.2934 19.765 10.3225C19.7361 10.3516 19.7017 10.3747 19.6639 10.3905C19.626 10.4064 19.5854 10.4146 19.5444 10.4147H19.5434C19.4606 10.4147 19.3813 10.3819 19.3227 10.3235C19.2642 10.2652 19.2311 10.1859 19.2309 10.1032C19.2308 10.0278 19.2159 9.95308 19.1868 9.88347C19.1577 9.81386 19.115 9.75073 19.0614 9.69772C19.0082 9.64464 18.9451 9.60258 18.8757 9.57394C18.8062 9.54531 18.7318 9.53066 18.6567 9.53084H18.6549C18.5026 9.53154 18.3569 9.59256 18.2496 9.70053C18.1423 9.80851 18.0822 9.95462 18.0825 10.1068C18.0826 10.1479 18.0747 10.1885 18.0591 10.2265C18.0435 10.2645 18.0206 10.299 17.9917 10.3281C17.9627 10.3572 17.9284 10.3803 17.8905 10.3962C17.8526 10.412 17.812 10.4202 17.771 10.4203L17.77 10.4205ZM14.0445 10.4176C13.9616 10.4176 13.8821 10.3847 13.8235 10.3261C13.7649 10.2675 13.732 10.188 13.732 10.1051C13.732 9.78847 13.4744 9.53097 13.1577 9.53097C12.8411 9.53097 12.5836 9.78859 12.5836 10.1051C12.5836 10.188 12.5507 10.2675 12.4921 10.3261C12.4335 10.3847 12.354 10.4176 12.2711 10.4176C12.1882 10.4176 12.1087 10.3847 12.0501 10.3261C11.9915 10.2675 11.9586 10.188 11.9586 10.1051C11.9586 9.44384 12.4966 8.90597 13.1577 8.90597C13.819 8.90597 14.357 9.44397 14.357 10.1051C14.357 10.188 14.3241 10.2675 14.2654 10.3261C14.2068 10.3847 14.1274 10.4176 14.0445 10.4176ZM7.53535 8.14272C7.4856 8.14272 7.43523 8.13084 7.38823 8.10572C6.11835 7.42684 5.39798 6.13259 5.24748 4.25872C5.12623 2.74897 5.4171 1.21659 5.60135 0.437592C5.61073 0.398092 5.6246 0.367967 5.6311 0.353467C5.65377 0.297734 5.69208 0.24975 5.7414 0.215304C5.79073 0.180859 5.84897 0.161423 5.9091 0.159342C5.96931 0.157407 6.0288 0.172844 6.08047 0.20381C6.13214 0.234775 6.1738 0.27996 6.20048 0.333967C6.4601 0.859967 7.4251 2.61547 8.93948 3.12034C9.65735 3.35959 10.0981 3.73209 10.2495 4.22722C10.3817 4.65972 10.2516 5.07347 10.1225 5.34009L10.3917 5.50159C10.4476 5.53514 10.4916 5.58532 10.5176 5.64513C10.5435 5.70493 10.5502 5.77135 10.5365 5.83509C10.4072 6.43847 9.8416 7.57947 8.62673 7.57947C8.54385 7.57947 8.46436 7.54654 8.40576 7.48794C8.34715 7.42933 8.31423 7.34985 8.31423 7.26697C8.31423 7.18409 8.34715 7.1046 8.40576 7.046C8.46436 6.98739 8.54385 6.95447 8.62673 6.95447C9.38535 6.95447 9.73273 6.26834 9.86185 5.91259L9.53548 5.71684C9.49771 5.69415 9.46516 5.66373 9.43997 5.62758C9.41478 5.59142 9.39751 5.55035 9.38931 5.50706C9.38111 5.46376 9.38215 5.41922 9.39237 5.37636C9.40259 5.3335 9.42175 5.29328 9.4486 5.25834C9.4511 5.25509 9.77773 4.81509 9.65098 4.40709C9.56098 4.11784 9.2551 3.88434 8.74198 3.71322C7.47723 3.29172 6.56635 2.15534 6.05185 1.34109C5.91085 2.12447 5.7876 3.17584 5.8706 4.20872C6.0031 5.85684 6.61285 6.98247 7.6831 7.55459C7.74459 7.58744 7.79333 7.63991 7.82156 7.70365C7.8498 7.76739 7.85591 7.83875 7.83892 7.90636C7.82194 7.97397 7.78283 8.03396 7.72782 8.07679C7.67282 8.11962 7.60507 8.14283 7.53535 8.14272Z" fill="black"/>
<path d="M15.9399 16.5895C15.4677 16.5895 15.0239 16.3036 14.6902 15.7845C14.6579 15.7341 14.6406 15.6756 14.6406 15.6157C14.6406 15.5559 14.6578 15.4972 14.6901 15.4469C15.0236 14.927 15.4675 14.6406 15.94 14.6406C16.4125 14.6406 16.8564 14.927 17.1899 15.4469C17.2221 15.4973 17.2393 15.5559 17.2393 15.6158C17.2393 15.6756 17.2221 15.7342 17.1897 15.7846C16.8559 16.3036 16.412 16.5895 15.9399 16.5895ZM15.3389 15.6154C15.4801 15.7864 15.6879 15.9645 15.9399 15.9645C16.1919 15.9645 16.3996 15.7864 16.541 15.6154C16.3997 15.4441 16.1921 15.2656 15.9399 15.2656C15.6877 15.2656 15.48 15.4441 15.3389 15.6154Z" fill="black"/>
</g>
<defs>
<clipPath id="clip0_1971_211442">
<rect width="32" height="32" fill="white" transform="translate(0.5)"/>
</clipPath>
</defs>
</svg>
