<svg width="25" height="24" viewBox="0 0 25 24" fill="none" xmlns="http://www.w3.org/2000/svg">
<path d="M14.425 15.1501H9.625C9.215 15.1501 8.875 14.8101 8.875 14.4001V9.60016C8.875 9.19016 9.215 8.85016 9.625 8.85016H14.425C14.835 8.85016 15.175 9.19016 15.175 9.60016V14.4001C15.175 14.8101 14.835 15.1501 14.425 15.1501ZM10.375 13.6501H13.675V10.3502H10.375V13.6501Z" fill="#7B8697"/>
<path d="M7.82343 18.7498C6.41343 18.7498 5.27344 17.6099 5.27344 16.1999C5.27344 14.7899 6.41343 13.6498 7.82343 13.6498H9.62341C10.0334 13.6498 10.3734 13.9898 10.3734 14.3998V16.1999C10.3734 17.6099 9.23343 18.7498 7.82343 18.7498ZM7.82343 15.1498C7.24343 15.1498 6.77344 15.6199 6.77344 16.1999C6.77344 16.7799 7.24343 17.2498 7.82343 17.2498C8.40343 17.2498 8.87341 16.7799 8.87341 16.1999V15.1498H7.82343Z" fill="#7B8697"/>
<path d="M9.62341 10.3502H7.82343C6.41343 10.3502 5.27344 9.21014 5.27344 7.80014C5.27344 6.39014 6.41343 5.25015 7.82343 5.25015C9.23343 5.25015 10.3734 6.39014 10.3734 7.80014V9.60016C10.3734 10.0102 10.0334 10.3502 9.62341 10.3502ZM7.82343 6.75015C7.24343 6.75015 6.77344 7.22014 6.77344 7.80014C6.77344 8.38014 7.24343 8.85016 7.82343 8.85016H8.87341V7.80014C8.87341 7.22014 8.40343 6.75015 7.82343 6.75015Z" fill="#7B8697"/>
<path d="M16.2219 10.3502H14.4219C14.0119 10.3502 13.6719 10.0102 13.6719 9.60016V7.80014C13.6719 6.39014 14.8119 5.25015 16.2219 5.25015C17.6319 5.25015 18.7719 6.39014 18.7719 7.80014C18.7719 9.21014 17.6319 10.3502 16.2219 10.3502ZM15.1719 8.85016H16.2219C16.8019 8.85016 17.2719 8.38014 17.2719 7.80014C17.2719 7.22014 16.8019 6.75015 16.2219 6.75015C15.6419 6.75015 15.1719 7.22014 15.1719 7.80014V8.85016Z" fill="#7B8697"/>
<path d="M16.2219 18.7498C14.8119 18.7498 13.6719 17.6099 13.6719 16.1999V14.3998C13.6719 13.9898 14.0119 13.6498 14.4219 13.6498H16.2219C17.6319 13.6498 18.7719 14.7899 18.7719 16.1999C18.7719 17.6099 17.6319 18.7498 16.2219 18.7498ZM15.1719 15.1498V16.1999C15.1719 16.7799 15.6419 17.2498 16.2219 17.2498C16.8019 17.2498 17.2719 16.7799 17.2719 16.1999C17.2719 15.6199 16.8019 15.1498 16.2219 15.1498H15.1719Z" fill="#7B8697"/>
<path d="M15.0234 22.7498H9.02344C3.59344 22.7498 1.27344 20.4298 1.27344 14.9998V8.99982C1.27344 3.56982 3.59344 1.24982 9.02344 1.24982H15.0234C20.4534 1.24982 22.7734 3.56982 22.7734 8.99982V14.9998C22.7734 20.4298 20.4534 22.7498 15.0234 22.7498ZM9.02344 2.74982C4.41344 2.74982 2.77344 4.38982 2.77344 8.99982V14.9998C2.77344 19.6098 4.41344 21.2498 9.02344 21.2498H15.0234C19.6334 21.2498 21.2734 19.6098 21.2734 14.9998V8.99982C21.2734 4.38982 19.6334 2.74982 15.0234 2.74982H9.02344Z" fill="#7B8697"/>
</svg>
