<svg width="32" height="32" viewBox="0 0 32 32" fill="none" xmlns="http://www.w3.org/2000/svg">
<path d="M16.7663 6.88983C18.4015 6.88983 19.7327 5.55863 19.7327 3.92343C19.7327 2.28823 18.4015 0.957031 16.7663 0.957031C15.1311 0.957031 13.7999 2.28823 13.7999 3.92343C13.7999 5.55863 15.1279 6.88983 16.7663 6.88983ZM16.7663 2.23703C17.2136 2.23707 17.6426 2.41481 17.9588 2.73113C18.2751 3.04745 18.4527 3.47645 18.4527 3.92375C18.4527 4.37105 18.2749 4.80002 17.9586 5.11628C17.6423 5.43254 17.2133 5.61019 16.766 5.61015C16.3187 5.61011 15.8897 5.43238 15.5734 5.11606C15.2572 4.79973 15.0795 4.37073 15.0796 3.92343C15.0796 3.47613 15.2574 3.04716 15.5737 2.7309C15.89 2.41464 16.319 2.23699 16.7663 2.23703ZM11.4255 8.78743L9.7359 11.0498L9.3327 9.70583C8.9359 8.37783 7.6303 7.33783 6.3599 7.33783H4.5775C4.2255 7.33783 3.9375 7.62583 3.9375 7.97783C3.9375 8.32983 4.2255 8.61783 4.5775 8.61783H6.3631C7.0607 8.61783 7.8767 9.29623 8.1071 10.0706L8.7823 12.3234L8.5423 12.6466C7.7135 13.757 7.7135 15.4978 8.5455 16.6082L9.6943 18.1314C8.61296 18.723 7.71114 19.5952 7.08379 20.6562C6.45644 21.7172 6.12677 22.9277 6.1295 24.1602C6.1295 27.9554 9.2175 31.0466 13.0159 31.0466C16.8111 31.0466 19.8991 27.9586 19.8991 24.1602C19.8991 22.8962 19.5439 21.6962 18.9295 20.6594H20.5167L22.0911 25.4786C20.8655 25.789 19.9567 26.8962 19.9567 28.2178C19.9567 29.7762 21.2271 31.0466 22.7855 31.0466C24.1231 31.0466 25.2463 30.109 25.5375 28.8578H28.2703C28.6223 28.8578 28.9103 28.5698 28.9103 28.2178C28.9103 27.8658 28.6223 27.5778 28.2703 27.5778H25.5375C25.5215 27.5042 25.5023 27.4338 25.4799 27.3602C25.8447 27.2226 26.1519 26.9954 26.3727 26.6914C26.7503 26.1698 26.8399 25.4722 26.6127 24.7778L24.5039 18.3074C24.0751 16.9954 22.6607 15.9714 21.2815 15.9714H17.1919L18.0911 11.7346C18.1263 11.5234 18.1455 11.3058 18.1455 11.0946C18.1455 9.02423 16.4591 7.33783 14.3887 7.33783C13.2303 7.33783 12.1551 7.85943 11.4255 8.78743ZM13.0127 29.7634C9.9215 29.7634 7.4063 27.2482 7.4063 24.157C7.4063 22.0226 8.5935 20.1122 10.4687 19.1618L11.3615 20.3458L11.4191 20.413C11.833 20.8264 12.3941 21.0586 12.9791 21.0586C13.5641 21.0586 14.1252 20.8264 14.5391 20.413C14.9201 20.0334 15.147 19.5261 15.1759 18.989C17.2175 19.8498 18.6127 21.8818 18.6127 24.157C18.6191 27.2482 16.1039 29.7634 13.0127 29.7634ZM22.7855 29.7634C21.9311 29.7634 21.2367 29.069 21.2367 28.2146C21.2367 27.3602 21.9311 26.6658 22.7855 26.6658C23.6399 26.6658 24.3343 27.3602 24.3343 28.2146C24.3311 29.069 23.6367 29.7634 22.7855 29.7634ZM14.3887 8.61783C14.7477 8.61808 15.1024 8.69633 15.4283 8.84716C15.7541 8.99799 16.0432 9.21781 16.2757 9.49139C16.5082 9.76498 16.6785 10.0858 16.7748 10.4317C16.8711 10.7776 16.8912 11.1403 16.8335 11.4946L15.7775 16.477C15.7359 16.6658 15.7839 16.8642 15.9055 17.0114C16.0271 17.1618 16.2095 17.2482 16.4015 17.2482H21.2815C22.0975 17.2482 23.0319 17.9266 23.2847 18.701L25.3935 25.1714C25.4927 25.4754 25.4735 25.7474 25.3359 25.9362C25.2239 26.093 25.0287 26.1858 24.7855 26.2146C24.414 25.8434 23.9464 25.583 23.4351 25.4626L21.5887 19.8146C21.5465 19.6866 21.4651 19.575 21.3559 19.4957C21.2468 19.4165 21.1156 19.3736 20.9807 19.373H17.9535C17.0695 18.4569 15.9483 17.8043 14.7151 17.4882C14.6703 17.4338 14.6255 17.3794 14.5775 17.3282L12.5551 14.621L14.9007 11.4786C14.9962 11.3421 15.0349 11.1737 15.0085 11.0091C14.9821 10.8446 14.8926 10.6968 14.7592 10.597C14.6257 10.4972 14.4586 10.4532 14.2933 10.4745C14.128 10.4957 13.9775 10.5804 13.8735 10.7106L11.2399 14.2338C11.0703 14.461 11.0703 14.7714 11.2399 14.9986L13.5727 18.1218C13.5912 18.1467 13.6116 18.1703 13.6335 18.1922C13.7195 18.2781 13.7877 18.3802 13.8342 18.4924C13.8808 18.6047 13.9047 18.7251 13.9047 18.8466C13.9047 18.9682 13.8808 19.0885 13.8342 19.2008C13.7877 19.3131 13.7195 19.4151 13.6335 19.501C13.4648 19.6699 13.2373 19.767 12.9987 19.7717C12.76 19.7765 12.5288 19.6887 12.3535 19.5266L9.5663 15.8402C9.0831 15.1938 9.0831 14.0578 9.5663 13.4114L12.4431 9.56503C12.6738 9.26933 12.969 9.03026 13.3062 8.8661C13.6434 8.70193 14.0137 8.61702 14.3887 8.61783Z" fill="#5A687D"/>
<path d="M13.0144 25.5073C13.7213 25.5073 14.2944 24.9342 14.2944 24.2273C14.2944 23.5203 13.7213 22.9473 13.0144 22.9473C12.3075 22.9473 11.7344 23.5203 11.7344 24.2273C11.7344 24.9342 12.3075 25.5073 13.0144 25.5073Z" fill="#5A687D"/>
</svg>
