<svg width="20" height="20" viewBox="0 0 20 20" fill="none" xmlns="http://www.w3.org/2000/svg">
<path d="M6.28719 18.2353L6.28945 18.2333C6.97704 17.6243 7.38294 16.7476 7.38294 15.8257C7.38294 14.0579 5.94241 12.6174 4.1746 12.6174C3.44217 12.6174 2.75062 12.8657 2.17372 13.3244C2.13368 13.3552 2.08459 13.3617 2.03414 13.3384C2.00943 13.327 1.97461 13.2893 1.97461 13.2257V9.58403C1.97461 7.78517 3.43408 6.32568 5.23294 6.32568H14.7996C16.5985 6.32568 18.0579 7.78517 18.0579 9.58403V10.784C18.0579 10.8142 18.0457 10.8455 18.02 10.8711C17.9944 10.8967 17.9631 10.909 17.9329 10.909H16.2496C15.8342 10.909 15.4354 11.0642 15.1427 11.3672L15.1406 11.3692C14.7965 11.7031 14.6402 12.1589 14.6762 12.6151L14.6761 12.6151L14.6767 12.621C14.7532 13.4633 15.5275 14.0674 16.3496 14.0674H17.9329C17.9631 14.0674 17.9944 14.0797 18.02 14.1053C18.0457 14.131 18.0579 14.1622 18.0579 14.1924V15.1819C18.0425 17.0018 16.579 18.459 14.7829 18.459H6.36627C6.31519 18.459 6.27097 18.4293 6.25238 18.3786C6.23101 18.3203 6.24483 18.2724 6.28719 18.2353L6.28719 18.2353ZM7.21041 17.4701L6.80832 18.209H7.6496H14.7829C16.4424 18.209 17.7913 16.8602 17.7913 15.2007V14.834V14.334H17.2913H16.3329C15.3134 14.334 14.4829 13.5794 14.4062 12.6592L14.4063 12.6592L14.4056 12.6521C14.354 12.1233 14.5464 11.596 14.9418 11.2072L14.9419 11.2073L14.9482 11.2009C15.2857 10.8568 15.7397 10.6674 16.2329 10.6674H17.2913H17.7913V10.1674V9.59237C17.7913 7.93289 16.4424 6.58403 14.7829 6.58403H5.21627C3.55679 6.58403 2.20794 7.93289 2.20794 9.59237V12.159V12.8927L2.89077 12.6244C3.30367 12.4622 3.73348 12.3757 4.16627 12.3757C6.07346 12.3757 7.62461 13.9268 7.62461 15.834C7.62461 16.4091 7.47874 16.9769 7.21041 17.4701Z" fill="#7B8697" stroke="#7B8697"/>
<path d="M3.56752 4.19371L3.56752 4.19372L3.56905 4.19314L10.1831 1.69413C10.7171 1.49957 11.3103 1.57394 11.7628 1.89259C12.2253 2.21834 12.5007 2.74279 12.5007 3.29211V6.45877C12.5007 6.48891 12.4884 6.5202 12.4627 6.54584C12.4371 6.57148 12.4058 6.58377 12.3757 6.58377C12.3455 6.58377 12.3142 6.57148 12.2886 6.54584C12.2629 6.5202 12.2507 6.48892 12.2507 6.45877V3.29211C12.2507 2.80938 12.0188 2.37575 11.6317 2.10102L11.6317 2.10098L11.6256 2.09675C11.2271 1.82277 10.7335 1.75835 10.2808 1.92182L10.2808 1.92177L10.2739 1.92437L3.65727 4.42437L3.65718 4.4244C2.77683 4.75722 2.20898 5.58689 2.20898 6.53379V9.59211C2.20898 9.62226 2.1967 9.65354 2.17106 9.67918C2.14541 9.70482 2.11413 9.71711 2.08398 9.71711C2.05384 9.71711 2.02256 9.70482 1.99691 9.67918C1.97127 9.65354 1.95898 9.62226 1.95898 9.59211V6.53379C1.95898 5.49711 2.60786 4.55272 3.56752 4.19371Z" fill="#7B8697" stroke="#7B8697"/>
<path d="M14.4073 12.6588L14.4074 12.6588L14.4067 12.6523C14.3548 12.1138 14.5483 11.5866 14.9429 11.1985L14.943 11.1986L14.9493 11.1921C15.2776 10.8574 15.731 10.667 16.2257 10.667H17.9508C18.5089 10.6873 18.9174 11.1211 18.9174 11.642V13.3587C18.9174 13.8847 18.5038 14.3135 17.9755 14.3336H16.334C15.3145 14.3336 14.484 13.579 14.4073 12.6588ZM17.9736 10.918L17.958 10.917H17.9424H16.234C15.8199 10.917 15.4223 11.0712 15.1299 11.3723C14.7873 11.707 14.6129 12.1694 14.6614 12.6408C14.7398 13.4813 15.5131 14.0836 16.334 14.0836H17.9674C18.3762 14.0836 18.6757 13.7348 18.6757 13.3587V11.642C18.6757 11.2024 18.3169 10.9394 17.9736 10.918Z" fill="#7B8697" stroke="#7B8697"/>
<path d="M11.6673 10.1255H5.83398C5.80384 10.1255 5.77256 10.1132 5.74691 10.0876C5.72127 10.0619 5.70898 10.0306 5.70898 10.0005C5.70898 9.97034 5.72127 9.93906 5.74691 9.91342C5.77256 9.88777 5.80384 9.87549 5.83398 9.87549H11.6673C11.6975 9.87549 11.7287 9.88777 11.7544 9.91342C11.78 9.93906 11.7923 9.97034 11.7923 10.0005C11.7923 10.0306 11.78 10.0619 11.7544 10.0876C11.7287 10.1132 11.6975 10.1255 11.6673 10.1255Z" fill="#7B8697" stroke="#7B8697"/>
<path d="M2.00382 13.1332L2.0041 13.133C2.61548 12.6454 3.38887 12.3755 4.16732 12.3755C6.07451 12.3755 7.62565 13.9266 7.62565 15.8338C7.62565 16.8225 7.19654 17.7693 6.45393 18.4249C5.81042 18.9876 5.00227 19.2922 4.16732 19.2922C2.26013 19.2922 0.708984 17.741 0.708984 15.8338C0.708984 14.7684 1.18207 13.7877 2.00382 13.1332ZM6.28335 18.2477L6.2834 18.2477L6.2905 18.2415C6.98021 17.6306 7.37565 16.7613 7.37565 15.8338C7.37565 14.066 5.93513 12.6255 4.16732 12.6255C3.43393 12.6255 2.7415 12.8744 2.16411 13.3344L2.47565 13.7255L2.16517 13.3335C1.40336 13.9371 0.958984 14.8566 0.958984 15.8338C0.958984 17.6016 2.39951 19.0422 4.16732 19.0422C4.94214 19.0422 5.68915 18.7542 6.28335 18.2477Z" fill="#7B8697" stroke="#7B8697"/>
<path d="M3.33258 17.292C3.12425 17.292 2.91592 17.1837 2.79925 16.992C2.62425 16.692 2.71591 16.3086 3.01591 16.1336L3.75758 15.692V14.792C3.75758 14.4503 4.04091 14.167 4.38258 14.167C4.72425 14.167 5.00758 14.4503 5.00758 14.792V16.042C5.00758 16.2587 4.89091 16.467 4.70758 16.5753L3.66591 17.2003C3.55758 17.267 3.44092 17.292 3.33258 17.292Z" fill="#7B8697"/>
</svg>
