<svg width="20" height="20" viewBox="0 0 20 20" fill="none" xmlns="http://www.w3.org/2000/svg">
<path d="M14.783 18.9585H5.21634C3.14134 18.9585 1.45801 17.2752 1.45801 15.2002V9.59184C1.45801 7.51684 3.14134 5.8335 5.21634 5.8335H14.783C16.858 5.8335 18.5413 7.51684 18.5413 9.59184V10.7918C18.5413 11.1335 18.258 11.4168 17.9163 11.4168H16.233C15.9413 11.4168 15.6747 11.5252 15.483 11.7252L15.4747 11.7335C15.2413 11.9585 15.133 12.2668 15.158 12.5835C15.208 13.1335 15.733 13.5751 16.333 13.5751H17.9163C18.258 13.5751 18.5413 13.8585 18.5413 14.2001V15.1918C18.5413 17.2751 16.858 18.9585 14.783 18.9585ZM5.21634 7.0835C3.83301 7.0835 2.70801 8.2085 2.70801 9.59184V15.2002C2.70801 16.5835 3.83301 17.7085 5.21634 17.7085H14.783C16.1663 17.7085 17.2913 16.5835 17.2913 15.2002V14.8335H16.333C15.0747 14.8335 14.008 13.9002 13.908 12.7002C13.8413 12.0168 14.0913 11.3418 14.5913 10.8502C15.0247 10.4085 15.608 10.1668 16.233 10.1668H17.2913V9.59184C17.2913 8.2085 16.1663 7.0835 14.783 7.0835H5.21634Z" fill="#525F72"/>
<path d="M2.08301 10.9665C1.74134 10.9665 1.45801 10.6832 1.45801 10.3415V6.53322C1.45801 5.29155 2.24134 4.16651 3.39967 3.72484L10.0163 1.22484C10.6997 0.966508 11.458 1.05822 12.0497 1.47488C12.6497 1.89155 12.9997 2.56654 12.9997 3.29154V6.4582C12.9997 6.79987 12.7163 7.0832 12.3747 7.0832C12.033 7.0832 11.7497 6.79987 11.7497 6.4582V3.29154C11.7497 2.97488 11.5997 2.6832 11.333 2.49987C11.0663 2.31653 10.7497 2.27486 10.4497 2.39153L3.83301 4.89153C3.15801 5.14986 2.69967 5.80822 2.69967 6.53322V10.3415C2.70801 10.6915 2.42467 10.9665 2.08301 10.9665Z" fill="#525F72"/>
<path d="M16.3331 14.8331C15.0747 14.8331 14.0081 13.8998 13.9081 12.6998C13.8414 12.0082 14.0914 11.3332 14.5914 10.8415C15.0164 10.4082 15.5997 10.1665 16.2247 10.1665H17.9581C18.7831 10.1915 19.4164 10.8415 19.4164 11.6415V13.3582C19.4164 14.1582 18.7831 14.8081 17.9831 14.8331H16.3331ZM17.9414 11.4165H16.2331C15.9414 11.4165 15.6747 11.5248 15.4831 11.7248C15.2414 11.9582 15.1247 12.2748 15.1581 12.5915C15.2081 13.1415 15.7331 13.5831 16.3331 13.5831H17.9664C18.0747 13.5831 18.1747 13.4832 18.1747 13.3582V11.6415C18.1747 11.5165 18.0747 11.4248 17.9414 11.4165Z" fill="#525F72"/>
<path d="M11.6663 10.625H5.83301C5.49134 10.625 5.20801 10.3417 5.20801 10C5.20801 9.65833 5.49134 9.375 5.83301 9.375H11.6663C12.008 9.375 12.2913 9.65833 12.2913 10C12.2913 10.3417 12.008 10.625 11.6663 10.625Z" fill="#525F72"/>
</svg>
