<svg width="32" height="32" viewBox="0 0 32 32" fill="none" xmlns="http://www.w3.org/2000/svg">
<path d="M27.8524 10.4985C27.8524 11.3521 27.6851 12.1974 27.3602 12.9861C27.0353 13.7748 26.5591 14.4914 25.9587 15.095C25.3584 15.6986 24.6457 16.1774 23.8613 16.5041C23.0769 16.8308 22.2362 16.9989 21.3871 16.9989C20.5381 16.9989 19.6974 16.8308 18.913 16.5041C18.1286 16.1774 17.4159 15.6986 16.8155 15.095C16.2151 14.4914 15.7389 13.7748 15.414 12.9861C15.0891 12.1974 14.9219 11.3521 14.9219 10.4985C14.9219 8.77446 15.603 7.12105 16.8155 5.90198C18.028 4.68291 19.6724 3.99805 21.3871 3.99805C23.1018 3.99805 24.7463 4.68291 25.9587 5.90198C27.1712 7.12105 27.8524 8.77446 27.8524 10.4985Z" fill="#FFCA28"/>
<path d="M17.3576 5.41602C16.5978 6.02484 15.9843 6.79801 15.5626 7.67804C15.1409 8.55808 14.9219 9.52236 14.9219 10.4992C14.9219 12.2232 15.603 13.8766 16.8155 15.0957C18.028 16.3148 19.6724 16.9996 21.3871 16.9996C22.3507 16.9987 23.3019 16.7811 24.1711 16.363C25.0403 15.9448 25.8055 15.3366 26.4109 14.5828C25.266 15.5003 23.8454 15.9999 22.3813 16C20.6667 16 19.0222 15.3152 17.8097 14.0961C16.5973 12.877 15.9161 11.2236 15.9161 9.49958C15.9184 8.01334 16.4272 6.57277 17.3576 5.41791V5.41602Z" fill="#ECB200"/>
<path d="M0.998053 20.998H5.47111C5.74738 20.998 5.96915 21.221 5.96915 21.4988V30.4974C5.9694 30.5632 5.95669 30.6284 5.93175 30.6893C5.90681 30.7502 5.87013 30.8055 5.82383 30.852C5.77754 30.8986 5.72253 30.9355 5.66199 30.9605C5.60146 30.9856 5.53658 30.9984 5.47111 30.9981H0.998053C0.932579 30.9984 0.867703 30.9856 0.807164 30.9605C0.746626 30.9355 0.691623 30.8986 0.645325 30.852C0.599027 30.8055 0.562351 30.7502 0.537409 30.6893C0.512468 30.6284 0.499755 30.5632 0.500004 30.4974V21.4988C0.500004 21.221 0.723656 20.998 0.998053 20.998Z" fill="#549AD4"/>
<path d="M0.998053 20.9981C0.932579 20.9978 0.867703 21.0106 0.807164 21.0357C0.746626 21.0607 0.691623 21.0976 0.645325 21.1442C0.599027 21.1907 0.562351 21.246 0.537409 21.3069C0.512468 21.3677 0.499755 21.433 0.500004 21.4988V30.4974C0.500004 30.7752 0.721777 30.9981 0.996174 30.9981H5.47111C5.53658 30.9984 5.60146 30.9856 5.66199 30.9605C5.72253 30.9355 5.77754 30.8986 5.82383 30.852C5.87013 30.8055 5.90681 30.7502 5.93175 30.6893C5.95669 30.6284 5.9694 30.5632 5.96915 30.4974V29.9985H1.99039C1.92508 29.9985 1.8604 29.9855 1.80008 29.9604C1.73976 29.9352 1.68498 29.8983 1.63888 29.8517C1.59278 29.8052 1.55628 29.75 1.53145 29.6892C1.50663 29.6285 1.49398 29.5634 1.49422 29.4978V20.9981H0.998053Z" fill="#3588CB"/>
<path d="M6.01562 22.1735V29.3731C6.71102 29.2276 7.9458 28.997 8.95506 28.997C10.4304 28.997 12.2008 31.4971 14.4242 31.4971C16.9126 31.4971 27.6216 25.1081 27.6216 25.1081C28.2324 24.7869 28.5895 24.1463 28.3489 23.4981C28.2313 23.189 27.9973 22.9389 27.6976 22.8021C27.3979 22.6652 27.0566 22.6525 26.7477 22.7668L18.901 25.4974L18.8202 25.5219C18.8783 25.2178 18.8408 24.9029 18.7128 24.6212C18.5848 24.3394 18.3727 24.1047 18.106 23.9497L12.9376 20.949C12.9376 20.949 12.0618 20.418 10.4492 20.418C9.31591 20.418 7.8274 21.102 6.01562 22.1735Z" fill="#FFC6A0"/>
<path d="M8.95506 27.9975C7.9458 27.9975 6.71102 28.2262 6.01562 28.3755V29.3751C6.71102 29.2277 7.9458 28.9972 8.95506 28.9972C10.4304 28.9972 12.2008 31.4972 14.4242 31.4972C16.9126 31.4972 27.6216 25.1082 27.6216 25.1082C28.2324 24.787 28.5895 24.1464 28.3489 23.4982C28.3377 23.4699 28.3207 23.4434 28.3095 23.417C28.1606 23.7162 27.9192 23.9589 27.6216 24.1086C27.6216 24.1086 16.9126 30.4976 14.4261 30.4976C12.2008 30.4976 10.4285 27.9975 8.95506 27.9975Z" fill="#FFAF7A"/>
<path d="M21.3823 1.00197C23.8873 1.00247 26.2895 2.00293 28.0611 3.78347C29.8327 5.56402 30.8287 7.97895 30.8302 10.4975C30.8302 11.745 30.5858 12.9802 30.111 14.1328C29.6362 15.2853 28.9403 16.3325 28.063 17.2146C27.1857 18.0967 26.1441 18.7964 24.9979 19.2738C23.8516 19.7512 22.623 19.9969 21.3823 19.9969H21.0929L21.7338 19.3544C21.8044 19.2832 21.852 19.1924 21.8706 19.0936C21.8891 18.9948 21.8777 18.8928 21.8378 18.8006C21.7978 18.7085 21.7312 18.6306 21.6466 18.577C21.5621 18.5234 21.4634 18.4967 21.3635 18.5002C21.2373 18.5023 21.117 18.5547 21.029 18.6457L19.5386 20.1443C19.4923 20.1908 19.4555 20.246 19.4305 20.3068C19.4054 20.3676 19.3925 20.4328 19.3925 20.4986C19.3925 20.5644 19.4054 20.6295 19.4305 20.6903C19.4555 20.7511 19.4923 20.8064 19.5386 20.8529L21.029 22.3514C21.5064 22.8106 22.1942 22.1227 21.7338 21.6465L21.0891 20.9965H21.3823C22.77 21.0196 24.1483 20.7644 25.4367 20.2458C26.7251 19.7271 27.8977 18.9555 28.8861 17.9759C29.8745 16.9963 30.6587 15.8284 31.1929 14.5406C31.7272 13.2527 32.0008 11.8707 31.9976 10.4753C31.9945 9.07996 31.7148 7.6992 31.1748 6.41377C30.6347 5.12835 29.8453 3.96406 28.8526 2.98895C27.8598 2.01384 26.6837 1.24749 25.393 0.734681C24.1023 0.221875 22.7229 -0.027091 21.3353 0.00233488C20.7151 0.0817007 20.7433 0.98496 21.3823 1.00197ZM21.3823 3.5001C20.4683 3.49985 19.5632 3.68068 18.7187 4.03224C17.8742 4.38381 17.1069 4.89922 16.4606 5.54904C15.8143 6.19886 15.3017 6.97035 14.952 7.81943C14.6024 8.66851 14.4225 9.57854 14.4228 10.4975C14.422 11.8821 14.8297 13.2358 15.5943 14.3874C16.3588 15.5389 17.4459 16.4366 18.718 16.9669C19.9901 17.4972 21.39 17.6362 22.7407 17.3664C24.0914 17.0967 25.3321 16.4301 26.306 15.4512C27.2799 14.4723 27.9431 13.225 28.2118 11.867C28.4805 10.5091 28.3426 9.10149 27.8155 7.82235C27.2885 6.5432 26.3959 5.44997 25.2508 4.68093C24.1056 3.9119 22.7594 3.50162 21.3823 3.50199V3.5001ZM21.3823 4.50162C22.1658 4.50162 22.9416 4.65678 23.6655 4.95825C24.3894 5.25971 25.0471 5.70158 25.6011 6.25861C26.1551 6.81565 26.5946 7.47694 26.8944 8.20474C27.1943 8.93254 27.3486 9.71259 27.3486 10.5004C27.3486 11.2881 27.1943 12.0682 26.8944 12.796C26.5946 13.5238 26.1551 14.1851 25.6011 14.7421C25.0471 15.2991 24.3894 15.741 23.6655 16.0425C22.9416 16.3439 22.1658 16.4991 21.3823 16.4991C20.5987 16.4991 19.8227 16.3439 19.0988 16.0424C18.3748 15.7409 17.717 15.2989 17.1629 14.7418C16.6088 14.1847 16.1692 13.5233 15.8693 12.7954C15.5695 12.0675 15.4151 11.2873 15.4151 10.4994C15.4151 9.71152 15.5695 8.93135 15.8693 8.20343C16.1692 7.47552 16.6088 6.81412 17.1629 6.257C17.717 5.69988 18.3748 5.25794 19.0988 4.95643C19.8227 4.65492 20.5987 4.50162 21.3823 4.50162ZM19.142 6.10217C19.056 6.10451 18.972 6.12856 18.8977 6.17208C18.0761 6.64799 17.4071 7.35021 16.9694 8.19591C16.6856 8.79683 17.5276 9.2409 17.8527 8.6551C18.2042 7.9786 18.7379 7.41737 19.3958 7.03566C19.8337 6.78434 19.6664 6.1135 19.142 6.10217ZM21.3767 6.60104C21.3133 6.60078 21.2506 6.6132 21.1921 6.63756C21.1336 6.66192 21.0805 6.69775 21.0359 6.74294C20.9913 6.78814 20.9561 6.84181 20.9323 6.90082C20.9085 6.95984 20.8967 7.02302 20.8974 7.08668V7.62712C20.4833 7.7306 20.1153 7.97005 19.8518 8.30754C19.5883 8.64504 19.4444 9.06128 19.4427 9.49033C19.4427 10.0553 19.6927 10.4862 20.1644 10.7186C20.5572 10.9132 21.0628 10.951 21.3259 10.9794C21.792 11.0285 22.0138 11.0682 22.166 11.1438C22.3183 11.2194 22.354 11.3214 22.354 11.499C22.3505 11.7518 22.2478 11.993 22.0683 12.17C21.8887 12.3469 21.6469 12.4454 21.3955 12.4439C20.9294 12.4231 20.6023 12.1661 20.4388 11.6427C20.2453 11.021 19.3187 11.3139 19.5104 11.9356C19.719 12.6026 20.1832 13.1582 20.8974 13.3528V13.9084C20.8974 14.5565 21.8672 14.5603 21.8672 13.9084V13.3604C22.2817 13.2572 22.6501 13.018 22.9139 12.6804C23.1778 12.3429 23.322 11.9265 23.3238 11.4972C23.3238 10.9321 23.0757 10.5032 22.5964 10.267C22.2281 10.0837 21.7977 10.0459 21.4349 10.0081C21.0703 9.97031 20.7771 9.93251 20.5967 9.84181C20.4445 9.76622 20.4144 9.66796 20.4144 9.48844C20.4144 8.96501 20.8354 8.54739 21.3654 8.54361C21.8353 8.56251 22.166 8.82139 22.3295 9.34483C22.5494 9.95897 23.4215 9.68119 23.2561 9.05382C23.0475 8.38677 22.5927 7.8331 21.8653 7.63657V7.08668C21.8661 7.02221 21.854 6.95824 21.8296 6.89859C21.8052 6.83895 21.7692 6.78485 21.7236 6.73952C21.678 6.69419 21.6237 6.65857 21.5641 6.63478C21.5045 6.61099 21.4408 6.59951 21.3767 6.60104ZM16.9111 9.50167C16.648 9.52813 16.4638 9.70953 16.4413 9.94763C16.4212 10.1296 16.4112 10.3125 16.4112 10.4956C16.4112 11.1646 17.4073 11.1646 17.4073 10.4956C17.4074 10.3492 17.4156 10.2028 17.4317 10.0572C17.4693 9.75867 17.2382 9.49978 16.9111 9.50167ZM10.444 19.9194C9.26373 19.9194 7.87483 20.5486 6.45397 21.3423C6.41681 21.1066 6.29718 20.892 6.11663 20.7372C5.93608 20.5823 5.70647 20.4974 5.46915 20.4976H0.9961C0.731918 20.4976 0.478556 20.6031 0.291751 20.791C0.104946 20.9788 0 21.2335 0 21.4991L0 30.4958C0 31.0571 0.451064 31.4973 0.9961 31.4973H5.46915C6.01043 31.4973 6.46525 31.0589 6.46525 30.4958V29.7929C7.1644 29.6549 8.13419 29.5 8.94798 29.5C9.50805 29.5 10.2034 30.0253 11.1225 30.6583C12.0396 31.2933 13.1448 32 14.4228 32C15.1482 32 16.3586 31.5654 17.7325 30.9569C19.2427 30.2723 20.7283 29.5342 22.1867 28.7441C25.175 27.1455 27.825 25.5638 27.8476 25.5506C28.6275 25.1367 29.1613 24.2656 28.8061 23.3208C28.6427 22.8904 28.3178 22.5417 27.9012 22.3498C27.4847 22.1579 27.0098 22.1381 26.5789 22.2947L19.2999 24.8268C19.2425 24.5534 19.128 24.2952 18.9641 24.0695C18.8002 23.8438 18.5905 23.6556 18.3489 23.5173L13.188 20.5203C13.1372 20.4901 12.1581 19.9137 10.444 19.9194ZM10.444 20.919C11.7784 20.919 12.549 21.3045 12.6805 21.3801L17.8546 24.3809C18.0834 24.5137 18.2504 24.7324 18.3187 24.989C18.3871 25.2456 18.3513 25.519 18.2192 25.749C18.0871 25.979 17.8696 26.1469 17.6144 26.2156C17.3592 26.2844 17.0873 26.2484 16.8585 26.1156L13.8702 24.3771C13.2989 24.0596 12.8121 24.9062 13.3703 25.2445L16.3623 26.9792C16.6152 27.1277 16.8977 27.2181 17.1895 27.2437C17.4813 27.2693 17.7751 27.2295 18.0498 27.1272C18.3244 27.0249 18.5731 26.8626 18.7779 26.6521C18.9827 26.4416 19.1385 26.188 19.2341 25.9096L26.9078 23.2414C27.3025 23.1035 27.7329 23.2754 27.8814 23.6723C28.0167 24.0351 27.8288 24.4357 27.3758 24.6719C27.3758 24.6719 24.6939 26.2705 21.7187 27.8616C20.2302 28.6553 18.6647 29.4508 17.3303 30.0423C15.9959 30.6319 14.9265 30.9985 14.4247 30.9985C13.4737 30.9985 12.5828 30.4505 11.6901 29.8363C10.8387 29.2486 9.84823 28.4777 8.94986 28.5003C8.11519 28.5185 7.28375 28.6109 6.46525 28.7762V22.4837C8.15862 21.501 9.48362 20.919 10.444 20.919ZM0.99422 21.4991H5.46727V30.4958H0.9961L0.99422 21.4991ZM2.48649 28.4985C2.41864 28.4943 2.35065 28.5041 2.28671 28.5273C2.22277 28.5505 2.16424 28.5866 2.11472 28.6335C2.0652 28.6803 2.02573 28.7368 1.99875 28.7996C1.97178 28.8623 1.95786 28.9299 1.95786 28.9983C1.95786 29.0666 1.97178 29.1342 1.99875 29.197C2.02573 29.2597 2.0652 29.3162 2.11472 29.3631C2.16424 29.4099 2.22277 29.446 2.28671 29.4692C2.35065 29.4925 2.41864 29.5023 2.48649 29.4981C2.61858 29.4981 2.74526 29.4453 2.83866 29.3514C2.93207 29.2575 2.98454 29.1301 2.98454 28.9973C2.98454 28.8645 2.93207 28.7371 2.83866 28.6432C2.74526 28.5493 2.61858 28.4966 2.48649 28.4966V28.4985Z" fill="black"/>
</svg>
