<svg width="33" height="32" viewBox="0 0 33 32" fill="none" xmlns="http://www.w3.org/2000/svg">
<path fill-rule="evenodd" clip-rule="evenodd" d="M8.86827 29.7933C8.07858 29.8116 7.30095 29.5973 6.63213 29.1771C5.31627 28.3224 4.62109 26.6612 4.62109 24.3721C4.62109 19.7376 8.49806 14.158 10.8098 11.2455C10.9021 11.1351 11.0339 11.0651 11.177 11.0505C11.3202 11.0359 11.4633 11.0778 11.5761 11.1672C11.6888 11.2567 11.7621 11.3866 11.7803 11.5294C11.7986 11.6721 11.7603 11.8163 11.6738 11.9313C9.88509 14.1856 5.72454 19.9098 5.72454 24.3721C5.72454 26.2689 6.24592 27.6107 7.23351 28.2518C8.24868 28.91 9.75323 28.8284 11.5855 28.0118C11.7192 27.9523 11.871 27.9483 12.0077 28.0007C12.1443 28.0531 12.2545 28.1576 12.3141 28.2913C12.3736 28.4249 12.3776 28.5768 12.3252 28.7134C12.2728 28.85 12.1683 28.9603 12.0346 29.0198C11.0451 29.4968 9.96627 29.7603 8.86827 29.7933ZM15.6721 9.37955C15.5258 9.37955 15.3855 9.32142 15.282 9.21795C15.1785 9.11448 15.1204 8.97415 15.1204 8.82782V4.41403C15.1204 4.2677 15.1785 4.12737 15.282 4.0239C15.3855 3.92043 15.5258 3.8623 15.6721 3.8623C15.8185 3.8623 15.9588 3.92043 16.0623 4.0239C16.1657 4.12737 16.2239 4.2677 16.2239 4.41403V8.82782C16.2239 8.97415 16.1657 9.11448 16.0623 9.21795C15.9588 9.32142 15.8185 9.37955 15.6721 9.37955ZM12.9135 9.37955C12.7672 9.37955 12.6268 9.32142 12.5234 9.21795C12.4199 9.11448 12.3618 8.97415 12.3618 8.82782V6.0692C12.3618 5.92287 12.4199 5.78254 12.5234 5.67907C12.6268 5.57561 12.7672 5.51748 12.9135 5.51748C13.0598 5.51748 13.2002 5.57561 13.3036 5.67907C13.4071 5.78254 13.4652 5.92287 13.4652 6.0692V8.82782C13.4652 8.97415 13.4071 9.11448 13.3036 9.21795C13.2002 9.32142 13.0598 9.37955 12.9135 9.37955Z" fill="#547580"/>
<path fill-rule="evenodd" clip-rule="evenodd" d="M12.9146 2.2069C12.9146 3.42566 9.16784 4.41379 7.94908 4.41379C7.36378 4.41379 6.80245 4.18128 6.38857 3.76741C5.9747 3.35353 5.74219 2.7922 5.74219 2.2069C5.74219 1.62159 5.9747 1.06026 6.38857 0.646385C6.80245 0.232512 7.36378 0 7.94908 0C9.16784 0 12.9146 0.988138 12.9146 2.2069Z" fill="#41767F"/>
<path fill-rule="evenodd" clip-rule="evenodd" d="M16.2232 4.41393C16.2232 5.63269 12.4764 6.62082 11.2577 6.62082C10.6724 6.62082 10.111 6.38831 9.69717 5.97444C9.28329 5.56057 9.05078 4.99923 9.05078 4.41393C9.05078 3.82862 9.28329 3.26729 9.69717 2.85342C10.111 2.43954 10.6724 2.20703 11.2577 2.20703C12.4764 2.20703 16.2232 3.19517 16.2232 4.41393Z" fill="#9FC9D3"/>
<path fill-rule="evenodd" clip-rule="evenodd" d="M18.9814 9.37955C19.1277 9.37955 19.2681 9.32142 19.3715 9.21795C19.475 9.11448 19.5331 8.97415 19.5331 8.82782V4.41403C19.5331 4.2677 19.475 4.12737 19.3715 4.0239C19.2681 3.92043 19.1277 3.8623 18.9814 3.8623C18.8351 3.8623 18.6948 3.92043 18.5913 4.0239C18.4878 4.12737 18.4297 4.2677 18.4297 4.41403V8.82782C18.4297 8.97415 18.4878 9.11448 18.5913 9.21795C18.6948 9.32142 18.8351 9.37955 18.9814 9.37955ZM21.74 9.37955C21.8864 9.37955 22.0267 9.32142 22.1302 9.21795C22.2336 9.11448 22.2918 8.97415 22.2918 8.82782V6.0692C22.2918 5.92287 22.2336 5.78254 22.1302 5.67907C22.0267 5.57561 21.8864 5.51748 21.74 5.51748C21.5937 5.51748 21.4534 5.57561 21.3499 5.67907C21.2464 5.78254 21.1883 5.92287 21.1883 6.0692V8.82782C21.1883 8.97415 21.2464 9.11448 21.3499 9.21795C21.4534 9.32142 21.5937 9.37955 21.74 9.37955Z" fill="#547580"/>
<path fill-rule="evenodd" clip-rule="evenodd" d="M21.7422 2.2069C21.7422 3.42566 25.4889 4.41379 26.7077 4.41379C27.293 4.41379 27.8543 4.18128 28.2682 3.76741C28.6821 3.35353 28.9146 2.7922 28.9146 2.2069C28.9146 1.62159 28.6821 1.06026 28.2682 0.646385C27.8543 0.232512 27.293 0 26.7077 0C25.4889 0 21.7422 0.988138 21.7422 2.2069Z" fill="#41767F"/>
<path fill-rule="evenodd" clip-rule="evenodd" d="M18.4297 4.41393C18.4297 5.63269 22.1764 6.62082 23.3952 6.62082C23.9805 6.62082 24.5418 6.38831 24.9557 5.97444C25.3696 5.56057 25.6021 4.99923 25.6021 4.41393C25.6021 3.82862 25.3696 3.26729 24.9557 2.85342C24.5418 2.43954 23.9805 2.20703 23.3952 2.20703C22.1764 2.20703 18.4297 3.19517 18.4297 4.41393Z" fill="#9FC9D3"/>
<path fill-rule="evenodd" clip-rule="evenodd" d="M23.9484 26.8354V27.5858C23.9484 28.1711 23.7159 28.7324 23.302 29.1463C22.8882 29.5602 22.3268 29.7927 21.7415 29.7927H12.9139C12.3286 29.7927 11.7673 29.5602 11.3534 29.1463C10.9395 28.7324 10.707 28.1711 10.707 27.5858V9.9306C10.7079 9.63821 10.8244 9.35805 11.0312 9.15131C11.2379 8.94456 11.5181 8.82802 11.8105 8.82715H22.845C23.1373 8.82802 23.4175 8.94456 23.6243 9.15131C23.831 9.35805 23.9475 9.63821 23.9484 9.9306V26.8354Z" fill="#E57E25"/>
<path fill-rule="evenodd" clip-rule="evenodd" d="M23.9484 9.9306V11.034H10.707V9.9306C10.7079 9.63821 10.8244 9.35805 11.0312 9.15131C11.2379 8.94456 11.5181 8.82802 11.8105 8.82715H22.845C23.1373 8.82802 23.4175 8.94456 23.6243 9.15131C23.831 9.35805 23.9475 9.63821 23.9484 9.9306ZM22.2932 29.7209V30.8961C22.2924 31.1885 22.1758 31.4687 21.9691 31.6754C21.7623 31.8822 21.4822 31.9987 21.1898 31.9996H13.4657C13.1733 31.9987 12.8931 31.8822 12.6864 31.6754C12.4796 31.4687 12.3631 31.1885 12.3622 30.8961V29.7209H22.2932Z" fill="#C03A2B"/>
<path fill-rule="evenodd" clip-rule="evenodd" d="M19.5356 13.2412H23.9494C24.0957 13.2412 24.236 13.2993 24.3395 13.4028C24.443 13.5063 24.5011 13.6466 24.5011 13.7929V25.3791C24.5011 25.9644 24.2686 26.5258 23.8547 26.9397C23.4408 27.3535 22.8795 27.586 22.2942 27.586H21.1907C20.6054 27.586 20.0441 27.3535 19.6302 26.9397C19.2163 26.5258 18.9838 25.9644 18.9838 25.3791V13.7929C18.9838 13.6466 19.042 13.5063 19.1454 13.4028C19.2489 13.2993 19.3892 13.2412 19.5356 13.2412ZM10.708 20.9653H15.1218C15.2681 20.9653 15.4084 21.0235 15.5119 21.1269C15.6154 21.2304 15.6735 21.3707 15.6735 21.5171V25.3791C15.6735 25.9644 15.441 26.5258 15.0271 26.9397C14.6132 27.3535 14.0519 27.586 13.4666 27.586H12.3631C11.7778 27.586 11.2165 27.3535 10.8026 26.9397C10.3888 26.5258 10.1563 25.9644 10.1562 25.3791V21.5171C10.1562 21.3707 10.2144 21.2304 10.3178 21.1269C10.4213 21.0235 10.5616 20.9653 10.708 20.9653Z" fill="#F3D55B"/>
<path fill-rule="evenodd" clip-rule="evenodd" d="M24.5011 13.7929V15.4481H18.9838V13.7929C18.9838 13.6466 19.042 13.5063 19.1454 13.4028C19.2489 13.2993 19.3892 13.2412 19.5356 13.2412H23.9494C24.0957 13.2412 24.236 13.2993 24.3395 13.4028C24.443 13.5063 24.5011 13.6466 24.5011 13.7929ZM15.6735 21.5171V23.1722H10.1562V21.5171C10.1562 21.3707 10.2144 21.2304 10.3178 21.1269C10.4213 21.0235 10.5616 20.9653 10.708 20.9653H15.1218C15.2681 20.9653 15.4084 21.0235 15.5119 21.1269C15.6154 21.2304 15.6735 21.3707 15.6735 21.5171Z" fill="#F9EAB0"/>
</svg>
