<svg width="16" height="16" viewBox="0 0 16 16" fill="none" xmlns="http://www.w3.org/2000/svg">
<path d="M7.9987 14.6668C4.32151 14.6668 1.33203 11.6774 1.33203 8.00016M7.9987 14.6668C11.6759 14.6668 14.6654 11.6774 14.6654 8.00016M7.9987 14.6668C11.6748 14.6668 14.6654 11.6763 14.6654 8.00016M7.9987 14.6668C4.32256 14.6668 1.33203 11.6763 1.33203 8.00016M1.33203 8.00016C1.33203 4.32297 4.32151 1.3335 7.9987 1.3335M1.33203 8.00016C1.33203 4.32402 4.32256 1.3335 7.9987 1.3335M14.6654 8.00016C14.6654 4.32297 11.6759 1.3335 7.9987 1.3335M14.6654 8.00016C14.6654 4.32402 11.6748 1.3335 7.9987 1.3335" fill="#EF4444" stroke="#EF4444"/>
<mask id="path-2-inside-1_1971_210350" fill="white">
<path d="M8 9.16683C7.72667 9.16683 7.5 8.94016 7.5 8.66683V5.3335C7.5 5.06016 7.72667 4.8335 8 4.8335C8.27333 4.8335 8.5 5.06016 8.5 5.3335V8.66683C8.5 8.94016 8.27333 9.16683 8 9.16683Z"/>
</mask>
<path d="M8 9.16683C7.72667 9.16683 7.5 8.94016 7.5 8.66683V5.3335C7.5 5.06016 7.72667 4.8335 8 4.8335C8.27333 4.8335 8.5 5.06016 8.5 5.3335V8.66683C8.5 8.94016 8.27333 9.16683 8 9.16683Z" fill="#EF4444"/>
<path d="M8 8.16683C8.27895 8.16683 8.5 8.38788 8.5 8.66683H6.5C6.5 9.49245 7.17438 10.1668 8 10.1668V8.16683ZM8.5 8.66683V5.3335H6.5V8.66683H8.5ZM8.5 5.3335C8.5 5.61245 8.27895 5.8335 8 5.8335V3.8335C7.17438 3.8335 6.5 4.50788 6.5 5.3335H8.5ZM8 5.8335C7.72105 5.8335 7.5 5.61245 7.5 5.3335H9.5C9.5 4.50788 8.82562 3.8335 8 3.8335V5.8335ZM7.5 5.3335V8.66683H9.5V5.3335H7.5ZM7.5 8.66683C7.5 8.38788 7.72105 8.16683 8 8.16683V10.1668C8.82562 10.1668 9.5 9.49245 9.5 8.66683H7.5Z" fill="#EF4444" mask="url(#path-2-inside-1_1971_210350)"/>
<path d="M7.93767 10.8185L7.93767 10.8185C7.91785 10.8103 7.89829 10.7992 7.87855 10.784C7.87198 10.7759 7.86754 10.7696 7.86436 10.7647C7.85937 10.7571 7.85563 10.7499 7.85204 10.7406L7.85222 10.7405L7.8469 10.7278C7.83488 10.6989 7.83203 10.6776 7.83203 10.6668C7.83203 10.6559 7.83488 10.6346 7.8469 10.6057C7.85494 10.5864 7.86562 10.5674 7.88017 10.5482C7.89937 10.5337 7.91839 10.523 7.93767 10.515C7.9746 10.4996 8.0228 10.4996 8.05972 10.515C8.07901 10.523 8.09803 10.5337 8.11722 10.5482C8.13178 10.5674 8.14246 10.5864 8.15049 10.6057C8.16252 10.6346 8.16536 10.6559 8.16536 10.6668C8.16536 10.6776 8.16252 10.6989 8.15049 10.7278L8.15032 10.7277L8.14536 10.7406C8.14177 10.7499 8.13802 10.7571 8.13303 10.7647C8.12985 10.7696 8.12541 10.7759 8.11885 10.784C8.0991 10.7992 8.07955 10.8103 8.05972 10.8185L8.05972 10.8185C8.03087 10.8306 8.00951 10.8334 7.9987 10.8334C7.98788 10.8334 7.96653 10.8306 7.93767 10.8185Z" fill="#EF4444" stroke="#EF4444"/>
</svg>
