<svg width="17" height="16" viewBox="0 0 17 16" fill="none" xmlns="http://www.w3.org/2000/svg">
<path d="M8.13542 14.6668C4.45823 14.6668 1.46875 11.6774 1.46875 8.00016M8.13542 14.6668C11.8126 14.6668 14.8021 11.6774 14.8021 8.00016M8.13542 14.6668C11.8116 14.6668 14.8021 11.6763 14.8021 8.00016M8.13542 14.6668C4.45927 14.6668 1.46875 11.6763 1.46875 8.00016M1.46875 8.00016C1.46875 4.32297 4.45823 1.3335 8.13542 1.3335M1.46875 8.00016C1.46875 4.32402 4.45927 1.3335 8.13542 1.3335M14.8021 8.00016C14.8021 4.32297 11.8126 1.3335 8.13542 1.3335M14.8021 8.00016C14.8021 4.32402 11.8116 1.3335 8.13542 1.3335" fill="#DD8E0A" stroke="#DD8E0A"/>
<mask id="path-2-inside-1_1972_108270" fill="white">
<path d="M8.13672 9.16683C7.86339 9.16683 7.63672 8.94016 7.63672 8.66683V5.3335C7.63672 5.06016 7.86339 4.8335 8.13672 4.8335C8.41005 4.8335 8.63672 5.06016 8.63672 5.3335V8.66683C8.63672 8.94016 8.41005 9.16683 8.13672 9.16683Z"/>
</mask>
<path d="M8.13672 9.16683C7.86339 9.16683 7.63672 8.94016 7.63672 8.66683V5.3335C7.63672 5.06016 7.86339 4.8335 8.13672 4.8335C8.41005 4.8335 8.63672 5.06016 8.63672 5.3335V8.66683C8.63672 8.94016 8.41005 9.16683 8.13672 9.16683Z" fill="#DD8E0A"/>
<path d="M8.13672 8.16683C8.41567 8.16683 8.63672 8.38788 8.63672 8.66683H6.63672C6.63672 9.49245 7.3111 10.1668 8.13672 10.1668V8.16683ZM8.63672 8.66683V5.3335H6.63672V8.66683H8.63672ZM8.63672 5.3335C8.63672 5.61245 8.41567 5.8335 8.13672 5.8335V3.8335C7.3111 3.8335 6.63672 4.50788 6.63672 5.3335H8.63672ZM8.13672 5.8335C7.85777 5.8335 7.63672 5.61245 7.63672 5.3335H9.63672C9.63672 4.50788 8.96234 3.8335 8.13672 3.8335V5.8335ZM7.63672 5.3335V8.66683H9.63672V5.3335H7.63672ZM7.63672 8.66683C7.63672 8.38788 7.85777 8.16683 8.13672 8.16683V10.1668C8.96234 10.1668 9.63672 9.49245 9.63672 8.66683H7.63672Z" fill="#DD8E0A" mask="url(#path-2-inside-1_1972_108270)"/>
<path d="M8.07439 10.8185L8.07439 10.8185C8.05457 10.8103 8.03501 10.7992 8.01526 10.784C8.0087 10.7759 8.00426 10.7696 8.00108 10.7647C7.99609 10.7571 7.99234 10.7499 7.98876 10.7406L7.98893 10.7405L7.98362 10.7278C7.9716 10.6989 7.96875 10.6776 7.96875 10.6668C7.96875 10.6559 7.9716 10.6346 7.98362 10.6057C7.99166 10.5864 8.00234 10.5674 8.01689 10.5482C8.03608 10.5337 8.05511 10.523 8.07439 10.515C8.11131 10.4996 8.15952 10.4996 8.19644 10.515C8.21572 10.523 8.23475 10.5337 8.25394 10.5482C8.2685 10.5674 8.27918 10.5864 8.28721 10.6057C8.29923 10.6346 8.30208 10.6559 8.30208 10.6668C8.30208 10.6776 8.29924 10.6989 8.28721 10.7278L8.28704 10.7277L8.28208 10.7406C8.27849 10.7499 8.27474 10.7571 8.26975 10.7647C8.26657 10.7696 8.26213 10.7759 8.25557 10.784C8.23582 10.7992 8.21627 10.8103 8.19644 10.8185L8.19644 10.8185C8.16759 10.8306 8.14623 10.8334 8.13542 10.8334C8.1246 10.8334 8.10325 10.8306 8.07439 10.8185Z" fill="#DD8E0A" stroke="#DD8E0A"/>
</svg>
