<svg width="56" height="56" viewBox="0 0 56 56" fill="none" xmlns="http://www.w3.org/2000/svg">
<path d="M39.2873 21.8295H29.6336L38.5827 8.11523H27.3082L16.7383 28.6867H25.0532L16.7383 47.8867L39.2873 21.8295Z" fill="#FFDD09"/>
<path d="M30.1268 8.11523H27.3082L16.7383 28.6867H19.5569L30.1268 8.11523Z" fill="white"/>
<path d="M35.7656 21.8291L18.8538 41.372L16.0352 47.8863L38.5842 21.8291H35.7656Z" fill="#FD9808"/>
<path d="M16.7399 48.5716C16.599 48.5716 16.4581 48.5716 16.3876 48.503C16.1057 48.2973 15.9648 47.9544 16.1057 47.6802L23.9979 29.3716H16.7399C16.5285 29.3716 16.2467 29.2344 16.1057 29.0287C15.9648 28.823 15.9648 28.5487 16.1057 28.343L26.6756 7.77159C26.8166 7.56588 27.028 7.42871 27.3098 7.42871H38.5843C38.8662 7.42871 39.0776 7.56588 39.2185 7.77159C39.3595 7.97731 39.3595 8.25157 39.2185 8.45728L30.974 21.143H39.289C39.5708 21.143 39.7822 21.2802 39.9232 21.5545C40.0641 21.8287 39.9936 22.103 39.8527 22.3088L17.3036 48.3659C17.1627 48.503 16.9513 48.5716 16.7399 48.5716ZM17.8673 28.0001H25.0549C25.2663 28.0001 25.4777 28.1373 25.6186 28.2744C25.7596 28.4801 25.7596 28.6858 25.6891 28.8915L19.2062 43.9772L37.8092 22.5144H29.6351C29.3533 22.5144 29.1419 22.3772 29.0009 22.1715C28.86 21.9658 28.86 21.6915 29.0009 21.4858L37.316 8.80017H27.7326L17.8673 28.0001Z" fill="black"/>
</svg>
