<svg width="32" height="32" viewBox="0 0 32 32" fill="none" xmlns="http://www.w3.org/2000/svg">
<g clip-path="url(#clip0_1969_121118)">
<path d="M18.5003 22.4529C18.2228 21.9525 17.8166 21.5353 17.3238 21.2446C16.8309 20.9539 16.2693 20.8003 15.6971 20.7996H12.9067C11.9228 20.7984 10.9684 20.4636 10.1995 19.8497C9.24131 19.0853 8.05239 18.6681 6.82667 18.6663H5.76853C5.65862 18.3554 5.45534 18.0861 5.18651 17.8951C4.91767 17.7042 4.59641 17.601 4.26667 17.5996H1.6C1.17565 17.5996 0.768687 17.7682 0.468629 18.0682C0.168571 18.3683 0 18.7753 0 19.1996L0 30.3996C0 30.824 0.168571 31.2309 0.468629 31.531C0.768687 31.831 1.17565 31.9996 1.6 31.9996H4.26667C4.49042 31.9989 4.71151 31.951 4.91552 31.8592C5.11953 31.7673 5.30188 31.6334 5.45067 31.4663H18.8267C19.6094 31.4665 20.3772 31.2513 21.0459 30.8444L31.04 24.7601C31.2739 24.6191 31.4763 24.4313 31.6344 24.2085C31.7926 23.9858 31.9032 23.7329 31.9593 23.4655C32.0154 23.1981 32.0158 22.9221 31.9605 22.6546C31.9052 22.387 31.7954 22.1338 31.6379 21.9105C31.6269 21.8919 31.6146 21.8741 31.6011 21.8572C31.3493 21.5229 30.9991 21.2759 30.5997 21.1509C30.2004 21.0259 29.7718 21.0291 29.3744 21.1601L19.4971 24.4497C19.3344 24.5049 19.1638 24.533 18.992 24.5329H18.688C18.8117 24.1938 18.859 23.8315 18.8265 23.472C18.7941 23.1124 18.6827 22.7645 18.5003 22.4529ZM4.8 30.3996C4.8 30.5411 4.74381 30.6767 4.64379 30.7767C4.54377 30.8768 4.40812 30.9329 4.26667 30.9329H1.6C1.45855 30.9329 1.3229 30.8768 1.22288 30.7767C1.12286 30.6767 1.06667 30.5411 1.06667 30.3996V19.1996C1.06667 19.0582 1.12286 18.9225 1.22288 18.8225C1.3229 18.7225 1.45855 18.6663 1.6 18.6663H4.26667C4.40812 18.6663 4.54377 18.7225 4.64379 18.8225C4.74381 18.9225 4.8 19.0582 4.8 19.1996V30.3996ZM18.992 25.5996C19.2797 25.5999 19.5654 25.5529 19.8379 25.4604L29.7067 22.1703C29.8854 22.1112 30.0778 22.1076 30.2587 22.1598C30.4395 22.2121 30.6003 22.3178 30.72 22.4631C30.728 22.4764 30.7365 22.4887 30.7456 22.5015C30.8237 22.6047 30.8791 22.7232 30.9083 22.8493C30.9375 22.9754 30.9399 23.1062 30.9152 23.2332C30.8904 23.3603 30.8393 23.4807 30.7649 23.5866C30.6906 23.6926 30.5948 23.7817 30.4837 23.8481L20.4912 29.9335C19.9899 30.2385 19.4139 30.3996 18.8267 30.3996H5.86667V19.7329H6.82667C7.81055 19.7341 8.76494 20.069 9.53387 20.6828C10.492 21.4472 11.6809 21.8644 12.9067 21.8663H15.6965C16.4432 21.8759 17.1344 22.2636 17.5317 22.8956C17.5429 22.9255 17.5568 22.9543 17.5733 22.9809C17.8645 23.4663 17.8325 24.0796 17.4933 24.5329H14.2507C13.1979 24.5336 12.1687 24.8451 11.2923 25.4284L10.9024 25.6897C10.7862 25.7692 10.7061 25.8914 10.6796 26.0297C10.653 26.1679 10.6822 26.3111 10.7606 26.428C10.8391 26.5448 10.9606 26.626 11.0986 26.6537C11.2366 26.6815 11.38 26.6536 11.4976 26.5761L11.8837 26.3159C12.5849 25.8492 13.4084 25.6 14.2507 25.5996H18.992Z" fill="#5A687D"/>
<path d="M29.3323 5.55546e-08H22.9323C22.5368 -8.0664e-05 22.1463 0.0878023 21.789 0.257283C21.4316 0.426764 21.1165 0.673599 20.8663 0.979908C20.6162 1.28622 20.4373 1.64433 20.3426 2.02831C20.248 2.41229 20.2399 2.81251 20.319 3.2H18.6656C18.0158 3.20208 17.3891 3.44188 16.9039 3.87417C16.4186 4.30646 16.1083 4.90135 16.0315 5.54667C15.6513 5.62839 15.302 5.81607 15.024 6.088L12.8907 8.22133C12.692 8.41895 12.5344 8.65399 12.4271 8.91288C12.3199 9.17177 12.265 9.44936 12.2656 9.7296V17.6C12.2656 18.1658 12.4904 18.7084 12.8905 19.1085C13.2905 19.5086 13.8332 19.7333 14.399 19.7333H18.6656C19.2314 19.7333 19.774 19.5086 20.1741 19.1085C20.5742 18.7084 20.799 18.1658 20.799 17.6V9.7296C20.7997 9.44927 20.7448 9.17158 20.6376 8.91259C20.5303 8.65361 20.3727 8.41848 20.1739 8.2208L18.0406 6.08747C17.7784 5.83148 17.4521 5.65076 17.096 5.56427C17.1663 5.19936 17.3613 4.87028 17.6477 4.6335C17.9341 4.39673 18.294 4.26703 18.6656 4.26667H20.671L22.1136 8.35413C22.2625 8.77102 22.5128 9.14429 22.8419 9.44028C23.171 9.73627 23.5687 9.94568 23.999 10.0496V12.0459C23.9984 12.3285 24.111 12.6005 24.3115 12.8L24.5323 13.0208V15.3408L24.1744 16.0565C24.101 16.2049 24.0629 16.3681 24.0629 16.5336C24.0629 16.6991 24.101 16.8623 24.1744 17.0107L24.4902 17.6411L24.1307 18.7184C24.0671 18.9062 24.0576 19.1082 24.1031 19.3012C24.1487 19.4942 24.2475 19.6705 24.3883 19.8101L25.3782 20.8C25.5782 21 25.8495 21.1123 26.1323 21.1123C26.4151 21.1123 26.6864 21 26.8864 20.8L27.8758 19.8107C28.1638 19.5259 28.2635 19.1019 28.1339 18.7184L27.775 17.6411L28.0902 17.0101C28.1636 16.8618 28.2017 16.6986 28.2017 16.5331C28.2017 16.3676 28.1636 16.2043 28.0902 16.056L27.7323 15.3408V13.0208L27.9531 12.8C28.1536 12.6005 28.2662 12.3291 28.2656 12.0459V10.0496C28.6959 9.94568 29.0936 9.73627 29.4227 9.44028C29.7518 9.14429 30.0021 8.77102 30.151 8.35413L31.8454 3.55413C31.9873 3.15208 32.0307 2.72187 31.972 2.29958C31.9133 1.87729 31.7542 1.47522 31.5081 1.1271C31.2619 0.778981 30.9359 0.494956 30.5573 0.298845C30.1787 0.102735 29.7587 0.000254746 29.3323 5.55546e-08ZM16.5323 9.06667C16.6737 9.06667 16.8094 9.12286 16.9094 9.22288C17.0094 9.3229 17.0656 9.45855 17.0656 9.6C17.0656 9.74145 17.0094 9.8771 16.9094 9.97712C16.8094 10.0771 16.6737 10.1333 16.5323 10.1333C16.3908 10.1333 16.2552 10.0771 16.1552 9.97712C16.0552 9.8771 15.999 9.74145 15.999 9.6C15.999 9.45855 16.0552 9.3229 16.1552 9.22288C16.2552 9.12286 16.3908 9.06667 16.5323 9.06667ZM17.2864 6.8416L19.4198 8.97493C19.6203 9.17493 19.7328 9.4464 19.7323 9.7296V17.6C19.7323 17.8829 19.6199 18.1542 19.4199 18.3542C19.2198 18.5543 18.9485 18.6667 18.6656 18.6667H14.399C14.1161 18.6667 13.8448 18.5543 13.6447 18.3542C13.4447 18.1542 13.3323 17.8829 13.3323 17.6V9.7296C13.332 9.5894 13.3594 9.45053 13.4131 9.321C13.4667 9.19147 13.5455 9.07385 13.6448 8.97493L15.7782 6.8416C15.8443 6.7776 15.9184 6.72213 15.999 6.6768V8.09813C15.6431 8.22394 15.3432 8.4715 15.1522 8.79706C14.9613 9.12261 14.8915 9.50519 14.9553 9.87719C15.0192 10.2492 15.2124 10.5866 15.501 10.8299C15.7896 11.0732 16.1549 11.2066 16.5323 11.2066C16.9097 11.2066 17.275 11.0732 17.5636 10.8299C17.8522 10.5866 18.0454 10.2492 18.1093 9.87719C18.1731 9.50519 18.1033 9.12261 17.9124 8.79706C17.7214 8.4715 17.4215 8.22394 17.0656 8.09813V6.6768C17.1456 6.72213 17.2203 6.77707 17.2864 6.8416ZM27.199 12.0459L26.9782 12.2667C26.8788 12.3654 26.8 12.483 26.7463 12.6124C26.6927 12.7419 26.6653 12.8807 26.6656 13.0208V15.3408C26.6656 15.5061 26.7046 15.6693 26.7782 15.8176L27.136 16.5333L26.8214 17.1632C26.758 17.2884 26.7203 17.4249 26.7103 17.5648C26.7003 17.7047 26.7183 17.8452 26.7632 17.9781L27.1216 19.056L26.1323 20.0459L25.1424 19.056L25.5014 17.9781C25.5462 17.8453 25.5643 17.705 25.5544 17.5651C25.5445 17.4253 25.5069 17.2889 25.4438 17.1637L25.1286 16.5333L25.4864 15.8176C25.56 15.6693 25.5984 15.5061 25.599 15.3408V13.0208C25.5995 12.7381 25.487 12.4661 25.2864 12.2667L25.0656 12.0459V10.1333H27.199V12.0459ZM30.839 3.2L29.1446 8C29.0343 8.31191 28.83 8.58197 28.5599 8.77299C28.2898 8.96402 27.9671 9.06662 27.6363 9.06667H24.6283C24.2975 9.06662 23.9748 8.96402 23.7047 8.77299C23.4346 8.58197 23.2303 8.31191 23.12 8L21.8022 4.26667H23.0288C23.1388 4.57781 23.3424 4.84732 23.6115 5.03828C23.8807 5.22924 24.2023 5.3323 24.5323 5.33333H27.7323C28.1566 5.33333 28.5636 5.16476 28.8637 4.8647C29.1637 4.56465 29.3323 4.15768 29.3323 3.73333C29.3323 3.30899 29.1637 2.90202 28.8637 2.60196C28.5636 2.3019 28.1566 2.13333 27.7323 2.13333H24.5323C24.2026 2.1347 23.8813 2.23791 23.6125 2.42885C23.3436 2.61978 23.1403 2.88912 23.0304 3.2H21.4256C21.3404 2.95882 21.3142 2.7007 21.3492 2.4473C21.3843 2.1939 21.4796 1.95261 21.6272 1.74365C21.7748 1.5347 21.9703 1.36417 22.1974 1.24638C22.4245 1.12859 22.6765 1.06696 22.9323 1.06667H29.3323C29.5882 1.0667 29.8405 1.12814 30.0677 1.24583C30.295 1.36351 30.4908 1.53401 30.6385 1.743C30.7863 1.95199 30.8818 2.19338 30.9169 2.44691C30.9521 2.70043 30.9259 2.95869 30.8406 3.2H30.839ZM23.999 3.73333C23.999 3.59188 24.0552 3.45623 24.1552 3.35621C24.2552 3.25619 24.3909 3.2 24.5323 3.2H27.7323C27.8737 3.2 28.0094 3.25619 28.1094 3.35621C28.2094 3.45623 28.2656 3.59188 28.2656 3.73333C28.2656 3.87478 28.2094 4.01044 28.1094 4.11046C28.0094 4.21048 27.8737 4.26667 27.7323 4.26667H24.5323C24.3909 4.26667 24.2552 4.21048 24.1552 4.11046C24.0552 4.01044 23.999 3.87478 23.999 3.73333Z" fill="#5A687D"/>
<path d="M15.4651 12.2666C15.1822 12.2666 14.9109 12.379 14.7109 12.579C14.5108 12.7791 14.3984 13.0504 14.3984 13.3333V16.5333C14.3984 16.8162 14.5108 17.0875 14.7109 17.2875C14.9109 17.4876 15.1822 17.5999 15.4651 17.5999H17.5984C17.8813 17.5999 18.1526 17.4876 18.3527 17.2875C18.5527 17.0875 18.6651 16.8162 18.6651 16.5333V13.3333C18.6651 13.0504 18.5527 12.7791 18.3527 12.579C18.1526 12.379 17.8813 12.2666 17.5984 12.2666H15.4651ZM15.4651 16.5333V13.3333H17.5984V16.5333H15.4651Z" fill="#5A687D"/>
</g>
<defs>
<clipPath id="clip0_1969_121118">
<rect width="32" height="32" fill="white"/>
</clipPath>
</defs>
</svg>
