<svg width="25" height="24" viewBox="0 0 25 24" fill="none" xmlns="http://www.w3.org/2000/svg">
<path d="M14.4884 2H9.78844C8.74844 2 7.89844 2.84 7.89844 3.88V4.82C7.89844 5.86 8.73844 6.7 9.77844 6.7H14.4884C15.5284 6.7 16.3684 5.86 16.3684 4.82V3.88C16.3784 2.84 15.5284 2 14.4884 2Z" fill="#972F8A"/>
<path d="M17.3758 4.81998C17.3758 6.40998 16.0758 7.70998 14.4858 7.70998H9.78578C8.19578 7.70998 6.89578 6.40998 6.89578 4.81998C6.89578 4.25998 6.29578 3.90998 5.79578 4.16998C4.38578 4.91998 3.42578 6.40998 3.42578 8.11998V17.53C3.42578 19.99 5.43578 22 7.89578 22H16.3758C18.8358 22 20.8458 19.99 20.8458 17.53V8.11998C20.8458 6.40998 19.8858 4.91998 18.4758 4.16998C17.9758 3.90998 17.3758 4.25998 17.3758 4.81998ZM12.5158 16.95H8.13578C7.72578 16.95 7.38578 16.61 7.38578 16.2C7.38578 15.79 7.72578 15.45 8.13578 15.45H12.5158C12.9258 15.45 13.2658 15.79 13.2658 16.2C13.2658 16.61 12.9258 16.95 12.5158 16.95ZM15.1358 12.95H8.13578C7.72578 12.95 7.38578 12.61 7.38578 12.2C7.38578 11.79 7.72578 11.45 8.13578 11.45H15.1358C15.5458 11.45 15.8858 11.79 15.8858 12.2C15.8858 12.61 15.5458 12.95 15.1358 12.95Z" fill="#972F8A"/>
</svg>
