<svg width="18" height="18" viewBox="0 0 18 18" fill="none" xmlns="http://www.w3.org/2000/svg">
<path d="M9.00016 10.1776C7.65043 10.1776 6.54766 9.08079 6.54766 7.72508C6.54766 6.37088 7.64891 5.28008 9.00016 5.28008C10.3499 5.28008 11.4527 6.37686 11.4527 7.73258C11.4527 9.08678 10.3514 10.1776 9.00016 10.1776ZM9.00016 5.50508C7.77786 5.50508 6.77266 6.50032 6.77266 7.73258C6.77266 8.96361 7.76913 9.96008 9.00016 9.96008C10.2312 9.96008 11.2277 8.96361 11.2277 7.73258C11.2277 6.50032 10.2224 5.50508 9.00016 5.50508Z" fill="#7B8697" stroke="#7B8697" stroke-width="0.9"/>
<path d="M2.60648 6.34762L2.60659 6.34711C3.38153 2.93319 6.3586 1.3875 9.00025 1.3875H9.00026H9.00026H9.00027H9.00027H9.00027H9.00028H9.00028H9.00029H9.00029H9.00029H9.0003H9.0003H9.00031H9.00031H9.00032H9.00032H9.00032H9.00033H9.00033H9.00034H9.00034H9.00035H9.00035H9.00036H9.00036H9.00037H9.00037H9.00038H9.00038H9.00039H9.00039H9.0004H9.00041H9.00041H9.00042H9.00042H9.00043H9.00044H9.00044H9.00045H9.00045H9.00045H9.00046H9.00046H9.00047H9.00047H9.00047H9.00048H9.00048H9.00049H9.00049H9.0005H9.0005H9.0005H9.00051H9.00051H9.00052H9.00052H9.00053H9.00053H9.00054H9.00054H9.00055H9.00055H9.00056H9.00056H9.00057H9.00057H9.00058H9.00059H9.00059H9.0006H9.0006H9.00061H9.00061H9.00062H9.00063H9.00063H9.00064H9.00064H9.00065H9.00066H9.00066H9.00067H9.00067H9.00068H9.00069H9.00069H9.0007H9.00071H9.00071H9.00072H9.00073H9.00074H9.00074H9.00075H9.00076H9.00076H9.00077H9.00078H9.00079H9.00079H9.0008H9.00081H9.00082H9.00082H9.00083H9.00084H9.00085H9.00086H9.00087H9.00087H9.00088H9.00089H9.0009H9.00091H9.00092H9.00093H9.00093H9.00094H9.00095H9.00096H9.00097H9.00098H9.00099H9.001H9.00101H9.00102H9.00103H9.00104H9.00105H9.00106H9.00107H9.00108H9.00109H9.0011H9.00111H9.00112H9.00113H9.00114H9.00115H9.00116H9.00117H9.00118H9.00119H9.0012H9.00121H9.00122H9.00124H9.00125H9.00126H9.00127H9.00128H9.00129H9.00131H9.00132H9.00133H9.00134H9.00135H9.00137H9.00138H9.00139H9.0014H9.00142H9.00143H9.00144H9.00145H9.00147H9.00148H9.00149H9.00151H9.00152H9.00153H9.00155H9.00156H9.00157H9.00159H9.0016H9.00162H9.00163H9.00165H9.00166H9.00167H9.00169H9.0017H9.00172H9.00173H9.00175H9.00176H9.00178H9.00179H9.00181H9.00182H9.00184H9.00185H9.00187H9.00189H9.0019H9.00192H9.00194H9.00195H9.00197H9.00198H9.002H9.00202H9.00203H9.00205H9.00207H9.00209H9.0021H9.00212H9.00214H9.00215H9.00217H9.00219H9.00221H9.00223H9.00224H9.00226H9.00228H9.0023H9.00232H9.00234H9.00235H9.00237H9.00239H9.00241H9.00243H9.00245H9.00247H9.00249H9.00251H9.00253H9.00255H9.00257H9.00259H9.00261H9.00263H9.00265H9.00267H9.00269H9.00271H9.00273H9.00275H9.00278H9.0028H9.00282H9.00284H9.00286H9.00288H9.0029H9.00293H9.00295H9.00297H9.00299H9.00302H9.00304H9.00306H9.00308H9.00311H9.00313H9.00315H9.00318H9.0032H9.00322H9.00325H9.00327H9.0033H9.00332H9.00334H9.00337H9.00339H9.00342H9.00344H9.00347H9.00349H9.00352H9.00354H9.00357H9.00359H9.00362H9.00365H9.00367H9.0037H9.00372H9.00375H9.00378H9.0038H9.00383H9.00386H9.00388H9.00391H9.00394H9.00397H9.00399H9.00402H9.00405H9.00408H9.00411H9.00413H9.00416H9.00419H9.00422H9.00425H9.00428H9.00431H9.00433H9.00436H9.00439H9.00442H9.00445H9.00448H9.00451H9.00454H9.00457H9.0046H9.00463H9.00467H9.0047H9.00473H9.00476H9.00479H9.00482H9.00485H9.00489H9.00492H9.00495H9.00498H9.00501H9.00505H9.00508H9.00511H9.00515H9.00518H9.00521H9.00524H9.00528H9.00531H9.00535H9.00538H9.00541H9.00545H9.00548H9.00552H9.00555H9.00559H9.00562H9.00566H9.00569H9.00573H9.00576H9.0058H9.00584H9.00587H9.00591H9.00595H9.00598H9.00602H9.00606H9.00609H9.00613H9.00617H9.00621H9.00624H9.00628H9.00632H9.00636H9.0064H9.00643H9.00647H9.00651H9.00655H9.00659H9.00663H9.00667H9.00671H9.00675H9.00679H9.00683H9.00687H9.00691H9.00695H9.00699H9.00703H9.00707H9.00711H9.00716H9.0072H9.00724H9.00728H9.00732H9.00737H9.00741H9.00745H9.00749H9.00754H9.00758H9.00762H9.00767H9.00771H9.00775C11.6491 1.3875 14.6263 2.93291 15.4014 6.35442C16.2613 10.1537 13.972 13.3884 11.7861 15.4929C11.0017 16.2432 9.99666 16.62 9.00025 16.62C8.00379 16.62 6.99864 16.2431 6.21429 15.4928C4.02864 13.3884 1.73955 10.1466 2.60648 6.34762ZM15.1843 6.3962L15.1839 6.3944C14.3719 2.85415 11.3166 1.6125 9.00025 1.6125C6.6836 1.6125 3.63566 2.85452 2.83153 6.3949C1.96503 10.1749 4.34715 13.3764 6.37827 15.3243C7.85001 16.7444 10.1581 16.7444 11.6298 15.3242C13.6534 13.3765 16.0348 10.1755 15.1843 6.3962Z" fill="#7B8697" stroke="#7B8697" stroke-width="0.9"/>
</svg>
