<svg width="18" height="18" viewBox="0 0 18 18" fill="none" xmlns="http://www.w3.org/2000/svg">
<path d="M8.68101 1.62915L8.68019 1.62923C7.86699 1.70603 7.13241 2.15482 6.6075 2.76546C6.08177 3.37705 5.7375 4.18346 5.7375 5.02474V5.75224C5.7375 5.77937 5.72644 5.80752 5.70336 5.8306C5.68028 5.85368 5.65213 5.86474 5.625 5.86474C5.59787 5.86474 5.56972 5.85368 5.54664 5.8306C5.52356 5.80752 5.5125 5.77937 5.5125 5.75224V5.01724C5.5125 3.21675 6.97821 1.56434 8.6602 1.40021C9.66204 1.30694 10.6149 1.62003 11.3432 2.2887L11.3431 2.28871L11.3449 2.29035C12.0685 2.94753 12.4875 3.89155 12.4875 4.87474V5.90974C12.4875 5.93687 12.4764 5.96502 12.4534 5.9881C12.4303 6.01118 12.4021 6.02224 12.375 6.02224C12.3479 6.02224 12.3197 6.01118 12.2966 5.9881C12.2736 5.96502 12.2625 5.93687 12.2625 5.90974V4.87474C12.2625 3.96049 11.8716 3.07469 11.1929 2.45696C10.5036 1.82878 9.61231 1.54292 8.68101 1.62915Z" fill="#5A687D" stroke="#5A687D" stroke-width="0.9"/>
<path d="M2.92239 13.8354L2.92248 13.8354L2.92138 13.8266L2.35953 9.3393C2.27817 8.53648 2.27721 7.56071 2.92099 6.84949L2.92185 6.84853C3.47082 6.23856 4.4303 5.8875 5.99986 5.8875H11.9999C13.5756 5.8875 14.5355 6.24544 15.0774 6.84801C15.7164 7.56088 15.7211 8.54055 15.6402 9.32395L15.0783 13.8268L15.0782 13.8268L15.0773 13.8354C14.9985 14.584 14.8124 15.2494 14.3109 15.738C13.8123 16.2237 12.9197 16.6125 11.2499 16.6125H6.74986C5.08001 16.6125 4.18747 16.2237 3.68886 15.738C3.18732 15.2494 3.00119 14.584 2.92239 13.8354ZM2.58232 9.30942L2.58223 9.30943L2.58335 9.31841L3.14533 13.8068C3.21021 14.4152 3.33522 15.1146 3.90323 15.6325C4.46533 16.1451 5.36475 16.395 6.74986 16.395H11.2499C12.6344 16.395 13.5333 16.1472 14.0953 15.6383C14.6642 15.1232 14.7895 14.427 14.8544 13.8218L15.4164 9.31822L15.4165 9.31823L15.4173 9.31018C15.5192 8.35421 15.4115 7.57031 14.9167 7.01414C14.3365 6.35611 13.2873 6.1125 11.9999 6.1125H5.99986C4.71224 6.1125 3.6655 6.35621 3.08549 7.00384C2.58676 7.55447 2.48093 8.34239 2.58232 9.30942Z" fill="#5A687D" stroke="#5A687D" stroke-width="0.9"/>
<path d="M11.5651 9.8623C11.1451 9.8623 10.8076 9.5248 10.8076 9.1123C10.8076 8.6998 11.1451 8.3623 11.5576 8.3623C11.9701 8.3623 12.3076 8.6998 12.3076 9.1123C12.3076 9.5248 11.9776 9.8623 11.5651 9.8623Z" fill="#5A687D"/>
<path d="M6.31512 9.8623C5.89512 9.8623 5.55762 9.5248 5.55762 9.1123C5.55762 8.6998 5.89512 8.3623 6.30762 8.3623C6.72012 8.3623 7.05762 8.6998 7.05762 9.1123C7.05762 9.5248 6.72762 9.8623 6.31512 9.8623Z" fill="#5A687D"/>
</svg>
