<svg width="32" height="32" viewBox="0 0 32 32" fill="none" xmlns="http://www.w3.org/2000/svg">
<path d="M12.2991 5.07401C12.1729 5.07401 12.0519 5.02389 11.9627 4.93468C11.8735 4.84546 11.8234 4.72446 11.8234 4.5983V1.42716C11.8234 0.640254 12.4636 0 13.2505 0H18.7462C19.5332 0 20.1734 0.640254 20.1734 1.42716V4.52358C20.1734 4.78636 19.9604 4.99929 19.6977 4.99929C19.4349 4.99929 19.2219 4.78636 19.2219 4.52358V1.42716C19.2219 1.16481 19.0086 0.951437 18.7462 0.951437H13.2505C12.9882 0.951437 12.7748 1.16481 12.7748 1.42716V4.5983C12.7748 4.72446 12.7247 4.84546 12.6355 4.93468C12.5463 5.02389 12.4253 5.07401 12.2991 5.07401ZM5.67969 15.3261H9.54658V1.11001C9.54658 0.759691 9.26261 0.475719 8.91229 0.475719H6.31398C5.96366 0.475719 5.67969 0.759691 5.67969 1.11001V15.3261ZM25.68 15.3261H21.8131V1.11001C21.8131 0.759691 22.0971 0.475719 22.4474 0.475719H25.0457C25.3961 0.475719 25.68 0.759691 25.68 1.11001V15.3261Z" fill="#ED6479"/>
<path d="M25.6801 0.475586H24.0944C24.4447 0.475586 24.7287 0.759558 24.7287 1.10988V15.3259H26.3144V1.10988C26.3144 0.759558 26.0304 0.475586 25.6801 0.475586ZM9.54667 0.475586H7.96094C8.31126 0.475586 8.59523 0.759558 8.59523 1.10988V15.3259H10.181V1.10988C10.181 0.759558 9.89699 0.475586 9.54667 0.475586Z" fill="#D65461"/>
<path d="M26.3785 29.9559H4.35156V14.4631C4.35156 8.03026 9.56639 2.81543 15.9992 2.81543C22.4321 2.81543 26.3783 8.03026 26.3783 14.4631V29.9559H26.3785Z" fill="#F9D065"/>
<path d="M15.9983 2.81543C15.6779 2.81543 15.3607 2.82894 15.0469 2.85431C21.0346 3.33847 25.7431 8.3507 25.7431 14.4632V29.9559H27.646V14.4632C27.6461 8.03032 22.4312 2.81543 15.9983 2.81543Z" fill="#F5B84C"/>
<path d="M27.2145 17.2285H4.02302C2.79573 17.2285 1.80078 18.2235 1.80078 19.4508V29.7773C1.80078 31.0046 2.79573 31.9996 4.02302 31.9996H27.2145C28.4418 31.9996 29.4367 31.0046 29.4367 29.7773V19.4508C29.4367 18.2235 28.4418 17.2285 27.2145 17.2285Z" fill="#9DC6FB"/>
<path d="M27.9732 17.2285H26.0703C27.2976 17.2285 28.2926 18.2235 28.2926 19.4508V29.7773C28.2926 31.0046 27.2976 31.9996 26.0703 31.9996H27.9732C29.2005 31.9996 30.1954 31.0046 30.1954 29.7773V19.4508C30.1954 18.2235 29.2005 17.2285 27.9732 17.2285Z" fill="#80B4FB"/>
<path d="M23.633 19.3984H7.54202C6.67526 19.3984 5.97266 20.101 5.97266 20.9678V28.2605C5.97266 29.1273 6.67526 29.8299 7.54202 29.8299H23.6329C24.4997 29.8299 25.2023 29.1273 25.2023 28.2605V20.9678C25.2023 20.101 24.4997 19.3984 23.633 19.3984Z" fill="#F9D065"/>
<path d="M24.4548 19.3984H22.7422C23.6089 19.3984 24.3116 20.101 24.3116 20.9678V28.2605C24.3116 29.1273 23.6089 29.8299 22.7422 29.8299H24.4548C25.3215 29.8299 26.0241 29.1273 26.0241 28.2605V20.9678C26.0241 20.101 25.3215 19.3984 24.4548 19.3984Z" fill="#F5B84C"/>
<path d="M21.3571 25.4186C20.8751 25.4186 20.4844 25.0279 20.4844 24.546V22.2246H22.2297V24.546C22.2297 25.0279 21.839 25.4186 21.3571 25.4186ZM20.5499 13.7229H10.8179C10.4676 13.7229 10.1836 13.4389 10.1836 13.0886V9.48683C10.1836 9.13651 10.4676 8.85254 10.8179 8.85254H20.5499C20.9003 8.85254 21.1842 9.13651 21.1842 9.48683V13.0886C21.1842 13.4389 20.9003 13.7229 20.5499 13.7229Z" fill="#9DC6FB"/>
<path d="M21.1834 8.85254H19.5977C19.948 8.85254 20.2319 9.13651 20.2319 9.48683V13.0886C20.2319 13.4389 19.948 13.7229 19.5977 13.7229H21.1834C21.5337 13.7229 21.8177 13.4389 21.8177 13.0886V9.48683C21.8177 9.13651 21.5337 8.85254 21.1834 8.85254Z" fill="#80B4FB"/>
<path d="M23.3271 22.7005H8.67103C8.40831 22.7005 8.19531 22.4875 8.19531 22.2247C8.19531 21.962 8.40831 21.749 8.67103 21.749H23.3271C23.4533 21.749 23.5743 21.7991 23.6635 21.8884C23.7527 21.9776 23.8028 22.0986 23.8028 22.2247C23.8028 22.3509 23.7527 22.4719 23.6635 22.5611C23.5743 22.6503 23.4533 22.7005 23.3271 22.7005Z" fill="#F2FDFF"/>
</svg>
