<svg width="25" height="24" viewBox="0 0 25 24" fill="none" xmlns="http://www.w3.org/2000/svg">
<path d="M17.3281 20.5H7.32812C4.32812 20.5 2.32812 19 2.32812 15.5V8.5C2.32812 5 4.32812 3.5 7.32812 3.5H17.3281C20.3281 3.5 22.3281 5 22.3281 8.5V15.5C22.3281 19 20.3281 20.5 17.3281 20.5Z" stroke="#7B8697" stroke-width="1.5" stroke-miterlimit="10" stroke-linecap="round" stroke-linejoin="round"/>
<path d="M12.3281 15C13.985 15 15.3281 13.6569 15.3281 12C15.3281 10.3431 13.985 9 12.3281 9C10.6713 9 9.32812 10.3431 9.32812 12C9.32812 13.6569 10.6713 15 12.3281 15Z" fill="#7B8697" stroke="#7B8697" stroke-width="1.5" stroke-miterlimit="10" stroke-linecap="round" stroke-linejoin="round"/>
<path d="M8.82812 6H7.32812C5.94813 6 4.82812 7.12 4.82812 8.5V10" stroke="#7B8697" stroke-width="1.5" stroke-miterlimit="10" stroke-linecap="round" stroke-linejoin="round"/>
<path d="M15.8281 6H17.3281C18.7081 6 19.8281 7.12 19.8281 8.5V10" stroke="#7B8697" stroke-width="1.5" stroke-miterlimit="10" stroke-linecap="round" stroke-linejoin="round"/>
<path d="M8.82812 18H7.32812C5.94813 18 4.82812 16.88 4.82812 15.5V14" stroke="#7B8697" stroke-width="1.5" stroke-miterlimit="10" stroke-linecap="round" stroke-linejoin="round"/>
<path d="M15.8281 18H17.3281C18.7081 18 19.8281 16.88 19.8281 15.5V14" stroke="#7B8697" stroke-width="1.5" stroke-miterlimit="10" stroke-linecap="round" stroke-linejoin="round"/>
</svg>
