<svg width="25" height="24" viewBox="0 0 25 24" fill="none" xmlns="http://www.w3.org/2000/svg">
<path d="M4.53364 16.9274L4.5337 16.9272C3.78978 16.6446 3.21413 16.1743 2.83295 15.5046C2.45765 14.8453 2.29123 14.029 2.29123 13.0798V7.92975C2.29123 6.62685 2.60627 5.5626 3.34017 4.82871C4.07408 4.09482 5.13833 3.77979 6.44122 3.77979H15.2312C16.3166 3.77979 17.2339 3.99605 17.9367 4.4944C18.6501 5.00027 19.0816 5.75335 19.2712 6.70013C19.2713 6.70065 19.2714 6.70117 19.2715 6.70169L18.7812 6.79974C18.8512 7.13974 18.8812 7.50975 18.8812 7.92975V13.0798C18.8812 15.5398 17.6912 16.7297 15.2312 16.7297H6.44122C6.03122 16.7297 5.66125 16.6897 5.28125 16.6097L4.53364 16.9274ZM4.53364 16.9274L4.54607 16.9317C4.7652 17.0084 4.97952 17.0656 5.18839 17.1011L4.53364 16.9274ZM5.09204 17.5822L5.06916 17.577L5.0459 17.574C4.86922 17.5509 4.62952 17.485 4.35857 17.3822L4.35719 17.3817C3.75716 17.1561 3.12135 16.7731 2.63393 16.1167C2.14914 15.4638 1.78125 14.5004 1.78125 13.0598V7.90973C1.78125 6.36955 2.22228 5.22331 2.98355 4.46205C3.74482 3.70079 4.89106 3.25977 6.43124 3.25977H15.2213C16.5236 3.25977 17.5457 3.5709 18.2885 4.12145C19.0258 4.66789 19.5319 5.48237 19.7509 6.5778L19.7514 6.57993C19.8332 6.97976 19.8712 7.41514 19.8712 7.90973V13.0598C19.8712 14.6114 19.4319 15.7597 18.6724 16.5202C17.9131 17.2806 16.7675 17.7197 15.2213 17.7197H6.43124C5.94221 17.7197 5.49001 17.6726 5.09204 17.5822Z" fill="#7B8697" stroke="#7B8697"/>
<path d="M7.34477 20.3832L7.34477 20.3831L7.34049 20.3815C6.04462 19.8967 5.19447 18.8854 4.89567 17.3824L4.89556 17.3818C4.87798 17.2939 4.90877 17.2104 4.9586 17.1634L4.96379 17.1585L4.96884 17.1534C5.02167 17.1006 5.10193 17.0752 5.1886 17.096L5.18856 17.0962L5.20154 17.099C5.56835 17.1768 5.97329 17.2198 6.42529 17.2198H15.2153C16.5182 17.2198 17.5824 16.9048 18.3163 16.1709C19.0502 15.437 19.3653 14.3728 19.3653 13.0699V7.91984C19.3653 7.47735 19.3338 7.07232 19.2553 6.6904C19.2399 6.61109 19.2626 6.52633 19.324 6.4584C19.3893 6.39592 19.4623 6.38012 19.5286 6.39603L19.5369 6.39802L19.5453 6.39973C20.6415 6.62354 21.4569 7.1323 22.0038 7.8691C22.5545 8.61106 22.8653 9.62832 22.8653 10.9198V16.0699C22.8653 17.6161 22.4262 18.7619 21.6667 19.5213C20.9073 20.2807 19.7615 20.7198 18.2153 20.7198H9.42529C8.62029 20.7198 7.92398 20.6059 7.34477 20.3832ZM6.24529 17.7198H5.39838L5.8075 18.4614C6.18754 19.1502 6.76352 19.6389 7.53202 19.9189C8.08232 20.1249 8.72427 20.2198 9.43527 20.2198H18.2253C19.5282 20.2198 20.5924 19.9048 21.3263 19.1709C22.0602 18.437 22.3753 17.3728 22.3753 16.0699V10.9198C22.3753 9.23739 21.8454 7.97108 20.6144 7.30074L19.8753 6.89824V7.73985V7.7402V7.74055V7.74091V7.74126V7.74161V7.74196V7.74231V7.74266V7.74301V7.74337V7.74372V7.74407V7.74442V7.74477V7.74512V7.74548V7.74583V7.74618V7.74653V7.74688V7.74723V7.74759V7.74794V7.74829V7.74864V7.74899V7.74934V7.74969V7.75005V7.7504V7.75075V7.7511V7.75145V7.7518V7.75216V7.75251V7.75286V7.75321V7.75356V7.75391V7.75426V7.75462V7.75497V7.75532V7.75567V7.75602V7.75637V7.75673V7.75708V7.75743V7.75778V7.75813V7.75848V7.75883V7.75919V7.75954V7.75989V7.76024V7.76059V7.76094V7.7613V7.76165V7.762V7.76235V7.7627V7.76305V7.76341V7.76376V7.76411V7.76446V7.76481V7.76516V7.76551V7.76587V7.76622V7.76657V7.76692V7.76727V7.76762V7.76798V7.76833V7.76868V7.76903V7.76938V7.76973V7.77008V7.77044V7.77079V7.77114V7.77149V7.77184V7.77219V7.77255V7.7729V7.77325V7.7736V7.77395V7.7743V7.77465V7.77501V7.77536V7.77571V7.77606V7.77641V7.77676V7.77712V7.77747V7.77782V7.77817V7.77852V7.77887V7.77922V7.77958V7.77993V7.78028V7.78063V7.78098V7.78133V7.78169V7.78204V7.78239V7.78274V7.78309V7.78344V7.7838V7.78415V7.7845V7.78485V7.7852V7.78555V7.7859V7.78626V7.78661V7.78696V7.78731V7.78766V7.78801V7.78837V7.78872V7.78907V7.78942V7.78977V7.79012V7.79047V7.79083V7.79118V7.79153V7.79188V7.79223V7.79258V7.79294V7.79329V7.79364V7.79399V7.79434V7.79469V7.79504V7.7954V7.79575V7.7961V7.79645V7.7968V7.79715V7.79751V7.79786V7.79821V7.79856V7.79891V7.79926V7.79961V7.79997V7.80032V7.80067V7.80102V7.80137V7.80172V7.80208V7.80243V7.80278V7.80313V7.80348V7.80383V7.80418V7.80454V7.80489V7.80524V7.80559V7.80594V7.80629V7.80665V7.807V7.80735V7.8077V7.80805V7.8084V7.80875V7.80911V7.80946V7.80981V7.81016V7.81051V7.81086V7.81122V7.81157V7.81192V7.81227V7.81262V7.81297V7.81332V7.81368V7.81403V7.81438V7.81473V7.81508V7.81543V7.81579V7.81614V7.81649V7.81684V7.81719V7.81754V7.81789V7.81825V7.8186V7.81895V7.8193V7.81965V7.82V7.82036V7.82071V7.82106V7.82141V7.82176V7.82211V7.82246V7.82282V7.82317V7.82352V7.82387V7.82422V7.82457V7.82493V7.82528V7.82563V7.82598V7.82633V7.82668V7.82703V7.82739V7.82774V7.82809V7.82844V7.82879V7.82914V7.8295V7.82985V7.8302V7.83055V7.8309V7.83125V7.8316V7.83196V7.83231V7.83266V7.83301V7.83336V7.83371V7.83407V7.83442V7.83477V7.83512V7.83547V7.83582V7.83617V7.83653V7.83688V7.83723V7.83758V7.83793V7.83828V7.83864V7.83899V7.83934V7.83969V7.84004V7.84039V7.84074V7.8411V7.84145V7.8418V7.84215V7.8425V7.84285V7.84321V7.84356V7.84391V7.84426V7.84461V7.84496V7.84531V7.84567V7.84602V7.84637V7.84672V7.84707V7.84742V7.84778V7.84813V7.84848V7.84883V7.84918V7.84953V7.84988V7.85024V7.85059V7.85094V7.85129V7.85164V7.85199V7.85235V7.8527V7.85305V7.8534V7.85375V7.8541V7.85446V7.85481V7.85516V7.85551V7.85586V7.85621V7.85656V7.85692V7.85727V7.85762V7.85797V7.85832V7.85867V7.85903V7.85938V7.85973V7.86008V7.86043V7.86078V7.86113V7.86149V7.86184V7.86219V7.86254V7.86289V7.86324V7.8636V7.86395V7.8643V7.86465V7.865V7.86535V7.8657V7.86606V7.86641V7.86676V7.86711V7.86746V7.86781V7.86817V7.86852V7.86887V7.86922V7.86957V7.86992V7.87027V7.87063V7.87098V7.87133V7.87168V7.87203V7.87238V7.87274V7.87309V7.87344V7.87379V7.87414V7.87449V7.87484V7.8752V7.87555V7.8759V7.87625V7.8766V7.87695V7.87731V7.87766V7.87801V7.87836V7.87871V7.87906V7.87941V7.87977V7.88012V7.88047V7.88082V7.88117V7.88152V7.88188V7.88223V7.88258V7.88293V7.88328V7.88363V7.88398V7.88434V7.88469V7.88504V7.88539V7.88574V7.88609V7.88645V7.8868V7.88715V7.8875V7.88785V7.8882V7.88855V7.88891V7.88926V7.88961V7.88996V7.89031V7.89066V7.89102V7.89137V7.89172V7.89207V7.89242V7.89277V7.89313V7.89348V7.89383V7.89418V7.89453V7.89488V7.89523V7.89559V7.89594V7.89629V7.89664V7.89699V7.89734V7.8977V7.89805V7.8984V7.89875V7.8991V7.89945V7.8998V7.90016V7.90051V7.90086V7.90121V7.90156V7.90191V7.90227V7.90262V7.90297V7.90332V7.90367V7.90402V7.90437V7.90473V7.90508V7.90543V7.90578V7.90613V7.90648V7.90684V7.90719V7.90754V7.90789V7.90824V7.90859V7.90895V7.9093V7.90965V7.91V7.91035V7.9107V7.91105V7.91141V7.91176V7.91211V7.91246V7.91281V7.91316V7.91352V7.91387V7.91422V7.91457V7.91492V7.91527V7.91562V7.91598V7.91633V7.91668V7.91703V7.91738V7.91773V7.91809V7.91844V7.91879V7.91914V7.91949V7.91984V13.0699C19.8753 14.6101 19.4342 15.7563 18.673 16.5175C17.9117 17.2788 16.7655 17.7198 15.2253 17.7198H6.43527H6.43486H6.43445H6.43404H6.43363H6.43322H6.43281H6.4324H6.43199H6.43158H6.43118H6.43077H6.43036H6.42995H6.42955H6.42914H6.42873H6.42833H6.42792H6.42751H6.42711H6.4267H6.4263H6.42589H6.42549H6.42508H6.42468H6.42427H6.42387H6.42347H6.42306H6.42266H6.42226H6.42185H6.42145H6.42105H6.42065H6.42024H6.41984H6.41944H6.41904H6.41864H6.41824H6.41783H6.41743H6.41703H6.41663H6.41623H6.41583H6.41543H6.41504H6.41464H6.41424H6.41384H6.41344H6.41304H6.41264H6.41225H6.41185H6.41145H6.41105H6.41066H6.41026H6.40986H6.40947H6.40907H6.40867H6.40828H6.40788H6.40749H6.40709H6.4067H6.4063H6.40591H6.40551H6.40512H6.40472H6.40433H6.40394H6.40354H6.40315H6.40276H6.40236H6.40197H6.40158H6.40119H6.40079H6.4004H6.40001H6.39962H6.39923H6.39884H6.39844H6.39805H6.39766H6.39727H6.39688H6.39649H6.3961H6.39571H6.39532H6.39493H6.39454H6.39416H6.39377H6.39338H6.39299H6.3926H6.39221H6.39182H6.39144H6.39105H6.39066H6.39028H6.38989H6.3895H6.38911H6.38873H6.38834H6.38796H6.38757H6.38718H6.3868H6.38641H6.38603H6.38564H6.38526H6.38487H6.38449H6.3841H6.38372H6.38334H6.38295H6.38257H6.38218H6.3818H6.38142H6.38104H6.38065H6.38027H6.37989H6.37951H6.37912H6.37874H6.37836H6.37798H6.3776H6.37721H6.37683H6.37645H6.37607H6.37569H6.37531H6.37493H6.37455H6.37417H6.37379H6.37341H6.37303H6.37265H6.37227H6.37189H6.37151H6.37113H6.37076H6.37038H6.37H6.36962H6.36924H6.36887H6.36849H6.36811H6.36773H6.36736H6.36698H6.3666H6.36622H6.36585H6.36547H6.36509H6.36472H6.36434H6.36397H6.36359H6.36322H6.36284H6.36246H6.36209H6.36171H6.36134H6.36096H6.36059H6.36022H6.35984H6.35947H6.35909H6.35872H6.35835H6.35797H6.3576H6.35723H6.35685H6.35648H6.35611H6.35573H6.35536H6.35499H6.35462H6.35424H6.35387H6.3535H6.35313H6.35276H6.35238H6.35201H6.35164H6.35127H6.3509H6.35053H6.35016H6.34979H6.34942H6.34905H6.34868H6.34831H6.34794H6.34757H6.3472H6.34683H6.34646H6.34609H6.34572H6.34535H6.34498H6.34461H6.34424H6.34388H6.34351H6.34314H6.34277H6.3424H6.34203H6.34167H6.3413H6.34093H6.34056H6.3402H6.33983H6.33946H6.3391H6.33873H6.33836H6.33799H6.33763H6.33726H6.3369H6.33653H6.33616H6.3358H6.33543H6.33507H6.3347H6.33433H6.33397H6.3336H6.33324H6.33287H6.33251H6.33214H6.33178H6.33141H6.33105H6.33069H6.33032H6.32996H6.32959H6.32923H6.32887H6.3285H6.32814H6.32777H6.32741H6.32705H6.32668H6.32632H6.32596H6.3256H6.32523H6.32487H6.32451H6.32414H6.32378H6.32342H6.32306H6.3227H6.32233H6.32197H6.32161H6.32125H6.32089H6.32052H6.32016H6.3198H6.31944H6.31908H6.31872H6.31836H6.318H6.31763H6.31727H6.31691H6.31655H6.31619H6.31583H6.31547H6.31511H6.31475H6.31439H6.31403H6.31367H6.31331H6.31295H6.31259H6.31223H6.31187H6.31151H6.31116H6.3108H6.31044H6.31008H6.30972H6.30936H6.309H6.30864H6.30828H6.30793H6.30757H6.30721H6.30685H6.30649H6.30613H6.30578H6.30542H6.30506H6.3047H6.30434H6.30399H6.30363H6.30327H6.30291H6.30256H6.3022H6.30184H6.30148H6.30113H6.30077H6.30041H6.30006H6.2997H6.29934H6.29899H6.29863H6.29827H6.29792H6.29756H6.2972H6.29685H6.29649H6.29614H6.29578H6.29542H6.29507H6.29471H6.29436H6.294H6.29364H6.29329H6.29293H6.29258H6.29222H6.29187H6.29151H6.29116H6.2908H6.29045H6.29009H6.28974H6.28938H6.28903H6.28867H6.28832H6.28796H6.28761H6.28725H6.2869H6.28654H6.28619H6.28583H6.28548H6.28512H6.28477H6.28442H6.28406H6.28371H6.28335H6.283H6.28264H6.28229H6.28194H6.28158H6.28123H6.28088H6.28052H6.28017H6.27981H6.27946H6.27911H6.27875H6.2784H6.27805H6.27769H6.27734H6.27699H6.27663H6.27628H6.27593H6.27557H6.27522H6.27487H6.27451H6.27416H6.27381H6.27345H6.2731H6.27275H6.2724H6.27204H6.27169H6.27134H6.27099H6.27063H6.27028H6.26993H6.26957H6.26922H6.26887H6.26852H6.26816H6.26781H6.26746H6.26711H6.26675H6.2664H6.26605H6.2657H6.26535H6.26499H6.26464H6.26429H6.26394H6.26358H6.26323H6.26288H6.26253H6.26218H6.26182H6.26147H6.26112H6.26077H6.26042H6.26006H6.25971H6.25936H6.25901H6.25866H6.2583H6.25795H6.2576H6.25725H6.2569H6.25655H6.25619H6.25584H6.25549H6.25514H6.25479H6.25444H6.25408H6.25373H6.25338H6.25303H6.25268H6.25233H6.25197H6.25162H6.25127H6.25092H6.25057H6.25022H6.24986H6.24951H6.24916H6.24881H6.24846H6.24811H6.24775H6.2474H6.24705H6.2467H6.24635H6.246H6.24565H6.24529Z" fill="#7B8697" stroke="#7B8697"/>
<path d="M10.8275 13.3899C9.23366 13.3899 7.9375 12.0937 7.9375 10.4999C7.9375 8.90602 9.23366 7.60986 10.8275 7.60986C12.4214 7.60986 13.7175 8.90602 13.7175 10.4999C13.7175 12.0937 12.4214 13.3899 10.8275 13.3899ZM10.8275 8.10986C9.51137 8.10986 8.4375 9.18374 8.4375 10.4999C8.4375 11.816 9.51137 12.8899 10.8275 12.8899C12.1437 12.8899 13.2175 11.816 13.2175 10.4999C13.2175 9.18374 12.1437 8.10986 10.8275 8.10986Z" fill="#7B8697" stroke="#7B8697"/>
<path d="M5.10938 12.9498C4.97552 12.9498 4.85938 12.8337 4.85938 12.6998V8.2998C4.85938 8.16595 4.97552 8.0498 5.10938 8.0498C5.24323 8.0498 5.35938 8.16595 5.35938 8.2998V12.6998C5.35938 12.838 5.2489 12.9498 5.10938 12.9498Z" fill="#7B8697" stroke="#7B8697"/>
<path d="M16.5391 13.4498C16.1291 13.4498 15.7891 13.1098 15.7891 12.6998V8.2998C15.7891 7.8898 16.1291 7.5498 16.5391 7.5498C16.9491 7.5498 17.2891 7.8898 17.2891 8.2998V12.6998C17.2891 13.1098 16.9591 13.4498 16.5391 13.4498Z" fill="#7B8697"/>
</svg>
