<svg width="16" height="16" viewBox="0 0 16 16" fill="none" xmlns="http://www.w3.org/2000/svg">
<path d="M7.9987 9.75016C7.03548 9.75016 6.2487 8.96338 6.2487 8.00016C6.2487 7.03695 7.03548 6.25016 7.9987 6.25016C8.96191 6.25016 9.7487 7.03695 9.7487 8.00016C9.7487 8.96338 8.96191 9.75016 7.9987 9.75016ZM7.9987 6.41683C7.12858 6.41683 6.41536 7.13004 6.41536 8.00016C6.41536 8.87028 7.12858 9.5835 7.9987 9.5835C8.86882 9.5835 9.58203 8.87028 9.58203 8.00016C9.58203 7.13004 8.86882 6.41683 7.9987 6.41683Z" fill="#525F72" stroke="#525F72" stroke-width="0.833333"/>
<path d="M12.332 10.1668C12.0587 10.1668 11.832 9.94016 11.832 9.66683V6.3335C11.832 6.06016 12.0587 5.8335 12.332 5.8335C12.6054 5.8335 12.832 6.06016 12.832 6.3335V9.66683C12.832 9.94016 12.6054 10.1668 12.332 10.1668Z" fill="#525F72"/>
<path d="M3.33073 15.1668C2.22406 15.1668 1.18406 14.5802 0.624064 13.6268C0.324064 13.1468 0.164062 12.5802 0.164062 12.0002C0.164062 10.2535 1.58406 8.8335 3.33073 8.8335C5.0774 8.8335 6.4974 10.2535 6.4974 12.0002C6.4974 12.5802 6.33739 13.1468 6.03739 13.6335C5.47739 14.5802 4.4374 15.1668 3.33073 15.1668ZM3.33073 9.8335C2.1374 9.8335 1.16406 10.8068 1.16406 12.0002C1.16406 12.3935 1.27073 12.7802 1.4774 13.1135C1.86406 13.7668 2.5774 14.1668 3.33073 14.1668C4.08406 14.1668 4.7974 13.7668 5.18406 13.1202C5.39073 12.7802 5.4974 12.4002 5.4974 12.0002C5.4974 10.8068 4.52406 9.8335 3.33073 9.8335Z" fill="#525F72"/>
<path d="M4.33317 12.4868H2.33984C2.06651 12.4868 1.83984 12.2601 1.83984 11.9868C1.83984 11.7135 2.06651 11.4868 2.33984 11.4868H4.33317C4.6065 11.4868 4.83317 11.7135 4.83317 11.9868C4.83317 12.2601 4.6065 12.4868 4.33317 12.4868Z" fill="#525F72"/>
<path d="M3.33203 13.507C3.0587 13.507 2.83203 13.2803 2.83203 13.007V11.0137C2.83203 10.7403 3.0587 10.5137 3.33203 10.5137C3.60536 10.5137 3.83203 10.7403 3.83203 11.0137V13.007C3.83203 13.287 3.60536 13.507 3.33203 13.507Z" fill="#525F72"/>
<path d="M11.332 13.8337H5.66536C5.39203 13.8337 5.16536 13.607 5.16536 13.3337C5.16536 13.0603 5.39203 12.8337 5.66536 12.8337H11.332C13.2387 12.8337 14.1654 11.907 14.1654 10.0003V6.00033C14.1654 4.09366 13.2387 3.16699 11.332 3.16699H4.66536C2.7587 3.16699 1.83203 4.09366 1.83203 6.00033V10.2003C1.83203 10.4736 1.60536 10.7003 1.33203 10.7003C1.0587 10.7003 0.832031 10.4736 0.832031 10.2003V6.00033C0.832031 3.56699 2.23203 2.16699 4.66536 2.16699H11.332C13.7654 2.16699 15.1654 3.56699 15.1654 6.00033V10.0003C15.1654 12.4337 13.7654 13.8337 11.332 13.8337Z" fill="#525F72"/>
</svg>
