<svg width="21" height="20" viewBox="0 0 21 20" fill="none" xmlns="http://www.w3.org/2000/svg">
<g clip-path="url(#clip0_1973_103693)">
<path d="M1.50047 10.6663C1.6318 10.6666 1.76189 10.6408 1.88327 10.5907C2.00465 10.5405 2.11493 10.4669 2.2078 10.374L3.8338 8.75101L4.6548 9.57267C4.80958 9.72758 4.99337 9.85047 5.19567 9.93432C5.39797 10.0182 5.61481 10.0613 5.8338 10.0613C6.05278 10.0613 6.26962 10.0182 6.47192 9.93432C6.67422 9.85047 6.85802 9.72758 7.0128 9.57267L11.9035 4.68034L13.3908 6.16834C13.7037 6.48073 14.1278 6.65618 14.57 6.65618C15.0121 6.65618 15.4362 6.48073 15.7491 6.16834L18.7265 3.187L18.9738 3.43434C19.0817 3.5421 19.2182 3.61665 19.3671 3.64916C19.5161 3.68167 19.6713 3.67077 19.8142 3.61775C19.9572 3.56473 20.0819 3.47181 20.1737 3.35003C20.2654 3.22825 20.3203 3.08271 20.3318 2.93067L20.4985 0.783671V0.780338C20.5056 0.676298 20.4904 0.571935 20.4538 0.47427C20.4173 0.376605 20.3602 0.287903 20.2865 0.214131C20.2128 0.140359 20.1241 0.0832276 20.0265 0.0465805C19.9289 0.00993337 19.8245 -0.0053797 19.7205 0.00167138L17.5715 0.168338C17.4195 0.179207 17.2739 0.233552 17.1519 0.324894C17.03 0.416236 16.9369 0.540721 16.8837 0.683506C16.8306 0.826291 16.8196 0.981351 16.8521 1.1302C16.8846 1.27905 16.9593 1.4154 17.0671 1.523L17.3145 1.771L14.5695 4.51734L13.0825 3.02934C12.9277 2.87443 12.7439 2.75154 12.5416 2.66769C12.3393 2.58385 12.1225 2.54069 11.9035 2.54069C11.6845 2.54069 11.4676 2.58385 11.2653 2.66769C11.063 2.75154 10.8792 2.87443 10.7245 3.02934L5.8338 7.922L5.01347 7.09967C4.70059 6.7872 4.27648 6.61169 3.8343 6.61169C3.39211 6.61169 2.96801 6.7872 2.65513 7.09967L0.796799 8.96301C0.657145 9.10235 0.561956 9.27998 0.52327 9.47343C0.484584 9.66689 0.50414 9.86747 0.579465 10.0498C0.65479 10.2321 0.7825 10.388 0.946439 10.4978C1.11038 10.6075 1.30318 10.6662 1.50047 10.6663ZM1.26713 9.433L3.1268 7.56934C3.21967 7.47636 3.32996 7.4026 3.45136 7.35228C3.57276 7.30195 3.70288 7.27605 3.8343 7.27605C3.96571 7.27605 4.09584 7.30195 4.21724 7.35228C4.33864 7.4026 4.44893 7.47636 4.5418 7.56934L5.59813 8.62634C5.62909 8.65733 5.66585 8.68192 5.70632 8.69869C5.74678 8.71547 5.79016 8.7241 5.83397 8.7241C5.87777 8.7241 5.92115 8.71547 5.96161 8.69869C6.00208 8.68192 6.03884 8.65733 6.0698 8.62634L11.1958 3.49967C11.3864 3.31755 11.6399 3.21592 11.9035 3.21592C12.1671 3.21592 12.4205 3.31755 12.6111 3.49967L14.0985 4.98767C14.2255 5.10897 14.3943 5.17666 14.57 5.17666C14.7456 5.17666 14.9145 5.10897 15.0415 4.98767L18.0218 2.00567C18.0842 1.94318 18.1192 1.85848 18.1192 1.77017C18.1192 1.68187 18.0842 1.59717 18.0218 1.53467L17.5375 1.05034C17.5196 1.03374 17.5072 1.01207 17.502 0.988225C17.4968 0.964385 17.4991 0.939529 17.5085 0.917005C17.5167 0.893057 17.5319 0.872139 17.5522 0.856977C17.5725 0.841816 17.5968 0.833113 17.6221 0.832005L19.7698 0.666338C19.7865 0.665671 19.8031 0.672005 19.8145 0.684338C19.8278 0.697005 19.8345 0.714671 19.8338 0.733005L19.6671 2.87967C19.6653 2.90457 19.6564 2.92844 19.6415 2.94843C19.6265 2.96842 19.6062 2.98369 19.5828 2.99243C19.5594 3.00118 19.534 3.00302 19.5096 2.99774C19.4852 2.99247 19.4628 2.98029 19.4451 2.96267L18.9621 2.479C18.8984 2.41876 18.814 2.38519 18.7263 2.38519C18.6386 2.38519 18.5542 2.41876 18.4905 2.479L15.2775 5.69667C15.0867 5.87831 14.8334 5.97962 14.57 5.97962C14.3066 5.97962 14.0532 5.87831 13.8625 5.69667L12.3751 4.20867C12.3134 4.14648 12.2399 4.09717 12.1589 4.06358C12.0779 4.02999 11.9911 4.0128 11.9035 4.013C11.7268 4.013 11.5571 4.083 11.4325 4.20834L6.5418 9.10134C6.35117 9.28338 6.09772 9.38496 5.83413 9.38496C5.57054 9.38496 5.31709 9.28338 5.12647 9.10134L4.30547 8.27967C4.18046 8.15479 4.01099 8.08465 3.8343 8.08465C3.6576 8.08465 3.48814 8.15479 3.36313 8.27967L1.73547 9.90467C1.67268 9.96612 1.58832 10.0005 1.50047 10.0005C1.41261 10.0005 1.32826 9.96612 1.26547 9.90467C1.23426 9.87435 1.20945 9.83808 1.19251 9.798C1.17557 9.75792 1.16684 9.71485 1.16684 9.67134C1.16684 9.62783 1.17557 9.58476 1.19251 9.54468C1.20945 9.5046 1.23426 9.46833 1.26547 9.43801L1.26713 9.433ZM13.8338 12.6663C13.8349 12.0974 13.6903 11.5378 13.4139 11.0405C13.1375 10.5433 12.7384 10.1251 12.2547 9.8257C11.7709 9.52631 11.2186 9.35572 10.6503 9.33015C10.082 9.30458 9.51657 9.42489 9.00789 9.67962C8.49922 9.93436 8.06421 10.315 7.74426 10.7854C7.42431 11.2558 7.23008 11.8003 7.18005 12.367C7.13002 12.9337 7.22586 13.5037 7.45845 14.0229C7.69103 14.5421 8.05262 14.9931 8.5088 15.333H8.50047C8.30706 15.3321 8.11759 15.3876 7.9552 15.4927C7.79281 15.5978 7.66454 15.7479 7.58606 15.9246C7.50757 16.1014 7.48227 16.2972 7.51324 16.4881C7.54421 16.679 7.63012 16.8568 7.76047 16.9997C7.59326 17.1814 7.50045 17.4194 7.50045 17.6663C7.50045 17.9133 7.59326 18.1513 7.76047 18.333C7.63012 18.4759 7.54421 18.6537 7.51324 18.8446C7.48227 19.0355 7.50757 19.2313 7.58606 19.4081C7.66454 19.5848 7.79281 19.7349 7.9552 19.84C8.11759 19.945 8.30706 20.0005 8.50047 19.9997H12.5005C12.6939 20.0005 12.8833 19.945 13.0457 19.84C13.2081 19.7349 13.3364 19.5848 13.4149 19.4081C13.4934 19.2313 13.5187 19.0355 13.4877 18.8446C13.4567 18.6537 13.3708 18.4759 13.2405 18.333C13.4077 18.1513 13.5005 17.9133 13.5005 17.6663C13.5005 17.4194 13.4077 17.1814 13.2405 16.9997C13.3708 16.8568 13.4567 16.679 13.4877 16.4881C13.5187 16.2972 13.4934 16.1014 13.4149 15.9246C13.3364 15.7479 13.2081 15.5978 13.0457 15.4927C12.8833 15.3876 12.6939 15.3321 12.5005 15.333H12.4921C12.908 15.0237 13.2459 14.6216 13.4788 14.1586C13.7117 13.6956 13.8333 13.1846 13.8338 12.6663ZM12.8338 17.6663C12.8338 17.7547 12.7987 17.8395 12.7362 17.902C12.6737 17.9646 12.5889 17.9997 12.5005 17.9997H8.50047C8.41206 17.9997 8.32728 17.9646 8.26476 17.902C8.20225 17.8395 8.16713 17.7547 8.16713 17.6663C8.16713 17.5779 8.20225 17.4931 8.26476 17.4306C8.32728 17.3681 8.41206 17.333 8.50047 17.333H12.5005C12.5889 17.333 12.6737 17.3681 12.7362 17.4306C12.7987 17.4931 12.8338 17.5779 12.8338 17.6663ZM12.5005 19.333H8.50047C8.41206 19.333 8.32728 19.2979 8.26476 19.2354C8.20225 19.1729 8.16713 19.0881 8.16713 18.9997C8.16713 18.9113 8.20225 18.8265 8.26476 18.764C8.32728 18.7015 8.41206 18.6663 8.50047 18.6663H12.5005C12.5889 18.6663 12.6737 18.7015 12.7362 18.764C12.7987 18.8265 12.8338 18.9113 12.8338 18.9997C12.8338 19.0881 12.7987 19.1729 12.7362 19.2354C12.6737 19.2979 12.5889 19.333 12.5005 19.333ZM12.5005 15.9997C12.5889 15.9997 12.6737 16.0348 12.7362 16.0973C12.7987 16.1598 12.8338 16.2446 12.8338 16.333C12.8338 16.4214 12.7987 16.5062 12.7362 16.5687C12.6737 16.6312 12.5889 16.6663 12.5005 16.6663H8.50047C8.41206 16.6663 8.32728 16.6312 8.26476 16.5687C8.20225 16.5062 8.16713 16.4214 8.16713 16.333C8.16713 16.2446 8.20225 16.1598 8.26476 16.0973C8.32728 16.0348 8.41206 15.9997 8.50047 15.9997H12.5005ZM7.8338 12.6663C7.8338 12.1389 7.9902 11.6234 8.28321 11.1848C8.57623 10.7463 8.99271 10.4045 9.47998 10.2027C9.96725 10.0008 10.5034 9.94802 11.0207 10.0509C11.538 10.1538 12.0131 10.4078 12.3861 10.7807C12.759 11.1537 13.013 11.6288 13.1159 12.1461C13.2188 12.6634 13.166 13.1996 12.9641 13.6868C12.7623 14.1741 12.4205 14.5906 11.982 14.8836C11.5435 15.1766 11.0279 15.333 10.5005 15.333C9.79347 15.3322 9.11565 15.051 8.61572 14.5511C8.1158 14.0512 7.83459 13.3733 7.8338 12.6663Z" fill="#525F72"/>
<path fill-rule="evenodd" clip-rule="evenodd" d="M10.4996 12.3327C10.4411 12.3326 10.3836 12.3172 10.333 12.2879C10.2823 12.2586 10.2403 12.2165 10.2111 12.1658C10.1819 12.1151 10.1665 12.0576 10.1666 11.9991C10.1666 11.9406 10.182 11.8832 10.2113 11.8325C10.2406 11.7819 10.2827 11.7398 10.3333 11.7106C10.384 11.6814 10.4415 11.666 10.5 11.666C10.5585 11.666 10.6159 11.6814 10.6666 11.7107C10.7172 11.74 10.7593 11.782 10.7886 11.8327C10.8097 11.872 10.8385 11.9066 10.8733 11.9346C10.9081 11.9625 10.9481 11.9832 10.9911 11.9954C11.034 12.0076 11.0789 12.011 11.1232 12.0055C11.1675 12 11.2102 11.9857 11.2488 11.9634C11.2875 11.941 11.3212 11.9112 11.3481 11.8756C11.375 11.84 11.3945 11.7993 11.4054 11.756C11.4162 11.7128 11.4183 11.6678 11.4115 11.6237C11.4047 11.5796 11.389 11.5373 11.3656 11.4993C11.2447 11.2966 11.056 11.1431 10.8329 11.066V10.9993C10.8329 10.9109 10.7978 10.8262 10.7353 10.7636C10.6727 10.7011 10.588 10.666 10.4996 10.666C10.4112 10.666 10.3264 10.7011 10.2639 10.7636C10.2013 10.8262 10.1662 10.9109 10.1662 10.9993V11.0607C9.944 11.139 9.75664 11.2934 9.63735 11.4965C9.51805 11.6997 9.47451 11.9385 9.51443 12.1707C9.55435 12.4029 9.67517 12.6135 9.85548 12.7652C10.0358 12.9168 10.264 12.9998 10.4996 12.9993C10.5581 12.9994 10.6155 13.0149 10.6661 13.0441C10.7168 13.0734 10.7588 13.1155 10.788 13.1662C10.8172 13.2169 10.8326 13.2744 10.8326 13.3329C10.8325 13.3914 10.8171 13.4488 10.7878 13.4995C10.7586 13.5501 10.7165 13.5922 10.6658 13.6214C10.6151 13.6506 10.5577 13.666 10.4992 13.666C10.4407 13.666 10.3832 13.6506 10.3325 13.6213C10.2819 13.5921 10.2398 13.55 10.2106 13.4993C10.165 13.4256 10.0925 13.3726 10.0084 13.3515C9.92436 13.3303 9.83539 13.3427 9.76035 13.3861C9.6853 13.4294 9.6301 13.5003 9.60643 13.5837C9.58276 13.6671 9.59249 13.7564 9.63356 13.8327C9.75457 14.0356 9.94351 14.1891 10.1669 14.266V14.3327C10.1669 14.4211 10.202 14.5059 10.2645 14.5684C10.327 14.6309 10.4118 14.666 10.5002 14.666C10.5886 14.666 10.6734 14.6309 10.7359 14.5684C10.7984 14.5059 10.8336 14.4211 10.8336 14.3327V14.2713C11.0558 14.1931 11.2432 14.0386 11.3625 13.8354C11.4818 13.6321 11.5253 13.3932 11.4853 13.161C11.4453 12.9287 11.3244 12.7181 11.1439 12.5665C10.9635 12.4149 10.7352 12.3321 10.4996 12.3327Z" fill="#525F72"/>
<path d="M17.167 6.66602C16.4669 6.66524 15.7844 6.88519 15.2164 7.29459C14.6485 7.70399 14.2241 8.28201 14.0035 8.94647C13.783 9.61093 13.7775 10.328 13.9878 10.9958C14.1982 11.6635 14.6138 12.248 15.1754 12.666H15.167C14.9736 12.6652 14.7841 12.7207 14.6218 12.8257C14.4594 12.9308 14.3311 13.0809 14.2526 13.2576C14.1741 13.4344 14.1488 13.6302 14.1798 13.8211C14.2108 14.012 14.2967 14.1898 14.427 14.3327C14.2598 14.5144 14.167 14.7524 14.167 14.9994C14.167 15.2463 14.2598 15.4843 14.427 15.666C14.2598 15.8478 14.167 16.0857 14.167 16.3327C14.167 16.5797 14.2598 16.8176 14.427 16.9994C14.2598 17.1811 14.167 17.4191 14.167 17.666C14.167 17.913 14.2598 18.1509 14.427 18.3327C14.2967 18.4756 14.2108 18.6533 14.1798 18.8443C14.1488 19.0352 14.1741 19.231 14.2526 19.4077C14.3311 19.5845 14.4594 19.7346 14.6218 19.8397C14.7841 19.9447 14.9736 20.0002 15.167 19.9994H19.167C19.3604 20.0002 19.5499 19.9447 19.7123 19.8397C19.8747 19.7346 20.0029 19.5845 20.0814 19.4077C20.1599 19.231 20.1852 19.0352 20.1542 18.8443C20.1233 18.6533 20.0374 18.4756 19.907 18.3327C20.0742 18.1509 20.167 17.913 20.167 17.666C20.167 17.4191 20.0742 17.1811 19.907 16.9994C20.0742 16.8176 20.167 16.5797 20.167 16.3327C20.167 16.0857 20.0742 15.8478 19.907 15.666C20.0742 15.4843 20.167 15.2463 20.167 14.9994C20.167 14.7524 20.0742 14.5144 19.907 14.3327C20.0374 14.1898 20.1233 14.012 20.1542 13.8211C20.1852 13.6302 20.1599 13.4344 20.0814 13.2576C20.0029 13.0809 19.8747 12.9308 19.7123 12.8257C19.5499 12.7207 19.3604 12.6652 19.167 12.666H19.1584C19.7201 12.2481 20.1359 11.6637 20.3464 10.9959C20.5569 10.3281 20.5515 9.61094 20.3309 8.9464C20.1104 8.28186 19.6859 7.70378 19.1179 7.29438C18.5499 6.88497 17.8672 6.6651 17.167 6.66602ZM19.5004 14.9994C19.5004 15.0878 19.4652 15.1725 19.4027 15.2351C19.3402 15.2976 19.2554 15.3327 19.167 15.3327H15.167C15.0786 15.3327 14.9938 15.2976 14.9313 15.2351C14.8688 15.1725 14.8337 15.0878 14.8337 14.9994C14.8337 14.9109 14.8688 14.8262 14.9313 14.7637C14.9938 14.7011 15.0786 14.666 15.167 14.666H19.167C19.2554 14.666 19.3402 14.7011 19.4027 14.7637C19.4652 14.8262 19.5004 14.9109 19.5004 14.9994ZM19.5004 16.3327C19.5004 16.4211 19.4652 16.5059 19.4027 16.5684C19.3402 16.6309 19.2554 16.666 19.167 16.666H15.167C15.0786 16.666 14.9938 16.6309 14.9313 16.5684C14.8688 16.5059 14.8337 16.4211 14.8337 16.3327C14.8337 16.2443 14.8688 16.1595 14.9313 16.097C14.9938 16.0345 15.0786 15.9994 15.167 15.9994H19.167C19.2554 15.9994 19.3402 16.0345 19.4027 16.097C19.4652 16.1595 19.5004 16.2443 19.5004 16.3327ZM19.5004 17.666C19.5004 17.7544 19.4652 17.8392 19.4027 17.9017C19.3402 17.9642 19.2554 17.9994 19.167 17.9994H15.167C15.0786 17.9994 14.9938 17.9642 14.9313 17.9017C14.8688 17.8392 14.8337 17.7544 14.8337 17.666C14.8337 17.5776 14.8688 17.4928 14.9313 17.4303C14.9938 17.3678 15.0786 17.3327 15.167 17.3327H19.167C19.2554 17.3327 19.3402 17.3678 19.4027 17.4303C19.4652 17.4928 19.5004 17.5776 19.5004 17.666ZM19.167 19.3327H15.167C15.0786 19.3327 14.9938 19.2976 14.9313 19.2351C14.8688 19.1725 14.8337 19.0878 14.8337 18.9994C14.8337 18.9109 14.8688 18.8262 14.9313 18.7637C14.9938 18.7011 15.0786 18.666 15.167 18.666H19.167C19.2554 18.666 19.3402 18.7011 19.4027 18.7637C19.4652 18.8262 19.5004 18.9109 19.5004 18.9994C19.5004 19.0878 19.4652 19.1725 19.4027 19.2351C19.3402 19.2976 19.2554 19.3327 19.167 19.3327ZM19.167 13.3327C19.2554 13.3327 19.3402 13.3678 19.4027 13.4303C19.4652 13.4928 19.5004 13.5776 19.5004 13.666C19.5004 13.7544 19.4652 13.8392 19.4027 13.9017C19.3402 13.9642 19.2554 13.9994 19.167 13.9994H15.167C15.0786 13.9994 14.9938 13.9642 14.9313 13.9017C14.8688 13.8392 14.8337 13.7544 14.8337 13.666C14.8337 13.5776 14.8688 13.4928 14.9313 13.4303C14.9938 13.3678 15.0786 13.3327 15.167 13.3327H19.167ZM17.167 12.666C16.6396 12.666 16.124 12.5096 15.6855 12.2166C15.247 11.9236 14.9052 11.5071 14.7033 11.0198C14.5015 10.5326 14.4487 9.99639 14.5516 9.47911C14.6545 8.96183 14.9085 8.48667 15.2814 8.11373C15.6543 7.74079 16.1295 7.48682 16.6468 7.38392C17.1641 7.28103 17.7002 7.33384 18.1875 7.53567C18.6748 7.73751 19.0913 8.0793 19.3843 8.51783C19.6773 8.95636 19.8337 9.47194 19.8337 9.99935C19.8329 10.7064 19.5517 11.3842 19.0518 11.8841C18.5518 12.384 17.874 12.6652 17.167 12.666Z" fill="#525F72"/>
<path fill-rule="evenodd" clip-rule="evenodd" d="M17.1675 9.66667C17.109 9.66661 17.0516 9.65116 17.0009 9.62187C16.9503 9.59257 16.9083 9.55047 16.8791 9.49979C16.8498 9.44911 16.8345 9.39163 16.8345 9.33313C16.8346 9.27463 16.85 9.21717 16.8793 9.16653C16.9085 9.11588 16.9506 9.07383 17.0013 9.0446C17.052 9.01537 17.1094 8.99999 17.1679 9C17.2264 9.00001 17.2839 9.01542 17.3346 9.04468C17.3852 9.07393 17.4273 9.11601 17.4565 9.16667C17.5021 9.24037 17.5746 9.29341 17.6587 9.31456C17.7427 9.3357 17.8317 9.32328 17.9067 9.27993C17.9818 9.23657 18.037 9.1657 18.0607 9.08233C18.0843 8.99896 18.0746 8.90965 18.0335 8.83333C17.9128 8.63041 17.7241 8.47687 17.5009 8.4V8.33333C17.5009 8.24493 17.4657 8.16014 17.4032 8.09763C17.3407 8.03512 17.2559 8 17.1675 8C17.0791 8 16.9943 8.03512 16.9318 8.09763C16.8693 8.16014 16.8342 8.24493 16.8342 8.33333V8.39467C16.612 8.47294 16.4246 8.62734 16.3053 8.83051C16.186 9.03369 16.1425 9.27252 16.1824 9.50473C16.2223 9.73693 16.3431 9.94751 16.5234 10.0992C16.7038 10.2508 16.9319 10.3338 17.1675 10.3333C17.226 10.3334 17.2835 10.3488 17.3341 10.3781C17.3848 10.4074 17.4268 10.4495 17.456 10.5002C17.4852 10.5509 17.5006 10.6084 17.5005 10.6669C17.5005 10.7254 17.4851 10.7828 17.4558 10.8335C17.4265 10.8841 17.3844 10.9262 17.3338 10.9554C17.2831 10.9846 17.2256 11 17.1671 11C17.1086 11 17.0512 10.9846 17.0005 10.9553C16.9498 10.9261 16.9078 10.884 16.8785 10.8333C16.8329 10.7596 16.7604 10.7066 16.6764 10.6854C16.5923 10.6643 16.5034 10.6767 16.4283 10.7201C16.3533 10.7634 16.2981 10.8343 16.2744 10.9177C16.2507 11.001 16.2605 11.0904 16.3015 11.1667C16.4225 11.37 16.6115 11.5233 16.8349 11.6V11.6667C16.8349 11.7551 16.87 11.8399 16.9325 11.9024C16.995 11.9649 17.0798 12 17.1682 12C17.2566 12 17.3414 11.9649 17.4039 11.9024C17.4664 11.8399 17.5015 11.7551 17.5015 11.6667V11.6053C17.7238 11.527 17.9112 11.3726 18.0305 11.1693C18.1498 10.9661 18.1933 10.7272 18.1533 10.4949C18.1133 10.2627 17.9923 10.0521 17.8119 9.90051C17.6315 9.7489 17.4032 9.66606 17.1675 9.66667Z" fill="#525F72"/>
<path d="M1.84167 17.9994H1.83333C1.56812 17.9994 1.31376 18.1048 1.12623 18.2923C0.93869 18.4798 0.833333 18.7342 0.833333 18.9994C0.833333 19.2646 0.93869 19.519 1.12623 19.7065C1.31376 19.894 1.56812 19.9994 1.83333 19.9994H5.83333C6.09855 19.9994 6.3529 19.894 6.54044 19.7065C6.72798 19.519 6.83333 19.2646 6.83333 18.9994C6.83333 18.7342 6.72798 18.4798 6.54044 18.2923C6.3529 18.1048 6.09855 17.9994 5.83333 17.9994H5.825C6.38671 17.5808 6.80228 16.996 7.01271 16.3278C7.22314 15.6597 7.21773 14.9422 6.99725 14.2773C6.77677 13.6124 6.35243 13.0339 5.78448 12.6239C5.21652 12.2138 4.53383 11.9932 3.83333 11.9932C3.13284 11.9932 2.45014 12.2138 1.88219 12.6239C1.31424 13.0339 0.889894 13.6124 0.669414 14.2773C0.448935 14.9422 0.443527 15.6597 0.653957 16.3278C0.864387 16.996 1.27996 17.5808 1.84167 17.9994ZM5.83333 18.6661C5.92174 18.6661 6.00652 18.7012 6.06904 18.7637C6.13155 18.8262 6.16667 18.911 6.16667 18.9994C6.16667 19.0878 6.13155 19.1726 6.06904 19.2351C6.00652 19.2976 5.92174 19.3327 5.83333 19.3327H1.83333C1.74493 19.3327 1.66014 19.2976 1.59763 19.2351C1.53512 19.1726 1.5 19.0878 1.5 18.9994C1.5 18.911 1.53512 18.8262 1.59763 18.7637C1.66014 18.7012 1.74493 18.6661 1.83333 18.6661H5.83333ZM3.83333 12.6661C4.36075 12.6661 4.87632 12.8225 5.31485 13.1155C5.75339 13.4085 6.09518 13.825 6.29701 14.3122C6.49885 14.7995 6.55166 15.3357 6.44876 15.853C6.34587 16.3703 6.09189 16.8454 5.71895 17.2183C5.34601 17.5913 4.87086 17.8453 4.35357 17.9482C3.83629 18.051 3.30011 17.9982 2.81284 17.7964C2.32557 17.5946 1.9091 17.2528 1.61608 16.8142C1.32306 16.3757 1.16667 15.8601 1.16667 15.3327C1.16746 14.6257 1.44867 13.9479 1.94859 13.448C2.44852 12.9481 3.12633 12.6669 3.83333 12.6661Z" fill="#525F72"/>
<path fill-rule="evenodd" clip-rule="evenodd" d="M3.83354 15.6663C3.89204 15.6664 3.9495 15.6818 4.00013 15.7111C4.05077 15.7404 4.0928 15.7825 4.12202 15.8332C4.15123 15.8839 4.16659 15.9414 4.16655 15.9999C4.16652 16.0584 4.15109 16.1158 4.12181 16.1665C4.09254 16.2171 4.05045 16.2592 3.99978 16.2884C3.94911 16.3176 3.89164 16.333 3.83314 16.333C3.77464 16.333 3.71717 16.3176 3.66652 16.2883C3.61586 16.2591 3.57379 16.217 3.54454 16.1663C3.5234 16.127 3.49458 16.0924 3.4598 16.0645C3.42501 16.0365 3.38497 16.0158 3.34205 16.0036C3.29913 15.9915 3.25419 15.988 3.20991 15.9935C3.16563 15.999 3.12291 16.0134 3.08427 16.0357C3.04564 16.058 3.01187 16.0878 2.98499 16.1235C2.9581 16.1591 2.93864 16.1997 2.92775 16.243C2.91687 16.2863 2.91478 16.3313 2.92161 16.3754C2.92845 16.4195 2.94407 16.4617 2.96754 16.4997C3.08855 16.7026 3.27749 16.8561 3.50088 16.933V16.9997C3.50088 17.0881 3.536 17.1729 3.59851 17.2354C3.66102 17.2979 3.7458 17.333 3.83421 17.333C3.92262 17.333 4.0074 17.2979 4.06991 17.2354C4.13242 17.1729 4.16754 17.0881 4.16754 16.9997V16.9383C4.38983 16.8601 4.57722 16.7056 4.69651 16.5024C4.8158 16.2991 4.8593 16.0602 4.81929 15.828C4.77927 15.5957 4.65834 15.3851 4.47791 15.2335C4.29748 15.0819 4.06921 14.9991 3.83354 14.9997C3.77505 14.9996 3.71759 14.9842 3.66696 14.9549C3.61632 14.9256 3.57428 14.8835 3.54507 14.8328C3.51586 14.7821 3.5005 14.7246 3.50054 14.6661C3.50057 14.6076 3.516 14.5502 3.54527 14.4995C3.57455 14.4489 3.61664 14.4068 3.66731 14.3776C3.71798 14.3484 3.77545 14.333 3.83395 14.333C3.89245 14.333 3.94991 14.3484 4.00057 14.3777C4.05123 14.4069 4.09329 14.449 4.12254 14.4997C4.14369 14.539 4.17251 14.5736 4.20729 14.6016C4.24207 14.6295 4.28211 14.6502 4.32504 14.6624C4.36796 14.6746 4.4129 14.678 4.45718 14.6725C4.50145 14.667 4.54418 14.6527 4.58282 14.6303C4.62145 14.608 4.65521 14.5782 4.6821 14.5426C4.70899 14.507 4.72845 14.4663 4.73933 14.423C4.75022 14.3798 4.75231 14.3347 4.74547 14.2907C4.73864 14.2466 4.72302 14.2043 4.69954 14.1663C4.5787 13.9636 4.39001 13.8101 4.16688 13.733V13.6663C4.16688 13.5779 4.13176 13.4932 4.06925 13.4306C4.00673 13.3681 3.92195 13.333 3.83354 13.333C3.74514 13.333 3.66035 13.3681 3.59784 13.4306C3.53533 13.4932 3.50021 13.5779 3.50021 13.6663V13.7277C3.27798 13.8059 3.09063 13.9603 2.97133 14.1635C2.85203 14.3667 2.80849 14.6055 2.84841 14.8377C2.88834 15.0699 3.00915 15.2805 3.18946 15.4322C3.36977 15.5838 3.59793 15.6668 3.83354 15.6663Z" fill="#525F72"/>
</g>
<defs>
<clipPath id="clip0_1973_103693">
<rect width="20" height="20" fill="white" transform="translate(0.5)"/>
</clipPath>
</defs>
</svg>
