<svg width="21" height="20" viewBox="0 0 21 20" fill="none" xmlns="http://www.w3.org/2000/svg">
<path d="M16.2368 12.3328L16.2382 12.335C16.4834 12.7375 16.526 13.2099 16.3639 13.6402C16.1989 14.0781 15.8607 14.4069 15.4257 14.5498L15.4257 14.5498L15.4229 14.5507C13.8593 15.0746 12.2131 15.3332 10.5651 15.3332C8.91713 15.3332 7.27174 15.0746 5.70949 14.5431L5.70849 14.5428C5.21477 14.376 4.8687 14.0421 4.7275 13.6479L4.72752 13.6479L4.72608 13.644C4.5757 13.235 4.62108 12.7757 4.88542 12.3323C4.88564 12.3319 4.88587 12.3315 4.8861 12.3311L5.72629 10.9419L5.72635 10.942L5.73034 10.9351C5.84852 10.7325 5.94582 10.4654 6.01323 10.2175C6.08054 9.96991 6.13179 9.69094 6.13179 9.45817V7.34984C6.13179 5.61554 7.1409 4.10888 8.60448 3.38084L8.7428 3.31203L8.8182 3.17719C9.16441 2.558 9.81544 2.1665 10.5401 2.1665C11.2774 2.1665 11.9106 2.54524 12.2548 3.1542L12.3324 3.29146L12.4747 3.35939C13.9666 4.07162 14.9985 5.59233 14.9985 7.34984V9.45817C14.9985 9.69094 15.0497 9.96984 15.1169 10.218C15.1843 10.4673 15.281 10.7341 15.3969 10.9383L15.3968 10.9384L15.4035 10.9495L16.2368 12.3328Z" fill="#972F8A" stroke="#972F8A"/>
<path d="M10.5482 17.8332C10.0386 17.8332 9.53703 17.6325 9.17813 17.2813C9.63357 17.319 10.0983 17.3415 10.5649 17.3415C11.0236 17.3415 11.4802 17.319 11.9276 17.2814C11.5671 17.6236 11.081 17.8332 10.5482 17.8332Z" fill="#972F8A" stroke="#972F8A"/>
</svg>
