<svg width="20" height="20" viewBox="0 0 20 20" fill="none" xmlns="http://www.w3.org/2000/svg">
<g clip-path="url(#clip0_1973_103713)">
<path d="M12.8465 10.9781C12.8198 10.9325 12.7816 10.8946 12.7358 10.8683C12.6899 10.842 12.6379 10.8281 12.585 10.8281H4.01472C3.9635 10.8281 3.91311 10.841 3.86827 10.8658C3.82343 10.8905 3.78561 10.9263 3.75836 10.9696L2.32563 13.2433C2.29688 13.2892 2.28092 13.3419 2.27941 13.396C2.27791 13.4502 2.2909 13.5037 2.31705 13.5511C2.3432 13.5985 2.38156 13.6381 2.42814 13.6657C2.47472 13.6933 2.52784 13.708 2.58199 13.7081H13.9496C14.0038 13.7082 14.057 13.6937 14.1037 13.6662C14.1504 13.6386 14.1889 13.5991 14.2151 13.5516C14.2413 13.5042 14.2543 13.4506 14.2527 13.3964C14.2512 13.3422 14.2351 13.2894 14.2062 13.2436C13.7184 12.4684 12.8553 10.993 12.8465 10.9781ZM8.76018 11.4342L9.36866 13.1018H6.15048L6.75896 11.4342H8.76018ZM4.18199 11.4342H6.11411L5.50563 13.1018H3.13139L4.18199 11.4342ZM10.0138 13.1018L9.40533 11.4342H12.4114C12.7389 11.9925 13.0705 12.5484 13.4062 13.1018H10.0138Z" fill="#525F72"/>
<path d="M19.3936 16.1939H19.0846V14.4009C19.0846 13.5655 18.41 12.8858 17.5809 12.8858H15.5579C15.5089 12.8858 15.4607 12.8739 15.4174 12.8511C15.3741 12.8283 15.337 12.7953 15.3094 12.7549L13.9924 9.92667C13.9876 9.9163 13.9823 9.90618 13.9764 9.89637C13.8949 9.76431 13.781 9.65524 13.6456 9.57946C13.5101 9.50369 13.3576 9.46372 13.2024 9.46334H3.59637C3.32092 9.46334 3.06273 9.58728 2.88819 9.80304C2.88111 9.81185 2.87454 9.82106 2.86849 9.83061L1.04031 12.6933C0.959205 12.7985 0.915103 12.9275 0.914856 13.0603V16.1936H0.605765C0.525396 16.1936 0.448319 16.2256 0.39149 16.2824C0.334661 16.3392 0.302734 16.4163 0.302734 16.4967C0.302734 16.577 0.334661 16.6541 0.39149 16.7109C0.448319 16.7678 0.525396 16.7997 0.605765 16.7997H2.53758C2.6791 17.533 3.32425 18.0888 4.09789 18.0888C4.87152 18.0888 5.51667 17.5327 5.65819 16.7997H14.5833C14.7249 17.533 15.37 18.0888 16.1436 18.0888C16.9173 18.0888 17.5624 17.5327 17.7039 16.7997H19.393C19.4717 16.7973 19.5464 16.7644 19.6012 16.7079C19.656 16.6514 19.6867 16.5758 19.6868 16.4971C19.6869 16.4184 19.6563 16.3428 19.6016 16.2862C19.5469 16.2296 19.4723 16.1965 19.3936 16.1939ZM4.09789 17.483C3.55486 17.483 3.11304 17.0412 3.11304 16.4982C3.11304 15.9552 3.55486 15.5133 4.09789 15.5133C4.6394 15.5133 5.0797 15.9527 5.08213 16.4933L5.08152 16.4967C5.08152 16.4982 5.08243 16.4994 5.08243 16.5009C5.08147 16.7615 4.97736 17.0111 4.79286 17.1952C4.60836 17.3792 4.35849 17.4827 4.09789 17.483ZM16.1439 17.483C15.8834 17.4827 15.6336 17.3793 15.4491 17.1953C15.2646 17.0113 15.1604 16.7618 15.1594 16.5012C15.1594 16.4997 15.1603 16.4985 15.1603 16.497L15.1597 16.4936C15.1612 16.2335 15.2655 15.9844 15.4499 15.8009C15.6343 15.6173 15.8838 15.514 16.1439 15.5136C16.687 15.5136 17.1288 15.9555 17.1288 16.4985C17.1288 17.0415 16.687 17.483 16.1439 17.483ZM17.7043 16.1939C17.5615 15.4621 16.917 14.9073 16.1442 14.9073C15.3715 14.9073 14.7267 15.4618 14.5843 16.1939H5.65819C5.51546 15.4621 4.87092 14.9073 4.09819 14.9073C3.32546 14.9073 2.68061 15.4618 2.53819 16.1939H1.52122L1.52092 13.063C1.5288 13.0533 1.53637 13.0433 1.54304 13.0327L3.3688 10.1736C3.39718 10.1411 3.43219 10.115 3.47149 10.097C3.5108 10.0791 3.55348 10.0698 3.59667 10.0697H13.2027C13.3024 10.0697 13.3967 10.1197 13.4515 10.2009L14.7685 13.0291C14.7732 13.0394 14.7786 13.0494 14.7846 13.0591C14.8659 13.1912 14.9797 13.3003 15.1151 13.3761C15.2505 13.4519 15.403 13.4918 15.5582 13.4921H17.5812C18.0761 13.4921 18.4788 13.9 18.4788 14.4012V16.1943L17.7043 16.1939ZM3.06395 5.15122V8.49516C3.06395 8.57553 3.09587 8.65261 3.1527 8.70943C3.20953 8.76626 3.28661 8.79819 3.36698 8.79819H8.82152C8.90189 8.79819 8.97897 8.76626 9.0358 8.70943C9.09263 8.65261 9.12455 8.57553 9.12455 8.49516V5.15122C9.12455 5.07085 9.09263 4.99377 9.0358 4.93694C8.97897 4.88012 8.90189 4.84819 8.82152 4.84819H7.45789V4.15758C7.45789 3.82334 7.18607 3.55152 6.85183 3.55152H5.33667C5.00243 3.55152 4.73061 3.82334 4.73061 4.15758V4.84819H3.36698C3.28661 4.84819 3.20953 4.88012 3.1527 4.93694C3.09587 4.99377 3.06395 5.07085 3.06395 5.15122ZM3.67001 8.19213V5.88637L4.75607 6.98001C4.78426 7.00837 4.81778 7.03087 4.85471 7.04621C4.89164 7.06155 4.93123 7.06943 4.97122 7.0694H7.21728C7.29819 7.0694 7.37516 7.03728 7.43243 6.98001L8.51849 5.88637V8.19213H3.67001ZM8.09364 5.45425L7.09152 6.46364H5.09758L4.09516 5.45425H8.09364ZM5.33667 4.15758H6.85183V4.84819H5.33667V4.15758ZM10.177 8.79819H13.2809C13.3613 8.79819 13.4384 8.76626 13.4952 8.70943C13.552 8.65261 13.5839 8.57553 13.5839 8.49516V5.93698C13.5839 5.85661 13.552 5.77953 13.4952 5.7227C13.4384 5.66587 13.3613 5.63395 13.2809 5.63395H10.177C10.0966 5.63395 10.0195 5.66587 9.9627 5.7227C9.90587 5.77953 9.87395 5.85661 9.87395 5.93698V8.49516C9.87395 8.57553 9.90587 8.65261 9.9627 8.70943C10.0195 8.76626 10.0966 8.79819 10.177 8.79819ZM10.48 6.24001H11.4261V6.5594C11.4261 6.63977 11.458 6.71685 11.5148 6.77368C11.5717 6.83051 11.6487 6.86243 11.7291 6.86243C11.8095 6.86243 11.8865 6.83051 11.9434 6.77368C12.0002 6.71685 12.0321 6.63977 12.0321 6.5594V6.24001H12.9779V8.19213H10.48V6.24001ZM1.21183 19.0906H0.605765C0.525396 19.0906 0.448319 19.1225 0.39149 19.1794C0.334661 19.2362 0.302734 19.3133 0.302734 19.3936C0.302734 19.474 0.334661 19.5511 0.39149 19.6079C0.448319 19.6647 0.525396 19.6967 0.605765 19.6967H1.21183C1.29219 19.6967 1.36927 19.6647 1.4261 19.6079C1.48293 19.5511 1.51486 19.474 1.51486 19.3936C1.51486 19.3133 1.48293 19.2362 1.4261 19.1794C1.36927 19.1225 1.29219 19.0906 1.21183 19.0906ZM3.8094 19.0906H3.20334C3.12297 19.0906 3.04589 19.1225 2.98907 19.1794C2.93224 19.2362 2.90031 19.3133 2.90031 19.3936C2.90031 19.474 2.93224 19.5511 2.98907 19.6079C3.04589 19.6647 3.12297 19.6967 3.20334 19.6967H3.8094C3.88977 19.6967 3.96685 19.6647 4.02368 19.6079C4.08051 19.5511 4.11243 19.474 4.11243 19.3936C4.11243 19.3133 4.08051 19.2362 4.02368 19.1794C3.96685 19.1225 3.88977 19.0906 3.8094 19.0906ZM6.40698 19.0906H5.80092C5.72055 19.0906 5.64347 19.1225 5.58664 19.1794C5.52981 19.2362 5.49789 19.3133 5.49789 19.3936C5.49789 19.474 5.52981 19.5511 5.58664 19.6079C5.64347 19.6647 5.72055 19.6967 5.80092 19.6967H6.40698C6.48735 19.6967 6.56442 19.6647 6.62125 19.6079C6.67808 19.5511 6.71001 19.474 6.71001 19.3936C6.71001 19.3133 6.67808 19.2362 6.62125 19.1794C6.56442 19.1225 6.48735 19.0906 6.40698 19.0906ZM9.00425 19.0906H8.39819C8.31782 19.0906 8.24074 19.1225 8.18391 19.1794C8.12709 19.2362 8.09516 19.3133 8.09516 19.3936C8.09516 19.474 8.12709 19.5511 8.18391 19.6079C8.24074 19.6647 8.31782 19.6967 8.39819 19.6967H9.00425C9.08462 19.6967 9.1617 19.6647 9.21852 19.6079C9.27535 19.5511 9.30728 19.474 9.30728 19.3936C9.30728 19.3133 9.27535 19.2362 9.21852 19.1794C9.1617 19.1225 9.08462 19.0906 9.00425 19.0906ZM11.6015 19.0906H10.9955C10.9151 19.0906 10.838 19.1225 10.7812 19.1794C10.7244 19.2362 10.6924 19.3133 10.6924 19.3936C10.6924 19.474 10.7244 19.5511 10.7812 19.6079C10.838 19.6647 10.9151 19.6967 10.9955 19.6967H11.6015C11.6819 19.6967 11.759 19.6647 11.8158 19.6079C11.8726 19.5511 11.9046 19.474 11.9046 19.3936C11.9046 19.3133 11.8726 19.2362 11.8158 19.1794C11.759 19.1225 11.6819 19.0906 11.6015 19.0906ZM14.1988 19.0906H13.5927C13.5124 19.0906 13.4353 19.1225 13.3785 19.1794C13.3216 19.2362 13.2897 19.3133 13.2897 19.3936C13.2897 19.474 13.3216 19.5511 13.3785 19.6079C13.4353 19.6647 13.5124 19.6967 13.5927 19.6967H14.1988C14.2792 19.6967 14.3562 19.6647 14.4131 19.6079C14.4699 19.5511 14.5018 19.474 14.5018 19.3936C14.5018 19.3133 14.4699 19.2362 14.4131 19.1794C14.3562 19.1225 14.2792 19.0906 14.1988 19.0906ZM16.7964 19.0906H16.1903C16.1099 19.0906 16.0329 19.1225 15.976 19.1794C15.9192 19.2362 15.8873 19.3133 15.8873 19.3936C15.8873 19.474 15.9192 19.5511 15.976 19.6079C16.0329 19.6647 16.1099 19.6967 16.1903 19.6967H16.7964C16.8767 19.6967 16.9538 19.6647 17.0106 19.6079C17.0675 19.5511 17.0994 19.474 17.0994 19.3936C17.0994 19.3133 17.0675 19.2362 17.0106 19.1794C16.9538 19.1225 16.8767 19.0906 16.7964 19.0906ZM19.3936 19.0906H18.7876C18.7072 19.0906 18.6301 19.1225 18.5733 19.1794C18.5165 19.2362 18.4846 19.3133 18.4846 19.3936C18.4846 19.474 18.5165 19.5511 18.5733 19.6079C18.6301 19.6647 18.7072 19.6967 18.7876 19.6967H19.3936C19.474 19.6967 19.5511 19.6647 19.6079 19.6079C19.6647 19.5511 19.6967 19.474 19.6967 19.3936C19.6967 19.3133 19.6647 19.2362 19.6079 19.1794C19.5511 19.1225 19.474 19.0906 19.3936 19.0906ZM0.605765 0.908795C1.10698 0.908795 1.51486 1.31667 1.51486 1.81789C1.51486 1.89825 1.54678 1.97533 1.60361 2.03216C1.66044 2.08899 1.73752 2.12092 1.81789 2.12092C1.89825 2.12092 1.97533 2.08899 2.03216 2.03216C2.08899 1.97533 2.12092 1.89825 2.12092 1.81789C2.12092 1.31667 2.5288 0.908795 3.03001 0.908795C3.11038 0.908795 3.18745 0.876869 3.24428 0.82004C3.30111 0.76321 3.33304 0.686133 3.33304 0.605765C3.33304 0.525396 3.30111 0.448319 3.24428 0.39149C3.18745 0.334661 3.11038 0.302734 3.03001 0.302734C2.7947 0.30277 2.56264 0.357644 2.35223 0.463004C2.14183 0.568363 1.95887 0.721309 1.81789 0.909704C1.6769 0.721309 1.49394 0.568363 1.28354 0.463004C1.07314 0.357644 0.841074 0.30277 0.605765 0.302734C0.525396 0.302734 0.448319 0.334661 0.39149 0.39149C0.334661 0.448319 0.302734 0.525396 0.302734 0.605765C0.302734 0.686133 0.334661 0.76321 0.39149 0.82004C0.448319 0.876869 0.525396 0.908795 0.605765 0.908795ZM15.6367 3.9391H18.3315C18.6935 3.93862 19.0406 3.79455 19.2965 3.53851C19.5524 3.28247 19.6964 2.93536 19.6967 2.57334C19.6967 1.75304 18.97 1.1094 18.1552 1.2194C17.5976 -0.179387 15.5397 0.0966738 15.3506 1.57092C15.0897 1.63532 14.8577 1.78521 14.6918 1.99669C14.5259 2.20817 14.4356 2.46909 14.4352 2.73789C14.4356 3.05637 14.5624 3.36167 14.7876 3.58685C15.0129 3.81202 15.3182 3.9387 15.6367 3.9391ZM15.6249 2.14273C15.6694 2.14606 15.7141 2.13926 15.7556 2.12283C15.7971 2.1064 15.8344 2.08078 15.8646 2.04789C15.8929 2.01774 15.9148 1.98211 15.9289 1.94318C15.943 1.90424 15.9489 1.86284 15.9464 1.82152C15.8785 0.731219 17.4749 0.564856 17.6446 1.63364C17.6515 1.67851 17.6684 1.72125 17.6941 1.75867C17.7198 1.7961 17.7536 1.82725 17.793 1.84982C17.8324 1.87238 17.8764 1.88578 17.9216 1.88901C17.9669 1.89225 18.0124 1.88523 18.0546 1.86849C18.5664 1.66698 19.0906 2.05213 19.0906 2.57334C19.0904 2.7747 19.0103 2.96774 18.8679 3.11015C18.7256 3.25256 18.5326 3.33272 18.3312 3.33304H15.6364C15.4786 3.33288 15.3273 3.27012 15.2157 3.15854C15.1041 3.04697 15.0414 2.89568 15.0412 2.73789C15.0414 2.58209 15.1026 2.43256 15.2117 2.32132C15.3208 2.21009 15.4691 2.14598 15.6249 2.14273Z" fill="#525F72"/>
</g>
<defs>
<clipPath id="clip0_1973_103713">
<rect width="20" height="20" fill="white"/>
</clipPath>
</defs>
</svg>
