<svg width="24" height="24" viewBox="0 0 24 24" fill="none" xmlns="http://www.w3.org/2000/svg">
<g clip-path="url(#clip0_1971_210279)">
<path d="M6.37387 15.9316H5.99887C5.89942 15.9316 5.80404 15.8921 5.73371 15.8218C5.66338 15.7515 5.62387 15.6561 5.62387 15.5566C5.62387 15.4572 5.66338 15.3618 5.73371 15.2915C5.80404 15.2211 5.89942 15.1816 5.99887 15.1816H6.37387C6.47333 15.1816 6.56871 15.2211 6.63904 15.2915C6.70937 15.3618 6.74887 15.4572 6.74887 15.5566C6.74887 15.6561 6.70937 15.7515 6.63904 15.8218C6.56871 15.8921 6.47333 15.9316 6.37387 15.9316ZM2.25 15.9316H1.875C1.77554 15.9316 1.68016 15.8921 1.60983 15.8218C1.53951 15.7515 1.5 15.6561 1.5 15.5566C1.5 15.4572 1.53951 15.3618 1.60983 15.2915C1.68016 15.2211 1.77554 15.1816 1.875 15.1816H2.25C2.34946 15.1816 2.44484 15.2211 2.51516 15.2915C2.58549 15.3618 2.625 15.4572 2.625 15.5566C2.625 15.6561 2.58549 15.7515 2.51516 15.8218C2.44484 15.8921 2.34946 15.9316 2.25 15.9316Z" fill="#D3374E"/>
<path d="M14.2489 8.05664H13.8739C13.7744 8.05664 13.679 8.01713 13.6087 7.94681C13.5384 7.87648 13.4989 7.7811 13.4989 7.68164C13.4989 7.58218 13.5384 7.4868 13.6087 7.41648C13.679 7.34615 13.7744 7.30664 13.8739 7.30664H14.2489C14.3483 7.30664 14.4437 7.34615 14.514 7.41648C14.5844 7.4868 14.6239 7.58218 14.6239 7.68164C14.6239 7.7811 14.5844 7.87648 14.514 7.94681C14.4437 8.01713 14.3483 8.05664 14.2489 8.05664ZM10.125 8.05664H9.75C9.65054 8.05664 9.55516 8.01713 9.48484 7.94681C9.41451 7.87648 9.375 7.7811 9.375 7.68164C9.375 7.58218 9.41451 7.4868 9.48484 7.41648C9.55516 7.34615 9.65054 7.30664 9.75 7.30664H10.125C10.2245 7.30664 10.3198 7.34615 10.3902 7.41648C10.4605 7.4868 10.5 7.58218 10.5 7.68164C10.5 7.7811 10.4605 7.87648 10.3902 7.94681C10.3198 8.01713 10.2245 8.05664 10.125 8.05664Z" fill="#434A54"/>
<path d="M22.1239 15.9316H21.7489C21.6494 15.9316 21.554 15.8921 21.4837 15.8218C21.4134 15.7515 21.3739 15.6561 21.3739 15.5566C21.3739 15.4572 21.4134 15.3618 21.4837 15.2915C21.554 15.2211 21.6494 15.1816 21.7489 15.1816H22.1239C22.2233 15.1816 22.3187 15.2211 22.389 15.2915C22.4594 15.3618 22.4989 15.4572 22.4989 15.5566C22.4989 15.6561 22.4594 15.7515 22.389 15.8218C22.3187 15.8921 22.2233 15.9316 22.1239 15.9316ZM18 15.9316H17.625C17.5255 15.9316 17.4302 15.8921 17.3598 15.8218C17.2895 15.7515 17.25 15.6561 17.25 15.5566C17.25 15.4572 17.2895 15.3618 17.3598 15.2915C17.4302 15.2211 17.5255 15.1816 17.625 15.1816H18C18.0995 15.1816 18.1948 15.2211 18.2652 15.2915C18.3355 15.3618 18.375 15.4572 18.375 15.5566C18.375 15.6561 18.3355 15.7515 18.2652 15.8218C18.1948 15.8921 18.0995 15.9316 18 15.9316Z" fill="#EDAB37"/>
<path d="M21 15.5654L21.375 16.6904C21.375 16.7013 21.3637 17.0654 19.875 17.0654C18.3862 17.0654 18.375 16.7013 18.375 16.6904L18.75 15.5654H21Z" fill="#5D9CEC"/>
<path d="M18.75 12.1934H21V15.5646H18.75V12.1934Z" fill="#FFCE54"/>
<path d="M21.8613 10.8989L20.9988 12.1934H18.7488L17.89 10.8992L17.875 10.8846C18.0062 10.7646 18.1825 10.6934 18.3738 10.6934H21.3738C21.5688 10.6934 21.745 10.7642 21.8763 10.8846L21.8613 10.8989Z" fill="#EDAB37"/>
<path d="M22.125 11.4455V17.813C22.125 18.6451 21.4538 19.313 20.625 19.313H19.125C18.2962 19.313 17.625 18.6451 17.625 17.813V11.4455C17.625 11.2242 17.7225 11.0213 17.8762 10.8867L17.8912 10.9013L18.75 12.1955V15.5667L18.375 16.6917C18.375 16.7026 18.3863 17.0667 19.875 17.0667C21.3637 17.0667 21.375 16.7026 21.375 16.6917L21 15.5667V12.1955L21.8625 10.9013L21.8775 10.8867C22.0312 11.0247 22.125 11.2242 22.125 11.4455Z" fill="#F6BB42"/>
<path d="M10.875 4.31543H13.125V7.68668H10.875V4.31543Z" fill="#656D78"/>
<path d="M13.99 3.0213L13.1275 4.31543H10.8775L10.015 3.0213L10 3.00668C10.1312 2.88668 10.3075 2.81543 10.5025 2.81543H13.5025C13.6975 2.81543 13.8738 2.8863 14.005 3.00668L13.99 3.0213Z" fill="#434A54"/>
<path d="M13.125 7.6875L13.5 8.8125C13.5 8.82337 13.4887 9.1875 12 9.1875C10.5112 9.1875 10.5 8.82337 10.5 8.8125L10.875 7.6875H13.125Z" fill="#5D9CEC"/>
<path d="M14.25 3.56461V9.93211C14.25 10.7642 13.5788 11.4321 12.75 11.4321H11.25C10.4212 11.4321 9.75 10.7642 9.75 9.93211V3.56461C9.75 3.34336 9.8475 3.14048 9.9975 3.00586L10.0125 3.02048L10.875 4.31461V7.68586L10.5 8.81086C10.5 8.82173 10.5113 9.18586 12 9.18586C13.4887 9.18586 13.5 8.82173 13.5 8.81086L13.125 7.68586V4.31461L13.9875 3.02048L14.0025 3.00586C14.1562 3.14423 14.25 3.34336 14.25 3.56461Z" fill="#545C66"/>
<path d="M3 12.1934H5.25V15.5646H3V12.1934Z" fill="#ED5565"/>
<path d="M5.25 15.5654L5.625 16.6904C5.625 16.7013 5.61375 17.0654 4.125 17.0654C2.63625 17.0654 2.625 16.7013 2.625 16.6904L3 15.5654H5.25Z" fill="#5D9CEC"/>
<path d="M2.99875 12.1934L2.14 10.8992L2.125 10.8846C2.25625 10.7646 2.4325 10.6934 2.62375 10.6934H5.62375C5.81875 10.6934 5.995 10.7642 6.12625 10.8846L6.11125 10.8992L5.24875 12.1934H2.99875Z" fill="#D3374E"/>
<path d="M3 15.5667L2.625 16.6917C2.625 16.7026 2.63625 17.0667 4.125 17.0667C5.61375 17.0667 5.625 16.7026 5.625 16.6917L5.25 15.5667V12.1955L6.1125 10.9013L6.1275 10.8867C6.2775 11.0213 6.375 11.2242 6.375 11.4455V17.813C6.375 18.6451 5.70375 19.313 4.875 19.313H3.375C2.54625 19.313 1.875 18.6451 1.875 17.813V11.4455C1.875 11.2242 1.9725 11.0213 2.12625 10.8867L2.14125 10.9013L3 12.1955V15.5667Z" fill="#DA4453"/>
<path d="M23.6235 21.1846H0.375C0.275544 21.1846 0.180161 21.1451 0.109835 21.0747C0.0395088 21.0044 0 20.909 0 20.8096C0 20.7101 0.0395088 20.6147 0.109835 20.5444C0.180161 20.4741 0.275544 20.4346 0.375 20.4346H23.6235C23.723 20.4346 23.8183 20.4741 23.8887 20.5444C23.959 20.6147 23.9985 20.7101 23.9985 20.8096C23.9985 20.909 23.959 21.0044 23.8887 21.0747C23.8183 21.1451 23.723 21.1846 23.6235 21.1846Z" fill="#CCD1D9"/>
<path d="M23.6243 21.1861C23.5248 21.1861 23.4294 21.1466 23.3591 21.0763C23.2888 21.006 23.2493 20.9106 23.2493 20.8111V9.18164C23.2493 9.08218 23.2888 8.9868 23.3591 8.91648C23.4294 8.84615 23.5248 8.80664 23.6243 8.80664C23.7237 8.80664 23.8191 8.84615 23.8894 8.91648C23.9597 8.9868 23.9993 9.08218 23.9993 9.18164V20.8111C23.9993 20.9106 23.9597 21.006 23.8894 21.0763C23.8191 21.1466 23.7237 21.1861 23.6243 21.1861ZM16.1243 21.1861C16.0248 21.1861 15.9294 21.1466 15.8591 21.0763C15.7888 21.006 15.7493 20.9106 15.7493 20.8111V9.18164C15.7493 9.08218 15.7888 8.9868 15.8591 8.91648C15.9294 8.84615 16.0248 8.80664 16.1243 8.80664C16.2237 8.80664 16.3191 8.84615 16.3894 8.91648C16.4597 8.9868 16.4993 9.08218 16.4993 9.18164V20.8111C16.4993 20.9106 16.4597 21.006 16.3894 21.0763C16.3191 21.1466 16.2237 21.1861 16.1243 21.1861ZM7.875 21.1861C7.77554 21.1861 7.68016 21.1466 7.60984 21.0763C7.53951 21.006 7.5 20.9106 7.5 20.8111V9.18164C7.5 9.08218 7.53951 8.9868 7.60984 8.91648C7.68016 8.84615 7.77554 8.80664 7.875 8.80664C7.97446 8.80664 8.06984 8.84615 8.14017 8.91648C8.21049 8.9868 8.25 9.08218 8.25 9.18164V20.8111C8.25 20.9106 8.21049 21.006 8.14017 21.0763C8.06984 21.1466 7.97446 21.1861 7.875 21.1861ZM0.375 21.1861C0.275544 21.1861 0.180161 21.1466 0.109835 21.0763C0.0395088 21.006 0 20.9106 0 20.8111V9.18164C0 9.08218 0.0395088 8.9868 0.109835 8.91648C0.180161 8.84615 0.275544 8.80664 0.375 8.80664C0.474456 8.80664 0.569839 8.84615 0.640165 8.91648C0.710491 8.9868 0.75 9.08218 0.75 9.18164V20.8111C0.75 20.9106 0.710491 21.006 0.640165 21.0763C0.569839 21.1466 0.474456 21.1861 0.375 21.1861Z" fill="#CCD1D9"/>
<path d="M23.6239 9.55664H22.8742C22.7748 9.55664 22.6794 9.51713 22.6091 9.44681C22.5388 9.37648 22.4992 9.2811 22.4992 9.18164C22.4992 9.08218 22.5388 8.9868 22.6091 8.91648C22.6794 8.84615 22.7748 8.80664 22.8742 8.80664H23.6239C23.7233 8.80664 23.8187 8.84615 23.889 8.91648C23.9594 8.9868 23.9989 9.08218 23.9989 9.18164C23.9989 9.2811 23.9594 9.37648 23.889 9.44681C23.8187 9.51713 23.7233 9.55664 23.6239 9.55664ZM1.12462 9.55664H0.375C0.275544 9.55664 0.180161 9.51713 0.109835 9.44681C0.0395088 9.37648 0 9.2811 0 9.18164C0 9.08218 0.0395088 8.9868 0.109835 8.91648C0.180161 8.84615 0.275544 8.80664 0.375 8.80664H1.12462C1.22408 8.80664 1.31946 8.84615 1.38979 8.91648C1.46012 8.9868 1.49962 9.08218 1.49962 9.18164C1.49962 9.2811 1.46012 9.37648 1.38979 9.44681C1.31946 9.51713 1.22408 9.55664 1.12462 9.55664ZM16.8742 9.55664H15.3739C15.2744 9.55664 15.179 9.51713 15.1087 9.44681C15.0384 9.37648 14.9989 9.2811 14.9989 9.18164C14.9989 9.08218 15.0384 8.9868 15.1087 8.91648C15.179 8.84615 15.2744 8.80664 15.3739 8.80664H16.8742C16.9737 8.80664 17.0691 8.84615 17.1394 8.91648C17.2097 8.9868 17.2492 9.08218 17.2492 9.18164C17.2492 9.2811 17.2097 9.37648 17.1394 9.44681C17.0691 9.51713 16.9737 9.55664 16.8742 9.55664ZM8.62537 9.55664H7.125C7.02554 9.55664 6.93016 9.51713 6.85983 9.44681C6.78951 9.37648 6.75 9.2811 6.75 9.18164C6.75 9.08218 6.78951 8.9868 6.85983 8.91648C6.93016 8.84615 7.02554 8.80664 7.125 8.80664H8.62537C8.72483 8.80664 8.82021 8.84615 8.89054 8.91648C8.96087 8.9868 9.00037 9.08218 9.00037 9.18164C9.00037 9.2811 8.96087 9.37648 8.89054 9.44681C8.82021 9.51713 8.72483 9.55664 8.62537 9.55664Z" fill="#CCD1D9"/>
<path d="M12 19.6831C11.9005 19.6831 11.8052 19.6436 11.7348 19.5733C11.6645 19.503 11.625 19.4076 11.625 19.3081V12.9316C11.625 12.8322 11.6645 12.7368 11.7348 12.6665C11.8052 12.5961 11.9005 12.5566 12 12.5566C12.0995 12.5566 12.1948 12.5961 12.2652 12.6665C12.3355 12.7368 12.375 12.8322 12.375 12.9316V19.3081C12.375 19.4076 12.3355 19.503 12.2652 19.5733C12.1948 19.6436 12.0995 19.6831 12 19.6831Z" fill="#656D78"/>
<path d="M12.0005 19.6816C11.9262 19.6817 11.8536 19.6599 11.7918 19.6187C11.7301 19.5775 11.6819 19.5189 11.6535 19.4503C11.6251 19.3817 11.6177 19.3062 11.6323 19.2335C11.6468 19.1607 11.6827 19.0938 11.7353 19.0415L12.4853 18.2915C12.5201 18.2566 12.5615 18.229 12.607 18.2102C12.6525 18.1913 12.7012 18.1816 12.7505 18.1816C12.7997 18.1816 12.8484 18.1913 12.8939 18.2102C12.9394 18.229 12.9808 18.2566 13.0156 18.2915C13.0504 18.3263 13.078 18.3676 13.0969 18.4131C13.1157 18.4586 13.1254 18.5073 13.1254 18.5566C13.1254 18.6058 13.1157 18.6546 13.0969 18.7001C13.078 18.7456 13.0504 18.7869 13.0156 18.8217L12.2656 19.5717C12.2309 19.6066 12.1895 19.6344 12.144 19.6532C12.0985 19.6721 12.0497 19.6817 12.0005 19.6816Z" fill="#656D78"/>
<path d="M11.9999 19.6816C11.9507 19.6816 11.9019 19.672 11.8564 19.6531C11.8109 19.6342 11.7696 19.6066 11.7348 19.5717L10.9848 18.8217C10.95 18.7869 10.9224 18.7456 10.9035 18.7001C10.8847 18.6546 10.875 18.6058 10.875 18.5566C10.875 18.5073 10.8847 18.4586 10.9035 18.4131C10.9224 18.3676 10.95 18.3263 10.9848 18.2915C11.0196 18.2566 11.061 18.229 11.1065 18.2102C11.1519 18.1913 11.2007 18.1816 11.2499 18.1816C11.2992 18.1816 11.3479 18.1913 11.3934 18.2102C11.4389 18.229 11.4803 18.2566 11.5151 18.2915L12.2651 19.0415C12.3177 19.0938 12.3535 19.1607 12.3681 19.2335C12.3827 19.3062 12.3753 19.3817 12.3469 19.4503C12.3185 19.5189 12.2703 19.5775 12.2086 19.6187C12.1468 19.6599 12.0742 19.6817 11.9999 19.6816Z" fill="#656D78"/>
</g>
<defs>
<clipPath id="clip0_1971_210279">
<rect width="24" height="24" fill="white"/>
</clipPath>
</defs>
</svg>
