<svg width="32" height="33" viewBox="0 0 32 33" fill="none" xmlns="http://www.w3.org/2000/svg">
<path d="M0.666667 30.6975C0.489856 30.6975 0.320286 30.7681 0.195262 30.8937C0.0702379 31.0192 0 31.1896 0 31.3672C0 31.5448 0.0702379 31.7151 0.195262 31.8407C0.320286 31.9662 0.489856 32.0368 0.666667 32.0368H31.3333C31.5101 32.0368 31.6797 31.9662 31.8047 31.8407C31.9298 31.7151 32 31.5448 32 31.3672C31.9991 31.2015 31.9364 31.0422 31.8244 30.9206C31.7123 30.799 31.559 30.724 31.3947 30.7103C31.4247 30.5817 31.4447 30.4491 31.4447 30.3112V22.5282C31.4439 21.8529 31.2722 21.1888 30.9457 20.5984C30.6191 20.0081 30.1485 19.5108 29.578 19.1534H31.0593C31.2361 19.1534 31.4057 19.0828 31.5307 18.9572C31.6558 18.8316 31.726 18.6613 31.726 18.4837V17.1961C31.726 17.0185 31.6558 16.8482 31.5307 16.7226C31.4057 16.597 31.2361 16.5264 31.0593 16.5264C30.8825 16.5264 30.713 16.597 30.5879 16.7226C30.4629 16.8482 30.3927 17.0185 30.3927 17.1961V17.8141H28.5147L27.308 15.1075C26.4513 13.1844 24.4867 11.9416 22.3047 11.9416H14.946C12.764 11.9416 10.8 13.1844 9.94267 15.1075L8.736 17.8141H6.858V17.1961C6.858 17.0185 6.78776 16.8482 6.66274 16.7226C6.53771 16.597 6.36814 16.5264 6.19133 16.5264C6.01452 16.5264 5.84495 16.597 5.71993 16.7226C5.5949 16.8482 5.52467 17.0185 5.52467 17.1961V18.4837C5.52467 18.6613 5.5949 18.8316 5.71993 18.9572C5.84495 19.0828 6.01452 19.1534 6.19133 19.1534H7.67333C7.10272 19.5107 6.63195 20.0079 6.3053 20.5983C5.97864 21.1887 5.80682 21.8528 5.806 22.5282L5.80467 30.3112C5.80467 30.4451 5.82267 30.573 5.85133 30.6975H2.32667V11.582H9.56467C10.2813 11.582 10.864 10.9934 10.864 10.2695V1.63819C10.864 0.915007 10.2813 0.325745 9.564 0.325745H1.65867C1.48186 0.325745 1.31229 0.396293 1.18726 0.521871C1.06224 0.647448 0.992 0.817768 0.992 0.995361L0.994667 30.6975H0.666667ZM9.56533 10.2428H2.32667V1.66498H9.53067L9.56533 10.2428ZM11.8853 28.003H25.3647V30.3112C25.3647 30.4451 25.3827 30.573 25.4113 30.6975H11.838C11.8667 30.573 11.8847 30.4444 11.8847 30.3112L11.8853 28.003ZM30.1113 28.003V30.3112C30.1113 30.5054 29.9707 30.6614 29.7873 30.6975H27.0207C26.9302 30.6816 26.8482 30.6341 26.7892 30.5634C26.7302 30.4928 26.6979 30.4034 26.698 30.3112V28.003H30.1113ZM22.5753 19.8812L22.1773 21.5821C21.9707 22.2269 21.4387 22.5972 20.718 22.5972H16.3847C15.6647 22.5972 15.132 22.2276 14.9407 21.6329L14.528 19.8812H22.5753ZM11.16 15.6546C11.7933 14.235 13.3147 13.2808 14.946 13.2808H22.3047C23.9367 13.2808 25.458 14.235 26.0913 15.6546L27.3753 18.5353H9.87533L11.16 15.6546ZM9.77467 19.8812H13.158L13.6567 21.9912C14.04 23.1911 15.0853 23.9364 16.3847 23.9364H20.718C22.0167 23.9364 23.0627 23.1911 23.4607 21.941L23.9453 19.8812H27.4767C28.1753 19.8819 28.8452 20.1611 29.3391 20.6573C29.8331 21.1536 30.1108 21.8265 30.1113 22.5282V26.6618C30.0447 26.6618 6.37333 26.6644 7.13933 26.6618V22.5282C7.14004 21.8264 7.41792 21.1535 7.91198 20.6573C8.40605 20.161 9.07595 19.8819 9.77467 19.8812ZM7.138 30.3112V28.003H10.5513V30.3112C10.5515 30.4033 10.5193 30.4926 10.4604 30.5633C10.4015 30.6339 10.3197 30.6815 10.2293 30.6975H7.46267C7.37229 30.6811 7.29045 30.6335 7.2312 30.563C7.17195 30.4925 7.139 30.4034 7.138 30.3112Z" fill="#525F72"/>
<path d="M10.4694 25.2354C11.572 25.2354 12.4694 24.3341 12.4694 23.2266C12.4694 22.1191 11.572 21.2177 10.4694 21.2177C9.36671 21.2177 8.46937 22.1191 8.46937 23.2266C8.46937 24.3341 9.36671 25.2354 10.4694 25.2354ZM10.4694 22.557C10.6014 22.5568 10.7305 22.5961 10.8404 22.6697C10.9502 22.7433 11.0359 22.8479 11.0864 22.9705C11.137 23.093 11.1503 23.2278 11.1246 23.3579C11.0989 23.488 11.0353 23.6074 10.9419 23.7012C10.8485 23.795 10.7296 23.8589 10.6001 23.8847C10.4706 23.9105 10.3363 23.8972 10.2144 23.8464C10.0924 23.7956 9.98817 23.7096 9.9149 23.5992C9.84162 23.4889 9.80258 23.3592 9.80271 23.2266C9.80271 22.8576 10.1014 22.557 10.4694 22.557ZM26.776 25.2354C27.8787 25.2354 28.776 24.3341 28.776 23.2266C28.776 22.1191 27.8787 21.2177 26.776 21.2177C25.6734 21.2177 24.776 22.1191 24.776 23.2266C24.776 24.3341 25.6734 25.2354 26.776 25.2354ZM26.776 22.557C26.9081 22.5568 27.0372 22.5961 27.147 22.6697C27.2569 22.7433 27.3425 22.8479 27.3931 22.9705C27.4437 23.093 27.457 23.2278 27.4312 23.3579C27.4055 23.488 27.342 23.6074 27.2486 23.7012C27.1552 23.795 27.0362 23.8589 26.9067 23.8847C26.7772 23.9105 26.643 23.8972 26.521 23.8464C26.3991 23.7956 26.2948 23.7096 26.2216 23.5992C26.1483 23.4889 26.1092 23.3592 26.1094 23.2266C26.1094 22.8576 26.408 22.557 26.776 22.557ZM3.86138 8.24928C3.86138 8.42688 3.93161 8.5972 4.05664 8.72277C4.18166 8.84835 4.35123 8.9189 4.52804 8.9189C4.70485 8.9189 4.87442 8.84835 4.99945 8.72277C5.12447 8.5972 5.19471 8.42688 5.19471 8.24928V6.90603H6.03871C6.55684 6.90532 7.05354 6.69823 7.41985 6.33017C7.78616 5.96211 7.99218 5.46314 7.99271 4.94272C7.99094 4.42354 7.78423 3.92625 7.41792 3.55995C7.05161 3.19365 6.5556 2.98824 6.03871 2.98878H4.52604C4.34923 2.98878 4.17966 3.05932 4.05464 3.1849C3.92961 3.31048 3.85938 3.4808 3.85938 3.65839V6.23642C3.85938 6.23976 3.86138 6.24244 3.86138 6.24579V8.24928ZM6.65937 4.94205C6.6592 5.10739 6.59377 5.26593 6.47743 5.38291C6.36109 5.49989 6.20333 5.56578 6.03871 5.56613H5.19471V4.32801H6.03871C6.38071 4.32801 6.65937 4.60322 6.65937 4.94205ZM16.5047 9.26978C16.3807 9.39649 16.3118 9.5675 16.3133 9.7452C16.3148 9.92289 16.3866 10.0927 16.5127 10.2173C16.6389 10.3419 16.8091 10.411 16.986 10.4095C17.1629 10.408 17.332 10.336 17.456 10.2093C20.1707 7.43838 20.1367 2.97538 17.378 0.248705C17.3166 0.182839 17.2426 0.130115 17.1604 0.0936999C17.0782 0.0572847 16.9896 0.0379294 16.8998 0.036796C16.8099 0.0356626 16.7208 0.0527745 16.6377 0.0871043C16.5547 0.121434 16.4793 0.172274 16.4163 0.23657C16.3533 0.300866 16.3039 0.377292 16.271 0.461259C16.2381 0.545226 16.2225 0.635001 16.225 0.725194C16.2275 0.815387 16.2482 0.904137 16.2857 0.986114C16.3232 1.06809 16.3769 1.1416 16.4434 1.20224C18.6767 3.41197 18.7027 7.02656 16.5047 9.26978Z" fill="#525F72"/>
<path d="M14.6441 1.754C14.5203 1.88072 14.4516 2.05157 14.4531 2.22908C14.4546 2.40659 14.5262 2.57625 14.6521 2.70084C15.3256 3.36855 15.708 4.27733 15.7154 5.22784C15.7228 6.17835 15.3545 7.093 14.6914 7.77117C14.5673 7.8978 14.4983 8.06876 14.4997 8.24645C14.5011 8.42415 14.5727 8.59401 14.6987 8.71868C14.8248 8.84335 14.995 8.91262 15.1719 8.91123C15.3488 8.90985 15.518 8.83794 15.6421 8.71132C17.5387 6.77612 17.5141 3.65169 15.5874 1.74597C15.4613 1.62149 15.2912 1.55241 15.1144 1.55392C14.9376 1.55543 14.7687 1.6274 14.6447 1.754H14.6441Z" fill="#525F72"/>
<path d="M12.8716 3.25125C12.8101 3.31392 12.7615 3.38815 12.7285 3.4697C12.6956 3.55126 12.679 3.63853 12.6797 3.72653C12.6804 3.81452 12.6983 3.90153 12.7325 3.98255C12.7667 4.06358 12.8164 4.13705 12.8789 4.19875C13.4522 4.76592 13.4596 5.69736 12.8949 6.2739C12.7741 6.40106 12.7079 6.57086 12.7106 6.74663C12.7133 6.9224 12.7847 7.09004 12.9095 7.21338C13.0342 7.33671 13.2022 7.40583 13.3772 7.40583C13.5522 7.40583 13.7202 7.3367 13.8449 7.21337C14.364 6.68257 14.6523 5.96662 14.6466 5.22259C14.6408 4.47855 14.3415 3.76719 13.8142 3.24455C13.6883 3.1199 13.5183 3.05058 13.3415 3.05184C13.1647 3.05309 12.9957 3.12482 12.8716 3.25125Z" fill="#525F72"/>
</svg>
