<svg width="25" height="24" viewBox="0 0 25 24" fill="none" xmlns="http://www.w3.org/2000/svg">
<path d="M17.3281 21.25H7.32812C5.14034 21.25 3.88708 20.9094 3.15293 20.1752C2.41877 19.441 2.07812 18.1878 2.07812 16V8C2.07812 5.81222 2.41877 4.55896 3.15293 3.8248C3.88708 3.09065 5.14034 2.75 7.32812 2.75H17.3281C19.5159 2.75 20.7692 3.09065 21.5033 3.8248C22.2375 4.55896 22.5781 5.81222 22.5781 8V16C22.5781 18.1878 22.2375 19.441 21.5033 20.1752C20.7692 20.9094 19.5159 21.25 17.3281 21.25ZM7.32812 3.25C6.4243 3.25 5.66904 3.29224 5.05048 3.42281C4.42635 3.55456 3.90539 3.78357 3.50671 4.18306C3.10809 4.58249 2.88026 5.10372 2.74941 5.72714C2.61973 6.34503 2.57812 7.09888 2.57812 8V16C2.57812 16.9011 2.61973 17.655 2.74941 18.2729C2.88026 18.8963 3.10809 19.4175 3.50671 19.8169C3.90539 20.2164 4.42635 20.4454 5.05048 20.5772C5.66904 20.7078 6.4243 20.75 7.32812 20.75H17.3281C18.2319 20.75 18.9872 20.7078 19.6058 20.5772C20.2299 20.4454 20.7509 20.2164 21.1495 19.8169C21.5482 19.4175 21.776 18.8963 21.9068 18.2729C22.0365 17.655 22.0781 16.9011 22.0781 16V8C22.0781 7.09888 22.0365 6.34503 21.9068 5.72714C21.776 5.10372 21.5482 4.58249 21.1495 4.18306C20.7509 3.78357 20.2299 3.55456 19.6058 3.42281C18.9872 3.29224 18.2319 3.25 17.3281 3.25H7.32812Z" fill="#7B8697" stroke="#7B8697"/>
<path d="M19.3281 8.25H14.3281C14.1943 8.25 14.0781 8.13386 14.0781 8C14.0781 7.86614 14.1943 7.75 14.3281 7.75H19.3281C19.462 7.75 19.5781 7.86614 19.5781 8C19.5781 8.13386 19.462 8.25 19.3281 8.25Z" fill="#7B8697" stroke="#7B8697"/>
<path d="M19.3281 12.75H15.3281C14.9181 12.75 14.5781 12.41 14.5781 12C14.5781 11.59 14.9181 11.25 15.3281 11.25H19.3281C19.7381 11.25 20.0781 11.59 20.0781 12C20.0781 12.41 19.7381 12.75 19.3281 12.75Z" fill="#7B8697"/>
<path d="M19.3281 16.75H17.3281C16.9181 16.75 16.5781 16.41 16.5781 16C16.5781 15.59 16.9181 15.25 17.3281 15.25H19.3281C19.7381 15.25 20.0781 15.59 20.0781 16C20.0781 16.41 19.7381 16.75 19.3281 16.75Z" fill="#7B8697"/>
<path d="M8.82562 12.0399C7.41562 12.0399 6.26562 10.8899 6.26562 9.47992C6.26562 8.06992 7.41562 6.91992 8.82562 6.91992C10.2356 6.91992 11.3856 8.06992 11.3856 9.47992C11.3856 10.8899 10.2356 12.0399 8.82562 12.0399ZM8.82562 8.41992C8.24563 8.41992 7.76562 8.89992 7.76562 9.47992C7.76562 10.0599 8.24563 10.5399 8.82562 10.5399C9.40562 10.5399 9.88563 10.0599 9.88563 9.47992C9.88563 8.89992 9.40562 8.41992 8.82562 8.41992Z" fill="#7B8697"/>
<path d="M12.3261 17.0798C11.9461 17.0798 11.6161 16.7898 11.5761 16.3998C11.4661 15.3198 10.5961 14.4498 9.50608 14.3498C9.04608 14.3098 8.58608 14.3098 8.12608 14.3498C7.03608 14.4498 6.16608 15.3098 6.05608 16.3998C6.01608 16.8098 5.64608 17.1198 5.23608 17.0698C4.82608 17.0298 4.52608 16.6598 4.56608 16.2498C4.74608 14.4498 6.17608 13.0198 7.98608 12.8598C8.53608 12.8098 9.09608 12.8098 9.64608 12.8598C11.4461 13.0298 12.8861 14.4598 13.0661 16.2498C13.1061 16.6598 12.8061 17.0298 12.3961 17.0698C12.3761 17.0798 12.3461 17.0798 12.3261 17.0798Z" fill="#7B8697"/>
</svg>
