<svg width="48" height="48" viewBox="0 0 48 48" fill="none" xmlns="http://www.w3.org/2000/svg">
<rect width="48" height="48" fill="white"/>
<path d="M39.5308 25.0686C39.5308 20.6336 37.5345 16.6647 34.3913 14.0118C31.8739 11.8869 24.8015 11.6436 24.8015 11.6436L19.6757 11.6731C19.6376 11.6892 19.5915 11.6781 19.5536 11.6945C14.5297 13.8746 11.2695 19.0402 11.2695 25.0448C11.2695 33.0322 17.2247 38.4673 25.2121 38.4673C27.6135 38.4673 29.7344 38.9458 31.7275 37.9101C36.3639 35.501 39.5308 30.6546 39.5308 25.0686Z" fill="#94CCD4"/>
<path d="M34.3921 14.0121C32.9215 14.9739 31.3427 15.9283 30.7508 16.0577C29.1265 16.5327 27.0121 15.5264 26.5777 17.9221C26.5652 18.3846 26.5246 18.8239 26.4552 19.2339C26.3777 19.6914 26.2077 20.1221 25.9608 20.5046C25.714 20.8871 25.0569 20.9987 24.6744 21.2612C23.6213 21.9849 22.7656 22.0283 21.6318 21.4377C21.6031 21.4227 21.5737 21.4071 21.5443 21.3914C19.6556 20.4658 18.546 18.3371 20.5041 16.7814C21.791 15.7189 21.5964 13.8448 20.697 12.6735L20.1558 12.0473C20.576 11.8737 20.4049 11.3674 20.8439 11.2334C22.1805 10.8257 23.5991 10.6064 25.0689 10.6064C28.6215 10.6064 31.8746 11.8871 34.3921 14.0121ZM36.2856 21.489C36.2775 20.2948 35.7954 19.1527 34.9453 18.3139C34.22 17.4841 33.9691 16.9896 32.9723 17.9058C32.0274 19.0811 32.9593 20.5399 30.951 22.5441C30.5953 22.9062 30.3958 23.4018 30.4158 23.9099C30.4151 23.9098 30.4154 23.8201 30.4147 23.82C30.4869 25.0784 31.3465 26.0929 32.5716 26.0929C34.1453 26.0928 36.2856 24.2454 36.2856 21.489Z" fill="#B7E546"/>
<path d="M31.7577 22.4504C31.4021 22.8129 31.2021 23.3086 31.2221 23.8167C31.2214 23.8161 31.2214 23.8154 31.2208 23.8154C31.2808 24.8573 32.1839 25.7342 33.1883 26.0054C32.9777 26.0629 32.7702 26.0923 32.5714 26.0923C31.3464 26.0923 30.0433 25.0742 29.9708 23.8154C29.9714 23.8154 29.9714 23.8161 29.9721 23.8167C29.9521 23.3086 30.1521 22.8129 30.5077 22.4504C32.5158 20.4467 31.3521 18.8811 32.2971 17.7061C32.8664 17.1823 33.4133 17.1848 33.9121 17.4379C33.7914 17.5048 33.6702 17.5929 33.5471 17.7061C32.6021 18.8811 33.7658 20.4467 31.7577 22.4504Z" fill="#ABD641"/>
<path d="M37.6449 9.56256V16.7817L37.1849 17.2184C37.1849 17.8225 36.4981 17.9135 35.894 17.9135L32.5922 17.8887C32.4385 17.8887 32.2888 17.9372 32.1644 18.0273L29.4397 19.9192C29.1987 20.0939 28.8612 19.9216 28.8612 19.624L29.117 18.7141C29.117 18.3113 28.7905 17.9849 28.3878 17.9849H27.5128C26.9087 17.9849 26.419 17.4952 26.419 16.8911L26.2871 10.1187C26.2871 9.51469 26.527 8.87756 27.1311 8.87756L27.436 8.46875H36.551C37.1552 8.46875 37.6449 8.95844 37.6449 9.56256Z" fill="#DC4955"/>
<path d="M37.6439 16.7817V17.1463C37.6439 17.7504 37.1542 18.2401 36.5501 18.2401H32.6357C32.4818 18.2401 32.3323 18.289 32.2084 18.3787L29.2529 20.5189C29.0122 20.6939 28.6746 20.5218 28.6746 20.2236V18.9693C28.6746 18.5666 28.3481 18.2401 27.9454 18.2401H27.0704C26.4663 18.2401 25.9766 17.7504 25.9766 17.1463V9.56256C25.9766 8.9585 26.4663 8.46875 27.0704 8.46875H27.435V16.6359C27.435 16.655 27.4388 16.674 27.4461 16.6917C27.4534 16.7094 27.4642 16.7254 27.4777 16.739C27.4912 16.7525 27.5073 16.7633 27.525 16.7706C27.5427 16.7779 27.5617 16.7817 27.5808 16.7817H27.9454C28.7847 16.7817 29.5149 17.2564 29.8816 17.952C29.9441 18.0706 30.0957 18.108 30.2043 18.0293L31.3522 17.1973C31.7252 16.9263 32.1746 16.7807 32.6356 16.7817H37.6439Z" fill="#D82F3C"/>
<path d="M28.5055 38.2676C20.3267 38.2676 13.6961 31.6564 13.6961 23.5014C13.6961 18.6445 15.9228 14.3861 19.5535 11.6948C14.3017 13.8626 10.6055 19.0342 10.6055 25.0689C10.6055 27.5281 11.2192 29.8439 12.302 31.8715C12.302 31.8715 15.7388 34.5934 17.4767 35.8724C19.874 37.6368 24.5323 38.7748 24.5323 38.7748C24.5323 38.7748 29.7155 38.9507 31.703 37.9219C30.6528 38.1523 29.5807 38.2682 28.5055 38.2676Z" fill="#6FBBC6"/>
<path d="M31.7277 37.9089C30.5655 36.2902 28.4281 34.5057 28.52 32.3564C28.5513 31.6236 28.4546 30.8884 28.2134 30.1955C28.2096 30.1861 28.2065 30.1769 28.2034 30.1678C28.0814 29.8246 27.8982 29.507 27.67 29.224C27.0401 28.4415 25.6961 26.4 25.0389 26.1137C23.7839 25.3375 22.0849 25.9155 21.4136 27.19C20.8308 28.6642 20.6701 30.684 19.1478 31.4792C18.2378 31.9727 16.9262 31.8618 16.2339 31.0447C15.0329 29.4847 13.3513 30.993 12.3047 31.8708C12.7206 32.6477 14.4174 33.2173 14.9661 33.9064C17.243 36.7665 19.2694 37.869 22.6058 38.4677C25.709 39.0308 28.8934 39.381 31.6939 37.926C31.7051 37.9202 31.7164 37.9147 31.7277 37.9089Z" fill="#B7E546"/>
<path d="M31.6984 37.9232C29.2122 39.2168 26.3412 39.7443 23.5559 39.452V39.4513C18.8485 38.991 14.5041 36.0546 12.3047 31.8707C13.1322 31.1763 14.3578 30.087 15.4284 30.4351C17.9191 35.0957 22.8416 38.2676 28.5066 38.2676C29.6028 38.2676 30.6703 38.1488 31.6984 37.9232Z" fill="#ABD641"/>
<path d="M34.9242 25.4019V32.621L34.4642 33.0577C34.4642 33.6618 33.7775 33.7528 33.1733 33.7528L29.8715 33.728C29.7179 33.728 29.5682 33.7765 29.4438 33.8666L26.7191 35.7585C26.478 35.9332 26.1406 35.7609 26.1406 35.4633L26.3963 34.5534C26.3963 34.1506 26.0698 33.8242 25.6672 33.8242H24.7921C24.188 33.8242 23.6983 33.3345 23.6983 32.7304L23.5664 25.9581C23.5664 25.354 23.8063 24.7169 24.4104 24.7169L24.7153 24.3081H33.8303C34.4345 24.308 34.9242 24.7978 34.9242 25.4019Z" fill="#FFBF54"/>
<path d="M34.9232 32.621V32.9857C34.9232 33.5897 34.4335 34.0795 33.8294 34.0795H29.915C29.7611 34.0795 29.6116 34.1284 29.4877 34.218L26.5322 36.3582C26.2915 36.5332 25.9539 36.3612 25.9539 36.0629V34.8087C25.9539 34.4059 25.6274 34.0795 25.2247 34.0795H24.3497C23.7456 34.0795 23.2559 33.5898 23.2559 32.9857V25.4019C23.2559 24.7979 23.7455 24.3081 24.3497 24.3081H24.7143V32.4752C24.7143 32.4944 24.7181 32.5133 24.7254 32.531C24.7327 32.5487 24.7435 32.5648 24.757 32.5783C24.7705 32.5919 24.7866 32.6026 24.8043 32.6099C24.822 32.6173 24.841 32.621 24.8601 32.621H25.2247C26.064 32.621 26.7942 33.0957 27.1609 33.7914C27.2234 33.9099 27.375 33.9474 27.4835 33.8687L28.6315 33.0367C29.0045 32.7656 29.4539 32.6201 29.9149 32.621H34.9232Z" fill="#FFA442"/>
<path d="M20.979 17.5885L20.9609 17.6035C20.7197 17.7954 19.8822 18.5623 19.2884 19.2198C19.0497 18.3179 19.2572 17.3604 20.1834 16.6248C21.4703 15.5623 20.9953 13.4923 20.0959 12.321L19.5543 11.6945C19.9765 11.5199 20.4069 11.3659 20.844 11.2329C21.2328 11.8235 21.5784 12.321 21.5784 12.321C22.5103 14.0567 22.5522 16.2904 20.979 17.5885Z" fill="#ABD641"/>
<path d="M26.013 20.4194C25.9961 20.4481 25.9786 20.4763 25.9605 20.5044C25.7112 20.8905 25.3876 21.2232 25.0086 21.4831C23.9555 22.2069 22.5899 22.2881 21.4561 21.6975C21.4274 21.6825 21.398 21.6669 21.3686 21.6513C19.5911 20.78 18.3755 18.4756 19.8699 16.9106C19.3943 18.3469 20.5174 20.005 22.0293 20.7138C22.0599 20.7294 22.0905 20.745 22.1205 20.76C23.3055 21.3506 24.733 21.2694 25.8336 20.5456C25.8949 20.5056 25.9549 20.4638 26.013 20.4194Z" fill="#ABD641"/>
<path d="M18.9141 38.1584C18.9282 38.1651 18.9426 38.1716 18.9567 38.1782C18.9425 38.1716 18.9282 38.1651 18.9141 38.1584ZM31.7031 37.9219C31.445 38.0556 31.1831 38.1812 30.9163 38.2987C31.1788 38.1825 31.4375 38.0581 31.6925 37.9256C31.6944 37.925 31.6956 37.9237 31.6975 37.9231C31.6994 37.9225 31.7013 37.9225 31.7031 37.9219Z" fill="#94CCD4"/>
<path d="M8.97266 17.0313L9.06441 23.3212C9.06441 23.9371 9.56628 24.4364 10.1854 24.4364L13.7045 24.5514C13.8618 24.5514 14.0152 24.6008 14.1428 24.6928L16.5445 26.7232C16.7916 26.9012 17.1374 26.7256 17.1374 26.4221L17.2892 25.4405C17.2892 25.0299 17.6237 24.697 18.0365 24.697L19.198 24.6928C19.8171 24.6928 20.4267 24.5458 20.4267 23.9298V16.1973C20.4267 15.5813 19.9248 15.082 19.3057 15.082H9.59034C8.97122 15.082 8.97266 16.4154 8.97266 17.0313Z" fill="#FAF8F8"/>
<path d="M20.4263 23.7952V23.9302C20.4263 24.5458 19.9244 25.0452 19.305 25.0452H18.4081C17.9956 25.0452 17.6613 25.3783 17.6613 25.7889V27.0683C17.6613 27.3714 17.315 27.547 17.0681 27.3689L14.04 25.1864C13.9125 25.0945 13.7587 25.0452 13.6013 25.0452H9.59C8.97063 25.0452 8.46875 24.5458 8.46875 23.9302V16.1977C8.46875 15.5814 8.97063 15.082 9.59 15.082H9.71875V23.4827C9.71875 23.5655 9.75167 23.645 9.81028 23.7036C9.86888 23.7622 9.94837 23.7952 10.0312 23.7952H13.6013C14.0213 23.7952 14.4306 23.9277 14.7706 24.1727L16.1675 25.1795C16.3012 25.2758 16.4875 25.217 16.5475 25.0639C16.8387 24.322 17.5631 23.7952 18.4081 23.7952H20.4263Z" fill="#F0E9E6"/>
<path d="M38.118 17.807C38.1699 17.6487 38.1964 17.4832 38.1964 17.3166V9.584C38.1964 8.71056 37.4832 8 36.6066 8H26.8913C26.0147 8 25.3015 8.71056 25.3015 9.584V10.1404C23.2057 10.0984 21.0273 10.5333 19.1014 11.3779C17.3381 12.1475 15.7615 13.2361 14.411 14.6132H12.75C12.6257 14.6132 12.5065 14.6626 12.4185 14.7505C12.3306 14.8385 12.2812 14.9577 12.2812 15.082C12.2812 15.2063 12.3306 15.3255 12.4185 15.4135C12.5065 15.5014 12.6257 15.5507 12.75 15.5507H19.3051C19.6648 15.5507 19.9574 15.8408 19.9574 16.1973V23.9298C19.9574 24.2863 19.6648 24.5764 19.3051 24.5764H18.4083C17.7378 24.5764 17.1922 25.1202 17.1922 25.7886V26.8805L14.3138 24.8062C14.1066 24.6563 13.8572 24.5759 13.6014 24.5764H9.58975C9.23013 24.5764 8.9375 24.2864 8.9375 23.9299V16.1973C8.9375 15.8408 9.23013 15.5508 9.58975 15.5508H10.5625C10.6868 15.5508 10.806 15.5014 10.894 15.4135C10.9819 15.3256 11.0312 15.2064 11.0312 15.0821C11.0312 14.9577 10.9819 14.8385 10.894 14.7506C10.806 14.6627 10.6868 14.6133 10.5625 14.6133H9.58975C8.71319 14.6133 8 15.3239 8 16.1973V23.9299C8 24.8033 8.71319 25.5139 9.58975 25.5139H10.1448C10.2559 29.3354 11.7959 32.9119 14.5109 35.6268C17.331 38.4469 21.0806 40 25.0688 40C27.1424 40 29.1496 39.5829 31.0349 38.7603C32.8558 37.9657 34.4784 36.832 35.8578 35.3906C35.9438 35.3007 35.9905 35.1805 35.9878 35.0562C35.9851 34.9319 35.9331 34.8138 35.8433 34.7278C35.7534 34.6419 35.6332 34.5951 35.5089 34.5978C35.3846 34.6006 35.2665 34.6526 35.1805 34.7424C34.1506 35.8186 32.9821 36.7072 31.7141 37.3936C31.1184 36.6007 30.2442 35.6467 29.6597 34.7323L29.7715 34.6518C29.8193 34.6172 29.8768 34.5987 29.9357 34.5989H33.9474C34.8239 34.5989 35.5371 33.8883 35.5371 33.0149V25.2823C35.5371 25.1776 35.5266 25.0754 35.5071 24.9764C36.3127 24.0121 36.754 22.7828 36.754 21.4856C36.7484 20.5717 36.4904 19.6772 36.0086 18.9006H36.6066C36.9233 18.901 37.233 18.8065 37.4955 18.6292C38.5222 20.6088 39.0625 22.8217 39.0625 25.0688C39.0625 27.9624 38.1871 30.739 36.531 33.0986C36.4956 33.1489 36.4705 33.2058 36.4571 33.2659C36.4437 33.326 36.4423 33.3881 36.4529 33.4487C36.4635 33.5094 36.486 33.5673 36.519 33.6193C36.552 33.6712 36.595 33.7161 36.6454 33.7515C36.7852 33.852 37.086 33.8923 37.2983 33.6371C39.0658 31.119 40 28.1561 40 25.0688C40 22.5227 39.3499 20.0171 38.118 17.807ZM19.3051 14.6133H15.7669C16.8677 13.6299 18.0978 12.8391 19.4185 12.2562L19.7319 12.6178C20.2579 13.3084 20.5863 14.2999 20.4786 15.1299C20.1877 14.8127 19.7694 14.6133 19.3051 14.6133ZM30.2224 37.0268C30.4465 37.2998 30.662 37.5626 30.8599 37.8191C29.0681 38.6339 27.1053 39.0625 25.0688 39.0625C19.8238 39.0625 15.2444 36.1614 12.8486 31.8802C13.5095 31.3351 14.3608 30.6727 15.0409 30.7516C15.3185 30.7838 15.5642 30.946 15.7922 31.2476C16.3626 32.0016 17.3251 32.1486 17.9994 32.1935C19.0063 32.1313 19.9035 31.6169 20.4637 30.7877C20.4991 30.7369 20.524 30.6797 20.5372 30.6193C20.5503 30.5588 20.5514 30.4964 20.5403 30.4355C20.5292 30.3747 20.5062 30.3166 20.4725 30.2647C20.4389 30.2128 20.3953 30.1681 20.3443 30.1331C20.2933 30.0981 20.2359 30.0736 20.1753 30.0609C20.1148 30.0482 20.0524 30.0476 19.9916 30.0591C19.9308 30.0707 19.8729 30.0942 19.8213 30.1282C19.7696 30.1622 19.7252 30.2061 19.6906 30.2574C19.2878 30.8446 18.7558 31.1624 18.019 31.2551C17.2537 31.1989 16.7966 31.0214 16.5399 30.6821C16.1549 30.1728 15.6869 29.8827 15.1491 29.8202C14.1562 29.7052 13.1798 30.4028 12.4094 31.0281C11.6141 29.3456 11.1447 27.4803 11.0829 25.5139H13.6013C13.6608 25.5139 13.7176 25.5321 13.7656 25.5667L16.7939 27.7491C16.9373 27.8529 17.1097 27.9088 17.2866 27.9089C17.4179 27.9089 17.5497 27.8781 17.6718 27.8156C17.8098 27.7455 17.9257 27.6385 18.0065 27.5065C18.0873 27.3745 18.13 27.2226 18.1296 27.0678V25.7886C18.1296 25.6371 18.2546 25.5139 18.4082 25.5139H19.3051C20.1816 25.5139 20.8948 24.8032 20.8948 23.9298V21.9294C21.4528 22.2734 22.3364 22.5789 23.0558 22.5593C23.848 22.5592 24.6215 22.3187 25.2742 21.8697C26.1438 21.2724 26.7426 20.3402 26.917 19.312C26.9396 19.1785 26.9594 19.041 26.9764 18.9006H27.788C27.9416 18.9006 28.0666 19.0238 28.0666 19.1753V20.4545C28.0666 20.7712 28.242 21.0577 28.5244 21.2023C28.7626 21.3138 29.0529 21.3516 29.4022 21.1359L31.3318 19.7453C31.2572 20.4713 31.062 21.2351 30.1729 22.1224C29.7553 22.5474 29.5156 23.1153 29.5029 23.6982H24.2319C23.3554 23.6982 22.6422 24.4088 22.6422 25.2822V25.4849C21.7719 25.8166 21.0752 26.5489 20.7629 27.4713C20.6949 27.6724 20.5883 28.0149 20.4893 28.3421C20.453 28.461 20.4653 28.5895 20.5237 28.6992C20.582 28.809 20.6816 28.8911 20.8005 28.9274C20.9893 28.9804 21.2565 28.9151 21.3858 28.6162C21.4523 28.3989 21.5434 28.0958 21.651 27.7718C21.8315 27.2386 22.1885 26.7962 22.6423 26.5234V33.0147C22.6423 33.8882 23.3554 34.5987 24.232 34.5987H25.1288C25.2824 34.5987 25.4074 34.722 25.4074 34.8735V36.1526C25.4074 36.4693 25.5828 36.7558 25.8652 36.9004C25.9872 36.9629 26.1191 36.9937 26.2504 36.9937C26.4239 36.9937 26.5962 36.9399 26.7431 36.834L28.8986 35.2807C29.2939 35.8943 29.7642 36.4688 30.2224 37.0268ZM34.5998 33.0148C34.5998 33.3713 34.3071 33.6613 33.9475 33.6613H29.9359C29.6784 33.6613 29.432 33.7408 29.2234 33.8912L26.345 35.9655V34.8736C26.345 34.2051 25.7994 33.6613 25.1289 33.6613H24.2321C23.8725 33.6613 23.5799 33.3713 23.5799 33.0148V25.2823C23.5799 24.9258 23.8725 24.6357 24.2321 24.6357H30.0218L30.0233 24.6359L30.0253 24.6357H33.9476C34.3072 24.6357 34.5998 24.9258 34.5998 25.2823L34.5998 33.0148ZM35.8166 21.4888C35.8166 22.4411 35.5293 23.3486 35.0006 24.0971C34.7102 23.8398 34.3355 23.6979 33.9475 23.6982H30.4409C30.4534 23.3597 30.5959 23.0297 30.8385 22.7828C32.1587 21.4653 32.2389 20.2978 32.3034 19.3597C32.3113 19.2445 32.3192 19.1338 32.3289 19.0268L32.4306 18.9536C32.4784 18.919 32.5359 18.9005 32.5949 18.9006H34.8507C35.4681 19.6234 35.8101 20.5369 35.8166 21.4888ZM36.6066 17.9631H32.595C32.3392 17.9626 32.0898 18.043 31.8826 18.1929L31.6025 18.3947L31.5993 18.397L29.0041 20.2673V19.1753C29.0041 18.5069 28.4586 17.9631 27.7881 17.9631H26.8913C26.5316 17.9631 26.239 17.673 26.239 17.3166V15.5625C26.239 15.4382 26.1896 15.319 26.1017 15.231C26.0138 15.1431 25.8946 15.0938 25.7703 15.0938C25.6459 15.0938 25.5267 15.1431 25.4388 15.231C25.3509 15.319 25.3015 15.4382 25.3015 15.5625V17.3166C25.3015 17.8863 25.605 18.3864 26.0592 18.6656C26.0421 18.8295 26.02 18.9928 25.9928 19.1553C25.8606 19.9348 25.4052 20.6425 24.7435 21.0969C23.5762 21.9186 22.0034 21.7111 20.8949 20.7937V16.5553C21.9006 15.2288 21.3974 13.1189 20.3404 11.8884C21.8494 11.3471 23.6023 11.0421 25.3014 11.0778V13.375C25.3014 13.4993 25.3508 13.6185 25.4387 13.7065C25.5266 13.7944 25.6459 13.8438 25.7702 13.8438C25.8945 13.8438 26.0137 13.7944 26.1016 13.7065C26.1896 13.6185 26.2389 13.4993 26.2389 13.375V9.584C26.2389 9.2275 26.5316 8.9375 26.8912 8.9375H36.6066C36.9662 8.9375 37.2588 9.22756 37.2588 9.584V17.3166C37.2589 17.6731 36.9662 17.9631 36.6066 17.9631Z" fill="black"/>
<path d="M34.6439 11.1096H32.2173V10.3125C32.2173 10.1882 32.1679 10.069 32.08 9.98104C31.9921 9.89314 31.8729 9.84375 31.7486 9.84375C31.6242 9.84375 31.505 9.89314 31.4171 9.98104C31.3292 10.069 31.2798 10.1882 31.2798 10.3125V11.1096H28.8532C28.7289 11.1096 28.6097 11.1589 28.5218 11.2469C28.4339 11.3348 28.3845 11.454 28.3845 11.5783C28.3845 11.7026 28.4339 11.8219 28.5218 11.9098C28.6097 11.9977 28.7289 12.0471 28.8532 12.0471H29.8252C30.0468 13.0312 30.4879 13.9525 31.1154 14.7422C30.6333 15.2022 30.0757 15.5757 29.467 15.8466L28.8212 16.1344C28.723 16.1781 28.6429 16.2541 28.5941 16.3499C28.5453 16.4456 28.5309 16.5552 28.5533 16.6603C28.5757 16.7654 28.6335 16.8596 28.717 16.9271C28.8006 16.9947 28.9048 17.0315 29.0122 17.0314C29.076 17.0314 29.1408 17.0183 29.2027 16.9907L29.8486 16.7029C30.5494 16.3911 31.1919 15.9622 31.7486 15.4346C32.3052 15.9622 32.9478 16.3911 33.6486 16.7029L34.2944 16.9907C34.4591 17.0589 34.7681 17.0398 34.9133 16.7533C34.9639 16.6398 34.9673 16.5108 34.9228 16.3947C34.8783 16.2786 34.7895 16.185 34.6759 16.1344L34.0301 15.8466C33.4214 15.5757 32.8637 15.2022 32.3817 14.7422C33.0092 13.9525 33.4503 13.0312 33.6719 12.0471H34.6438C34.7681 12.0471 34.8874 11.9977 34.9753 11.9098C35.0632 11.8219 35.1126 11.7027 35.1126 11.5783C35.1126 11.454 35.0632 11.3348 34.9753 11.2469C34.8874 11.159 34.7682 11.1096 34.6439 11.1096ZM31.7486 14.0279C31.3048 13.4353 30.9794 12.7628 30.7901 12.0471H32.7069C32.5177 12.7628 32.1923 13.4353 31.7486 14.0279ZM12.0611 23.3136C12.1187 23.3353 12.18 23.3455 12.2415 23.3435C12.303 23.3416 12.3636 23.3275 12.4196 23.3021C12.4757 23.2768 12.5263 23.2406 12.5684 23.1957C12.6105 23.1508 12.6434 23.0981 12.6651 23.0405L13.0719 21.9626H15.8185L16.2296 23.0419C16.2634 23.1307 16.3234 23.2071 16.4016 23.2611C16.4799 23.315 16.5726 23.3439 16.6677 23.3439C16.7436 23.3439 16.8184 23.3255 16.8857 23.2901C16.9529 23.2548 17.0105 23.2037 17.0536 23.1411C17.0967 23.0786 17.1239 23.0065 17.133 22.9311C17.1421 22.8557 17.1327 22.7792 17.1056 22.7083L14.9935 17.1625L14.9893 17.1518C14.9448 17.0422 14.8685 16.9484 14.7703 16.8824C14.6721 16.8164 14.5564 16.7812 14.4381 16.7814H14.4374C14.3168 16.7811 14.199 16.8175 14.0996 16.8858C14.0002 16.9541 13.924 17.051 13.8809 17.1636L11.788 22.7096C11.7663 22.7672 11.7561 22.8285 11.7581 22.89C11.76 22.9515 11.7741 23.0121 11.7994 23.0682C11.8248 23.1242 11.8609 23.1748 11.9058 23.2169C11.9507 23.259 12.0035 23.2918 12.0611 23.3136ZM14.4389 18.3403L15.4614 21.0251H13.4257L14.4389 18.3403ZM32.68 26.3125H30.4993C30.375 26.3125 30.2558 26.3619 30.1679 26.4498C30.0799 26.5377 30.0306 26.6569 30.0306 26.7812C30.0306 26.9056 30.0799 27.0248 30.1679 27.1127C30.2558 27.2006 30.375 27.25 30.4993 27.25H31.1209V28.7188H29.2563C29.3686 28.4902 29.4268 28.239 29.4266 27.9844C29.4266 27.0625 28.6766 26.3125 27.7547 26.3125H26.4012C26.2769 26.3125 26.1576 26.3619 26.0697 26.4498C25.9818 26.5377 25.9324 26.6569 25.9324 26.7812C25.9324 26.9056 25.9818 27.0248 26.0697 27.1127C26.1576 27.2006 26.2769 27.25 26.4012 27.25H27.7547C28.1596 27.25 28.4891 27.5794 28.4891 27.9844C28.4891 28.3893 28.1596 28.7188 27.7547 28.7188H26.2507C26.1264 28.7188 26.0072 28.7681 25.9193 28.856C25.8314 28.944 25.782 29.0632 25.782 29.1875C25.782 29.3118 25.8314 29.431 25.9193 29.519C26.0072 29.6069 26.1264 29.6562 26.2507 29.6562H27.7547C28.1596 29.6562 28.4891 29.9857 28.4891 30.3906C28.4891 30.8024 28.1665 31.125 27.7547 31.125C27.1071 31.125 26.3719 31.052 25.8302 30.5104C25.7423 30.4225 25.6231 30.3731 25.4988 30.3731C25.3745 30.3731 25.2553 30.4225 25.1674 30.5104C25.0795 30.5983 25.0301 30.7175 25.0301 30.8418C25.0301 30.9661 25.0795 31.0853 25.1674 31.1733C25.9556 31.9614 26.9641 32.0625 27.7547 32.0625C28.6766 32.0625 29.4266 31.3125 29.4266 30.3906C29.4266 30.1273 29.3652 29.8781 29.2563 29.6562H31.1209V31.5938C31.1209 31.7181 31.1703 31.8373 31.2582 31.9252C31.3461 32.0131 31.4653 32.0625 31.5896 32.0625C31.7139 32.0625 31.8332 32.0131 31.9211 31.9252C32.009 31.8373 32.0584 31.7181 32.0584 31.5938V27.25H32.6799C32.8043 27.25 32.9235 27.2006 33.0114 27.1127C33.0993 27.0248 33.1487 26.9056 33.1487 26.7813C33.1487 26.657 33.0993 26.5377 33.0114 26.4498C32.9235 26.3619 32.8043 26.3125 32.68 26.3125Z" fill="black"/>
</svg>
