<svg width="20" height="20" viewBox="0 0 20 20" fill="none" xmlns="http://www.w3.org/2000/svg">
<path d="M12.5003 18.4582H7.50033C5.29522 18.4582 3.84067 17.9852 2.92784 17.0723C2.01501 16.1595 1.54199 14.7049 1.54199 12.4998V7.49984C1.54199 5.29473 2.01501 3.84018 2.92784 2.92735C3.84067 2.01452 5.29522 1.5415 7.50033 1.5415H12.5003C14.7054 1.5415 16.16 2.01452 17.0728 2.92735C17.9856 3.84018 18.4587 5.29473 18.4587 7.49984V12.4998C18.4587 14.7049 17.9856 16.1595 17.0728 17.0723C16.16 17.9852 14.7054 18.4582 12.5003 18.4582ZM7.50033 1.7915C5.54422 1.7915 4.06923 2.13424 3.10198 3.10149C2.13473 4.06874 1.79199 5.54373 1.79199 7.49984V12.4998C1.79199 14.4559 2.13473 15.9309 3.10198 16.8982C4.06923 17.8654 5.54422 18.2082 7.50033 18.2082H12.5003C14.4564 18.2082 15.9314 17.8654 16.8987 16.8982C17.8659 15.9309 18.2087 14.4559 18.2087 12.4998V7.49984C18.2087 5.54373 17.8659 4.06874 16.8987 3.10149C15.9314 2.13424 14.4564 1.7915 12.5003 1.7915H7.50033Z" fill="#525F72" stroke="#525F72"/>
<path d="M13.6667 15.5415H10.5C9.77306 15.5415 9.33098 15.3654 9.06605 15.1004C8.80112 14.8355 8.625 14.3934 8.625 13.6665V12.1665C8.625 11.4396 8.80112 10.9975 9.06605 10.7326C9.33098 10.4676 9.77306 10.2915 10.5 10.2915H13.6667C14.3936 10.2915 14.8357 10.4676 15.1006 10.7326C15.3655 10.9975 15.5417 11.4396 15.5417 12.1665V13.6665C15.5417 14.3934 15.3655 14.8355 15.1006 15.1004C14.8357 15.3654 14.3936 15.5415 13.6667 15.5415ZM10.5 10.5415C10.0536 10.5415 9.5742 10.5852 9.24645 10.913C8.91869 11.2407 8.875 11.7201 8.875 12.1665V13.6665C8.875 14.1129 8.91869 14.5923 9.24645 14.9201C9.5742 15.2478 10.0536 15.2915 10.5 15.2915H13.6667C14.1131 15.2915 14.5925 15.2478 14.9202 14.9201C15.248 14.5923 15.2917 14.1129 15.2917 13.6665V12.1665C15.2917 11.7201 15.248 11.2407 14.9202 10.913C14.5925 10.5852 14.1131 10.5415 13.6667 10.5415H10.5Z" fill="#525F72" stroke="#525F72"/>
</svg>
