<svg width="32" height="32" viewBox="0 0 32 32" fill="none" xmlns="http://www.w3.org/2000/svg">
<g clip-path="url(#clip0_1969_121150)">
<path d="M6.90078 22.5002H3.80078C3.50078 22.5002 3.30078 22.3002 3.30078 22.0002C3.30078 21.7002 3.50078 21.5002 3.80078 21.5002H6.90078C7.10078 21.5002 7.30078 21.3002 7.30078 21.1002V20.7002C7.30078 20.4002 7.50078 20.2002 7.80078 20.2002C8.10078 20.2002 8.30078 20.4002 8.30078 20.7002V21.1002C8.30078 21.8502 7.65078 22.5002 6.90078 22.5002Z" fill="#5A687D"/>
<path d="M6.90162 25.1498H3.80162C3.50162 25.1498 3.30162 24.9498 3.30162 24.6498C3.30162 24.3498 3.50162 24.1498 3.80162 24.1498H6.90162C8.60162 24.1498 9.95162 22.7998 9.95162 21.0998V20.6998C9.95162 20.3998 10.1516 20.1998 10.4516 20.1998C10.7516 20.1998 10.9516 20.3998 10.9516 20.6998V21.0998C10.9516 23.3498 9.15162 25.1498 6.90162 25.1498ZM22.0016 19.4998C21.3516 19.4998 20.7516 19.3498 20.1516 19.0498L3.60162 10.6998C2.65162 10.1998 2.30162 9.09976 2.80162 8.19976L5.85162 2.04976C6.00162 1.69976 6.20162 1.49976 6.55162 1.29976C6.80162 1.14976 7.10162 1.24976 7.25162 1.44976C7.40162 1.69976 7.30162 1.99976 7.10162 2.14976C6.90162 2.24976 6.85162 2.34976 6.70162 2.54976L3.65162 8.64976C3.45162 9.04976 3.60162 9.54976 4.05162 9.79976L20.6516 18.1498C21.4016 18.5498 22.2016 18.5998 23.0016 18.3498C23.7516 18.0998 24.4016 17.5498 24.7016 16.8498L25.5016 15.2998C25.6516 15.0498 25.9516 14.9498 26.1516 15.0998C26.4016 15.2498 26.5016 15.5498 26.3516 15.7498L25.5516 17.2998C25.1016 18.2498 24.2516 18.9498 23.2516 19.2998C22.8516 19.4498 22.4516 19.4998 22.0016 19.4998Z" fill="#5A687D"/>
<path d="M30.1983 14.7498C29.8983 14.7498 29.6483 14.6998 29.3983 14.5498L28.8983 14.2998C27.7483 13.7498 26.4483 13.6498 25.1983 14.0998C24.4983 14.3498 23.8483 14.4998 23.1483 14.4998C22.2983 14.4998 21.3983 14.2998 20.6483 13.8998L7.29827 7.19976C6.59827 6.79976 6.34827 6.04976 6.64827 5.34976L8.54827 1.59976C8.89827 0.949756 9.69827 0.649755 10.3983 0.949755L30.9983 11.2998C31.4483 11.4998 31.7983 11.8998 31.9483 12.3498C32.0983 12.7998 32.0483 13.2998 31.8483 13.7498C31.4983 14.3498 30.8983 14.7498 30.1983 14.7498ZM26.8483 12.7998C27.6983 12.7998 28.5483 12.9998 29.3483 13.3998L29.8483 13.6498C30.2483 13.8998 30.7483 13.6498 30.8983 13.2998C30.9983 13.0998 31.0483 12.8998 30.9483 12.6998C30.8983 12.4998 30.7483 12.2998 30.5483 12.2498L9.99827 1.84976C9.94827 1.84976 9.89827 1.79976 9.84827 1.79976C9.69827 1.79976 9.54827 1.89976 9.49827 2.04976L7.59827 5.79976C7.49827 5.99976 7.59827 6.19976 7.79827 6.34976L21.0483 12.9998C21.6983 13.2998 22.3983 13.4998 23.0983 13.4998C23.6483 13.4998 24.2483 13.3998 24.7983 13.1998C25.4983 12.9498 26.1483 12.7998 26.8483 12.7998Z" fill="#5A687D"/>
<path d="M26.7516 18.7994C26.6016 18.7994 26.4516 18.7494 26.3516 18.6994L24.7016 17.8994C24.6016 17.8494 24.5016 17.7494 24.4516 17.5994C24.4016 17.4494 24.4016 17.3494 24.5016 17.1994L25.7516 14.6994C25.8516 14.4494 26.1516 14.3494 26.4016 14.4494L28.0516 15.2494C28.2516 15.3494 28.4516 15.5494 28.5016 15.7994C28.5516 16.0494 28.5516 16.2994 28.4516 16.4994L27.6016 18.1994C27.4516 18.5994 27.1016 18.7994 26.7516 18.7994ZM25.5516 17.1994L26.7016 17.7494L27.5016 16.1494L26.3516 15.5994L25.5516 17.1994ZM9.15163 19.3494C8.60163 19.3494 8.05163 19.1994 7.55163 18.9994C5.80163 18.1494 5.05163 15.9994 5.90163 14.1994L7.05163 11.8994C7.15163 11.6494 7.45163 11.5494 7.70163 11.6994L13.2516 14.4494C13.3516 14.4994 13.4516 14.5994 13.5016 14.7494C13.5516 14.8994 13.5516 14.9994 13.4516 15.1494L12.3016 17.4494C11.7516 18.5994 10.5016 19.3494 9.15163 19.3494ZM7.70163 12.7494L6.75163 14.5994C6.10163 15.8994 6.60163 17.4494 7.90163 18.0994C8.25163 18.2994 8.65163 18.3494 9.05163 18.3494C10.0516 18.3494 10.9516 17.7994 11.3516 16.8994L12.3016 15.0494L7.70163 12.7494Z" fill="#5A687D"/>
<path d="M9.15 17.35C8.3 17.35 7.6 16.65 7.6 15.8C7.6 14.95 8.3 14.25 9.15 14.25C10 14.25 10.7 14.95 10.7 15.8C10.7 16.65 10 17.35 9.15 17.35ZM9.15 15.25C8.85 15.25 8.6 15.5 8.6 15.8C8.6 16.1 8.85 16.35 9.15 16.35C9.45 16.35 9.7 16.1 9.7 15.8C9.7 15.5 9.45 15.25 9.15 15.25ZM2 28.6H0.5C0.2 28.6 0 28.4 0 28.1V18.55C0 18.25 0.2 18.05 0.5 18.05H2C2.65 18.05 3.25 18.3 3.65 18.75C4.05 19.2 4.3 19.75 4.25 20.4V26.4C4.25 27.6 3.25 28.6 2 28.6ZM1 27.6H2C2.7 27.6 3.25 27.05 3.25 26.35V20.35C3.25 20 3.15 19.7 2.9 19.45C2.65 19.2 2.35 19.05 2 19.05H1V27.6Z" fill="#5A687D"/>
<path d="M0.5 31.1997C0.2 31.1997 0 30.9997 0 30.6997V1.59973C0 1.29973 0.2 1.09973 0.5 1.09973C0.8 1.09973 1 1.29973 1 1.59973V30.6997C1 30.9997 0.8 31.1997 0.5 31.1997Z" fill="#5A687D"/>
</g>
<defs>
<clipPath id="clip0_1969_121150">
<rect width="32" height="32" fill="white"/>
</clipPath>
</defs>
</svg>
