<svg width="20" height="21" viewBox="0 0 20 21" fill="none" xmlns="http://www.w3.org/2000/svg">
<path d="M4.51155 18.1617C3.57821 18.1617 2.98655 17.8451 2.61155 17.4701C1.87821 16.7367 1.36155 15.1784 3.01155 11.8701L3.73655 10.4284C3.82821 10.2367 3.82821 9.83675 3.73655 9.64508L3.01155 8.20341C1.35321 4.89508 1.87821 3.32841 2.61155 2.60341C3.33655 1.87008 4.90321 1.34508 8.20321 3.00341L15.3365 6.57008C17.1115 7.45341 18.0865 8.68675 18.0865 10.0367C18.0865 11.3867 17.1115 12.6201 15.3449 13.5034L8.21155 17.0701C6.59488 17.8784 5.39488 18.1617 4.51155 18.1617ZM4.51155 3.16175C4.06155 3.16175 3.71155 3.27008 3.49488 3.48675C2.88655 4.08675 3.12821 5.64508 4.12821 7.63675L4.85321 9.08675C5.11988 9.62841 5.11988 10.4451 4.85321 10.9867L4.12821 12.4284C3.12821 14.4284 2.88655 15.9784 3.49488 16.5784C4.09488 17.1867 5.65321 16.9451 7.65321 15.9451L14.7865 12.3784C16.0949 11.7284 16.8365 10.8701 16.8365 10.0284C16.8365 9.18675 16.0865 8.32841 14.7782 7.67841L7.64488 4.12008C6.37821 3.48675 5.28655 3.16175 4.51155 3.16175Z" fill="white"/>
<path d="M9.03125 10.6617H4.53125C4.18958 10.6617 3.90625 10.3784 3.90625 10.0367C3.90625 9.69508 4.18958 9.41174 4.53125 9.41174H9.03125C9.37292 9.41174 9.65625 9.69508 9.65625 10.0367C9.65625 10.3784 9.37292 10.6617 9.03125 10.6617Z" fill="white"/>
</svg>
