<svg width="32" height="32" viewBox="0 0 32 32" fill="none" xmlns="http://www.w3.org/2000/svg">
<g clip-path="url(#clip0_1969_120634)">
<path d="M4.70363 5.39751C4.61956 5.39742 4.53682 5.4186 4.46312 5.45907C4.38943 5.49955 4.32717 5.55801 4.28213 5.62901C4.23682 5.69986 4.21016 5.78103 4.20466 5.86496C4.19915 5.94888 4.21497 6.03284 4.25063 6.10901C4.57745 6.80273 5.08539 7.39543 5.72089 7.82462C6.3564 8.2538 7.09593 8.50357 7.86152 8.5476C8.6271 8.59162 9.39039 8.42827 10.0709 8.07477C10.7514 7.72126 11.3239 7.1907 11.7281 6.53901H20.2726C20.6545 7.15683 21.1882 7.66654 21.823 8.01954C22.4577 8.37254 23.1723 8.55706 23.8986 8.55551C25.5446 8.55551 27.0566 7.59501 27.7501 6.10901C27.786 6.03284 27.802 5.94884 27.7966 5.86483C27.7913 5.78082 27.7648 5.69952 27.7196 5.62851C27.6744 5.5575 27.6119 5.49908 27.5381 5.45869C27.4642 5.4183 27.3813 5.39725 27.2971 5.39751H24.2236V3.15801H27.2971C27.4681 3.15801 27.6271 3.07101 27.7186 2.92651C27.764 2.85566 27.7906 2.77449 27.7961 2.69056C27.8016 2.60663 27.7858 2.52268 27.7501 2.44651C27.4233 1.75278 26.9154 1.16009 26.2799 0.730904C25.6444 0.30172 24.9048 0.0519493 24.1393 0.00792341C23.3737 -0.0361024 22.6104 0.127248 21.9299 0.480753C21.2494 0.834258 20.6768 1.36482 20.2726 2.01651H11.7281C11.3463 1.39869 10.8125 0.888977 10.1778 0.535978C9.54303 0.182979 8.82844 -0.00154184 8.10213 9.70433e-06C6.45613 9.70433e-06 4.94413 0.96051 4.25063 2.44651C4.21478 2.52268 4.19879 2.60668 4.20413 2.69069C4.20948 2.7747 4.23599 2.856 4.2812 2.92701C4.32641 2.99802 4.38885 3.05644 4.46271 3.09683C4.53657 3.13722 4.61945 3.15826 4.70363 3.15801H7.77713V5.39751H4.70363ZM8.27713 2.15801H5.61113C5.91724 1.79581 6.29854 1.50461 6.72854 1.30464C7.15853 1.10466 7.62691 1.00071 8.10113 1.00001C8.69722 0.998617 9.28225 1.16094 9.79241 1.46927C10.3026 1.7776 10.7182 2.2201 10.9941 2.74851C11.0801 2.91351 11.2511 3.01651 11.4371 3.01651H20.5616C20.7476 3.01651 20.9181 2.91301 21.0046 2.74851C21.2805 2.2201 21.6962 1.7776 22.2064 1.46927C22.7165 1.16094 23.3015 0.998617 23.8976 1.00001C24.8691 1.00001 25.7796 1.43701 26.3876 2.15801H23.7216C23.589 2.15801 23.4618 2.21069 23.3681 2.30446C23.2743 2.39822 23.2216 2.5254 23.2216 2.65801V5.89751C23.2216 6.03012 23.2743 6.15729 23.3681 6.25106C23.4618 6.34483 23.589 6.39751 23.7216 6.39751H26.3876C26.0815 6.75971 25.7002 7.05091 25.2702 7.25088C24.8402 7.45086 24.3719 7.55481 23.8976 7.55551C23.3015 7.5569 22.7165 7.39458 22.2064 7.08625C21.6962 6.77792 21.2805 6.33542 21.0046 5.80701C20.9623 5.72612 20.8987 5.65838 20.8206 5.61113C20.7425 5.56388 20.6529 5.53894 20.5616 5.53901H11.4376C11.2516 5.53901 11.0811 5.64251 10.9946 5.80701C10.7187 6.33542 10.3031 6.77792 9.79291 7.08625C9.28275 7.39458 8.69772 7.5569 8.10163 7.55551C7.62741 7.55484 7.15901 7.4509 6.72901 7.25093C6.29901 7.05095 5.91772 6.75973 5.61163 6.39751H8.27763C8.41024 6.39751 8.53742 6.34483 8.63119 6.25106C8.72496 6.15729 8.77763 6.03012 8.77763 5.89751V2.65801C8.77763 2.5254 8.72496 2.39822 8.63119 2.30446C8.53742 2.21069 8.40974 2.15801 8.27713 2.15801Z" fill="#5A687D"/>
<path d="M21.7856 21.2667H10.2123C9.97665 21.2665 9.74667 21.3389 9.55371 21.4742C9.36075 21.6094 9.21419 21.8009 9.13401 22.0225C9.05382 22.2441 9.04392 22.485 9.10565 22.7124C9.16738 22.9399 9.29773 23.1427 9.47894 23.2933L11.2075 24.7333C11.4135 24.9055 11.6734 24.9999 11.9419 25H20.056C20.3243 24.9999 20.5841 24.9055 20.7899 24.7333L22.519 23.2933C22.7002 23.1427 22.8307 22.9399 22.8924 22.7124C22.9542 22.485 22.9443 22.2441 22.8641 22.0224C22.7839 21.8008 22.6373 21.6093 22.4443 21.4741C22.2513 21.3388 22.0213 21.2664 21.7856 21.2667ZM21.8389 22.4741L20.1099 23.9141C20.0948 23.9263 20.0759 23.9328 20.0565 23.9322H11.9429C11.9235 23.9328 11.9045 23.9261 11.8896 23.9135L10.1605 22.4735C10.1467 22.464 10.1367 22.4499 10.1323 22.4337C10.1279 22.4174 10.1294 22.4002 10.1366 22.385C10.1406 22.3686 10.1503 22.3543 10.164 22.3445C10.1777 22.3347 10.1944 22.3301 10.2112 22.3317H21.7845C21.8013 22.3301 21.818 22.3347 21.8317 22.3445C21.8454 22.3543 21.8552 22.3686 21.8592 22.385C21.8744 22.4163 21.8647 22.454 21.8362 22.4741H21.8389V22.4741ZM25.615 21.5333L23.8805 22.9733C23.6987 23.1237 23.5678 23.3265 23.5057 23.5541C23.4436 23.7817 23.4534 24.023 23.5336 24.2448C23.6139 24.4667 23.7608 24.6583 23.9542 24.7935C24.1475 24.9286 24.3779 25.0008 24.6139 25H28.7995C29.3886 25 29.8661 24.5224 29.8661 23.9333V22.3333C29.8661 21.7442 29.3886 21.2666 28.7995 21.2666H26.3488C26.0806 21.2674 25.8211 21.3617 25.615 21.5333ZM28.7995 22.3333V23.9333H24.6139C24.597 23.9349 24.5802 23.9304 24.5663 23.9206C24.5525 23.9108 24.5427 23.8964 24.5387 23.8799C24.5316 23.8651 24.5301 23.8483 24.5346 23.8325C24.539 23.8167 24.549 23.803 24.5627 23.7941L26.2976 22.3509C26.3124 22.3382 26.3315 22.3315 26.351 22.3322L28.7995 22.3333ZM6.38404 21.5333C6.17874 21.3621 5.92017 21.2678 5.65284 21.2667H3.19949C2.61038 21.2667 2.13281 21.7442 2.13281 22.3333V23.9333C2.13281 24.5224 2.61038 25 3.19949 25H7.38401C7.61985 25.0007 7.85015 24.9285 8.04343 24.7933C8.2367 24.6581 8.38352 24.4666 8.46382 24.2448C8.54413 24.0231 8.55399 23.7819 8.49207 23.5543C8.43016 23.3268 8.29947 23.1239 8.11789 22.9734L6.38404 21.5333ZM7.46033 23.8799C7.4563 23.8964 7.44648 23.9108 7.43267 23.9206C7.41885 23.9304 7.40196 23.9349 7.38511 23.9333H3.19949V22.3333H5.65284C5.67231 22.3326 5.69137 22.3393 5.70617 22.352L7.44164 23.7952C7.45411 23.8049 7.46279 23.8187 7.4662 23.8342C7.46961 23.8497 7.46754 23.8658 7.46033 23.8799Z" fill="#5A687D"/>
<path fill-rule="evenodd" clip-rule="evenodd" d="M6.93463 26.5996H3.20128C2.90675 26.5996 2.66797 26.8384 2.66797 27.1329C2.66797 27.4275 2.90675 27.6662 3.20128 27.6662H6.93463C7.22916 27.6662 7.46794 27.4275 7.46794 27.1329C7.46794 26.8384 7.22916 26.5996 6.93463 26.5996ZM28.8013 26.5996H25.068C24.7734 26.5996 24.5346 26.8384 24.5346 27.1329C24.5346 27.4275 24.7734 27.6662 25.068 27.6662H28.8013C29.0958 27.6662 29.3346 27.4275 29.3346 27.1329C29.3346 26.8384 29.0958 26.5996 28.8013 26.5996ZM20.8013 26.5996H11.2013C10.9068 26.5996 10.668 26.8384 10.668 27.1329C10.668 27.4275 10.9068 27.6662 11.2013 27.6662H20.8013C21.0958 27.6662 21.3346 27.4275 21.3346 27.1329C21.3346 26.8384 21.0958 26.5996 20.8013 26.5996Z" fill="#5A687D"/>
<path d="M32 15.8666C32 14.983 31.2837 14.2666 30.4 14.2666H29.3333C29.1037 14.2674 28.877 14.3179 28.6687 14.4147C28.4605 14.5115 28.2756 14.6522 28.1269 14.8272L27.1253 11.8229C26.7632 10.7336 25.7437 9.99885 24.5957 10H7.40424C6.25625 9.99885 5.23677 10.7336 4.87463 11.8229L3.87304 14.8272C3.72433 14.6522 3.5395 14.5115 3.33125 14.4147C3.123 14.3179 2.89626 14.2674 2.66663 14.2666H1.6C0.716359 14.2666 8.09956e-06 14.983 8.09956e-06 15.8666C8.09956e-06 16.7502 0.716359 17.4666 1.6 17.4666H2.44585L0.468809 19.4437C0.319637 19.5919 0.201382 19.7683 0.120906 19.9625C0.0404308 20.1568 -0.000663449 20.3651 8.09956e-06 20.5754V27.5999C0.00137849 27.9297 0.104592 28.2509 0.295529 28.5198C0.486466 28.7886 0.755801 28.9919 1.06669 29.1018V30.8C1.06669 31.6836 1.78304 32.3999 2.66668 32.3999H6.40003C7.28367 32.3999 8.00002 31.6836 8.00002 30.8V29.2H24V30.8C24 31.6836 24.7163 32.3999 25.6 32.3999H29.3333C30.217 32.3999 30.9333 31.6836 30.9333 30.8V29.1018C31.2442 28.9919 31.5135 28.7886 31.7045 28.5198C31.8954 28.2509 31.9986 27.9297 32 27.5999V20.5754C32.0007 20.3651 31.9596 20.1568 31.8791 19.9625C31.7986 19.7683 31.6804 19.5919 31.5312 19.4437L29.5542 17.4666H30.4C31.2837 17.4666 32 16.7502 32 15.8666ZM5.8864 12.1605C5.99262 11.842 6.19636 11.5649 6.46877 11.3686C6.74119 11.1723 7.06846 11.0666 7.40424 11.0666H24.5957C24.9315 11.0666 25.2588 11.1723 25.5312 11.3686C25.8036 11.5649 26.0073 11.842 26.1136 12.1605L27.5264 16.4H4.47359L5.8864 12.1605ZM1.6 16.3999C1.30547 16.3999 1.06669 16.1611 1.06669 15.8666C1.06669 15.5721 1.30547 15.3333 1.6 15.3333H2.66668C2.96121 15.3333 3.19999 15.5721 3.19999 15.8666V16.3999H1.6ZM6.93334 30.8C6.93334 31.0945 6.69456 31.3333 6.40003 31.3333H2.66668C2.37215 31.3333 2.13337 31.0945 2.13337 30.8V29.2H6.93334V30.8ZM29.8667 30.8C29.8667 31.0945 29.6279 31.3333 29.3333 31.3333H25.6C25.3055 31.3333 25.0667 31.0945 25.0667 30.8V29.2H29.8667V30.8ZM30.7771 20.1978C30.8267 20.2474 30.866 20.3063 30.8928 20.3711C30.9196 20.4359 30.9334 20.5053 30.9333 20.5755V27.6C30.9333 27.8945 30.6945 28.1333 30.4 28.1333H1.6C1.30547 28.1333 1.06669 27.8945 1.06669 27.6V20.5754C1.06664 20.5053 1.08041 20.4358 1.10723 20.371C1.13404 20.3062 1.17337 20.2474 1.22295 20.1978L3.95414 17.4666H28.0459L30.7771 20.1978ZM28.8 16.3999V15.8666C28.8 15.5721 29.0388 15.3333 29.3333 15.3333H30.4C30.6945 15.3333 30.9333 15.5721 30.9333 15.8666C30.9333 16.1611 30.6945 16.3999 30.4 16.3999H28.8Z" fill="#5A687D"/>
</g>
<defs>
<clipPath id="clip0_1969_120634">
<rect width="32" height="32" fill="white"/>
</clipPath>
</defs>
</svg>
