<svg width="33" height="32" viewBox="0 0 33 32" fill="none" xmlns="http://www.w3.org/2000/svg">
<g clip-path="url(#clip0_1971_211561)">
<path d="M6.98741 6.09519H5.29328C5.16896 6.09519 5.04973 6.0458 4.96182 5.95789C4.87392 5.86999 4.82453 5.75076 4.82453 5.62644C4.82453 5.50212 4.87392 5.38289 4.96182 5.29498C5.04973 5.20707 5.16896 5.15769 5.29328 5.15769H6.98741C7.25928 5.15769 7.48041 4.9365 7.48041 4.66469V1.4305C7.48041 1.15863 7.25922 0.9375 6.98741 0.9375H3.44922C3.3249 0.9375 3.20567 0.888114 3.11776 0.800206C3.02985 0.712299 2.98047 0.59307 2.98047 0.46875C2.98047 0.34443 3.02985 0.225201 3.11776 0.137294C3.20567 0.049386 3.3249 1.85252e-09 3.44922 0L6.98747 0C7.77628 0 8.41797 0.64175 8.41797 1.4305V4.66469C8.41797 5.4535 7.77622 6.09519 6.98741 6.09519Z" fill="#616161"/>
<path d="M15.1918 4.62287C15.2338 3.71749 15.169 2.92537 15.0171 2.2658C14.929 2.69599 14.3707 2.94174 14.0021 2.59062C13.7238 2.32543 13.4026 2.14355 13.0456 2.14355C12.6876 2.14355 12.3661 2.32543 12.0876 2.59062C11.7196 2.94105 11.1621 2.69574 11.074 2.2663C10.9221 2.9263 10.8573 3.71855 10.8993 4.62293C11.1639 10.3217 11.1639 21.7438 10.8993 27.4426C10.768 30.2707 11.6745 32.0004 13.0455 32.0004C14.42 32.0004 15.3227 30.2636 15.1917 27.4425C14.9271 21.7437 14.9271 10.3216 15.1918 4.62287ZM17.8085 4.62287C17.7665 3.71749 17.8313 2.92537 17.9831 2.2658C18.0713 2.69599 18.6296 2.94174 18.9981 2.59062C19.2765 2.32543 19.5976 2.14355 19.9547 2.14355C20.3126 2.14355 20.6341 2.32543 20.9127 2.59062C21.2807 2.94105 21.8381 2.69574 21.9263 2.2663C22.0782 2.9263 22.143 3.71855 22.101 4.62293C21.8364 10.3217 21.8364 21.7438 22.101 27.4426C22.2323 30.2707 21.3258 32.0004 19.9548 32.0004C18.5803 32.0004 17.6776 30.2636 17.8086 27.4425C18.0731 21.7437 18.0731 10.3216 17.8085 4.62287Z" fill="#EF5350"/>
<path d="M15.191 27.4417C14.9264 21.743 14.9264 10.3208 15.191 4.62209C15.2331 3.71671 15.1683 2.92459 15.0164 2.26502C14.9282 2.69521 14.3699 2.94096 14.0014 2.58984C13.7776 2.37665 13.5262 2.21759 13.2508 2.16327C13.2745 2.52902 13.2787 2.91915 13.2594 3.3344C12.9948 9.03315 12.9948 20.4553 13.2594 26.154C13.3822 28.7975 12.5973 30.4888 11.3672 30.6913C11.7483 31.5335 12.3338 31.9996 13.0448 31.9996C14.4193 31.9996 15.322 30.2628 15.191 27.4417ZM22.1002 27.4417C21.8356 21.743 21.8356 10.3208 22.1002 4.62209C22.1422 3.71771 22.0774 2.92552 21.9255 2.26546C21.8374 2.6949 21.2799 2.94021 20.9119 2.58977C20.6879 2.37646 20.4361 2.21727 20.1598 2.16309C20.1836 2.52902 20.1878 2.91921 20.1686 3.33434C19.904 9.03309 19.904 20.4552 20.1686 26.154C20.2916 28.8035 19.5037 30.4889 18.2764 30.6912C18.6571 31.5326 19.242 31.9996 19.954 31.9996C21.325 31.9996 22.2315 30.2699 22.1002 27.4417Z" fill="#D32F2F"/>
<path d="M14.003 2.59013C14.4492 3.01519 15.174 2.56588 15.0055 1.97312C14.6506 0.724687 13.9155 0 13.0464 0C12.1757 0 11.4417 0.726625 11.0873 1.97425C10.9193 2.56594 11.643 3.01431 12.0885 2.59013C12.7079 2.00031 13.3703 1.98738 14.003 2.59013Z" fill="#5C6BC0"/>
<path d="M13.0454 20.5133C11.9697 20.5133 11.0977 19.6413 11.0977 18.5656V13.4985C11.0977 12.4228 11.9697 11.5508 13.0454 11.5508C14.1211 11.5508 14.9932 12.4228 14.9932 13.4985V18.5656C14.9931 19.6413 14.1211 20.5133 13.0454 20.5133Z" fill="#BDBDBD"/>
<path d="M15.0209 11.3196L10.9941 7.29275C10.9222 4.6365 10.875 4.59344 10.89 3.87525L15.0776 8.06281C15.0525 9.14828 15.0336 10.2339 15.0209 11.3196ZM11.0131 24.0186L15.2018 28.2073C15.2072 27.9621 15.204 27.7069 15.1918 27.4421C15.1553 26.6567 15.1239 25.7622 15.0975 24.7895L11.07 20.762C11.0571 21.8476 11.0382 22.9332 11.0131 24.0186ZM10.9315 26.6874C10.9212 26.9484 10.9105 27.2008 10.8993 27.4421C10.768 30.2703 11.6745 32 13.0455 32C13.7985 32 14.4093 31.4778 14.7867 30.5427L10.9315 26.6874ZM18.9982 2.59013C18.552 3.01519 17.8272 2.56588 17.9957 1.97312C18.3506 0.724687 19.0856 0 19.9548 0C20.8255 0 21.5595 0.726625 21.9138 1.97425C22.0819 2.56594 21.3582 3.01431 20.9127 2.59013C20.2933 2.00031 19.631 1.98738 18.9982 2.59013Z" fill="#5C6BC0"/>
<path d="M19.9556 20.5133C21.0312 20.5133 21.9033 19.6413 21.9033 18.5656V13.4985C21.9033 12.4228 21.0312 11.5508 19.9556 11.5508C18.8799 11.5508 18.0078 12.4228 18.0078 13.4985V18.5656C18.0078 19.6413 18.8798 20.5133 19.9556 20.5133Z" fill="#BDBDBD"/>
<path d="M13.0446 11.5508C13.0118 11.5508 12.9791 11.5517 12.9467 11.5533C13.0223 11.7643 13.0609 11.9867 13.0608 12.2108V17.2779C13.0608 18.3208 12.2411 19.1722 11.2109 19.2232C11.4807 19.9753 12.1997 20.5133 13.0446 20.5133C14.1203 20.5133 14.9924 19.6413 14.9924 18.5656V13.4985C14.9924 12.4228 14.1204 11.5508 13.0446 11.5508ZM19.9539 11.5508C19.9212 11.5508 19.8886 11.5516 19.8559 11.5533C19.9316 11.7643 19.9702 11.9867 19.97 12.2108V17.2779C19.97 18.3208 19.1504 19.1722 18.1202 19.2232C18.3899 19.9753 19.1089 20.5133 19.9539 20.5133C21.0296 20.5133 21.9016 19.6413 21.9016 18.5656V13.4985C21.9016 12.4228 21.0296 11.5508 19.9539 11.5508Z" fill="#616161"/>
<path d="M17.9237 8.06256L22.1112 3.875C22.1162 4.11494 22.1139 4.36344 22.1019 4.62219C22.0652 5.41231 22.0337 6.31281 22.0072 7.2925L17.9803 11.3193C17.9675 10.2336 17.9486 9.14803 17.9237 8.06256ZM21.9312 20.7618L17.9037 24.7893C17.8773 25.7621 17.8459 26.6565 17.8094 27.4419C17.7973 27.6967 17.794 27.952 17.7994 28.2071L21.988 24.0184C21.963 22.933 21.944 21.8475 21.9312 20.7618ZM18.2145 30.5424C18.5919 31.4776 19.2027 31.9998 19.9557 31.9998C21.3267 31.9998 22.2332 30.27 22.1018 27.4418C22.0907 27.2005 22.08 26.9481 22.0697 26.6872L18.2145 30.5424Z" fill="#5C6BC0"/>
<path d="M15.0775 8.06263L13.7634 6.74856C13.7558 7.1645 13.7488 7.58925 13.7426 8.02125C13.7388 8.29088 13.4128 8.42363 13.2221 8.233L10.9531 5.964C10.9679 6.38738 10.9816 6.83081 10.9941 7.29262L15.0209 11.3194C15.0346 10.1819 15.0534 9.08619 15.0775 8.06263ZM15.1917 27.4419C15.1553 26.6566 15.1238 25.7621 15.0974 24.7893L13.8507 23.5426C13.8671 24.0107 13.8848 24.454 13.9039 24.8664L13.9043 24.8743C13.917 25.1513 13.58 25.2976 13.3839 25.1015L11.0395 22.7571C11.0315 23.1876 11.0228 23.609 11.0131 24.0184L15.2018 28.207C15.2071 27.9619 15.204 27.7067 15.1917 27.4419ZM11.7578 29.4244C11.4718 29.4244 11.2063 29.3481 10.966 29.2033C11.2079 30.9706 11.9883 31.9998 13.0454 31.9998C13.7984 31.9998 14.4092 31.4776 14.7866 30.5425L13.0271 28.7829C12.6816 29.1994 12.2504 29.4244 11.7578 29.4244ZM20.6326 7.37838L17.9616 10.0494C17.9683 10.4657 17.9742 10.8895 17.9794 11.3193L22.0062 7.2925C22.0327 6.31281 22.0643 5.41231 22.1009 4.62219C22.1129 4.36338 22.1153 4.11494 22.1103 3.875L20.7882 5.19706C20.7634 5.80512 20.7412 6.46669 20.7217 7.17075C20.7196 7.2488 20.6877 7.32309 20.6326 7.37838ZM22.1009 27.4419C22.0897 27.2006 22.079 26.9482 22.0688 26.6873L20.8254 27.9306C20.8337 30.0186 20.2401 31.4248 19.3106 31.8576C19.5121 31.952 19.7321 32.0005 19.9546 31.9998C21.3257 31.9998 22.2322 30.2701 22.1009 27.4419ZM21.9303 20.7619L20.6604 22.0317C20.6706 22.6706 20.6826 23.2916 20.6964 23.8886C20.6973 23.9298 20.6899 23.9706 20.6746 24.0088C20.6592 24.047 20.6363 24.0816 20.6072 24.1107L17.8327 26.8852C17.8249 27.076 17.8168 27.2622 17.8085 27.4419C17.7964 27.6968 17.7931 27.952 17.7985 28.2071L21.9871 24.0185C21.962 22.9331 21.9431 21.8475 21.9303 20.7619Z" fill="#303F9F"/>
<path d="M5.98972 6.09525H4.59559C4.50199 6.09525 4.41222 6.05807 4.34603 5.99188C4.27984 5.92569 4.24266 5.83592 4.24266 5.74231V0.9375H6.34266V5.74225C6.34266 5.83586 6.30547 5.92564 6.23929 5.99184C6.1731 6.05803 6.08333 6.09523 5.98972 6.09525ZM7.48203 28.9528H3.10322C2.9795 28.9528 2.86084 28.9037 2.77335 28.8162C2.68587 28.7287 2.63672 28.61 2.63672 28.4863V28.1563C2.63672 28.0326 2.68587 27.9139 2.77335 27.8264C2.86084 27.739 2.9795 27.6898 3.10322 27.6898H7.48203C7.60575 27.6898 7.72441 27.739 7.8119 27.8264C7.89938 27.9139 7.94853 28.0326 7.94853 28.1563V28.4863C7.94853 28.61 7.89938 28.7287 7.8119 28.8162C7.72441 28.9037 7.60575 28.9528 7.48203 28.9528Z" fill="#757575"/>
<path d="M4.61328 27.6894V6.09473H5.97209V27.6894H4.61328V27.6894ZM4.61328 28.9524V31.6615C4.6133 31.7511 4.64892 31.8371 4.71232 31.9005C4.77571 31.9639 4.86169 31.9995 4.95134 31.9995H5.63409C5.72375 31.9995 5.80973 31.9639 5.87312 31.9005C5.93652 31.8371 5.97214 31.7511 5.97216 31.6615V28.9524H4.61328Z" fill="#BDBDBD"/>
<path d="M6.34022 3.75038H4.24609C4.12177 3.75038 4.00255 3.70099 3.91464 3.61308C3.82673 3.52517 3.77734 3.40595 3.77734 3.28163C3.77734 3.1573 3.82673 3.03808 3.91464 2.95017C4.00255 2.86226 4.12177 2.81288 4.24609 2.81288H6.34022C6.46454 2.81288 6.58377 2.86226 6.67168 2.95017C6.75958 3.03808 6.80897 3.1573 6.80897 3.28163C6.80897 3.40595 6.75958 3.52517 6.67168 3.61308C6.58377 3.70099 6.46454 3.75038 6.34022 3.75038ZM6.34022 2.34375H4.24609C4.12177 2.34375 4.00255 2.29436 3.91464 2.20646C3.82673 2.11855 3.77734 1.99932 3.77734 1.875C3.77734 1.75068 3.82673 1.63145 3.91464 1.54354C4.00255 1.45564 4.12177 1.40625 4.24609 1.40625H6.34022C6.46454 1.40625 6.58377 1.45564 6.67168 1.54354C6.75958 1.63145 6.80897 1.75068 6.80897 1.875C6.80897 1.99932 6.75958 2.11855 6.67168 2.20646C6.58377 2.29436 6.46454 2.34375 6.34022 2.34375ZM6.34022 5.157H4.24609C4.12177 5.157 4.00255 5.10761 3.91464 5.01971C3.82673 4.9318 3.77734 4.81257 3.77734 4.68825C3.77734 4.56393 3.82673 4.4447 3.91464 4.35679C4.00255 4.26889 4.12177 4.2195 4.24609 4.2195H6.34022C6.46454 4.2195 6.58377 4.26889 6.67168 4.35679C6.75958 4.4447 6.80897 4.56393 6.80897 4.68825C6.80897 4.81257 6.75958 4.9318 6.67168 5.01971C6.58377 5.10761 6.46454 5.157 6.34022 5.157Z" fill="#424242"/>
<path d="M26.0164 6.09519H27.7106C27.8349 6.09519 27.9541 6.0458 28.042 5.95789C28.1299 5.86999 28.1793 5.75076 28.1793 5.62644C28.1793 5.50212 28.1299 5.38289 28.042 5.29498C27.9541 5.20707 27.8349 5.15769 27.7106 5.15769H26.0164C25.7446 5.15769 25.5234 4.9365 25.5234 4.66469V1.4305C25.5234 1.15863 25.7446 0.9375 26.0164 0.9375H29.5547C29.679 0.9375 29.7982 0.888114 29.8861 0.800206C29.9741 0.712299 30.0234 0.59307 30.0234 0.46875C30.0234 0.34443 29.9741 0.225201 29.8861 0.137294C29.7982 0.049386 29.679 1.85252e-09 29.5547 0L26.0164 0C25.2276 0 24.5859 0.64175 24.5859 1.4305V4.66469C24.5859 5.4535 25.2276 6.09519 26.0164 6.09519Z" fill="#616161"/>
<path d="M27.0135 6.09525H28.4076C28.5012 6.09525 28.591 6.05807 28.6572 5.99188C28.7234 5.92569 28.7606 5.83592 28.7606 5.74231V0.9375H26.6606V5.74225C26.6606 5.83586 26.6977 5.92564 26.7639 5.99184C26.8301 6.05803 26.9199 6.09523 27.0135 6.09525ZM25.5212 28.9528H29.9C29.9613 28.9528 30.0219 28.9407 30.0785 28.9173C30.1351 28.8939 30.1865 28.8595 30.2299 28.8162C30.2732 28.7729 30.3075 28.7214 30.331 28.6648C30.3544 28.6082 30.3665 28.5476 30.3665 28.4863V28.1563C30.3665 28.0951 30.3544 28.0344 30.331 27.9778C30.3075 27.9212 30.2732 27.8698 30.2299 27.8264C30.1865 27.7831 30.1351 27.7488 30.0785 27.7253C30.0219 27.7019 29.9613 27.6898 29.9 27.6898H25.5212C25.3975 27.6898 25.2788 27.739 25.1913 27.8264C25.1038 27.9139 25.0547 28.0326 25.0547 28.1563V28.4863C25.0547 28.61 25.1038 28.7287 25.1913 28.8162C25.2788 28.9037 25.3975 28.9528 25.5212 28.9528Z" fill="#757575"/>
<path d="M27.0312 27.6894V6.09473H28.3901V27.6894H27.0312V27.6894ZM27.0312 28.9524V31.6615C27.0313 31.7511 27.0669 31.8371 27.1303 31.9005C27.1937 31.9639 27.2797 31.9995 27.3693 31.9995H28.0521C28.1417 31.9995 28.2277 31.9639 28.2911 31.9005C28.3545 31.8371 28.3901 31.7511 28.3901 31.6615V28.9524H27.0312Z" fill="#BDBDBD"/>
<path d="M26.6641 3.75038H28.7582C28.8825 3.75038 29.0017 3.70099 29.0896 3.61308C29.1776 3.52517 29.2269 3.40595 29.2269 3.28163C29.2269 3.1573 29.1776 3.03808 29.0896 2.95017C29.0017 2.86226 28.8825 2.81288 28.7582 2.81288H26.6641C26.5397 2.81288 26.4205 2.86226 26.3326 2.95017C26.2447 3.03808 26.1953 3.1573 26.1953 3.28163C26.1953 3.40595 26.2447 3.52517 26.3326 3.61308C26.4205 3.70099 26.5397 3.75038 26.6641 3.75038ZM26.6641 2.34375H28.7582C28.8825 2.34375 29.0017 2.29436 29.0896 2.20646C29.1776 2.11855 29.2269 1.99932 29.2269 1.875C29.2269 1.75068 29.1776 1.63145 29.0896 1.54354C29.0017 1.45564 28.8825 1.40625 28.7582 1.40625H26.6641C26.5397 1.40625 26.4205 1.45564 26.3326 1.54354C26.2447 1.63145 26.1953 1.75068 26.1953 1.875C26.1953 1.99932 26.2447 2.11855 26.3326 2.20646C26.4205 2.29436 26.5397 2.34375 26.6641 2.34375ZM26.6641 5.157H28.7582C28.8825 5.157 29.0017 5.10761 29.0896 5.01971C29.1776 4.9318 29.2269 4.81257 29.2269 4.68825C29.2269 4.56393 29.1776 4.4447 29.0896 4.35679C29.0017 4.26889 28.8825 4.2195 28.7582 4.2195H26.6641C26.5397 4.2195 26.4205 4.26889 26.3326 4.35679C26.2447 4.4447 26.1953 4.56393 26.1953 4.68825C26.1953 4.81257 26.2447 4.9318 26.3326 5.01971C26.4205 5.10761 26.5397 5.157 26.6641 5.157Z" fill="#424242"/>
<path d="M13.6501 14.2955C13.5221 14.2955 13.3992 14.2446 13.3087 14.1541C13.2181 14.0635 13.1672 13.9407 13.1672 13.8126C13.1672 13.7807 13.1545 13.7502 13.132 13.7276C13.1094 13.7051 13.0789 13.6924 13.047 13.6924C13.0151 13.6924 12.9845 13.7051 12.962 13.7276C12.9394 13.7502 12.9267 13.7807 12.9267 13.8126C12.9267 13.9407 12.8758 14.0635 12.7853 14.1541C12.6947 14.2446 12.5719 14.2955 12.4438 14.2955C12.3157 14.2955 12.1929 14.2446 12.1024 14.1541C12.0118 14.0635 11.9609 13.9407 11.9609 13.8126C11.9609 13.2138 12.4481 12.7266 13.047 12.7266C13.6458 12.7266 14.1331 13.2137 14.1331 13.8126C14.133 13.9407 14.0822 14.0635 13.9916 14.1541C13.901 14.2446 13.7782 14.2955 13.6501 14.2955ZM13.047 19.3376C12.4481 19.3376 11.9609 18.8504 11.9609 18.2515C11.9609 18.1234 12.0118 18.0006 12.1024 17.9101C12.1929 17.8195 12.3157 17.7686 12.4438 17.7686C12.5719 17.7686 12.6947 17.8195 12.7853 17.9101C12.8758 18.0006 12.9267 18.1234 12.9267 18.2515C12.9267 18.3178 12.9806 18.3717 13.047 18.3717C13.0789 18.3717 13.1094 18.359 13.132 18.3365C13.1545 18.3139 13.1672 18.2834 13.1672 18.2515C13.1672 18.1234 13.2181 18.0006 13.3087 17.9101C13.3992 17.8195 13.5221 17.7686 13.6501 17.7686C13.7782 17.7686 13.901 17.8195 13.9916 17.9101C14.0821 18.0006 14.133 18.1234 14.133 18.2515C14.1331 18.8504 13.6458 19.3376 13.047 19.3376ZM13.0469 17.3947C12.9189 17.3947 12.796 17.3438 12.7055 17.2533C12.6149 17.1627 12.5641 17.0399 12.5641 16.9118V15.1523C12.5641 15.0242 12.6149 14.9014 12.7055 14.8109C12.796 14.7203 12.9189 14.6694 13.0469 14.6694C13.175 14.6694 13.2978 14.7203 13.3884 14.8109C13.4789 14.9014 13.5298 15.0242 13.5298 15.1523V16.9118C13.5298 16.9752 13.5173 17.038 13.4931 17.0966C13.4688 17.1552 13.4332 17.2084 13.3884 17.2533C13.3436 17.2981 13.2903 17.3337 13.2317 17.3579C13.1731 17.3822 13.1104 17.3947 13.0469 17.3947ZM20.5594 14.2955C20.4313 14.2955 20.3085 14.2446 20.2179 14.1541C20.1274 14.0635 20.0765 13.9407 20.0765 13.8126C20.0765 13.7807 20.0638 13.7502 20.0412 13.7276C20.0187 13.7051 19.9881 13.6924 19.9562 13.6924C19.9244 13.6924 19.8938 13.7051 19.8712 13.7276C19.8487 13.7502 19.836 13.7807 19.8359 13.8126C19.8359 13.9407 19.7851 14.0635 19.6945 14.1541C19.6039 14.2446 19.4811 14.2955 19.3531 14.2955C19.225 14.2955 19.1022 14.2446 19.0116 14.1541C18.9211 14.0635 18.8702 13.9407 18.8702 13.8126C18.8702 13.2138 19.3574 12.7266 19.9562 12.7266C20.5551 12.7266 21.0423 13.2137 21.0423 13.8126C21.0423 13.9407 20.9914 14.0635 20.9008 14.1541C20.8103 14.2446 20.6874 14.2955 20.5594 14.2955ZM21.0422 18.2516C21.0422 18.1235 20.9914 18.0007 20.9008 17.9101C20.8103 17.8196 20.6874 17.7687 20.5594 17.7687C20.4313 17.7687 20.3085 17.8196 20.2179 17.9101C20.1274 18.0007 20.0765 18.1235 20.0765 18.2516C20.0765 18.2834 20.0638 18.314 20.0412 18.3366C20.0187 18.3591 19.9881 18.3718 19.9562 18.3718C19.9244 18.3718 19.8938 18.3591 19.8712 18.3366C19.8487 18.314 19.836 18.2835 19.8359 18.2516C19.8359 18.1235 19.7851 18.0007 19.6945 17.9101C19.6039 17.8196 19.4811 17.7687 19.3531 17.7687C19.225 17.7687 19.1022 17.8196 19.0116 17.9101C18.9211 18.0007 18.8702 18.1235 18.8702 18.2516C18.8702 18.8504 19.3574 19.3376 19.9562 19.3376C20.5551 19.3376 21.0422 18.8504 21.0422 18.2516ZM20.4391 16.9118V15.1523C20.4391 15.0242 20.3882 14.9014 20.2976 14.8109C20.2071 14.7203 20.0843 14.6694 19.9562 14.6694C19.8281 14.6694 19.7053 14.7203 19.6147 14.8109C19.5242 14.9014 19.4733 15.0242 19.4733 15.1523V16.9118C19.4733 17.0399 19.5242 17.1627 19.6147 17.2533C19.7053 17.3438 19.8281 17.3947 19.9562 17.3947C20.0843 17.3947 20.2071 17.3438 20.2976 17.2533C20.3882 17.1627 20.4391 17.0399 20.4391 16.9118Z" fill="#616161"/>
<path d="M19.9528 19.3377C20.5516 19.3377 21.0389 18.8505 21.0389 18.2517C21.0389 18.1236 20.988 18.0008 20.8974 17.9102C20.8069 17.8197 20.6841 17.7688 20.556 17.7688C20.4279 17.7688 20.3051 17.8197 20.2146 17.9102C20.124 18.0008 20.0731 18.1236 20.0731 18.2517C20.0731 18.2835 20.0604 18.3141 20.0379 18.3367C20.0153 18.3592 19.9848 18.3719 19.9529 18.3719C19.921 18.3719 19.8904 18.3592 19.8679 18.3367C19.8453 18.3141 19.8326 18.2836 19.8326 18.2517C19.8325 18.1911 19.821 18.131 19.7986 18.0747C19.6461 18.414 19.3998 18.7028 19.0889 18.907C19.2874 19.1682 19.6002 19.3377 19.9528 19.3377ZM20.4357 16.912V15.1525C20.4357 14.8912 20.2281 14.679 19.9689 14.6704V17.278C19.9689 17.3171 19.9674 17.3558 19.9651 17.3942C20.2261 17.3876 20.4357 17.1745 20.4357 16.912ZM19.9689 12.7275V13.6942C19.9977 13.698 20.0241 13.7121 20.0432 13.7339C20.0624 13.7558 20.073 13.7838 20.0731 13.8128C20.0731 13.9409 20.1239 14.0637 20.2145 14.1542C20.3051 14.2448 20.4279 14.2957 20.5559 14.2957C20.684 14.2957 20.8068 14.2448 20.8974 14.1542C20.9879 14.0637 21.0388 13.9409 21.0388 13.8128C21.0389 13.2194 20.5603 12.7363 19.9689 12.7275ZM13.0436 19.3377C13.6424 19.3377 14.1297 18.8505 14.1297 18.2517C14.1297 18.1236 14.0788 18.0008 13.9883 17.9102C13.8977 17.8197 13.7749 17.7688 13.6468 17.7688C13.5187 17.7688 13.3959 17.8197 13.3054 17.9102C13.2148 18.0008 13.1639 18.1236 13.1639 18.2517C13.1639 18.2835 13.1512 18.3141 13.1287 18.3367C13.1061 18.3592 13.0756 18.3719 13.0437 18.3719C13.0118 18.3719 12.9812 18.3592 12.9587 18.3367C12.9361 18.3141 12.9234 18.2836 12.9234 18.2517C12.9233 18.1911 12.9118 18.131 12.8894 18.0747C12.7369 18.414 12.4907 18.7028 12.1797 18.907C12.3782 19.1682 12.6911 19.3377 13.0436 19.3377ZM13.5265 16.912V15.1525C13.5265 14.8912 13.3189 14.679 13.0597 14.6704V17.278C13.0597 17.3171 13.0582 17.3558 13.0559 17.3942C13.3169 17.3876 13.5265 17.1745 13.5265 16.912ZM13.0597 12.7275V13.6942C13.0885 13.698 13.1149 13.7121 13.1341 13.7339C13.1532 13.7558 13.1638 13.7838 13.1639 13.8128C13.1639 13.9409 13.2147 14.0637 13.3053 14.1542C13.3959 14.2448 13.5187 14.2957 13.6467 14.2957C13.7748 14.2957 13.8976 14.2448 13.9882 14.1542C14.0788 14.0637 14.1296 13.9409 14.1296 13.8128C14.1297 13.2194 13.6511 12.7363 13.0597 12.7275Z" fill="#424242"/>
</g>
<defs>
<clipPath id="clip0_1971_211561">
<rect width="32" height="32" fill="white" transform="translate(0.5)"/>
</clipPath>
</defs>
</svg>
