<svg width="32" height="32" viewBox="0 0 32 32" fill="none" xmlns="http://www.w3.org/2000/svg">
<path d="M27.7499 27.883H4.24219C3.55181 27.883 2.99219 27.3234 2.99219 26.633V9.77148C2.99219 9.08111 3.55181 8.52148 4.24219 8.52148H27.7499C28.4403 8.52148 28.9999 9.08111 28.9999 9.77148V26.633C28.9999 27.3234 28.4403 27.883 27.7499 27.883Z" fill="#7C3108"/>
<path d="M27.7499 8.52148V25.383C27.7499 26.0734 27.1903 26.633 26.4999 26.633H2.99219C2.99219 27.3234 3.55181 27.883 4.24219 27.883H27.7499C28.4403 27.883 28.9999 27.3234 28.9999 26.633V9.77148C28.9999 9.08111 28.4403 8.52148 27.7499 8.52148Z" fill="#6D2E03"/>
<path d="M16.4328 19.1567L29.0321 14.4786C29.2713 14.3898 29.4775 14.2299 29.6232 14.0204C29.7689 13.8109 29.847 13.5619 29.8469 13.3067V9.77148C29.8469 9.08111 29.2873 8.52148 28.5969 8.52148H3.39844C2.70806 8.52148 2.14844 9.08111 2.14844 9.77148V13.3069C2.14843 13.562 2.2265 13.8111 2.37217 14.0205C2.51783 14.23 2.72412 14.3899 2.96331 14.4787L15.5626 19.1569C15.8433 19.261 16.1521 19.261 16.4328 19.1567Z" fill="#8C3F0A"/>
<path d="M2.89844 12.51C2.83213 12.51 2.76854 12.4836 2.72166 12.4367C2.67478 12.3899 2.64844 12.3263 2.64844 12.26C2.64844 12.1212 2.75969 12.01 2.89844 12.01C2.96474 12.01 3.02833 12.0363 3.07521 12.0832C3.1221 12.1301 3.14844 12.1937 3.14844 12.26C3.14844 12.3263 3.1221 12.3899 3.07521 12.4367C3.02833 12.4836 2.96474 12.51 2.89844 12.51ZM2.89844 11.51C2.83213 11.51 2.76854 11.4836 2.72166 11.4367C2.67478 11.3899 2.64844 11.3263 2.64844 11.26V9.77246C2.64844 9.35871 2.98469 9.02246 3.39844 9.02246H18.3747C18.441 9.02246 18.5046 9.0488 18.5515 9.09568C18.5983 9.14257 18.6247 9.20616 18.6247 9.27246C18.6247 9.33877 18.5983 9.40235 18.5515 9.44924C18.5046 9.49612 18.441 9.52246 18.3747 9.52246H3.39844C3.33213 9.52246 3.26854 9.5488 3.22166 9.59568C3.17478 9.64257 3.14844 9.70616 3.14844 9.77246V11.26C3.14844 11.3975 3.03594 11.51 2.89844 11.51ZM17.2561 14.5436L16.3028 13.9645C16.2107 13.9085 16.1049 13.8789 15.9971 13.8789C15.8893 13.8789 15.7836 13.9085 15.6914 13.9645L14.7382 14.5436C14.6518 14.5961 14.5803 14.67 14.5308 14.7581C14.4812 14.8462 14.4552 14.9456 14.4552 15.0467V17.1993H17.5389V15.0467C17.539 14.9456 17.513 14.8462 17.4635 14.7581C17.4139 14.6699 17.3425 14.5961 17.2561 14.5436ZM14.7383 23.8335L15.6916 24.4126C15.7837 24.4686 15.8894 24.4982 15.9973 24.4982C16.1051 24.4982 16.2108 24.4686 16.3029 24.4126L17.2562 23.8335C17.3426 23.781 17.414 23.7071 17.4636 23.619C17.5132 23.5308 17.5392 23.4314 17.5392 23.3303V21.1777H14.4554V23.3303C14.4554 23.4314 14.4814 23.5308 14.5309 23.619C14.5805 23.7071 14.6519 23.781 14.7383 23.8335Z" fill="#995222"/>
<path d="M17.6807 21.1776H14.3164C14.1838 21.1776 14.0566 21.1249 13.9629 21.0311C13.8691 20.9374 13.8164 20.8102 13.8164 20.6776V17.6992C13.8164 17.5666 13.8691 17.4394 13.9629 17.3457C14.0566 17.2519 14.1838 17.1992 14.3164 17.1992H17.6807C17.8133 17.1992 17.9404 17.2519 18.0342 17.3457C18.128 17.4394 18.1807 17.5666 18.1807 17.6992V20.6776C18.1807 20.8102 18.128 20.9374 18.0342 21.0311C17.9404 21.1249 17.8133 21.1776 17.6807 21.1776Z" fill="#FFA91A"/>
<path d="M17.3207 20.6216H14.6758C14.6095 20.6216 14.5459 20.5953 14.499 20.5484C14.4521 20.5015 14.4258 20.4379 14.4258 20.3716V18.0049C14.4258 17.9386 14.4521 17.875 14.499 17.8281C14.5459 17.7812 14.6095 17.7549 14.6758 17.7549H17.3207C17.387 17.7549 17.4505 17.7812 17.4974 17.8281C17.5443 17.875 17.5707 17.9386 17.5707 18.0049V20.3716C17.5707 20.4379 17.5443 20.5015 17.4974 20.5484C17.4505 20.5953 17.387 20.6216 17.3207 20.6216Z" fill="#995222"/>
<path d="M15.9998 19.5027C15.9149 19.5027 15.8335 19.469 15.7735 19.409C15.7135 19.3489 15.6797 19.2675 15.6797 19.1826V17.7927C15.682 17.7094 15.7168 17.6302 15.7765 17.5721C15.8363 17.514 15.9164 17.4814 15.9998 17.4814C16.0832 17.4814 16.1633 17.514 16.2231 17.5721C16.2829 17.6302 16.3176 17.7094 16.3199 17.7927V19.1826C16.32 19.2247 16.3117 19.2663 16.2956 19.3051C16.2795 19.344 16.2559 19.3793 16.2262 19.409C16.1965 19.4388 16.1612 19.4623 16.1223 19.4784C16.0835 19.4945 16.0419 19.5028 15.9998 19.5027Z" fill="#FFA91A"/>
<path d="M20.0168 6.51084H11.9766C11.844 6.51084 11.7168 6.45816 11.623 6.36439C11.5292 6.27062 11.4766 6.14344 11.4766 6.01084V4.61621C11.4766 4.4836 11.5292 4.35643 11.623 4.26266C11.7168 4.16889 11.844 4.11621 11.9766 4.11621H20.0168C20.1494 4.11621 20.2766 4.16889 20.3704 4.26266C20.4641 4.35643 20.5168 4.4836 20.5168 4.61621V6.01084C20.5168 6.14344 20.4641 6.27062 20.3704 6.36439C20.2766 6.45816 20.1494 6.51084 20.0168 6.51084Z" fill="#8C3F0A"/>
<path d="M20.0168 4.11621H19.2668V4.76084C19.2668 4.89344 19.2141 5.02062 19.1204 5.11439C19.0266 5.20816 18.8994 5.26084 18.7668 5.26084H11.4766V6.01084C11.4766 6.14344 11.5292 6.27062 11.623 6.36439C11.7168 6.45816 11.844 6.51084 11.9766 6.51084H20.0168C20.1494 6.51084 20.2766 6.45816 20.3704 6.36439C20.4641 6.27062 20.5168 6.14344 20.5168 6.01084V4.61621C20.5168 4.4836 20.4641 4.35643 20.3704 4.26266C20.2766 4.16889 20.1494 4.11621 20.0168 4.11621Z" fill="#7C3108"/>
<path d="M20.0168 4.11621H19.8918V5.38584C19.8918 5.51844 19.8391 5.64562 19.7454 5.73939C19.6516 5.83316 19.5244 5.88584 19.3918 5.88584H11.4766V6.01084C11.4766 6.14344 11.5292 6.27062 11.623 6.36439C11.7168 6.45816 11.844 6.51084 11.9766 6.51084H20.0168C20.1494 6.51084 20.2766 6.45816 20.3704 6.36439C20.4641 6.27062 20.5168 6.14344 20.5168 6.01084V4.61621C20.5168 4.4836 20.4641 4.35643 20.3704 4.26266C20.2766 4.16889 20.1494 4.11621 20.0168 4.11621Z" fill="#6D2E03"/>
<path d="M10.6758 8.52198H11.4794V5.31348H11.1758C11.0432 5.31348 10.916 5.36616 10.8222 5.45992C10.7285 5.55369 10.6758 5.68087 10.6758 5.81348V8.52198Z" fill="#FFA91A"/>
<path d="M11.2294 5.31348V8.27198H10.6758V8.52198H11.4794V5.31348H11.2294Z" fill="#F79219"/>
<path d="M21.3191 8.52198H20.5156V5.31348H20.8191C20.9517 5.31348 21.0789 5.36616 21.1727 5.45992C21.2664 5.55369 21.3191 5.68087 21.3191 5.81348V8.52198Z" fill="#FFA91A"/>
<path d="M21.0241 5.3584C21.0525 5.42115 21.0691 5.49015 21.0691 5.5634V8.27177H20.5156V8.52177H21.3191V5.8134C21.319 5.7172 21.2911 5.62308 21.2388 5.54236C21.1864 5.46164 21.1119 5.39776 21.0241 5.3584Z" fill="#F79219"/>
</svg>
