<svg width="32" height="32" viewBox="0 0 32 32" fill="none" xmlns="http://www.w3.org/2000/svg">
<g clip-path="url(#clip0_1992_269786)">
<path d="M26.451 31.9325C22.0842 31.1555 15.8526 27.3624 10.0906 21.6034C1.70922 13.2261 -1.99666 4.36925 1.18705 1.19449C4.37076 -1.98027 13.2385 1.72928 21.6199 10.1066C27.3818 15.8656 31.1739 22.0914 31.9472 26.4518L26.451 31.9325Z" fill="#FFDC6E"/>
<path d="M21.6196 10.1063C14.5376 3.02782 7.10871 -0.717788 3.05469 0.206027C7.25712 0.928313 13.1323 4.45482 18.7866 10.1063C24.5485 15.8653 28.3406 22.091 29.1138 26.4515L24.2203 31.3313C25.0051 31.6058 25.7519 31.8078 26.4507 31.9321L31.9468 26.4515C31.1736 22.091 27.3814 15.8653 21.6196 10.1063Z" fill="#FFCA52"/>
<path d="M2.45249 0.386963C1.96521 0.572846 1.53949 0.8405 1.18479 1.19424C0.830276 1.54778 0.56172 1.97215 0.375 2.45808L28.1579 30.228L30.2352 28.1565L2.45249 0.386963Z" fill="#86DF75"/>
<path d="M28.8192 26.7405L26.7422 28.8117L28.1587 30.2282L30.236 28.1567L28.8192 26.7405Z" fill="#3FD14D"/>
<path d="M4.76002 27.0487L5.4702 31.8072C9.8408 31.0542 16.0906 27.2956 21.8799 21.5686C30.3013 13.2378 34.0517 4.40455 30.883 1.21247C27.7143 -1.97961 18.8264 1.67812 10.405 10.0089C4.61566 15.7359 0.793948 21.9405 0 26.2965L4.76002 27.0487Z" fill="#ABEEFF"/>
<path d="M30.8822 1.2124C29.844 0.166513 28.1919 -0.143894 26.1434 0.204307C26.905 0.375253 27.5486 0.70813 28.0491 1.2124C31.2178 4.40455 27.4674 13.2378 19.0461 21.5685C14.3722 26.1921 9.39848 29.5323 5.35547 31.0441L5.46937 31.8071C9.83998 31.0542 16.0898 27.2956 21.8791 21.5685C30.3005 13.2378 34.0509 4.40448 30.8822 1.2124Z" fill="#6EE2FF"/>
<path d="M10.857 21.0179L14.3692 17.5426L14.3544 17.4424L5.05241 16.1584C4.14237 17.3903 3.3389 18.6063 2.65234 19.7842L10.8448 20.9353L10.857 21.0179ZM10.857 21.0179L12.0616 29.1971C13.2552 28.5159 14.4884 27.717 15.738 26.811L14.3692 17.5427L10.857 21.0179Z" fill="#1371EF"/>
<path d="M15.4469 24.8554C14.3046 25.9275 13.0999 26.7531 11.8203 27.5749L12.0592 29.1966C13.2528 28.5155 14.486 27.7166 15.7356 26.8106L15.4469 24.8554ZM14.5451 18.7495L14.3667 17.5422L14.3594 17.5495L14.5451 18.7495Z" fill="#0257C9"/>
<path d="M30.8804 1.21253C30.7642 1.09615 30.6397 0.988328 30.508 0.889893L4.41772 26.7055C4.39241 26.7305 4.36995 26.7582 4.35076 26.7881L4.17969 26.9575L4.75736 27.0488L4.84782 27.655L31.1905 1.5738C31.0957 1.4463 30.9921 1.32558 30.8804 1.21253Z" fill="white"/>
<path d="M30.8814 1.21253C30.7652 1.09615 30.6407 0.988328 30.509 0.889893L28.8672 2.51436C28.9383 2.73372 29.0612 3.14844 29.1372 3.60777L31.1915 1.57387C31.0967 1.44632 30.9931 1.32557 30.8814 1.21253Z" fill="#E4F3F7"/>
</g>
<defs>
<clipPath id="clip0_1992_269786">
<rect width="32" height="32" fill="white"/>
</clipPath>
</defs>
</svg>
