<svg width="25" height="24" viewBox="0 0 25 24" fill="none" xmlns="http://www.w3.org/2000/svg">
<path d="M12.3281 22.25C7.36427 22.25 3.32812 18.2139 3.32812 13.25C3.32812 8.28614 7.36427 4.25 12.3281 4.25C17.292 4.25 21.3281 8.28614 21.3281 13.25C21.3281 13.3839 21.212 13.5 21.0781 13.5C20.9443 13.5 20.8281 13.3839 20.8281 13.25C20.8281 8.56386 17.0143 4.75 12.3281 4.75C7.64198 4.75 3.82812 8.56386 3.82812 13.25C3.82812 17.9361 7.64198 21.75 12.3281 21.75C12.462 21.75 12.5781 21.8661 12.5781 22C12.5781 22.1339 12.462 22.25 12.3281 22.25Z" fill="#525F72" stroke="#525F72"/>
<path d="M12.3281 13.25C12.1943 13.25 12.0781 13.1339 12.0781 13V8C12.0781 7.86614 12.1943 7.75 12.3281 7.75C12.462 7.75 12.5781 7.86614 12.5781 8V13C12.5781 13.1339 12.462 13.25 12.3281 13.25Z" fill="#525F72" stroke="#525F72"/>
<path d="M15.3281 2.25H9.32812C9.19427 2.25 9.07812 2.13386 9.07812 2C9.07812 1.86614 9.19427 1.75 9.32812 1.75H15.3281C15.462 1.75 15.5781 1.86614 15.5781 2C15.5781 2.13386 15.462 2.25 15.3281 2.25Z" fill="#525F72" stroke="#525F72"/>
<path d="M19.3281 21.75C18.9181 21.75 18.5781 21.41 18.5781 21V17C18.5781 16.59 18.9181 16.25 19.3281 16.25C19.7381 16.25 20.0781 16.59 20.0781 17V21C20.0781 21.41 19.7381 21.75 19.3281 21.75Z" fill="#525F72"/>
<path d="M16.3281 21.75C15.9181 21.75 15.5781 21.41 15.5781 21V17C15.5781 16.59 15.9181 16.25 16.3281 16.25C16.7381 16.25 17.0781 16.59 17.0781 17V21C17.0781 21.41 16.7381 21.75 16.3281 21.75Z" fill="#525F72"/>
</svg>
