<svg width="17" height="16" viewBox="0 0 17 16" fill="none" xmlns="http://www.w3.org/2000/svg">
<path d="M9.64423 9.83501L9.64412 9.83486C9.61914 9.80051 9.62424 9.74327 9.66543 9.71206C9.67948 9.70141 9.69698 9.69638 9.71885 9.69984C9.74143 9.7034 9.76415 9.71573 9.78073 9.73693C10.3428 10.4973 11.1975 10.9433 12.1338 10.9433C13.7566 10.9433 15.0838 9.6241 15.0838 7.99327C15.0838 6.36315 13.7639 5.04327 12.1338 5.04327C11.0409 5.04327 10.0123 5.62659 9.45038 6.55801L9.45 6.55864L7.68334 9.49867L7.68301 9.49922C7.092 10.4862 6.00812 11.0966 4.86049 11.0966C3.14395 11.0966 1.74382 9.69647 1.74382 7.97992C1.74382 6.26337 3.14394 4.86326 4.86049 4.86326C5.84542 4.86326 6.75413 5.32469 7.35008 6.14485L7.35018 6.14499C7.37407 6.17785 7.37045 6.23164 7.3341 6.26357C7.29113 6.28992 7.24214 6.2794 7.21358 6.24291C6.65148 5.48253 5.79679 5.0366 4.86049 5.0366C3.23776 5.0366 1.91048 6.35576 1.91048 7.98659C1.91048 9.61671 3.23037 10.9366 4.86049 10.9366C5.95347 10.9366 6.982 10.3533 7.54392 9.42184L7.5443 9.42122L9.31096 6.48123L9.31129 6.48068C9.9023 5.4937 10.9862 4.88328 12.1338 4.88328C13.8504 4.88328 15.2505 6.28339 15.2505 7.99994C15.2505 9.71649 13.8504 11.1166 12.1338 11.1166C11.1489 11.1166 10.2402 10.6552 9.64423 9.83501Z" fill="#60387D" stroke="#60387D" stroke-width="0.833333"/>
</svg>
