<svg width="25" height="24" viewBox="0 0 25 24" fill="none" xmlns="http://www.w3.org/2000/svg">
<path d="M15.0241 22.7498H9.02407C7.70407 22.7498 6.60407 22.6198 5.67407 22.3398C5.33407 22.2398 5.11407 21.9098 5.13407 21.5598C5.38407 18.5698 8.41407 16.2198 12.0241 16.2198C15.6341 16.2198 18.6541 18.5598 18.9141 21.5598C18.9441 21.9198 18.7241 22.2398 18.3741 22.3398C17.4441 22.6198 16.3441 22.7498 15.0241 22.7498ZM6.74407 21.0598C7.40407 21.1898 8.15407 21.2498 9.02407 21.2498H15.0241C15.8941 21.2498 16.6441 21.1898 17.3041 21.0598C16.7741 19.1398 14.5841 17.7198 12.0241 17.7198C9.46407 17.7198 7.27407 19.1398 6.74407 21.0598Z" fill="#5A687D"/>
<path d="M15.0234 1.99994H9.02344C4.02344 1.99994 2.02344 3.99994 2.02344 8.99994V14.9999C2.02344 18.7799 3.16344 20.8499 5.88344 21.6199C6.10344 19.0199 8.77344 16.9699 12.0234 16.9699C15.2734 16.9699 17.9434 19.0199 18.1634 21.6199C20.8834 20.8499 22.0234 18.7799 22.0234 14.9999V8.99994C22.0234 3.99994 20.0234 1.99994 15.0234 1.99994ZM12.0234 14.1699C10.0434 14.1699 8.44344 12.56 8.44344 10.58C8.44344 8.59996 10.0434 6.99994 12.0234 6.99994C14.0034 6.99994 15.6034 8.59996 15.6034 10.58C15.6034 12.56 14.0034 14.1699 12.0234 14.1699Z" stroke="#5A687D" stroke-width="1.35" stroke-linecap="round" stroke-linejoin="round"/>
<path d="M12.0253 14.9199C9.63531 14.9199 7.69531 12.9699 7.69531 10.5799C7.69531 8.18989 9.63531 6.24988 12.0253 6.24988C14.4153 6.24988 16.3553 8.18989 16.3553 10.5799C16.3553 12.9699 14.4153 14.9199 12.0253 14.9199ZM12.0253 7.74988C10.4653 7.74988 9.19531 9.0199 9.19531 10.5799C9.19531 12.1499 10.4653 13.4199 12.0253 13.4199C13.5853 13.4199 14.8553 12.1499 14.8553 10.5799C14.8553 9.0199 13.5853 7.74988 12.0253 7.74988Z" fill="#5A687D"/>
</svg>
