<svg width="32" height="32" viewBox="0 0 32 32" fill="none" xmlns="http://www.w3.org/2000/svg">
<path d="M25.1065 20.5015C23.4844 19.7141 21.7338 19.2252 19.9385 19.058L18.8385 17.6155C21.3435 15.8915 22.5 11.9855 22.5 9V6.5805L23.475 3.642C23.4974 3.57406 23.5049 3.5021 23.497 3.431C23.4507 2.78644 23.1678 2.18172 22.7028 1.73301C22.2378 1.2843 21.6233 1.02325 20.9775 1H11.0225C10.3766 1.02312 9.76204 1.28412 9.29689 1.73284C8.83174 2.18157 8.54882 2.78635 8.5025 3.431C8.49492 3.50217 8.50276 3.57414 8.5255 3.642L9.5 6.5805V9C9.5 11.9855 10.656 15.8915 13.1615 17.6155L12.0615 19.058C10.2662 19.2252 8.5156 19.7141 6.8935 20.5015C4.215 21.9 3.5 27.4445 3.5 30.5C3.5 30.6326 3.55268 30.7598 3.64645 30.8536C3.74021 30.9473 3.86739 31 4 31H28C28.1326 31 28.2598 30.9473 28.3536 30.8536C28.4473 30.7598 28.5 30.6326 28.5 30.5C28.5 27.4445 27.785 21.9 25.1065 20.5015ZM21.5 8.5H10.5V7H21.5V8.5ZM20.5055 9.5C17.492 11.5685 14.8785 11.569 11.6055 9.5H20.5055ZM11.0225 2H20.9775C21.359 2.02109 21.7205 2.17717 21.9975 2.44033C22.2745 2.7035 22.4489 3.05659 22.4895 3.4365L21.6395 6H10.3605L9.5105 3.4365C9.55108 3.05667 9.72538 2.70364 10.0023 2.44049C10.2792 2.17734 10.6411 2.02121 11.0225 2ZM10.547 10.0065C12.572 11.3865 14.3865 12.0775 16.16 12.0775C17.9075 12.0775 19.617 11.404 21.4475 10.063C21.1325 13.385 19.3795 17.5 16 17.5C12.6015 17.5 10.847 13.338 10.547 10.0065ZM14.045 18.1055C14.6639 18.366 15.3286 18.5001 16 18.5001C16.6714 18.5001 17.3361 18.366 17.955 18.1055L18.9125 19.362C18.0116 19.8255 17.0131 20.0673 16 20.0673C14.9869 20.0673 13.9884 19.8255 13.0875 19.362L14.045 18.1055ZM7.3565 21.388C8.88784 20.6498 10.5401 20.1948 12.2335 20.045C13.2383 20.6078 14.3522 20.9485 15.5 21.044V30H4.5065C4.584 26.9245 5.3715 22.4245 7.3565 21.388ZM16.5 30V21.044C17.6478 20.9485 18.7617 20.6078 19.7665 20.045C21.4599 20.1948 23.1122 20.6498 24.6435 21.388C26.6285 22.4245 27.416 26.9245 27.4935 30H16.5Z" fill="#5A687D"/>
<path d="M10 23H8.5C8.36739 23 8.24021 23.0527 8.14645 23.1464C8.05268 23.2402 8 23.3674 8 23.5C8 23.6326 8.05268 23.7598 8.14645 23.8536C8.24021 23.9473 8.36739 24 8.5 24H10C10.1326 24 10.2598 23.9473 10.3536 23.8536C10.4473 23.7598 10.5 23.6326 10.5 23.5C10.5 23.3674 10.4473 23.2402 10.3536 23.1464C10.2598 23.0527 10.1326 23 10 23ZM13 25C13.2967 25 13.5867 24.912 13.8334 24.7472C14.08 24.5824 14.2723 24.3481 14.3858 24.074C14.4994 23.7999 14.5291 23.4983 14.4712 23.2074C14.4133 22.9164 14.2704 22.6491 14.0607 22.4393C13.8509 22.2296 13.5836 22.0867 13.2926 22.0288C13.0017 21.9709 12.7001 22.0007 12.426 22.1142C12.1519 22.2277 11.9176 22.42 11.7528 22.6666C11.588 22.9133 11.5 23.2033 11.5 23.5C11.5004 23.8977 11.6586 24.279 11.9398 24.5602C12.221 24.8414 12.6023 24.9996 13 25ZM13 23C13.0989 23 13.1956 23.0293 13.2778 23.0843C13.36 23.1392 13.4241 23.2173 13.4619 23.3087C13.4998 23.4 13.5097 23.5006 13.4904 23.5975C13.4711 23.6945 13.4235 23.7836 13.3536 23.8536C13.2836 23.9235 13.1945 23.9711 13.0975 23.9904C13.0006 24.0097 12.9 23.9998 12.8087 23.9619C12.7173 23.9241 12.6392 23.86 12.5843 23.7778C12.5293 23.6956 12.5 23.5989 12.5 23.5C12.5 23.3674 12.5527 23.2402 12.6464 23.1464C12.7402 23.0527 12.8674 23 13 23ZM13 26.0265C12.7033 26.0265 12.4133 26.1145 12.1666 26.2793C11.92 26.4441 11.7277 26.6784 11.6142 26.9525C11.5006 27.2266 11.4709 27.5282 11.5288 27.8191C11.5867 28.1101 11.7296 28.3774 11.9393 28.5872C12.1491 28.7969 12.4164 28.9398 12.7074 28.9977C12.9983 29.0556 13.2999 29.0259 13.574 28.9123C13.8481 28.7988 14.0824 28.6065 14.2472 28.3599C14.412 28.1132 14.5 27.8232 14.5 27.5265C14.4996 27.1288 14.3414 26.7475 14.0602 26.4663C13.779 26.1851 13.3977 26.0269 13 26.0265ZM13 28.0265C12.9011 28.0265 12.8044 27.9972 12.7222 27.9422C12.64 27.8873 12.5759 27.8092 12.5381 27.7178C12.5002 27.6265 12.4903 27.5259 12.5096 27.429C12.5289 27.332 12.5765 27.2429 12.6464 27.1729C12.7164 27.103 12.8055 27.0554 12.9025 27.0361C12.9994 27.0168 13.1 27.0267 13.1913 27.0646C13.2827 27.1024 13.3608 27.1665 13.4157 27.2487C13.4707 27.3309 13.5 27.4276 13.5 27.5265C13.5 27.6591 13.4473 27.7863 13.3536 27.8801C13.2598 27.9738 13.1326 28.0265 13 28.0265ZM19 22C18.7033 22 18.4133 22.088 18.1666 22.2528C17.92 22.4176 17.7277 22.6519 17.6142 22.926C17.5007 23.2001 17.4709 23.5017 17.5288 23.7926C17.5867 24.0836 17.7296 24.3509 17.9393 24.5607C18.1491 24.7704 18.4164 24.9133 18.7074 24.9712C18.9983 25.0291 19.2999 24.9994 19.574 24.8858C19.8481 24.7723 20.0824 24.58 20.2472 24.3334C20.412 24.0867 20.5 23.7967 20.5 23.5C20.4996 23.1023 20.3414 22.721 20.0602 22.4398C19.779 22.1586 19.3977 22.0004 19 22ZM19 24C18.9011 24 18.8044 23.9707 18.7222 23.9157C18.64 23.8608 18.5759 23.7827 18.5381 23.6913C18.5002 23.6 18.4903 23.4994 18.5096 23.4025C18.5289 23.3055 18.5765 23.2164 18.6464 23.1464C18.7164 23.0765 18.8055 23.0289 18.9025 23.0096C18.9994 22.9903 19.1 23.0002 19.1913 23.0381C19.2827 23.0759 19.3608 23.14 19.4157 23.2222C19.4707 23.3044 19.5 23.4011 19.5 23.5C19.5 23.6326 19.4473 23.7598 19.3536 23.8536C19.2598 23.9473 19.1326 24 19 24ZM19 26.0265C18.7033 26.0265 18.4133 26.1145 18.1666 26.2793C17.92 26.4441 17.7277 26.6784 17.6142 26.9525C17.5007 27.2266 17.4709 27.5282 17.5288 27.8191C17.5867 28.1101 17.7296 28.3774 17.9393 28.5872C18.1491 28.7969 18.4164 28.9398 18.7074 28.9977C18.9983 29.0556 19.2999 29.0259 19.574 28.9123C19.8481 28.7988 20.0824 28.6065 20.2472 28.3599C20.412 28.1132 20.5 27.8232 20.5 27.5265C20.4996 27.1288 20.3414 26.7475 20.0602 26.4663C19.779 26.1851 19.3977 26.0269 19 26.0265ZM19 28.0265C18.9011 28.0265 18.8044 27.9972 18.7222 27.9422C18.64 27.8873 18.5759 27.8092 18.5381 27.7178C18.5002 27.6265 18.4903 27.5259 18.5096 27.429C18.5289 27.332 18.5765 27.2429 18.6464 27.1729C18.7164 27.103 18.8055 27.0554 18.9025 27.0361C18.9994 27.0168 19.1 27.0267 19.1913 27.0646C19.2827 27.1024 19.3608 27.1665 19.4157 27.2487C19.4707 27.3309 19.5 27.4276 19.5 27.5265C19.5 27.6591 19.4473 27.7863 19.3536 27.8801C19.2598 27.9738 19.1326 28.0265 19 28.0265Z" fill="#5A687D"/>
</svg>
