<svg width="25" height="24" viewBox="0 0 25 24" fill="none" xmlns="http://www.w3.org/2000/svg">
<path d="M13.5 11.9004H7.5C7.09 11.9004 6.75 11.5604 6.75 11.1504C6.75 10.7404 7.09 10.4004 7.5 10.4004H13.5C13.91 10.4004 14.25 10.7404 14.25 11.1504C14.25 11.5604 13.91 11.9004 13.5 11.9004Z" fill="#D542C2"/>
<path d="M2.5 11.9008C2.09 11.9008 1.75 11.5608 1.75 11.1508V6.53082C1.75 4.08082 3.74 2.09082 6.19 2.09082H11.81C14.38 2.09082 16.25 3.80082 16.25 6.15082C16.25 6.56082 15.91 6.90082 15.5 6.90082C15.09 6.90082 14.75 6.56082 14.75 6.15082C14.75 4.39082 13.22 3.59082 11.81 3.59082H6.19C4.57 3.59082 3.25 4.91082 3.25 6.53082V11.1508C3.25 11.5708 2.91 11.9008 2.5 11.9008Z" fill="#D542C2"/>
<path d="M16.5 21.9004H6.5C3.88 21.9004 1.75 19.7704 1.75 17.1504V10.1504C1.75 7.53039 3.88 5.40039 6.5 5.40039H16.5C19.12 5.40039 21.25 7.53039 21.25 10.1504V11.6003C21.25 12.0103 20.91 12.3503 20.5 12.3503H19.42C19.07 12.3503 18.75 12.4803 18.52 12.7203L18.51 12.7303C18.18 13.0603 18.05 13.5203 18.17 13.9703C18.32 14.5303 18.91 14.9404 19.57 14.9404H20.5C20.91 14.9404 21.25 15.2804 21.25 15.6904V17.1404C21.25 19.7704 19.12 21.9004 16.5 21.9004ZM6.5 6.90039C4.71 6.90039 3.25 8.36039 3.25 10.1504V17.1504C3.25 18.9404 4.71 20.4004 6.5 20.4004H16.5C18.29 20.4004 19.75 18.9404 19.75 17.1504V16.4504H19.57C18.22 16.4504 17.05 15.6004 16.72 14.3704C16.46 13.4004 16.74 12.3703 17.45 11.6703C17.97 11.1403 18.67 10.8503 19.42 10.8503H19.75V10.1504C19.75 8.36039 18.29 6.90039 16.5 6.90039H6.5Z" fill="#D542C2"/>
<path d="M21.4699 16.4506H19.5399C18.0299 16.4506 16.7499 15.3306 16.6299 13.8906C16.5499 13.0606 16.8499 12.2506 17.4499 11.6606C17.9499 11.1406 18.6599 10.8506 19.4099 10.8506H21.4599C22.4399 10.8506 23.2399 11.6406 23.2399 12.6206V14.6806C23.2499 15.6606 22.4499 16.4506 21.4699 16.4506ZM19.4199 12.3506C19.0699 12.3506 18.7499 12.4806 18.5199 12.7206C18.2299 13.0006 18.0899 13.3806 18.1299 13.7606C18.1799 14.4206 18.8199 14.9506 19.5399 14.9506H21.4699C21.6199 14.9506 21.7499 14.8306 21.7499 14.6806V12.6206C21.7499 12.4706 21.6199 12.3506 21.4699 12.3506H19.4199Z" fill="#D542C2"/>
</svg>
