<svg width="32" height="32" viewBox="0 0 32 32" fill="none" xmlns="http://www.w3.org/2000/svg">
<path d="M8.65525 12.1151H9.49587C10.2232 12.1151 10.7971 11.4964 10.7424 10.771L10.181 3.33263C10.1573 3.01829 10.0156 2.72453 9.78449 2.51018C9.55334 2.29584 9.24974 2.17675 8.9345 2.17676H7.875L8.65525 12.1151Z" fill="#478CF7"/>
<path d="M10.7416 10.7707L10.1802 3.33234C10.1632 3.10849 10.0862 2.89337 9.95722 2.70961C9.82827 2.52584 9.65218 2.38023 9.44747 2.28809C9.50758 2.42048 9.54405 2.56237 9.55522 2.70734L10.1166 10.1457C10.1713 10.8711 9.59759 11.4897 8.87009 11.4897H8.60547L8.65459 12.1147H9.49522C10.2226 12.1147 10.7963 11.4961 10.7416 10.7707Z" fill="#377DE2"/>
<path d="M22.9836 14.252H8.82031L9.07781 17.5315H24.2336V15.502C24.2336 14.8117 23.6738 14.252 22.9836 14.252Z" fill="#478CF7"/>
<path d="M21.5013 15.252H21.4844C21.4181 15.252 21.3545 15.2256 21.3076 15.1787C21.2607 15.1318 21.2344 15.0683 21.2344 15.002C21.2344 14.9356 21.2607 14.8721 21.3076 14.8252C21.3545 14.7783 21.4181 14.752 21.4844 14.752H21.5013C21.5676 14.752 21.6311 14.7783 21.678 14.8252C21.7249 14.8721 21.7513 14.9356 21.7513 15.002C21.7513 15.0683 21.7249 15.1318 21.678 15.1787C21.6311 15.2256 21.5676 15.252 21.5013 15.252ZM20.4844 15.252H15.9844C15.9181 15.252 15.8545 15.2256 15.8076 15.1787C15.7607 15.1318 15.7344 15.0683 15.7344 15.002C15.7344 14.9356 15.7607 14.8721 15.8076 14.8252C15.8545 14.7783 15.9181 14.752 15.9844 14.752H20.4844C20.5507 14.752 20.6143 14.7783 20.6612 14.8252C20.708 14.8721 20.7344 14.9356 20.7344 15.002C20.7344 15.0683 20.708 15.1318 20.6612 15.1787C20.6143 15.2256 20.5507 15.252 20.4844 15.252Z" fill="#5E9CF7"/>
<path d="M22.9882 14.252V15.7815C22.9882 15.9141 22.9356 16.0412 22.8418 16.135C22.748 16.2288 22.6209 16.2815 22.4882 16.2815H8.98438L9.0825 17.5315H24.2382V15.502C24.2382 14.8117 23.6785 14.252 22.9882 14.252Z" fill="#377DE2"/>
<path d="M23.4996 14.3633C23.5729 14.5246 23.6109 14.6997 23.611 14.8769V16.4064C23.611 16.539 23.5583 16.6662 23.4646 16.76C23.3708 16.8537 23.2436 16.9064 23.111 16.9064H9.03125L9.08037 17.5314H24.236V15.5019C24.236 14.9949 23.9335 14.5593 23.4996 14.3633Z" fill="#2266D3"/>
<path d="M31.3094 26.1985H25.9562V18.7819C25.9562 17.8169 25.1712 17.0319 24.2062 17.0319H23.4856V9.78188C23.4856 8.81688 22.7006 8.03188 21.7356 8.03188H11.8029C10.8379 8.03188 10.0529 8.81688 10.0529 9.78188V17.0319H9.55169C9.54844 17.0319 9.54556 17.0328 9.54244 17.0328L8.37294 2.13763C8.36309 2.01218 8.3063 1.89505 8.2139 1.80962C8.1215 1.72419 8.00028 1.67675 7.87444 1.67676H3.91406C3.78145 1.67676 3.65428 1.72944 3.56051 1.8232C3.46674 1.91697 3.41406 2.04415 3.41406 2.17676C3.41406 2.30937 3.46674 2.43654 3.56051 2.53031C3.65428 2.62408 3.78145 2.67676 3.91406 2.67676H7.41206L8.81444 20.5376C8.9137 20.501 9.01864 20.4822 9.12444 20.482C9.26309 20.482 9.39988 20.514 9.52417 20.5754C9.64846 20.6369 9.7569 20.7262 9.84106 20.8364L9.62094 18.0319H24.2063C24.6199 18.0319 24.9563 18.3683 24.9563 18.7819V20.886H9.87731C9.97269 21.0293 10.0284 21.2011 10.0284 21.386C10.0284 21.5709 9.97269 21.7428 9.87731 21.886H24.9562V26.6985C24.9562 26.8311 25.0089 26.9583 25.1026 27.0521C25.1964 27.1458 25.3236 27.1985 25.4562 27.1985H31.3094C31.442 27.1985 31.5692 27.1458 31.663 27.0521C31.7568 26.9583 31.8094 26.8311 31.8094 26.6985C31.8094 26.5659 31.7568 26.4387 31.663 26.345C31.5692 26.2512 31.442 26.1985 31.3094 26.1985ZM22.4856 17.0319H11.0529V9.78188C11.0529 9.36826 11.3893 9.03188 11.8029 9.03188H21.7356C22.1492 9.03188 22.4856 9.36826 22.4856 9.78188V17.0319Z" fill="#D1D3D4"/>
<path d="M9.125 12.9482C4.46513 12.9482 0.6875 16.7259 0.6875 21.3857C0.6875 26.0456 4.46513 29.8232 9.125 29.8232C13.7849 29.8232 17.5625 26.0456 17.5625 21.3857C17.5625 16.7259 13.7849 12.9482 9.125 12.9482ZM9.125 28.6179C5.13075 28.6179 1.89287 25.3799 1.89287 21.3857C1.89287 17.3916 5.13075 14.1536 9.125 14.1536C13.1193 14.1536 16.3571 17.3915 16.3571 21.3857C16.3571 25.38 13.1191 28.6179 9.125 28.6179Z" fill="#939598"/>
<path d="M14.7705 15.1162C16.1175 16.6113 16.938 18.5903 16.938 20.7612C16.938 25.4211 13.1603 29.1987 8.50047 29.1987C6.32959 29.1987 4.35059 28.3782 2.85547 27.0312C4.39984 28.7455 6.63647 29.8237 9.12547 29.8237C13.7853 29.8237 17.563 26.0461 17.563 21.3862C17.563 18.8972 16.4847 16.6606 14.7705 15.1162Z" fill="#808285"/>
<path d="M9.12275 14.1543C5.1285 14.1543 1.89062 17.3922 1.89062 21.3864C1.89062 25.3807 5.12863 28.6185 9.12275 28.6185C13.1169 28.6185 16.3549 25.3805 16.3549 21.3864C16.3549 17.3923 13.1169 14.1543 9.12275 14.1543ZM9.37275 19.5977V14.7633C10.3666 14.7991 11.3395 15.0592 12.2186 15.5243L9.80125 19.7113C9.66367 19.6558 9.51974 19.6177 9.37275 19.5977ZM8.87275 19.5977C8.72576 19.6177 8.58183 19.6558 8.44425 19.7113L6.02688 15.5243C6.90595 15.0592 7.87887 14.7991 8.87275 14.7633V19.5977ZM7.334 21.1364H2.49962C2.53538 20.1425 2.79554 19.1696 3.26063 18.2905L7.44763 20.7079C7.3921 20.8455 7.35394 20.9894 7.334 21.1364ZM7.334 21.6364C7.35475 21.7858 7.39263 21.9295 7.4475 22.0649L3.2605 24.4823C2.79542 23.6032 2.53525 22.6303 2.4995 21.6364H7.334ZM8.87275 23.1752V28.0095C7.87887 27.9738 6.90595 27.7136 6.02688 27.2485L8.44425 23.0615C8.57963 23.1165 8.72338 23.1544 8.87275 23.1752ZM9.37275 23.1752C9.51974 23.1552 9.66367 23.117 9.80125 23.0615L12.2186 27.2485C11.3395 27.7136 10.3666 27.9738 9.37275 28.0095V23.1752ZM10.9115 21.6364H15.7459C15.7101 22.6303 15.45 23.6032 14.9849 24.4823L10.7979 22.0649C10.8529 21.9295 10.8907 21.7858 10.9115 21.6364ZM10.9115 21.1364C10.8915 20.9895 10.8534 20.8455 10.798 20.7079L14.985 18.2905C15.4501 19.1696 15.7102 20.1425 15.746 21.1364H10.9115ZM14.7341 17.8579L10.547 20.2753C10.4558 20.1585 10.3506 20.0533 10.2338 19.962L12.6511 15.7749C13.4922 16.3052 14.2039 17.0169 14.7341 17.8579ZM5.59425 15.7749L8.01163 19.962C7.89478 20.0533 7.78954 20.1585 7.69825 20.2753L3.51113 17.8579C4.04147 17.0169 4.75323 16.3052 5.59425 15.7749ZM3.51125 24.9149L7.69838 22.4975C7.78966 22.6144 7.8949 22.7196 8.01175 22.8108L5.59438 26.9979C4.75324 26.4678 4.04146 25.756 3.51125 24.9149ZM12.6511 26.9979L10.2338 22.8108C10.3506 22.7196 10.4558 22.6144 10.547 22.4975L14.7341 24.9149C14.2039 25.756 13.4922 26.4677 12.6511 26.9979Z" fill="#414042"/>
<path d="M9.12275 22.2904C9.62202 22.2904 10.0267 21.8857 10.0267 21.3864C10.0267 20.8872 9.62202 20.4824 9.12275 20.4824C8.62348 20.4824 8.21875 20.8872 8.21875 21.3864C8.21875 21.8857 8.62348 22.2904 9.12275 22.2904Z" fill="#58595B"/>
<path d="M25.457 29.8237C27.1829 29.8237 28.582 28.4246 28.582 26.6987C28.582 24.9728 27.1829 23.5737 25.457 23.5737C23.7311 23.5737 22.332 24.9728 22.332 26.6987C22.332 28.4246 23.7311 29.8237 25.457 29.8237Z" fill="#939598"/>
<path d="M27.332 24.1987C27.7244 24.721 27.957 25.3702 27.957 26.0737C27.957 27.7996 26.5579 29.1987 24.832 29.1987C24.1557 29.1998 23.4975 28.9803 22.957 28.5737C23.5272 29.3327 24.4348 29.8237 25.457 29.8237C27.1829 29.8237 28.582 28.4246 28.582 26.6987C28.582 25.6764 28.091 24.7689 27.332 24.1987Z" fill="#808285"/>
<path d="M25.457 28.2612C26.32 28.2612 27.0195 27.5617 27.0195 26.6987C27.0195 25.8358 26.32 25.1362 25.457 25.1362C24.5941 25.1362 23.8945 25.8358 23.8945 26.6987C23.8945 27.5617 24.5941 28.2612 25.457 28.2612Z" fill="#414042"/>
<path d="M25.457 27.6362C25.9748 27.6362 26.3945 27.2165 26.3945 26.6987C26.3945 26.181 25.9748 25.7612 25.457 25.7612C24.9393 25.7612 24.5195 26.181 24.5195 26.6987C24.5195 27.2165 24.9393 27.6362 25.457 27.6362Z" fill="#58595B"/>
<path d="M21.4088 8.53204H12.1299C12.0085 8.52922 11.893 8.47902 11.8082 8.39217C11.7233 8.30532 11.6758 8.18872 11.6758 8.06729C11.6758 7.94586 11.7233 7.82926 11.8082 7.74241C11.893 7.65556 12.0085 7.60535 12.1299 7.60254H21.4088C21.5301 7.60535 21.6456 7.65556 21.7305 7.74241C21.8153 7.82926 21.8628 7.94586 21.8628 8.06729C21.8628 8.18872 21.8153 8.30532 21.7305 8.39217C21.6456 8.47902 21.5301 8.52922 21.4088 8.53204Z" fill="#478CF7"/>
<path d="M21.5897 7.63867C21.6192 7.7093 21.6307 7.78609 21.6233 7.86224C21.6159 7.93838 21.5899 8.01154 21.5475 8.0752C21.505 8.13887 21.4476 8.19108 21.3801 8.2272C21.3127 8.26333 21.2374 8.28225 21.1609 8.2823H11.882C11.8186 8.2823 11.7583 8.26942 11.7031 8.24642C11.7384 8.33107 11.798 8.40339 11.8743 8.45426C11.9506 8.50513 12.0403 8.53228 12.132 8.5323H21.4109C21.5182 8.53211 21.6221 8.4948 21.7051 8.4267C21.788 8.3586 21.8448 8.2639 21.8659 8.15867C21.887 8.05344 21.871 7.94416 21.8206 7.84938C21.7703 7.7546 21.6887 7.68015 21.5897 7.63867Z" fill="#377DE2"/>
<path d="M5.37444 2.80176H2.78906C2.6233 2.80176 2.46433 2.73591 2.34712 2.6187C2.22991 2.50149 2.16406 2.34252 2.16406 2.17676C2.16406 2.011 2.22991 1.85203 2.34712 1.73482C2.46433 1.61761 2.6233 1.55176 2.78906 1.55176H5.37444C5.5402 1.55176 5.69917 1.61761 5.81638 1.73482C5.93359 1.85203 5.99944 2.011 5.99944 2.17676C5.99944 2.34252 5.93359 2.50149 5.81638 2.6187C5.69917 2.73591 5.5402 2.80176 5.37444 2.80176Z" fill="#414042"/>
</svg>
