<svg width="48" height="48" viewBox="0 0 48 48" fill="none" xmlns="http://www.w3.org/2000/svg">
<path d="M37.75 11H10.25C9.78603 11.0005 9.34121 11.1851 9.01313 11.5131C8.68505 11.8412 8.50051 12.286 8.5 12.75V31.25C8.50051 31.714 8.68505 32.1588 9.01313 32.4869C9.34121 32.8149 9.78603 32.9995 10.25 33H20.39L20.09 34.5H18C17.8674 34.5 17.7402 34.5527 17.6464 34.6464C17.5527 34.7402 17.5 34.8674 17.5 35V36.5C17.5 36.6326 17.5527 36.7598 17.6464 36.8536C17.7402 36.9473 17.8674 37 18 37H30C30.1326 37 30.2598 36.9473 30.3536 36.8536C30.4473 36.7598 30.5 36.6326 30.5 36.5V35C30.5 34.8674 30.4473 34.7402 30.3536 34.6464C30.2598 34.5527 30.1326 34.5 30 34.5H27.91L27.61 33H37.75C38.214 32.9995 38.6588 32.8149 38.9869 32.4869C39.3149 32.1588 39.4995 31.714 39.5 31.25V12.75C39.4995 12.286 39.3149 11.8412 38.9869 11.5131C38.6588 11.1851 38.214 11.0005 37.75 11ZM29.5 35.5V36H18.5V35.5H29.5ZM21.11 34.5L21.41 33H26.59L26.89 34.5H21.11ZM38.5 31.25C38.4998 31.4489 38.4208 31.6395 38.2801 31.7801C38.1395 31.9208 37.9489 31.9998 37.75 32H10.25C10.0511 31.9998 9.86047 31.9208 9.71985 31.7801C9.57924 31.6395 9.50017 31.4489 9.5 31.25V30H38.5V31.25ZM38.5 29H9.5V12.75C9.50017 12.5511 9.57924 12.3605 9.71985 12.2199C9.86047 12.0792 10.0511 12.0002 10.25 12H37.75C37.9489 12.0002 38.1395 12.0792 38.2801 12.2199C38.4208 12.3605 38.4998 12.5511 38.5 12.75V29Z" fill="#323945"/>
<path d="M24.5 30.5H23.5C23.3674 30.5 23.2402 30.5527 23.1464 30.6464C23.0527 30.7402 23 30.8674 23 31C23 31.1326 23.0527 31.2598 23.1464 31.3536C23.2402 31.4473 23.3674 31.5 23.5 31.5H24.5C24.6326 31.5 24.7598 31.4473 24.8536 31.3536C24.9473 31.2598 25 31.1326 25 31C25 30.8674 24.9473 30.7402 24.8536 30.6464C24.7598 30.5527 24.6326 30.5 24.5 30.5Z" fill="#323945"/>
</svg>
