<svg width="32" height="32" viewBox="0 0 32 32" fill="none" xmlns="http://www.w3.org/2000/svg">
<path d="M21.4296 20.2554C21.3146 20.1004 21.1896 19.9504 21.0646 19.8004C20.6141 19.1706 20.0028 18.6733 19.2946 18.3604H19.2896C19.3072 19.0031 19.4115 19.6405 19.5996 20.2554C19.7915 20.8244 19.7827 21.442 19.5746 22.0054C19.3996 22.4753 19.1996 22.9704 18.9896 23.4904C18.9896 23.4917 18.9891 23.4929 18.9881 23.4939C18.9872 23.4948 18.9859 23.4954 18.9846 23.4954C17.9096 26.1104 15.3396 31.3754 15.3396 31.3754C15.4146 31.3754 15.9146 31.3404 16.0946 31.3304C21.2946 30.9304 26.8046 29.2954 26.8046 27.3454C26.7996 24.8254 24.2746 21.8953 21.4296 20.2554ZM9.91461 21.7554C9.79093 21.9066 9.67894 22.0671 9.57961 22.2354C7.41461 23.3354 5.46461 25.4004 4.80461 26.8704C4.41961 27.7254 4.38961 28.7204 5.14461 29.2804C5.92461 29.8554 7.51961 30.7654 10.3846 31.1904C10.6246 31.2254 10.8746 31.2554 11.1346 31.2854C10.4496 27.5554 10.6796 24.9804 11.4346 23.4954V23.4904C11.5499 23.2571 11.6907 23.0374 11.8546 22.8354C12.3396 22.2454 12.4981 20.0519 12.3731 19.6269C11.4507 20.208 10.6218 20.9257 9.91461 21.7554Z" fill="#1C9699"/>
<path d="M22.8834 12.8048C23.0602 11.4411 22.9359 10.0553 22.5194 8.74481C21.8539 6.67231 20.5834 3.29131 16.2034 2.54131C13.3104 2.04581 9.61342 2.79131 8.43592 5.24981C7.83042 6.51381 7.43592 8.11431 7.87342 8.79981C7.66842 10.0948 7.99842 11.1898 8.00342 12.3998C8.00842 15.1398 8.56342 17.2298 9.64342 18.4248C10.3665 19.1594 11.3377 19.5976 12.3669 19.6538C12.4919 20.0788 12.3384 22.2448 11.8534 22.8348C11.6896 23.0369 11.5487 23.2566 11.4334 23.4898V23.4948C11.0934 25.7248 17.5834 25.6048 18.9834 23.4948C18.9847 23.4948 18.986 23.4943 18.987 23.4933C18.9879 23.4924 18.9884 23.4911 18.9884 23.4898C19.1984 22.9698 19.3984 22.4748 19.5734 22.0048C19.7815 21.4415 19.7903 20.8239 19.5984 20.2548C19.4103 19.64 19.306 19.0025 19.2884 18.3598C19.2709 17.8798 19.2776 17.3992 19.3084 16.9198V16.9148C19.6823 16.4698 19.9674 15.9572 20.1484 15.4048C20.3371 15.5738 20.5634 15.6955 20.8084 15.7598C21.8184 15.9798 22.6634 15.0298 22.8884 14.0198C22.9793 13.6197 22.9776 13.2041 22.8834 12.8048Z" fill="#FFBF94"/>
<path d="M23.546 5.75024C24.546 7.89524 23.606 8.98524 22.956 8.97524C23.471 10.0702 23.556 11.7502 22.886 12.8052C22.836 12.5208 22.7045 12.2569 22.5075 12.0457C22.3104 11.8344 22.0563 11.6849 21.776 11.6152C21.5333 11.5766 21.2852 11.5901 21.0482 11.6548C20.8111 11.7194 20.5905 11.8338 20.401 11.9902C20.2119 12.1504 20.0513 12.3414 19.926 12.5552C17.581 12.6452 18.606 8.48524 18.606 8.48524C15.981 8.22024 16.336 6.75524 16.336 5.75524C14.696 6.77024 12.711 6.57024 12.836 5.46524C10.956 7.23024 9.30101 7.04524 9.01601 6.29024H9.01101C8.36704 6.97939 7.96814 7.86156 7.87601 8.80024C5.40101 7.80024 6.21101 5.50024 7.44101 4.89524C7.44101 4.89524 6.36101 4.39524 7.37601 3.34024C8.39601 2.27524 10.431 2.26024 10.431 2.26024C10.431 2.26024 9.90101 2.19524 10.236 1.59024C10.551 1.03024 12.321 0.795243 14.701 0.810243C16.566 0.820243 18.921 1.89524 19.071 1.96024C19.021 1.89024 18.556 1.24024 18.966 0.950243C19.651 0.465243 19.926 1.95024 19.926 1.95024C19.926 1.95024 21.301 1.47024 21.371 2.26024C21.441 3.01024 20.661 2.77524 20.576 2.75024C21.8566 3.41342 22.8957 4.46308 23.546 5.75024Z" fill="#934747"/>
<path d="M18.9846 23.4954C17.9096 26.1104 15.5936 31.3654 15.5936 31.3654C15.4936 31.3704 14.9046 31.3954 14.8396 31.3954C13.6035 31.449 12.3652 31.4123 11.1346 31.2854C10.4496 27.5554 10.6796 24.9804 11.4346 23.4954C11.0946 25.7254 17.5846 25.6054 18.9846 23.4954Z" fill="#EDEAE8"/>
<path d="M11.4364 23.4954C10.6814 24.9804 10.4514 27.5554 11.1364 31.2854C10.8764 31.2554 10.6264 31.2254 10.3864 31.1904C9.36141 29.3404 8.76141 25.4504 8.93641 23.9404C9.01874 23.3303 9.23935 22.7471 9.58141 22.2354C9.68075 22.0671 9.79274 21.9066 9.91641 21.7554C10.6236 20.9257 11.4525 20.208 12.3749 19.6269C12.4999 20.0519 12.3414 22.2454 11.8564 22.8354C11.6926 23.0374 11.5517 23.2571 11.4364 23.4904V23.4954ZM22.2364 22.1554C22.0314 23.6504 19.4664 27.6904 16.0964 31.3304C15.8844 31.3544 15.4164 31.3754 15.3414 31.3754C15.3414 31.3754 17.9114 26.1104 18.9864 23.4954C18.9877 23.4954 18.989 23.4948 18.9899 23.4939C18.9909 23.4929 18.9914 23.4917 18.9914 23.4904C19.2014 22.9704 19.4014 22.4753 19.5764 22.0054C19.7845 21.442 19.7933 20.8244 19.6014 20.2554C19.4133 19.6405 19.309 19.0031 19.2914 18.3604H19.2964C20.0046 18.6733 20.6159 19.1706 21.0664 19.8004C21.1914 19.9504 21.3164 20.1004 21.4314 20.2554C21.9414 20.9454 22.3064 21.6604 22.2364 22.1554Z" fill="#32B7B3"/>
<path d="M17.8823 18.1358C18.0323 18.0358 18.3648 17.7953 18.4698 17.7153C18.7811 17.4836 19.0632 17.215 19.3098 16.9153C19.2789 17.3963 19.2722 17.8786 19.2898 18.3603C19.3073 19.003 19.4116 19.6404 19.5998 20.2553C19.7917 20.8243 19.7828 21.4419 19.5748 22.0053C19.3998 22.4753 19.1998 22.9703 18.9898 23.4903C18.9898 23.4916 18.9892 23.4929 18.9883 23.4938C18.9874 23.4948 18.9861 23.4953 18.9848 23.4953C17.5848 25.6053 11.0948 25.7253 11.4348 23.4953V23.4903C11.55 23.2571 11.6909 23.0374 11.8548 22.8353C12.3398 22.2453 12.4933 20.0793 12.3683 19.6543C12.6962 19.6724 13.0248 19.6724 13.3528 19.6543C14.0236 19.6267 14.6889 19.52 15.3348 19.3363C16.2393 19.0662 17.0981 18.6615 17.8823 18.1358Z" fill="#FFA87D"/>
<path d="M12.3535 16.2342C12.2615 16.2342 12.169 16.2297 12.0745 16.2207C11.8491 16.2187 11.6266 16.17 11.4209 16.0778C11.2152 15.9855 11.0309 15.8517 10.8795 15.6847C10.861 15.6576 10.848 15.6271 10.8412 15.595C10.8345 15.5628 10.8342 15.5297 10.8403 15.4974C10.8463 15.4651 10.8587 15.4344 10.8767 15.4069C10.8947 15.3794 10.9179 15.3557 10.945 15.3372C10.9998 15.2998 11.0671 15.2857 11.1323 15.298C11.1646 15.3041 11.1953 15.3165 11.2228 15.3344C11.2503 15.3524 11.274 15.3756 11.2925 15.4027C11.5188 15.6094 11.8145 15.7236 12.121 15.7227C12.3491 15.7584 12.5822 15.747 12.8058 15.6892C13.0293 15.6315 13.2387 15.5285 13.421 15.3867C13.4681 15.3412 13.5313 15.316 13.5968 15.3166C13.6624 15.3171 13.7251 15.3434 13.7714 15.3898C13.8178 15.4361 13.8441 15.4988 13.8447 15.5644C13.8452 15.6299 13.82 15.6931 13.7745 15.7402C13.3827 16.0828 12.8733 16.2599 12.3535 16.2342ZM11.948 14.3502C11.6556 14.3515 11.3745 14.2376 11.1655 14.0332C11.0715 13.9436 11.0074 13.8273 10.9819 13.7C10.9565 13.5727 10.9708 13.4406 11.023 13.3217C11.0354 13.2904 11.0541 13.2619 11.0779 13.238C11.1016 13.214 11.13 13.1951 11.1612 13.1824C11.1924 13.1698 11.2259 13.1635 11.2597 13.1641C11.2934 13.1647 11.3266 13.1721 11.3574 13.1859C11.3882 13.1996 11.4159 13.2195 11.4388 13.2442C11.4617 13.269 11.4793 13.2981 11.4907 13.3299C11.5021 13.3616 11.5069 13.3953 11.5049 13.429C11.5028 13.4626 11.494 13.4956 11.479 13.5257C11.469 13.5487 11.445 13.6022 11.5265 13.6872C11.6098 13.7633 11.7123 13.815 11.8229 13.8369C11.9335 13.8587 12.048 13.8499 12.154 13.8112C12.2156 13.7868 12.2845 13.7878 12.3454 13.8141C12.4063 13.8404 12.4543 13.8898 12.4787 13.9515C12.5032 14.0131 12.5022 14.082 12.4759 14.1429C12.4496 14.2038 12.4001 14.2518 12.3385 14.2762C12.2141 14.3252 12.0816 14.3503 11.948 14.3502Z" fill="#F77261"/>
<path d="M8.1485 9.68573C8.1032 9.68602 8.05872 9.67373 8.02 9.65023C7.99183 9.63336 7.96725 9.6111 7.94768 9.58473C7.92811 9.55836 7.91393 9.52839 7.90594 9.49654C7.89796 9.46469 7.89632 9.43158 7.90114 9.39909C7.90595 9.36661 7.91712 9.33539 7.934 9.30723C8.11613 9.0573 8.38898 8.88873 8.694 8.83773C9.26964 8.69751 9.87715 8.78379 10.391 9.07873C10.4472 9.11393 10.4872 9.17004 10.502 9.23469C10.5169 9.29934 10.5055 9.36725 10.4702 9.42348C10.435 9.4797 10.3789 9.51964 10.3143 9.5345C10.2496 9.54936 10.1817 9.53793 10.1255 9.50273C9.72536 9.28009 9.2561 9.21619 8.811 9.32373C8.63694 9.34711 8.47716 9.43251 8.361 9.56423C8.33897 9.601 8.30785 9.63149 8.27064 9.65276C8.23342 9.67404 8.19136 9.68539 8.1485 9.68573ZM15.9535 9.58073C15.9131 9.58068 15.8732 9.57084 15.8375 9.55203C15.8017 9.53322 15.771 9.506 15.748 9.47273C15.5658 9.35015 15.3525 9.28183 15.133 9.27573C14.6352 9.17934 14.1197 9.24269 13.66 9.45673C13.6349 9.47794 13.6059 9.494 13.5746 9.50399C13.5433 9.51399 13.5104 9.51772 13.4776 9.51498C13.4449 9.51224 13.413 9.50308 13.3838 9.48803C13.3546 9.47297 13.3287 9.45231 13.3075 9.42723C13.2863 9.40214 13.2702 9.37313 13.2602 9.34184C13.2502 9.31055 13.2465 9.2776 13.2492 9.24487C13.252 9.21213 13.2611 9.18026 13.2762 9.15107C13.2913 9.12188 13.3119 9.09594 13.337 9.07473C13.717 8.75323 14.5695 8.69773 15.198 8.78023C15.5579 8.79232 15.9005 8.93794 16.159 9.18873C16.178 9.21581 16.1915 9.24639 16.1986 9.27871C16.2057 9.31103 16.2063 9.34444 16.2004 9.37699C16.1945 9.40955 16.1821 9.44061 16.1641 9.46837C16.1461 9.49614 16.1228 9.52005 16.0955 9.53873C16.0536 9.56707 16.004 9.58174 15.9535 9.58073Z" fill="#934747"/>
<path d="M20.8363 13.8702C20.8181 13.87 20.8 13.8682 20.7823 13.8647C20.75 13.8576 20.7195 13.8442 20.6924 13.8252C20.6654 13.8063 20.6424 13.7822 20.6247 13.7543C20.6071 13.7264 20.5951 13.6953 20.5895 13.6627C20.584 13.6302 20.5849 13.5968 20.5923 13.5647C20.6618 13.3141 20.8178 13.0963 21.0326 12.9499C21.2474 12.8035 21.5072 12.7378 21.7658 12.7647C21.7984 12.7686 21.8299 12.7789 21.8585 12.7949C21.8871 12.811 21.9123 12.8326 21.9326 12.8584C21.9529 12.8842 21.9679 12.9138 21.9767 12.9454C21.9856 12.977 21.9882 13.0101 21.9843 13.0427C21.9809 13.0755 21.971 13.1073 21.9551 13.1362C21.9392 13.1651 21.9176 13.1905 21.8917 13.2109C21.8657 13.2312 21.8359 13.2461 21.804 13.2547C21.7722 13.2632 21.7389 13.2653 21.7063 13.2607C21.5711 13.2502 21.4363 13.2849 21.3231 13.3592C21.2098 13.4336 21.1244 13.5435 21.0803 13.6717C21.0685 13.7277 21.0378 13.778 20.9934 13.8141C20.949 13.8502 20.8935 13.87 20.8363 13.8702Z" fill="#F77261"/>
<path d="M15.8477 11.45V11.755C15.855 11.8313 15.8462 11.9083 15.822 11.981C15.7978 12.0538 15.7587 12.1206 15.7072 12.1773C15.6556 12.2341 15.5928 12.2794 15.5227 12.3104C15.4526 12.3414 15.3768 12.3574 15.3002 12.3574C15.2235 12.3574 15.1477 12.3414 15.0776 12.3104C15.0075 12.2794 14.9447 12.2341 14.8931 12.1773C14.8416 12.1206 14.8025 12.0538 14.7783 11.981C14.7541 11.9083 14.7454 11.8313 14.7527 11.755V11.45C14.7454 11.3737 14.7541 11.2968 14.7783 11.224C14.8025 11.1513 14.8416 11.0844 14.8931 11.0277C14.9447 10.971 15.0075 10.9257 15.0776 10.8947C15.1477 10.8637 15.2235 10.8477 15.3002 10.8477C15.3768 10.8477 15.4526 10.8637 15.5227 10.8947C15.5928 10.9257 15.6556 10.971 15.7072 11.0277C15.7587 11.0844 15.7978 11.1513 15.822 11.224C15.8462 11.2968 15.855 11.3737 15.8477 11.45ZM10.2577 11.455V11.76C10.265 11.8363 10.2562 11.9133 10.232 11.986C10.2078 12.0588 10.1687 12.1256 10.1172 12.1823C10.0656 12.2391 10.0028 12.2844 9.93269 12.3154C9.8626 12.3464 9.7868 12.3624 9.71016 12.3624C9.63351 12.3624 9.55771 12.3464 9.48762 12.3154C9.41753 12.2844 9.3547 12.2391 9.30315 12.1823C9.2516 12.1256 9.21247 12.0588 9.18828 11.986C9.16408 11.9133 9.15536 11.8363 9.16266 11.76V11.455C9.15536 11.3787 9.16408 11.3018 9.18828 11.229C9.21247 11.1563 9.2516 11.0894 9.30315 11.0327C9.3547 10.976 9.41753 10.9307 9.48762 10.8997C9.55771 10.8687 9.63351 10.8527 9.71016 10.8527C9.7868 10.8527 9.8626 10.8687 9.93269 10.8997C10.0028 10.9307 10.0656 10.976 10.1172 11.0327C10.1687 11.0894 10.2078 11.1563 10.232 11.229C10.2562 11.3018 10.265 11.3787 10.2577 11.455Z" fill="#B27757"/>
<path d="M8.40237 11.4778C8.33464 11.4754 8.27053 11.4466 8.22379 11.3976C8.17705 11.3485 8.15141 11.283 8.15237 11.2153C8.15237 10.9888 8.34687 10.7653 8.68687 10.6023C8.95691 10.4609 9.26039 10.3957 9.56468 10.4139C9.86896 10.432 10.1625 10.5328 10.4139 10.7053C10.4651 10.747 10.4978 10.8073 10.5047 10.873C10.5116 10.9387 10.4922 11.0045 10.4508 11.0559C10.4094 11.1074 10.3493 11.1404 10.2836 11.1477C10.2179 11.1549 10.1521 11.1359 10.1004 11.0948C9.96744 11.0054 9.81645 10.9464 9.65814 10.9219C9.49983 10.8975 9.33808 10.9082 9.18437 10.9533C8.9788 10.9871 8.79028 11.0883 8.64837 11.2408C8.64832 11.2727 8.64186 11.3042 8.62937 11.3335C8.61687 11.3628 8.59861 11.3894 8.57565 11.4115C8.5527 11.4336 8.52552 11.4509 8.49575 11.4623C8.46598 11.4736 8.43422 11.4789 8.40237 11.4778ZM13.9994 11.4728C13.9317 11.4703 13.8676 11.4415 13.8209 11.3924C13.7742 11.3434 13.7485 11.278 13.7494 11.2103C13.7494 10.9833 13.9444 10.7603 14.2844 10.5963C14.5532 10.4539 14.8561 10.3882 15.1597 10.4066C15.4634 10.4249 15.7561 10.5265 16.0059 10.7003C16.0553 10.7425 16.0863 10.8022 16.0924 10.8669C16.0985 10.9315 16.0792 10.996 16.0386 11.0467C15.998 11.0974 15.9393 11.1303 15.8748 11.1384C15.8104 11.1466 15.7453 11.1293 15.6934 11.0903C15.5607 11.0008 15.4099 10.9416 15.2517 10.9171C15.0936 10.8925 14.9319 10.9032 14.7784 10.9483C14.5738 10.9825 14.3863 11.0836 14.2454 11.2358C14.2453 11.2677 14.2389 11.2992 14.2264 11.3285C14.2139 11.3578 14.1956 11.3844 14.1726 11.4065C14.1497 11.4286 14.1225 11.4459 14.0928 11.4573C14.063 11.4686 14.0312 11.4739 13.9994 11.4728Z" fill="#7F3C3C"/>
</svg>
