<svg width="48" height="48" viewBox="0 0 48 48" fill="none" xmlns="http://www.w3.org/2000/svg">
<path d="M23.9984 12.3628C22.3933 12.3628 21.0879 13.6682 21.0879 15.2733C21.0879 16.8785 22.3933 18.1838 23.9984 18.1838C25.6036 18.1838 26.9089 16.8784 26.9089 15.2733C26.9089 13.6683 25.6035 12.3628 23.9984 12.3628ZM23.9984 16.7293C23.1959 16.7293 22.5425 16.0759 22.5425 15.2733C22.5425 14.4708 23.1959 13.8174 23.9984 13.8174C24.801 13.8174 25.4544 14.4708 25.4544 15.2733C25.4544 16.0759 24.801 16.7293 23.9984 16.7293Z" fill="#404A59"/>
<path d="M39.2728 21.0914C39.6748 21.0914 40.0001 20.7681 40.0001 20.3661V17.4574C40.0001 17.201 39.8651 16.9631 39.6442 16.8324L25.4176 8.38372C25.4112 8.37943 25.4048 8.37588 25.3984 8.37234C24.5142 7.88231 23.517 7.86745 22.5816 8.38229L8.35584 16.8324C8.24736 16.8967 8.15749 16.9881 8.09509 17.0977C8.0327 17.2073 7.99992 17.3313 8 17.4574V20.3661C8 20.7681 8.3253 21.0914 8.7273 21.0914H10.9091V34.1829C9.30466 34.1829 8 35.4874 8 37.0917V39.2733C7.99995 39.3688 8.01872 39.4634 8.05525 39.5517C8.09179 39.6399 8.14536 39.7201 8.2129 39.7877C8.28045 39.8552 8.36065 39.9088 8.44891 39.9453C8.53718 39.9818 8.63177 40.0006 8.7273 40.0005H39.2728C39.3683 40.0006 39.4629 39.9818 39.5512 39.9453C39.6394 39.9088 39.7196 39.8552 39.7872 39.7877C39.8547 39.7201 39.9083 39.6399 39.9448 39.5517C39.9813 39.4634 40.0001 39.3688 40.0001 39.2733V37.0917C40.0001 35.4874 38.6954 34.1829 37.091 34.1829V21.0914H39.2728ZM38.5455 37.0914V38.5459H9.45452V37.0914C9.45452 36.2896 10.1072 35.6369 10.909 35.6369H37.091C37.8928 35.6368 38.5455 36.2895 38.5455 37.0914ZM12.3636 34.1823V21.0914H15.2728V34.1823H12.3636ZM16.7273 34.1823V21.0914H21.0909V34.1823H16.7273ZM22.5454 34.1823V21.0914H25.4546V34.1823H22.5454ZM26.9091 34.1823V21.0914H31.2727V34.1823H26.9091ZM32.7273 34.1823V21.0914H35.6364V34.1823H32.7273ZM9.45452 19.6369V17.8691L23.3033 9.64182C23.7564 9.39254 24.2379 9.39322 24.6854 9.63684L38.5455 17.8691V19.6369H9.45452Z" fill="#404A59"/>
</svg>
