<svg width="56" height="42" viewBox="0 0 56 42" fill="none" xmlns="http://www.w3.org/2000/svg">
<path d="M33.3595 8.31885V13.9488C33.3588 14.9807 33.0488 15.9886 32.4695 16.8425C31.8901 17.6964 31.0681 18.3569 30.1095 18.7388L27.7095 19.6988C27.4497 19.8027 27.2269 19.9821 27.07 20.2138C26.913 20.4455 26.8292 20.719 26.8292 20.9988C26.8292 21.2787 26.913 21.5522 27.07 21.7839C27.2269 22.0156 27.4497 22.195 27.7095 22.2988C27.9175 22.3938 30.3045 23.3228 30.4395 23.3988C29.5439 23.8688 28.7708 24.5421 28.1823 25.3648C27.5938 26.1874 27.2062 27.1365 27.0507 28.1359C26.8951 29.1353 26.9759 30.1573 27.2866 31.1199C27.5972 32.0825 28.1291 32.9589 28.8395 33.6788H17.5195V28.0488C17.5202 27.017 17.8303 26.0091 18.4096 25.1552C18.989 24.3013 19.811 23.6408 20.7695 23.2588L23.1795 22.2988C23.4391 22.196 23.6617 22.0175 23.8185 21.7866C23.9754 21.5557 24.0593 21.283 24.0593 21.0038C24.0593 20.7247 23.9754 20.452 23.8185 20.2211C23.6617 19.9902 23.4391 19.8117 23.1795 19.7088L20.7695 18.7388C19.8098 18.3586 18.9866 17.6985 18.407 16.8442C17.8274 15.99 17.5182 14.9812 17.5195 13.9488V8.31885H33.3595Z" fill="#E9EFFF"/>
<path d="M18.9414 11.8628V13.9508C18.9383 14.6994 19.1612 15.4316 19.5811 16.0514C20.0009 16.6713 20.5981 17.1499 21.2944 17.4248L25.4324 19.0758L29.5904 17.4158C30.2865 17.1405 30.8834 16.6617 31.3031 16.042C31.7229 15.4222 31.946 14.6903 31.9434 13.9418V11.8628H18.9414ZM27.7724 32.2588H19.4624C19.3862 31.515 19.5486 30.7662 19.9261 30.1208C20.3037 29.4754 20.8767 28.9669 21.5624 28.6688L25.4424 27.0188L27.0924 27.7188C26.7535 29.2643 26.9956 30.8804 27.7724 32.2588Z" fill="#FD995B"/>
<path d="M25.4295 19.5758C25.3662 19.5758 25.3035 19.5639 25.2445 19.5408L21.1065 17.8898C20.3167 17.5784 19.6393 17.0358 19.1631 16.3329C18.6869 15.6301 18.434 14.7998 18.4375 13.9508V11.8628C18.4375 11.7302 18.4902 11.603 18.584 11.5092C18.6778 11.4155 18.8049 11.3628 18.9375 11.3628H31.9405C32.0731 11.3628 32.2003 11.4155 32.2941 11.5092C32.3879 11.603 32.4405 11.7302 32.4405 11.8628V13.9408C32.4433 14.7893 32.1902 15.619 31.7142 16.3215C31.2383 17.024 30.5616 17.5667 29.7725 17.8788L25.6155 19.5398C25.5568 19.5637 25.493 19.5759 25.4295 19.5758ZM19.4385 12.3628V13.9508C19.4358 14.5993 19.6291 15.2336 19.9929 15.7705C20.3567 16.3074 20.8742 16.7219 21.4775 16.9598L25.4315 18.5378L29.4015 16.9508C30.0046 16.7121 30.5218 16.2973 30.8857 15.7604C31.2496 15.2235 31.4433 14.5894 31.4415 13.9408V12.3628H19.4385Z" fill="black"/>
<path d="M28.8396 34.1788H17.5196C17.387 34.1788 17.2598 34.1261 17.166 34.0324C17.0723 33.9386 17.0196 33.8114 17.0196 33.6788V28.0488C17.016 26.916 17.3544 25.8085 17.9904 24.8711C18.6265 23.9337 19.5306 23.2101 20.5846 22.7948L22.9946 21.8348C23.1589 21.7671 23.2995 21.6521 23.3984 21.5044C23.4973 21.3567 23.5502 21.1829 23.5503 21.0052C23.5504 20.8274 23.4978 20.6536 23.399 20.5058C23.3003 20.358 23.1599 20.2428 22.9956 20.1748L20.5826 19.2028C19.5282 18.7887 18.6237 18.0655 17.9878 17.128C17.3519 16.1905 17.0144 15.0826 17.0196 13.9498V8.31982C17.0196 8.18722 17.0723 8.06004 17.166 7.96627C17.2598 7.8725 17.387 7.81982 17.5196 7.81982H33.3596C33.4922 7.81982 33.6194 7.8725 33.7131 7.96627C33.8069 8.06004 33.8596 8.18722 33.8596 8.31982V13.9498C33.8634 15.0828 33.525 16.1905 32.8887 17.128C32.2524 18.0655 31.3479 18.789 30.2936 19.2038L27.8956 20.1638C27.7309 20.2327 27.5902 20.3486 27.4912 20.4972C27.3921 20.6457 27.3392 20.8201 27.339 20.9987C27.3388 21.1772 27.3913 21.3518 27.49 21.5005C27.5886 21.6493 27.7291 21.7656 27.8936 21.8348L30.2946 22.7948C30.8316 22.9188 31.2496 23.4498 30.6646 23.8448C29.8354 24.2754 29.1193 24.8952 28.5742 25.654C28.0292 26.4128 27.6704 27.2892 27.5271 28.2125C27.3837 29.1357 27.4598 30.0797 27.7492 30.968C28.0385 31.8564 28.533 32.6641 29.1926 33.3258C29.2612 33.3962 29.3077 33.4852 29.3263 33.5818C29.3449 33.6783 29.3348 33.7782 29.2972 33.869C29.2596 33.9599 29.1963 34.0377 29.115 34.093C29.0336 34.1482 28.9379 34.1774 28.8396 34.1788ZM18.0196 33.1788H27.7626C26.6896 31.684 26.2522 29.8251 26.546 28.0087C26.8398 26.1923 27.841 24.5661 29.3306 23.4858L27.5236 22.7638C27.1755 22.6183 26.8782 22.3731 26.6692 22.059C26.4602 21.7449 26.3488 21.3759 26.349 20.9987C26.3492 20.6214 26.461 20.2526 26.6704 19.9387C26.8798 19.6248 27.1773 19.3799 27.5256 19.2348L29.9236 18.2748C30.7915 17.9333 31.5361 17.3378 32.06 16.5661C32.5839 15.7944 32.8625 14.8825 32.8596 13.9498V8.81982H18.0196V13.9498C18.0154 14.8824 18.2934 15.7944 18.8171 16.5661C19.3407 17.3378 20.0855 17.9331 20.9536 18.2738L23.3666 19.2458C23.719 19.384 24.0214 19.6254 24.2343 19.9384C24.4471 20.2513 24.5605 20.6213 24.5596 20.9998C24.5583 21.3796 24.4438 21.7503 24.2308 22.0647C24.0177 22.3791 23.7158 22.6229 23.3636 22.7648L20.9546 23.7248C20.087 24.0664 19.3427 24.6619 18.8191 25.4334C18.2954 26.2049 18.0168 27.1164 18.0196 28.0488V33.1788Z" fill="black"/>
<path d="M27.7721 32.7592H19.4621C19.3295 32.7592 19.2023 32.7065 19.1086 32.6127C19.0148 32.519 18.9621 32.3918 18.9621 32.2592C18.8848 31.417 19.0757 30.572 19.5074 29.8448C19.9392 29.1176 20.5897 28.5455 21.3661 28.2102L25.2461 26.5602C25.4981 26.3632 26.7391 27.0752 27.2871 27.2602C27.3946 27.3058 27.4827 27.3875 27.5362 27.4912C27.5897 27.595 27.6053 27.7142 27.5801 27.8282C27.2643 29.2527 27.4877 30.7437 28.2071 32.0132C28.2491 32.0894 28.2706 32.1753 28.2695 32.2623C28.2685 32.3493 28.2449 32.4346 28.2011 32.5098C28.1573 32.5851 28.0948 32.6477 28.0196 32.6915C27.9444 32.7354 27.8592 32.758 27.7721 32.7592ZM19.9621 31.7592H26.9711C26.4818 30.5782 26.3278 29.2851 26.5261 28.0222L25.4421 27.5622L21.7581 29.1302C21.2376 29.3494 20.7914 29.7141 20.473 30.1806C20.1546 30.6471 19.9775 31.1956 19.9631 31.7602L19.9621 31.7592ZM25.4321 21.5002C25.2995 21.5002 25.1723 21.4475 25.0786 21.3537C24.9848 21.26 24.9321 21.1328 24.9321 21.0002V19.0762C24.9321 18.9436 24.9848 18.8164 25.0786 18.7226C25.1723 18.6289 25.2995 18.5762 25.4321 18.5762C25.5647 18.5762 25.6919 18.6289 25.7857 18.7226C25.8794 18.8164 25.9321 18.9436 25.9321 19.0762V21.0002C25.9321 21.1328 25.8794 21.26 25.7857 21.3537C25.6919 21.4475 25.5647 21.5002 25.4321 21.5002ZM25.4321 24.8872C25.2995 24.8872 25.1723 24.8345 25.0786 24.7407C24.9848 24.647 24.9321 24.5198 24.9321 24.3872V22.4562C24.9321 22.3236 24.9848 22.1964 25.0786 22.1026C25.1723 22.0089 25.2995 21.9562 25.4321 21.9562C25.5647 21.9562 25.6919 22.0089 25.7857 22.1026C25.8794 22.1964 25.9321 22.3236 25.9321 22.4562V24.3862C25.9321 24.5188 25.8794 24.646 25.7857 24.7397C25.6919 24.8335 25.5647 24.8862 25.4321 24.8862V24.8872Z" fill="black"/>
<path d="M25.4421 27.5161C24.7591 27.5061 24.9731 26.6141 24.9421 26.1831C24.9421 26.0505 24.9948 25.9233 25.0886 25.8296C25.1823 25.7358 25.3095 25.6831 25.4421 25.6831C26.1251 25.6921 25.9111 26.5851 25.9421 27.0161C25.9421 27.1487 25.8894 27.2759 25.7957 27.3697C25.7019 27.4634 25.5747 27.5161 25.4421 27.5161Z" fill="black"/>
<path d="M28.8409 33.679C30.0425 34.8721 31.6676 35.5409 33.3609 35.539H17.1409C16.8943 35.539 16.6577 35.441 16.4833 35.2666C16.3089 35.0922 16.2109 34.8557 16.2109 34.609C16.2109 34.3624 16.3089 34.1258 16.4833 33.9514C16.6577 33.777 16.8943 33.679 17.1409 33.679H28.8409ZM33.7369 8.31701H17.1449C16.9037 8.30909 16.675 8.2077 16.5071 8.03425C16.3393 7.8608 16.2454 7.62888 16.2454 7.38751C16.2454 7.14614 16.3393 6.91422 16.5071 6.74077C16.675 6.56732 16.9037 6.46592 17.1449 6.45801H33.7369C33.9836 6.45801 34.2201 6.55599 34.3945 6.7304C34.569 6.90481 34.6669 7.14136 34.6669 7.38801C34.6669 7.63466 34.569 7.87121 34.3945 8.04562C34.2201 8.22003 33.9836 8.31701 33.7369 8.31701Z" fill="#3C58A0"/>
<path d="M33.3609 36.0402H17.1409C16.7617 36.0402 16.398 35.8895 16.1298 35.6213C15.8616 35.3532 15.7109 34.9894 15.7109 34.6102C15.7109 34.2309 15.8616 33.8672 16.1298 33.599C16.398 33.3308 16.7617 33.1802 17.1409 33.1802H28.8409C28.9727 33.1799 29.0992 33.2317 29.1929 33.3242C29.7407 33.8702 30.3908 34.3028 31.106 34.5973C31.8212 34.8917 32.5875 35.0422 33.3609 35.0402C33.4935 35.0402 33.6207 35.0929 33.7145 35.1866C33.8083 35.2804 33.8609 35.4076 33.8609 35.5402C33.8609 35.6728 33.8083 35.8 33.7145 35.8937C33.6207 35.9875 33.4935 36.0402 33.3609 36.0402ZM17.1409 34.1802C17.0269 34.1802 16.9175 34.2255 16.8369 34.3061C16.7562 34.3868 16.7109 34.4961 16.7109 34.6102C16.7109 34.7242 16.7562 34.8336 16.8369 34.9142C16.9175 34.9949 17.0269 35.0402 17.1409 35.0402H29.7719C29.3659 34.7929 28.9863 34.5048 28.6389 34.1802H17.1409Z" fill="black"/>
<path d="M33.7421 36.04H33.3621C33.2295 36.04 33.1023 35.9873 33.0085 35.8936C32.9148 35.7998 32.8621 35.6726 32.8621 35.54C32.8621 35.4074 32.9148 35.2802 33.0085 35.1865C33.1023 35.0927 33.2295 35.04 33.3621 35.04C33.7701 35.05 34.3381 34.848 34.4771 35.377C34.5881 35.823 34.1371 36.065 33.7421 36.04ZM33.7381 8.81701H17.1461C16.7735 8.80715 16.4195 8.65222 16.1595 8.38521C15.8994 8.1182 15.7539 7.76022 15.7539 7.38751C15.7539 7.0148 15.8994 6.65681 16.1595 6.3898C16.4195 6.12279 16.7735 5.96786 17.1461 5.95801H33.7381C34.1174 5.95801 34.4811 6.10867 34.7493 6.37685C35.0174 6.64502 35.1681 7.00875 35.1681 7.38801C35.1681 7.76727 35.0174 8.13099 34.7493 8.39917C34.4811 8.66735 34.1174 8.81701 33.7381 8.81701ZM17.1461 6.95901C17.0321 6.95901 16.9227 7.00431 16.842 7.08495C16.7614 7.16559 16.7161 7.27496 16.7161 7.38901C16.7161 7.50305 16.7614 7.61242 16.842 7.69306C16.9227 7.7737 17.0321 7.81901 17.1461 7.81901H33.7381C33.8521 7.81901 33.9615 7.7737 34.0422 7.69306C34.1228 7.61242 34.1681 7.50305 34.1681 7.38901C34.1681 7.27496 34.1228 7.16559 34.0422 7.08495C33.9615 7.00431 33.8521 6.95901 33.7381 6.95901H17.1461Z" fill="black"/>
<path d="M39.7902 29.1089C39.7841 30.8123 39.1047 32.4443 37.9002 33.6489C36.6957 34.8534 35.0637 35.5328 33.3602 35.5389C26.6482 35.5269 24.5092 26.4079 30.4402 23.3989C31.4201 22.9101 32.5082 22.6783 33.6023 22.7252C34.6963 22.772 35.7606 23.096 36.6951 23.6668C37.6297 24.2375 38.404 25.0363 38.9454 25.9882C39.4867 26.9401 39.7774 28.0139 39.7902 29.1089Z" fill="#4FABF7"/>
<path d="M33.3603 36.0402C32.3264 36.0305 31.3075 35.7912 30.3774 35.3395C29.4473 34.8877 28.6293 34.2349 27.9825 33.4282C27.3358 32.6215 26.8764 31.6811 26.6377 30.675C26.399 29.669 26.3869 28.6225 26.6023 27.6112C28.5323 19.6152 40.1253 20.8962 40.2903 29.1092C40.28 30.944 39.5467 32.7009 38.2493 33.9985C36.9519 35.296 35.1952 36.0297 33.3603 36.0402ZM33.3603 23.1902C32.2433 23.1912 31.1493 23.5079 30.2045 24.1037C29.2596 24.6994 28.5024 25.5501 28.02 26.5576C27.5376 27.565 27.3497 28.6883 27.478 29.7979C27.6063 30.9075 28.0456 31.9583 28.7451 32.8291C29.4447 33.6999 30.376 34.3553 31.4319 34.7198C32.4878 35.0842 33.6251 35.1429 34.7129 34.889C35.8007 34.6352 36.7946 34.0791 37.58 33.2849C38.3655 32.4907 38.9105 31.4907 39.1523 30.4002C39.34 29.5339 39.3318 28.6366 39.1282 27.7739C38.9247 26.9112 38.531 26.1048 37.9759 25.4138C37.4207 24.7227 36.7182 24.1645 35.9197 23.7797C35.1211 23.395 34.2467 23.1936 33.3603 23.1902Z" fill="black"/>
<path d="M38.1533 29.1161C37.9583 35.4501 28.7643 35.4491 28.5703 29.1161C28.7653 22.7831 37.9593 22.7841 38.1533 29.1161Z" fill="#E9EFFF"/>
<path d="M33.3613 34.409C31.9583 34.4072 30.6133 33.8489 29.6214 32.8566C28.6294 31.8643 28.0716 30.5191 28.0703 29.116C28.3183 22.112 38.4063 22.114 38.6533 29.116C38.6517 30.5191 38.0937 31.8642 37.1016 32.8563C36.1095 33.8484 34.7644 34.4074 33.3613 34.409ZM33.3613 24.824C32.223 24.824 31.1313 25.2762 30.3264 26.0811C29.5215 26.886 29.0693 27.9777 29.0693 29.116C29.0693 30.2543 29.5215 31.346 30.3264 32.1509C31.1313 32.9558 32.223 33.408 33.3613 33.408C34.4996 33.408 35.5913 32.9558 36.3962 32.1509C37.2011 31.346 37.6533 30.2543 37.6533 29.116C37.6533 27.9777 37.2011 26.886 36.3962 26.0811C35.5913 25.2762 34.4996 24.824 33.3613 24.824Z" fill="black"/>
<path d="M33.3601 25.5012C33.2275 25.5012 33.1003 25.4485 33.0066 25.3548C32.9128 25.261 32.8601 25.1338 32.8601 25.0012C32.8701 24.5852 32.7311 23.8312 33.3601 23.8242C33.4927 23.8242 33.6199 23.8769 33.7137 23.9707C33.8074 24.0644 33.8601 24.1916 33.8601 24.3242C33.8501 24.7402 33.9901 25.4942 33.3601 25.5012ZM33.3601 34.3912C33.2275 34.3912 33.1003 34.3385 33.0066 34.2448C32.9128 34.151 32.8601 34.0238 32.8601 33.8912C32.8701 33.4752 32.7311 32.7212 33.3601 32.7142C33.4927 32.7142 33.6199 32.7669 33.7137 32.8607C33.8074 32.9544 33.8601 33.0816 33.8601 33.2142C33.8501 33.6292 33.9901 34.3842 33.3601 34.3912ZM36.2651 26.7042C36.1669 26.7028 36.0713 26.6727 35.99 26.6176C35.9088 26.5625 35.8454 26.4848 35.8078 26.3941C35.7701 26.3034 35.7598 26.2036 35.7782 26.1072C35.7966 26.0107 35.8428 25.9217 35.9111 25.8512C36.2111 25.5642 36.6461 24.9322 37.0961 25.3722C37.1899 25.466 37.2425 25.5931 37.2425 25.7257C37.2425 25.8583 37.1899 25.9855 37.0961 26.0792C36.9011 26.2392 36.5581 26.7412 36.2651 26.7042ZM29.9791 32.9892C29.8809 32.9878 29.7853 32.9577 29.704 32.9026C29.6228 32.8475 29.5594 32.7698 29.5218 32.6791C29.4841 32.5884 29.4738 32.4886 29.4922 32.3922C29.5106 32.2957 29.5568 32.2067 29.6251 32.1362C29.9251 31.8492 30.3611 31.2192 30.8101 31.6582C30.9039 31.752 30.9565 31.8791 30.9565 32.0117C30.9565 32.1443 30.9039 32.2715 30.8101 32.3652C30.6141 32.5252 30.2731 33.0262 29.9791 32.9892ZM38.1441 29.6072H37.4671C37.3345 29.6072 37.2073 29.5545 37.1136 29.4608C37.0198 29.367 36.9671 29.2398 36.9671 29.1072C36.9671 28.9746 37.0198 28.8474 37.1136 28.7537C37.2073 28.6599 37.3345 28.6072 37.4671 28.6072H38.1441C38.2767 28.6072 38.4039 28.6599 38.4977 28.7537C38.5914 28.8474 38.6441 28.9746 38.6441 29.1072C38.6441 29.2398 38.5914 29.367 38.4977 29.4608C38.4039 29.5545 38.2767 29.6072 38.1441 29.6072ZM29.2541 29.6072H28.5781C28.4455 29.6072 28.3183 29.5545 28.2246 29.4608C28.1308 29.367 28.0781 29.2398 28.0781 29.1072C28.0781 28.9746 28.1308 28.8474 28.2246 28.7537C28.3183 28.6599 28.4455 28.6072 28.5781 28.6072H29.2541C29.3867 28.6072 29.5139 28.6599 29.6077 28.7537C29.7014 28.8474 29.7541 28.9746 29.7541 29.1072C29.7541 29.2398 29.7014 29.367 29.6077 29.4608C29.5139 29.5545 29.3867 29.6072 29.2541 29.6072ZM36.7431 32.9892C36.4511 33.0272 36.1051 32.5252 35.9111 32.3652C35.4461 31.9142 36.1661 31.1932 36.6181 31.6582L37.0961 32.1362C37.1644 32.2067 37.2106 32.2956 37.229 32.3919C37.2474 32.4883 37.2372 32.588 37.1997 32.6786C37.1622 32.7693 37.099 32.847 37.0178 32.9022C36.9367 32.9574 36.8412 32.9876 36.7431 32.9892ZM30.4571 26.7042C30.1651 26.7422 29.8181 26.2392 29.6251 26.0792C29.1601 25.6272 29.8801 24.9062 30.3321 25.3722L30.8101 25.8512C30.8784 25.9217 30.9246 26.0106 30.943 26.1069C30.9614 26.2033 30.9512 26.303 30.9137 26.3936C30.8762 26.4843 30.813 26.562 30.7318 26.6172C30.6507 26.6724 30.5552 26.7026 30.4571 26.7042ZM33.3601 29.6072H31.3521C31.2195 29.6072 31.0923 29.5545 30.9986 29.4608C30.9048 29.367 30.8521 29.2398 30.8521 29.1072C30.8521 28.9746 30.9048 28.8474 30.9986 28.7537C31.0923 28.6599 31.2195 28.6072 31.3521 28.6072H32.8601V26.4152C32.8601 26.2826 32.9128 26.1554 33.0066 26.0617C33.1003 25.9679 33.2275 25.9152 33.3601 25.9152C33.4927 25.9152 33.6199 25.9679 33.7137 26.0617C33.8074 26.1554 33.8601 26.2826 33.8601 26.4152V29.1072C33.8601 29.2398 33.8074 29.367 33.7137 29.4608C33.6199 29.5545 33.4927 29.6072 33.3601 29.6072Z" fill="black"/>
</svg>
