<svg width="24" height="24" viewBox="0 0 24 24" fill="none" xmlns="http://www.w3.org/2000/svg">
<path d="M9.10588 13.648L9.43066 14.2164L9.89355 13.7535L13.7536 9.89348L14.2164 9.43059L13.6481 9.1058C13.1527 8.82276 12.5873 8.66992 12 8.66992C10.1639 8.66992 8.67 10.1638 8.67 11.9999C8.67 12.5872 8.82283 13.1527 9.10588 13.648ZM9.47 14.7799C9.40545 14.7799 9.34484 14.7577 9.29355 14.7064C8.56721 13.98 8.17 13.0172 8.17 11.9999C8.17 9.88606 9.88614 8.16992 12 8.16992C13.0172 8.16992 13.9801 8.56714 14.7064 9.29347C14.7537 9.34078 14.78 9.40403 14.78 9.46992C14.78 9.53581 14.7537 9.59907 14.7064 9.64637L9.64645 14.7064C9.59516 14.7577 9.53455 14.7799 9.47 14.7799Z" fill="#7B8697" stroke="#7B8697"/>
<path d="M5.43393 17.9491L5.4354 17.9503C5.47927 17.988 5.5419 18.01 5.6 18.01C5.6713 18.01 5.73562 17.9788 5.77403 17.9321L5.77783 17.9275L5.77785 17.9275C5.87055 17.8177 5.85687 17.6595 5.75245 17.5678C4.76223 16.7129 3.87178 15.6653 3.09906 14.4598C2.65865 13.7728 2.4575 12.8689 2.4575 12C2.4575 11.1313 2.65854 10.2277 3.09869 9.54072C5.32498 6.04702 8.55674 3.97998 12 3.97998C13.9886 3.97998 15.9528 4.67163 17.6716 5.97115L17.6719 5.97143C17.7768 6.0509 17.9344 6.03297 18.0215 5.91805C18.1008 5.8133 18.083 5.656 17.9685 5.56887C16.1476 4.1986 14.0818 3.47998 12 3.47998C8.4588 3.47998 5.05216 5.55753 2.68141 9.26907L5.43393 17.9491ZM5.43393 17.9491C4.40568 17.0746 3.4782 15.9941 2.6829 14.7332L2.68291 14.7332M5.43393 17.9491L2.68291 14.7332M2.68291 14.7332L2.68067 14.7297M2.68291 14.7332L2.68067 14.7297M2.68067 14.7297C2.21363 14.0027 1.965 13.0171 1.965 12.0037M2.68067 14.7297L1.965 12.0037M1.965 12.0037C1.965 10.9905 2.21357 10.0018 2.68138 9.26913L1.965 12.0037Z" fill="#7B8697" stroke="#7B8697"/>
<path d="M8.3136 19.7592L8.31476 19.7597C9.50503 20.2643 10.7388 20.52 11.9996 20.52C15.5408 20.52 18.9474 18.4424 21.3182 14.7309L8.3136 19.7592ZM8.3136 19.7592C8.18733 19.706 8.12788 19.5587 8.18039 19.434C8.23349 19.3079 8.38043 19.2485 8.50505 19.3006C9.62457 19.7757 10.8006 20.02 11.9896 20.02C15.4328 20.02 18.6646 17.953 20.8909 14.4593C21.331 13.7723 21.5321 12.8687 21.5321 12C21.5321 11.1317 21.3312 10.2284 20.8914 9.54154C20.5708 9.03489 20.2194 8.54911 19.8472 8.09418C19.7664 7.99418 19.7729 7.83577 19.8884 7.73522C19.9969 7.65002 20.1497 7.66367 20.2422 7.7761C20.6211 8.24248 20.9887 8.74591 21.3165 9.26641L21.3164 9.26642M8.3136 19.7592L21.3164 9.26642M21.3164 9.26642L21.3189 9.27025M21.3164 9.26642L21.3189 9.27025M21.3189 9.27025C21.7859 9.99725 22.0346 10.9828 22.0346 11.9962M21.3189 9.27025L22.0346 11.9962M22.0346 11.9962C22.0346 13.0095 21.786 13.9982 21.3182 14.7308L22.0346 11.9962Z" fill="#7B8697" stroke="#7B8697"/>
<path d="M12.4404 15.5649L12.4403 15.5646C12.4141 15.43 12.5007 15.3059 12.6337 15.2832L12.6337 15.2832L12.639 15.2823C13.9426 15.0453 15.022 13.9669 15.2608 12.6639C15.2877 12.5318 15.4121 12.44 15.5596 12.4623C15.7024 12.4931 15.7842 12.6246 15.7588 12.7546L15.7579 12.7594C15.4798 14.263 14.2905 15.4618 12.8028 15.7662C12.7744 15.7654 12.7504 15.7663 12.7319 15.7674L12.7066 15.769L12.6918 15.7701C12.6898 15.7702 12.6884 15.7703 12.6876 15.7703C12.571 15.7694 12.4633 15.6827 12.4404 15.5649Z" fill="#7B8697" stroke="#7B8697"/>
<path d="M2.00043 22.2497C1.93588 22.2497 1.87527 22.2275 1.82398 22.1762C1.72925 22.0814 1.72925 21.918 1.82398 21.8233L9.29398 14.3533C9.38872 14.2585 9.55214 14.2585 9.64688 14.3533C9.74161 14.448 9.74161 14.6114 9.64688 14.7062L2.17688 22.1762C2.12559 22.2275 2.06498 22.2497 2.00043 22.2497Z" fill="#7B8697" stroke="#7B8697"/>
<path d="M14.5297 9.71994C14.4652 9.71994 14.4046 9.69768 14.3533 9.64639C14.2585 9.55165 14.2585 9.38823 14.3533 9.29349L21.8233 1.82349C21.918 1.72876 22.0814 1.72876 22.1762 1.82349C22.2709 1.91823 22.2709 2.08165 22.1762 2.17639L14.7062 9.64639C14.6549 9.69768 14.5943 9.71994 14.5297 9.71994Z" fill="#7B8697" stroke="#7B8697"/>
</svg>
