<svg width="17" height="16" viewBox="0 0 17 16" fill="none" xmlns="http://www.w3.org/2000/svg">
<path d="M6.52083 7.16667C5.5075 7.16667 4.6875 6.34667 4.6875 5.33333C4.6875 4.32 5.5075 3.5 6.52083 3.5C7.53417 3.5 8.35417 4.32 8.35417 5.33333C8.35417 6.34667 7.53417 7.16667 6.52083 7.16667ZM6.52083 4.5C6.06083 4.5 5.6875 4.87333 5.6875 5.33333C5.6875 5.79333 6.06083 6.16667 6.52083 6.16667C6.98083 6.16667 7.35417 5.79333 7.35417 5.33333C7.35417 4.87333 6.98083 4.5 6.52083 4.5Z" fill="white"/>
<path d="M10.526 15.1666H6.52604C2.90604 15.1666 1.35938 13.62 1.35938 9.99998V5.99998C1.35938 2.37998 2.90604 0.833313 6.52604 0.833313H9.19271C9.46604 0.833313 9.69271 1.05998 9.69271 1.33331C9.69271 1.60665 9.46604 1.83331 9.19271 1.83331H6.52604C3.45271 1.83331 2.35938 2.92665 2.35938 5.99998V9.99998C2.35938 13.0733 3.45271 14.1666 6.52604 14.1666H10.526C13.5994 14.1666 14.6927 13.0733 14.6927 9.99998V6.66665C14.6927 6.39331 14.9194 6.16665 15.1927 6.16665C15.466 6.16665 15.6927 6.39331 15.6927 6.66665V9.99998C15.6927 13.62 14.146 15.1666 10.526 15.1666Z" fill="white"/>
<path d="M14.6901 3.83331H11.0234C10.7501 3.83331 10.5234 3.60665 10.5234 3.33331C10.5234 3.05998 10.7501 2.83331 11.0234 2.83331H14.6901C14.9634 2.83331 15.1901 3.05998 15.1901 3.33331C15.1901 3.60665 14.9634 3.83331 14.6901 3.83331Z" fill="white"/>
<path d="M12.8594 5.66667C12.586 5.66667 12.3594 5.44 12.3594 5.16667V1.5C12.3594 1.22667 12.586 1 12.8594 1C13.1327 1 13.3594 1.22667 13.3594 1.5V5.16667C13.3594 5.44 13.1327 5.66667 12.8594 5.66667Z" fill="white"/>
<path d="M2.30298 13.1334C2.14298 13.1334 1.98298 13.0534 1.88965 12.9134C1.73632 12.6867 1.79632 12.3734 2.02298 12.22L5.30965 10.0134C6.02965 9.53335 7.02298 9.58669 7.67631 10.14L7.89632 10.3334C8.22965 10.62 8.79631 10.62 9.12298 10.3334L11.8963 7.95335C12.6096 7.34669 13.7163 7.34669 14.4296 7.95335L15.5163 8.88669C15.723 9.06669 15.7496 9.38002 15.5696 9.59335C15.3896 9.80002 15.0763 9.82669 14.863 9.64669L13.7763 8.71335C13.443 8.42668 12.8763 8.42668 12.5497 8.71335L9.77632 11.0934C9.06965 11.7 7.95632 11.7 7.24298 11.0934L7.02298 10.9C6.71632 10.64 6.20965 10.6134 5.86965 10.8467L2.58965 13.0534C2.49632 13.1067 2.39632 13.1334 2.30298 13.1334Z" fill="white"/>
</svg>
