<svg width="20" height="20" viewBox="0 0 20 20" fill="none" xmlns="http://www.w3.org/2000/svg">
<path d="M10.0013 18.4582C5.33578 18.4582 1.54297 14.6654 1.54297 9.99984C1.54297 5.33431 5.33578 1.5415 10.0013 1.5415C14.6668 1.5415 18.4596 5.33431 18.4596 9.99984C18.4596 14.6654 14.6668 18.4582 10.0013 18.4582ZM10.0013 1.7915C5.47516 1.7915 1.79297 5.47369 1.79297 9.99984C1.79297 14.526 5.47516 18.2082 10.0013 18.2082C14.5274 18.2082 18.2096 14.526 18.2096 9.99984C18.2096 5.47369 14.5274 1.7915 10.0013 1.7915Z" fill="#3B82F6" stroke="#3B82F6"/>
<path d="M10 10.9582C9.96985 10.9582 9.93857 10.9459 9.91293 10.9202C9.88728 10.8946 9.875 10.8633 9.875 10.8332V6.6665C9.875 6.63636 9.88728 6.60508 9.91293 6.57943C9.93857 6.55379 9.96985 6.5415 10 6.5415C10.0301 6.5415 10.0614 6.55379 10.0871 6.57943C10.1127 6.60508 10.125 6.63636 10.125 6.6665V10.8332C10.125 10.8633 10.1127 10.8946 10.0871 10.9202C10.0614 10.9459 10.0301 10.9582 10 10.9582Z" fill="#3B82F6" stroke="#3B82F6"/>
<path d="M9.70131 13.4707L9.70149 13.4707L9.69617 13.4579C9.67582 13.4091 9.66797 13.366 9.66797 13.3336C9.66797 13.3011 9.67582 13.2581 9.69617 13.2092C9.71239 13.1703 9.73443 13.1329 9.76414 13.0964C9.80064 13.0667 9.83803 13.0446 9.87694 13.0284C9.95387 12.9964 10.0487 12.9964 10.1257 13.0284C10.1646 13.0446 10.202 13.0667 10.2385 13.0964C10.2682 13.1329 10.2902 13.1703 10.3064 13.2092C10.3268 13.2581 10.3346 13.3011 10.3346 13.3336C10.3346 13.366 10.3268 13.4091 10.3064 13.4579L10.3063 13.4578L10.3013 13.4707C10.2896 13.5011 10.2739 13.5291 10.2396 13.5698C10.2027 13.6 10.165 13.6223 10.1257 13.6387L10.318 14.1002L10.1257 13.6387C10.0768 13.659 10.0338 13.6669 10.0013 13.6669C9.96882 13.6669 9.9258 13.659 9.87694 13.6387C9.83763 13.6223 9.79987 13.6 9.76301 13.5698C9.72871 13.5291 9.713 13.5011 9.70131 13.4707Z" fill="#3B82F6" stroke="#3B82F6"/>
</svg>
