<svg width="48" height="46" viewBox="0 0 48 46" fill="none" xmlns="http://www.w3.org/2000/svg">
<g clip-path="url(#clip0_2028_260174)">
<path d="M27.9197 16.2226L26.2169 13.7719L24.0004 10.5771L21.7986 13.7719L7.33984 34.647H18.8481V30.9563H14.2976L24.0004 16.952L25.6591 19.3444L27.9197 16.2226Z" fill="#EBE6EF"/>
<path d="M48 34.647H36.2569L29.5927 24.9898L30.3706 24.4501L36.756 33.6987H46.2092L24 1.6494L1.8055 33.6987H3.91927L24 4.71283L42.8477 31.9044H37.6367L31.2073 22.6266L31.2514 22.5683L31.7651 21.7805L38.1211 30.9562H41.0422L27.6697 11.6566L25.4679 8.47648L24 6.37584L22.5468 8.47648L20.345 11.6566L4.41835 34.647H0L18.1284 8.47648L20.345 5.29634L21.7982 3.18111L24 0.000976562L26.2165 3.18111L27.6697 5.29634L29.8716 8.47648L48 34.647Z" fill="#EBE6EF"/>
<path d="M48 34.647H36.2569L29.5927 24.9898L31.2073 22.6266L31.7651 21.7805L38.1211 30.9562H41.0422L27.6697 11.6566L25.4679 8.47648L24 6.37584L22.5468 8.47648L20.345 11.6566L4.41835 34.647H0L18.1284 8.47648L20.345 5.29634L21.7982 3.18111L24 0.000976562L26.2165 3.18111L27.6697 5.29634L29.8716 8.47648L48 34.647Z" fill="#EBE6EF"/>
<path d="M26.6868 26.0841L30.7528 20.3365L29.0648 17.8857L23.707 25.4422V21.2263L20.918 25.165V34.6617H23.707V30.2999L25.0134 28.4911L28.8446 34.6617H32.3822L26.6868 26.0841Z" fill="#EBE6EF"/>
<path d="M2.40786 36.2802V36.6011C2.20235 36.6157 2.05557 36.6448 1.99685 36.7178C1.92346 36.7761 1.8941 36.9512 1.8941 37.2284V38.3662L3.00969 37.3596C3.11245 37.2721 3.18584 37.1846 3.22988 37.1117C3.27391 37.0387 3.30327 36.9658 3.30327 36.8928C3.30327 36.8199 3.27391 36.747 3.2152 36.7032C3.15648 36.6594 3.05373 36.6157 2.89226 36.5865V36.2656H4.94731V36.5865C4.75648 36.6011 4.56566 36.6448 4.38951 36.7178C4.21336 36.7907 4.0519 36.8928 3.90511 37.0095L3.11245 37.7098L4.50694 39.825C4.62437 40 4.72713 40.1313 4.84456 40.2043C4.94731 40.2772 5.07942 40.3064 5.21153 40.3064H5.25557V40.6127H2.99501V40.3064C3.1418 40.3064 3.24456 40.2772 3.31795 40.248C3.39135 40.2189 3.4207 40.1605 3.4207 40.1021C3.4207 40.073 3.4207 40.0438 3.40602 40.0146C3.39135 39.9854 3.36199 39.9417 3.33263 39.8687L2.3785 38.3808L1.8941 38.8038V39.6791C1.8941 39.9563 1.92346 40.1313 1.99685 40.1897C2.07024 40.248 2.20235 40.2918 2.40786 40.2918V40.5981H0.220703V40.2772H0.39685C0.543639 40.2772 0.646391 40.2334 0.705107 40.1605C0.763822 40.0876 0.79318 39.9125 0.79318 39.6645V37.1992C0.79318 36.9366 0.763822 36.7761 0.705107 36.6886C0.646391 36.6157 0.52896 36.5719 0.382171 36.5719H0.235382V36.251H2.40786V36.2802Z" fill="#EBE6EF"/>
<path d="M7.63354 36.2793V36.6002L7.45739 36.6148C7.3106 36.6294 7.20785 36.6586 7.14913 36.7315C7.09042 36.8045 7.06106 36.9649 7.06106 37.2275V39.6928C7.06106 39.9554 7.09042 40.1159 7.14913 40.1888C7.20785 40.2618 7.3106 40.2909 7.45739 40.3055L7.63354 40.3201V40.6265H5.40234V40.3201L5.59317 40.3055C5.73996 40.2909 5.84271 40.2618 5.90143 40.1888C5.96014 40.1159 5.9895 39.9554 5.9895 39.6928V37.2275C5.9895 36.9649 5.96014 36.8045 5.90143 36.7315C5.84271 36.6586 5.73996 36.6294 5.59317 36.6148L5.41702 36.6002V36.2793H7.63354Z" fill="#EBE6EF"/>
<path d="M9.76129 39.6928C9.76129 39.9554 9.79064 40.1159 9.84936 40.1888C9.90807 40.2618 10.0108 40.2909 10.1576 40.3055L10.3338 40.3201V40.6265H8.08789V40.3201L8.27872 40.3055C8.42551 40.2909 8.52826 40.2618 8.58697 40.1888C8.64569 40.1159 8.67505 39.9554 8.67505 39.6928V37.2275C8.67505 36.9649 8.64569 36.8045 8.58697 36.7315C8.52826 36.6586 8.42551 36.6294 8.27872 36.6148L8.10257 36.6002V36.2793H10.0402C10.8475 36.2793 11.42 36.3522 11.7429 36.5127C12.0659 36.6732 12.242 36.9357 12.242 37.315C12.242 37.6214 12.1099 37.8548 11.8604 38.0152C11.6108 38.1757 11.2145 38.2924 10.6714 38.3362C10.9943 38.3945 11.2439 38.4821 11.4347 38.6133C11.6255 38.7446 11.7576 38.9197 11.8457 39.1531C11.8897 39.2552 11.9191 39.3719 11.9338 39.5178C11.9484 39.6637 11.9631 39.7512 11.9778 39.7804C12.0072 39.8825 12.0365 39.9554 12.0659 39.9846C12.0952 40.0138 12.1393 40.0284 12.198 40.0284C12.3007 40.0284 12.3741 39.97 12.4182 39.8387C12.4622 39.722 12.4916 39.5032 12.4916 39.2114H12.7851C12.7851 39.2406 12.7851 39.2698 12.7998 39.299C12.7998 39.3281 12.7998 39.3719 12.7998 39.4303C12.7998 39.8387 12.7117 40.1596 12.5356 40.3785C12.3595 40.5973 12.1099 40.6994 11.787 40.6994C11.6549 40.6994 11.5228 40.6702 11.4053 40.6265C11.2879 40.5681 11.1851 40.4952 11.1117 40.4076C10.965 40.2326 10.8769 39.8241 10.8182 39.2114C10.8182 39.1677 10.8182 39.1239 10.8035 39.0947C10.7741 38.8322 10.7007 38.6571 10.5686 38.5696C10.4365 38.4821 10.187 38.4237 9.83468 38.4237H9.79064V39.6928H9.76129ZM9.76129 37.2421V38.1611C9.79064 38.1611 9.83468 38.1611 9.87872 38.1611C9.92275 38.1611 9.98147 38.1611 10.0549 38.1611C10.4365 38.1611 10.7154 38.1028 10.8769 37.9715C11.0383 37.8402 11.1117 37.636 11.1117 37.3442C11.1117 37.0962 11.0383 36.9066 10.9062 36.7753C10.7595 36.644 10.5686 36.5711 10.3191 36.5711C10.1136 36.5711 9.96679 36.6002 9.8934 36.6732C9.79064 36.7607 9.76129 36.9503 9.76129 37.2421Z" fill="#EBE6EF"/>
<path d="M15.545 36.1924C15.8826 36.1924 16.1909 36.2361 16.4845 36.3383C16.778 36.4404 17.0276 36.5863 17.2478 36.7905C17.4826 37.0093 17.6588 37.2573 17.7909 37.5345C17.9083 37.8262 17.9817 38.1326 17.9817 38.4535C17.9817 38.789 17.923 39.0953 17.7909 39.3725C17.6734 39.6643 17.4826 39.9123 17.2478 40.1165C17.0276 40.3207 16.778 40.4666 16.4845 40.5687C16.1909 40.6708 15.8973 40.7292 15.5597 40.7292C15.2221 40.7292 14.9138 40.6708 14.6202 40.5687C14.3267 40.4666 14.0771 40.3207 13.8569 40.1165C13.6221 39.9123 13.4459 39.6643 13.3285 39.3871C13.2111 39.1099 13.1523 38.8036 13.1523 38.4535C13.1523 38.1034 13.2111 37.797 13.3285 37.5199C13.4459 37.2427 13.6221 36.9947 13.8569 36.7905C14.0771 36.6008 14.3267 36.455 14.6202 36.3383C14.8991 36.2361 15.2221 36.1924 15.545 36.1924ZM15.5597 40.4228C15.956 40.4228 16.2496 40.2624 16.4551 39.9269C16.6606 39.5913 16.7634 39.1099 16.7634 38.4535C16.7634 37.797 16.6606 37.3156 16.4551 36.9947C16.2496 36.6592 15.956 36.4987 15.5597 36.4987C15.1634 36.4987 14.8698 36.6592 14.6643 36.9947C14.4588 37.3302 14.356 37.8116 14.356 38.4681C14.356 39.1099 14.4588 39.6059 14.6643 39.9414C14.8698 40.2624 15.1634 40.4228 15.5597 40.4228Z" fill="#EBE6EF"/>
<path d="M24.4994 36.2949L24.5288 38.0163L24.2352 38.0017C24.0737 37.4765 23.8976 37.1118 23.7215 36.9076C23.5306 36.7034 23.2958 36.5867 23.0022 36.5867C22.9435 36.5867 22.8994 36.6013 22.8848 36.6159C22.8701 36.6304 22.8554 36.7034 22.8554 36.8347V39.8689C22.8554 40.0148 22.8848 40.1169 22.9435 40.1899C23.0022 40.2628 23.1049 40.292 23.2517 40.292L23.5306 40.3066V40.6129H21.0939V40.3066L21.3728 40.292C21.5196 40.292 21.6077 40.2482 21.6664 40.1899C21.7251 40.1169 21.7545 40.0148 21.7545 39.8689V36.8347C21.7545 36.7034 21.7398 36.6304 21.7251 36.6159C21.7104 36.6013 21.6664 36.5867 21.6077 36.5867C21.3141 36.5867 21.0793 36.6888 20.8884 36.9076C20.6976 37.1118 20.5215 37.4911 20.36 38.0017L20.0664 38.0163L20.0958 36.2949H24.4994Z" fill="#EBE6EF"/>
<path d="M26.5982 39.6928C26.5982 39.9554 26.6275 40.1159 26.6862 40.1888C26.745 40.2618 26.8477 40.2909 26.9945 40.3055L27.1706 40.3201V40.6265H24.9395V40.3201L25.1303 40.3055C25.2771 40.2909 25.3798 40.2618 25.4385 40.1888C25.4973 40.1159 25.5266 39.9554 25.5266 39.6928V37.2275C25.5266 36.9649 25.4973 36.8045 25.4385 36.7315C25.3798 36.6586 25.2771 36.6294 25.1303 36.6148L24.9541 36.6002V36.2793H26.8917C27.6991 36.2793 28.2716 36.3522 28.5945 36.5127C28.9174 36.6732 29.0936 36.9357 29.0936 37.315C29.0936 37.6214 28.9615 37.8548 28.7119 38.0152C28.4624 38.1757 28.0661 38.2924 27.5229 38.3362C27.8459 38.3945 28.0954 38.4821 28.2862 38.6133C28.4771 38.7446 28.6092 38.9197 28.6973 39.1531C28.7413 39.2552 28.7706 39.3719 28.7853 39.5178C28.8 39.6637 28.8147 39.7512 28.8294 39.7804C28.8587 39.8825 28.8881 39.9554 28.9174 39.9846C28.9468 40.0138 28.9908 40.0284 29.0495 40.0284C29.1523 40.0284 29.2257 39.97 29.2697 39.8387C29.3138 39.722 29.3431 39.5032 29.3431 39.2114H29.6367C29.6367 39.2406 29.6367 39.2698 29.6514 39.299C29.6514 39.3281 29.6514 39.3719 29.6514 39.4303C29.6514 39.8387 29.5633 40.1596 29.3872 40.3785C29.211 40.5973 28.9615 40.6994 28.6385 40.6994C28.5064 40.6994 28.3743 40.6702 28.2569 40.6265C28.1395 40.5681 28.0367 40.4952 27.9633 40.4076C27.8165 40.2326 27.7284 39.8241 27.6697 39.2114C27.6697 39.1677 27.6697 39.1239 27.655 39.0947C27.6257 38.8322 27.5523 38.6571 27.4202 38.5696C27.2881 38.4821 27.0385 38.4237 26.6862 38.4237H26.6422V39.6928H26.5982ZM26.5982 37.2421V38.1611C26.6275 38.1611 26.6716 38.1611 26.7156 38.1611C26.7596 38.1611 26.8184 38.1611 26.8917 38.1611C27.2734 38.1611 27.5523 38.1028 27.7138 37.9715C27.8752 37.8548 27.9486 37.636 27.9486 37.3442C27.9486 37.0962 27.8752 36.9066 27.7431 36.7753C27.5963 36.644 27.4055 36.5711 27.156 36.5711C26.9505 36.5711 26.8037 36.6002 26.7303 36.6732C26.6422 36.7607 26.5982 36.9503 26.5982 37.2421Z" fill="#EBE6EF"/>
<path d="M30.87 39.1104L30.6645 39.6063C30.6351 39.6647 30.6204 39.7231 30.6058 39.7814C30.5911 39.8398 30.5911 39.8981 30.5911 39.9419C30.5911 40.0586 30.6204 40.1607 30.6938 40.219C30.7672 40.2774 30.87 40.3066 31.0168 40.3066H31.1782V40.6275H29.5195V40.3066C29.681 40.292 29.8131 40.2482 29.9305 40.1461C30.048 40.044 30.1507 39.8689 30.2682 39.6063L31.7507 36.2949H32.5874L33.9526 39.7814C34.026 39.971 34.114 40.1023 34.2021 40.1753C34.2902 40.2482 34.4223 40.3066 34.5691 40.3066V40.6275H32.2938V40.3066C32.5434 40.292 32.7049 40.2774 32.7929 40.2336C32.881 40.2044 32.925 40.1315 32.925 40.044C32.925 40.0148 32.9104 39.9856 32.8957 39.9273C32.881 39.8689 32.8516 39.796 32.8076 39.6793L32.5874 39.0958H30.87V39.1104ZM31.0168 38.7603H32.4553L31.7801 37.0243L31.0168 38.7603Z" fill="#EBE6EF"/>
<path d="M34.9369 37.2138C34.8342 36.9512 34.7461 36.7761 34.6581 36.7032C34.57 36.6303 34.4379 36.5865 34.2911 36.5865H34.2617V36.2656H36.5369V36.5865H36.4048C36.258 36.5865 36.1553 36.6157 36.0819 36.6594C36.0085 36.7032 35.9792 36.7761 35.9792 36.8783C35.9792 36.922 35.9792 36.9658 36.0085 37.0241C36.0232 37.0825 36.0379 37.1554 36.0672 37.2138L36.9773 39.5478L37.8727 37.3451C37.9021 37.2575 37.9314 37.1846 37.9461 37.1117C37.9608 37.0387 37.9755 36.9804 37.9755 36.922C37.9755 36.8053 37.9314 36.7178 37.8434 36.6594C37.7553 36.6011 37.6232 36.5719 37.447 36.5719H37.3883V36.251H39.0911V36.5719C38.9149 36.5865 38.7681 36.6594 38.636 36.7907C38.5039 36.922 38.3865 37.1117 38.2837 37.3596L36.9186 40.7148H36.3168L34.9369 37.2138Z" fill="#EBE6EF"/>
<path d="M43.098 36.2793L43.1274 37.7381H42.8044C42.7457 37.3442 42.5989 37.0524 42.3787 36.8628C42.1586 36.6732 41.8356 36.5856 41.4099 36.5856C41.1751 36.5856 41.0136 36.6148 40.9402 36.6878C40.8668 36.7607 40.8228 36.9357 40.8228 37.2129V38.1757H41.1017C41.3365 38.1757 41.5127 38.1174 41.6301 37.9861C41.7476 37.8548 41.8209 37.6505 41.8356 37.388H42.1439V39.3281H41.8356C41.8209 39.0364 41.7476 38.8322 41.6301 38.6863C41.5127 38.555 41.3365 38.482 41.1017 38.482H40.8228V39.6928C40.8228 39.9846 40.8521 40.1742 40.9255 40.2326C40.9989 40.3055 41.131 40.3347 41.3365 40.3347C41.7769 40.3347 42.1145 40.2326 42.3494 40.0429C42.5842 39.8533 42.7604 39.5178 42.8778 39.0656H43.2008L43.1567 40.6265H39.1787V40.3201L39.3696 40.3055C39.5164 40.2909 39.6191 40.2618 39.6778 40.1888C39.7365 40.1159 39.7659 39.9554 39.7659 39.6928V37.2275C39.7659 36.9649 39.7365 36.8045 39.6778 36.7315C39.6191 36.6586 39.487 36.6148 39.3402 36.6148L39.1641 36.6002V36.2793H43.098Z" fill="#EBE6EF"/>
<path d="M46.0632 36.2802V36.6011L45.8871 36.6157C45.7403 36.6303 45.6375 36.6595 45.5788 36.7324C45.5201 36.8054 45.4907 36.9658 45.4907 37.2284V39.6938C45.4907 39.9855 45.5201 40.1606 45.5788 40.2335C45.6375 40.3064 45.755 40.3356 45.9311 40.3356C46.4008 40.3356 46.7531 40.2189 46.988 40.0001C47.2229 39.7813 47.399 39.3874 47.5164 38.8185H47.8247L47.7953 40.6128H43.832V40.3064L44.0229 40.2919C44.1696 40.2773 44.2724 40.2481 44.3311 40.1751C44.3898 40.1022 44.4192 39.9417 44.4192 39.6792V37.2138C44.4192 36.9513 44.3898 36.7908 44.3311 36.7178C44.2724 36.6449 44.1696 36.6157 44.0229 36.6011L43.8467 36.5866V36.2656H46.0632V36.2802Z" fill="#EBE6EF"/>
<path d="M3.25905 42.1299L3.27373 43.2823H3.08291C3.02419 43.0197 2.89208 42.7572 2.73061 42.5383C2.61318 42.3925 2.43703 42.3195 2.24621 42.3195C2.20217 42.3195 2.17281 42.3195 2.17281 42.3487C2.15814 42.3925 2.15814 42.4508 2.15814 42.4946V44.5369C2.15814 44.6098 2.17281 44.6827 2.21685 44.7557C2.27557 44.7994 2.34896 44.8286 2.42236 44.8286L2.61318 44.8432V45.0474H0.969144V44.8432L1.15997 44.8286C1.23336 44.8286 1.30676 44.7994 1.36547 44.7557C1.40951 44.6973 1.43887 44.6244 1.42419 44.5369V42.4946C1.42419 42.4508 1.42419 42.3925 1.40951 42.3487C1.39483 42.3341 1.36547 42.3341 1.33612 42.3341C1.14529 42.3341 0.969144 42.4071 0.851713 42.5529C0.690245 42.7717 0.572814 43.0197 0.499419 43.2969H0.308594L0.337952 42.1445H3.25905V42.1299Z" fill="#EBE6EF"/>
<path d="M6.9584 44.4211C6.94372 44.5378 6.9584 44.6545 7.01712 44.7566C7.07583 44.8149 7.14923 44.8441 7.22262 44.8295L7.34005 44.8441V45.0484H5.82812V44.8441L5.94556 44.8295C6.01895 44.8295 6.09235 44.8004 6.15106 44.7566C6.1951 44.6545 6.22446 44.5378 6.20978 44.4211V42.7581C6.22446 42.6414 6.20978 42.5247 6.15106 42.4226C6.09235 42.3642 6.01895 42.3496 5.94556 42.3496L5.82812 42.335V42.1162H7.13455C7.67767 42.1162 8.05932 42.1746 8.2795 42.2767C8.49968 42.3642 8.63179 42.583 8.61712 42.8164C8.61712 43.0061 8.52904 43.1811 8.3529 43.2832C8.10335 43.4145 7.83913 43.4875 7.56024 43.502C7.73638 43.5312 7.91253 43.5896 8.074 43.6917C8.20611 43.7792 8.29418 43.9105 8.3529 44.0564C8.38225 44.1293 8.39693 44.2169 8.41161 44.3044C8.42629 44.4065 8.42629 44.4648 8.44097 44.4794C8.45565 44.5232 8.47033 44.5815 8.49968 44.6107C8.52904 44.6399 8.5584 44.6399 8.58776 44.6399C8.66115 44.6399 8.71987 44.5815 8.73455 44.5086C8.77858 44.3773 8.79326 44.2314 8.79326 44.0856H8.98409C8.98409 44.1001 8.98409 44.1147 8.98409 44.1439C8.98409 44.1731 8.98409 44.1877 8.98409 44.2314C8.99877 44.4503 8.94005 44.6837 8.80794 44.8587C8.69051 45.0046 8.49968 45.0921 8.30886 45.0775C8.22079 45.0775 8.13271 45.0629 8.04464 45.0192C7.97124 44.99 7.89785 44.9317 7.83913 44.8733C7.73638 44.7566 7.67767 44.4794 7.63363 44.071V43.998C7.63363 43.8667 7.57491 43.7355 7.47216 43.6479C7.32537 43.575 7.14923 43.5458 6.97308 43.5604H6.94372L6.9584 44.4211ZM6.9584 42.7581V43.3853H7.03179H7.14923C7.34005 43.3999 7.53088 43.3562 7.69235 43.2541C7.80978 43.1519 7.86849 42.9915 7.85381 42.831C7.86849 42.6851 7.80978 42.5538 7.70702 42.4517C7.60427 42.3496 7.45748 42.3059 7.31069 42.3204C7.20794 42.3059 7.10519 42.335 7.01712 42.3934C6.97308 42.4517 6.94372 42.5684 6.9584 42.7581Z" fill="#EBE6EF"/>
<path d="M12.0946 44.0263L11.9625 44.3618C11.9478 44.4056 11.9332 44.4348 11.9185 44.4785C11.9038 44.5077 11.9038 44.5515 11.9038 44.5952C11.9038 44.6682 11.9185 44.7265 11.9772 44.7849C12.0359 44.8286 12.124 44.8432 12.1974 44.8432H12.3148V45.062H11.1992V44.8432C11.302 44.8432 11.4047 44.7994 11.4781 44.7265C11.5809 44.6244 11.6543 44.4931 11.6983 44.3618L12.6965 42.1299H13.2543L14.179 44.4785C14.2084 44.5806 14.2671 44.6682 14.3405 44.7411C14.4139 44.7994 14.502 44.8286 14.59 44.8286V45.0474H13.0634V44.8286C13.1809 44.8286 13.2836 44.814 13.4011 44.7849C13.4598 44.7703 13.4891 44.7119 13.4891 44.6536C13.4891 44.6244 13.4891 44.5952 13.4744 44.5806C13.4598 44.5515 13.4451 44.4931 13.4157 44.4202L13.2689 44.0263H12.0946ZM12.1974 43.7929H13.1662L12.7111 42.6259L12.1974 43.7929Z" fill="#EBE6EF"/>
<path d="M19.5377 42.8593C19.5524 42.7134 19.523 42.5675 19.4496 42.4508C19.3615 42.3633 19.2294 42.3341 19.112 42.3341V42.1299H20.1982V42.3341C20.0808 42.3195 19.9634 42.3633 19.8753 42.4508C19.8019 42.5821 19.7725 42.7134 19.7872 42.8593V45.0474H19.4496L17.6001 42.903V44.3035C17.5854 44.4493 17.6147 44.5952 17.6881 44.7119C17.7762 44.7994 17.9083 44.8286 18.0258 44.8286V45.0329H16.9248V44.8286C17.0423 44.8432 17.1597 44.7994 17.2625 44.7119C17.3358 44.5806 17.3652 44.4493 17.3505 44.3035V42.5967C17.2918 42.5238 17.2331 42.4654 17.145 42.4071C17.0716 42.3633 16.9982 42.3341 16.9102 42.3341V42.1299H17.8643L19.5377 44.0846V42.8593Z" fill="#EBE6EF"/>
<path d="M23.1343 45.1211H22.9141L22.8848 43.9249H23.0903C23.1783 44.202 23.3398 44.45 23.5453 44.6542C23.7215 44.8147 23.9563 44.9022 24.1912 44.9022C24.3233 44.9022 24.4554 44.8585 24.5435 44.7855C24.6316 44.7126 24.6903 44.5959 24.6756 44.4646C24.6756 44.3625 24.6462 44.2604 24.5728 44.1874C24.4701 44.0853 24.338 44.0124 24.2059 43.9686L23.971 43.8811C23.7655 43.8082 23.5747 43.7206 23.3985 43.6185C23.2664 43.5456 23.149 43.4435 23.0609 43.3122C22.9875 43.1955 22.9435 43.0642 22.9435 42.9329C22.9435 42.6995 23.0316 42.4661 23.2224 42.3056C23.4132 42.1451 23.6627 42.0576 23.927 42.0576C24.1031 42.0576 24.2646 42.0868 24.426 42.1451C24.5288 42.1743 24.6169 42.2035 24.7196 42.2327C24.749 42.2327 24.7783 42.2181 24.8077 42.1889C24.8371 42.1451 24.8664 42.1014 24.8811 42.0576H25.0719L25.0866 43.0058H24.8958C24.8224 42.787 24.705 42.612 24.5288 42.4661C24.3673 42.3494 24.1765 42.2764 23.971 42.291C23.8389 42.291 23.7068 42.3202 23.604 42.3931C23.516 42.4515 23.4719 42.5536 23.4719 42.6703C23.4719 42.8454 23.7068 43.0058 24.1618 43.1809H24.1765C24.4261 43.2684 24.6022 43.3413 24.705 43.3851C24.793 43.4289 24.8811 43.4726 24.9545 43.531C25.0572 43.6039 25.1306 43.706 25.1894 43.8227C25.2481 43.9394 25.2627 44.0561 25.2627 44.1874C25.2774 44.4354 25.1747 44.6834 24.9838 44.8439C24.7637 45.0189 24.4994 45.1065 24.2205 45.0919C24.1178 45.0919 24.015 45.0773 23.9123 45.0481C23.7949 45.0189 23.6774 44.9752 23.56 44.9314L23.4719 44.8877C23.4279 44.8585 23.3692 44.8439 23.3105 44.8293C23.2664 44.8293 23.2371 44.8585 23.2077 44.8877C23.1637 44.9898 23.149 45.0481 23.1343 45.1211Z" fill="#EBE6EF"/>
<path d="M29.0648 44.4202C29.0501 44.5369 29.0795 44.6536 29.1235 44.7557C29.1822 44.814 29.2703 44.8432 29.3437 44.8286L29.4758 44.8432V45.0474H27.9492V44.8432L28.0667 44.8286C28.14 44.8286 28.2134 44.7994 28.2722 44.7557C28.3162 44.6536 28.3455 44.5369 28.3309 44.4202V42.7572C28.3455 42.6405 28.3309 42.5238 28.2722 42.4216C28.2134 42.3633 28.14 42.3487 28.0667 42.3487H27.9492V42.1299H29.2556C29.7547 42.1299 30.1364 42.1882 30.3566 42.3195C30.5767 42.4362 30.7235 42.6696 30.7089 42.9322C30.7235 43.1802 30.5914 43.4136 30.3712 43.5303C30.0777 43.6908 29.74 43.7637 29.4024 43.7491H29.241L29.0795 43.7345L29.0648 44.4202ZM29.0648 42.6842V43.5157H29.1235H29.2116C29.4024 43.5303 29.6079 43.4865 29.7694 43.3698C29.8868 43.2531 29.9455 43.0781 29.9309 42.9176C29.9455 42.7572 29.9015 42.5967 29.7988 42.48C29.6813 42.3779 29.5345 42.3195 29.3878 42.3341C29.2997 42.3195 29.2116 42.3487 29.1382 42.3925C29.0795 42.48 29.0501 42.5821 29.0648 42.6842Z" fill="#EBE6EF"/>
<path d="M34.8918 42.0576C35.1119 42.0576 35.3174 42.0868 35.5229 42.1597C35.7138 42.2181 35.8899 42.3202 36.0367 42.4661C36.1982 42.612 36.3156 42.7724 36.4037 42.9621C36.5651 43.3559 36.5651 43.8082 36.4037 44.202C36.3156 44.3917 36.1982 44.5667 36.0367 44.698C35.8899 44.8293 35.7138 44.9314 35.5229 45.0044C35.3174 45.0773 35.1119 45.1065 34.9064 45.1065C34.6863 45.1065 34.4807 45.0773 34.2752 45.0044C34.0844 44.9314 33.9083 44.8293 33.7615 44.698C33.6147 44.5667 33.4826 44.3917 33.4092 44.202C33.2477 43.7936 33.2477 43.3559 33.4092 42.9475C33.4826 42.7578 33.6147 42.5828 33.7615 42.4515C33.9083 42.3202 34.0844 42.2181 34.2752 42.1597C34.4661 42.1014 34.6862 42.0576 34.8918 42.0576ZM34.9064 44.9168C35.156 44.9314 35.3908 44.8001 35.5083 44.5813C35.7872 43.954 35.7872 43.2392 35.5083 42.612C35.3028 42.2764 34.8624 42.1743 34.5395 42.3786C34.4514 42.4369 34.3633 42.5098 34.3046 42.612C34.1725 42.8308 34.0991 43.1663 34.0991 43.6039C34.0991 44.0416 34.1725 44.3771 34.3046 44.5959C34.422 44.8001 34.6569 44.9168 34.9064 44.9168Z" fill="#EBE6EF"/>
<path d="M40.2797 44.4202C40.265 44.5369 40.2797 44.6536 40.3384 44.7557C40.3971 44.814 40.4705 44.8432 40.5439 44.8286L40.6613 44.8432V45.0474H39.1641V44.8432L39.2815 44.8286C39.3549 44.8286 39.4283 44.7994 39.487 44.7557C39.531 44.6536 39.5604 44.5369 39.5457 44.4202V42.7572C39.5604 42.6405 39.5457 42.5238 39.487 42.4216C39.4283 42.3633 39.3549 42.3487 39.2815 42.3487H39.1641V42.1299H40.4705C41.0136 42.1299 41.3953 42.1882 41.6154 42.2903C41.8356 42.3779 41.9677 42.5967 41.9531 42.8301C41.9531 43.0197 41.865 43.1948 41.6888 43.2969C41.4393 43.4282 41.1751 43.5011 40.8962 43.5157C41.0723 43.5449 41.2485 43.6033 41.4099 43.7054C41.542 43.7929 41.6301 43.9242 41.6742 44.0701C41.7035 44.143 41.7182 44.2305 41.7329 44.318C41.7475 44.4202 41.7622 44.4785 41.7622 44.4931C41.7769 44.5369 41.7916 44.5952 41.8209 44.6244C41.8503 44.6536 41.8797 44.6536 41.909 44.6536C41.9824 44.6536 42.0411 44.5952 42.0558 44.5223C42.0998 44.391 42.1145 44.2451 42.0998 44.0992H42.2907C42.2907 44.1138 42.2907 44.1284 42.2907 44.1576C42.2907 44.1868 42.2907 44.2013 42.2907 44.2451C42.3053 44.4639 42.2466 44.6973 42.1145 44.8724C41.9971 45.0183 41.8063 45.1058 41.6154 45.0912C41.5274 45.0912 41.4393 45.0766 41.3512 45.0329C41.2778 45.0037 41.2044 44.9453 41.1604 44.887C41.0576 44.7703 40.9989 44.4931 40.9549 44.0846V44.0117C40.9549 43.8804 40.8962 43.7491 40.7934 43.6616C40.6466 43.5887 40.4705 43.5595 40.309 43.5741H40.2797V44.4202ZM40.2797 42.7572V43.3844H40.3531H40.4705C40.6613 43.399 40.8521 43.3553 41.0136 43.2531C41.131 43.151 41.1898 42.9906 41.1751 42.8301C41.1898 42.6842 41.131 42.5529 41.0283 42.4508C40.9255 42.3487 40.7787 42.3049 40.632 42.3195C40.5292 42.3049 40.4264 42.3341 40.3384 42.3925C40.2943 42.4508 40.2797 42.5675 40.2797 42.7572Z" fill="#EBE6EF"/>
<path d="M47.6917 42.1299L47.7064 43.2823H47.5155C47.4568 43.0197 47.3247 42.7572 47.1632 42.5383C47.0458 42.3925 46.8697 42.3195 46.6788 42.3195C46.6348 42.3195 46.6054 42.3195 46.6054 42.3487C46.5908 42.3925 46.5908 42.4508 46.5908 42.4946V44.5369C46.5908 44.6098 46.6054 44.6827 46.6495 44.7557C46.7082 44.7994 46.7816 44.8286 46.855 44.8286L47.0458 44.8432V45.0474H45.4018V44.8432L45.5926 44.8286C45.666 44.8286 45.7394 44.7994 45.7981 44.7557C45.8421 44.6973 45.8715 44.6244 45.8568 44.5369V42.4946C45.8568 42.4508 45.8568 42.3925 45.8421 42.3487C45.8274 42.3341 45.7981 42.3341 45.7687 42.3341C45.5779 42.3341 45.4018 42.4071 45.2843 42.5529C45.1229 42.7717 45.0054 43.0197 44.932 43.2969H44.7412L44.7706 42.1445H47.6917V42.1299Z" fill="#EBE6EF"/>
</g>
<defs>
<clipPath id="clip0_2028_260174">
<rect width="48" height="45.12" fill="white"/>
</clipPath>
</defs>
</svg>
