<svg width="20" height="20" viewBox="0 0 20 20" fill="none" xmlns="http://www.w3.org/2000/svg">
<path d="M17.4991 5.60839C17.4824 5.60839 17.4574 5.60839 17.4324 5.60839C13.0241 5.16673 8.62408 5.00006 4.26574 5.44173L2.56574 5.60839C2.21574 5.64173 1.90741 5.39173 1.87408 5.04173C1.84074 4.69173 2.09074 4.39173 2.43241 4.35839L4.13241 4.19173C8.56574 3.74173 13.0574 3.91673 17.5574 4.35839C17.8991 4.39173 18.1491 4.70006 18.1157 5.04173C18.0907 5.36673 17.8157 5.60839 17.4991 5.60839Z" fill="#EF4444"/>
<path d="M7.08265 4.7665C7.04932 4.7665 7.01598 4.7665 6.97432 4.75817C6.64098 4.69984 6.40765 4.37484 6.46598 4.0415L6.64932 2.94984C6.78265 2.14984 6.96598 1.0415 8.90765 1.0415H11.091C13.041 1.0415 13.2243 2.1915 13.3493 2.95817L13.5326 4.0415C13.591 4.38317 13.3576 4.70817 13.0243 4.75817C12.6826 4.8165 12.3576 4.58317 12.3076 4.24984L12.1243 3.1665C12.0076 2.4415 11.9826 2.29984 11.0993 2.29984H8.91598C8.03265 2.29984 8.01598 2.4165 7.89098 3.15817L7.69932 4.2415C7.64932 4.54984 7.38265 4.7665 7.08265 4.7665Z" fill="#EF4444"/>
<path d="M12.676 18.9582H7.32597C4.41764 18.9582 4.30097 17.3498 4.20931 16.0498L3.66764 7.65815C3.64264 7.31649 3.90931 7.01649 4.25097 6.99149C4.60097 6.97482 4.89264 7.23315 4.91764 7.57482L5.45931 15.9665C5.55097 17.2332 5.58431 17.7082 7.32597 17.7082H12.676C14.426 17.7082 14.4593 17.2332 14.5426 15.9665L15.0843 7.57482C15.1093 7.23315 15.4093 6.97482 15.751 6.99149C16.0926 7.01649 16.3593 7.30815 16.3343 7.65815L15.7926 16.0498C15.701 17.3498 15.5843 18.9582 12.676 18.9582Z" fill="#EF4444"/>
<path d="M11.3824 14.375H8.60742C8.26576 14.375 7.98242 14.0917 7.98242 13.75C7.98242 13.4083 8.26576 13.125 8.60742 13.125H11.3824C11.7241 13.125 12.0074 13.4083 12.0074 13.75C12.0074 14.0917 11.7241 14.375 11.3824 14.375Z" fill="#EF4444"/>
<path d="M12.0827 11.0415H7.91602C7.57435 11.0415 7.29102 10.7582 7.29102 10.4165C7.29102 10.0748 7.57435 9.7915 7.91602 9.7915H12.0827C12.4243 9.7915 12.7077 10.0748 12.7077 10.4165C12.7077 10.7582 12.4243 11.0415 12.0827 11.0415Z" fill="#EF4444"/>
</svg>
