<svg width="32" height="32" viewBox="0 0 32 32" fill="none" xmlns="http://www.w3.org/2000/svg">
<path d="M21.2766 30.8068C20.2421 31.315 17.3624 30.9594 17.3624 30.9594C17.3624 30.9594 16.3137 30.5978 14.9067 30.8068C14.6657 30.843 12.7464 31.1025 12.6101 30.2766C12.3096 28.4567 14.7509 28.3156 14.7509 28.3156L12.5265 26.8714L12.5144 26.8638L12.5032 26.8564L12.2203 26.673C12.2203 26.673 12.2197 26.7582 12.2161 26.9009C12.2139 26.9886 11.9281 27.0964 11.923 27.2209C11.9198 27.3054 12.1982 27.3982 12.1931 27.4945C12.1931 27.4974 12.1928 27.5002 12.1928 27.5034C12.188 27.5889 12.1829 27.6782 12.1765 27.77C12.1694 27.8769 11.6427 28.0916 11.6328 28.2033C11.6241 28.3015 12.1333 28.2964 12.1227 28.3956C12.0565 29.01 11.9454 29.6126 11.7598 29.8654C11.4798 30.2458 10.6353 30.7441 10.2129 30.7623C9.71567 30.7838 8.99055 30.4023 8.84367 29.97C8.74703 29.6868 9.45775 28.9233 9.45775 28.9233L9.25295 26.9015L9.58479 26.5063L9.19279 26.3082L9.16783 26.0615L9.70415 25.5476L9.09167 25.3095L9.07311 25.1281V25.1278L9.45199 24.4938L8.95599 23.9716L8.92015 23.6206C8.92015 23.6206 8.89583 23.7566 8.85103 23.9866C8.80175 24.2388 8.26863 24.5364 8.17455 24.9614C8.14383 25.0983 8.57039 25.3098 8.53583 25.457C8.48866 25.6607 8.43938 25.864 8.38799 26.0666C8.35151 26.2122 7.76783 26.2122 7.72847 26.3594C7.68847 26.5082 8.19247 26.8039 8.14991 26.9514C8.12559 27.035 8.10095 27.1182 8.07599 27.2007C8.04015 27.3182 7.59727 27.2756 7.55983 27.3892C7.53295 27.4718 7.91247 27.7118 7.88463 27.7918C7.72207 28.2596 7.54799 28.673 7.36783 28.9684C7.33378 29.0248 7.29705 29.0796 7.25775 29.1326C6.96559 29.5246 6.66287 29.098 5.76751 29.1678C5.19375 29.2122 4.63791 29.6193 4.69103 29.0977C4.72911 28.7249 4.89775 28.0849 4.89775 28.0849V28.083C4.89871 28.0126 4.92367 26.1095 5.02639 23.9418C5.03055 23.8599 5.50671 23.8116 5.51087 23.7294C5.51663 23.6119 5.05039 23.4596 5.05679 23.3412L5.07119 23.0756C5.07919 22.9348 5.56239 22.8954 5.57135 22.7546C5.58127 22.5918 5.11631 22.3284 5.12719 22.1671C5.14127 21.9617 5.15599 21.7572 5.17135 21.5556C5.18447 21.3825 5.60495 21.5969 5.61967 21.4286C5.65327 21.0436 5.28367 20.2878 5.32431 19.9422C5.38575 19.4186 5.45583 18.9505 5.53551 18.5716C5.67183 17.9233 5.96911 16.9175 6.30639 15.8593C6.33519 15.7694 6.75983 15.745 6.78895 15.6545C6.82383 15.547 6.46319 15.3732 6.49871 15.265C6.52591 15.1802 6.55407 15.0958 6.58191 15.011C6.62415 14.882 7.05775 14.9262 7.09999 14.7988C7.15279 14.6407 6.81455 14.3114 6.86607 14.1575C6.91631 14.009 6.96591 13.8628 7.01455 13.7201C7.08207 13.5226 7.56303 13.8478 7.62607 13.6657C7.69167 13.475 7.33903 12.7774 7.39823 12.6087C7.66351 11.8484 7.84687 11.3396 7.84687 11.3396H14.6485C14.6485 11.3396 15.2341 12.4766 16.0225 13.7412C16.0875 13.8455 15.2923 14.2359 15.3595 14.3412C15.4453 14.4753 16.3947 14.3242 16.484 14.458C16.579 14.6004 16.676 14.7418 16.7736 14.8817C16.8549 14.9978 16.1691 15.6033 16.2517 15.7156C16.3461 15.8442 17.2088 15.4785 17.3038 15.5994C17.403 15.7258 17.5019 15.8468 17.6008 15.9626C17.7054 16.0852 17.3419 16.4398 17.4449 16.5473C17.54 16.6465 18.1019 16.4999 18.1947 16.5834C18.2222 16.6084 18.2507 16.6337 18.2792 16.6593C18.4872 16.8452 18.7157 17.0436 18.9576 17.2538C19.0478 17.3322 18.5803 17.4785 18.6744 17.5598C18.7617 17.6356 19.4101 17.6462 19.4993 17.7249C19.6709 17.8753 19.8475 18.0302 20.0261 18.1902C20.1729 18.3217 19.26 18.5191 19.4097 18.6567C19.5137 18.7527 20.6798 18.7876 20.7845 18.8862C21.3989 19.4673 22.0152 20.0999 22.5688 20.7761C22.6859 20.9191 22.3006 21.2465 22.4117 21.393C22.4795 21.4833 23.0456 21.3911 23.1109 21.483C23.2104 21.6225 23.3064 21.7633 23.3985 21.9057C23.5083 22.075 23.0613 22.4798 23.1592 22.6538C23.2155 22.754 23.8216 22.6218 23.8734 22.723C23.9361 22.8449 23.9953 22.9674 24.051 23.0913C24.1409 23.2903 23.4744 23.5258 23.5451 23.73C23.5736 23.8122 24.3477 23.8609 24.3726 23.9438C24.4465 24.1876 24.5057 24.4346 24.5477 24.6849C25.0104 27.4455 22.8049 30.0564 21.2766 30.8068ZM15.6705 5.778C15.6705 5.778 17.5029 2.25832 15.9739 0.715277C15.3966 0.132877 12.5269 3.24104 12.5269 3.24104L15.6705 5.778Z" fill="#FD9758"/>
<path d="M15.6561 4.86288C15.6561 4.86288 16.3979 2.66864 15.7358 1.57328C15.5863 1.32624 13.3828 3.6232 13.3828 3.6232L15.6561 4.86288Z" fill="#FFADB4"/>
<path d="M5.9865 5.778C5.9865 5.778 4.15418 2.25832 5.68314 0.715277C6.26042 0.132877 9.13018 3.24104 9.13018 3.24104L5.9865 5.778Z" fill="#FD9758"/>
<path d="M6.00305 4.86288C6.00305 4.86288 5.26129 2.66864 5.92337 1.57328C6.07281 1.32624 8.27633 3.6232 8.27633 3.6232L6.00305 4.86288Z" fill="#FFADB4"/>
<path d="M16.8967 7.17333L12.4692 10.3349H6.79557L4.75813 7.44853M16.8967 7.17333L4.75781 7.44853C5.28229 7.23733 6.11397 3.16981 8.42885 2.12117C8.47909 2.09845 8.53061 2.07669 8.58309 2.05557C8.75301 1.98773 9.25669 2.46133 9.44741 2.41173C9.65221 2.35797 9.54565 1.78229 9.76773 1.74965C9.99319 1.71641 10.2201 1.69409 10.4477 1.68277C10.6586 1.67157 10.9565 2.27797 11.1706 2.28341C11.4404 2.29045 11.6273 1.70165 11.8935 1.73461C12.0186 1.75029 12.1431 1.76885 12.2663 1.79029C12.4945 1.82997 12.2781 2.33653 12.4932 2.39573C12.6685 2.44405 13.2781 2.04213 13.4407 2.10357C13.7226 2.20917 13.9821 2.33493 14.2106 2.47925C15.2887 3.16021 16.5607 6.48181 16.8967 7.17333Z" fill="#FD9758"/>
<path d="M17.6002 8.55924C17.6405 8.58644 17.6501 8.64148 17.621 8.68052C17.3023 9.10452 15.8283 10.6472 14.3247 11.5445C12.5627 12.596 9.47633 12.9023 6.65265 11.5333C5.63665 11.0408 5.20497 10.5548 4.90033 10.2696C4.11761 9.53716 3.88529 9.34868 3.81649 9.301C3.79729 9.28788 3.78385 9.26772 3.78065 9.24468C3.72049 8.81364 3.99569 8.41428 4.18833 8.1938C4.24081 8.13364 4.18801 8.04084 4.10961 8.05492C4.00561 8.07348 3.90545 8.09428 3.82225 8.11252C3.73553 8.1314 3.68113 8.021 3.74993 7.96468C3.97617 7.7794 4.42065 7.53972 4.73009 7.42516C4.74902 7.41822 4.76981 7.41834 4.78865 7.42548C5.06705 7.53076 7.26737 8.33972 8.27697 7.99316C9.81425 7.46548 10.6696 7.29236 10.8085 7.26612C10.8219 7.26356 10.8351 7.2642 10.8482 7.26804C11.0021 7.31412 12.0427 7.63316 13.0757 8.1666C13.6536 8.46516 16.372 7.3858 16.8319 7.19956C16.8693 7.1842 16.9115 7.19828 16.9343 7.23188C17.141 7.53684 17.5496 7.68084 17.8139 7.74484C17.8923 7.76372 17.9026 7.8706 17.8293 7.9042C17.6424 7.98964 17.3839 8.0946 17.2133 8.10772C16.9791 8.12596 17.4175 8.43668 17.6002 8.55924Z" fill="#FFC986"/>
<path d="M9.30311 6.74445C9.53091 6.74445 9.71558 6.47811 9.71558 6.14957C9.71558 5.82102 9.53091 5.55469 9.30311 5.55469C9.0753 5.55469 8.89062 5.82102 8.89062 6.14957C8.89062 6.47811 9.0753 6.74445 9.30311 6.74445Z" fill="#201161"/>
<path d="M12.3695 6.74445C12.5973 6.74445 12.782 6.47811 12.782 6.14957C12.782 5.82102 12.5973 5.55469 12.3695 5.55469C12.1417 5.55469 11.957 5.82102 11.957 6.14957C11.957 6.47811 12.1417 6.74445 12.3695 6.74445Z" fill="#201161"/>
<path d="M10.2537 9.15672C10.1577 9.15672 10.0572 9.13976 9.95991 9.10072C9.71031 8.99992 9.54711 8.774 9.50103 8.46488C9.49335 8.4124 9.52951 8.36344 9.58167 8.35576C9.63415 8.34808 9.68311 8.38424 9.69079 8.4364C9.73655 8.74296 9.90135 8.87 10.0316 8.9228C10.2223 8.99992 10.4463 8.9612 10.5529 8.8796C10.7362 8.73912 10.7625 8.05272 10.7359 7.65304C10.7351 7.64045 10.7367 7.62783 10.7408 7.61588C10.7449 7.60394 10.7512 7.59291 10.7596 7.58343C10.7679 7.57395 10.778 7.56621 10.7893 7.56063C10.8006 7.55506 10.8129 7.55178 10.8255 7.55096C10.8783 7.54776 10.9241 7.58744 10.9276 7.64024C10.9353 7.7564 10.9935 8.78328 10.6697 9.03192C10.574 9.10552 10.421 9.15672 10.2537 9.15672Z" fill="#201161"/>
<path d="M11.4153 9.16427C11.2543 9.16427 11.1004 9.11595 11.0015 9.02571C10.7097 8.75979 10.7327 7.75627 10.7362 7.64267C10.7378 7.58955 10.7833 7.54795 10.8351 7.54987C10.8882 7.55147 10.9298 7.59595 10.9279 7.64875C10.9157 8.04363 10.9599 8.72811 11.1305 8.88395C11.2185 8.96395 11.4229 9.00651 11.613 8.93899C11.7567 8.88779 11.9381 8.75915 11.9865 8.43563C11.9903 8.41047 12.0039 8.38785 12.0243 8.37273C12.0448 8.35761 12.0704 8.35123 12.0956 8.35499C12.1481 8.36299 12.1842 8.41163 12.1762 8.46411C12.1106 8.90379 11.8354 9.06379 11.6773 9.12011C11.5935 9.14987 11.5033 9.16427 11.4153 9.16427Z" fill="#201161"/>
<path d="M10.314 7.08944C10.2381 7.2648 10.6461 7.64336 10.8372 7.64592C11.033 7.64848 11.4605 7.27152 11.3885 7.08944C11.2897 6.83984 10.4209 6.84272 10.314 7.08944Z" fill="#DD1D71"/>
<path d="M11.8963 1.73414C11.7802 2.66854 11.5015 4.45542 11.0675 4.42182C10.6432 4.3895 10.497 2.58374 10.4503 1.6823C10.9271 1.6567 11.4183 1.6743 11.8963 1.73414ZM9.76642 4.11046C9.4157 4.1895 8.84994 2.7767 8.58594 2.0551C8.9389 1.91398 9.34178 1.8119 9.77058 1.74918C9.9101 2.54118 10.1229 4.02982 9.76642 4.11046ZM13.4432 2.1031C13.1722 2.83718 12.6231 4.1879 12.28 4.11046C11.9293 4.03142 12.1293 2.59078 12.2688 1.7895C12.6835 1.86182 13.0816 1.96646 13.4432 2.1031Z" fill="#E36214"/>
<path d="M8.28804 7.31742C8.65423 7.31742 8.95108 7.10667 8.95108 6.8467C8.95108 6.58673 8.65423 6.37598 8.28804 6.37598C7.92185 6.37598 7.625 6.58673 7.625 6.8467C7.625 7.10667 7.92185 7.31742 8.28804 7.31742Z" fill="#D92A51"/>
<path d="M7.9795 7.04528C7.9619 7.04528 7.94494 7.03984 7.93086 7.02992C7.91294 7.01712 7.9011 6.99728 7.89886 6.97584C7.89662 6.95472 7.90334 6.93328 7.91806 6.91728L8.18334 6.6216C8.21118 6.59088 8.2595 6.58576 8.29342 6.61008C8.31134 6.62288 8.32318 6.64272 8.32542 6.66416C8.32766 6.68528 8.32094 6.70672 8.30622 6.72304L8.04094 7.01872C8.0259 7.03536 8.00318 7.04528 7.9795 7.04528ZM8.3955 7.0712C8.38078 7.0712 8.36638 7.06704 8.3539 7.05904C8.31774 7.036 8.30622 6.988 8.32734 6.95024L8.44894 6.73296C8.4595 6.71376 8.47774 6.7 8.49854 6.69488C8.51934 6.68976 8.54046 6.69328 8.5587 6.7048C8.59454 6.72784 8.60638 6.77584 8.58494 6.8136L8.46334 7.03088C8.45668 7.04306 8.44688 7.05323 8.43494 7.06033C8.42301 7.06742 8.40938 7.07117 8.3955 7.0712Z" fill="white"/>
<path d="M13.3818 7.31742C13.748 7.31742 14.0448 7.10667 14.0448 6.8467C14.0448 6.58673 13.748 6.37598 13.3818 6.37598C13.0156 6.37598 12.7188 6.58673 12.7188 6.8467C12.7188 7.10667 13.0156 7.31742 13.3818 7.31742Z" fill="#D92A51"/>
<path d="M13.0732 7.0456C13.0556 7.0456 13.0387 7.04016 13.0246 7.03024C13.0067 7.01744 12.9948 6.9976 12.9926 6.97616C12.9904 6.95504 12.9971 6.9336 13.0118 6.91728L13.2771 6.6216C13.3049 6.59088 13.3532 6.58576 13.3872 6.61008C13.4051 6.62288 13.4169 6.64272 13.4192 6.66416C13.4214 6.68528 13.4147 6.70672 13.4 6.72304L13.1347 7.01872C13.1193 7.03568 13.0969 7.0456 13.0732 7.0456ZM13.4892 7.07152C13.4745 7.07152 13.4601 7.06736 13.4476 7.05936C13.4118 7.03632 13.4 6.98832 13.4214 6.95056L13.543 6.73328C13.5536 6.71408 13.5718 6.70032 13.5926 6.6952C13.6134 6.69008 13.6345 6.6936 13.6528 6.70512C13.6889 6.72816 13.7004 6.77616 13.679 6.81392L13.5574 7.0312C13.5506 7.04334 13.5407 7.05347 13.5288 7.06055C13.5168 7.06763 13.5032 7.07142 13.4892 7.07152Z" fill="white"/>
<path d="M18.2152 8.7021C18.2059 8.7021 18.1963 8.70082 18.1871 8.69794C15.445 7.85986 13.1295 8.67106 13.1061 8.67938C13.0822 8.68766 13.056 8.68618 13.0332 8.67527C13.0104 8.66436 12.9928 8.64489 12.9842 8.62109C12.9757 8.59729 12.9769 8.57108 12.9875 8.54815C12.9982 8.52521 13.0174 8.5074 13.0411 8.49858C13.0655 8.48994 13.6469 8.28354 14.5823 8.18082C15.444 8.0861 16.7787 8.0669 18.2431 8.51458C18.2651 8.52123 18.2839 8.53558 18.2963 8.555C18.3086 8.57442 18.3135 8.59762 18.3101 8.62036C18.3067 8.64311 18.2953 8.66388 18.2779 8.67888C18.2604 8.69389 18.2382 8.70213 18.2152 8.7021ZM12.7135 8.20386C12.6925 8.2039 12.6721 8.19709 12.6554 8.18449C12.6387 8.17189 12.6266 8.15417 12.6208 8.13403C12.6151 8.11389 12.6161 8.09244 12.6237 8.07293C12.6313 8.05342 12.6451 8.03692 12.6629 8.02594C12.692 8.00802 13.3864 7.58338 14.4376 7.25858C15.4101 6.95778 16.8779 6.6941 18.3496 7.14402C18.3738 7.15166 18.3939 7.16853 18.4057 7.19096C18.4175 7.21338 18.4199 7.23955 18.4125 7.26377C18.4051 7.28799 18.3884 7.30829 18.366 7.32027C18.3437 7.33224 18.3176 7.33491 18.2933 7.3277C16.8699 6.8925 15.4443 7.14882 14.4991 7.44066C13.4699 7.7581 12.7704 8.1853 12.7634 8.18978C12.748 8.19906 12.7307 8.20386 12.7135 8.20386Z" fill="#201161"/>
<path d="M3.57788 8.70221C3.53692 8.70221 3.49884 8.67565 3.48604 8.63437C3.47068 8.58381 3.49916 8.53005 3.54972 8.51437C5.01404 8.06669 6.34876 8.08589 7.21052 8.18061C8.14588 8.28365 8.72732 8.48973 8.75164 8.49837C8.77534 8.50719 8.79461 8.525 8.80526 8.54793C8.81592 8.57087 8.8171 8.59708 8.80854 8.62088C8.79999 8.64468 8.7824 8.66415 8.75959 8.67506C8.73677 8.68597 8.71058 8.68745 8.68668 8.67917C8.66364 8.67085 6.3446 7.86061 3.60572 8.69773C3.59644 8.70093 3.58716 8.70221 3.57788 8.70221ZM9.07932 8.20397C9.06204 8.20397 9.04476 8.19949 9.02908 8.18957C9.02204 8.18541 8.32252 7.75821 7.2934 7.44045C6.34812 7.14893 4.92252 6.89261 3.49916 7.32749C3.4486 7.34317 3.39484 7.31437 3.37916 7.26381C3.3638 7.21325 3.39228 7.15949 3.44284 7.14381C4.25532 6.89549 5.59356 6.71373 7.35484 7.25837C8.40604 7.58349 9.10044 8.00781 9.12956 8.02573C9.17468 8.05357 9.18876 8.11277 9.16092 8.15789C9.143 8.18765 9.11164 8.20397 9.07932 8.20397Z" fill="#201161"/>
<path d="M8.92228 23.716C8.87396 23.716 8.83236 23.6798 8.82692 23.6306C8.82532 23.6155 8.65796 22.1243 8.44548 21.3371C8.22692 20.5278 8.3002 19.132 8.3034 19.0731C8.3048 19.0477 8.31624 19.0239 8.3352 19.0069C8.35416 18.9899 8.3791 18.9812 8.40452 18.9826C8.42993 18.984 8.45376 18.9954 8.47074 19.0144C8.48772 19.0333 8.49648 19.0583 8.49508 19.0837C8.49444 19.0978 8.42052 20.508 8.63108 21.2872C8.8474 22.0888 9.01124 23.548 9.01796 23.6094C9.01948 23.6229 9.01814 23.6365 9.01402 23.6494C9.0099 23.6623 9.00309 23.6742 8.99405 23.6842C8.98501 23.6943 8.97394 23.7023 8.96157 23.7078C8.9492 23.7133 8.93581 23.7161 8.92228 23.716ZM12.3114 26.6018C12.3085 26.6018 12.3056 26.6018 12.3031 26.6014C12.2777 26.5992 12.2543 26.587 12.2379 26.5675C12.2215 26.548 12.2135 26.5228 12.2157 26.4974L12.8183 19.6011C12.8194 19.5886 12.8229 19.5763 12.8287 19.5651C12.8345 19.5539 12.8425 19.544 12.8522 19.5359C12.8618 19.5278 12.873 19.5216 12.885 19.5178C12.897 19.514 12.9097 19.5127 12.9223 19.5138C12.9751 19.5182 13.0141 19.565 13.0096 19.6178L12.4071 26.5141C12.4049 26.538 12.3939 26.5602 12.3762 26.5765C12.3585 26.5927 12.3354 26.6017 12.3114 26.6018Z" fill="#201161"/>
<path d="M7.13109 21.9831C7.00245 22.3812 5.71669 21.945 5.37077 21.7098C5.30037 21.6618 5.23573 21.61 5.17589 21.5559C5.21973 20.9873 5.27061 20.4394 5.32885 19.9422C5.46581 20.001 5.58037 20.0641 5.64501 20.1268C5.87285 20.3502 5.91349 21.0676 6.11829 21.3121C6.31349 21.5447 7.19061 21.7975 7.13109 21.9831ZM7.39221 22.9207C7.33877 23.2228 5.64021 23.1454 5.07573 23.0756C5.09301 22.7726 5.11157 22.4682 5.13173 22.1674C5.73141 22.3063 7.45013 22.5943 7.39221 22.9207ZM6.70325 23.9633C6.65397 24.1502 5.57301 23.9806 5.03125 23.9418C5.04085 23.7434 5.05077 23.5428 5.06133 23.3412C5.64117 23.4366 6.75797 23.7575 6.70325 23.9633ZM8.89461 13.979C8.77909 14.3383 7.47829 13.9591 7.01909 13.7201C7.15669 13.3159 7.28725 12.9386 7.40245 12.6084C7.47093 12.859 7.53333 13.1201 7.64149 13.2494C7.83669 13.482 8.95445 13.7934 8.89461 13.979ZM9.19797 15.0938C9.14421 15.3982 7.15221 15.082 6.58613 15.011C6.68117 14.7223 6.77685 14.4356 6.87061 14.1575C7.42101 14.3015 9.24885 14.8058 9.19797 15.0938ZM8.11669 15.763C8.05909 15.9786 6.88405 15.9118 6.31093 15.8593C6.37397 15.6625 6.43797 15.4638 6.50325 15.265C7.09941 15.3588 8.17365 15.5476 8.11669 15.763ZM18.2834 16.6586C17.7906 16.9054 15.7148 17.9073 15.5199 17.523C15.3557 17.1988 17.1065 16.227 17.6047 15.962C17.8057 16.1975 18.005 16.4081 18.1989 16.5825C18.2268 16.6078 18.2553 16.6327 18.2834 16.6586ZM23.8773 22.7223C23.1477 23.0177 19.997 24.4676 19.8828 24.0494C19.7797 23.6705 22.7116 22.193 23.4025 21.905C23.5753 22.1719 23.7346 22.4446 23.8773 22.7223ZM24.3762 23.9428C23.5391 24.1374 21.9093 24.6513 21.861 24.3214C21.8172 24.0231 23.2988 23.3319 24.0546 23.0903C24.1807 23.3697 24.2895 23.6542 24.3762 23.9428ZM19.5039 17.7242C18.9938 17.8366 18.0789 18.0257 17.7388 18.0161C17.2562 18.0023 17.4252 18.3911 17.1564 18.6324C16.8879 18.8734 14.8425 19.187 14.6975 18.9217C14.5532 18.6564 16.533 18.2951 16.5874 17.8609C16.6281 17.5393 18.1673 17.337 18.9615 17.2535C19.1359 17.4039 19.3173 17.561 19.5039 17.7242ZM20.789 18.8855C20.2521 19.146 16.414 20.8622 16.0117 20.3438C15.8101 20.0839 16.9554 19.4759 18.1244 18.873C18.2463 18.81 19.4185 18.2695 20.0306 18.1892C20.2799 18.4122 20.534 18.6446 20.789 18.8855ZM19.8847 21.9758C19.8396 21.7316 21.6293 21.0458 22.573 20.7754C22.7618 21.0062 22.9436 21.2417 23.1148 21.4823C23.1148 21.482 20.0057 22.6311 19.8847 21.9758ZM17.3084 15.5988C16.4034 16.1182 14.605 17.0753 14.3928 16.6103C14.2969 16.3988 15.7765 15.4382 16.7781 14.881C16.9522 15.13 17.1298 15.3719 17.3084 15.5988ZM16.4882 14.4574C15.613 14.8436 14.454 15.2695 14.3301 14.8791C14.2745 14.7041 15.1839 14.1652 16.0268 13.7406C16.1746 13.9774 16.3292 14.2183 16.4882 14.4574ZM8.75829 24.0154C8.78613 24.0033 8.81909 23.9934 8.85621 23.986C8.79093 24.3198 8.68245 24.8522 8.54101 25.4564C8.4573 25.4926 8.37056 25.5214 8.28181 25.5425C7.91765 25.6286 6.75285 25.554 6.82773 25.1482C6.86261 24.9588 7.63765 25.0503 7.88661 24.9114C8.14773 24.7658 8.48885 24.1332 8.75829 24.0154ZM10.4527 23.986C10.5436 24.2375 9.34997 24.874 9.34997 24.874C9.34997 24.874 9.24853 24.9895 9.07861 25.1271L8.96149 23.971C9.36565 23.9319 10.3612 23.7326 10.4527 23.986ZM8.39317 26.066C8.31957 26.3585 8.23957 26.6577 8.15477 26.9508C7.69397 26.827 6.04405 26.4071 6.15093 26.0609C6.25621 25.7185 7.87029 25.9617 8.39317 26.066ZM8.08085 27.2001C8.01941 27.403 7.95573 27.6017 7.88981 27.7911C7.43797 27.6385 6.65141 27.3377 6.70613 27.1025C6.76277 26.8564 7.57941 27.0538 8.08085 27.2001ZM9.17301 26.0609L9.09685 25.3092C9.52341 25.1578 11.0655 24.8468 11.1759 25.1271C11.3029 25.4503 9.58741 25.9086 9.17301 26.0609ZM9.25813 26.9009L9.19797 26.3076C9.66293 26.17 10.3394 26.0071 10.4239 26.1962C10.5209 26.4132 9.75029 26.7262 9.25813 26.9009ZM12.2217 26.9006C12.2181 27.0474 12.2111 27.2551 12.1983 27.4942C11.7772 27.5473 11.1013 27.5972 11.0572 27.3844C11.0076 27.145 11.7746 26.9774 12.2217 26.9006ZM12.5317 26.8529V26.8708L12.5196 26.8631L12.5084 26.8558C12.5237 26.8542 12.5317 26.8529 12.5317 26.8529ZM12.182 27.7697C12.1689 27.97 12.1509 28.1834 12.1282 28.395C11.6524 28.4423 10.2687 28.6295 10.2236 28.427C10.1711 28.1937 11.6658 27.859 12.182 27.7697Z" fill="#E36214"/>
<path d="M29.7255 12.3228C29.5361 12.5189 29.2964 12.6005 29.0356 12.6194C28.9962 12.6223 28.9566 12.6258 28.9169 12.6296C28.7697 12.6568 28.6257 12.6962 28.4849 12.749C28.407 12.7872 28.3306 12.8282 28.2558 12.8719C28.0922 12.9672 27.9345 13.0744 27.7834 13.1893C27.483 13.4421 27.211 13.7285 26.9684 14.0405C26.9588 14.0536 26.9495 14.0671 26.9399 14.0802C26.8612 14.1919 26.2577 13.8424 26.1863 13.9596C26.1294 14.0533 26.6033 14.6127 26.5518 14.7096C26.4932 14.8188 26.4391 14.9298 26.3892 15.0431C26.2602 15.3887 26.17 15.748 26.1137 16.1141C26.1092 16.1554 26.1054 16.197 26.1018 16.2386C26.0804 16.4847 26.074 16.7317 26.0804 16.9791C26.0852 17.1647 26.0977 17.3503 26.1175 17.5352V17.5359C26.2097 18.1439 26.3866 18.7269 26.6113 19.2965C26.6129 19.2994 26.6138 19.3023 26.6148 19.3055C26.7054 19.5212 26.8004 19.7352 26.8974 19.9487C26.9649 20.0965 27.0324 20.244 27.1006 20.3916C27.1354 20.4674 27.1703 20.5429 27.2052 20.6188C27.315 20.8575 27.4247 21.0962 27.5367 21.334C27.587 21.4408 27.1953 21.8504 27.2465 21.957C27.3028 22.0738 27.8023 21.8869 27.8599 22.0024C27.9188 22.1202 27.9774 22.2386 28.0337 22.358C28.081 22.4584 27.6308 22.7176 27.674 22.82C27.6954 22.8716 28.2122 22.765 28.2324 22.8172C28.2439 22.8466 28.2548 22.8764 28.266 22.9068C28.411 23.3077 28.4772 23.7432 28.5034 24.1692C28.53 24.5944 28.4855 25.037 28.3822 25.4488C28.3428 25.605 28.2964 25.7596 28.2391 25.91C28.1604 26.1164 28.0785 26.3253 27.9703 26.5176C27.8743 26.6885 27.761 26.8524 27.6369 27.006C27.5342 27.1333 26.977 26.7791 26.8622 26.8914C26.7991 26.9528 27.1818 27.4885 27.1162 27.5471C27.0522 27.6047 26.9866 27.6607 26.9207 27.7154C26.7175 27.8834 26.5114 28.0536 26.2862 28.1893C26.0615 28.325 25.8158 28.4357 25.5658 28.5084C25.3815 28.5618 25.1924 28.5903 25.0039 28.621C24.7287 28.6658 24.4679 28.6994 24.1914 28.6815C23.9959 28.669 23.801 28.6463 23.6052 28.6444C23.3399 28.6424 23.107 28.5304 22.9153 28.3484C22.7236 28.1656 22.6407 27.8943 22.6295 27.6322C22.619 27.3804 22.7463 27.0924 22.9153 26.9167C23.091 26.7343 23.3562 26.6184 23.6052 26.62C23.9252 26.6226 24.2442 26.6831 24.5639 26.6568C24.7684 26.6236 24.9719 26.5858 25.1678 26.516C25.3188 26.4376 25.4609 26.3423 25.5972 26.2383C25.5982 26.2376 25.5994 26.2364 25.6004 26.2357C25.6718 26.1756 25.7422 26.1141 25.811 26.0508C25.9431 25.9292 26.0692 25.8002 26.1834 25.6613C26.2516 25.5592 26.3121 25.453 26.3655 25.3423C26.3722 25.3282 26.3786 25.3144 26.385 25.3C26.4558 25.1042 26.5105 24.901 26.5466 24.6956C26.5652 24.4831 26.5633 24.269 26.5438 24.0565C26.5095 23.8524 26.4586 23.6524 26.3898 23.4584C26.361 23.3957 26.3306 23.3343 26.2993 23.2728C26.1748 23.0274 26.0545 22.78 25.9361 22.5311C25.8321 22.3132 25.7306 22.094 25.6292 21.8744C25.6129 21.8396 25.5972 21.8047 25.5809 21.7698C25.4743 21.5397 25.3671 21.3096 25.2622 21.0792C25.1713 20.8802 26.0478 20.8088 25.961 20.6076C25.9409 20.5605 24.955 20.3848 24.9351 20.3378C24.731 19.8588 24.5377 19.3714 24.4014 18.8671C24.2724 18.3916 24.1959 17.8984 24.154 17.4063C24.1521 17.382 24.5489 17.0716 24.547 17.0472C24.5297 16.8328 24.1242 16.9036 24.1278 16.6882C24.1297 16.5794 24.1345 16.4712 24.1418 16.3631C24.1495 16.2408 24.6282 16.2508 24.6433 16.1288C24.6599 15.9954 24.2113 15.7304 24.2324 15.5989C24.2932 15.2194 24.3777 14.8479 24.515 14.4863C24.6391 14.1596 24.7809 13.8466 24.9489 13.5468C25.0279 13.4053 25.1137 13.2668 25.2055 13.1314C25.2558 13.0578 25.3063 12.9848 25.3585 12.9125C25.5994 12.5781 25.8628 12.2594 26.1588 11.9775C26.5134 11.6392 26.9082 11.3295 27.3326 11.0911C27.5079 10.9928 27.6906 10.9023 27.8782 10.828C27.9665 10.7935 28.0561 10.7628 28.1463 10.7362C28.4343 10.6527 28.738 10.6168 29.0356 10.5954C29.2926 10.5768 29.5425 10.7173 29.7255 10.892C29.9172 11.0744 29.9998 11.3458 30.011 11.6076C30.0222 11.8594 29.8945 12.1474 29.7255 12.3228Z" fill="#FD9758"/>
<path d="M25.7363 13.2658C26.032 12.9864 26.4486 13.8274 26.9356 14.0789C26.936 14.0789 26.936 14.0789 26.9363 14.0792C26.9369 14.0792 26.9372 14.0795 26.9382 14.0799C26.7968 14.2808 26.6659 14.4911 26.55 14.7093C26.55 14.7096 25.3328 13.6472 25.7363 13.2658ZM25.4934 16.4437C25.3097 16.6475 24.3478 16.452 24.1401 16.3627C24.1478 16.2405 24.1596 16.1179 24.1747 15.996C24.1913 15.8626 24.2096 15.7301 24.2307 15.5986C24.2307 15.5983 25.7104 16.2027 25.4934 16.4437ZM25.3779 17.0706C25.2611 17.2587 24.5971 17.3698 24.152 17.4056C24.15 17.3813 24.1478 17.3573 24.1462 17.333C24.1289 17.1186 24.1222 16.9029 24.126 16.6875C24.6643 16.7432 25.5065 16.8639 25.3779 17.0706ZM26.8032 20.2146C26.6476 19.9375 24.9936 20.3394 24.9334 20.3371C24.9532 20.3842 24.9734 20.4315 24.9939 20.4786C25.0806 20.6795 25.1696 20.8795 25.2604 21.0786C25.2604 21.0786 27.1408 20.8159 26.8032 20.2146ZM26.4899 21.9647C26.0617 22.2578 26.8438 22.6959 27.8585 22.0021C27.8009 21.8866 27.7436 21.7704 27.6873 21.6536C27.6361 21.5471 27.5856 21.4405 27.5356 21.3336C27.5356 21.3336 27.5827 21.5141 27.2774 21.6431C26.9721 21.7717 26.6652 21.8443 26.4899 21.9647ZM28.231 22.8168C27.4092 23.116 26.8601 22.8232 27.2339 22.6184C27.4096 22.5224 27.7161 22.4645 28.0217 22.3615C28.0256 22.3605 28.0291 22.3589 28.0323 22.3576C28.1036 22.508 28.1712 22.6603 28.231 22.8168ZM26.2963 26.5839C25.7987 26.5839 26.2304 26.956 27.1152 27.5464C27.1808 27.4879 27.2451 27.4277 27.3081 27.3663C27.423 27.2539 27.5331 27.1327 27.6358 27.0053C27.6358 27.0053 25.6848 25.6021 26.2963 26.5839ZM29.7235 12.3224C29.534 12.5186 29.2944 12.6002 29.0336 12.6191C28.9942 12.6219 28.9545 12.6255 28.9148 12.6293C28.7676 12.6565 28.6236 12.6959 28.4828 12.7487C28.405 12.7868 28.3286 12.8278 28.2537 12.8715C27.8272 12.1608 27.8041 11.3928 27.8761 10.8271C27.9644 10.7925 28.054 10.7618 28.1443 10.7352C28.4323 10.6517 28.736 10.6159 29.0336 10.5944C29.2905 10.5759 29.5404 10.7163 29.7235 10.8911C29.9152 11.0735 29.9977 11.3448 30.0089 11.6066C30.0201 11.8591 29.8924 12.1471 29.7235 12.3224Z" fill="#E36214"/>
<path d="M7.36886 28.9684C7.33482 29.0249 7.29808 29.0797 7.25878 29.1326C6.96662 29.5246 6.4399 30.0395 5.54454 30.1092C4.97078 30.1537 3.9567 29.7236 4.00982 29.202C4.0479 28.8292 4.89846 28.0849 4.89846 28.0849V28.083C5.60822 28.2308 6.92854 28.5502 7.36886 28.9684Z" fill="#E36214"/>
<path d="M4.47869 29.7579C4.43837 29.7579 4.40093 29.7323 4.38749 29.692C4.30749 29.4501 4.39901 29.2047 4.65213 28.9823C4.83037 28.8258 5.02717 28.7346 5.03549 28.7307C5.08349 28.7087 5.14077 28.7298 5.16285 28.7781C5.18493 28.8264 5.16381 28.8831 5.11581 28.9055C5.10909 28.9087 4.43517 29.2245 4.56989 29.6319C4.57789 29.656 4.57598 29.6823 4.56458 29.7051C4.55318 29.7278 4.53322 29.7451 4.50909 29.7531C4.49885 29.7563 4.48861 29.7579 4.47869 29.7579ZM5.17565 30.0232C5.15639 30.0232 5.1376 30.0173 5.12168 30.0065C5.10577 29.9957 5.09347 29.9803 5.08637 29.9624C4.92157 29.5467 5.64285 29.1298 5.72573 29.0837C5.77213 29.0581 5.83037 29.0744 5.85629 29.1208C5.88221 29.1672 5.86557 29.2255 5.81917 29.2514C5.60317 29.372 5.18397 29.6872 5.26493 29.8917C5.28445 29.941 5.26045 29.9967 5.21117 30.0162C5.19965 30.021 5.18749 30.0232 5.17565 30.0232ZM9.27645 30.3727C9.23613 30.3727 9.19837 30.3471 9.18525 30.3064C9.06525 29.9394 9.59037 29.5183 9.65053 29.4715C9.69245 29.4389 9.75261 29.4466 9.78525 29.4885C9.81789 29.5304 9.81021 29.5906 9.76829 29.6232C9.64317 29.7205 9.30141 30.044 9.36765 30.2469C9.38429 30.2971 9.35677 30.3515 9.30621 30.3679C9.29629 30.3714 9.28605 30.3727 9.27645 30.3727ZM9.81469 30.6501C9.79046 30.6501 9.76713 30.6409 9.74938 30.6244C9.73164 30.6079 9.72078 30.5853 9.71901 30.5611C9.69053 30.1813 10.3283 29.709 10.4009 29.6565C10.4438 29.6255 10.504 29.6351 10.535 29.6779C10.566 29.7208 10.5564 29.781 10.5136 29.812C10.2723 29.9864 9.89533 30.3403 9.91069 30.5467C9.91254 30.5721 9.90424 30.5972 9.88762 30.6164C9.871 30.6357 9.84742 30.6476 9.82205 30.6495C9.81949 30.6501 9.81725 30.6501 9.81469 30.6501ZM12.808 30.5896C12.759 30.5896 12.7174 30.5525 12.7126 30.5029C12.6364 29.7115 13.3347 29.317 13.3644 29.3007C13.3867 29.2883 13.413 29.2853 13.4375 29.2923C13.4496 29.2958 13.4609 29.3016 13.4708 29.3095C13.4807 29.3173 13.4889 29.3271 13.495 29.3381C13.5011 29.3491 13.505 29.3613 13.5064 29.3738C13.5079 29.3863 13.5068 29.399 13.5033 29.4111C13.4999 29.4233 13.494 29.4346 13.4862 29.4444C13.4783 29.4543 13.4686 29.4625 13.4576 29.4687C13.4323 29.4827 12.84 29.8207 12.904 30.4843C12.9052 30.4969 12.9039 30.5095 12.9002 30.5216C12.8965 30.5336 12.8905 30.5449 12.8825 30.5546C12.8744 30.5643 12.8646 30.5723 12.8534 30.5782C12.8423 30.5841 12.8301 30.5878 12.8176 30.589C12.8144 30.5896 12.8112 30.5896 12.808 30.5896ZM13.4108 30.8069C13.3689 30.8069 13.3305 30.7794 13.3187 30.7371C13.1574 30.1733 13.8201 29.6779 13.8483 29.6571C13.8908 29.6258 13.951 29.6347 13.9824 29.6776C14.0137 29.7202 14.0048 29.7803 13.9619 29.8117C13.9561 29.8162 13.3785 30.2488 13.503 30.6843C13.5177 30.7352 13.488 30.7883 13.4371 30.8031C13.4284 30.8056 13.4195 30.8069 13.4108 30.8069ZM15.9881 28.4117H14.9616C14.9084 28.4117 14.8656 28.3688 14.8656 28.3157C14.8656 28.2626 14.9084 28.2197 14.9616 28.2197H15.8406C15.152 26.6114 15.424 25.2447 15.7808 24.3717C16.1779 23.4005 16.7484 22.8306 16.7724 22.8069C16.8102 22.7698 16.871 22.7701 16.9081 22.8079C16.9452 22.8456 16.9449 22.9064 16.9075 22.9435C16.9017 22.9493 16.3372 23.5144 15.9558 24.4517C15.446 25.7039 15.4864 26.9906 16.0755 28.276C16.0892 28.3058 16.0867 28.3403 16.0691 28.3679C16.0603 28.3814 16.0484 28.3925 16.0342 28.4001C16.0201 28.4078 16.0042 28.4118 15.9881 28.4117Z" fill="#201161"/>
<path d="M12.531 4.92579C12.5182 4.92579 12.5051 4.92323 12.4926 4.91779C12.4693 4.90749 12.4511 4.88843 12.4419 4.86475C12.4326 4.84107 12.4332 4.8147 12.4433 4.79139C12.4494 4.77795 12.5927 4.45571 12.9502 4.16323C13.2785 3.89443 13.8574 3.60035 14.7499 3.72803C14.8023 3.73539 14.8388 3.78403 14.8315 3.83651C14.8241 3.88899 14.7751 3.92547 14.723 3.91811C13.1582 3.69475 12.6407 4.82083 12.6193 4.86883C12.6116 4.8858 12.5992 4.9002 12.5835 4.9103C12.5678 4.9204 12.5496 4.92578 12.531 4.92579ZM13.2062 5.09475C13.1844 5.09475 13.163 5.08739 13.1447 5.07267C13.1252 5.05641 13.1129 5.03305 13.1105 5.00773C13.1082 4.98241 13.116 4.9572 13.1323 4.93763C13.1479 4.91875 13.523 4.47875 14.2622 4.58083C14.2747 4.58255 14.2867 4.58672 14.2975 4.59308C14.3084 4.59945 14.3179 4.6079 14.3255 4.61794C14.3331 4.62799 14.3387 4.63943 14.3419 4.65162C14.3451 4.66381 14.3458 4.67651 14.3441 4.68899C14.3424 4.70147 14.3382 4.71349 14.3318 4.72436C14.3255 4.73523 14.317 4.74474 14.307 4.75235C14.2969 4.75996 14.2855 4.76551 14.2733 4.7687C14.2611 4.77188 14.2484 4.77263 14.2359 4.77091C13.6011 4.68323 13.2833 5.05635 13.2801 5.06019C13.2609 5.08291 13.2337 5.09475 13.2062 5.09475ZM9.13193 4.95875C9.08969 4.95875 9.05065 4.93059 9.03913 4.88771C9.02889 4.85059 8.77897 3.99811 7.38729 3.91907C7.3747 3.91836 7.36236 3.91518 7.351 3.90969C7.33964 3.9042 7.32948 3.89653 7.32109 3.8871C7.31271 3.87768 7.30627 3.86669 7.30214 3.85476C7.29802 3.84284 7.29629 3.83022 7.29705 3.81763C7.29779 3.80504 7.30099 3.79273 7.30649 3.78138C7.31198 3.77003 7.31966 3.75988 7.32908 3.7515C7.3385 3.74312 7.34948 3.73668 7.36139 3.73254C7.3733 3.7284 7.38591 3.72665 7.39849 3.72739C8.93673 3.81475 9.21385 4.79651 9.22505 4.83843C9.23849 4.88963 9.20809 4.94211 9.15689 4.95587C9.14825 4.95747 9.13993 4.95875 9.13193 4.95875ZM8.69257 5.22243C8.66377 5.22243 8.63529 5.20963 8.61641 5.18499C8.61161 5.17891 8.13481 4.57315 7.50473 4.66019C7.45225 4.66755 7.40361 4.63075 7.39657 4.57827C7.38953 4.52579 7.42601 4.47715 7.47849 4.47011C8.21993 4.36739 8.74665 5.03939 8.76841 5.06787C8.77936 5.08206 8.78612 5.09903 8.78792 5.11686C8.78972 5.13469 8.78649 5.15267 8.7786 5.16875C8.7707 5.18484 8.75846 5.1984 8.74325 5.20789C8.72805 5.21737 8.71049 5.22241 8.69257 5.22243Z" fill="#201161"/>
</svg>
