<svg width="32" height="32" viewBox="0 0 32 32" fill="none" xmlns="http://www.w3.org/2000/svg">
<path d="M27.6907 16.0735V18.8917C27.6907 20.7621 26.1743 22.2777 24.3046 22.2777H14.7652C13.8734 20.2708 13.2817 18.1782 12.9727 16.0735H27.6907Z" fill="#73DA8C"/>
<path d="M14.7663 22.2775H7.69925C5.82881 22.2775 4.3125 20.7619 4.3125 18.8914V16.0732H12.9738C13.2828 18.178 13.8746 20.2706 14.7663 22.2775Z" fill="#29CE69"/>
<path d="M26.5431 16.7189C27.9562 16.7189 29.1018 15.5734 29.1018 14.1602C29.1018 12.7471 27.9562 11.6016 26.5431 11.6016C25.1299 11.6016 23.9844 12.7471 23.9844 14.1602C23.9844 15.5734 25.1299 16.7189 26.5431 16.7189Z" fill="#FFCBBE"/>
<path d="M5.45712 16.7192C6.87025 16.7192 8.01581 15.5736 8.01581 14.1605C8.01581 12.7474 6.87025 11.6018 5.45712 11.6018C4.044 11.6018 2.89844 12.7474 2.89844 14.1605C2.89844 15.5736 4.044 16.7192 5.45712 16.7192Z" fill="#FFCBBE"/>
<path d="M23.2041 31.9996H22.7959C18.6533 30.4859 16.5776 28.0073 16.4062 25.335H21.6389C23.1288 26.5963 24.1899 28.3482 24.573 30.3416C24.7384 31.2018 24.0797 31.9996 23.2041 31.9996Z" fill="#F8EA69"/>
<path d="M22.7989 31.9996H8.80129C7.92566 31.9996 7.26635 31.2018 7.43179 30.3416C7.81554 28.3482 8.8766 26.5963 10.3665 25.335H16.4092C17.9944 27.8228 20.1114 30.0989 22.7989 31.9996Z" fill="#F6CA56"/>
<path d="M21.6412 25.3351C21.2967 26.805 20.3921 28.0593 19.1649 28.8609C16.9337 27.8338 15.4501 25.8827 15.67 24.0918H19.7038C20.4017 24.4189 21.0531 24.8369 21.6412 25.3351Z" fill="#73DA8C"/>
<path d="M19.1623 28.8609C18.2532 29.4545 17.1677 29.7997 16.001 29.7997C13.2594 29.7997 10.9627 27.8939 10.3633 25.3351C10.9512 24.8368 11.6027 24.4187 12.3007 24.0918H15.6674C16.5998 25.7781 17.7607 27.3832 19.1623 28.8609Z" fill="#29CE69"/>
<path d="M19.6656 24.0918C19.6359 25.4465 18.8704 26.6202 17.7533 27.2294C16.1557 26.4764 15.3779 25.3274 15.6698 24.0918H19.6656Z" fill="#FFCBBE"/>
<path d="M17.7489 27.2294C17.2292 27.5127 16.6331 27.6736 15.9989 27.6736C14.0022 27.6736 12.3797 26.0775 12.3359 24.0918H15.6654C16.2737 25.1924 16.9705 26.2417 17.7489 27.2294Z" fill="#FFB39D"/>
<path d="M26.5883 14.1667C26.5883 19.9995 21.8727 24.73 16.047 24.7563C10.1876 18.8309 10.5477 9.26615 14.4316 3.69303C14.9504 3.61557 15.4742 3.57683 15.9988 3.57715C21.847 3.57709 26.5883 8.31846 26.5883 14.1667Z" fill="#FFDDCF"/>
<path d="M16.0481 24.7567H15.9998C10.1509 24.7567 5.41016 20.016 5.41016 14.1671C5.41016 8.85136 9.32678 4.44992 14.4326 3.69336C11.7934 10.1017 12.0883 18.1204 16.0481 24.7567Z" fill="#FFCBBE"/>
<path d="M7.55238 8.47376C6.74625 9.3327 6.07569 10.5326 5.6005 12.1558C4.95081 12.358 4.28575 12.4218 3.57812 12.4218C3.57812 11.7386 3.6335 11.0684 3.73906 10.4155C3.73906 10.4155 5.19556 8.1807 7.55238 8.47376Z" fill="#5972A5"/>
<path d="M20.0127 7.50458C18.4346 8.60433 15.9783 9.79289 12.7918 10.6331C12.207 9.28114 12.3799 7.6822 13.4511 6.6592C15.6944 6.40739 18.1925 6.62633 20.0127 7.50458Z" fill="#687DAA"/>
<path d="M13.4535 6.65918C13.1232 7.94887 12.9017 9.28037 12.7942 10.6331C11.5967 10.9494 10.2964 11.2169 8.90086 11.4114C8.75223 11.4321 8.61586 11.321 8.60861 11.1712C8.55504 10.0704 8.81548 8.89118 9.10167 8.02674C10.0977 7.34237 11.6977 6.85624 13.4535 6.65918Z" fill="#5972A5"/>
<path d="M28.4246 12.421C27.7415 12.4213 27.0614 12.3308 26.4022 12.1519C25.927 10.53 25.2684 9.35044 24.4609 8.49219C27.1338 8.53337 28.2636 10.4173 28.2636 10.4173C28.3712 11.0798 28.425 11.7499 28.4246 12.421Z" fill="#687DAA"/>
<path d="M10.8783 17.9751C11.9222 17.9751 12.7684 17.3012 12.7684 16.47C12.7684 15.6387 11.9222 14.9648 10.8783 14.9648C9.83449 14.9648 8.98828 15.6387 8.98828 16.47C8.98828 17.3012 9.83449 17.9751 10.8783 17.9751Z" fill="#FFA1AC"/>
<path d="M21.1244 17.9751C22.1683 17.9751 23.0145 17.3012 23.0145 16.47C23.0145 15.6387 22.1683 14.9648 21.1244 14.9648C20.0806 14.9648 19.2344 15.6387 19.2344 16.47C19.2344 17.3012 20.0806 17.9751 21.1244 17.9751Z" fill="#FFA1AC"/>
<path d="M11.9805 15.4901C11.8561 15.4901 11.7369 15.4407 11.649 15.3528C11.5611 15.2649 11.5117 15.1457 11.5117 15.0213V14.2488C11.5117 13.9898 11.7216 13.78 11.9805 13.78C12.2393 13.78 12.4492 13.9898 12.4492 14.2488V15.0213C12.4492 15.1457 12.3998 15.2649 12.3119 15.3528C12.224 15.4407 12.1048 15.4901 11.9805 15.4901ZM20.0222 15.4901C19.8978 15.4901 19.7786 15.4407 19.6907 15.3528C19.6028 15.2649 19.5534 15.1457 19.5534 15.0213V14.2488C19.5534 13.9898 19.7633 13.78 20.0222 13.78C20.281 13.78 20.4909 13.9898 20.4909 14.2488V15.0213C20.4909 15.1457 20.4415 15.2649 20.3536 15.3528C20.2657 15.4407 20.1465 15.4901 20.0222 15.4901ZM16.0013 15.95C15.7334 15.9499 15.4686 15.8925 15.2248 15.7814C14.981 15.6704 14.7638 15.5084 14.5878 15.3063C14.5062 15.2126 14.4651 15.0903 14.4736 14.9663C14.4821 14.8423 14.5395 14.7267 14.6332 14.645C14.6796 14.6046 14.7335 14.5736 14.7919 14.554C14.8502 14.5344 14.9119 14.5264 14.9733 14.5307C15.0347 14.5349 15.0947 14.5512 15.1498 14.5786C15.205 14.606 15.2542 14.644 15.2946 14.6904C15.473 14.8951 15.7307 15.0125 16.0013 15.0125C16.2719 15.0125 16.5295 14.8951 16.708 14.6904C16.7484 14.644 16.7976 14.606 16.8527 14.5786C16.9079 14.5512 16.9678 14.535 17.0293 14.5307C17.0907 14.5265 17.1523 14.5344 17.2107 14.5541C17.269 14.5737 17.3229 14.6046 17.3693 14.645C17.4158 14.6855 17.4537 14.7347 17.4811 14.7898C17.5085 14.8449 17.5248 14.9049 17.529 14.9663C17.5332 15.0277 17.5253 15.0893 17.5057 15.1477C17.4861 15.206 17.4552 15.2599 17.4147 15.3063C17.2388 15.5084 17.0216 15.6704 16.7778 15.7814C16.534 15.8925 16.2692 15.95 16.0013 15.95Z" fill="#495560"/>
<path d="M28.2597 10.4181C25.0371 7.99134 20.1889 7.28246 15.9999 7.24902C15.0927 7.26252 14.1822 7.30115 13.2789 7.37396C12.6231 4.26834 14.2653 1.02727 16.4017 0.00683594C22.3986 0.197398 27.3222 4.63946 28.2597 10.4181Z" fill="#73DA8C"/>
<path d="M16.4044 0.0064375C14.9313 2.18719 13.8766 4.70087 13.2817 7.3735C9.78806 7.65681 6.40138 8.46356 3.74219 10.4151C4.70156 4.509 9.82544 0 16.0026 0C16.1372 0 16.2711 0.0019375 16.4044 0.0064375Z" fill="#29CE69"/>
<path d="M19.9958 5.00295C20.0255 5.17338 19.8848 5.32613 19.713 5.30551C18.531 5.16363 17.2866 5.08751 16.0012 5.08751C15.284 5.08751 14.5796 5.11132 13.8919 5.15707C13.6184 4.05157 14.1513 2.69757 15.1017 2.2307C15.1729 2.22607 15.2442 2.22372 15.3155 2.22363H16.6863C18.3443 2.22357 19.7209 3.42407 19.9958 5.00295Z" fill="#687DAA"/>
<path d="M15.0999 2.23145C14.6286 3.16763 14.2243 4.14632 13.8901 5.15782C13.3547 5.19296 12.8204 5.2425 12.2877 5.30638C12.118 5.3267 11.9747 5.17726 12.0038 5.00888C12.2646 3.49607 13.5373 2.3292 15.0999 2.23145Z" fill="#5972A5"/>
</svg>
