<svg width="25" height="24" viewBox="0 0 25 24" fill="none" xmlns="http://www.w3.org/2000/svg">
<path d="M11.0256 21.7103L11.0256 21.7103L11.0217 21.7064L9.50169 20.1863C9.37182 20.0565 9.1893 19.9636 9.05401 19.9078C8.91958 19.8522 8.72688 19.7899 8.54813 19.7899H6.38812C5.36429 19.7899 4.53812 18.9637 4.53812 17.9398V15.7799C4.53812 15.6011 4.47577 15.4084 4.42024 15.274C4.36436 15.1387 4.27153 14.9562 4.14167 14.8263L2.62168 13.3063L2.26813 13.6599L2.62168 13.3063C2.2739 12.9585 2.07812 12.4951 2.07812 11.9998C2.07812 11.4998 2.26717 11.04 2.61769 10.6973L2.61771 10.6973L2.62168 10.6934L4.14167 9.17334C4.14167 9.17334 4.14167 9.17334 4.14167 9.17334C4.27153 9.04348 4.36436 8.86099 4.42024 8.72569C4.47577 8.59127 4.53812 8.39858 4.53812 8.21981V6.0599C4.53812 5.03602 5.36429 4.2098 6.38812 4.2098H8.54813C8.72688 4.2098 8.91959 4.14746 9.05401 4.09194C9.1893 4.03605 9.37182 3.94322 9.50169 3.81336L9.50169 3.81335L11.0217 2.29333C11.7064 1.6086 12.9498 1.6086 13.6346 2.29334L15.1546 3.81335L15.5049 3.46305L15.1546 3.81336C15.2844 3.94322 15.4669 4.03605 15.6022 4.09194C15.7367 4.14746 15.9294 4.2098 16.1081 4.2098H18.2681C19.292 4.2098 20.1181 5.03602 20.1181 6.0599V8.21981C20.1181 8.39858 20.1805 8.59127 20.236 8.72569C20.2919 8.86099 20.3847 9.04349 20.5146 9.17334L22.0346 10.6934L22.3881 10.3398L22.0346 10.6934C22.3824 11.0411 22.5781 11.5046 22.5781 11.9998C22.5781 12.4999 22.3891 12.9596 22.0386 13.3024L22.0385 13.3024L22.0346 13.3063L20.5146 14.8263C20.3847 14.9562 20.2919 15.1387 20.236 15.274C20.1805 15.4084 20.1181 15.6011 20.1181 15.7799V17.9398C20.1181 18.9637 19.292 19.7899 18.2681 19.7899H16.1081C15.9294 19.7899 15.7367 19.8522 15.6022 19.9078C15.4669 19.9636 15.2844 20.0565 15.1546 20.1863L13.6346 21.7064L13.6345 21.7063L13.6306 21.7103C13.2879 22.0608 12.8282 22.2498 12.3281 22.2498C11.828 22.2498 11.3683 22.0608 11.0256 21.7103ZM4.49456 14.4734L4.84811 14.1198L4.49456 14.4734C4.80124 14.7801 5.03812 15.3531 5.03812 15.7799V17.9398C5.03812 18.6859 5.64191 19.2899 6.38812 19.2899H8.54813C8.97491 19.2899 9.54791 19.5267 9.85458 19.8334L11.3746 21.3534L11.7281 20.9998L11.3746 21.3534C11.8898 21.8687 12.7664 21.8687 13.2817 21.3534L12.9281 20.9998L13.2817 21.3534L14.8017 19.8334C15.1083 19.5267 15.6813 19.2899 16.1081 19.2899H18.2681C19.0143 19.2899 19.6181 18.6859 19.6181 17.9398V15.7799C19.6181 15.3531 19.855 14.7801 20.1617 14.4734L19.8081 14.1198L20.1617 14.4734L21.6817 12.9534C21.933 12.702 22.0781 12.3659 22.0781 11.9998C22.0781 11.6338 21.933 11.2977 21.6817 11.0463L20.1617 9.5263L19.8081 9.87985L20.1617 9.52629C19.855 9.21961 19.6181 8.64657 19.6181 8.21981V6.0599C19.6181 5.31383 19.0143 4.7098 18.2681 4.7098H16.1081C15.6813 4.7098 15.1083 4.47297 14.8017 4.16631L13.2817 2.64629L12.9281 2.99984L13.2817 2.64629C12.7664 2.13103 11.8898 2.13103 11.3746 2.64629L11.7281 2.99984L11.3746 2.64629L9.85457 4.16631C9.54791 4.47297 8.97491 4.7098 8.54813 4.7098H6.38812C5.64191 4.7098 5.03812 5.31383 5.03812 6.0599V8.21981C5.03812 8.64657 4.80124 9.21961 4.49456 9.52629L4.84811 9.87985L4.49456 9.5263L2.97457 11.0463C2.72324 11.2977 2.57812 11.6338 2.57812 11.9998C2.57812 12.3659 2.72324 12.702 2.97457 12.9534L4.49456 14.4734Z" fill="#7B8697" stroke="#7B8697"/>
<path d="M15.3303 15.5C15.0432 15.5 14.8203 15.2706 14.8203 15C14.8203 14.7261 15.0465 14.5 15.3203 14.5C15.5942 14.5 15.8203 14.7261 15.8203 15C15.8203 15.2804 15.5976 15.5 15.3303 15.5Z" fill="#7B8697" stroke="#7B8697"/>
<path d="M9.33813 9.5C9.05103 9.5 8.82812 9.27062 8.82812 9C8.82812 8.72614 9.05427 8.5 9.32812 8.5C9.60198 8.5 9.82812 8.72614 9.82812 9C9.82812 9.28043 9.60546 9.5 9.33813 9.5Z" fill="#7B8697" stroke="#7B8697"/>
<path d="M9.32562 15.75C9.13562 15.75 8.94563 15.68 8.79563 15.53C8.50563 15.24 8.50563 14.7599 8.79563 14.4699L14.7956 8.46994C15.0856 8.17994 15.5656 8.17994 15.8556 8.46994C16.1456 8.75994 16.1456 9.24 15.8556 9.53L9.85562 15.53C9.70562 15.68 9.51562 15.75 9.32562 15.75Z" fill="#7B8697"/>
</svg>
