<svg width="32" height="32" viewBox="0 0 32 32" fill="none" xmlns="http://www.w3.org/2000/svg">
<g clip-path="url(#clip0_1971_211413)">
<path d="M19.1834 9.60979C17.5027 8.76954 16.957 7.03241 16.7805 6.05679C16.7069 5.65016 16.3566 5.35254 15.9434 5.35254C15.5301 5.35254 15.1799 5.65016 15.1062 6.05679C14.9297 7.03229 14.384 8.76954 12.7034 9.60979C10.2922 10.8154 10.2922 13.6787 12.402 14.5829C14.4611 15.4654 15.9434 13.1135 15.9434 13.1135C15.9434 13.1135 17.4256 15.4653 19.4847 14.5829C21.5946 13.6787 21.5946 10.8154 19.1834 9.60979Z" fill="#F4DBCE"/>
<path d="M17.3434 10.0846C17.3434 10.7659 16.6265 11.4769 15.9451 11.4769C15.2638 11.4769 14.5469 10.7659 14.5469 10.0846C14.5469 9.40318 15.2638 9.6778 15.9451 9.6778C16.6265 9.67768 17.3434 9.40318 17.3434 10.0846Z" fill="#7D3D1A"/>
<path d="M18.567 15.0904C17.431 15.0904 16.4847 14.3189 15.9435 13.6477C15.2437 14.5152 13.8668 15.5507 12.279 14.87C11.2251 14.4184 10.5766 13.4915 10.5442 12.3907C10.5076 11.144 11.2813 9.97141 12.5637 9.33029C14.1258 8.54916 14.6346 6.90916 14.7988 6.00116C14.8996 5.44416 15.3811 5.04004 15.9435 5.04004C16.506 5.04004 16.9873 5.44429 17.0881 6.00116C17.2523 6.90916 17.7611 8.54916 19.3232 9.33029C20.6055 9.97141 21.3793 11.144 21.3427 12.3907C21.3103 13.4915 20.6618 14.4184 19.608 14.87C19.2485 15.0242 18.8996 15.0903 18.567 15.0904ZM15.9435 12.801C15.9963 12.801 16.0482 12.8144 16.0944 12.8399C16.1407 12.8654 16.1797 12.9022 16.2078 12.9469C16.2111 12.952 16.5647 13.5038 17.1445 13.9404C17.8775 14.4925 18.6235 14.6122 19.3618 14.2957C20.1861 13.9424 20.693 13.2234 20.7181 12.3724C20.7475 11.3719 20.106 10.4204 19.0438 9.88941C17.2383 8.98666 16.6582 7.13554 16.4732 6.11254C16.4263 5.85329 16.2036 5.66516 15.9436 5.66516C15.6836 5.66516 15.4608 5.85329 15.414 6.11266C15.229 7.13566 14.6488 8.98666 12.8433 9.88941C11.7812 10.4205 11.1397 11.3719 11.1691 12.3725C11.1941 13.2235 11.7011 13.9425 12.5253 14.2958C14.3186 15.0644 15.666 12.9683 15.6793 12.947C15.7074 12.9023 15.7464 12.8655 15.7926 12.84C15.8388 12.8144 15.8907 12.801 15.9435 12.801Z" fill="black"/>
<path d="M15.9413 11.7896C15.078 11.7896 14.2305 10.9451 14.2305 10.0848C14.2305 9.83438 14.3056 9.63901 14.4537 9.504C14.7161 9.26488 15.0951 9.30013 15.4961 9.33738C15.6438 9.35113 15.7965 9.36538 15.9412 9.36538C16.086 9.36538 16.2386 9.35113 16.3863 9.33738C16.7873 9.3 17.1662 9.26475 17.4287 9.504C17.5768 9.63901 17.652 9.83438 17.652 10.0848C17.6521 10.9451 16.8047 11.7896 15.9413 11.7896ZM15.0588 9.93588C14.9698 9.93588 14.8978 9.9435 14.8747 9.966C14.8746 9.96613 14.8556 9.99201 14.8556 10.0848C14.8556 10.5894 15.434 11.1646 15.9415 11.1646C16.449 11.1646 17.0272 10.5894 17.0272 10.0848C17.0272 9.99213 17.0082 9.96625 17.008 9.966C16.9531 9.9125 16.6223 9.94326 16.4445 9.95988C16.2827 9.97501 16.1152 9.9905 15.9415 9.9905C15.7677 9.9905 15.6003 9.97488 15.4385 9.95988C15.3353 9.95026 15.1812 9.93588 15.0588 9.93588Z" fill="black"/>
<path d="M15.918 13.5073C15.8351 13.5073 15.7556 13.4744 15.697 13.4158C15.6384 13.3571 15.6055 13.2777 15.6055 13.1948V11.7227C15.6055 11.6398 15.6384 11.5603 15.697 11.5017C15.7556 11.4431 15.8351 11.4102 15.918 11.4102C16.0008 11.4102 16.0803 11.4431 16.1389 11.5017C16.1975 11.5603 16.2305 11.6398 16.2305 11.7227V13.1948C16.2305 13.2777 16.1975 13.3571 16.1389 13.4158C16.0803 13.4744 16.0008 13.5073 15.918 13.5073Z" fill="black"/>
<path d="M21.1075 0.645393C20.9289 0.640243 20.7501 0.642161 20.5717 0.651143C19.982 0.683143 19.7603 1.45052 20.2465 1.78552C20.7285 2.11764 21.2453 2.74027 21.2672 3.88727C21.3084 6.05564 22.3509 12.0878 23.8944 11.5983C25.0874 11.2199 22.8015 9.29877 25.3844 6.74252C27.9672 4.18627 23.2868 0.701643 21.1075 0.645393ZM10.7837 0.645393C10.9623 0.640243 11.1411 0.642161 11.3195 0.651143C11.9092 0.683143 12.1309 1.45052 11.6447 1.78552C11.1627 2.11764 10.6459 2.74027 10.624 3.88727C10.5828 6.05564 9.54028 12.0878 7.99678 11.5983C6.80378 11.2199 9.08966 9.29877 6.50678 6.74252C3.92416 4.18627 8.60453 0.701643 10.7837 0.645393Z" fill="#EAA250"/>
<path d="M21.2698 3.88702C21.2479 2.74002 20.7312 2.1174 20.2492 1.78527C19.9786 1.5989 19.9278 1.27877 20.0372 1.02577C19.0094 0.411521 18.0381 0.283396 17.2997 0.318896C16.3963 0.362271 15.4927 0.362271 14.5893 0.318896C13.8526 0.283521 12.8836 0.411146 11.8582 1.02215C11.9696 1.27565 11.9193 1.59802 11.6474 1.7854C11.1654 2.11752 10.6487 2.74015 10.6268 3.88715C10.5889 5.87852 9.70644 11.1279 8.36719 11.5926C8.62381 12.9404 10.1264 13.7951 11.8737 14.2856C10.3141 13.1648 10.5157 10.7045 12.7044 9.61015C14.3851 8.7699 14.9308 7.03277 15.1073 6.05715C15.1809 5.65052 15.5312 5.3529 15.9444 5.3529C16.3577 5.3529 16.7079 5.65052 16.7816 6.05715C16.9581 7.03265 17.5038 8.7699 19.1844 9.61015C21.3732 10.7045 21.5748 13.1648 20.0152 14.2856C21.7637 13.7948 23.2671 12.9391 23.5222 11.5899C22.1869 11.1085 21.3077 5.87477 21.2698 3.88702Z" fill="#EAA250"/>
<path d="M23.7185 11.9378C23.5516 11.9378 23.3548 11.8899 23.1467 11.7406C22.5346 11.3014 21.9965 10.0884 21.5475 8.13557C21.165 6.4717 20.9727 4.7697 20.9561 3.89232C20.9402 3.05845 20.6422 2.43595 20.0706 2.04195C19.7387 1.81332 19.5952 1.4132 19.7053 1.02257C19.8162 0.62895 20.1502 0.360199 20.5562 0.338199C20.743 0.328668 20.9301 0.326625 21.1171 0.332074C22.7481 0.374199 25.4883 2.1212 26.2425 4.02482C26.6722 5.1097 26.4521 6.12607 25.6056 6.9637C24.1513 8.40295 24.3562 9.58157 24.5057 10.4422C24.6052 11.0151 24.7181 11.6644 23.9902 11.8952C23.9024 11.9233 23.8107 11.9377 23.7185 11.9378ZM20.9048 0.954324C20.7935 0.954324 20.6882 0.956949 20.5898 0.962325C20.3841 0.97345 20.3211 1.14095 20.3067 1.19195C20.2927 1.24182 20.2597 1.41332 20.4251 1.5272C20.9386 1.88107 21.556 2.57657 21.581 3.88032C21.6203 5.95145 22.4626 10.4804 23.5111 11.2327C23.6471 11.3303 23.7376 11.3196 23.8012 11.2994C23.9692 11.2462 24.0043 11.2084 23.8898 10.5492C23.7363 9.66632 23.4796 8.18845 25.1658 6.51957C25.8297 5.8627 25.9963 5.1007 25.6613 4.25507C24.9586 2.48132 22.3991 0.990449 21.101 0.956824C21.0356 0.955203 20.9702 0.954369 20.9048 0.954324ZM8.17534 11.9378C8.08315 11.9377 7.99152 11.9233 7.90372 11.8952C7.17584 11.6644 7.28872 11.0151 7.38822 10.4422C7.53772 9.58157 7.74259 8.40307 6.28834 6.9637C5.44197 6.12595 5.22172 5.1097 5.65147 4.02482C6.40572 2.12132 9.14597 0.374325 10.777 0.3322C10.9639 0.326776 11.151 0.328777 11.3378 0.338199C11.7438 0.360199 12.0778 0.62895 12.1887 1.02257C12.2987 1.4132 12.1553 1.81332 11.8235 2.04195C11.2517 2.43595 10.9537 3.05845 10.938 3.89245C10.9213 4.76982 10.7291 6.47182 10.3466 8.1357C9.89759 10.0887 9.35947 11.3016 8.74734 11.7407C8.53909 11.8899 8.34222 11.9378 8.17534 11.9378ZM10.9891 0.954324C10.9256 0.954324 10.8602 0.9552 10.7932 0.95695C9.49497 0.99045 6.93547 2.48145 6.23259 4.2552C5.89759 5.10082 6.06422 5.8627 6.72809 6.5197C8.41434 8.18857 8.15747 9.66645 8.00409 10.5493C7.88947 11.2087 7.92472 11.2463 8.09272 11.2996C8.15634 11.32 8.24672 11.3306 8.38284 11.2329C8.84722 10.8998 9.34084 9.71995 9.73722 7.9957C10.1097 6.37532 10.2968 4.7267 10.3128 3.8807C10.3377 2.57695 10.9551 1.88145 11.4687 1.52745C11.6341 1.41357 11.6011 1.24207 11.5871 1.1922C11.5727 1.1412 11.5097 0.973575 11.304 0.962449C11.1991 0.956822 11.0941 0.954112 10.9891 0.954324Z" fill="black"/>
<path d="M20.0152 14.5976C19.9491 14.5977 19.8846 14.5767 19.8312 14.5377C19.7777 14.4988 19.738 14.4438 19.7177 14.3809C19.6974 14.3179 19.6977 14.2501 19.7184 14.1873C19.7391 14.1245 19.7792 14.0698 19.833 14.0313C20.4531 13.5856 20.7737 12.8918 20.7127 12.1276C20.6395 11.2114 20.016 10.3746 19.0448 9.88902C17.2395 8.98627 16.6593 7.13527 16.4742 6.11227C16.4273 5.85302 16.2046 5.66477 15.9446 5.66477C15.6846 5.66477 15.4618 5.85289 15.415 6.11227C15.23 7.13527 14.6498 8.98627 12.8443 9.88902C11.8732 10.3746 11.2497 11.2115 11.1765 12.1276C11.1153 12.8918 11.4361 13.5856 12.0562 14.0313C12.1159 14.0741 12.1585 14.1367 12.1767 14.2078C12.1948 14.279 12.1873 14.3543 12.1554 14.4205C12.1236 14.4867 12.0694 14.5396 12.0025 14.5698C11.9355 14.6001 11.8601 14.6058 11.7893 14.5859C9.59834 13.9709 8.30884 12.9558 8.06021 11.6505C8.04617 11.5768 8.05911 11.5005 8.09668 11.4356C8.13425 11.3706 8.19394 11.3213 8.26484 11.2968C8.43759 11.2368 9.05059 10.839 9.68146 8.23814C10.0733 6.6224 10.2966 4.82302 10.3145 3.88065C10.3393 2.57689 10.9567 1.8814 11.4703 1.5274C11.6227 1.4224 11.6205 1.25702 11.5722 1.14715C11.5416 1.07737 11.5375 0.9988 11.5607 0.926215C11.5839 0.853631 11.6329 0.792037 11.6983 0.75302C12.612 0.208645 13.5903 -0.0431049 14.6043 0.00602012C15.4937 0.0487701 16.3955 0.0487701 17.2847 0.00602012C18.3022 -0.0426049 19.2822 0.20977 20.1976 0.756895C20.2627 0.7958 20.3114 0.857043 20.3347 0.92921C20.3579 1.00138 20.3542 1.07955 20.3241 1.14915C20.2768 1.25852 20.2753 1.42315 20.4266 1.52727C20.9402 1.88127 21.5576 2.57677 21.5825 3.8804C21.6257 6.1524 22.5787 10.9168 23.6283 11.295C23.6982 11.3202 23.7569 11.3695 23.7937 11.434C23.8306 11.4985 23.8433 11.574 23.8295 11.647C23.5823 12.9539 22.2928 13.97 20.1 14.5855C20.0724 14.5936 20.0439 14.5977 20.0152 14.5976ZM8.72921 11.7503C9.00796 12.6214 9.90971 13.2161 10.8741 13.6143C10.6247 13.1541 10.5097 12.6245 10.5533 12.0779C10.6442 10.9416 11.3961 9.91439 12.5647 9.33014C14.1268 8.54902 14.6356 6.90902 14.7998 6.00102C14.9006 5.44402 15.382 5.0399 15.9445 5.0399C16.507 5.0399 16.9883 5.44415 17.0891 6.00102C17.2533 6.90902 17.7623 8.54914 19.3242 9.33014C20.4928 9.91439 21.2447 10.9416 21.3356 12.0779C21.3793 12.6244 21.2642 13.1541 21.0148 13.6143C21.9808 13.2154 22.8838 12.6194 23.161 11.7458C21.7081 10.6978 20.9885 5.52415 20.9575 3.89252C20.9416 3.05865 20.6436 2.43602 20.072 2.04202C19.9337 1.9479 19.8238 1.81783 19.7541 1.66584C19.6843 1.51384 19.6574 1.34569 19.6762 1.17952C18.9268 0.77577 18.1328 0.590895 17.3147 0.630395C16.4056 0.674145 15.4836 0.674145 14.5743 0.630395C13.7588 0.591395 12.9677 0.77452 12.2206 1.1754C12.2592 1.5104 12.1155 1.8419 11.8248 2.04202C11.2532 2.43602 10.9552 3.05852 10.9393 3.89252C10.9081 5.53015 10.1862 10.7115 8.72921 11.7503Z" fill="black"/>
<path d="M17.4529 14.5032C16.5186 14.0289 15.9413 13.1133 15.9413 13.1133C15.9413 13.1133 15.3396 14.0663 14.3711 14.531L14.1624 15.8614C13.9937 16.9372 14.8253 17.9094 15.9143 17.9094C17.0033 17.9094 17.8349 16.9372 17.6662 15.8614L17.4529 14.5032Z" fill="#FD605B"/>
<path d="M17.368 14.4551C17.3972 14.4711 17.4255 14.4878 17.4554 14.503L17.6684 15.8612C17.7143 16.1543 17.6854 16.4542 17.5844 16.7331C18.3075 16.2908 18.8937 15.5646 19.2403 14.6716C18.525 14.8963 17.8875 14.7402 17.368 14.4551ZM14.1648 15.8613L14.3734 14.531C14.3849 14.5255 14.3957 14.5191 14.4072 14.5133C13.9202 14.7545 13.3383 14.8746 12.6914 14.6847C13.0194 15.5226 13.5577 16.2147 14.2229 16.6597C14.1425 16.4016 14.1226 16.1284 14.1648 15.8613Z" fill="#52565B"/>
<path d="M14.2248 16.6601C13.5595 16.2151 13.0212 15.523 12.6932 14.6851C12.5949 14.6569 12.4983 14.6227 12.4041 14.5828C12.2173 14.5032 12.0398 14.4035 11.8748 14.2853C11.0993 14.0675 10.3727 13.7776 9.78125 13.4053C10.2401 15.2544 12.0919 16.7261 14.4726 17.1614C14.3641 17.0084 14.2804 16.8393 14.2248 16.6601ZM20.0164 14.2851C19.8513 14.4033 19.6738 14.5031 19.487 14.5826C19.4043 14.6181 19.3229 14.6465 19.2421 14.6719C18.8955 15.5648 18.3095 16.2911 17.5864 16.7334C17.531 16.8883 17.4544 17.0348 17.3586 17.1685C19.7536 16.7441 21.6215 15.2724 22.0889 13.419C21.5013 13.785 20.7824 14.0701 20.0164 14.2851Z" fill="#039BE6"/>
<path d="M15.9179 18.222C15.6166 18.2222 15.3189 18.157 15.0453 18.031C14.7716 17.9049 14.5286 17.721 14.3329 17.492C14.1369 17.2631 13.9929 16.9945 13.9108 16.7047C13.8288 16.4148 13.8105 16.1106 13.8574 15.813L14.066 14.4827C14.0739 14.4327 14.0937 14.3853 14.124 14.3446C14.1542 14.3039 14.1939 14.2712 14.2395 14.2493C15.1169 13.8282 15.6753 12.9551 15.6808 12.9463C15.709 12.9017 15.748 12.865 15.7942 12.8395C15.8404 12.8141 15.8923 12.8008 15.9451 12.8008C15.9979 12.8008 16.0498 12.8142 16.096 12.8397C16.1422 12.8652 16.1811 12.902 16.2093 12.9466C16.2144 12.9546 16.7557 13.797 17.598 14.2245C17.6422 14.2469 17.6803 14.2794 17.7094 14.3194C17.7385 14.3595 17.7576 14.4058 17.7653 14.4547L17.9783 15.813C18.0252 16.1106 18.0069 16.4148 17.9248 16.7047C17.8428 16.9945 17.6988 17.2631 17.5028 17.492C17.3071 17.721 17.0641 17.905 16.7905 18.031C16.5169 18.157 16.2192 18.2222 15.9179 18.222ZM14.6589 14.7366L14.4749 15.9098C14.4421 16.1183 14.4549 16.3313 14.5124 16.5343C14.5699 16.7373 14.6707 16.9254 14.8079 17.0857C15.0859 17.4106 15.4904 17.597 15.918 17.597C16.3457 17.597 16.7502 17.4106 17.028 17.0857C17.3059 16.7608 17.4273 16.3322 17.361 15.9098L17.172 14.7046C16.6177 14.3887 16.1962 13.9463 15.9449 13.6383C15.6847 13.9568 15.2423 14.4193 14.6589 14.7366Z" fill="black"/>
<path d="M17.5839 17.0459C17.5338 17.0459 17.4844 17.0339 17.4399 17.0107C17.3954 16.9876 17.3571 16.9542 17.3283 16.9132C17.2994 16.8721 17.2809 16.8248 17.2742 16.7751C17.2675 16.7254 17.2728 16.6748 17.2898 16.6276C17.3739 16.3936 17.3972 16.1521 17.3592 15.9099L17.1689 14.6966C17.109 14.6471 17.0697 14.5771 17.0586 14.5001C17.0476 14.4232 17.0656 14.3449 17.1091 14.2805C17.1527 14.2161 17.2187 14.1702 17.2942 14.1519C17.3698 14.1335 17.4494 14.1439 17.5177 14.1811L17.5178 14.1813C18.0591 14.4784 18.6067 14.5431 19.1461 14.3736C19.2022 14.3561 19.2622 14.3547 19.3191 14.3697C19.376 14.3847 19.4275 14.4154 19.4677 14.4584C19.5079 14.5014 19.5351 14.5548 19.5463 14.6125C19.5575 14.6703 19.5522 14.73 19.5309 14.7849C19.1618 15.7354 18.5283 16.522 17.7468 16.9999C17.6978 17.03 17.6414 17.0459 17.5839 17.0459ZM17.8478 14.992L17.9766 15.8131C17.9872 15.881 17.9946 15.949 17.9984 16.0168C18.2698 15.7538 18.5077 15.4399 18.7016 15.088C18.4136 15.1046 18.1249 15.0722 17.8478 14.992ZM14.2223 16.9725C14.1618 16.9725 14.1013 16.955 14.0486 16.9198C13.3334 16.4414 12.7479 15.6881 12.3998 14.7989C12.3784 14.7445 12.3727 14.6852 12.3834 14.6277C12.3941 14.5702 12.4207 14.5168 12.4601 14.4737C12.4996 14.4306 12.5505 14.3994 12.6068 14.3838C12.6631 14.3681 12.7227 14.3686 12.7788 14.3851C13.2713 14.5298 13.7726 14.4788 14.2679 14.2335C14.3299 14.2028 14.4004 14.1935 14.4683 14.2071C14.5361 14.2207 14.5975 14.2564 14.6429 14.3087C14.6882 14.361 14.7149 14.4269 14.7188 14.496C14.7227 14.5651 14.7035 14.6335 14.6643 14.6905L14.4731 15.9099C14.4382 16.1298 14.4546 16.3548 14.5209 16.5674C14.5355 16.6142 14.5389 16.6637 14.5308 16.7121C14.5227 16.7604 14.5033 16.8061 14.4742 16.8456C14.4452 16.885 14.4072 16.9171 14.3634 16.9391C14.3197 16.9612 14.2713 16.9726 14.2223 16.9725ZM13.2246 15.0893C13.3974 15.4029 13.6054 15.6873 13.8404 15.9316C13.8443 15.8921 13.8494 15.8526 13.8557 15.813L13.9822 15.0064C13.7353 15.072 13.4798 15.0999 13.2246 15.0893ZM18.5459 7.30377C18.4632 7.30377 18.3839 7.27099 18.3253 7.2126C18.2667 7.15421 18.2337 7.07498 18.2334 6.99227C18.2325 6.83969 18.2619 6.68844 18.3198 6.54728C18.3778 6.40612 18.4631 6.27786 18.5709 6.1699C18.6782 6.06139 18.806 5.97523 18.9467 5.9164C19.0875 5.85757 19.2386 5.82723 19.3912 5.82715H19.3951C19.7038 5.82715 19.9943 5.9469 20.2134 6.16465C20.322 6.27189 20.4082 6.3996 20.467 6.54037C20.5259 6.68115 20.5562 6.83219 20.5563 6.98477C20.5564 7.02581 20.5485 7.06647 20.5329 7.10444C20.5173 7.1424 20.4944 7.17693 20.4655 7.20604C20.4366 7.23515 20.4022 7.25828 20.3643 7.2741C20.3265 7.28993 20.2859 7.29814 20.2448 7.29827H20.2438C20.1611 7.29827 20.0818 7.26549 20.0232 7.2071C19.9646 7.14871 19.9316 7.06948 19.9313 6.98677C19.9313 6.91631 19.9172 6.84655 19.8901 6.78153C19.8629 6.71652 19.8231 6.65755 19.7729 6.60802C19.7233 6.558 19.6641 6.51843 19.5988 6.49166C19.5336 6.46489 19.4637 6.45145 19.3932 6.45215C19.3227 6.45216 19.2529 6.46616 19.1879 6.49335C19.1228 6.52053 19.0638 6.56036 19.0143 6.61052C18.9645 6.66036 18.9251 6.71959 18.8983 6.78477C18.8716 6.84996 18.858 6.91981 18.8584 6.99027C18.8586 7.03131 18.8506 7.07197 18.835 7.10994C18.8194 7.1479 18.7965 7.18243 18.7676 7.21154C18.7387 7.24065 18.7043 7.26378 18.6664 7.2796C18.6286 7.29543 18.588 7.30364 18.5469 7.30377H18.5459ZM13.3619 7.30102C13.2791 7.30102 13.1996 7.2681 13.141 7.20949C13.0824 7.15089 13.0494 7.0714 13.0494 6.98852C13.0494 6.69277 12.8088 6.45215 12.5129 6.45215C12.2171 6.45215 11.9766 6.69277 11.9766 6.98852C11.9766 7.0714 11.9436 7.15089 11.885 7.20949C11.8264 7.2681 11.7469 7.30102 11.6641 7.30102C11.5812 7.30102 11.5017 7.2681 11.4431 7.20949C11.3845 7.15089 11.3516 7.0714 11.3516 6.98852C11.3516 6.34815 11.8726 5.82715 12.5129 5.82715C13.1534 5.82715 13.6744 6.34815 13.6744 6.98852C13.6744 7.0714 13.6415 7.15089 13.5829 7.20949C13.5243 7.2681 13.4448 7.30102 13.3619 7.30102Z" fill="black"/>
<path d="M14.4727 17.4739C14.4541 17.4739 14.4352 17.4723 14.4165 17.4688C11.9036 17.0094 9.9652 15.444 9.47795 13.4805C9.46294 13.42 9.46636 13.3564 9.48777 13.2979C9.50918 13.2394 9.54761 13.1886 9.59811 13.1521C9.64862 13.1155 9.70889 13.0949 9.77118 13.0929C9.83348 13.0909 9.89495 13.1076 9.9477 13.1408C10.4783 13.4748 11.1551 13.7587 11.9592 13.9844C11.9943 13.9943 12.0275 14.0102 12.0571 14.0314C12.2037 14.1363 12.3613 14.2249 12.5272 14.2955C12.6035 14.3283 12.6841 14.3568 12.7812 14.3853C12.827 14.3988 12.869 14.4225 12.9042 14.4547C12.9394 14.4869 12.9668 14.5268 12.9842 14.5712C13.2862 15.3427 13.7886 15.9923 14.3985 16.4003C14.458 16.44 14.5019 16.4992 14.5232 16.5674C14.5689 16.7148 14.6377 16.8537 14.7274 16.9802C14.7607 17.0269 14.7804 17.0819 14.7845 17.1392C14.7885 17.1964 14.7768 17.2536 14.7505 17.3046C14.7242 17.3556 14.6843 17.3984 14.6353 17.4282C14.5863 17.4581 14.5301 17.4739 14.4727 17.4739ZM10.3572 14.0688C10.938 15.2394 12.1522 16.1807 13.6975 16.6523C13.1786 16.211 12.7491 15.6183 12.4593 14.9388C12.399 14.9181 12.3395 14.8952 12.281 14.87C12.0907 14.7888 11.9089 14.6888 11.7384 14.5715C11.2308 14.4265 10.769 14.2584 10.3572 14.0688ZM17.3585 17.4813C17.301 17.4813 17.2446 17.4655 17.1955 17.4355C17.1464 17.4056 17.1066 17.3626 17.0804 17.3115C17.0541 17.2603 17.0425 17.2029 17.0468 17.1456C17.0511 17.0883 17.0711 17.0332 17.1047 16.9865C17.1835 16.8763 17.2466 16.7556 17.2922 16.6279C17.3163 16.5609 17.3625 16.5042 17.4232 16.467C18.0884 16.0602 18.6311 15.3825 18.9507 14.559C18.9677 14.5154 18.9942 14.4761 19.0284 14.444C19.0626 14.412 19.1036 14.3881 19.1483 14.374C19.2214 14.3516 19.2934 14.3254 19.3638 14.2957C19.5297 14.225 19.6874 14.1365 19.8341 14.0317C19.8637 14.0103 19.8968 13.9944 19.932 13.9845C20.7272 13.7613 21.3973 13.4819 21.9237 13.154C21.9766 13.1211 22.0381 13.1047 22.1004 13.107C22.1627 13.1093 22.2229 13.1301 22.2732 13.1668C22.3235 13.2036 22.3617 13.2545 22.3829 13.3132C22.4041 13.3718 22.4072 13.4354 22.3919 13.4958C21.8949 15.4662 19.9407 17.0287 17.4131 17.4765C17.395 17.4797 17.3768 17.4813 17.3585 17.4813ZM19.4778 14.9224C19.1927 15.5978 18.7722 16.1839 18.2605 16.626C19.7607 16.148 20.9388 15.225 21.5111 14.0797C21.1054 14.2647 20.6512 14.4292 20.1527 14.5715C19.9822 14.6888 19.8004 14.7888 19.6101 14.8702C19.5676 14.8883 19.5241 14.9055 19.4778 14.9224Z" fill="black"/>
<path d="M29.1305 18.8327L28.7341 18.5783C28.7247 18.5722 28.7166 18.5641 28.7106 18.5546C28.7045 18.5451 28.7005 18.5344 28.6989 18.5233C28.6973 18.5121 28.698 18.5007 28.7012 18.4899C28.7043 18.4791 28.7097 18.469 28.717 18.4605C30.5996 16.2093 29.7619 13.659 29.591 13.207C29.5838 13.1878 29.5694 13.1722 29.5508 13.1635C29.5323 13.1548 29.5111 13.1536 29.4917 13.1602L29.141 13.2757C29.1303 13.2791 29.1189 13.2803 29.1078 13.279C29.0966 13.2777 29.0858 13.2741 29.0761 13.2683C29.0664 13.2625 29.0581 13.2548 29.0517 13.2455C29.0452 13.2363 29.0408 13.2258 29.0387 13.2147C28.6412 11.233 27.1254 10.6656 26.6534 10.5352C26.5919 10.5182 26.5381 10.5767 26.5579 10.6373C27.8739 14.6741 25.1555 17.686 23.5156 19.065C23.5337 19.2287 23.5499 19.3945 23.5637 19.5622C24.6607 19.5516 25.7426 19.8113 26.3571 20.6815C28.1384 20.0743 28.9464 19.2005 29.1501 18.9495C29.1571 18.9407 29.1622 18.9306 29.165 18.9198C29.1678 18.909 29.1683 18.8977 29.1664 18.8867C29.1646 18.8757 29.1604 18.8652 29.1542 18.8559C29.148 18.8466 29.14 18.8387 29.1305 18.8327Z" fill="#EAA250"/>
<path d="M26.357 20.9938C26.307 20.9938 26.2577 20.9818 26.2133 20.9588C26.1689 20.9358 26.1306 20.9025 26.1018 20.8616C25.631 20.195 24.7803 19.862 23.5668 19.8746H23.5638C23.4854 19.8746 23.4099 19.8451 23.3522 19.7921C23.2945 19.739 23.2589 19.6662 23.2524 19.5881C23.2386 19.4232 23.2229 19.2602 23.205 19.0992C23.1994 19.0481 23.2064 18.9965 23.2255 18.9487C23.2446 18.901 23.2752 18.8588 23.3145 18.8257C24.9513 17.4493 27.5105 14.5678 26.2608 10.7341C26.2386 10.6665 26.2352 10.5942 26.251 10.5249C26.2667 10.4555 26.301 10.3917 26.3501 10.3403C26.3989 10.2893 26.4606 10.2524 26.5287 10.2337C26.5968 10.215 26.6686 10.2151 26.7366 10.234C27.2186 10.3671 28.7786 10.9438 29.2868 12.8987L29.3943 12.8633C29.4901 12.8314 29.5946 12.8379 29.6858 12.8813C29.777 12.9247 29.8478 13.0018 29.8834 13.0963C30.0716 13.5943 30.8938 16.1341 29.1213 18.4555L29.2994 18.5698C29.3459 18.5995 29.3855 18.6387 29.4158 18.6848C29.4461 18.7309 29.4663 18.7828 29.4751 18.8373C29.4839 18.8917 29.4812 18.9474 29.467 19.0007C29.4528 19.0539 29.4275 19.1036 29.3928 19.1465C29.1741 19.4158 28.3164 20.344 26.4579 20.9773C26.4254 20.9882 26.3913 20.9938 26.357 20.9938ZM23.8494 19.253C25.0214 19.2921 25.8993 19.6473 26.465 20.3115C27.7071 19.8536 28.4063 19.2766 28.7309 18.9476L28.5654 18.8413C28.5187 18.8114 28.4789 18.7718 28.4487 18.7252C28.4184 18.6787 28.3985 18.6262 28.3901 18.5713C28.3818 18.5162 28.3852 18.4599 28.4003 18.4061C28.4153 18.3524 28.4416 18.3025 28.4774 18.2597C30.0503 16.379 29.6071 14.2822 29.3711 13.5287L29.2386 13.5723C29.1862 13.5896 29.1307 13.5956 29.0757 13.5898C29.0208 13.584 28.9677 13.5667 28.92 13.5388C28.8719 13.5108 28.8303 13.4729 28.7979 13.4276C28.7656 13.3823 28.7432 13.3307 28.7323 13.2761C28.4529 11.8828 27.5686 11.2568 26.9869 10.9901C27.4295 12.687 27.2409 14.3662 26.4243 15.9881C25.7121 17.4021 24.6519 18.4975 23.8436 19.1957L23.8494 19.253Z" fill="black"/>
<path d="M17.9227 30.9124C17.9628 30.6782 18.0254 30.4262 18.1236 30.2107C18.2798 29.8674 18.3699 29.5005 18.3699 29.1265V21.9864C18.3699 21.1279 17.8794 20.3801 17.1506 19.9754C16.7726 19.8019 16.3625 19.7095 15.9467 19.7041C15.5154 19.7105 15.1076 19.8075 14.7428 19.9754C14.0141 20.38 13.5234 21.1279 13.5234 21.9864V29.1265C13.5234 29.5005 13.6136 29.8674 13.7698 30.2107C13.8678 30.4262 13.9306 30.6782 13.9707 30.9124C13.9792 30.9617 13.9814 31.0104 13.9787 31.058C14.5909 31.2777 15.2532 31.4009 15.9467 31.4009C16.6402 31.4009 17.3026 31.2779 17.9147 31.058C17.9118 31.0093 17.9145 30.9604 17.9227 30.9124Z" fill="#F4DBCE"/>
<path d="M24.5896 29.7228L26.1444 26.039C28.0561 20.6741 25.8377 19.5397 23.5606 19.5618C23.7891 22.3137 23.4262 25.582 21.5798 28.8338C21.3594 29.222 21.4652 29.7016 21.8241 29.982C22.0491 30.1578 22.2934 30.3797 22.4927 30.6366C22.7923 31.0226 22.5584 31.5495 22.1042 31.6641L22.1276 31.6876H26.7923C27.3107 29.4773 24.5896 29.7228 24.5896 29.7228ZM9.40055 30.6366C9.59993 30.3797 9.84418 30.1578 10.0692 29.982C10.4281 29.7016 10.5338 29.222 10.3134 28.8338C8.46693 25.5821 8.10418 22.3137 8.33268 19.5618C6.05568 19.5397 3.8373 20.6741 5.7488 26.039L7.30368 29.7228C7.30368 29.7228 4.58255 29.4772 5.10093 31.6876H9.76568L9.78905 31.6641C9.3348 31.5495 9.10093 31.0226 9.40055 30.6366Z" fill="#EAA250"/>
<path d="M22.0561 13.5352C21.5411 15.3334 19.7026 16.7527 17.3581 17.1682C17.0386 17.6132 16.518 17.909 15.918 17.909C15.3146 17.909 14.7911 17.6098 14.4721 17.1607C12.1632 16.7387 10.3521 15.3417 9.82624 13.5712C8.75612 16.0788 6.71287 22.4884 10.3157 28.8333C10.5361 29.2214 10.4304 29.701 10.0715 29.9814C9.84649 30.1573 9.60211 30.3792 9.40286 30.636C9.06499 31.0714 9.40487 31.687 9.97524 31.687H13.2802C13.7142 31.687 14.0425 31.3182 13.973 30.9123C13.9329 30.6782 13.8702 30.4262 13.7721 30.2107C13.6159 29.8673 13.5257 29.5004 13.5257 29.1264V21.9863C13.5257 20.7102 14.6074 19.6748 15.949 19.655C17.2906 19.6749 18.3722 20.7102 18.3722 21.9863V29.1264C18.3722 29.5004 18.2821 29.8673 18.1259 30.2107C18.0279 30.4262 17.9651 30.6782 17.925 30.9123C17.8555 31.3183 18.1837 31.687 18.6177 31.687H21.9227C22.493 31.687 22.833 31.0714 22.4951 30.636C22.2957 30.3792 22.0515 30.1573 21.8265 29.9814C21.4676 29.701 21.3619 29.2214 21.5822 28.8333C25.2027 22.4572 23.1217 16.0163 22.0561 13.5352Z" fill="#EAA250"/>
<path d="M26.7927 32.0001H22.128C22.0867 32.0001 22.0459 31.9919 22.0078 31.9761C21.9697 31.9602 21.9352 31.937 21.9061 31.9077L21.8827 31.8842C21.8439 31.845 21.8162 31.7963 21.8023 31.743C21.7885 31.6897 21.7889 31.6336 21.8037 31.5805C21.8184 31.5274 21.847 31.4792 21.8864 31.4407C21.9258 31.4022 21.9747 31.3747 22.0281 31.3612C22.1538 31.3295 22.2571 31.2371 22.2972 31.1203C22.3218 31.0488 22.333 30.9401 22.2462 30.8283C22.0891 30.626 21.8825 30.4241 21.632 30.2283C21.1492 29.8511 21.0131 29.1998 21.3083 28.6797C22.8691 25.9312 23.5222 22.8722 23.2495 19.588C23.2459 19.5451 23.2512 19.502 23.2651 19.4614C23.2789 19.4207 23.301 19.3833 23.3299 19.3516C23.3589 19.3198 23.394 19.2944 23.4333 19.2768C23.4725 19.2593 23.5149 19.25 23.5578 19.2496C24.9837 19.2356 26.0085 19.6531 26.6048 20.4901C27.4226 21.6378 27.3668 23.5401 26.4391 26.1441C26.4371 26.1497 26.4349 26.1552 26.4326 26.1607L25.0615 29.4092C25.5682 29.4382 26.3397 29.5751 26.7985 30.103C27.1573 30.5161 27.2577 31.0733 27.097 31.7592C27.0808 31.8278 27.042 31.8889 26.9868 31.9326C26.9315 31.9763 26.8632 32.0001 26.7927 32.0001ZM22.869 31.3751H26.5327C26.5791 31.009 26.5112 30.7257 26.3276 30.5136C25.9123 30.0341 24.952 30.005 24.6175 30.0341C24.5638 30.0388 24.5098 30.0296 24.4607 30.0073C24.4116 29.9851 24.3691 29.9505 24.3374 29.9069C24.3056 29.8633 24.2857 29.8123 24.2795 29.7588C24.2733 29.7052 24.281 29.651 24.302 29.6013L25.8535 25.9257C26.706 23.5298 26.7875 21.823 26.096 20.8525C25.6697 20.2542 24.931 19.928 23.8978 19.8801C24.109 23.162 23.4213 26.2245 21.852 28.9881C21.7087 29.2405 21.7765 29.548 22.0168 29.7356C22.308 29.9631 22.5512 30.2017 22.74 30.4448C22.9385 30.7006 22.9926 31.021 22.8883 31.3237C22.8824 31.341 22.8759 31.3581 22.869 31.3751ZM9.76622 32.0001H5.10134C5.03087 32.0001 4.96246 31.9763 4.90723 31.9325C4.852 31.8887 4.81319 31.8276 4.79709 31.759C4.63622 31.0731 4.73672 30.516 5.09559 30.1027C5.55422 29.5747 6.32584 29.438 6.83259 29.409L5.46147 26.1605C5.45912 26.155 5.45695 26.1494 5.45497 26.1438C4.52722 23.5398 4.47134 21.6375 5.28922 20.4898C5.88559 19.653 6.90684 19.2361 8.33622 19.2493C8.37919 19.2497 8.42162 19.259 8.46085 19.2765C8.50009 19.294 8.53528 19.3195 8.56422 19.3512C8.59317 19.383 8.61525 19.4204 8.62908 19.4611C8.64291 19.5018 8.64819 19.5449 8.64459 19.5877C8.37184 22.872 9.02497 25.931 10.5857 28.6795C10.8811 29.1996 10.745 29.851 10.2621 30.2282C10.0117 30.4238 9.80497 30.6258 9.64784 30.8282C9.56109 30.9401 9.57222 31.0488 9.59684 31.1202C9.63709 31.2371 9.74022 31.3293 9.86597 31.3611C9.91941 31.3746 9.96833 31.402 10.0078 31.4405C10.0472 31.479 10.0757 31.5273 10.0905 31.5804C10.1053 31.6335 10.1057 31.6895 10.0918 31.7429C10.0779 31.7962 10.0501 31.8449 10.0113 31.8841L9.98797 31.9076C9.95894 31.9369 9.9244 31.9601 9.88634 31.976C9.84828 31.9919 9.80745 32.0001 9.76622 32.0001ZM5.36147 31.3751H9.02522C9.01833 31.3581 9.01192 31.341 9.00597 31.3237C8.90172 31.021 8.95572 30.7006 9.15434 30.4448C9.34297 30.2018 9.58634 29.9631 9.87734 29.7357C10.1177 29.5478 10.1856 29.2405 10.0423 28.9881C8.47297 26.2245 7.78534 23.162 7.99647 19.8801C6.96309 19.9278 6.22459 20.2542 5.79834 20.8525C5.10684 21.823 5.18834 23.5297 6.04084 25.9257L7.59234 29.6013C7.61324 29.651 7.62094 29.7053 7.61468 29.7589C7.60842 29.8124 7.58842 29.8634 7.55662 29.907C7.52482 29.9505 7.4823 29.9851 7.43319 30.0074C7.38408 30.0297 7.33005 30.0389 7.27634 30.0341C6.94172 30.005 5.98197 30.0342 5.56672 30.5137C5.38297 30.7257 5.31509 31.0088 5.36147 31.3751ZM15.9471 31.7137C15.2402 31.714 14.5386 31.5918 13.8735 31.3525C13.8099 31.3296 13.7555 31.2869 13.7183 31.2305C13.6811 31.1742 13.6631 31.1073 13.6671 31.04C13.6686 31.015 13.6672 30.9899 13.663 30.9652C13.6201 30.715 13.5605 30.5046 13.4857 30.3403C13.3036 29.9402 13.2113 29.5318 13.2113 29.1267V21.9865C13.2113 21.0502 13.7402 20.175 14.5915 19.7023C14.5983 19.6985 14.6053 19.695 14.6125 19.6917C15.0298 19.4996 15.4829 19.3974 15.9423 19.3918C16.4168 19.3987 16.8642 19.4996 17.2815 19.6917C17.2886 19.695 17.2956 19.6986 17.3025 19.7023C18.1537 20.1751 18.6826 21.0503 18.6826 21.9865V29.1267C18.6826 29.5318 18.5902 29.9402 18.4082 30.3403C18.3335 30.5045 18.2738 30.7148 18.231 30.9652C18.2268 30.9899 18.2254 31.015 18.2268 31.04C18.2308 31.1073 18.2129 31.1742 18.1756 31.2305C18.1384 31.2869 18.084 31.3296 18.0205 31.3525C17.3554 31.5918 16.6539 31.714 15.9471 31.7137ZM14.2736 30.8283C15.3625 31.1742 16.5317 31.1742 17.6206 30.8283C17.6723 30.5385 17.7458 30.2873 17.8395 30.0816C17.9843 29.7633 18.0577 29.4421 18.0577 29.1268V21.9866C18.0577 21.281 17.6563 20.6183 17.0093 20.2546C16.674 20.1022 16.3107 20.0212 15.9423 20.0168C15.5771 20.0222 15.217 20.1032 14.8846 20.2546C14.2377 20.6185 13.8362 21.281 13.8362 21.9866V29.1268C13.8362 29.4421 13.9096 29.7633 14.0545 30.0816C14.1482 30.2872 14.2218 30.5383 14.2736 30.8283Z" fill="black"/>
<path d="M21.9204 31.9997H18.6154C18.3088 31.9997 18.022 31.8682 17.8288 31.639C17.7384 31.5325 17.6724 31.4076 17.6354 31.273C17.5984 31.1384 17.5913 30.9973 17.6146 30.8596C17.6666 30.5562 17.7421 30.2943 17.8391 30.0812C17.984 29.763 18.0574 29.4417 18.0574 29.1265V21.9862C18.0574 20.8902 17.1085 19.9846 15.9421 19.9675C14.7849 19.9847 13.836 20.8903 13.836 21.9862V29.1265C13.836 29.4417 13.9094 29.763 14.0543 30.0812C14.1513 30.2943 14.2268 30.5562 14.2788 30.8596C14.3021 30.9973 14.295 31.1384 14.258 31.273C14.221 31.4076 14.155 31.5325 14.0646 31.639C13.8713 31.8682 13.5846 31.9997 13.278 31.9997H9.973C9.57513 31.9997 9.222 31.7835 9.0515 31.4353C8.89 31.1055 8.92825 30.7351 9.15375 30.4445C9.3425 30.2015 9.58575 29.9627 9.87675 29.7353C10.1171 29.5475 10.185 29.2401 10.0418 28.9877C6.36425 22.5112 8.46338 15.9632 9.5365 13.4486C9.56201 13.3897 9.60491 13.3399 9.65947 13.3061C9.71403 13.2723 9.77763 13.2559 9.84175 13.2592C9.90593 13.2629 9.96741 13.2863 10.0178 13.3262C10.0682 13.3661 10.1051 13.4206 10.1234 13.4822C10.613 15.1307 12.3411 16.4538 14.526 16.8532C14.6061 16.868 14.6774 16.9132 14.7246 16.9797C15.0029 17.3717 15.437 17.5966 15.9156 17.5966C16.3908 17.5966 16.8231 17.374 17.1019 16.9858C17.1494 16.9196 17.221 16.8746 17.3013 16.8605C19.5251 16.4665 21.2726 15.1273 21.7533 13.4491C21.771 13.3871 21.8075 13.3321 21.8577 13.2917C21.908 13.2513 21.9695 13.2274 22.0338 13.2233C22.0982 13.2192 22.1622 13.2351 22.2172 13.2688C22.2721 13.3026 22.3153 13.3525 22.3408 13.4117C23.4226 15.9306 25.5408 22.4906 21.8515 28.9876C21.7083 29.24 21.776 29.5475 22.0164 29.7351C22.3075 29.9626 22.5508 30.2012 22.7395 30.4443C22.9651 30.735 23.0033 31.1053 22.8418 31.4352C22.6714 31.7835 22.3183 31.9997 21.9204 31.9997ZM15.942 19.3426C17.4571 19.3647 18.6823 20.5507 18.6823 21.9862V29.1265C18.6823 29.5316 18.5899 29.94 18.4079 30.3401C18.3331 30.5043 18.2735 30.7146 18.2306 30.9651C18.214 31.0621 18.241 31.1583 18.3064 31.2361C18.3806 31.3242 18.4933 31.3747 18.6153 31.3747H21.9203C22.1084 31.3747 22.2296 31.2641 22.2804 31.1605C22.3126 31.0945 22.3511 30.9635 22.2458 30.8277C22.0886 30.6253 21.882 30.4235 21.6315 30.2277C21.1488 29.8505 21.0126 29.1992 21.3079 28.6791C24.5515 22.967 23.124 17.1875 22.056 14.3755C21.2855 15.8898 19.5988 17.0548 17.5303 17.4536C17.1355 17.9367 16.541 18.2216 15.9155 18.2216C15.6044 18.2211 15.2973 18.1511 15.0167 18.0168C14.736 17.8825 14.4889 17.6872 14.2934 17.4452C12.2633 17.042 10.5983 15.8915 9.826 14.4042C8.76688 17.2095 7.34988 22.9817 10.585 28.6791C10.8804 29.1992 10.7443 29.8506 10.2614 30.2278C10.011 30.4235 9.80425 30.6255 9.64713 30.8278C9.54175 30.9636 9.58025 31.0946 9.6125 31.1606C9.66325 31.2642 9.78438 31.3748 9.97263 31.3748H13.2776C13.3996 31.3748 13.5123 31.3243 13.5865 31.2362C13.652 31.1585 13.679 31.0622 13.6623 30.9652C13.6194 30.7148 13.5598 30.5045 13.485 30.3402C13.3029 29.9401 13.2106 29.5317 13.2106 29.1266V21.9863C13.2109 20.5507 14.436 19.3647 15.942 19.3426Z" fill="black"/>
</g>
<defs>
<clipPath id="clip0_1971_211413">
<rect width="32" height="32" fill="white"/>
</clipPath>
</defs>
</svg>
