<svg width="17" height="16" viewBox="0 0 17 16" fill="none" xmlns="http://www.w3.org/2000/svg">
<path d="M5.22271 1.74047C5.22788 1.73484 5.23311 1.72926 5.2384 1.72375C5.43485 1.51892 5.77294 1.3335 6.43838 1.3335H9.83838C10.5069 1.3335 10.8464 1.52041 11.0429 1.72579C11.2561 1.94858 11.3741 2.26766 11.4551 2.66634L11.4551 2.66634L11.4556 2.66919L12.0023 5.28255L12.0022 5.28256L12.0026 5.28411C12.0023 5.28487 12.0018 5.28579 12.0013 5.28682H12.0005L11.8744 4.68439L11.4545 2.67817C11.4545 2.67806 11.4545 2.67795 11.4545 2.67784C11.4545 2.6778 11.4545 2.67776 11.4544 2.67772C11.3898 2.36729 11.2975 1.98444 11.0128 1.71013C10.71 1.41833 10.2955 1.34017 9.83171 1.34017H6.43172C5.97002 1.34017 5.55692 1.41884 5.25402 1.70924C5.24332 1.7195 5.23289 1.72991 5.22271 1.74047Z" fill="#5A687D" stroke="#5A687D"/>
<path d="M3.30121 9.5489L3.30146 9.54625L3.57474 6.60687C3.57475 6.60677 3.57476 6.60667 3.57477 6.60657C3.58849 6.46096 3.60717 6.32973 3.63247 6.21191C3.60936 6.33717 3.59742 6.47022 3.58689 6.58766C3.58648 6.59218 3.58608 6.59666 3.58568 6.60113C3.58566 6.60137 3.58564 6.60161 3.58561 6.60184L3.31264 9.54461C3.28605 9.80696 3.36864 10.0815 3.57056 10.2873C3.75581 10.4824 4.0179 10.6 4.29694 10.6H4.28361C4.00393 10.6 3.7315 10.4789 3.54645 10.2764C3.36592 10.0782 3.27544 9.81085 3.30121 9.5489ZM3.8794 5.66105C3.8382 5.70802 3.80374 5.75689 3.77478 5.80637C3.80549 5.75082 3.84013 5.70062 3.87918 5.6555C3.93152 5.59502 4.00053 5.53406 4.0951 5.47959C4.01621 5.52803 3.94373 5.58771 3.8794 5.66105ZM5.3836 10.58V10.08V10.064C5.38795 10.0379 5.40244 9.98527 5.41694 9.94661L5.51695 9.65328L5.51985 9.64473C5.52444 9.63117 5.52915 9.61728 5.53401 9.60311C5.61124 9.62756 5.67872 9.66972 5.73196 9.72158C5.73437 9.72393 5.73674 9.72628 5.73906 9.72864C5.73924 9.72882 5.73942 9.72901 5.7396 9.72919C5.80834 9.7991 5.83958 9.87198 5.85331 9.91025C5.8804 9.98578 5.88182 10.0491 5.88216 10.0645L5.88217 10.0651C5.88232 10.0714 5.88232 10.0776 5.88223 10.0834L5.87702 10.0986C5.87653 10.1001 5.87604 10.1015 5.87554 10.103C5.87395 10.1076 5.87237 10.1122 5.8708 10.1168C5.82102 10.2616 5.78006 10.363 5.70322 10.4425C5.66134 10.4859 5.58638 10.5453 5.4349 10.5773C5.42129 10.5787 5.40381 10.58 5.3836 10.58ZM10.9206 10.0955L10.9206 10.5915C10.7085 10.5669 10.6133 10.4936 10.564 10.4425C10.5405 10.4182 10.5203 10.3918 10.5022 10.3627C10.5089 10.373 10.516 10.3832 10.5236 10.3933L10.9206 10.0955ZM10.3885 10.0759C10.3948 10.1018 10.4022 10.1298 10.4108 10.158C10.404 10.139 10.3972 10.1193 10.3902 10.0986L10.2908 9.80693C10.2894 9.80296 10.2881 9.79892 10.2867 9.79484C10.2643 9.72733 10.2369 9.64504 10.2057 9.57593C10.17 9.49675 10.104 9.37451 9.97234 9.28019C9.93169 9.25107 9.89053 9.22872 9.85052 9.21149C9.94166 9.24403 10.0001 9.28412 10.0404 9.32031C10.1415 9.41108 10.2135 9.55076 10.2959 9.79809L10.2959 9.79811L10.3885 10.0759ZM12.7217 10.2747C12.8839 10.0972 12.9617 9.87524 12.9702 9.65964C12.9663 9.88709 12.8774 10.1112 12.7207 10.2832C12.5899 10.4263 12.4128 10.5277 12.2174 10.5731C12.4034 10.5297 12.5815 10.4325 12.7217 10.2747Z" fill="#5A687D" stroke="#5A687D"/>
<mask id="path-3-inside-1_1971_209523" fill="white">
<path d="M4.27182 4.3335H3.78516C3.51182 4.3335 3.28516 4.10683 3.28516 3.8335C3.28516 3.56016 3.51182 3.3335 3.78516 3.3335H4.27182C4.54515 3.3335 4.77182 3.56016 4.77182 3.8335C4.77182 4.10683 4.54515 4.3335 4.27182 4.3335Z"/>
</mask>
<path d="M4.27182 4.3335H3.78516C3.51182 4.3335 3.28516 4.10683 3.28516 3.8335C3.28516 3.56016 3.51182 3.3335 3.78516 3.3335H4.27182C4.54515 3.3335 4.77182 3.56016 4.77182 3.8335C4.77182 4.10683 4.54515 4.3335 4.27182 4.3335Z" fill="#5A687D"/>
<path d="M4.27182 3.3335H3.78516V5.3335H4.27182V3.3335ZM3.78516 3.3335C4.06411 3.3335 4.28516 3.55454 4.28516 3.8335H2.28516C2.28516 4.65911 2.95954 5.3335 3.78516 5.3335V3.3335ZM4.28516 3.8335C4.28516 4.11245 4.06411 4.3335 3.78516 4.3335V2.3335C2.95954 2.3335 2.28516 3.00788 2.28516 3.8335H4.28516ZM3.78516 4.3335H4.27182V2.3335H3.78516V4.3335ZM4.27182 4.3335C3.99287 4.3335 3.77182 4.11245 3.77182 3.8335H5.77182C5.77182 3.00788 5.09744 2.3335 4.27182 2.3335V4.3335ZM3.77182 3.8335C3.77182 3.55454 3.99287 3.3335 4.27182 3.3335V5.3335C5.09744 5.3335 5.77182 4.65911 5.77182 3.8335H3.77182Z" fill="#5A687D" mask="url(#path-3-inside-1_1971_209523)"/>
<path d="M12.4906 4.3335H12.0039C11.7306 4.3335 11.5039 4.10683 11.5039 3.8335C11.5039 3.56016 11.7306 3.3335 12.0039 3.3335H12.4906C12.7639 3.3335 12.9906 3.56016 12.9906 3.8335C12.9906 4.10683 12.7639 4.3335 12.4906 4.3335Z" fill="#5A687D"/>
<path d="M6.68381 7.72021H5.23047C4.95714 7.72021 4.73047 7.49355 4.73047 7.22021C4.73047 6.94688 4.95714 6.72021 5.23047 6.72021H6.68381C6.95714 6.72021 7.18381 6.94688 7.18381 7.22021C7.18381 7.49355 6.96381 7.72021 6.68381 7.72021Z" fill="#5A687D"/>
<path d="M11.0354 7.72021H9.58203C9.3087 7.72021 9.08203 7.49355 9.08203 7.22021C9.08203 6.94688 9.3087 6.72021 9.58203 6.72021H11.0354C11.3087 6.72021 11.5354 6.94688 11.5354 7.22021C11.5354 7.49355 11.3087 7.72021 11.0354 7.72021Z" fill="#5A687D"/>
<path d="M8.13672 12.5002C7.86339 12.5002 7.63672 12.2735 7.63672 12.0002V11.3335C7.63672 11.0602 7.86339 10.8335 8.13672 10.8335C8.41005 10.8335 8.63672 11.0602 8.63672 11.3335V12.0002C8.63672 12.2735 8.41005 12.5002 8.13672 12.5002Z" fill="#5A687D"/>
<path d="M8.13672 15.1667C7.86339 15.1667 7.63672 14.94 7.63672 14.6667V14C7.63672 13.7267 7.86339 13.5 8.13672 13.5C8.41005 13.5 8.63672 13.7267 8.63672 14V14.6667C8.63672 14.94 8.41005 15.1667 8.13672 15.1667Z" fill="#5A687D"/>
<path d="M1.47011 15.1666C1.43011 15.1666 1.39012 15.1599 1.35012 15.1532C1.08345 15.0865 0.916784 14.8132 0.98345 14.5466L1.65012 11.8799C1.71678 11.6132 1.98344 11.4466 2.25678 11.5132C2.52344 11.5799 2.69011 11.8532 2.62344 12.1199L1.95678 14.7866C1.89678 15.0132 1.69678 15.1666 1.47011 15.1666Z" fill="#5A687D"/>
<path d="M14.8051 15.1665C14.5785 15.1665 14.3785 15.0131 14.3185 14.7865L13.6518 12.1198C13.5851 11.8531 13.7451 11.5798 14.0185 11.5131C14.2851 11.4465 14.5585 11.6065 14.6251 11.8798L15.2918 14.5465C15.3585 14.8131 15.1985 15.0864 14.9251 15.1531C14.8851 15.1598 14.8451 15.1665 14.8051 15.1665Z" fill="#5A687D"/>
</svg>
