<svg width="20" height="20" viewBox="0 0 20 20" fill="none" xmlns="http://www.w3.org/2000/svg">
<path d="M10.0003 18.9582C5.05866 18.9582 1.04199 14.9415 1.04199 9.99984C1.04199 5.05817 5.05866 1.0415 10.0003 1.0415C14.942 1.0415 18.9587 5.05817 18.9587 9.99984C18.9587 14.9415 14.942 18.9582 10.0003 18.9582ZM10.0003 2.2915C5.75033 2.2915 2.29199 5.74984 2.29199 9.99984C2.29199 14.2498 5.75033 17.7082 10.0003 17.7082C14.2503 17.7082 17.7087 14.2498 17.7087 9.99984C17.7087 5.74984 14.2503 2.2915 10.0003 2.2915Z" fill="#5A687D"/>
<path d="M7.5002 18.125H6.66686C6.3252 18.125 6.04186 17.8417 6.04186 17.5C6.04186 17.1583 6.30853 16.8833 6.6502 16.875C5.34186 12.4083 5.34186 7.59167 6.6502 3.125C6.30853 3.11667 6.04186 2.84167 6.04186 2.5C6.04186 2.15833 6.3252 1.875 6.66686 1.875H7.5002C7.7002 1.875 7.89186 1.975 8.00853 2.13333C8.1252 2.3 8.15853 2.50833 8.09186 2.7C6.5252 7.40833 6.5252 12.5917 8.09186 17.3083C8.15853 17.5 8.1252 17.7083 8.00853 17.875C7.89186 18.025 7.7002 18.125 7.5002 18.125Z" fill="#5A687D"/>
<path d="M12.5 18.1252C12.4333 18.1252 12.3667 18.1169 12.3 18.0919C11.975 17.9836 11.7917 17.6252 11.9083 17.3002C13.475 12.5919 13.475 7.40856 11.9083 2.6919C11.8 2.3669 11.975 2.00856 12.3 1.90023C12.6333 1.7919 12.9833 1.9669 13.0917 2.2919C14.75 7.25856 14.75 12.7252 13.0917 17.6836C13.0083 17.9586 12.7583 18.1252 12.5 18.1252Z" fill="#5A687D"/>
<path d="M10 14.3335C7.675 14.3335 5.35833 14.0085 3.125 13.3502C3.11667 13.6835 2.84167 13.9585 2.5 13.9585C2.15833 13.9585 1.875 13.6752 1.875 13.3335V12.5002C1.875 12.3002 1.975 12.1085 2.13333 11.9918C2.3 11.8752 2.50833 11.8418 2.7 11.9085C7.40833 13.4752 12.6 13.4752 17.3083 11.9085C17.5 11.8418 17.7083 11.8752 17.875 11.9918C18.0417 12.1085 18.1333 12.3002 18.1333 12.5002V13.3335C18.1333 13.6752 17.85 13.9585 17.5083 13.9585C17.1667 13.9585 16.8917 13.6918 16.8833 13.3502C14.6417 14.0085 12.325 14.3335 10 14.3335Z" fill="#5A687D"/>
<path d="M17.5001 8.12497C17.4335 8.12497 17.3668 8.11663 17.3001 8.09163C12.5918 6.52497 7.40015 6.52497 2.69181 8.09163C2.35848 8.19997 2.00848 8.02497 1.90015 7.69997C1.80015 7.36663 1.97515 7.01663 2.30015 6.9083C7.26681 5.24997 12.7335 5.24997 17.6918 6.9083C18.0168 7.01663 18.2001 7.37497 18.0835 7.69997C18.0085 7.9583 17.7585 8.12497 17.5001 8.12497Z" fill="#5A687D"/>
</svg>
