<svg width="28" height="32" viewBox="0 0 28 32" fill="none" xmlns="http://www.w3.org/2000/svg">
<path d="M23.3366 19.3402C23.3366 25.6772 18.2021 30.8117 11.87 30.8117C5.53298 30.8117 0.398438 25.6772 0.398438 19.3402C0.398438 13.0081 5.53298 7.87354 11.87 7.87354C18.2021 7.87354 23.3366 13.0081 23.3366 19.3402Z" fill="#007AFD"/>
<path d="M21.4781 19.3407C21.4781 24.6497 17.1727 28.9552 11.8685 28.9552C6.55936 28.9552 2.25391 24.6497 2.25391 19.3407C2.25391 14.0316 6.55936 9.73096 11.8685 9.73096C17.1775 9.73096 21.4781 14.0316 21.4781 19.3407Z" fill="white"/>
<path d="M13.3289 19.3403C13.3289 20.1451 12.6744 20.7996 11.8696 20.7996C11.0647 20.7996 10.4102 20.1451 10.4102 19.3403C10.4102 18.5354 11.0647 17.8809 11.8696 17.8809C12.6744 17.8809 13.3289 18.5354 13.3289 19.3403Z" fill="#FF4148"/>
<path d="M12.6202 5.51758V7.89818C12.3729 7.88364 12.1208 7.87394 11.8687 7.87394C11.6166 7.87394 11.3645 7.88364 11.1172 7.89818V5.51758H12.6202Z" fill="#E5E8FF"/>
<path d="M13.767 3.55847V5.08089C13.767 5.31847 13.5731 5.51241 13.3355 5.51241H10.3925C10.1549 5.51241 9.96094 5.31847 9.96094 5.08089V3.55847C9.96094 3.32089 10.1549 3.12695 10.3925 3.12695H13.3355C13.5731 3.1318 13.767 3.32089 13.767 3.55847Z" fill="#FFD24F"/>
<path d="M20.2692 8.83366L19.1056 10.4482C18.7177 10.1331 18.3104 9.84215 17.8789 9.58033L19.0474 7.96094L20.2692 8.83366Z" fill="#E5E8FF"/>
<path d="M21.9496 8.47032L21.455 9.15396C21.3144 9.3479 21.0478 9.39154 20.8538 9.25093L18.4684 7.52972C18.4223 7.49678 18.3832 7.45504 18.3534 7.40692C18.3236 7.35879 18.3035 7.30523 18.2945 7.24933C18.2855 7.19343 18.2877 7.13629 18.3009 7.08123C18.314 7.02616 18.338 6.97425 18.3714 6.92851L18.8659 6.24487C19.0065 6.05093 19.2732 6.00729 19.4671 6.1479L21.8526 7.86911C22.0417 8.00972 22.0853 8.27639 21.9496 8.47032Z" fill="#04B5A4"/>
<path d="M5.85515 9.57541C5.42848 9.83723 5.01636 10.1281 4.62848 10.4433L3.46484 8.82875L4.68666 7.95117L5.85515 9.57541Z" fill="#E5E8FF"/>
<path d="M1.7895 8.47018L2.28405 9.15382C2.42465 9.34776 2.69132 9.39139 2.88526 9.25079L5.27071 7.52957C5.46465 7.38897 5.50829 7.1223 5.36768 6.92836L4.87314 6.24473C4.8402 6.19867 4.79846 6.15959 4.75034 6.12975C4.70221 6.09992 4.64865 6.07991 4.59275 6.0709C4.53685 6.06188 4.47971 6.06403 4.42465 6.07722C4.36958 6.09042 4.31767 6.11439 4.27193 6.14776L1.88647 7.86897C1.69253 8.00957 1.6489 8.27624 1.7895 8.47018Z" fill="#04B5A4"/>
<path d="M11.8683 31.0447C5.41497 31.0447 0.164062 25.7938 0.164062 19.3405C0.164062 12.8872 5.41497 7.64111 11.8683 7.64111C18.3216 7.64111 23.5677 12.892 23.5677 19.3405C23.5677 25.7938 18.3216 31.0447 11.8683 31.0447ZM11.8683 8.10657C5.67194 8.10657 0.629517 13.1441 0.629517 19.3405C0.629517 25.5369 5.67194 30.5793 11.8683 30.5793C18.0647 30.5793 23.1022 25.5369 23.1022 19.3405C23.1022 13.1441 18.0647 8.10657 11.8683 8.10657Z" fill="#161C1C"/>
<path d="M11.8668 29.1877C6.4365 29.1877 2.01953 24.7707 2.01953 19.3404C2.01953 13.9101 6.4365 9.49316 11.8668 9.49316C17.2971 9.49316 21.7141 13.9101 21.7141 19.3404C21.7141 24.7707 17.2971 29.1877 11.8668 29.1877ZM11.8668 9.96347C6.69347 9.96347 2.48499 14.172 2.48499 19.3404C2.48499 24.5138 6.69347 28.7223 11.8668 28.7223C17.0353 28.7223 21.2438 24.5138 21.2438 19.3404C21.2438 14.172 17.0401 9.96347 11.8668 9.96347Z" fill="#161C1C"/>
<path d="M11.8679 21.0374C10.9321 21.0374 10.1758 20.2762 10.1758 19.3453C10.1758 18.4095 10.937 17.6532 11.8679 17.6532C12.8037 17.6532 13.56 18.4144 13.56 19.3453C13.56 20.2762 12.7988 21.0374 11.8679 21.0374ZM11.8679 18.1138C11.194 18.1138 10.6412 18.6616 10.6412 19.3404C10.6412 20.0144 11.194 20.5671 11.8679 20.5671C12.5418 20.5671 13.0946 20.0144 13.0946 19.3404C13.0946 18.6665 12.5418 18.1138 11.8679 18.1138ZM11.1164 8.13073C11.0582 8.13073 11 8.10649 10.9564 8.0677C10.9331 8.04605 10.9146 8.01977 10.9021 7.99055C10.8895 7.96132 10.8833 7.9298 10.8837 7.898V5.5174C10.8837 5.38649 10.9903 5.28467 11.1164 5.28467H12.6194C12.7503 5.28467 12.8521 5.39133 12.8521 5.5174V7.898C12.8521 7.96103 12.8231 8.02406 12.7794 8.0677C12.7309 8.11133 12.6728 8.13073 12.6049 8.13073C12.0958 8.10164 11.6449 8.10164 11.1309 8.13073H11.1164ZM11.3491 5.75012V7.65073C11.7031 7.63618 12.0279 7.63618 12.3867 7.65073V5.75012H11.3491Z" fill="#161C1C"/>
<path d="M13.3368 5.75029H10.3986C10.0301 5.75029 9.73438 5.44968 9.73438 5.08605V3.55877C9.73438 3.19514 10.035 2.89453 10.3986 2.89453H13.3368C13.7053 2.89453 14.001 3.19029 14.001 3.55877V5.0812C14.001 5.44968 13.7053 5.75029 13.3368 5.75029ZM10.3986 3.36483C10.2871 3.36483 10.1998 3.45211 10.1998 3.55877V5.0812C10.1998 5.19271 10.2871 5.27999 10.3986 5.27999H13.3368C13.4483 5.27999 13.5356 5.19271 13.5356 5.0812V3.55877C13.5356 3.45211 13.4483 3.36483 13.3368 3.36483H10.3986ZM19.1065 10.6764C19.0532 10.6764 18.9998 10.657 18.961 10.623C18.5732 10.3079 18.1707 10.0218 17.7635 9.76968C17.7363 9.75225 17.7129 9.72951 17.6947 9.70283C17.6764 9.67615 17.6638 9.64608 17.6575 9.6144C17.6511 9.58272 17.6512 9.5501 17.6578 9.51846C17.6643 9.48683 17.6772 9.45684 17.6956 9.43029L18.8641 7.8109C18.9416 7.70423 19.0871 7.68483 19.1889 7.75756L20.4107 8.63514C20.4592 8.66908 20.4932 8.72726 20.5029 8.78544C20.5081 8.81597 20.5069 8.84726 20.4994 8.87731C20.4919 8.90736 20.4782 8.93552 20.4592 8.95999L19.2956 10.5745C19.2568 10.6279 19.1986 10.6618 19.1356 10.6715C19.1259 10.6764 19.1162 10.6764 19.1065 10.6764ZM18.2144 9.50787C18.5004 9.69211 18.7816 9.8909 19.058 10.1091L19.9404 8.88241L19.1016 8.27635L18.2144 9.50787Z" fill="#161C1C"/>
<path d="M21.0996 9.56598C20.9639 9.56598 20.8281 9.52719 20.7118 9.43992L18.3263 7.71871C18.1808 7.61689 18.0887 7.46174 18.0596 7.28719C18.0305 7.11265 18.0742 6.9381 18.176 6.79265L18.6705 6.10901C18.7724 5.96356 18.9275 5.87143 19.1021 5.84234C19.2766 5.81325 19.4511 5.85689 19.5966 5.95871L21.9821 7.67992C22.1275 7.78174 22.2196 7.93689 22.2487 8.11143C22.2778 8.28598 22.2342 8.46053 22.1324 8.60598L21.6378 9.28962C21.5118 9.46901 21.3081 9.56598 21.0996 9.56598ZM19.2087 6.30295C19.199 6.30295 19.1893 6.30295 19.1748 6.3078C19.1214 6.31749 19.0778 6.34174 19.0487 6.38537L18.5542 7.06901C18.5244 7.11124 18.5122 7.16341 18.5202 7.21446C18.5299 7.2678 18.559 7.31143 18.5978 7.34537L20.9833 9.06659C21.0705 9.12962 21.1966 9.11022 21.2596 9.02295L21.759 8.33446C21.7881 8.29083 21.8027 8.24234 21.793 8.18901C21.7833 8.13568 21.7542 8.09204 21.7105 8.0581L19.3251 6.33689C19.2909 6.3134 19.2501 6.30151 19.2087 6.30295ZM4.62933 10.6763H4.60024C4.56849 10.6715 4.53801 10.6604 4.51055 10.6438C4.48309 10.6271 4.45919 10.6052 4.44024 10.5793L3.2766 8.96477C3.24266 8.91628 3.22327 8.85325 3.23296 8.79022C3.24266 8.72719 3.2766 8.67386 3.32509 8.63992L4.5469 7.76234C4.65357 7.68962 4.79903 7.70901 4.87175 7.81568L6.04024 9.43507C6.07903 9.4884 6.09357 9.55143 6.07903 9.61931C6.06448 9.68234 6.02569 9.74053 5.97236 9.77446C5.54569 10.0363 5.14327 10.3223 4.77478 10.6278C4.736 10.6617 4.68266 10.6763 4.62933 10.6763ZM3.79054 8.88234L4.67297 10.1042C4.93963 9.89568 5.22084 9.69689 5.5166 9.50295L4.62933 8.27143L3.79054 8.88234Z" fill="#161C1C"/>
<path d="M2.63079 9.56589C2.4223 9.56589 2.21866 9.46892 2.08775 9.28953L1.59321 8.60589C1.37988 8.31013 1.44775 7.89316 1.74351 7.67983L4.12897 5.95862C4.42472 5.74529 4.84169 5.81316 5.05503 6.10892L5.54957 6.79256C5.76291 7.08832 5.69503 7.50529 5.39927 7.72347L3.01382 9.44468C2.9023 9.5271 2.76654 9.56589 2.63079 9.56589ZM1.97624 8.33438L2.47079 9.01801C2.53382 9.10529 2.65988 9.12468 2.74715 9.06165L5.1326 7.34044C5.17624 7.31135 5.20533 7.26286 5.21503 7.20953C5.22472 7.1562 5.21018 7.10286 5.18109 7.06407L4.68654 6.38044C4.65552 6.33821 4.60909 6.30994 4.55734 6.30177C4.50558 6.2936 4.4527 6.30619 4.41018 6.3368L2.02472 8.05801C1.9326 8.12104 1.91321 8.2471 1.97624 8.33438ZM11.1156 7.22892C11.0962 7.22892 11.0768 7.22892 11.0575 7.21923C10.3661 7.03944 9.75402 6.63534 9.31706 6.07027C8.88009 5.5052 8.64299 4.81111 8.64291 4.0968C8.64291 2.31741 10.0878 0.872559 11.8671 0.872559C13.6465 0.872559 15.0914 2.31741 15.0914 4.0968C15.0914 5.56589 14.0975 6.85074 12.6768 7.21923C12.5508 7.25316 12.4247 7.17559 12.3908 7.04953C12.3568 6.92347 12.4344 6.79741 12.5605 6.76347C13.1517 6.61083 13.6754 6.26605 14.0492 5.78334C14.4231 5.30064 14.626 4.70737 14.6259 4.0968C14.6259 2.57438 13.3896 1.33801 11.8671 1.33801C10.3447 1.33801 9.10836 2.57438 9.10836 4.0968C9.10836 5.35256 9.95685 6.45316 11.1738 6.76832C11.2999 6.80226 11.3726 6.92832 11.3435 7.05438C11.3144 7.1562 11.2175 7.22892 11.1156 7.22892ZM11.8671 12.0677C11.8054 12.0677 11.7462 12.0432 11.7026 11.9995C11.6589 11.9559 11.6344 11.8967 11.6344 11.835V11.0253C11.6344 10.9636 11.6589 10.9044 11.7026 10.8607C11.7462 10.8171 11.8054 10.7926 11.8671 10.7926C11.9289 10.7926 11.9881 10.8171 12.0317 10.8607C12.0754 10.9044 12.0999 10.9636 12.0999 11.0253V11.835C12.0999 11.9659 11.9932 12.0677 11.8671 12.0677ZM11.8671 27.8883C11.8054 27.8883 11.7462 27.8638 11.7026 27.8202C11.6589 27.7765 11.6344 27.7173 11.6344 27.6556V26.8459C11.6344 26.7842 11.6589 26.725 11.7026 26.6813C11.7462 26.6377 11.8054 26.6132 11.8671 26.6132C11.9289 26.6132 11.9881 26.6377 12.0317 26.6813C12.0754 26.725 12.0999 26.7842 12.0999 26.8459V27.6556C12.0999 27.7865 11.9932 27.8883 11.8671 27.8883ZM20.1823 19.5732H19.3726C19.3109 19.5732 19.2517 19.5486 19.208 19.505C19.1644 19.4614 19.1399 19.4022 19.1399 19.3404C19.1399 19.2787 19.1644 19.2195 19.208 19.1759C19.2517 19.1322 19.3109 19.1077 19.3726 19.1077H20.1823C20.244 19.1077 20.3032 19.1322 20.3469 19.1759C20.3905 19.2195 20.415 19.2787 20.415 19.3404C20.415 19.4022 20.3905 19.4614 20.3469 19.505C20.3032 19.5486 20.244 19.5732 20.1823 19.5732ZM4.36169 19.5732H3.552C3.49027 19.5732 3.43108 19.5486 3.38743 19.505C3.34379 19.4614 3.31927 19.4022 3.31927 19.3404C3.31927 19.2787 3.34379 19.2195 3.38743 19.1759C3.43108 19.1322 3.49027 19.1077 3.552 19.1077H4.36169C4.42342 19.1077 4.48261 19.1322 4.52626 19.1759C4.5699 19.2195 4.59442 19.2787 4.59442 19.3404C4.59442 19.4022 4.5699 19.4614 4.52626 19.505C4.48261 19.5486 4.42342 19.5732 4.36169 19.5732ZM17.1762 14.2689C17.1181 14.2689 17.055 14.2447 17.0114 14.201C16.9895 14.1795 16.9721 14.1539 16.9603 14.1256C16.9484 14.0973 16.9423 14.0669 16.9423 14.0362C16.9423 14.0055 16.9484 13.9751 16.9603 13.9468C16.9721 13.9185 16.9895 13.8929 17.0114 13.8713L17.5835 13.2992C17.6756 13.2071 17.8211 13.2071 17.9132 13.2992C18.0053 13.3913 18.0053 13.5368 17.9132 13.6289L17.3411 14.201C17.2926 14.2447 17.2344 14.2689 17.1762 14.2689ZM5.98594 25.4544C5.92775 25.4544 5.86472 25.4301 5.82109 25.3865C5.79922 25.365 5.78185 25.3393 5.76999 25.311C5.75813 25.2827 5.75203 25.2523 5.75203 25.2217C5.75203 25.191 5.75813 25.1606 5.76999 25.1323C5.78185 25.104 5.79922 25.0783 5.82109 25.0568L6.39321 24.4847C6.48533 24.3926 6.63078 24.3926 6.72291 24.4847C6.81503 24.5768 6.81503 24.7223 6.72291 24.8144L6.15078 25.3865C6.10715 25.4301 6.04412 25.4544 5.98594 25.4544ZM17.7435 25.4544C17.6853 25.4544 17.6223 25.4301 17.5787 25.3865L17.0065 24.8144C16.9144 24.7223 16.9144 24.5768 17.0065 24.4847C17.0987 24.3926 17.2441 24.3926 17.3362 24.4847L17.9084 25.0568C18.0005 25.1489 18.0005 25.2944 17.9084 25.3865C17.8647 25.4301 17.8065 25.4544 17.7435 25.4544ZM6.55806 14.2689C6.49988 14.2689 6.43685 14.2447 6.39321 14.201L5.82109 13.6289C5.72897 13.5368 5.72897 13.3913 5.82109 13.2992C5.91321 13.2071 6.05866 13.2071 6.15078 13.2992L6.72291 13.8713C6.81503 13.9635 6.81503 14.1089 6.72291 14.201C6.67927 14.2447 6.61624 14.2689 6.55806 14.2689ZM7.48412 23.9562C7.42594 23.9562 7.36291 23.932 7.31927 23.8883C7.2974 23.8668 7.28003 23.8411 7.26817 23.8128C7.25631 23.7845 7.25021 23.7542 7.25021 23.7235C7.25021 23.6928 7.25631 23.6624 7.26817 23.6341C7.28003 23.6058 7.2974 23.5801 7.31927 23.5586L10.6696 20.2083C10.7617 20.1162 10.9071 20.1162 10.9993 20.2083C11.0914 20.3004 11.0914 20.4459 10.9993 20.538L7.64897 23.8883C7.60533 23.9368 7.5423 23.9562 7.48412 23.9562ZM11.8671 18.1138C11.8054 18.1138 11.7462 18.0893 11.7026 18.0456C11.6589 18.002 11.6344 17.9428 11.6344 17.881V13.7501C11.6344 13.6192 11.7411 13.5174 11.8671 13.5174C11.9932 13.5174 12.0999 13.6241 12.0999 13.7501V17.881C12.0999 18.012 11.9932 18.1138 11.8671 18.1138Z" fill="#161C1C"/>
<path d="M26.3124 30.8943H13.91C12.9063 30.8943 12.2906 29.7985 12.7997 28.9404L19.0009 18.5598C19.5003 17.721 20.7172 17.721 21.2166 18.5598L27.4178 28.9404C27.9318 29.7985 27.316 30.8943 26.3124 30.8943Z" fill="#FFD24F"/>
<path d="M21.0699 28.4651C21.0699 28.9839 20.6481 29.4057 20.1245 29.4057H20.0954C19.8453 29.4057 19.6054 29.3064 19.4286 29.1295C19.2517 28.9527 19.1523 28.7128 19.1523 28.4627C19.1523 28.2126 19.2517 27.9727 19.4286 27.7959C19.6054 27.619 19.8453 27.5197 20.0954 27.5197H20.1245C20.6481 27.5197 21.0699 27.9463 21.0699 28.4651ZM21.0699 21.813V26.0215C21.0699 26.2106 20.9148 26.3657 20.7257 26.3657H19.5039C19.3148 26.3657 19.1596 26.2106 19.1596 26.0215V21.813C19.1596 21.6239 19.3148 21.4688 19.5039 21.4688H20.7257C20.9148 21.4688 21.0699 21.6239 21.0699 21.813Z" fill="#FF4148"/>
<path d="M26.3108 31.1271H13.9084C13.3508 31.1271 12.8562 30.8362 12.5847 30.3562C12.3084 29.8713 12.3181 29.2992 12.5993 28.8192L18.8005 18.4386C19.0769 17.9731 19.5665 17.6968 20.1096 17.6968C20.6526 17.6968 21.1375 17.9731 21.4187 18.4386L27.6199 28.8192C27.9059 29.2944 27.9108 29.8713 27.6344 30.3562C27.3629 30.841 26.8684 31.1271 26.3108 31.1271ZM20.1096 18.1671C19.7362 18.1671 19.3969 18.361 19.2029 18.681L13.0017 29.0616C12.8029 29.3913 12.7981 29.7889 12.992 30.1283C13.1811 30.4628 13.5253 30.6665 13.9132 30.6665H26.3156C26.6987 30.6665 27.0429 30.4677 27.2369 30.1331C27.4259 29.7986 27.4211 29.401 27.2272 29.0665L21.0162 18.681C20.9242 18.5227 20.7917 18.3917 20.6324 18.3014C20.4731 18.2111 20.2927 18.1648 20.1096 18.1671Z" fill="#161C1C"/>
<path d="M20.1252 29.6436H20.0962C19.8632 29.6432 19.6356 29.5739 19.442 29.4443C19.2483 29.3148 19.0974 29.1308 19.0082 28.9156C18.919 28.7004 18.8956 28.4636 18.9408 28.2351C18.986 28.0065 19.0978 27.7965 19.2622 27.6314C19.4901 27.4084 19.7858 27.2872 20.0962 27.2872H20.1252C20.7749 27.2872 21.3034 27.8157 21.3034 28.4654C21.3034 29.1151 20.7749 29.6436 20.1252 29.6436ZM20.0962 27.7527C20.0025 27.7525 19.9097 27.7708 19.8232 27.8065C19.7366 27.8423 19.658 27.8948 19.5917 27.961C19.5255 28.0272 19.473 28.1059 19.4373 28.1924C19.4015 28.279 19.3832 28.3717 19.3834 28.4654C19.3834 28.8581 19.7034 29.1733 20.0962 29.1733H20.1252C20.518 29.1733 20.838 28.8533 20.838 28.4654C20.838 28.0727 20.518 27.7527 20.1252 27.7527H20.0962ZM20.7216 26.6036H19.4998C19.1798 26.6036 18.918 26.3417 18.918 26.0217V21.8133C18.918 21.4933 19.1798 21.2314 19.4998 21.2314H20.7216C21.0416 21.2314 21.3034 21.4933 21.3034 21.8133V26.0217C21.3034 26.3417 21.0416 26.6036 20.7216 26.6036ZM19.4998 21.7017C19.4368 21.7017 19.3883 21.7502 19.3883 21.8133V26.0217C19.3883 26.0848 19.4368 26.1333 19.4998 26.1333H20.7216C20.7846 26.1333 20.8331 26.0848 20.8331 26.0217V21.8133C20.8331 21.7502 20.7846 21.7017 20.7216 21.7017H19.4998Z" fill="#161C1C"/>
<path d="M14.8 29.4058C14.8 29.2992 14.8873 29.207 14.9988 29.207H17.937C18.0437 29.207 18.1358 29.2943 18.1358 29.4058C18.1358 29.5125 18.0485 29.6046 17.937 29.6046H14.9988C14.8873 29.6046 14.8 29.5173 14.8 29.4058ZM14.1406 29.4058C14.1406 29.2992 14.2279 29.207 14.3394 29.207C14.4461 29.207 14.5382 29.2943 14.5382 29.4058C14.5382 29.5125 14.4509 29.6046 14.3394 29.6046C14.2279 29.6046 14.1406 29.5173 14.1406 29.4058Z" fill="white"/>
</svg>
