<svg width="20" height="20" viewBox="0 0 20 20" fill="none" xmlns="http://www.w3.org/2000/svg">
<path d="M4.16667 12.2918C2.9 12.2918 1.875 11.2668 1.875 10.0002C1.875 8.7335 2.9 7.7085 4.16667 7.7085C5.43333 7.7085 6.45833 8.7335 6.45833 10.0002C6.45833 11.2668 5.43333 12.2918 4.16667 12.2918ZM4.16667 8.9585C3.59167 8.9585 3.125 9.42516 3.125 10.0002C3.125 10.5752 3.59167 11.0418 4.16667 11.0418C4.74167 11.0418 5.20833 10.5752 5.20833 10.0002C5.20833 9.42516 4.74167 8.9585 4.16667 8.9585Z" fill="#3B82F6"/>
<path d="M15.8346 12.2918C14.568 12.2918 13.543 11.2668 13.543 10.0002C13.543 8.7335 14.568 7.7085 15.8346 7.7085C17.1013 7.7085 18.1263 8.7335 18.1263 10.0002C18.1263 11.2668 17.1013 12.2918 15.8346 12.2918ZM15.8346 8.9585C15.2596 8.9585 14.793 9.42516 14.793 10.0002C14.793 10.5752 15.2596 11.0418 15.8346 11.0418C16.4096 11.0418 16.8763 10.5752 16.8763 10.0002C16.8763 9.42516 16.4096 8.9585 15.8346 8.9585Z" fill="#3B82F6"/>
<path d="M9.9987 12.2918C8.73203 12.2918 7.70703 11.2668 7.70703 10.0002C7.70703 8.7335 8.73203 7.7085 9.9987 7.7085C11.2654 7.7085 12.2904 8.7335 12.2904 10.0002C12.2904 11.2668 11.2654 12.2918 9.9987 12.2918ZM9.9987 8.9585C9.4237 8.9585 8.95703 9.42516 8.95703 10.0002C8.95703 10.5752 9.4237 11.0418 9.9987 11.0418C10.5737 11.0418 11.0404 10.5752 11.0404 10.0002C11.0404 9.42516 10.5737 8.9585 9.9987 8.9585Z" fill="#3B82F6"/>
</svg>
