<svg width="32" height="32" viewBox="0 0 32 32" fill="none" xmlns="http://www.w3.org/2000/svg">
<g clip-path="url(#clip0_1971_210758)">
<path d="M19.1984 17.2002H24.7984H31.1984L30.3984 20.0002L25.5984 24.0002H14.3984V21.6002L19.1984 17.2002Z" fill="#FFAA00"/>
<rect x="14.4375" y="24.4375" width="14.9375" height="5.875" fill="#E6173A"/>
<path d="M2.0625 2H29.7125C30.5962 2 31.3125 2.71634 31.3125 3.6V16.8H2.0625C2.0625 16.8 6.6875 12.6499 6.6875 9.28125C6.6875 5.9126 2.0625 2 2.0625 2Z" fill="#E6173A"/>
<path d="M2.0625 2H29.7125C30.5962 2 31.3125 2.71634 31.3125 3.6V9.875H6.34375C6.34375 9.875 6.34375 7.98944 5.90625 6.1316C5.46875 4.27377 2.0625 2 2.0625 2Z" fill="#F3586A"/>
<path d="M23.5625 11.3125L27.3125 7.5625" stroke="#E6DBCF" stroke-width="1.6" stroke-miterlimit="10" stroke-linecap="round" stroke-linejoin="round"/>
<path d="M19.8125 11.3125C19.8125 12.3481 18.9731 13.1875 17.9375 13.1875H17.9373C16.9016 13.1875 16.0625 12.3481 16.0625 11.3125V7.5625C16.0625 6.52706 16.9018 5.6875 17.9373 5.6875H17.9375C18.9731 5.6875 19.8125 6.52694 19.8125 7.5625V11.3125Z" stroke="#E6DBCF" stroke-width="1.6" stroke-miterlimit="10" stroke-linecap="round" stroke-linejoin="round"/>
<path d="M27.3125 11.3125L27.25 11.25M23.5625 7.5625L23.5938 7.625" stroke="#E6DBCF" stroke-width="1.6" stroke-miterlimit="10" stroke-linecap="round" stroke-linejoin="round"/>
<path d="M31.0625 18.8125V3.8125C31.0625 2.77694 30.2231 1.9375 29.1875 1.9375H0.9375C4.27081 2.90975 6.5625 5.96531 6.5625 9.4375C6.5625 12.9097 4.27081 15.9653 0.9375 16.9375H29.1875C30.2231 16.9375 31.0625 17.7769 31.0625 18.8125ZM31.0625 18.8125C31.0625 19.387 30.8041 19.9011 30.3972 20.2451L25.4375 24.4375M31.0625 30.0625H16.0625C15.0269 30.0625 14.1875 29.2231 14.1875 28.1875V22.5625" stroke="black" stroke-width="1.2" stroke-miterlimit="10" stroke-linecap="round" stroke-linejoin="round"/>
<path d="M19.8125 16.9375L14.8527 21.1299C14.4459 21.4739 14.1875 21.988 14.1875 22.5625C14.1875 23.5981 15.0269 24.4375 16.0625 24.4375H31.0625C29.8519 24.841 29.0354 25.9739 29.0354 27.25C29.0354 28.5261 29.8519 29.659 31.0625 30.0625M10.4375 7.5625L12.3125 5.6875V13.1875" stroke="black" stroke-width="1.2" stroke-miterlimit="10" stroke-linecap="round" stroke-linejoin="round"/>
<path d="M10.4375 7.5625L12.3125 5.6875V13.1875" stroke="#E6DBCF" stroke-width="1.6" stroke-miterlimit="10" stroke-linecap="round" stroke-linejoin="round"/>
</g>
<defs>
<clipPath id="clip0_1971_210758">
<rect width="32" height="32" rx="3.2" fill="white"/>
</clipPath>
</defs>
</svg>
