<svg width="24" height="24" viewBox="0 0 24 24" fill="none" xmlns="http://www.w3.org/2000/svg">
<g clip-path="url(#clip0_1971_210309)">
<path d="M5.99219 15.0938H8.39692V19.0788H5.99219V15.0938Z" fill="#555A66"/>
<path d="M15.6055 15.0938H18.0102V19.0788H15.6055V15.0938Z" fill="#333940"/>
<path d="M17.6816 13.1849H6.3125L7.28525 8.55C7.45452 7.74352 8.1658 7.16602 8.98986 7.16602H15.0042C15.8282 7.16602 16.5395 7.74352 16.7088 8.55L17.6816 13.1849Z" fill="#FF6C52"/>
<path d="M16.7128 8.55C16.5435 7.74352 15.8322 7.16602 15.0082 7.16602H12V13.185H17.6855L16.7128 8.55Z" fill="#FF432E"/>
<path d="M15.9323 11.9689H8.06641L8.64616 9.20665C8.74703 8.72599 9.17097 8.38184 9.66208 8.38184H14.3367C14.8278 8.38184 15.2517 8.72599 15.3526 9.20665L15.9323 11.9689Z" fill="white"/>
<path d="M15.3542 9.20958C15.2534 8.72892 14.8294 8.38477 14.3383 8.38477H12V11.9719H15.9339L15.3542 9.20958Z" fill="#E9EDF5"/>
<path d="M19.0957 16.7704H4.90234V13.4175C4.90234 12.2398 5.85705 11.2852 7.03469 11.2852H16.9633C18.141 11.2852 19.0957 12.2399 19.0957 13.4175V16.7704H19.0957Z" fill="#FF6C52"/>
<path d="M19.0977 13.4175C19.0977 12.2398 18.143 11.2852 16.9653 11.2852H12V16.7705H19.0977V13.4175Z" fill="#FF432E"/>
<path d="M6.11719 13.3008H9.75178V14.7524H6.11719V13.3008Z" fill="#FFCE00"/>
<path d="M14.2461 13.3008H17.8807V14.7524H14.2461V13.3008Z" fill="#FDBA12"/>
<path d="M3.97594 8.98849L3.25781 7.77945L11.9992 2.58691L20.7406 7.77935L20.0225 8.9884L11.9992 4.22252L3.97594 8.98849Z" fill="#555A66"/>
<path d="M12 4.22252L20.0233 8.9884L20.7414 7.77935L12 2.58691V4.22252Z" fill="#333940"/>
</g>
<defs>
<clipPath id="clip0_1971_210309">
<rect width="24" height="24" fill="white"/>
</clipPath>
</defs>
</svg>
