<svg width="48" height="48" viewBox="0 0 48 48" fill="none" xmlns="http://www.w3.org/2000/svg">
<path d="M38.3999 26.1333H9.59987C9.01077 26.1333 8.5332 26.6109 8.5332 27.2V32.5333C8.5332 33.1224 9.01077 33.6 9.59987 33.6H38.3999C38.989 33.6 39.4665 33.1224 39.4665 32.5333V27.2C39.4665 26.6109 38.989 26.1333 38.3999 26.1333Z" fill="#00BCD4"/>
<path d="M38.4008 26.1333H36.8008C37.0834 26.1341 37.3542 26.2468 37.5541 26.4467C37.754 26.6465 37.8666 26.9173 37.8674 27.2V32.5333C37.8666 32.8159 37.754 33.0868 37.5541 33.2866C37.3542 33.4865 37.0834 33.5991 36.8008 33.6H38.4008C38.6834 33.5991 38.9542 33.4865 39.1541 33.2866C39.354 33.0868 39.4666 32.8159 39.4674 32.5333V27.2C39.4666 26.9173 39.354 26.6465 39.1541 26.4467C38.9542 26.2468 38.6834 26.1341 38.4008 26.1333Z" fill="#00838F"/>
<path d="M35.2008 22.3999V26.1333H12.8008V22.3999C12.8008 21.8341 13.0255 21.2915 13.4256 20.8914C13.8257 20.4914 14.3683 20.2666 14.9341 20.2666H33.0674C33.6332 20.2666 34.1759 20.4914 34.5759 20.8914C34.976 21.2915 35.2008 21.8341 35.2008 22.3999ZM35.2008 33.5999V37.3333C35.2008 37.8991 34.976 38.4417 34.5759 38.8418C34.1759 39.2418 33.6332 39.4666 33.0674 39.4666H14.9341C14.3683 39.4666 13.8257 39.2418 13.4256 38.8418C13.0255 38.4417 12.8008 37.8991 12.8008 37.3333V33.5999H35.2008Z" fill="#FFEB3A"/>
<path d="M32.5335 17.0665V20.2665H29.3335V17.0665C29.3335 14.1209 26.9457 11.7332 24.0001 11.7332C21.0545 11.7332 18.6668 14.1209 18.6668 17.0665V20.2665H15.4668V17.0665C15.4668 12.3535 19.2871 8.5332 24.0001 8.5332C28.7132 8.5332 32.5335 12.3535 32.5335 17.0665Z" fill="#9E9E9E"/>
<path d="M22.3997 11.7332C19.4557 11.738 17.0712 14.1225 17.0664 17.0665V20.2665H18.6664V17.0665C18.6694 15.7922 19.128 14.5609 19.9594 13.5951C20.7907 12.6293 21.94 11.9925 23.1997 11.7999C22.9352 11.7572 22.6675 11.7353 22.3997 11.7332ZM30.0371 11.0292C29.2442 10.2367 28.3029 9.60834 27.2669 9.18005C26.231 8.75176 25.1207 8.53195 23.9997 8.53321C23.7299 8.53321 23.4632 8.54921 23.1997 8.57374C27.5864 8.97748 30.9405 12.6612 30.9331 17.0665V20.2665H32.5331V17.0665C32.5343 15.9455 32.3145 14.8353 31.8862 13.7993C31.4579 12.7634 30.8296 11.822 30.0371 11.0292Z" fill="#707070"/>
<path d="M9.6 34.1333H12.2667V37.3333C12.2675 38.0403 12.5487 38.7181 13.0487 39.218C13.5486 39.7179 14.2263 39.9992 14.9333 40H33.0667C33.7737 39.9992 34.4514 39.7179 34.9514 39.218C35.4513 38.7181 35.7325 38.0403 35.7333 37.3333V34.1333H38.4C38.8243 34.1333 39.2313 33.9648 39.5314 33.6647C39.8314 33.3646 40 32.9577 40 32.5333V27.2C40 26.7757 39.8314 26.3687 39.5314 26.0686C39.2313 25.7686 38.8243 25.6 38.4 25.6H35.7333V22.4C35.7325 21.693 35.4513 21.0152 34.9514 20.5153C34.4514 20.0154 33.7737 19.7342 33.0667 19.7333V17.0667C33.0667 12.0592 29.0075 8 24 8C18.9925 8 14.9333 12.0592 14.9333 17.0667V19.7333C14.2263 19.7342 13.5486 20.0154 13.0487 20.5153C12.5487 21.0152 12.2675 21.693 12.2667 22.4V25.6H9.6C9.17565 25.6 8.76869 25.7686 8.46863 26.0686C8.16857 26.3687 8 26.7757 8 27.2V32.5333C8 32.9577 8.16857 33.3646 8.46863 33.6647C8.76869 33.9648 9.17565 34.1333 9.6 34.1333ZM34.6667 37.3333C34.6667 37.7577 34.4981 38.1646 34.198 38.4647C33.898 38.7648 33.491 38.9333 33.0667 38.9333H14.9333C14.509 38.9333 14.102 38.7648 13.802 38.4647C13.5019 38.1646 13.3333 37.7577 13.3333 37.3333V34.1333H34.6667V37.3333ZM16 17.0667C16 12.6485 19.5819 9.06667 24 9.06667C28.4181 9.06667 32 12.6485 32 17.0667V19.7333H29.8667V17.0667C29.8667 13.8267 27.24 11.2 24 11.2C20.76 11.2 18.1333 13.8267 18.1333 17.0667V19.7333H16V17.0667ZM19.2 19.7333V17.0667C19.2 15.7936 19.7057 14.5727 20.6059 13.6726C21.5061 12.7724 22.727 12.2667 24 12.2667C25.273 12.2667 26.4939 12.7724 27.3941 13.6726C28.2943 14.5727 28.8 15.7936 28.8 17.0667V19.7333H19.2ZM13.3333 22.4C13.3333 21.9757 13.5019 21.5687 13.802 21.2686C14.102 20.9686 14.509 20.8 14.9333 20.8H33.0667C33.491 20.8 33.898 20.9686 34.198 21.2686C34.4981 21.5687 34.6667 21.9757 34.6667 22.4V25.6H13.3333V22.4ZM9.06667 27.2C9.06667 27.0586 9.12286 26.9229 9.22288 26.8229C9.3229 26.7229 9.45855 26.6667 9.6 26.6667H38.4C38.5415 26.6667 38.6771 26.7229 38.7771 26.8229C38.8771 26.9229 38.9333 27.0586 38.9333 27.2V32.5333C38.9333 32.6748 38.8771 32.8104 38.7771 32.9105C38.6771 33.0105 38.5415 33.0667 38.4 33.0667H9.6C9.45855 33.0667 9.3229 33.0105 9.22288 32.9105C9.12286 32.8104 9.06667 32.6748 9.06667 32.5333V27.2Z" fill="#323945"/>
<path d="M10.2225 31.2294C10.2614 31.2876 10.3113 31.3377 10.3695 31.3767C10.4278 31.4156 10.4931 31.4427 10.5618 31.4565C10.6305 31.4702 10.7012 31.4702 10.7699 31.4566C10.8386 31.443 10.904 31.416 10.9622 31.3771L11.7329 30.863V31.4667C11.7329 31.6081 11.7891 31.7438 11.8891 31.8438C11.9891 31.9438 12.1248 32 12.2662 32C12.4077 32 12.5433 31.9438 12.6434 31.8438C12.7434 31.7438 12.7996 31.6081 12.7996 31.4667V30.863L13.5702 31.3771C13.6879 31.4556 13.832 31.4841 13.9707 31.4564C14.1094 31.4287 14.2315 31.3471 14.31 31.2294C14.3885 31.1117 14.417 30.9676 14.3893 30.8289C14.3616 30.6902 14.2799 30.5681 14.1622 30.4896L13.2262 29.8667L14.1606 29.2438C14.2189 29.2049 14.269 29.1549 14.3079 29.0967C14.3469 29.0385 14.374 28.9732 14.3877 28.9045C14.4014 28.8358 14.4015 28.7651 14.3879 28.6964C14.3743 28.6277 14.3472 28.5623 14.3084 28.504C14.2695 28.4458 14.2195 28.3957 14.1613 28.3568C14.1031 28.3178 14.0378 28.2907 13.9691 28.277C13.9004 28.2632 13.8297 28.2632 13.761 28.2768C13.6923 28.2904 13.6269 28.3174 13.5686 28.3563L12.7996 28.8704V28.2667C12.7996 28.1253 12.7434 27.9896 12.6434 27.8896C12.5433 27.7896 12.4077 27.7334 12.2662 27.7334C12.1248 27.7334 11.9891 27.7896 11.8891 27.8896C11.7891 27.9896 11.7329 28.1253 11.7329 28.2667V28.8704L10.9622 28.3563C10.8446 28.2778 10.7005 28.2493 10.5618 28.277C10.423 28.3047 10.301 28.3863 10.2225 28.504C10.144 28.6217 10.1155 28.7658 10.1432 28.9045C10.1709 29.0432 10.2526 29.1653 10.3702 29.2438L11.3062 29.8667L10.3702 30.4896C10.312 30.5285 10.2619 30.5785 10.2229 30.6367C10.184 30.6949 10.1569 30.7602 10.1431 30.8289C10.1294 30.8976 10.1294 30.9683 10.143 31.037C10.1566 31.1057 10.1836 31.1711 10.2225 31.2294ZM16.0892 31.2294C16.128 31.2876 16.178 31.3377 16.2362 31.3767C16.2944 31.4156 16.3597 31.4427 16.4284 31.4565C16.4971 31.4702 16.5679 31.4702 16.6366 31.4566C16.7053 31.443 16.7706 31.416 16.8289 31.3771L17.5996 30.863V31.4667C17.5996 31.6081 17.6558 31.7438 17.7558 31.8438C17.8558 31.9438 17.9915 32 18.1329 32C18.2744 32 18.41 31.9438 18.51 31.8438C18.61 31.7438 18.6662 31.6081 18.6662 31.4667V30.863L19.4369 31.3771C19.5546 31.4556 19.6986 31.4841 19.8374 31.4564C19.9761 31.4287 20.0981 31.3471 20.1766 31.2294C20.2551 31.1117 20.2837 30.9676 20.256 30.8289C20.2283 30.6902 20.1466 30.5681 20.0289 30.4896L19.0929 29.8667L20.0273 29.2438C20.0856 29.2049 20.1356 29.1549 20.1746 29.0967C20.2135 29.0385 20.2407 28.9732 20.2544 28.9045C20.2681 28.8358 20.2681 28.7651 20.2545 28.6964C20.2409 28.6277 20.2139 28.5623 20.175 28.504C20.1362 28.4458 20.0862 28.3957 20.028 28.3568C19.9698 28.3178 19.9045 28.2907 19.8358 28.277C19.7671 28.2632 19.6964 28.2632 19.6276 28.2768C19.5589 28.2904 19.4936 28.3174 19.4353 28.3563L18.6662 28.8704V28.2667C18.6662 28.1253 18.61 27.9896 18.51 27.8896C18.41 27.7896 18.2744 27.7334 18.1329 27.7334C17.9915 27.7334 17.8558 27.7896 17.7558 27.8896C17.6558 27.9896 17.5996 28.1253 17.5996 28.2667V28.8704L16.8289 28.3563C16.7112 28.2778 16.5672 28.2493 16.4284 28.277C16.2897 28.3047 16.1677 28.3863 16.0892 28.504C16.0107 28.6217 15.9821 28.7658 16.0098 28.9045C16.0375 29.0432 16.1192 29.1653 16.2369 29.2438L17.1729 29.8667L16.2385 30.4896C16.1801 30.5284 16.1299 30.5782 16.0908 30.6364C16.0517 30.6946 16.0244 30.7598 16.0105 30.8285C15.9966 30.8973 15.9965 30.968 16.01 31.0368C16.0234 31.1056 16.0504 31.171 16.0892 31.2294ZM27.8225 31.2294C27.8614 31.2876 27.9113 31.3377 27.9695 31.3767C28.0278 31.4156 28.0931 31.4427 28.1618 31.4565C28.2305 31.4702 28.3012 31.4702 28.3699 31.4566C28.4386 31.443 28.504 31.416 28.5622 31.3771L29.3329 30.863V31.4667C29.3329 31.6081 29.3891 31.7438 29.4891 31.8438C29.5891 31.9438 29.7248 32 29.8662 32C30.0077 32 30.1433 31.9438 30.2434 31.8438C30.3434 31.7438 30.3996 31.6081 30.3996 31.4667V30.863L31.1702 31.3771C31.2879 31.4556 31.432 31.4841 31.5707 31.4564C31.7094 31.4287 31.8315 31.3471 31.91 31.2294C31.9885 31.1117 32.017 30.9676 31.9893 30.8289C31.9616 30.6902 31.8799 30.5681 31.7622 30.4896L30.8262 29.8667L31.7606 29.2438C31.8189 29.2049 31.869 29.1549 31.9079 29.0967C31.9469 29.0385 31.974 28.9732 31.9877 28.9045C32.0014 28.8358 32.0015 28.7651 31.9879 28.6964C31.9743 28.6277 31.9472 28.5623 31.9084 28.504C31.8695 28.4458 31.8195 28.3957 31.7613 28.3568C31.7031 28.3178 31.6378 28.2907 31.5691 28.277C31.5004 28.2632 31.4297 28.2632 31.361 28.2768C31.2923 28.2904 31.2269 28.3174 31.1686 28.3563L30.3996 28.8704V28.2667C30.3996 28.1253 30.3434 27.9896 30.2434 27.8896C30.1433 27.7896 30.0077 27.7334 29.8662 27.7334C29.7248 27.7334 29.5891 27.7896 29.4891 27.8896C29.3891 27.9896 29.3329 28.1253 29.3329 28.2667V28.8704L28.5622 28.3563C28.4446 28.2778 28.3005 28.2493 28.1618 28.277C28.023 28.3047 27.901 28.3863 27.8225 28.504C27.744 28.6217 27.7155 28.7658 27.7432 28.9045C27.7709 29.0432 27.8526 29.1653 27.9702 29.2438L28.9062 29.8667L27.9718 30.4896C27.9134 30.5284 27.8632 30.5782 27.8241 30.6364C27.785 30.6946 27.7577 30.7598 27.7439 30.8285C27.73 30.8973 27.7298 30.968 27.7433 31.0368C27.7568 31.1056 27.7837 31.171 27.8225 31.2294ZM21.9558 31.2294C21.9947 31.2876 22.0447 31.3377 22.1029 31.3767C22.1611 31.4156 22.2264 31.4427 22.2951 31.4565C22.3638 31.4702 22.4345 31.4702 22.5032 31.4566C22.5719 31.443 22.6373 31.416 22.6956 31.3771L23.4662 30.863V31.4667C23.4662 31.6081 23.5224 31.7438 23.6224 31.8438C23.7225 31.9438 23.8581 32 23.9996 32C24.141 32 24.2767 31.9438 24.3767 31.8438C24.4767 31.7438 24.5329 31.6081 24.5329 31.4667V30.863L25.3036 31.3771C25.4213 31.4556 25.5653 31.4841 25.704 31.4564C25.8428 31.4287 25.9648 31.3471 26.0433 31.2294C26.1218 31.1117 26.1503 30.9676 26.1226 30.8289C26.0949 30.6902 26.0133 30.5681 25.8956 30.4896L24.9596 29.8667L25.894 29.2438C25.9522 29.2049 26.0023 29.1549 26.0412 29.0967C26.0802 29.0385 26.1073 28.9732 26.121 28.9045C26.1348 28.8358 26.1348 28.7651 26.1212 28.6964C26.1076 28.6277 26.0806 28.5623 26.0417 28.504C26.0028 28.4458 25.9529 28.3957 25.8947 28.3568C25.8364 28.3178 25.7711 28.2907 25.7024 28.277C25.6337 28.2632 25.563 28.2632 25.4943 28.2768C25.4256 28.2904 25.3602 28.3174 25.302 28.3563L24.5329 28.8704V28.2667C24.5329 28.1253 24.4767 27.9896 24.3767 27.8896C24.2767 27.7896 24.141 27.7334 23.9996 27.7334C23.8581 27.7334 23.7225 27.7896 23.6224 27.8896C23.5224 27.9896 23.4662 28.1253 23.4662 28.2667V28.8704L22.6956 28.3563C22.5779 28.2778 22.4338 28.2493 22.2951 28.277C22.1564 28.3047 22.0343 28.3863 21.9558 28.504C21.8773 28.6217 21.8488 28.7658 21.8765 28.9045C21.9042 29.0432 21.9859 29.1653 22.1036 29.2438L23.0396 29.8667L22.1052 30.4896C22.0468 30.5284 21.9966 30.5782 21.9574 30.6364C21.9183 30.6946 21.8911 30.7598 21.8772 30.8285C21.8633 30.8973 21.8631 30.968 21.8766 31.0368C21.8901 31.1056 21.917 31.171 21.9558 31.2294ZM16.5329 21.8667H14.9329C14.7915 21.8667 14.6558 21.9229 14.5558 22.0229C14.4558 22.1229 14.3996 22.2586 14.3996 22.4V24C14.3996 24.1415 14.4558 24.2771 14.5558 24.3772C14.6558 24.4772 14.7915 24.5334 14.9329 24.5334C15.0744 24.5334 15.21 24.4772 15.31 24.3772C15.41 24.2771 15.4662 24.1415 15.4662 24V22.9334H16.5329C16.6744 22.9334 16.81 22.8772 16.91 22.7772C17.01 22.6771 17.0662 22.5415 17.0662 22.4C17.0662 22.2586 17.01 22.1229 16.91 22.0229C16.81 21.9229 16.6744 21.8667 16.5329 21.8667ZM34.1329 32H37.3329C37.4744 32 37.61 31.9438 37.71 31.8438C37.81 31.7438 37.8662 31.6081 37.8662 31.4667C37.8662 31.3253 37.81 31.1896 37.71 31.0896C37.61 30.9896 37.4744 30.9334 37.3329 30.9334H34.1329C33.9915 30.9334 33.8558 30.9896 33.7558 31.0896C33.6558 31.1896 33.5996 31.3253 33.5996 31.4667C33.5996 31.6081 33.6558 31.7438 33.7558 31.8438C33.8558 31.9438 33.9915 32 34.1329 32Z" fill="#323945"/>
</svg>
