<svg width="20" height="20" viewBox="0 0 20 20" fill="none" xmlns="http://www.w3.org/2000/svg">
<path d="M9.55412 18.3967L9.55417 18.3965L9.54135 18.393C5.42625 17.2592 2.4502 13.4095 2.4502 9.25833V5.59998C2.4502 4.87004 3.00212 4.04401 3.68216 3.7624C3.68241 3.76229 3.68266 3.76219 3.68291 3.76209L8.32199 1.86313C8.32214 1.86307 8.3223 1.863 8.32246 1.86294C9.41026 1.42045 10.5993 1.42101 11.6773 1.86267L11.6774 1.86273L16.3175 3.76209C16.3177 3.7622 16.318 3.7623 16.3183 3.76241C16.9983 4.04404 17.5502 4.87005 17.5502 5.59998V9.25833C17.5502 13.4003 14.5665 17.2511 10.4579 18.3933L10.4579 18.3932L10.4463 18.3967C10.3091 18.4384 10.1591 18.4583 10.0002 18.4583C9.84128 18.4583 9.6913 18.4384 9.55412 18.3967ZM8.41987 2.10364L8.41911 2.10395L3.77746 4.00393L3.77746 4.00392L3.77457 4.00512C3.45863 4.13676 3.19733 4.39305 3.01878 4.65824C2.84042 4.92316 2.7002 5.26303 2.7002 5.60832V9.26667C2.7002 13.3239 5.60679 17.0465 9.60379 18.1556C9.86077 18.2315 10.1396 18.2315 10.3966 18.1556C14.3936 17.0465 17.3002 13.3239 17.3002 9.26667V5.60832C17.3002 5.26303 17.16 4.92316 16.9816 4.65824C16.8031 4.39305 16.5418 4.13676 16.2258 4.00512L16.2258 4.00511L16.2229 4.00393L11.5813 2.10395L11.5805 2.10364C11.0715 1.89626 10.5408 1.79167 10.0002 1.79167C9.45958 1.79167 8.9289 1.89626 8.41987 2.10364Z" fill="#525F72" stroke="#525F72"/>
</svg>
