<svg width="24" height="24" viewBox="0 0 24 24" fill="none" xmlns="http://www.w3.org/2000/svg">
<path d="M10.4136 21.5964L10.4115 21.5943L8.70147 19.9044L8.69938 19.9023C8.17685 19.3919 7.49179 19.11 6.75999 19.11H6C4.20265 19.11 2.75 17.6604 2.75 15.89V4.97998C2.75 3.20961 4.20265 1.76001 6 1.76001H18C19.7974 1.76001 21.25 3.20961 21.25 4.97998V15.89C21.25 17.6604 19.7974 19.11 18 19.11H17.24C16.5121 19.11 15.8141 19.3894 15.2975 19.9054C15.2972 19.9057 15.2968 19.9061 15.2964 19.9065L13.5885 21.5943L13.5864 21.5964C13.1547 22.0281 12.5739 22.25 12 22.25C11.4261 22.25 10.8453 22.0281 10.4136 21.5964ZM10.7685 21.2356L10.7701 21.2372C11.4545 21.9076 12.5555 21.9076 13.2399 21.2372L13.2415 21.2356L14.951 19.546C14.9511 19.5459 14.9512 19.5458 14.9513 19.5457C15.5687 18.9372 16.3828 18.6 17.25 18.6H18C19.5103 18.6 20.75 17.382 20.75 15.88V4.96997C20.75 3.45656 19.5088 2.25 18 2.25H6C4.4897 2.25 3.25 3.46802 3.25 4.96997V15.88C3.25 17.3934 4.49118 18.6 6 18.6H6.75999C7.62728 18.6 8.44157 18.9373 9.05897 19.546L10.7685 21.2356Z" fill="#3B82F6" stroke="#3B82F6"/>
<path d="M10.3822 14.51H7.70218C7.26218 14.51 6.85218 14.2999 6.59218 13.9399C6.34218 13.5999 6.28218 13.18 6.40218 12.78C6.75218 11.71 7.61218 11.13 8.37218 10.61C9.17218 10.07 9.62218 9.73002 9.62218 9.15002C9.62218 8.63002 9.20217 8.20996 8.68217 8.20996C8.16217 8.20996 7.74219 8.63002 7.74219 9.15002C7.74219 9.56002 7.40219 9.90002 6.99219 9.90002C6.58219 9.90002 6.24219 9.56002 6.24219 9.15002C6.24219 7.81002 7.33217 6.70996 8.68217 6.70996C10.0322 6.70996 11.1222 7.80002 11.1222 9.15002C11.1222 10.56 10.0622 11.28 9.21219 11.86C8.68219 12.22 8.18217 12.56 7.93217 13.01H10.3722C10.7822 13.01 11.1222 13.35 11.1222 13.76C11.1222 14.17 10.7922 14.51 10.3822 14.51Z" fill="#3B82F6"/>
<path d="M16.0428 14.5101C15.6328 14.5101 15.2928 14.1701 15.2928 13.7601V13.07H13.3328C13.3328 13.07 13.3328 13.07 13.3228 13.07C12.8328 13.07 12.3828 12.8101 12.1328 12.3901C11.8828 11.9601 11.8828 11.4301 12.1328 11.0101C12.8128 9.84007 13.6028 8.51003 14.3228 7.35003C14.6428 6.84003 15.2528 6.61008 15.8228 6.77008C16.3928 6.94008 16.7928 7.46012 16.7828 8.06012V11.58H17.0028C17.4128 11.58 17.7528 11.92 17.7528 12.33C17.7528 12.74 17.4128 13.08 17.0028 13.08H16.7928V13.7701C16.7928 14.1801 16.4628 14.5101 16.0428 14.5101ZM15.2928 8.64007C14.7028 9.60007 14.0928 10.63 13.5428 11.57H15.2928V8.64007Z" fill="#3B82F6"/>
</svg>
