<svg width="32" height="32" viewBox="0 0 32 32" fill="none" xmlns="http://www.w3.org/2000/svg">
<g clip-path="url(#clip0_1969_120679)">
<path d="M9.8 24.0625C10.3875 23.325 10.625 21.075 10.6875 20.4062C10.7063 20.1812 10.6125 19.9688 10.4375 19.825C10.2625 19.6875 10.0312 19.6437 9.81875 19.7125C9.175 19.9187 7.0375 20.65 6.45 21.3875C5.7125 22.3125 5.8625 23.6625 6.7875 24.4C7.7125 25.1375 9.0625 24.9875 9.8 24.0625ZM7.61875 23.3625C7.26875 23.0812 7.2125 22.5688 7.4875 22.2188C7.6375 22.0312 8.3625 21.6687 9.23125 21.3312C9.09375 22.2562 8.90625 23.0438 8.75625 23.2313C8.48125 23.5813 7.96875 23.6375 7.61875 23.3625ZM17.6375 24.0625C18.225 23.325 18.4625 21.075 18.525 20.4062C18.5437 20.1812 18.45 19.9688 18.275 19.825C18.1 19.6875 17.8687 19.6437 17.6562 19.7125C17.0125 19.9187 14.875 20.65 14.2875 21.3875C13.55 22.3125 13.7 23.6625 14.625 24.4C15.55 25.1375 16.9 24.9875 17.6375 24.0625ZM15.4563 23.3625C15.1062 23.0812 15.05 22.575 15.325 22.2188C15.475 22.0312 16.2 21.6687 17.0688 21.3312C16.9312 22.2562 16.7437 23.0438 16.5938 23.2313C16.3188 23.5813 15.8063 23.6375 15.4563 23.3625ZM25.475 24.0625C26.0625 23.325 26.3 21.075 26.3625 20.4062C26.3812 20.1812 26.2875 19.9688 26.1125 19.825C25.9375 19.6875 25.7062 19.6437 25.4937 19.7125C24.85 19.9187 22.7125 20.65 22.125 21.3875C21.3875 22.3125 21.5375 23.6625 22.4625 24.4C23.3875 25.1437 24.7437 24.9875 25.475 24.0625ZM23.2938 23.3625C22.9438 23.0812 22.8875 22.5688 23.1625 22.2188C23.3125 22.0312 24.0375 21.6687 24.9062 21.3312C24.7687 22.2562 24.5812 23.0438 24.4312 23.2313C24.1562 23.5813 23.6438 23.6375 23.2938 23.3625ZM4.5875 25.9875C3.8125 26.2375 1.2375 27.1125 0.54375 27.9813C-0.30625 29.0438 -0.13125 30.6062 0.9375 31.4562C2 32.3062 3.5625 32.1312 4.4125 31.0625C5.10625 30.1938 5.3875 27.4875 5.4625 26.675C5.48125 26.45 5.3875 26.2375 5.2125 26.0938C5.03125 25.9625 4.8 25.925 4.5875 25.9875ZM3.3625 30.2375C2.96875 30.7312 2.25 30.8063 1.7625 30.4188C1.275 30.025 1.19375 29.3125 1.58125 28.8188C1.81875 28.525 2.8875 28.025 4.00625 27.6063C3.84375 28.7938 3.59375 29.95 3.3625 30.2375ZM12.425 25.9875C11.65 26.2375 9.075 27.1125 8.38125 27.9813C7.96875 28.5 7.78125 29.1437 7.85625 29.8C7.93125 30.4562 8.25625 31.0437 8.775 31.4562C9.8375 32.3062 11.4 32.1312 12.25 31.0625C12.9438 30.1938 13.225 27.4875 13.3 26.675C13.3188 26.45 13.225 26.2375 13.05 26.0938C12.8688 25.9625 12.6375 25.925 12.425 25.9875ZM11.2 30.2375C10.8062 30.725 10.0938 30.8063 9.6 30.4188C9.1125 30.025 9.03125 29.3125 9.41875 28.8188C9.65625 28.525 10.725 28.025 11.8438 27.6063C11.6812 28.7938 11.4312 29.95 11.2 30.2375ZM20.2625 25.9875C19.4875 26.2375 16.9125 27.1125 16.2188 27.9813C15.3687 29.0438 15.5437 30.6062 16.6125 31.4562C17.675 32.3062 19.2375 32.1312 20.0875 31.0625C20.7812 30.1938 21.0625 27.4875 21.1375 26.675C21.1562 26.45 21.0625 26.2375 20.8875 26.0938C20.7063 25.9625 20.475 25.925 20.2625 25.9875ZM19.0375 30.2375C18.6438 30.7312 17.9312 30.8063 17.4375 30.4188C16.95 30.025 16.8687 29.3125 17.2563 28.8188C17.4937 28.525 18.5625 28.025 19.6812 27.6063C19.5187 28.7938 19.2688 29.95 19.0375 30.2375ZM28.0938 25.9875C27.3188 26.2375 24.7437 27.1125 24.05 27.9813C23.6375 28.5 23.45 29.1437 23.525 29.8C23.6 30.4562 23.925 31.0437 24.4438 31.4562C25.5063 32.3062 27.0688 32.1312 27.9188 31.0625C28.6125 30.1938 28.8937 27.4875 28.9688 26.675C28.9875 26.45 28.8937 26.2375 28.7188 26.0938C28.5438 25.9625 28.3125 25.925 28.0938 25.9875ZM26.875 30.2375C26.4813 30.725 25.7687 30.8063 25.275 30.4188C24.7875 30.025 24.7062 29.3125 25.0938 28.8188C25.3312 28.525 26.4 28.025 27.5187 27.6063C27.3562 28.7938 27.1063 29.95 26.875 30.2375ZM25.9688 8.26875C25.9562 6.95625 25.4938 5.675 24.6375 4.65C22.8938 2.55 19.9812 2 17.65 3.15625C16.4937 1.21875 14.3813 0 12.0813 0C8.625 0 5.79375 2.7125 5.59375 6.11875C2.48125 6.26875 0 8.84375 0 11.9937C0 15.2375 2.6375 17.875 5.88125 17.875H27.1375C29.8188 17.875 32 15.6938 32 13.0125C32 9.75 28.925 7.525 25.9688 8.26875ZM27.1375 16.5375H5.88125C3.375 16.5375 1.33125 14.5 1.33125 11.9875C1.33125 9.275 3.7 7.225 6.19375 7.45C6.61875 7.4875 6.96875 7.125 6.9125 6.70625C6.61875 4.40625 8.775 1.3375 12.075 1.3375C14.1 1.3375 15.9437 2.525 16.7687 4.35625C16.85 4.5375 17.0063 4.66875 17.1938 4.725C17.3813 4.78125 17.5875 4.75 17.75 4.6375C19.5688 3.4125 22.125 3.71875 23.6063 5.50625C24.45 6.51875 24.7937 7.84375 24.55 9.14375C24.5062 9.39375 24.6062 9.65 24.8062 9.8C25.0125 9.95 25.2812 9.975 25.5125 9.85625C27.8125 8.6625 30.6562 10.325 30.6562 13.0125C30.6688 14.9563 29.0813 16.5375 27.1375 16.5375Z" fill="#5A687D"/>
<path d="M12.0813 2.66876C9.95635 2.66876 8.2751 4.36251 8.2501 6.52501C8.24385 6.89376 8.54385 7.19376 8.90635 7.20001H8.9126C9.2751 7.20001 9.5751 6.90626 9.58135 6.53751C9.6001 5.11251 10.6938 4.00001 12.0813 4.00001C12.4501 4.00001 12.7501 3.70001 12.7501 3.33126C12.7501 2.96251 12.4438 2.66876 12.0813 2.66876Z" fill="#5A687D"/>
</g>
<defs>
<clipPath id="clip0_1969_120679">
<rect width="32" height="32" fill="white"/>
</clipPath>
</defs>
</svg>
