<svg width="32" height="32" viewBox="0 0 32 32" fill="none" xmlns="http://www.w3.org/2000/svg">
<path d="M22.6653 0C19.7246 0 17.332 2.39256 17.332 5.33331C17.332 8.27406 19.7246 10.6666 22.6653 10.6666C25.6061 10.6666 27.9987 8.27406 27.9987 5.33331C27.9987 2.39256 25.6061 0 22.6653 0ZM22.6653 9.33331C20.4596 9.33331 18.6653 7.53906 18.6653 5.33331C18.6653 3.12756 20.4596 1.33331 22.6653 1.33331C24.8711 1.33331 26.6653 3.12756 26.6653 5.33331C26.6653 7.53906 24.871 9.33331 22.6653 9.33331Z" fill="#525F72"/>
<path d="M23.3333 5.05731V3.33331C23.3333 2.96481 23.0351 2.66663 22.6666 2.66663C22.2981 2.66663 22 2.96487 22 3.33331V5.33331C22 5.42086 22.0172 5.50756 22.0507 5.58844C22.0843 5.66932 22.1334 5.7428 22.1953 5.80469L22.862 6.47137C22.9238 6.53338 22.9973 6.58255 23.0782 6.61607C23.1591 6.64959 23.2458 6.66679 23.3334 6.66669C23.5039 6.66669 23.6745 6.60156 23.8048 6.47137C24.0652 6.21094 24.0652 5.78906 23.8048 5.52869L23.3333 5.05731ZM16.8066 17.3333H13.3333C12.5983 17.3333 12 16.735 12 16V10.6667C12 9.19594 10.8041 8 9.33331 8C7.86256 8 6.66663 9.19594 6.66663 10.6667V18C6.66663 19.3063 7.20962 20.4854 8.07769 21.3333H6.66663C5.93163 21.3333 5.33331 20.735 5.33331 20V8.66669C5.33337 8.57912 5.31616 8.4924 5.28268 8.41149C5.2492 8.33058 5.20009 8.25706 5.13817 8.19514C5.07625 8.13322 5.00274 8.08412 4.92182 8.05063C4.84091 8.01715 4.75419 7.99994 4.66663 8C4.57906 7.99995 4.49235 8.01716 4.41145 8.05065C4.33054 8.08414 4.25703 8.13324 4.19512 8.19516C4.13321 8.25708 4.08411 8.3306 4.05063 8.4115C4.01715 8.49241 3.99994 8.57913 4 8.66669V20C4 21.4707 5.19594 22.6667 6.66669 22.6667H8V30.6667H6C5.91243 30.6666 5.82571 30.6838 5.7448 30.7173C5.66389 30.7508 5.59037 30.7999 5.52845 30.8618C5.46653 30.9237 5.41743 30.9973 5.38394 31.0782C5.35046 31.1591 5.33326 31.2458 5.33331 31.3334C5.33326 31.4209 5.35047 31.5076 5.38396 31.5886C5.41745 31.6695 5.46656 31.743 5.52847 31.8049C5.59039 31.8668 5.66391 31.9159 5.74482 31.9494C5.82572 31.9829 5.91244 32.0001 6 32H11.3333C11.4209 32.0001 11.5076 31.9829 11.5885 31.9494C11.6694 31.9159 11.7429 31.8668 11.8049 31.8049C11.8668 31.7429 11.9159 31.6694 11.9494 31.5885C11.9829 31.5076 12.0001 31.4209 12 31.3333C12.0001 31.2457 11.9829 31.159 11.9494 31.0781C11.9159 30.9972 11.8668 30.9237 11.8049 30.8618C11.7429 30.7998 11.6694 30.7507 11.5885 30.7173C11.5076 30.6838 11.4209 30.6666 11.3333 30.6666H9.33331V22.6666H14.6666V29.9264C14.6666 31.0696 15.5969 31.9999 16.7402 31.9999C17.7981 31.9999 18.6849 31.2069 18.8008 30.1653L19.9804 20.8801C19.9934 20.7623 20 20.6444 20 20.5266C20 18.7656 18.5677 17.3333 16.8066 17.3333ZM18.6562 20.722L17.4766 30.0078C17.4566 30.1891 17.3704 30.3566 17.2345 30.4782C17.0986 30.5998 16.9226 30.6669 16.7402 30.6667C16.3321 30.6667 16 30.3346 16 29.9264V22C16.0001 21.9124 15.9829 21.8257 15.9494 21.7448C15.9159 21.6639 15.8668 21.5904 15.8049 21.5285C15.7429 21.4665 15.6694 21.4174 15.5885 21.3839C15.5076 21.3505 15.4209 21.3333 15.3333 21.3333H11.3333C9.49544 21.3333 8 19.8379 8 18V10.6667C8 9.93169 8.59831 9.33337 9.33331 9.33337C10.0683 9.33337 10.6666 9.93169 10.6666 10.6667V16C10.6666 17.4707 11.8626 18.6667 13.3333 18.6667H16.8066C17.832 18.6667 18.6666 19.5013 18.6666 20.5267C18.6667 20.5919 18.6632 20.6571 18.6562 20.722ZM10 6.66669C11.8379 6.66669 13.3333 5.17125 13.3333 3.33337C13.3333 1.4955 11.8379 0 10 0C8.16213 0 6.66669 1.49544 6.66669 3.33331C6.66669 5.17119 8.16213 6.66669 10 6.66669ZM10 1.33331C11.1029 1.33331 12 2.23044 12 3.33331C12 4.43619 11.1029 5.33331 10 5.33331C8.89713 5.33331 8 4.43619 8 3.33331C8 2.2305 8.89713 1.33331 10 1.33331Z" fill="#525F72"/>
</svg>
