<svg width="20" height="21" viewBox="0 0 20 21" fill="none" xmlns="http://www.w3.org/2000/svg">
<path d="M13.3337 10.625H6.66699C6.63684 10.625 6.60556 10.6127 6.57992 10.5871C6.55428 10.5614 6.54199 10.5301 6.54199 10.5C6.54199 10.4699 6.55428 10.4386 6.57992 10.4129C6.60556 10.3873 6.63684 10.375 6.66699 10.375H13.3337C13.3638 10.375 13.3951 10.3873 13.4207 10.4129C13.4464 10.4386 13.4587 10.4699 13.4587 10.5C13.4587 10.5301 13.4464 10.5614 13.4207 10.5871C13.3951 10.6127 13.3638 10.625 13.3337 10.625Z" fill="white" stroke="white"/>
<path d="M10 13.9584C9.96985 13.9584 9.93857 13.9461 9.91293 13.9204C9.88728 13.8948 9.875 13.8635 9.875 13.8334V7.16669C9.875 7.13654 9.88728 7.10526 9.91293 7.07962C9.93857 7.05397 9.96985 7.04169 10 7.04169C10.0301 7.04169 10.0614 7.05397 10.0871 7.07962C10.1127 7.10526 10.125 7.13654 10.125 7.16669V13.8334C10.125 13.8635 10.1127 13.8948 10.0871 13.9204C10.0614 13.9461 10.0301 13.9584 10 13.9584Z" fill="white" stroke="white"/>
<path d="M12.5003 18.9584H7.50033C5.29522 18.9584 3.84067 18.4853 2.92784 17.5725C2.01501 16.6597 1.54199 15.2051 1.54199 13V8.00002C1.54199 5.79492 2.01501 4.34036 2.92784 3.42753C3.84067 2.5147 5.29522 2.04169 7.50033 2.04169H12.5003C14.7054 2.04169 16.16 2.5147 17.0728 3.42753C17.9856 4.34036 18.4587 5.79492 18.4587 8.00002V13C18.4587 15.2051 17.9856 16.6597 17.0728 17.5725C16.16 18.4853 14.7054 18.9584 12.5003 18.9584ZM7.50033 2.29169C5.54422 2.29169 4.06923 2.63442 3.10198 3.60168C2.13473 4.56893 1.79199 6.04391 1.79199 8.00002V13C1.79199 14.9561 2.13473 16.4311 3.10198 17.3984C4.06923 18.3656 5.54422 18.7084 7.50033 18.7084H12.5003C14.4564 18.7084 15.9314 18.3656 16.8987 17.3984C17.8659 16.4311 18.2087 14.9561 18.2087 13V8.00002C18.2087 6.04391 17.8659 4.56893 16.8987 3.60168C15.9314 2.63442 14.4564 2.29169 12.5003 2.29169H7.50033Z" fill="white" stroke="white"/>
</svg>
