<svg width="20" height="20" viewBox="0 0 20 20" fill="none" xmlns="http://www.w3.org/2000/svg">
<path d="M9.99977 13.5C9.54446 13.5 9.0897 13.3245 8.74499 12.9798L3.31166 7.54645C3.29013 7.52492 3.27686 7.49419 3.27686 7.45834C3.27686 7.42248 3.29013 7.39175 3.31166 7.37022C3.33319 7.3487 3.36392 7.33542 3.39977 7.33542C3.43562 7.33542 3.46636 7.3487 3.48789 7.37022L8.92122 12.8036C9.51648 13.3988 10.4831 13.3988 11.0783 12.8036L16.5117 7.37022C16.5332 7.3487 16.5639 7.33542 16.5998 7.33542C16.6356 7.33542 16.6664 7.3487 16.6879 7.37022C16.7094 7.39175 16.7227 7.42248 16.7227 7.45834C16.7227 7.49419 16.7094 7.52492 16.6879 7.54645L11.2546 12.9798C10.9098 13.3245 10.4551 13.5 9.99977 13.5Z" fill="#909AA8" stroke="#909AA8"/>
</svg>
