<svg width="48" height="48" viewBox="0 0 48 48" fill="none" xmlns="http://www.w3.org/2000/svg">
<path d="M13.4 37H8.30005C6.55513 37 5.24625 36.4991 4.37358 35.6264C3.5009 34.7537 3 33.4449 3 31.7V8.30005C3 6.55513 3.5009 5.24625 4.37358 4.37358C5.24625 3.5009 6.55513 3 8.30005 3H16.9C18.6449 3 19.9538 3.5009 20.8264 4.37357C21.6991 5.24625 22.2 6.55512 22.2 8.30005V12C22.2 12.5439 21.7438 13 21.2 13C20.6561 13 20.2 12.5439 20.2 12V8.30005C20.2 7.23931 20.0067 6.3697 19.4186 5.78148C18.8304 5.19326 17.9608 5 16.9 5H8.30005C7.2393 5 6.36968 5.19326 5.78147 5.78147C5.19326 6.36968 5 7.2393 5 8.30005V31.7C5 32.7607 5.19326 33.6303 5.78147 34.2185C6.36968 34.8067 7.2393 35 8.30005 35H13.4C13.9439 35 14.4 35.4561 14.4 36C14.4 36.5439 13.9439 37 13.4 37Z" fill="#5E66D2" stroke="#5E66D2"/>
<path d="M29.9204 45H18.2404C16.3257 45 14.8817 44.4492 13.9164 43.484C12.9511 42.5187 12.4004 41.0747 12.4004 39.16V16.84C12.4004 14.9253 12.9511 13.4813 13.9164 12.516C14.8817 11.5508 16.3257 11 18.2404 11H29.9204C31.835 11 33.2734 11.5507 34.2335 12.5152C35.1939 13.4801 35.7404 14.9241 35.7404 16.84V39.16C35.7404 41.0759 35.1939 42.5199 34.2335 43.4848C33.2734 44.4493 31.835 45 29.9204 45ZM18.2404 13C16.9936 13 15.9925 13.2407 15.3168 13.9164C14.6411 14.5921 14.4004 15.5932 14.4004 16.84V39.16C14.4004 40.4068 14.6411 41.4079 15.3168 42.0836C15.9925 42.7593 16.9936 43 18.2404 43H29.9204C31.1581 43 32.1543 42.7589 32.8273 42.0827C33.4996 41.4072 33.7404 40.4068 33.7404 39.16V16.84C33.7404 15.5932 33.4996 14.5928 32.8273 13.9173C32.1543 13.2411 31.1581 13 29.9204 13H18.2404Z" fill="#5E66D2" stroke="#5E66D2"/>
<path d="M39.7007 37H34.7407C34.1969 37 33.7407 36.5439 33.7407 36C33.7407 35.4561 34.1969 35 34.7407 35H39.7007C40.7614 35 41.6311 34.8067 42.2193 34.2185C42.8075 33.6303 43.0007 32.7607 43.0007 31.7V8.30005C43.0007 7.2393 42.8075 6.36968 42.2193 5.78147C41.6311 5.19326 40.7614 5 39.7007 5H31.1007C30.04 5 29.1704 5.19326 28.5822 5.78148C27.994 6.3697 27.8008 7.23931 27.8008 8.30005V12C27.8008 12.5439 27.3446 13 26.8008 13C26.2569 13 25.8008 12.5439 25.8008 12V8.30005C25.8008 6.55512 26.3017 5.24625 27.1743 4.37357C28.0469 3.5009 29.3558 3 31.1007 3H39.7007C41.4456 3 42.7545 3.5009 43.6272 4.37358C44.4998 5.24625 45.0007 6.55513 45.0007 8.30005V31.7C45.0007 33.4449 44.4998 34.7537 43.6272 35.6264C42.7545 36.4991 41.4456 37 39.7007 37Z" fill="#5E66D2" stroke="#5E66D2"/>
<path d="M28 23.5H20C19.18 23.5 18.5 22.82 18.5 22C18.5 21.18 19.18 20.5 20 20.5H28C28.82 20.5 29.5 21.18 29.5 22C29.5 22.82 28.82 23.5 28 23.5Z" fill="#5E66D2"/>
<path d="M28 29.5H20C19.18 29.5 18.5 28.82 18.5 28C18.5 27.18 19.18 26.5 20 26.5H28C28.82 26.5 29.5 27.18 29.5 28C29.5 28.82 28.82 29.5 28 29.5Z" fill="#5E66D2"/>
<path d="M24 45.5C23.18 45.5 22.5 44.82 22.5 44V38C22.5 37.18 23.18 36.5 24 36.5C24.82 36.5 25.5 37.18 25.5 38V44C25.5 44.82 24.82 45.5 24 45.5Z" fill="#5E66D2"/>
</svg>
