<svg width="24" height="24" viewBox="0 0 24 24" fill="none" xmlns="http://www.w3.org/2000/svg">
<path d="M8 5.25C7.86614 5.25 7.75 5.13386 7.75 5V2C7.75 1.86614 7.86614 1.75 8 1.75C8.13386 1.75 8.25 1.86614 8.25 2V5C8.25 5.13386 8.13386 5.25 8 5.25Z" fill="#D542C2" stroke="#D542C2"/>
<path d="M16 5.25C15.8661 5.25 15.75 5.13386 15.75 5V2C15.75 1.86614 15.8661 1.75 16 1.75C16.1339 1.75 16.25 1.86614 16.25 2V5C16.25 5.13386 16.1339 5.25 16 5.25Z" fill="#D542C2" stroke="#D542C2"/>
<path d="M20.5 9.33984H3.5C3.36614 9.33984 3.25 9.2237 3.25 9.08984C3.25 8.95599 3.36614 8.83984 3.5 8.83984H20.5C20.6339 8.83984 20.75 8.95599 20.75 9.08984C20.75 9.2237 20.6339 9.33984 20.5 9.33984Z" fill="#D542C2" stroke="#D542C2"/>
<path d="M16 22.25H8C6.26991 22.25 4.97362 21.754 4.1098 20.8902C3.24598 20.0264 2.75 18.7301 2.75 17V8.5C2.75 6.76991 3.24598 5.47362 4.1098 4.6098C4.97362 3.74598 6.26991 3.25 8 3.25H16C17.7301 3.25 19.0264 3.74598 19.8902 4.6098C20.754 5.47362 21.25 6.76991 21.25 8.5V17C21.25 18.7301 20.754 20.0264 19.8902 20.8902C19.0264 21.754 17.7301 22.25 16 22.25ZM8 3.75C6.49651 3.75 5.28256 4.11533 4.44895 4.94895C3.61533 5.78256 3.25 6.99651 3.25 8.5V17C3.25 18.5035 3.61533 19.7174 4.44895 20.5511C5.28256 21.3847 6.49651 21.75 8 21.75H16C17.5035 21.75 18.7174 21.3847 19.5511 20.5511C20.3847 19.7174 20.75 18.5035 20.75 17V8.5C20.75 6.99651 20.3847 5.78256 19.5511 4.94895C18.7174 4.11533 17.5035 3.75 16 3.75H8Z" fill="#D542C2" stroke="#D542C2"/>
<path d="M8.3123 13.0415L8.31236 13.0417L8.32306 13.0369C8.40337 13.0012 8.49766 12.9894 8.60195 13.0103L8.60986 13.0119L8.61781 13.0132C8.62388 13.0142 8.63644 13.0172 8.6564 13.0272L8.68818 13.0431L8.72189 13.0543C8.73194 13.0577 8.74727 13.0642 8.76791 13.0767L8.82265 13.1205L8.85855 13.1492C8.86 13.1509 8.86141 13.1525 8.86277 13.1541C8.86826 13.1604 8.87261 13.1655 8.87643 13.1699C8.88243 13.1768 8.88711 13.1822 8.89277 13.1888C8.89915 13.1963 8.90297 13.201 8.90524 13.2039L8.90736 13.2075L8.91396 13.2174C8.93277 13.2456 8.94157 13.2658 8.94567 13.2781L8.95691 13.3118L8.9728 13.3436C8.98139 13.3608 8.98483 13.3725 8.98626 13.3793C8.98649 13.3809 8.98672 13.3825 8.98694 13.384C8.99742 13.4573 9 13.4754 9 13.5C9 13.6197 8.94845 13.7539 8.85619 13.8562C8.75388 13.9485 8.6197 14 8.5 14C8.44582 14 8.38112 13.9872 8.3123 13.9585C8.25361 13.934 8.19788 13.9005 8.14438 13.8556C8.09955 13.8021 8.06598 13.7464 8.04153 13.6877C8.01285 13.6189 8 13.5542 8 13.5C8 13.382 8.05014 13.2498 8.14 13.1481C8.19484 13.1014 8.25201 13.0667 8.3123 13.0415Z" fill="#D542C2" stroke="#D542C2"/>
<path d="M12 14.4999C11.74 14.4999 11.48 14.3899 11.29 14.2099C11.25 14.1599 11.21 14.1099 11.17 14.0599C11.13 13.9999 11.1 13.9399 11.08 13.8799C11.05 13.8199 11.03 13.7599 11.02 13.6999C11.01 13.6299 11 13.5699 11 13.4999C11 13.3699 11.03 13.2399 11.08 13.1199C11.13 12.9999 11.2 12.8899 11.29 12.7899C11.57 12.5099 12.02 12.4199 12.38 12.5799C12.51 12.6299 12.61 12.6999 12.71 12.7899C12.89 12.9799 13 13.2399 13 13.4999C13 13.5699 12.99 13.6299 12.98 13.6999C12.97 13.7599 12.95 13.8199 12.92 13.8799C12.9 13.9399 12.87 13.9999 12.83 14.0599C12.79 14.1099 12.75 14.1599 12.71 14.2099C12.61 14.2999 12.51 14.3699 12.38 14.4199C12.26 14.4699 12.13 14.4999 12 14.4999Z" fill="#D542C2"/>
<path d="M8.5 17.9999C8.37 17.9999 8.24 17.9699 8.12 17.9199C8 17.8699 7.89001 17.7999 7.79001 17.7099C7.70001 17.6099 7.62999 17.5099 7.57999 17.3799C7.52999 17.2599 7.5 17.1299 7.5 16.9999C7.5 16.7399 7.61001 16.4799 7.79001 16.2899C7.89001 16.1999 8 16.1299 8.12 16.0799C8.49 15.9199 8.92999 16.0099 9.20999 16.2899C9.24999 16.3399 9.29999 16.3899 9.32999 16.4399C9.36999 16.4999 9.40001 16.5599 9.42001 16.6199C9.45001 16.6799 9.47001 16.7399 9.48001 16.8099C9.49001 16.8699 9.5 16.9399 9.5 16.9999C9.5 17.2599 9.38999 17.5199 9.20999 17.7099C9.01999 17.8899 8.76 17.9999 8.5 17.9999Z" fill="#D542C2"/>
</svg>
