<svg width="17" height="16" viewBox="0 0 17 16" fill="none" xmlns="http://www.w3.org/2000/svg">
<path d="M2.78426 7.39091L2.78439 7.39081L2.777 7.38184C2.76402 7.36608 2.75748 7.33749 2.76167 7.31906L2.76173 7.31907L2.76319 7.31206L3.51635 3.71291C3.51638 3.71276 3.51641 3.7126 3.51644 3.71245C3.63564 3.14889 3.80245 2.68654 4.12053 2.35992C4.42461 2.04767 4.92396 1.80339 5.83536 1.80339H10.522C11.4327 1.80339 11.9322 2.04891 12.2366 2.36212C12.555 2.6898 12.7218 3.15253 12.841 3.71275C12.841 3.71296 12.8411 3.71317 12.8411 3.71338L13.5942 7.31858L13.5941 7.31859L13.5957 7.32573C13.5983 7.33703 13.5979 7.3599 13.5806 7.38705C13.5582 7.40818 13.5335 7.41672 13.5087 7.41672H2.84203C2.8132 7.41672 2.79619 7.40625 2.78426 7.39091ZM3.04768 6.74732L2.94155 7.25005H3.45536H12.8887H13.4014L13.2966 6.74819L12.6699 3.74819L12.6695 3.74629C12.578 3.31834 12.4596 2.84098 12.1197 2.49189C11.7612 2.12361 11.2367 1.97005 10.5154 1.97005H5.83536C5.11404 1.97005 4.58954 2.12361 4.23098 2.49189C3.89111 2.84098 3.7727 3.31834 3.68123 3.74629L3.68101 3.74732L3.04768 6.74732Z" fill="#60387D" stroke="#60387D" stroke-width="0.833333"/>
<path d="M13.4822 15.1668H12.2288C11.1488 15.1668 10.9422 14.5468 10.8088 14.1402L10.6755 13.7402C10.5022 13.2335 10.4822 13.1668 9.88218 13.1668H6.46885C5.86885 13.1668 5.82885 13.2802 5.67551 13.7402L5.54218 14.1402C5.40218 14.5535 5.20218 15.1668 4.12218 15.1668H2.86885C2.34218 15.1668 1.83551 14.9468 1.48218 14.5602C1.13551 14.1802 0.968846 13.6735 1.01551 13.1668L1.38885 9.10683C1.48885 8.00683 1.78218 6.8335 3.92218 6.8335H12.4288C14.5688 6.8335 14.8555 8.00683 14.9622 9.10683L15.3355 13.1668C15.3822 13.6735 15.2155 14.1802 14.8688 14.5602C14.5155 14.9468 14.0088 15.1668 13.4822 15.1668ZM6.46885 12.1668H9.88218C11.0955 12.1668 11.3822 12.7068 11.6222 13.4135L11.7622 13.8268C11.8755 14.1668 11.8755 14.1735 12.2355 14.1735H13.4888C13.7355 14.1735 13.9688 14.0735 14.1355 13.8935C14.2955 13.7202 14.3688 13.5002 14.3488 13.2668L13.9755 9.20683C13.8888 8.30683 13.7822 7.84016 12.4422 7.84016H3.92218C2.57551 7.84016 2.46885 8.30683 2.38885 9.20683L2.01551 13.2668C1.99551 13.5002 2.06885 13.7202 2.22885 13.8935C2.38885 14.0735 2.62885 14.1735 2.87551 14.1735H4.12885C4.48885 14.1735 4.48885 14.1668 4.60218 13.8335L4.73551 13.4268C4.90218 12.8935 5.14885 12.1668 6.46885 12.1668Z" fill="#60387D"/>
<path d="M2.83854 5.8335H2.17187C1.89854 5.8335 1.67188 5.60683 1.67188 5.3335C1.67188 5.06016 1.89854 4.8335 2.17187 4.8335H2.83854C3.11187 4.8335 3.33854 5.06016 3.33854 5.3335C3.33854 5.60683 3.11187 5.8335 2.83854 5.8335Z" fill="#60387D"/>
<path d="M14.1667 5.8335H13.5C13.2267 5.8335 13 5.60683 13 5.3335C13 5.06016 13.2267 4.8335 13.5 4.8335H14.1667C14.44 4.8335 14.6667 5.06016 14.6667 5.3335C14.6667 5.60683 14.44 5.8335 14.1667 5.8335Z" fill="#60387D"/>
<path d="M8.17187 3.83333C7.89854 3.83333 7.67188 3.60667 7.67188 3.33333V2C7.67188 1.72667 7.89854 1.5 8.17187 1.5C8.44521 1.5 8.67187 1.72667 8.67187 2V3.33333C8.67187 3.60667 8.44521 3.83333 8.17187 3.83333Z" fill="#60387D"/>
<path d="M9.17187 3.8335H7.17187C6.89854 3.8335 6.67188 3.60683 6.67188 3.3335C6.67188 3.06016 6.89854 2.8335 7.17187 2.8335H9.17187C9.44521 2.8335 9.67187 3.06016 9.67187 3.3335C9.67187 3.60683 9.44521 3.8335 9.17187 3.8335Z" fill="#60387D"/>
<path d="M6.17187 10.5H4.17187C3.89854 10.5 3.67188 10.2733 3.67188 10C3.67188 9.72667 3.89854 9.5 4.17187 9.5H6.17187C6.44521 9.5 6.67187 9.72667 6.67187 10C6.67187 10.2733 6.44521 10.5 6.17187 10.5Z" fill="#60387D"/>
<path d="M12.1719 10.5H10.1719C9.89854 10.5 9.67188 10.2733 9.67188 10C9.67188 9.72667 9.89854 9.5 10.1719 9.5H12.1719C12.4452 9.5 12.6719 9.72667 12.6719 10C12.6719 10.2733 12.4452 10.5 12.1719 10.5Z" fill="#60387D"/>
</svg>
