<svg width="24" height="24" viewBox="0 0 24 24" fill="none" xmlns="http://www.w3.org/2000/svg">
<path d="M19 10.25H17C15.8791 10.25 15.0854 9.94333 14.5711 9.42895C14.0567 8.91456 13.75 8.12092 13.75 7V5C13.75 3.87908 14.0567 3.08544 14.5711 2.57105C15.0854 2.05667 15.8791 1.75 17 1.75H19C20.1209 1.75 20.9146 2.05667 21.4289 2.57105C21.9433 3.08544 22.25 3.87908 22.25 5V7C22.25 8.12092 21.9433 8.91456 21.4289 9.42895C20.9146 9.94333 20.1209 10.25 19 10.25ZM17 2.25C16.1535 2.25 15.4305 2.4274 14.9289 2.92895C14.4274 3.43049 14.25 4.15353 14.25 5V7C14.25 7.84647 14.4274 8.56951 14.9289 9.07105C15.4305 9.5726 16.1535 9.75 17 9.75H19C19.8465 9.75 20.5695 9.5726 21.0711 9.07105C21.5726 8.56951 21.75 7.84647 21.75 7V5C21.75 4.15353 21.5726 3.43049 21.0711 2.92895C20.5695 2.4274 19.8465 2.25 19 2.25H17Z" fill="#7B8697" stroke="#7B8697"/>
<path d="M7 22.25H5C3.87908 22.25 3.08544 21.9433 2.57105 21.4289C2.05667 20.9146 1.75 20.1209 1.75 19V17C1.75 15.8791 2.05667 15.0854 2.57105 14.5711C3.08544 14.0567 3.87908 13.75 5 13.75H7C8.12092 13.75 8.91456 14.0567 9.42895 14.5711C9.94333 15.0854 10.25 15.8791 10.25 17V19C10.25 20.1209 9.94333 20.9146 9.42895 21.4289C8.91456 21.9433 8.12092 22.25 7 22.25ZM5 14.25C4.15353 14.25 3.43049 14.4274 2.92895 14.9289C2.4274 15.4305 2.25 16.1535 2.25 17V19C2.25 19.8465 2.4274 20.5695 2.92895 21.0711C3.43049 21.5726 4.15353 21.75 5 21.75H7C7.84647 21.75 8.56951 21.5726 9.07105 21.0711C9.5726 20.5695 9.75 19.8465 9.75 19V17C9.75 16.1535 9.5726 15.4305 9.07105 14.9289C8.56951 14.4274 7.84647 14.25 7 14.25H5Z" fill="#7B8697" stroke="#7B8697"/>
<path d="M6 10.75C3.38 10.75 1.25 8.62 1.25 6C1.25 3.38 3.38 1.25 6 1.25C8.62 1.25 10.75 3.38 10.75 6C10.75 8.62 8.62 10.75 6 10.75ZM6 2.75C4.21 2.75 2.75 4.21 2.75 6C2.75 7.79 4.21 9.25 6 9.25C7.79 9.25 9.25 7.79 9.25 6C9.25 4.21 7.79 2.75 6 2.75Z" fill="#7B8697"/>
<path d="M18 22.75C15.38 22.75 13.25 20.62 13.25 18C13.25 15.38 15.38 13.25 18 13.25C20.62 13.25 22.75 15.38 22.75 18C22.75 20.62 20.62 22.75 18 22.75ZM18 14.75C16.21 14.75 14.75 16.21 14.75 18C14.75 19.79 16.21 21.25 18 21.25C19.79 21.25 21.25 19.79 21.25 18C21.25 16.21 19.79 14.75 18 14.75Z" fill="#7B8697"/>
</svg>
