<svg width="32" height="32" viewBox="0 0 32 32" fill="none" xmlns="http://www.w3.org/2000/svg">
<path fill-rule="evenodd" clip-rule="evenodd" d="M5.48934 2.81878C5.10833 3.1178 4.80026 3.4995 4.58841 3.93504C4.37655 4.37058 4.26644 4.84858 4.26641 5.33291V7.99958H3.19974V5.33291C3.19978 4.68741 3.3464 4.05035 3.62855 3.46979C3.91071 2.88922 4.32102 2.38031 4.82854 1.98145L5.48934 2.81878ZM7.46641 4.26625C7.18351 4.26625 6.9122 4.37863 6.71216 4.57867C6.51212 4.7787 6.39974 5.05001 6.39974 5.33291V10.1329H20.2664V5.33291C20.2664 5.05001 20.154 4.7787 19.954 4.57867C19.754 4.37863 19.4826 4.26625 19.1997 4.26625H7.46641ZM20.2664 11.1996H6.39974V25.0662H20.2664V11.1996ZM5.20187 26.1329L5.19761 26.1489L4.25574 28.7996H22.4147L21.468 26.1489L21.4637 26.1329H5.20187ZM23.5475 28.7996H28.2664V29.8662H1.06641V28.7996H3.12401L4.18214 25.8198C4.24895 25.6017 4.38403 25.4107 4.56751 25.275C4.75098 25.1394 4.97316 25.0662 5.20134 25.0662H5.33307V5.33291C5.33307 4.76712 5.55783 4.2245 5.95791 3.82442C6.35799 3.42434 6.90061 3.19958 7.46641 3.19958H19.1997C19.7655 3.19958 20.3082 3.42434 20.7082 3.82442C21.1083 4.2245 21.3331 4.76712 21.3331 5.33291V10.6476C21.5875 10.102 21.868 9.57451 22.188 9.10091C23.0115 7.88225 24.156 6.93291 25.8664 6.93291C26.7881 6.93251 27.6816 7.25041 28.3959 7.83285C29.1102 8.41528 29.6015 9.22653 29.7866 10.1294C29.9717 11.0323 29.8394 11.9714 29.412 12.788C28.9846 13.6045 28.2882 14.2484 27.4408 14.6108C28.0099 15.6774 28.7997 17.3809 28.7997 19.7329C28.7997 21.1265 28.5224 22.5521 27.9368 23.6502C27.3491 24.7542 26.3987 25.5996 25.0664 25.5996C24.4019 25.5996 23.7725 25.3521 23.2253 25.0236C22.6749 24.6929 22.1741 24.2614 21.756 23.8433C21.6111 23.6983 21.4701 23.5494 21.3331 23.3969V25.0662H21.4648C21.9331 25.0662 22.3469 25.3724 22.4835 25.8198L23.5475 28.7996ZM21.3331 21.6988C21.6878 22.1928 22.0815 22.6577 22.5101 23.0892C22.892 23.471 23.3245 23.839 23.7741 24.1089C24.2269 24.3809 24.6643 24.5329 25.0664 24.5329C25.8675 24.5329 26.5176 24.0449 26.996 23.1484C27.4771 22.247 27.7331 21.006 27.7331 19.7329C27.7331 17.3628 26.8461 15.743 26.2963 14.7393L26.1987 14.5606L25.8664 13.9473L26.5448 13.7873C27.2429 13.6197 27.8554 13.202 28.2663 12.6132C28.6771 12.0244 28.8579 11.3054 28.7743 10.5924C28.6907 9.87927 28.3486 9.22157 27.8127 8.74376C27.2768 8.26595 26.5844 8.00118 25.8664 7.99958C24.6355 7.99958 23.7795 8.65025 23.0717 9.69825C22.4413 10.6316 21.9763 11.8081 21.5064 12.9974L21.3331 13.4353V15.2582L21.3491 15.23C21.7064 14.6177 22.1229 13.9073 22.5811 13.2193C22.4528 13.0363 22.3404 12.8427 22.2451 12.6406L23.2104 12.1857C23.4446 12.6814 23.8144 13.1006 24.2771 13.3948L24.3928 13.4689L25.364 15.2566L25.3651 15.2588L25.3704 15.2684C25.8685 16.1777 26.6664 17.6342 26.6664 19.7329C26.6664 20.7436 26.5496 21.6076 26.3336 22.2385C26.2259 22.5526 26.0835 22.8401 25.8925 23.0588C25.6979 23.2817 25.4195 23.4668 25.0664 23.4668C24.3677 23.4668 23.8371 23.0854 23.4061 22.6321C23.0701 22.279 22.7384 21.8198 22.4024 21.3542C22.3171 21.2353 22.2307 21.1164 22.1443 20.9985L22.1416 20.9948L21.3331 19.8476V21.6988ZM21.3331 17.9974L23.0077 20.3713C23.108 20.5078 23.2024 20.639 23.2931 20.7644C23.6227 21.2204 23.8973 21.6006 24.1784 21.8961C24.5197 22.2545 24.7837 22.3921 25.0456 22.399C25.0616 22.3864 25.0763 22.3721 25.0893 22.3564C25.1555 22.2806 25.2413 22.1345 25.324 21.8924C25.4888 21.4124 25.5997 20.6764 25.5997 19.7324C25.5997 17.9137 24.9155 16.6582 24.4285 15.7697L24.4275 15.7676L23.5848 14.2156C23.497 14.155 23.4116 14.091 23.3288 14.0236C22.9349 14.638 22.557 15.2626 22.1955 15.8966C21.8771 16.4438 21.58 16.9542 21.3331 17.2956V17.9974ZM7.46641 5.33291H19.1997V9.06625H12.8008V7.99958H18.1331V6.39958H8.53307V7.99958H9.59974V9.06625H7.46641V5.33291ZM10.6664 7.99958H11.7331V9.06625H10.6664V7.99958ZM4.26641 9.06625V10.1329H3.19974V9.06625H4.26641ZM25.8664 10.1329C25.6542 10.1329 25.4508 10.2172 25.3007 10.3672C25.1507 10.5173 25.0664 10.7207 25.0664 10.9329C25.0664 11.1451 25.1507 11.3486 25.3007 11.4986C25.4508 11.6486 25.6542 11.7329 25.8664 11.7329C26.0786 11.7329 26.2821 11.6486 26.4321 11.4986C26.5821 11.3486 26.6664 11.1451 26.6664 10.9329C26.6664 10.7207 26.5821 10.5173 26.4321 10.3672C26.2821 10.2172 26.0786 10.1329 25.8664 10.1329ZM23.9997 10.9329C23.9997 10.4378 24.1964 9.96305 24.5465 9.61298C24.8965 9.26291 25.3713 9.06625 25.8664 9.06625C26.3615 9.06625 26.8363 9.26291 27.1863 9.61298C27.5364 9.96305 27.7331 10.4378 27.7331 10.9329C27.7331 11.428 27.5364 11.9028 27.1863 12.2528C26.8363 12.6029 26.3615 12.7996 25.8664 12.7996C25.3713 12.7996 24.8965 12.6029 24.5465 12.2528C24.1964 11.9028 23.9997 11.428 23.9997 10.9329ZM12.7997 13.3329L10.6664 19.1996H13.8664V23.4662L15.9997 17.5996H12.7997V13.3329ZM11.7971 12.9676C11.8827 12.7317 12.0488 12.5335 12.2661 12.4079C12.4834 12.2824 12.738 12.2374 12.9852 12.2811C13.2323 12.3247 13.4562 12.4541 13.6174 12.6465C13.7786 12.8389 13.8667 13.0819 13.8664 13.3329V16.5329H15.9997C16.1712 16.5329 16.3402 16.5742 16.4924 16.6533C16.6445 16.7325 16.7753 16.8472 16.8737 16.9876C16.9721 17.1281 17.0352 17.2902 17.0576 17.4603C17.08 17.6303 17.0611 17.8032 17.0024 17.9644L14.8691 23.831C14.7835 24.0669 14.6174 24.2651 14.4002 24.3906C14.1829 24.5162 13.9283 24.5612 13.6812 24.5176C13.4341 24.474 13.2102 24.3447 13.049 24.1524C12.8878 23.9602 12.7995 23.7172 12.7997 23.4662V20.2662H10.6664C10.4948 20.2663 10.3258 20.225 10.1736 20.1458C10.0214 20.0667 9.89053 19.9519 9.79212 19.8114C9.69372 19.6708 9.63066 19.5086 9.60831 19.3385C9.58597 19.1684 9.60498 18.9954 9.66374 18.8342L11.7971 12.9676ZM28.2413 25.111C29.2397 23.9057 29.8664 22.0369 29.8664 19.7329H30.9331C30.9331 22.214 30.2605 24.3457 29.0627 25.7916L28.2413 25.111ZM26.5997 26.3617C26.8461 26.2577 27.0812 26.1291 27.3016 25.9777L27.9043 26.8577C27.6246 27.0496 27.3262 27.2128 27.0136 27.3446L26.5997 26.3617ZM30.3997 28.7996V29.8662H29.3331V28.7996H30.3997Z" fill="#5A687D"/>
</svg>
