<svg width="24" height="24" viewBox="0 0 24 24" fill="none" xmlns="http://www.w3.org/2000/svg">
<path d="M7.40704 21.6697L7.40286 21.6675C7.00233 21.4567 6.75 21.0302 6.75 20.5699V19.15V18.6987L6.30106 18.6526C4.904 18.5092 3.77429 17.9287 2.99282 17.0408C2.21066 16.1522 1.75 14.9243 1.75 13.4399V7.43994C1.75 5.83448 2.28687 4.53018 3.18855 3.62849C4.09024 2.72681 5.39454 2.18994 7 2.18994H17C18.6055 2.18994 19.9098 2.72681 20.8114 3.62849C21.7131 4.53018 22.25 5.83448 22.25 7.43994V13.4399C22.25 15.0453 21.7131 16.3496 20.8114 17.2513C19.9098 18.153 18.6055 18.6899 17 18.6899H13.23H13.0786L12.9526 18.7739L8.69596 21.6117C8.69544 21.6121 8.69492 21.6124 8.69441 21.6128C8.48661 21.7485 8.24257 21.8199 8 21.8199C7.80132 21.8199 7.59293 21.7698 7.40704 21.6697ZM8.40845 21.1918L8.40851 21.1919L8.41693 21.1863L12.8669 18.2263L12.8674 18.226C12.9123 18.1961 12.9669 18.18 13.01 18.18H17.01C18.4099 18.18 19.6074 17.7247 20.4561 16.876C21.3048 16.0274 21.76 14.8299 21.76 13.43V7.42993C21.76 6.03004 21.3048 4.83257 20.4561 3.98388C19.6074 3.13518 18.4099 2.67993 17.01 2.67993H7C5.60011 2.67993 4.40264 3.13518 3.55395 3.98388C2.70525 4.83257 2.25 6.03004 2.25 7.42993V13.43C2.25 14.8299 2.70525 16.0274 3.55395 16.876C4.40264 17.7247 5.60011 18.18 7 18.18C7.13386 18.18 7.25 18.2961 7.25 18.43V20.56C7.25 20.9526 7.51585 21.1446 7.62275 21.2087C7.78654 21.307 8.09587 21.3907 8.40845 21.1918Z" fill="#7B8697" stroke="#7B8697"/>
<path d="M11.9998 11.6099C11.866 11.6099 11.7498 11.4937 11.7498 11.3599V11.1499C11.7498 10.2732 12.377 9.83611 12.7014 9.61302C12.8997 9.47895 13.0812 9.33433 13.2098 9.15516C13.3541 8.95398 13.4098 8.74152 13.4098 8.5199C13.4098 7.7438 12.776 7.10986 11.9998 7.10986C11.2236 7.10986 10.5898 7.7438 10.5898 8.5199C10.5898 8.65376 10.4737 8.7699 10.3398 8.7699C10.206 8.7699 10.0898 8.65376 10.0898 8.5199C10.0898 7.46602 10.946 6.60986 11.9998 6.60986C13.0537 6.60986 13.9098 7.46602 13.9098 8.5199C13.9098 9.37738 13.2904 9.8152 12.9809 10.0249C12.7742 10.1628 12.5849 10.3108 12.452 10.4963C12.3022 10.7057 12.2498 10.9248 12.2498 11.1499V11.3599C12.2498 11.4994 12.138 11.6099 11.9998 11.6099Z" fill="#7B8697" stroke="#7B8697"/>
<path d="M12 14.6001C11.58 14.6001 11.25 14.2601 11.25 13.8501C11.25 13.4401 11.59 13.1001 12 13.1001C12.41 13.1001 12.75 13.4401 12.75 13.8501C12.75 14.2601 12.42 14.6001 12 14.6001Z" fill="#7B8697"/>
</svg>
