<svg width="24" height="25" viewBox="0 0 24 25" fill="none" xmlns="http://www.w3.org/2000/svg">
<path d="M21 7.81006H3C2.86614 7.81006 2.75 7.69392 2.75 7.56006C2.75 7.4262 2.86614 7.31006 3 7.31006H21C21.1339 7.31006 21.25 7.4262 21.25 7.56006C21.25 7.69392 21.1339 7.81006 21 7.81006Z" fill="#F8FAFC" stroke="#F8FAFC"/>
<path d="M21 13.3101H3C2.59 13.3101 2.25 12.9701 2.25 12.5601C2.25 12.1501 2.59 11.8101 3 11.8101H21C21.41 11.8101 21.75 12.1501 21.75 12.5601C21.75 12.9701 21.41 13.3101 21 13.3101Z" fill="#F8FAFC"/>
<path d="M21 18.3101H3C2.59 18.3101 2.25 17.9701 2.25 17.5601C2.25 17.1501 2.59 16.8101 3 16.8101H21C21.41 16.8101 21.75 17.1501 21.75 17.5601C21.75 17.9701 21.41 18.3101 21 18.3101Z" fill="#F8FAFC"/>
</svg>
