<svg width="20" height="20" viewBox="0 0 20 20" fill="none" xmlns="http://www.w3.org/2000/svg">
<path d="M19.6863 17.8125H0.3125C0.22962 17.8125 0.150134 17.7796 0.0915291 17.721C0.032924 17.6624 0 17.5829 0 17.5C0 17.4171 0.032924 17.3376 0.0915291 17.279C0.150134 17.2204 0.22962 17.1875 0.3125 17.1875H19.6863C19.7691 17.1875 19.8486 17.2204 19.9072 17.279C19.9658 17.3376 19.9988 17.4171 19.9988 17.5C19.9988 17.5829 19.9658 17.6624 19.9072 17.721C19.8486 17.7796 19.7691 17.8125 19.6863 17.8125Z" fill="#525F72"/>
<path d="M19.6869 17.8123C19.604 17.8123 19.5245 17.7794 19.4659 17.7208C19.4073 17.6622 19.3744 17.5827 19.3744 17.4998V7.80859C19.3744 7.72571 19.4073 7.64623 19.4659 7.58762C19.5245 7.52902 19.604 7.49609 19.6869 7.49609C19.7698 7.49609 19.8492 7.52902 19.9078 7.58762C19.9664 7.64623 19.9994 7.72571 19.9994 7.80859V17.4998C19.9994 17.5827 19.9664 17.6622 19.9078 17.7208C19.8492 17.7794 19.7698 17.8123 19.6869 17.8123ZM13.4369 17.8123C13.354 17.8123 13.2745 17.7794 13.2159 17.7208C13.1573 17.6622 13.1244 17.5827 13.1244 17.4998V7.80859C13.1244 7.72571 13.1573 7.64623 13.2159 7.58762C13.2745 7.52902 13.354 7.49609 13.4369 7.49609C13.5198 7.49609 13.5992 7.52902 13.6578 7.58762C13.7165 7.64623 13.7494 7.72571 13.7494 7.80859V17.4998C13.7494 17.5827 13.7165 17.6622 13.6578 17.7208C13.5992 17.7794 13.5198 17.8123 13.4369 17.8123ZM6.5625 17.8123C6.47962 17.8123 6.40013 17.7794 6.34153 17.7208C6.28292 17.6622 6.25 17.5827 6.25 17.4998V7.80859C6.25 7.72571 6.28292 7.64623 6.34153 7.58762C6.40013 7.52902 6.47962 7.49609 6.5625 7.49609C6.64538 7.49609 6.72487 7.52902 6.78347 7.58762C6.84208 7.64623 6.875 7.72571 6.875 7.80859V17.4998C6.875 17.5827 6.84208 17.6622 6.78347 17.7208C6.72487 17.7794 6.64538 17.8123 6.5625 17.8123ZM0.3125 17.8123C0.22962 17.8123 0.150134 17.7794 0.0915291 17.7208C0.032924 17.6622 0 17.5827 0 17.4998V7.80859C0 7.72571 0.032924 7.64623 0.0915291 7.58762C0.150134 7.52902 0.22962 7.49609 0.3125 7.49609C0.39538 7.49609 0.474866 7.52902 0.533471 7.58762C0.592076 7.64623 0.625 7.72571 0.625 7.80859V17.4998C0.625 17.5827 0.592076 17.6622 0.533471 17.7208C0.474866 17.7794 0.39538 17.8123 0.3125 17.8123Z" fill="#525F72"/>
<path d="M19.6866 8.12109H19.0619C18.979 8.12109 18.8995 8.08817 18.8409 8.02956C18.7823 7.97096 18.7494 7.89147 18.7494 7.80859C18.7494 7.72571 18.7823 7.64623 18.8409 7.58762C18.8995 7.52902 18.979 7.49609 19.0619 7.49609H19.6866C19.7694 7.49609 19.8489 7.52902 19.9075 7.58762C19.9661 7.64623 19.9991 7.72571 19.9991 7.80859C19.9991 7.89147 19.9661 7.97096 19.9075 8.02956C19.8489 8.08817 19.7694 8.12109 19.6866 8.12109ZM0.937187 8.12109H0.3125C0.22962 8.12109 0.150134 8.08817 0.0915291 8.02956C0.032924 7.97096 0 7.89147 0 7.80859C0 7.72571 0.032924 7.64623 0.0915291 7.58762C0.150134 7.52902 0.22962 7.49609 0.3125 7.49609H0.937187C1.02007 7.49609 1.09955 7.52902 1.15816 7.58762C1.21676 7.64623 1.24969 7.72571 1.24969 7.80859C1.24969 7.89147 1.21676 7.97096 1.15816 8.02956C1.09955 8.08817 1.02007 8.12109 0.937187 8.12109ZM14.0619 8.12109H12.8116C12.7287 8.12109 12.6492 8.08817 12.5906 8.02956C12.532 7.97096 12.4991 7.89147 12.4991 7.80859C12.4991 7.72571 12.532 7.64623 12.5906 7.58762C12.6492 7.52902 12.7287 7.49609 12.8116 7.49609H14.0619C14.1448 7.49609 14.2242 7.52902 14.2828 7.58762C14.3414 7.64623 14.3744 7.72571 14.3744 7.80859C14.3744 7.89147 14.3414 7.97096 14.2828 8.02956C14.2242 8.08817 14.1448 8.12109 14.0619 8.12109ZM7.18781 8.12109H5.9375C5.85462 8.12109 5.77513 8.08817 5.71653 8.02956C5.65792 7.97096 5.625 7.89147 5.625 7.80859C5.625 7.72571 5.65792 7.64623 5.71653 7.58762C5.77513 7.52902 5.85462 7.49609 5.9375 7.49609H7.18781C7.27069 7.49609 7.35018 7.52902 7.40878 7.58762C7.46739 7.64623 7.50031 7.72571 7.50031 7.80859C7.50031 7.89147 7.46739 7.97096 7.40878 8.02956C7.35018 8.08817 7.27069 8.12109 7.18781 8.12109ZM14.6875 15.3105C14.6046 15.3105 14.5251 15.2775 14.4665 15.2189C14.4079 15.1603 14.375 15.0808 14.375 14.998V9.69047C14.375 9.60759 14.4079 9.5281 14.4665 9.4695C14.5251 9.41089 14.6046 9.37797 14.6875 9.37797C14.7704 9.37797 14.8499 9.41089 14.9085 9.4695C14.9671 9.5281 15 9.60759 15 9.69047V14.998C15 15.0808 14.9671 15.1603 14.9085 15.2189C14.8499 15.2775 14.7704 15.3105 14.6875 15.3105Z" fill="#525F72"/>
<path d="M14.6875 10.0029C14.6046 10.0029 14.5251 9.97001 14.4665 9.9114C14.4079 9.8528 14.375 9.77331 14.375 9.69043C14.375 9.17355 14.7959 8.75293 15.3128 8.75293C15.3957 8.75293 15.4752 8.78585 15.5338 8.84446C15.5924 8.90306 15.6253 8.98255 15.6253 9.06543C15.6253 9.14831 15.5924 9.2278 15.5338 9.2864C15.4752 9.34501 15.3957 9.37793 15.3128 9.37793C15.1403 9.37793 15 9.51793 15 9.69043C15 9.77331 14.9671 9.8528 14.9085 9.9114C14.8499 9.97001 14.7704 10.0029 14.6875 10.0029ZM15.9378 16.5604C15.7326 16.561 15.5292 16.5209 15.3396 16.4424C15.1499 16.364 14.9777 16.2487 14.8328 16.1032C14.6872 15.9585 14.5718 15.7862 14.4932 15.5965C14.4147 15.4067 14.3746 15.2033 14.3753 14.9979C14.3753 14.915 14.4082 14.8356 14.4668 14.777C14.5254 14.7184 14.6049 14.6854 14.6878 14.6854C14.7707 14.6854 14.8502 14.7184 14.9088 14.777C14.9674 14.8356 15.0003 14.915 15.0003 14.9979C15.0003 15.2489 15.0978 15.4845 15.2747 15.6611C15.3616 15.7484 15.4649 15.8176 15.5788 15.8647C15.6926 15.9118 15.8146 15.9358 15.9378 15.9354C16.0207 15.9354 16.1002 15.9684 16.1588 16.027C16.2174 16.0856 16.2503 16.165 16.2503 16.2479C16.2503 16.3308 16.2174 16.4103 16.1588 16.4689C16.1002 16.5275 16.0207 16.5604 15.9378 16.5604ZM18.4372 15.3104C18.3543 15.3104 18.2748 15.2775 18.2162 15.2189C18.1576 15.1603 18.1247 15.0808 18.1247 14.9979V9.69043C18.1247 9.60755 18.1576 9.52806 18.2162 9.46946C18.2748 9.41085 18.3543 9.37793 18.4372 9.37793C18.5201 9.37793 18.5996 9.41085 18.6582 9.46946C18.7168 9.52806 18.7497 9.60755 18.7497 9.69043V14.9979C18.7497 15.0808 18.7168 15.1603 18.6582 15.2189C18.5996 15.2775 18.5201 15.3104 18.4372 15.3104Z" fill="#525F72"/>
<path d="M18.4378 10.0029C18.3549 10.0029 18.2754 9.97001 18.2168 9.9114C18.1582 9.8528 18.1253 9.77331 18.1253 9.69043C18.1253 9.60755 18.0924 9.52806 18.0338 9.46946C17.9752 9.41085 17.8957 9.37793 17.8128 9.37793C17.7299 9.37793 17.6504 9.34501 17.5918 9.2864C17.5332 9.2278 17.5003 9.14831 17.5003 9.06543C17.5003 8.98255 17.5332 8.90306 17.5918 8.84446C17.6504 8.78585 17.7299 8.75293 17.8128 8.75293C18.3297 8.75293 18.7503 9.17355 18.7503 9.69043C18.7503 9.77331 18.7174 9.8528 18.6588 9.9114C18.6002 9.97001 18.5207 10.0029 18.4378 10.0029ZM17.1875 16.5604C17.1046 16.5604 17.0251 16.5275 16.9665 16.4689C16.9079 16.4103 16.875 16.3308 16.875 16.2479C16.875 16.165 16.9079 16.0856 16.9665 16.027C17.0251 15.9684 17.1046 15.9354 17.1875 15.9354C17.4361 15.9351 17.6744 15.8362 17.8502 15.6605C18.026 15.4848 18.1249 15.2465 18.1253 14.9979C18.1253 14.915 18.1582 14.8356 18.2168 14.777C18.2754 14.7184 18.3549 14.6854 18.4378 14.6854C18.5207 14.6854 18.6002 14.7184 18.6588 14.777C18.7174 14.8356 18.7503 14.915 18.7503 14.9979C18.7503 15.8595 18.0494 16.5604 17.1875 16.5604Z" fill="#525F72"/>
<path d="M17.8119 9.37793H15.3125C15.2296 9.37793 15.1501 9.34501 15.0915 9.2864C15.0329 9.2278 15 9.14831 15 9.06543C15 8.98255 15.0329 8.90306 15.0915 8.84446C15.1501 8.78585 15.2296 8.75293 15.3125 8.75293H17.8119C17.8948 8.75293 17.9742 8.78585 18.0328 8.84446C18.0915 8.90306 18.1244 8.98255 18.1244 9.06543C18.1244 9.14831 18.0915 9.2278 18.0328 9.2864C17.9742 9.34501 17.8948 9.37793 17.8119 9.37793ZM17.5056 13.4367H15.6247C15.5419 13.4364 15.4625 13.4034 15.404 13.3449C15.3454 13.2863 15.3124 13.207 15.3122 13.1242L15.3125 10.3148C15.3125 10.2319 15.3454 10.1524 15.404 10.0938C15.4626 10.0352 15.5421 10.0023 15.625 10.0023H17.4991C17.5819 10.0023 17.6614 10.0352 17.72 10.0938C17.7786 10.1524 17.8116 10.2319 17.8116 10.3148L17.8119 13.0617C17.8211 13.1071 17.8202 13.154 17.8091 13.199C17.798 13.244 17.777 13.286 17.7477 13.3218C17.7184 13.3577 17.6815 13.3867 17.6396 13.4065C17.5977 13.4264 17.552 13.4367 17.5056 13.4367ZM15.9372 12.8117H17.1869L17.1866 10.6273H15.9375L15.9372 12.8117Z" fill="#525F72"/>
<path d="M17.8121 14.3742C17.7465 14.3742 17.6826 14.3535 17.6294 14.3152C17.5762 14.2768 17.5365 14.2227 17.5158 14.1604L17.2033 13.2229C17.1897 13.1839 17.184 13.1425 17.1865 13.1012C17.189 13.0599 17.1997 13.0195 17.2179 12.9823C17.2362 12.9452 17.2616 12.912 17.2928 12.8848C17.324 12.8576 17.3602 12.8368 17.3995 12.8237C17.4387 12.8106 17.4802 12.8054 17.5215 12.8085C17.5628 12.8115 17.603 12.8228 17.6399 12.8415C17.6768 12.8602 17.7096 12.8861 17.7364 12.9176C17.7633 12.9492 17.7835 12.9857 17.7961 13.0251L18.1086 13.9626C18.1243 14.0096 18.1286 14.0597 18.1212 14.1087C18.1137 14.1577 18.0947 14.2042 18.0658 14.2444C18.0368 14.2846 17.9987 14.3173 17.9546 14.3399C17.9105 14.3625 17.8616 14.3742 17.8121 14.3742ZM15.3124 14.3742C15.2628 14.3742 15.214 14.3624 15.17 14.3398C15.1259 14.3172 15.0878 14.2845 15.0589 14.2443C15.0299 14.2041 15.011 14.1576 15.0035 14.1086C14.9961 14.0596 15.0004 14.0096 15.0161 13.9626L15.3286 13.0251C15.3412 12.9857 15.3615 12.9492 15.3883 12.9176C15.4151 12.8861 15.4479 12.8602 15.4848 12.8415C15.5217 12.8228 15.562 12.8115 15.6032 12.8085C15.6445 12.8054 15.686 12.8106 15.7252 12.8237C15.7645 12.8368 15.8008 12.8576 15.8319 12.8848C15.8631 12.912 15.8886 12.9452 15.9068 12.9823C15.9251 13.0195 15.9357 13.0599 15.9383 13.1012C15.9408 13.1425 15.935 13.1839 15.9214 13.2229L15.6089 14.1604C15.5652 14.2914 15.4433 14.3742 15.3124 14.3742Z" fill="#525F72"/>
<path d="M16.5622 14.6869C15.8019 14.6866 15.3475 14.5825 15.1313 14.3594C15.0081 14.2322 14.9984 14.1022 15.0003 14.0522C15.0025 13.9815 15.0286 13.9136 15.0744 13.8596C15.1202 13.8057 15.183 13.7689 15.2524 13.7552C15.3218 13.7416 15.3938 13.7519 15.4566 13.7845C15.5195 13.8171 15.5693 13.87 15.5981 13.9347C15.6619 13.9687 15.8969 14.0616 16.5622 14.0619C17.2278 14.0619 17.4628 13.9691 17.5266 13.935C17.5504 13.8812 17.589 13.8353 17.6378 13.8025C17.6866 13.7697 17.7437 13.7514 17.8025 13.7497L17.8125 13.7494C17.8936 13.7495 17.9715 13.7812 18.0297 13.8377C18.0879 13.8942 18.1219 13.9711 18.1244 14.0522C18.1263 14.1022 18.1166 14.2325 17.9931 14.3597C17.7769 14.5828 17.3222 14.6869 16.5622 14.6869ZM17.1869 16.5606H15.9378C15.8549 16.5606 15.7754 16.5277 15.7168 16.4691C15.6582 16.4105 15.6253 16.331 15.6253 16.2481C15.6253 16.1652 15.6582 16.0858 15.7168 16.0272C15.7754 15.9685 15.8549 15.9356 15.9378 15.9356H17.1869C17.2698 15.9356 17.3492 15.9685 17.4078 16.0272C17.4665 16.0858 17.4994 16.1652 17.4994 16.2481C17.4994 16.331 17.4665 16.4105 17.4078 16.4691C17.3492 16.5277 17.2698 16.5606 17.1869 16.5606ZM18.7497 13.4369H18.4372C18.3543 13.4369 18.2748 13.404 18.2162 13.3453C18.1576 13.2867 18.1247 13.2073 18.1247 13.1244C18.1247 13.0415 18.1576 12.962 18.2162 12.9034C18.2748 12.8448 18.3543 12.8119 18.4372 12.8119H18.7497C18.8326 12.8119 18.9121 12.8448 18.9707 12.9034C19.0293 12.962 19.0622 13.0415 19.0622 13.1244C19.0622 13.2073 19.0293 13.2867 18.9707 13.3453C18.9121 13.404 18.8326 13.4369 18.7497 13.4369ZM14.6875 13.4369H14.375C14.2921 13.4369 14.2126 13.404 14.154 13.3453C14.0954 13.2867 14.0625 13.2073 14.0625 13.1244C14.0625 13.0415 14.0954 12.962 14.154 12.9034C14.2126 12.8448 14.2921 12.8119 14.375 12.8119H14.6875C14.7704 12.8119 14.8499 12.8448 14.9085 12.9034C14.9671 12.962 15 13.0415 15 13.1244C15 13.2073 14.9671 13.2867 14.9085 13.3453C14.8499 13.404 14.7704 13.4369 14.6875 13.4369ZM15.6256 10.6275C15.5741 10.6276 15.5234 10.615 15.478 10.5907C15.4326 10.5664 15.3938 10.5313 15.3653 10.4884L14.6475 9.4125C14.6015 9.34354 14.5848 9.25914 14.601 9.17785C14.6172 9.09657 14.6651 9.02506 14.7341 8.97906C14.803 8.93306 14.8874 8.91634 14.9687 8.93258C15.05 8.94881 15.1215 8.99667 15.1675 9.06562L15.8853 10.1416C15.9167 10.1886 15.9347 10.2433 15.9375 10.2998C15.9402 10.3562 15.9276 10.4124 15.901 10.4623C15.8743 10.5122 15.8346 10.5539 15.7861 10.583C15.7377 10.6121 15.6822 10.6275 15.6256 10.6275ZM17.4994 10.6269C17.4429 10.6266 17.3876 10.6111 17.3392 10.582C17.2908 10.5528 17.2513 10.5111 17.2246 10.4613C17.198 10.4115 17.1854 10.3555 17.188 10.2991C17.1907 10.2427 17.2085 10.188 17.2397 10.1409L17.9575 9.06562C18.0035 8.99667 18.075 8.94881 18.1563 8.93258C18.2376 8.91634 18.322 8.93306 18.3909 8.97906C18.4599 9.02506 18.5078 9.09657 18.524 9.17785C18.5402 9.25914 18.5235 9.34354 18.4775 9.4125L17.7597 10.4878C17.7311 10.5306 17.6924 10.5657 17.647 10.59C17.6016 10.6143 17.5509 10.6269 17.4994 10.6269ZM8.125 8.745C8.04212 8.745 7.96263 8.71208 7.90403 8.65347C7.84542 8.59487 7.8125 8.51538 7.8125 8.4325V3.125C7.8125 3.04212 7.84542 2.96263 7.90403 2.90403C7.96263 2.84542 8.04212 2.8125 8.125 2.8125C8.20788 2.8125 8.28737 2.84542 8.34597 2.90403C8.40458 2.96263 8.4375 3.04212 8.4375 3.125V8.4325C8.4375 8.51538 8.40458 8.59487 8.34597 8.65347C8.28737 8.71208 8.20788 8.745 8.125 8.745Z" fill="#525F72"/>
<path d="M8.125 3.43688C8.04212 3.43688 7.96263 3.40395 7.90403 3.34535C7.84542 3.28674 7.8125 3.20726 7.8125 3.12438C7.81291 2.87586 7.91188 2.63767 8.08769 2.46203C8.2635 2.28639 8.5018 2.18767 8.75031 2.1875C8.83319 2.1875 8.91268 2.22042 8.97128 2.27903C9.02989 2.33763 9.06281 2.41712 9.06281 2.5C9.06281 2.58288 9.02989 2.66237 8.97128 2.72097C8.91268 2.77958 8.83319 2.8125 8.75031 2.8125C8.66749 2.81242 8.58802 2.84522 8.52936 2.9037C8.47071 2.96218 8.43767 3.04155 8.4375 3.12438C8.4375 3.20726 8.40458 3.28674 8.34597 3.34535C8.28737 3.40395 8.20788 3.43688 8.125 3.43688ZM9.37531 9.995C8.95781 9.995 8.56531 9.8325 8.27031 9.5375C7.97531 9.2425 7.8125 8.85 7.81281 8.4325C7.81281 8.34962 7.84574 8.27013 7.90434 8.21153C7.96295 8.15292 8.04243 8.12 8.12531 8.12C8.20819 8.12 8.28768 8.15292 8.34628 8.21153C8.40489 8.27013 8.43781 8.34962 8.43781 8.4325C8.43781 8.68312 8.53531 8.91875 8.71219 9.09563C8.88906 9.2725 9.12469 9.37 9.37531 9.37C9.45819 9.37 9.53768 9.40292 9.59628 9.46153C9.65489 9.52013 9.68781 9.59962 9.68781 9.6825C9.68781 9.76538 9.65489 9.84487 9.59628 9.90347C9.53768 9.96208 9.45819 9.995 9.37531 9.995ZM11.8747 8.745C11.7918 8.745 11.7123 8.71208 11.6537 8.65347C11.5951 8.59487 11.5622 8.51538 11.5622 8.4325V3.12438C11.5622 3.04149 11.5951 2.96201 11.6537 2.9034C11.7123 2.8448 11.7918 2.81188 11.8747 2.81188C11.9576 2.81188 12.0371 2.8448 12.0957 2.9034C12.1543 2.96201 12.1872 3.04149 12.1872 3.12438V8.4325C12.1872 8.51538 12.1543 8.59487 12.0957 8.65347C12.0371 8.71208 11.9576 8.745 11.8747 8.745Z" fill="#525F72"/>
<path d="M11.8753 3.43688C11.7924 3.43688 11.7129 3.40395 11.6543 3.34535C11.5957 3.28674 11.5628 3.20726 11.5628 3.12438C11.5626 3.0416 11.5297 2.96228 11.4711 2.90381C11.4125 2.84534 11.3331 2.8125 11.2503 2.8125C11.1674 2.8125 11.0879 2.77958 11.0293 2.72097C10.9707 2.66237 10.9378 2.58288 10.9378 2.5C10.9378 2.41712 10.9707 2.33763 11.0293 2.27903C11.0879 2.22042 11.1674 2.1875 11.2503 2.1875C11.7672 2.1875 12.1878 2.60781 12.1878 3.12438C12.1878 3.20726 12.1549 3.28674 12.0963 3.34535C12.0377 3.40395 11.9582 3.43688 11.8753 3.43688ZM10.625 9.995C10.5421 9.995 10.4626 9.96208 10.404 9.90347C10.3454 9.84487 10.3125 9.76538 10.3125 9.6825C10.3125 9.59962 10.3454 9.52013 10.404 9.46153C10.4626 9.40292 10.5421 9.37 10.625 9.37C10.8736 9.36967 11.1119 9.2708 11.2877 9.09507C11.4635 8.91933 11.5624 8.68107 11.5628 8.4325C11.5628 8.34962 11.5957 8.27013 11.6543 8.21153C11.7129 8.15292 11.7924 8.12 11.8753 8.12C11.9582 8.12 12.0377 8.15292 12.0963 8.21153C12.1549 8.27013 12.1878 8.34962 12.1878 8.4325C12.1878 9.29406 11.4869 9.995 10.625 9.995Z" fill="#525F72"/>
<path d="M11.2494 2.8125H8.75C8.66712 2.8125 8.58763 2.77958 8.52903 2.72097C8.47042 2.66237 8.4375 2.58288 8.4375 2.5C8.4375 2.41712 8.47042 2.33763 8.52903 2.27903C8.58763 2.22042 8.66712 2.1875 8.75 2.1875H11.2494C11.3323 2.1875 11.4117 2.22042 11.4703 2.27903C11.529 2.33763 11.5619 2.41712 11.5619 2.5C11.5619 2.58288 11.529 2.66237 11.4703 2.72097C11.4117 2.77958 11.3323 2.8125 11.2494 2.8125ZM9.06219 6.87125C8.97936 6.87109 8.89997 6.83811 8.8414 6.77954C8.78283 6.72097 8.74985 6.64158 8.74969 6.55875L8.75 3.74938C8.75 3.6665 8.78292 3.58701 8.84153 3.5284C8.90013 3.4698 8.97962 3.43688 9.0625 3.43688H10.9366C11.0194 3.43688 11.0989 3.4698 11.1575 3.5284C11.2161 3.58701 11.2491 3.6665 11.2491 3.74938L11.2494 6.55813C11.2494 6.64101 11.2165 6.72049 11.1578 6.7791C11.0992 6.8377 11.0198 6.87063 10.9369 6.87063L9.06219 6.87125ZM9.375 4.06188L9.37469 6.24625L10.6244 6.24563L10.6241 4.06188H9.375Z" fill="#525F72"/>
<path d="M11.2496 7.80828C11.184 7.80828 11.1201 7.78763 11.0669 7.74926C11.0137 7.7109 10.974 7.65676 10.9533 7.59453L10.6408 6.65703C10.6272 6.61795 10.6215 6.57655 10.624 6.53524C10.6265 6.49393 10.6372 6.45353 10.6554 6.41639C10.6737 6.37924 10.6991 6.34609 10.7303 6.31886C10.7615 6.29163 10.7977 6.27087 10.837 6.25777C10.8762 6.24467 10.9177 6.2395 10.959 6.24255C11.0003 6.24561 11.0405 6.25684 11.0774 6.27558C11.1143 6.29432 11.1471 6.3202 11.1739 6.35173C11.2008 6.38325 11.221 6.41979 11.2336 6.45922L11.5461 7.39672C11.5618 7.44372 11.5661 7.49378 11.5587 7.54277C11.5512 7.59176 11.5322 7.63827 11.5033 7.67847C11.4743 7.71868 11.4362 7.75141 11.3921 7.77398C11.348 7.79656 11.2991 7.80831 11.2496 7.80828ZM8.74987 7.80828C8.70034 7.80826 8.65153 7.79647 8.60745 7.77388C8.56338 7.75129 8.52531 7.71854 8.49637 7.67835C8.46744 7.63815 8.44847 7.59165 8.44104 7.54269C8.43361 7.49372 8.43792 7.44369 8.45362 7.39672L8.76612 6.45984C8.79315 6.38226 8.84966 6.31844 8.9234 6.28221C8.99714 6.24597 9.08219 6.24024 9.16013 6.26625C9.23807 6.29225 9.30263 6.34791 9.33983 6.42116C9.37704 6.49442 9.3839 6.57938 9.35893 6.65766L9.04643 7.59453C9.0257 7.65678 8.98589 7.71093 8.93266 7.7493C8.87944 7.78766 8.81548 7.8083 8.74987 7.80828Z" fill="#525F72"/>
<path d="M9.99844 8.1207C9.23875 8.1207 8.78406 8.01664 8.56781 7.79352C8.44438 7.66633 8.43469 7.53602 8.43656 7.48602C8.44219 7.31352 8.58656 7.17258 8.75844 7.18352C8.81721 7.18532 8.87428 7.20366 8.92309 7.23644C8.9719 7.26922 9.01047 7.31511 9.03438 7.36883C9.09813 7.40289 9.33281 7.4957 9.99844 7.4957C10.6641 7.4957 10.8991 7.40289 10.9628 7.36883C10.9867 7.31506 11.0252 7.26914 11.074 7.23635C11.1229 7.20356 11.18 7.18524 11.2388 7.18352C11.405 7.17383 11.5556 7.31352 11.5609 7.48602C11.5625 7.53602 11.5528 7.66633 11.4294 7.79352C11.2131 8.01664 10.7584 8.1207 9.99844 8.1207ZM10.6231 9.99508H9.37406C9.29118 9.99508 9.2117 9.96215 9.15309 9.90355C9.09449 9.84494 9.06156 9.76546 9.06156 9.68258C9.06156 9.5997 9.09449 9.52021 9.15309 9.46161C9.2117 9.403 9.29118 9.37008 9.37406 9.37008H10.6231C10.706 9.37008 10.7855 9.403 10.8441 9.46161C10.9027 9.52021 10.9356 9.5997 10.9356 9.68258C10.9356 9.76546 10.9027 9.84494 10.8441 9.90355C10.7855 9.96215 10.706 9.99508 10.6231 9.99508ZM12.1859 6.8707H11.8734C11.7906 6.8707 11.7111 6.83778 11.6525 6.77917C11.5939 6.72057 11.5609 6.64108 11.5609 6.5582C11.5609 6.47532 11.5939 6.39584 11.6525 6.33723C11.7111 6.27863 11.7906 6.2457 11.8734 6.2457H12.1859C12.2688 6.2457 12.3483 6.27863 12.4069 6.33723C12.4655 6.39584 12.4984 6.47532 12.4984 6.5582C12.4984 6.64108 12.4655 6.72057 12.4069 6.77917C12.3483 6.83778 12.2688 6.8707 12.1859 6.8707ZM8.12375 6.8707H7.81125C7.72837 6.8707 7.64888 6.83778 7.59028 6.77917C7.53167 6.72057 7.49875 6.64108 7.49875 6.5582C7.49875 6.47532 7.53167 6.39584 7.59028 6.33723C7.64888 6.27863 7.72837 6.2457 7.81125 6.2457H8.12375C8.20663 6.2457 8.28612 6.27863 8.34472 6.33723C8.40333 6.39584 8.43625 6.47532 8.43625 6.5582C8.43625 6.64108 8.40333 6.72057 8.34472 6.77917C8.28612 6.83778 8.20663 6.8707 8.12375 6.8707ZM9.06188 4.06195C9.01038 4.06207 8.95965 4.04943 8.91423 4.02516C8.86881 4.0009 8.8301 3.96576 8.80156 3.92289L8.08375 2.84633C8.06097 2.81219 8.04515 2.77389 8.03717 2.73363C8.02919 2.69337 8.02923 2.65193 8.03726 2.61168C8.0535 2.5304 8.10136 2.45889 8.17031 2.41289C8.23927 2.36689 8.32367 2.35017 8.40496 2.36641C8.44521 2.37444 8.48348 2.39033 8.51759 2.41316C8.5517 2.43599 8.58097 2.46531 8.60375 2.49945L9.32156 3.57602C9.35295 3.62306 9.37098 3.67773 9.37374 3.73421C9.3765 3.7907 9.36388 3.84687 9.33722 3.89674C9.31057 3.94662 9.27088 3.98832 9.22239 4.01742C9.1739 4.04651 9.11843 4.06191 9.06188 4.06195ZM10.9356 4.06133C10.8792 4.06107 10.8238 4.04555 10.7755 4.01641C10.7271 3.98727 10.6875 3.94559 10.6609 3.89579C10.6343 3.84599 10.6216 3.78992 10.6243 3.73352C10.6269 3.67712 10.6448 3.62248 10.6759 3.57539L11.3938 2.49945C11.4397 2.4305 11.5113 2.38264 11.5925 2.36641C11.6738 2.35017 11.7582 2.36689 11.8272 2.41289C11.8961 2.45889 11.944 2.5304 11.9602 2.61168C11.9765 2.69297 11.9597 2.77737 11.9137 2.84633L11.1959 3.92227C11.1674 3.96514 11.1287 4.00027 11.0833 4.02454C11.0379 4.0488 10.9871 4.06144 10.9356 4.06133ZM1.5625 15.3107C1.47962 15.3107 1.40013 15.2778 1.34153 15.2192C1.28292 15.1606 1.25 15.0811 1.25 14.9982V9.6907C1.25 9.60782 1.28292 9.52834 1.34153 9.46973C1.40013 9.41113 1.47962 9.3782 1.5625 9.3782C1.64538 9.3782 1.72487 9.41113 1.78347 9.46973C1.84208 9.52834 1.875 9.60782 1.875 9.6907V14.9982C1.875 15.0811 1.84208 15.1606 1.78347 15.2192C1.72487 15.2778 1.64538 15.3107 1.5625 15.3107Z" fill="#525F72"/>
<path d="M1.5625 10.0029C1.47962 10.0029 1.40013 9.97001 1.34153 9.9114C1.28292 9.8528 1.25 9.77331 1.25 9.69043C1.25 9.17355 1.67094 8.75293 2.18781 8.75293C2.27069 8.75293 2.35018 8.78585 2.40878 8.84446C2.46739 8.90306 2.50031 8.98255 2.50031 9.06543C2.50031 9.14831 2.46739 9.2278 2.40878 9.2864C2.35018 9.34501 2.27069 9.37793 2.18781 9.37793C2.01531 9.37793 1.875 9.51793 1.875 9.69043C1.875 9.77331 1.84208 9.8528 1.78347 9.9114C1.72487 9.97001 1.64538 10.0029 1.5625 10.0029ZM2.81281 16.5604C2.60756 16.561 2.40422 16.5209 2.21456 16.4424C2.02489 16.364 1.85266 16.2487 1.70781 16.1032C1.56219 15.9585 1.44677 15.7862 1.36823 15.5965C1.2897 15.4067 1.24962 15.2033 1.25031 14.9979C1.25031 14.915 1.28324 14.8356 1.34184 14.777C1.40045 14.7184 1.47993 14.6854 1.56281 14.6854C1.64569 14.6854 1.72518 14.7184 1.78378 14.777C1.84239 14.8356 1.87531 14.915 1.87531 14.9979C1.87531 15.2489 1.97281 15.4845 2.14969 15.6611C2.23658 15.7484 2.33993 15.8176 2.45376 15.8647C2.56759 15.9118 2.68963 15.9358 2.81281 15.9354C2.89569 15.9354 2.97518 15.9684 3.03378 16.027C3.09239 16.0856 3.12531 16.165 3.12531 16.2479C3.12531 16.3308 3.09239 16.4103 3.03378 16.4689C2.97518 16.5275 2.89569 16.5604 2.81281 16.5604ZM5.31219 15.3104C5.22931 15.3104 5.14982 15.2775 5.09122 15.2189C5.03261 15.1603 4.99969 15.0808 4.99969 14.9979V9.69043C4.99969 9.60755 5.03261 9.52806 5.09122 9.46946C5.14982 9.41085 5.22931 9.37793 5.31219 9.37793C5.39507 9.37793 5.47455 9.41085 5.53316 9.46946C5.59176 9.52806 5.62469 9.60755 5.62469 9.69043V14.9979C5.62469 15.0808 5.59176 15.1603 5.53316 15.2189C5.47455 15.2775 5.39507 15.3104 5.31219 15.3104Z" fill="#525F72"/>
<path d="M5.31281 10.0029C5.22993 10.0029 5.15045 9.97001 5.09184 9.9114C5.03324 9.8528 5.00031 9.77331 5.00031 9.69043C5.00031 9.60755 4.96739 9.52806 4.90878 9.46946C4.85018 9.41085 4.77069 9.37793 4.68781 9.37793C4.60493 9.37793 4.52545 9.34501 4.46684 9.2864C4.40824 9.2278 4.37531 9.14831 4.37531 9.06543C4.37531 8.98255 4.40824 8.90306 4.46684 8.84446C4.52545 8.78585 4.60493 8.75293 4.68781 8.75293C5.20469 8.75293 5.62531 9.17355 5.62531 9.69043C5.62531 9.77331 5.59239 9.8528 5.53378 9.9114C5.47518 9.97001 5.39569 10.0029 5.31281 10.0029ZM4.0625 16.5604C3.97962 16.5604 3.90013 16.5275 3.84153 16.4689C3.78292 16.4103 3.75 16.3308 3.75 16.2479C3.75 16.165 3.78292 16.0856 3.84153 16.027C3.90013 15.9684 3.97962 15.9354 4.0625 15.9354C4.31107 15.9351 4.54936 15.8362 4.72516 15.6605C4.90095 15.4848 4.9999 15.2465 5.00031 14.9979C5.00031 14.915 5.03324 14.8356 5.09184 14.777C5.15045 14.7184 5.22993 14.6854 5.31281 14.6854C5.39569 14.6854 5.47518 14.7184 5.53378 14.777C5.59239 14.8356 5.62531 14.915 5.62531 14.9979C5.62531 15.8595 4.92437 16.5604 4.0625 16.5604Z" fill="#525F72"/>
<path d="M4.68687 9.37793H2.1875C2.10462 9.37793 2.02513 9.34501 1.96653 9.2864C1.90792 9.2278 1.875 9.14831 1.875 9.06543C1.875 8.98255 1.90792 8.90306 1.96653 8.84446C2.02513 8.78585 2.10462 8.75293 2.1875 8.75293H4.68687C4.76975 8.75293 4.84924 8.78585 4.90785 8.84446C4.96645 8.90306 4.99938 8.98255 4.99938 9.06543C4.99938 9.14831 4.96645 9.2278 4.90785 9.2864C4.84924 9.34501 4.76975 9.37793 4.68687 9.37793ZM4.38031 13.4367H2.49969C2.41688 13.4364 2.33754 13.4034 2.27899 13.3449C2.22044 13.2863 2.18743 13.207 2.18719 13.1242L2.1875 10.3148C2.1875 10.2319 2.22042 10.1524 2.27903 10.0938C2.33763 10.0352 2.41712 10.0023 2.5 10.0023H4.37406C4.45694 10.0023 4.53643 10.0352 4.59503 10.0938C4.65364 10.1524 4.68656 10.2319 4.68656 10.3148L4.68687 13.0617C4.69615 13.1071 4.6952 13.154 4.68408 13.1991C4.67297 13.2441 4.65198 13.2861 4.62263 13.322C4.59328 13.3579 4.55631 13.3868 4.5144 13.4066C4.47249 13.4265 4.42668 13.4367 4.38031 13.4367ZM2.81219 12.8117H4.06187L4.06156 10.6273H2.8125L2.81219 12.8117Z" fill="#525F72"/>
<path d="M4.68705 14.3742C4.62148 14.3742 4.55758 14.3535 4.5044 14.3152C4.45123 14.2768 4.41148 14.2227 4.3908 14.1604L4.0783 13.2229C4.06469 13.1839 4.05897 13.1425 4.06148 13.1012C4.06399 13.0599 4.07468 13.0195 4.09293 12.9823C4.11118 12.9452 4.13663 12.912 4.16779 12.8848C4.19896 12.8576 4.23523 12.8368 4.27449 12.8237C4.31374 12.8106 4.35521 12.8054 4.39649 12.8085C4.43776 12.8115 4.47801 12.8228 4.51491 12.8415C4.55181 12.8602 4.58462 12.8861 4.61144 12.9176C4.63825 12.9492 4.65854 12.9857 4.67112 13.0251L4.98362 13.9626C4.99933 14.0096 5.00363 14.0597 4.99618 14.1087C4.98873 14.1577 4.96974 14.2042 4.94077 14.2444C4.9118 14.2846 4.87369 14.3173 4.82957 14.3399C4.78546 14.3625 4.73661 14.3742 4.68705 14.3742ZM2.18737 14.3742C2.13784 14.3742 2.08903 14.3624 2.04495 14.3398C2.00088 14.3172 1.96281 14.2845 1.93387 14.2443C1.90494 14.2041 1.88597 14.1576 1.87854 14.1086C1.87111 14.0596 1.87542 14.0096 1.89112 13.9626L2.20362 13.0251C2.2162 12.9857 2.23648 12.9492 2.2633 12.9176C2.29011 12.8861 2.32292 12.8602 2.35982 12.8415C2.39672 12.8228 2.43697 12.8115 2.47825 12.8085C2.51952 12.8054 2.56099 12.8106 2.60025 12.8237C2.63951 12.8368 2.67577 12.8576 2.70694 12.8848C2.73811 12.912 2.76355 12.9452 2.78181 12.9823C2.80006 13.0195 2.81075 13.0599 2.81326 13.1012C2.81577 13.1425 2.81005 13.1839 2.79643 13.2229L2.48393 14.1604C2.44018 14.2914 2.3183 14.3742 2.18737 14.3742Z" fill="#525F72"/>
<path d="M3.43719 14.6871C2.67687 14.6868 2.2225 14.5827 2.00625 14.3596C1.88312 14.2324 1.87344 14.1024 1.87531 14.0524C1.8775 13.9817 1.90363 13.9138 1.94942 13.8598C1.99521 13.8059 2.05796 13.7691 2.12739 13.7554C2.19683 13.7418 2.26884 13.7521 2.33165 13.7847C2.39445 13.8173 2.44433 13.8703 2.47312 13.9349C2.53687 13.969 2.77187 14.0618 3.43719 14.0621C4.10281 14.0621 4.33781 13.9693 4.40156 13.9352C4.4254 13.8815 4.46396 13.8355 4.51279 13.8028C4.56161 13.77 4.61871 13.7516 4.6775 13.7499L4.6875 13.7496C4.76862 13.7497 4.84651 13.7814 4.90471 13.8379C4.96291 13.8944 4.99686 13.9713 4.99937 14.0524C5.00125 14.1024 4.99156 14.2327 4.86812 14.3599C4.65188 14.583 4.19719 14.6871 3.43719 14.6871ZM4.06188 16.5609H2.81281C2.72993 16.5609 2.65045 16.5279 2.59184 16.4693C2.53324 16.4107 2.50031 16.3312 2.50031 16.2484C2.50031 16.1655 2.53324 16.086 2.59184 16.0274C2.65045 15.9688 2.72993 15.9359 2.81281 15.9359H4.06188C4.14476 15.9359 4.22424 15.9688 4.28285 16.0274C4.34145 16.086 4.37438 16.1655 4.37438 16.2484C4.37438 16.3312 4.34145 16.4107 4.28285 16.4693C4.22424 16.5279 4.14476 16.5609 4.06188 16.5609ZM5.62469 13.4371H5.31219C5.22931 13.4371 5.14982 13.4042 5.09122 13.3456C5.03261 13.287 4.99969 13.2075 4.99969 13.1246C4.99969 13.0417 5.03261 12.9622 5.09122 12.9036C5.14982 12.845 5.22931 12.8121 5.31219 12.8121H5.62469C5.70757 12.8121 5.78705 12.845 5.84566 12.9036C5.90426 12.9622 5.93719 13.0417 5.93719 13.1246C5.93719 13.2075 5.90426 13.287 5.84566 13.3456C5.78705 13.4042 5.70757 13.4371 5.62469 13.4371ZM1.5625 13.4371H1.25C1.16712 13.4371 1.08763 13.4042 1.02903 13.3456C0.970424 13.287 0.9375 13.2075 0.9375 13.1246C0.9375 13.0417 0.970424 12.9622 1.02903 12.9036C1.08763 12.845 1.16712 12.8121 1.25 12.8121H1.5625C1.64538 12.8121 1.72487 12.845 1.78347 12.9036C1.84208 12.9622 1.875 13.0417 1.875 13.1246C1.875 13.2075 1.84208 13.287 1.78347 13.3456C1.72487 13.4042 1.64538 13.4371 1.5625 13.4371ZM2.50062 10.6277C2.44913 10.6278 2.3984 10.6152 2.35298 10.5909C2.30756 10.5667 2.26885 10.5315 2.24031 10.4887L1.5225 9.41273C1.49972 9.37859 1.4839 9.3403 1.47592 9.30003C1.46794 9.25977 1.46798 9.21834 1.47601 9.17809C1.48405 9.13784 1.49994 9.09957 1.52277 9.06546C1.5456 9.03135 1.57492 9.00207 1.60906 8.9793C1.64321 8.95652 1.6815 8.94069 1.72176 8.93272C1.76202 8.92474 1.80346 8.92477 1.84371 8.93281C1.88396 8.94085 1.92223 8.95674 1.95634 8.97956C1.99045 9.00239 2.01972 9.03172 2.0425 9.06586L2.76031 10.1418C2.7917 10.1888 2.80973 10.2435 2.81249 10.3C2.81525 10.3565 2.80262 10.4126 2.77597 10.4625C2.74932 10.5124 2.70963 10.5541 2.66114 10.5832C2.61265 10.6123 2.55717 10.6277 2.50062 10.6277ZM4.37438 10.6271C4.31791 10.6269 4.26257 10.6113 4.2142 10.5822C4.16584 10.553 4.12625 10.5114 4.09964 10.4616C4.07303 10.4118 4.06037 10.3557 4.06302 10.2993C4.06567 10.2429 4.08352 10.1883 4.11469 10.1412L4.8325 9.06586C4.85528 9.03172 4.88455 9.00239 4.91866 8.97956C4.95277 8.95674 4.99104 8.94085 5.03129 8.93281C5.07154 8.92477 5.11298 8.92474 5.15324 8.93272C5.1935 8.94069 5.23179 8.95652 5.26594 8.9793C5.30008 9.00207 5.3294 9.03135 5.35223 9.06546C5.37506 9.09957 5.39095 9.13784 5.39899 9.17809C5.40702 9.21834 5.40706 9.25977 5.39908 9.30003C5.3911 9.3403 5.37528 9.37859 5.3525 9.41273L4.63469 10.488C4.60611 10.5309 4.5674 10.566 4.52198 10.5902C4.47657 10.6145 4.42586 10.6272 4.37438 10.6271ZM9.99906 16.5615C9.91618 16.5615 9.8367 16.5286 9.77809 16.47C9.71949 16.4113 9.68656 16.3319 9.68656 16.249V10.9352C9.68656 10.8524 9.71949 10.7729 9.77809 10.7143C9.8367 10.6557 9.91618 10.6227 9.99906 10.6227C10.0819 10.6227 10.1614 10.6557 10.22 10.7143C10.2786 10.7729 10.3116 10.8524 10.3116 10.9352V16.249C10.3116 16.3319 10.2786 16.4113 10.22 16.47C10.1614 16.5286 10.0819 16.5615 9.99906 16.5615Z" fill="#525F72"/>
<path d="M10.0004 16.5615C9.93851 16.5616 9.878 16.5434 9.82653 16.5091C9.77505 16.4747 9.73493 16.4259 9.71126 16.3687C9.68759 16.3116 9.68143 16.2487 9.69357 16.188C9.70571 16.1274 9.7356 16.0717 9.77944 16.028L10.4044 15.403C10.4335 15.374 10.4679 15.351 10.5058 15.3353C10.5437 15.3196 10.5843 15.3115 10.6254 15.3115C10.6664 15.3115 10.707 15.3196 10.7449 15.3353C10.7829 15.351 10.8173 15.374 10.8463 15.403C10.8753 15.4321 10.8983 15.4665 10.914 15.5044C10.9297 15.5423 10.9378 15.5829 10.9378 15.624C10.9378 15.665 10.9297 15.7056 10.914 15.7435C10.8983 15.7815 10.8753 15.8159 10.8463 15.8449L10.2213 16.4699C10.1923 16.499 10.1579 16.522 10.12 16.5377C10.0821 16.5535 10.0414 16.5615 10.0004 16.5615Z" fill="#525F72"/>
<path d="M9.99995 16.5615C9.95891 16.5615 9.91826 16.5535 9.88035 16.5377C9.84243 16.522 9.808 16.499 9.77902 16.4699L9.15402 15.8449C9.125 15.8159 9.10199 15.7815 9.08628 15.7435C9.07058 15.7056 9.0625 15.665 9.0625 15.624C9.0625 15.5829 9.07058 15.5423 9.08628 15.5044C9.10199 15.4665 9.125 15.4321 9.15402 15.403C9.18303 15.374 9.21747 15.351 9.25538 15.3353C9.29329 15.3196 9.33392 15.3115 9.37495 15.3115C9.41598 15.3115 9.45661 15.3196 9.49452 15.3353C9.53243 15.351 9.56688 15.374 9.59589 15.403L10.2209 16.028C10.2647 16.0717 10.2946 16.1274 10.3068 16.188C10.3189 16.2487 10.3127 16.3116 10.2891 16.3687C10.2654 16.4259 10.2253 16.4747 10.1738 16.5091C10.1223 16.5434 10.0618 16.5616 9.99995 16.5615Z" fill="#525F72"/>
</svg>
