<svg width="18" height="18" viewBox="0 0 18 18" fill="none" xmlns="http://www.w3.org/2000/svg">
<path d="M12 16.6458H6C4.71034 16.6458 3.7499 16.2763 3.11182 15.6382C2.47373 15.0001 2.10417 14.0397 2.10417 12.75V5.25C2.10417 3.96034 2.47373 2.9999 3.11182 2.36182C3.7499 1.72373 4.71034 1.35417 6 1.35417H12C13.2897 1.35417 14.2501 1.72373 14.8882 2.36182C15.5263 2.9999 15.8958 3.96034 15.8958 5.25V12.75C15.8958 14.0397 15.5263 15.0001 14.8882 15.6382C14.2501 16.2763 13.2897 16.6458 12 16.6458ZM6 1.64583C4.86626 1.64583 3.94317 1.92132 3.30725 2.55725C2.67132 3.19317 2.39583 4.11626 2.39583 5.25V12.75C2.39583 13.8837 2.67132 14.8068 3.30725 15.4428C3.94317 16.0787 4.86626 16.3542 6 16.3542H12C13.1337 16.3542 14.0568 16.0787 14.6928 15.4428C15.3287 14.8068 15.6042 13.8837 15.6042 12.75V5.25C15.6042 4.11626 15.3287 3.19317 14.6928 2.55725C14.0568 1.92132 13.1337 1.64583 12 1.64583H6Z" fill="#5A687D" stroke="#5A687D" stroke-width="0.833333"/>
<path d="M13.875 6.9375H12.375C11.235 6.9375 10.3125 6.015 10.3125 4.875V3.375C10.3125 3.0675 10.5675 2.8125 10.875 2.8125C11.1825 2.8125 11.4375 3.0675 11.4375 3.375V4.875C11.4375 5.3925 11.8575 5.8125 12.375 5.8125H13.875C14.1825 5.8125 14.4375 6.0675 14.4375 6.375C14.4375 6.6825 14.1825 6.9375 13.875 6.9375Z" fill="#5A687D"/>
<path d="M9 10.313H6C5.6925 10.313 5.4375 10.058 5.4375 9.75049C5.4375 9.44299 5.6925 9.18799 6 9.18799H9C9.3075 9.18799 9.5625 9.44299 9.5625 9.75049C9.5625 10.058 9.3075 10.313 9 10.313Z" fill="#5A687D"/>
<path d="M12 13.3125H6C5.6925 13.3125 5.4375 13.0575 5.4375 12.75C5.4375 12.4425 5.6925 12.1875 6 12.1875H12C12.3075 12.1875 12.5625 12.4425 12.5625 12.75C12.5625 13.0575 12.3075 13.3125 12 13.3125Z" fill="#5A687D"/>
</svg>
