<svg width="20" height="20" viewBox="0 0 20 20" fill="none" xmlns="http://www.w3.org/2000/svg">
<path d="M6.16797 5.20817V5.70817H6.66797H13.3346H13.8346V5.20817V4.1665C13.8346 3.43389 13.7232 2.78542 13.2819 2.3442C12.8407 1.90298 12.1922 1.7915 11.4596 1.7915H8.54297C7.81035 1.7915 7.16188 1.90298 6.72067 2.3442C6.27945 2.78542 6.16797 3.43389 6.16797 4.1665V5.20817ZM13.9596 5.95817H6.04297C6.01282 5.95817 5.98154 5.94589 5.9559 5.92024C5.93025 5.8946 5.91797 5.86332 5.91797 5.83317V4.1665C5.91797 3.16773 6.15075 2.54083 6.53402 2.15756C6.9173 1.77428 7.54419 1.5415 8.54297 1.5415H11.4596C12.4584 1.5415 13.0853 1.77428 13.4686 2.15756C13.8519 2.54083 14.0846 3.16773 14.0846 4.1665V5.83317C14.0846 5.86332 14.0724 5.8946 14.0467 5.92024C14.0211 5.94589 13.9898 5.95817 13.9596 5.95817Z" fill="#5A687D" stroke="#5A687D"/>
<path d="M7.29297 12.625H6.79297V13.125V15.8333C6.79297 16.5481 6.94246 17.1774 7.38317 17.6181C7.82387 18.0588 8.45317 18.2083 9.16797 18.2083H10.8346C11.5494 18.2083 12.1787 18.0588 12.6194 17.6181C13.0601 17.1774 13.2096 16.5481 13.2096 15.8333V13.125V12.625H12.7096H7.29297ZM10.8346 18.4583H9.16797C8.24871 18.4583 7.61132 18.2071 7.20277 17.7985C6.79422 17.39 6.54297 16.7526 6.54297 15.8333V12.5C6.54297 12.4699 6.55525 12.4386 6.5809 12.4129C6.60654 12.3873 6.63782 12.375 6.66797 12.375H13.3346C13.3648 12.375 13.3961 12.3873 13.4217 12.4129C13.4474 12.4386 13.4596 12.4699 13.4596 12.5V15.8333C13.4596 16.7526 13.2084 17.39 12.7998 17.7985C12.3913 18.2071 11.7539 18.4583 10.8346 18.4583Z" fill="#5A687D" stroke="#5A687D"/>
<path d="M13.2083 13.1252V12.6252H12.7083H7.29167H6.79167V13.1252V15.0002C6.79167 15.0303 6.77938 15.0616 6.75374 15.0872C6.72809 15.1129 6.69681 15.1252 6.66667 15.1252H5C4.08074 15.1252 3.44335 14.8739 3.0348 14.4654C2.62625 14.0568 2.375 13.4194 2.375 12.5002V8.3335C2.375 7.41424 2.62625 6.77685 3.0348 6.3683C3.44335 5.95975 4.08074 5.7085 5 5.7085H15C15.9193 5.7085 16.5566 5.95975 16.9652 6.3683C17.3737 6.77685 17.625 7.41424 17.625 8.3335V12.5002C17.625 13.4194 17.3737 14.0568 16.9652 14.4654C16.5566 14.8739 15.9193 15.1252 15 15.1252H13.3333C13.3032 15.1252 13.2719 15.1129 13.2463 15.0872C13.2206 15.0616 13.2083 15.0303 13.2083 15.0002V13.1252ZM13.4583 14.3752V14.8752H13.9583H15C15.7148 14.8752 16.3441 14.7257 16.7848 14.285C17.2255 13.8443 17.375 13.215 17.375 12.5002V8.3335C17.375 7.6187 17.2255 6.9894 16.7848 6.54869C16.3441 6.10798 15.7148 5.9585 15 5.9585H5C4.2852 5.9585 3.65591 6.10798 3.2152 6.54869C2.77449 6.9894 2.625 7.6187 2.625 8.3335V12.5002C2.625 13.215 2.77449 13.8443 3.2152 14.285C3.65591 14.7257 4.2852 14.8752 5 14.8752H6.04167H6.54167V14.3752V12.5002C6.54167 12.47 6.55395 12.4387 6.5796 12.4131C6.60524 12.3874 6.63652 12.3752 6.66667 12.3752H13.3333C13.3635 12.3752 13.3948 12.3874 13.4204 12.4131C13.446 12.4387 13.4583 12.47 13.4583 12.5002V14.3752Z" fill="#5A687D" stroke="#5A687D"/>
<path d="M14.1654 12.625H5.83203C5.80188 12.625 5.7706 12.6127 5.74496 12.5871C5.71932 12.5614 5.70703 12.5301 5.70703 12.5C5.70703 12.4699 5.71932 12.4386 5.74496 12.4129C5.7706 12.3873 5.80188 12.375 5.83203 12.375H14.1654C14.1955 12.375 14.2268 12.3873 14.2524 12.4129C14.2781 12.4386 14.2904 12.4699 14.2904 12.5C14.2904 12.5301 14.2781 12.5614 14.2524 12.5871C14.2268 12.6127 14.1955 12.625 14.1654 12.625Z" fill="#5A687D" stroke="#5A687D"/>
<path d="M8.33203 9.2915H5.83203C5.80188 9.2915 5.7706 9.27922 5.74496 9.25358C5.71932 9.22793 5.70703 9.19665 5.70703 9.1665C5.70703 9.13636 5.71932 9.10508 5.74496 9.07943C5.7706 9.05379 5.80188 9.0415 5.83203 9.0415H8.33203C8.36218 9.0415 8.39346 9.05379 8.4191 9.07943C8.44475 9.10508 8.45703 9.13636 8.45703 9.1665C8.45703 9.19665 8.44475 9.22793 8.4191 9.25358C8.39346 9.27922 8.36218 9.2915 8.33203 9.2915Z" fill="#5A687D" stroke="#5A687D"/>
</svg>
