<svg width="24" height="24" viewBox="0 0 24 24" fill="none" xmlns="http://www.w3.org/2000/svg">
<path d="M7.5 6.25049V6.75049H8H16H16.5V6.25049V5.00049C16.5 4.12621 16.3656 3.38398 15.8661 2.88443C15.3665 2.38488 14.6243 2.25049 13.75 2.25049H10.25C9.37572 2.25049 8.6335 2.38488 8.13395 2.88443C7.6344 3.38399 7.5 4.12621 7.5 5.00049V6.25049ZM16.75 7.25049H7.25C7.11614 7.25049 7 7.13435 7 7.00049V5.00049C7 3.78838 7.28236 3.00523 7.76855 2.51904C8.25474 2.03285 9.03789 1.75049 10.25 1.75049H13.75C14.9621 1.75049 15.7453 2.03285 16.2314 2.51904C16.7176 3.00523 17 3.78838 17 5.00049V7.00049C17 7.13435 16.8839 7.25049 16.75 7.25049Z" fill="#D542C2" stroke="#D542C2"/>
<path d="M8.75 15.2505H8.25V15.7505V19.0005C8.25 19.847 8.4274 20.57 8.92895 21.0715C9.43049 21.5731 10.1535 21.7505 11 21.7505H13C13.8465 21.7505 14.5695 21.5731 15.0711 21.0715C15.5726 20.57 15.75 19.847 15.75 19.0005V15.7505V15.2505H15.25H8.75ZM13 22.2505H11C9.87908 22.2505 9.08544 21.9438 8.57105 21.4294C8.05667 20.9151 7.75 20.1214 7.75 19.0005V15.0005C7.75 14.8666 7.86614 14.7505 8 14.7505H16C16.1339 14.7505 16.25 14.8666 16.25 15.0005V19.0005C16.25 20.1214 15.9433 20.9151 15.4289 21.4294C14.9146 21.9438 14.1209 22.2505 13 22.2505Z" fill="#D542C2" stroke="#D542C2"/>
<path d="M15.75 15.7505V15.2505H15.25H8.75H8.25V15.7505V18.0005C8.25 18.1343 8.13386 18.2505 8 18.2505H6C4.87908 18.2505 4.08544 17.9438 3.57105 17.4294C3.05667 16.9151 2.75 16.1214 2.75 15.0005V10.0005C2.75 8.87957 3.05667 8.08592 3.57105 7.57154C4.08544 7.05716 4.87908 6.75049 6 6.75049H18C19.1209 6.75049 19.9146 7.05716 20.4289 7.57154C20.9433 8.08592 21.25 8.87957 21.25 10.0005V15.0005C21.25 16.1214 20.9433 16.9151 20.4289 17.4294C19.9146 17.9438 19.1209 18.2505 18 18.2505H16C15.8661 18.2505 15.75 18.1343 15.75 18.0005V15.7505ZM16.25 17.2505V17.7505H16.75H18C18.8465 17.7505 19.5695 17.5731 20.0711 17.0715C20.5726 16.57 20.75 15.847 20.75 15.0005V10.0005C20.75 9.15402 20.5726 8.43098 20.0711 7.92943C19.5695 7.42789 18.8465 7.25049 18 7.25049H6C5.15353 7.25049 4.43049 7.42789 3.92895 7.92943C3.4274 8.43098 3.25 9.15402 3.25 10.0005V15.0005C3.25 15.847 3.4274 16.57 3.92895 17.0715C4.43049 17.5731 5.15353 17.7505 6 17.7505H7.25H7.75V17.2505V15.0005C7.75 14.8666 7.86614 14.7505 8 14.7505H16C16.1339 14.7505 16.25 14.8666 16.25 15.0005V17.2505Z" fill="#D542C2" stroke="#D542C2"/>
<path d="M17 15.2505H7C6.86614 15.2505 6.75 15.1343 6.75 15.0005C6.75 14.8666 6.86614 14.7505 7 14.7505H17C17.1339 14.7505 17.25 14.8666 17.25 15.0005C17.25 15.1343 17.1339 15.2505 17 15.2505Z" fill="#D542C2" stroke="#D542C2"/>
<path d="M10 11.2505H7C6.86614 11.2505 6.75 11.1343 6.75 11.0005C6.75 10.8666 6.86614 10.7505 7 10.7505H10C10.1339 10.7505 10.25 10.8666 10.25 11.0005C10.25 11.1343 10.1339 11.2505 10 11.2505Z" fill="#D542C2" stroke="#D542C2"/>
</svg>
