<svg width="48" height="48" viewBox="0 0 48 48" fill="none" xmlns="http://www.w3.org/2000/svg">
<path d="M17.4096 18.1169C17.4096 15.3512 14.9182 13.2382 12.1736 13.7116C9.27283 15.294 8.70801 20.9398 12.4116 22.556C15.0885 22.8708 17.4096 20.7809 17.4096 18.1169Z" fill="#EDEBFD"/>
<path d="M12.1749 13.7114C10.068 14.0748 8.46875 15.9101 8.46875 18.1168C8.46875 20.3989 10.1814 22.2935 12.4129 22.5559C10.9935 19.9956 10.8901 16.2761 12.1749 13.7114Z" fill="#D1D1EF"/>
<path d="M28.4721 18.1169C28.4721 15.3512 25.9807 13.2382 23.2361 13.7116C20.3353 15.294 19.7705 20.9398 23.4741 22.556C26.1509 22.8708 28.4721 20.7809 28.4721 18.1169Z" fill="#EDEBFD"/>
<path d="M23.2335 13.7114C21.1266 14.0748 19.5273 15.9101 19.5273 18.1168C19.5273 20.3989 21.24 22.2935 23.4715 22.5559C22.0521 19.9956 21.9486 16.2761 23.2335 13.7114Z" fill="#D1D1EF"/>
<path d="M39.5307 18.1169C39.5307 15.3512 37.0393 13.2382 34.2947 13.7116C31.3939 15.294 30.8291 20.9398 34.5326 22.556C37.2095 22.8708 39.5307 20.7809 39.5307 18.1169Z" fill="#EDEBFD"/>
<path d="M34.296 13.7114C32.1891 14.0748 30.5898 15.9101 30.5898 18.1168C30.5898 20.3989 32.3025 22.2935 34.534 22.5559C33.1147 19.9956 33.0112 16.2761 34.296 13.7114Z" fill="#D1D1EF"/>
<path d="M17.4096 35.0608C17.4096 32.295 14.9182 30.182 12.1736 30.6554C9.27283 32.2378 8.70801 37.8837 12.4116 39.4999C15.0885 39.8147 17.4096 37.7248 17.4096 35.0608Z" fill="#EDEBFD"/>
<path d="M12.1749 30.6553C10.068 31.0186 8.46875 32.854 8.46875 35.0606C8.46875 37.3427 10.1814 39.2373 12.4129 39.4998C10.9935 36.9394 10.8901 33.22 12.1749 30.6553Z" fill="#D1D1EF"/>
<path d="M28.4721 35.0608C28.4721 32.295 25.9807 30.182 23.2361 30.6554C20.3353 32.2378 19.7705 37.8837 23.4741 39.4999C26.1509 39.8147 28.4721 37.7248 28.4721 35.0608Z" fill="#EDEBFD"/>
<path d="M23.2335 30.6553C21.1266 31.0186 19.5273 32.854 19.5273 35.0606C19.5273 37.3427 21.24 39.2373 23.4715 39.4998C22.0521 36.9394 21.9486 33.22 23.2335 30.6553Z" fill="#D1D1EF"/>
<path d="M39.5307 35.0608C39.5307 32.295 37.0393 30.182 34.2947 30.6554C31.3939 32.2378 30.8291 37.8837 34.5326 39.4999C37.2095 39.8147 39.5307 37.7248 39.5307 35.0608Z" fill="#EDEBFD"/>
<path d="M34.296 30.6553C32.1891 31.0186 30.5898 32.854 30.5898 35.0606C30.5898 37.3427 32.3025 39.2373 34.534 39.4998C33.1147 36.9394 33.0112 33.22 34.296 30.6553Z" fill="#D1D1EF"/>
<path d="M39.5304 26.8236C39.5304 26.0436 38.8985 25.4116 38.1185 25.4116H13.6212C10.8215 25.4116 10.4551 26.0445 10.4551 26.8236C10.4551 27.6035 10.8215 28.2355 13.6212 28.2355H38.1185C38.8991 28.2355 39.5304 27.6026 39.5304 26.8236Z" fill="#DF6D2B"/>
<path d="M12.2098 26.8236C12.2098 26.0445 12.8411 25.4116 13.6217 25.4116H9.88069C9.10006 25.4116 8.46875 26.0445 8.46875 26.8236C8.46875 27.6036 9.10069 28.2355 9.88069 28.2355H13.6216C12.8417 28.2355 12.2098 27.6036 12.2098 26.8236Z" fill="#BB521D"/>
<path d="M39.5304 9.88068C39.5304 9.10068 38.8985 8.46875 38.1185 8.46875H13.6212C10.8215 8.46875 10.4551 9.10162 10.4551 9.88068C10.4551 10.6607 10.8215 11.2926 13.6212 11.2926H38.1185C38.8991 11.2925 39.5304 10.6597 39.5304 9.88068Z" fill="#DF6D2B"/>
<path d="M12.2098 9.88069C12.2098 9.10162 12.8411 8.46875 13.6217 8.46875H9.88069C9.10006 8.46875 8.46875 9.10162 8.46875 9.88069C8.46875 10.6607 9.10069 11.2926 9.88069 11.2926H13.6216C12.8417 11.2926 12.2098 10.6607 12.2098 9.88069Z" fill="#BB521D"/>
<path d="M21.8817 11.2926H15.0575M32.9417 11.2926H26.1175M33.6585 8.46881H38.119C38.8989 8.46881 39.5309 9.10075 39.5309 9.88074C39.5309 10.6595 38.8996 11.2927 38.119 11.2927H37.1776M10.822 11.2926H9.88068C9.10068 11.2926 8.46875 10.6607 8.46875 9.88068C8.46875 9.10193 9.10006 8.46875 9.88068 8.46875H31.4622" stroke="black" stroke-width="0.937495" stroke-miterlimit="10" stroke-linecap="round" stroke-linejoin="round"/>
<path d="M39.4119 19.1465C39.9794 16.7433 38.4913 14.3351 36.088 13.7676C33.6848 13.2001 31.2766 14.6883 30.7091 17.0915C30.1417 19.4947 31.6298 21.9029 34.033 22.4704C36.4362 23.0378 38.8445 21.5497 39.4119 19.1465Z" stroke="black" stroke-width="0.937495" stroke-miterlimit="10" stroke-linecap="round" stroke-linejoin="round"/>
<path d="M35.0585 13.6457V14.6039M31.8971 14.9553L32.5742 15.6324M30.5875 18.1168H31.5457M31.8971 21.2782L32.5742 20.6011M35.0585 22.5878V21.6296M38.22 21.2782L37.5429 20.6011M39.5296 18.1168H38.5714M38.22 14.9553L37.5429 15.6324M32.9407 14.1785V11.2925H37.1764V14.1785M20.8371 14.9553C22.5836 13.2088 25.4137 13.209 27.16 14.9553C28.9078 16.7018 28.9049 19.5346 27.16 21.2782C25.4143 23.0238 22.5843 23.0253 20.8371 21.2782M20.8371 14.9553C19.0921 16.6989 19.0894 19.5317 20.8371 21.2782M20.8371 14.9553L21.5142 15.6324M20.8371 21.2782L21.5142 20.6011M23.9986 13.6457V14.6039M19.5275 18.1168H20.4857M23.9986 22.5878V21.6296M27.16 21.2782L26.4829 20.6011M28.4696 18.1168H27.5114M27.16 14.9553L26.4829 15.6324M25.1752 19.2933L23.9986 18.1168V16.9401" stroke="black" stroke-width="0.937495" stroke-miterlimit="10" stroke-linecap="round" stroke-linejoin="round"/>
<path d="M21.8828 14.1785V11.2925H26.1186V14.1785" stroke="black" stroke-width="0.937495" stroke-miterlimit="10" stroke-linecap="round" stroke-linejoin="round"/>
<path d="M17.2908 19.1455C17.8583 16.7423 16.3702 14.3341 13.9669 13.7666C11.5637 13.1991 9.15552 14.6873 8.58805 17.0905C8.02058 19.4937 9.50873 21.9019 11.9119 22.4694C14.3152 23.0369 16.7234 21.5487 17.2908 19.1455Z" stroke="black" stroke-width="0.937495" stroke-miterlimit="10" stroke-linecap="round" stroke-linejoin="round"/>
<path d="M12.9398 13.6457V14.6039M9.77837 14.9553L10.4554 15.6324M8.46875 18.1168H9.42693M9.77837 21.2782L10.4554 20.6011M12.9398 22.5878V21.6296M16.1012 21.2782L15.4241 20.6011M17.4108 18.1168H16.4526M16.1012 14.9553L15.4241 15.6324M12.9398 16.9401V18.1168H14.8067M35.0597 19.2933V18.1168H33.1929M33.7104 35.0597H35.0597L36.2363 36.2363M10.8219 14.1785V11.2925H15.0576V14.1785M21.8819 28.2354H15.0576M32.9419 28.2354H26.1176M19.5679 25.4116H38.1191C38.8991 25.4116 39.5311 26.0436 39.5311 26.8236C39.5311 27.6023 38.8998 28.2355 38.1191 28.2355H37.1778M10.8222 28.2354H9.88087C9.10087 28.2354 8.46894 27.6035 8.46894 26.8235C8.46894 26.0448 9.10025 25.4116 9.88087 25.4116H17.3715" stroke="black" stroke-width="0.937495" stroke-miterlimit="10" stroke-linecap="round" stroke-linejoin="round"/>
<path d="M35.0608 39.5307C37.53 39.5307 39.5317 37.529 39.5317 35.0598C39.5317 32.5906 37.53 30.5889 35.0608 30.5889C32.5916 30.5889 30.5898 32.5906 30.5898 35.0598C30.5898 37.529 32.5916 39.5307 35.0608 39.5307Z" stroke="black" stroke-width="0.937495" stroke-miterlimit="10" stroke-linecap="round" stroke-linejoin="round"/>
<path d="M35.0585 30.5885V31.5468M31.8971 31.8981L32.5742 32.5753M30.5875 35.0596H31.5457M31.8971 38.221L32.5742 37.5439M35.0585 39.5307V38.5724M38.22 38.221L37.5429 37.5439M39.5296 35.0596H38.5714M38.22 31.8981L37.5429 32.5753M36.2352 36.2362L35.0585 35.0596M32.9407 31.1213V28.2354H37.1764V31.1213M20.8371 31.8981C22.5836 30.1517 25.4137 30.1518 27.16 31.8981C28.9078 33.6446 28.9049 36.4774 27.16 38.221C25.4143 39.9666 22.5843 39.9682 20.8371 38.221C19.0894 36.4746 19.0921 33.6418 20.8371 31.8981ZM20.8371 31.8981L21.5142 32.5753M23.9986 30.5885V31.5468M19.5275 35.0596H20.4857M20.8371 38.221L21.5142 37.5439M23.9986 39.5307V38.5724M27.16 38.221L26.4829 37.5439M28.4696 35.0596H27.5114M27.16 31.8981L26.4829 32.5753M25.1752 36.2362L23.9986 35.0596V33.883" stroke="black" stroke-width="0.937495" stroke-miterlimit="10" stroke-linecap="round" stroke-linejoin="round"/>
<path d="M21.8821 31.1213V28.2354H26.1178V31.1213M9.77855 31.8981C11.198 30.4787 13.353 30.2018 15.0578 31.1213C16.4657 31.878 17.411 33.3666 17.411 35.0596C17.411 36.2939 16.9103 37.4121 16.1014 38.221C14.3558 39.9665 11.5257 39.9682 9.77855 38.221C8.03299 36.4755 8.03131 33.6454 9.77855 31.8981ZM9.77855 31.8981L10.4556 32.5753M12.94 30.5885V31.5468M8.46893 35.0596H9.42711M9.77855 38.221L10.4556 37.5439M12.94 39.5307V38.5724M16.1014 38.221L15.4243 37.5439M17.411 35.0596H16.4528M16.1014 31.8981L15.4243 32.5753" stroke="black" stroke-width="0.937495" stroke-miterlimit="10" stroke-linecap="round" stroke-linejoin="round"/>
<path d="M10.8223 31.1214V28.2354H15.058V31.1214M11.7635 36.2362L12.9401 35.0597V33.883" stroke="black" stroke-width="0.937495" stroke-miterlimit="10" stroke-linecap="round" stroke-linejoin="round"/>
</svg>
