<svg width="20" height="20" viewBox="0 0 20 20" fill="none" xmlns="http://www.w3.org/2000/svg">
<g clip-path="url(#clip0_1973_103679)">
<path d="M8.47656 14.2969C8.69219 14.2969 8.86719 14.1219 8.86719 13.9062C8.86719 13.6906 8.69219 13.5156 8.47656 13.5156C8.26094 13.5156 8.08594 13.6906 8.08594 13.9062C8.08594 14.1219 8.26094 14.2969 8.47656 14.2969Z" fill="#525F72"/>
<path d="M0.153497 15.198L4.841 19.8855C4.87726 19.9218 4.92031 19.9506 4.9677 19.9702C5.01508 19.9899 5.06588 20 5.11717 20C5.16846 20 5.21925 19.9899 5.26664 19.9702C5.31403 19.9506 5.35708 19.9218 5.39334 19.8855L7.97147 17.3074C8.00775 17.2712 8.03652 17.2281 8.05616 17.1807C8.07579 17.1333 8.0859 17.0825 8.0859 17.0312C8.0859 16.98 8.07579 16.9292 8.05616 16.8818C8.03652 16.8344 8.00775 16.7913 7.97147 16.7551L7.85701 16.6406H13.4879C13.9824 16.6406 14.4543 16.4552 14.8183 16.1174L19.5572 11.676C20.0108 11.2547 20.1611 10.5855 19.931 10.0108C19.8493 9.80581 19.7235 9.6213 19.5625 9.47038C19.4014 9.31946 19.2092 9.20584 18.9993 9.13758C18.7896 9.06872 18.5673 9.04687 18.3482 9.07359C18.1292 9.1003 17.9186 9.17492 17.7316 9.29215C17.7292 9.29367 16.6795 9.98246 16.6795 9.98246C16.6724 7.865 15.3926 5.60699 13.631 4.59047C13.7339 4.47208 13.8121 4.33428 13.8609 4.1852C14.0625 3.57191 13.7274 2.90816 13.1133 2.70539C13.094 2.69898 13.0748 2.69332 13.0556 2.68738L14.0611 0.881055C14.0897 0.82978 14.1063 0.772719 14.1098 0.714122C14.1133 0.655524 14.1035 0.5969 14.0811 0.542617C14.0588 0.488297 14.0246 0.439708 13.9809 0.400472C13.9372 0.361236 13.8853 0.332366 13.8289 0.316016C13.1079 0.106367 12.3585 0 11.6015 0C10.8447 0 10.0952 0.106367 9.3742 0.315859C9.3178 0.332228 9.26583 0.361105 9.22213 0.400341C9.17844 0.439576 9.14416 0.488161 9.12184 0.542478C9.09953 0.596795 9.08975 0.655446 9.09323 0.714066C9.09672 0.772686 9.11338 0.829765 9.14197 0.881055L10.1475 2.68738C10.128 2.69348 10.1085 2.6993 10.0889 2.7057C9.47568 2.90816 9.14076 3.57176 9.34233 4.18547C9.39147 4.33443 9.46997 4.47204 9.57318 4.59016C7.78529 5.6218 6.52342 7.90297 6.52342 10C6.52342 10.0572 6.52479 10.1137 6.52662 10.1697C5.82701 10.3605 5.17654 10.7083 4.62951 11.1873L3.44236 12.2259L3.28397 12.0676C3.2477 12.0313 3.20465 12.0025 3.15726 11.9829C3.10988 11.9632 3.05909 11.9531 3.00779 11.9531C2.9565 11.9531 2.90571 11.9632 2.85832 11.9829C2.81094 12.0025 2.76788 12.0313 2.73162 12.0676L0.153497 14.6457C0.117218 14.682 0.0884388 14.725 0.0688038 14.7724C0.0491687 14.8198 0.0390625 14.8706 0.0390625 14.9219C0.0390625 14.9732 0.0491687 15.024 0.0688038 15.0713C0.0884388 15.1187 0.117218 15.1618 0.153497 15.198ZM10.0715 0.944687C10.5721 0.836016 11.0847 0.78125 11.6015 0.78125C12.1183 0.78125 12.631 0.836016 13.1317 0.944687L12.2612 2.5082C11.8236 2.44701 11.3796 2.44701 10.9421 2.5082L10.0715 0.944687ZM10.3328 3.44789C11.1344 3.18559 12.0082 3.16574 12.8692 3.44758C13.0742 3.51516 13.186 3.73672 13.1187 3.94121C13.0946 4.01562 13.0485 4.081 12.9866 4.12878C12.9246 4.17656 12.8497 4.20452 12.7716 4.20898C12.0013 3.96406 11.2013 3.96363 10.4313 4.2082H10.4312C10.2706 4.19816 10.1344 4.09316 10.0844 3.94133C10.0171 3.73656 10.1289 3.515 10.3328 3.44789ZM10.5488 4.99281C11.2262 4.74883 11.9279 4.74305 12.6069 4.97637C14.4219 5.60039 15.8984 7.85402 15.8984 10C15.8984 10.1819 15.887 10.3552 15.8644 10.5173L13.9868 11.7491C13.6962 11.3891 13.2556 11.1719 12.7734 11.1719H11.9922V10.7141C12.4469 10.5528 12.7734 10.1186 12.7734 9.60938C12.7734 8.96316 12.2478 8.4375 11.6015 8.4375C11.3862 8.4375 11.2109 8.26234 11.2109 8.04688C11.2109 7.83141 11.3862 7.65625 11.6015 7.65625C11.7399 7.65625 11.886 7.72691 12.024 7.86043C12.1791 8.01043 12.4264 8.00629 12.5764 7.85145C12.7264 7.69637 12.7223 7.44902 12.5673 7.29902C12.369 7.10707 12.1707 6.99863 11.9922 6.93937V6.48438C11.9922 6.26863 11.8173 6.09375 11.6015 6.09375C11.3858 6.09375 11.2109 6.26863 11.2109 6.48438V6.94215C10.7563 7.10344 10.4297 7.5377 10.4297 8.04688C10.4297 8.69309 10.9553 9.21875 11.6015 9.21875C11.817 9.21875 11.9922 9.39391 11.9922 9.60938C11.9922 9.82484 11.817 10 11.6015 10C11.4346 10 11.2546 9.895 11.0944 9.70445C10.9555 9.53934 10.709 9.51797 10.544 9.6568C10.3788 9.7957 10.3575 10.0421 10.4963 10.2072C10.7051 10.4556 10.9508 10.6287 11.2109 10.7159V11.1719H11.0809C10.889 11.1719 10.8028 11.0468 10.6676 10.9593C9.84217 10.3407 8.8199 10 7.78865 10C7.6274 10 7.4658 10.0084 7.30498 10.0247C7.30498 10.0165 7.30467 10.0084 7.30467 10C7.30467 7.88406 8.76006 5.63797 10.5488 4.99281ZM5.14408 11.775C5.87799 11.1323 6.82108 10.7812 7.78865 10.7812C8.65197 10.7812 9.50783 11.0664 10.1985 11.5842C10.2981 11.6425 10.5755 11.9531 11.0807 11.9531H12.7734C13.2181 11.9531 13.5547 12.3146 13.5547 12.7344C13.5547 13.1651 13.2042 13.5156 12.7734 13.5156H10.039C9.8233 13.5156 9.64842 13.6905 9.64842 13.9062C9.64842 14.122 9.8233 14.2969 10.039 14.2969H12.7734C13.6349 14.2969 14.3359 13.5959 14.3359 12.7344C14.3359 12.6448 14.328 12.5564 14.313 12.4695L18.149 9.9527C18.2389 9.89703 18.3398 9.86169 18.4448 9.84914C18.5498 9.83659 18.6562 9.84714 18.7567 9.88004C18.8578 9.913 18.9505 9.9678 19.028 10.0406C19.1056 10.1133 19.1662 10.2022 19.2056 10.3011C19.3184 10.5824 19.2476 10.8975 19.0242 11.1049L14.2854 15.5461C14.0688 15.7477 13.7838 15.8597 13.4878 15.8594H7.0758L3.99611 12.7795L5.14408 11.775ZM3.00783 12.8961L7.14295 17.0312L5.11717 19.057L0.982013 14.9219L3.00783 12.8961Z" fill="#525F72"/>
</g>
<defs>
<clipPath id="clip0_1973_103679">
<rect width="20" height="20" fill="white"/>
</clipPath>
</defs>
</svg>
